<svg xmlns="http://www.w3.org/2000/svg" xmlns:xlink="http://www.w3.org/1999/xlink" width="500" zoomAndPan="magnify" viewBox="0 0 375 374.999991" height="500" preserveAspectRatio="xMidYMid meet" version="1.0"><path fill="#b3b4bd" d="M 209.9375 14.484375 C 131.765625 0.0351562 72.21875 54.050781 67.804688 58.1875 C 60.808594 64.746094 11.558594 112.46875 13.851562 187.316406 C 15.867188 253.273438 57.136719 314.917969 115.539062 338.378906 C 206.644531 374.972656 331.089844 315.265625 348.777344 209.167969 C 363.984375 117.929688 293.96875 30.011719 209.9375 14.484375 " fill-opacity="1" fill-rule="nonzero"/><path fill="#e5e7fd" d="M 228.8125 250.964844 L 159.730469 251.398438 C 159.285156 251.398438 159.136719 251.8125 159.136719 252.210938 L 159.136719 310.988281 C 159.136719 316.613281 119.886719 331.234375 119.503906 330.488281 L 119.457031 336.710938 C 119.453125 337.867188 120.472656 338.894531 121.769531 338.894531 L 122.632812 338.894531 C 122.640625 338.894531 122.644531 338.894531 122.652344 338.894531 L 180.570312 338.894531 C 183.257812 338.894531 185.914062 338.292969 188.347656 337.277344 L 220.191406 323.867188 C 225.921875 321.453125 229.539062 316.269531 229.539062 310.613281 L 229.539062 251.78125 C 229.539062 251.382812 229.257812 250.964844 228.8125 250.964844 " fill-opacity="1" fill-rule="nonzero"/><path fill="#f4f5f8" d="M 152.140625 247.976562 L 152.140625 306.761719 C 152.140625 312.554688 148.410156 317.835938 142.550781 320.335938 L 121.070312 329.507812 C 119.667969 330.105469 120.144531 331.984375 121.699219 331.984375 L 180.722656 331.984375 C 183.378906 331.984375 186 331.460938 188.398438 330.449219 L 212.199219 320.429688 C 218.105469 317.945312 221.871094 312.644531 221.871094 306.820312 L 221.871094 247.976562 C 221.871094 247.734375 221.652344 247.539062 221.382812 247.539062 L 152.628906 247.539062 C 152.359375 247.539062 152.140625 247.734375 152.140625 247.976562 " fill-opacity="1" fill-rule="nonzero"/><path fill="#141619" d="M 152.75 248.148438 L 152.75 306.761719 C 152.75 312.765625 148.839844 318.316406 142.789062 320.898438 L 121.308594 330.066406 C 120.8125 330.277344 120.828125 330.644531 120.859375 330.789062 C 120.914062 331.058594 121.167969 331.375 121.699219 331.375 L 180.722656 331.375 C 183.277344 331.375 185.851562 330.859375 188.164062 329.886719 L 211.964844 319.867188 C 217.613281 317.488281 221.261719 312.367188 221.261719 306.820312 L 221.261719 248.148438 Z M 180.722656 332.59375 L 121.699219 332.59375 C 120.691406 332.59375 119.851562 331.953125 119.664062 331.035156 C 119.484375 330.15625 119.953125 329.320312 120.832031 328.945312 L 142.3125 319.777344 C 147.914062 317.386719 151.53125 312.277344 151.53125 306.761719 L 151.53125 247.976562 C 151.53125 247.398438 152.023438 246.929688 152.628906 246.929688 L 221.382812 246.929688 C 221.988281 246.929688 222.480469 247.398438 222.480469 247.976562 L 222.480469 306.820312 C 222.480469 312.859375 218.539062 318.421875 212.4375 320.992188 L 188.636719 331.011719 C 186.175781 332.046875 183.441406 332.59375 180.722656 332.59375 " fill-opacity="1" fill-rule="nonzero"/><path fill="#0a21c0" d="M 23.417969 280.851562 L 321.167969 281.519531 C 323.773438 281.519531 326.375 279.558594 326.703125 276.96875 L 350.492188 91.472656 C 351.066406 86.957031 347.570312 82.464844 343.082031 82.578125 L 48.78125 84.132812 L 23.417969 280.851562 " fill-opacity="1" fill-rule="nonzero"/><path fill="#e5e7fd" d="M 331.386719 83.230469 C 336.507812 83.230469 341.136719 88.421875 340.480469 93.515625 L 316.988281 276.921875 C 316.65625 279.511719 313.882812 281.703125 311.28125 281.703125 L 18.800781 281.230469 C 15.675781 281.230469 13.589844 278.636719 13.988281 275.53125 L 38.3125 88.722656 C 38.648438 86.132812 40.359375 83.230469 42.964844 83.230469 L 331.386719 83.230469 " fill-opacity="1" fill-rule="nonzero"/><path fill="#f4f5f8" d="M 316.632812 96.648438 C 321.257812 96.648438 325.429688 101.117188 324.839844 105.503906 L 303.644531 263.355469 C 303.339844 265.585938 300.839844 267.472656 298.492188 267.472656 L 34.589844 267.0625 C 31.769531 267.0625 29.886719 264.832031 30.25 262.15625 L 52.195312 101.375 C 52.496094 99.148438 54.042969 96.648438 56.394531 96.648438 L 316.632812 96.648438 " fill-opacity="1" fill-rule="nonzero"/><path fill="#141619" d="M 326.007812 208.449219 C 325.984375 208.449219 325.957031 208.449219 325.929688 208.445312 C 325.597656 208.402344 325.359375 208.097656 325.402344 207.761719 L 340.164062 93.058594 C 340.457031 90.800781 339.761719 88.523438 338.257812 86.816406 C 336.761719 85.117188 334.605469 84.140625 332.347656 84.140625 L 248.621094 83.394531 C 248.285156 83.390625 248.015625 83.117188 248.019531 82.78125 C 248.019531 82.445312 248.292969 82.175781 248.628906 82.175781 C 248.628906 82.175781 248.628906 82.175781 248.636719 82.175781 L 332.351562 82.921875 C 334.960938 82.921875 337.445312 84.046875 339.171875 86.011719 C 340.910156 87.980469 341.710938 90.605469 341.375 93.214844 L 326.613281 207.917969 C 326.574219 208.226562 326.3125 208.449219 326.007812 208.449219 " fill-opacity="1" fill-rule="nonzero"/><path fill="#141619" d="M 19.519531 282.457031 C 17.859375 282.457031 16.277344 281.742188 15.175781 280.492188 C 14.074219 279.238281 13.5625 277.566406 13.777344 275.910156 L 20.726562 213.5 C 20.761719 213.167969 21.0625 212.925781 21.398438 212.964844 C 21.734375 213 21.972656 213.304688 21.9375 213.636719 L 14.988281 276.054688 C 14.820312 277.375 15.222656 278.695312 16.09375 279.6875 C 16.960938 280.671875 18.210938 281.238281 19.519531 281.238281 L 237.25 280.84375 C 237.585938 280.84375 237.859375 281.117188 237.859375 281.449219 C 237.859375 281.789062 237.585938 282.0625 237.25 282.0625 L 19.519531 282.457031 " fill-opacity="1" fill-rule="nonzero"/><path fill="#e5e7fd" d="M 83.433594 44.320312 C 83.433594 27.191406 97.320312 13.304688 114.449219 13.304688 C 131.578125 13.304688 145.460938 27.191406 145.460938 44.320312 C 145.460938 61.449219 131.578125 75.332031 114.449219 75.332031 C 97.320312 75.332031 83.433594 61.449219 83.433594 44.320312 " fill-opacity="1" fill-rule="nonzero"/><path fill="#f4f5f8" d="M 89.539062 44.320312 C 89.539062 30.5625 100.691406 19.410156 114.449219 19.410156 C 128.207031 19.410156 139.359375 30.5625 139.359375 44.320312 C 139.359375 58.078125 128.207031 69.230469 114.449219 69.230469 C 100.691406 69.230469 89.539062 58.078125 89.539062 44.320312 " fill-opacity="1" fill-rule="nonzero"/><path fill="#e5e7fd" d="M 95.285156 44.320312 C 95.285156 33.738281 103.863281 25.160156 114.445312 25.160156 C 125.03125 25.160156 133.609375 33.738281 133.609375 44.320312 C 133.609375 54.90625 125.03125 63.484375 114.445312 63.484375 C 103.863281 63.484375 95.285156 54.90625 95.285156 44.320312 " fill-opacity="1" fill-rule="nonzero"/><path fill="#f4f5f8" d="M 102.074219 44.320312 C 102.074219 37.484375 107.613281 31.945312 114.449219 31.945312 C 121.28125 31.945312 126.820312 37.484375 126.820312 44.320312 C 126.820312 51.152344 121.28125 56.691406 114.449219 56.691406 C 107.613281 56.691406 102.074219 51.152344 102.074219 44.320312 " fill-opacity="1" fill-rule="nonzero"/><path fill="#0a21c0" d="M 107.691406 44.320312 C 107.691406 40.589844 110.714844 37.566406 114.445312 37.566406 C 118.179688 37.566406 121.203125 40.589844 121.203125 44.320312 C 121.203125 48.054688 118.179688 51.078125 114.445312 51.078125 C 110.714844 51.078125 107.691406 48.054688 107.691406 44.320312 " fill-opacity="1" fill-rule="nonzero"/><path fill="#0a21c0" d="M 86.148438 32.222656 C 86.066406 32.222656 85.980469 32.207031 85.898438 32.167969 C 85.589844 32.03125 85.453125 31.667969 85.59375 31.363281 C 88.8125 24.203125 94.542969 18.523438 101.722656 15.359375 C 102.035156 15.226562 102.390625 15.367188 102.527344 15.675781 C 102.664062 15.984375 102.523438 16.34375 102.214844 16.476562 C 95.308594 19.515625 89.800781 24.980469 86.707031 31.863281 C 86.605469 32.089844 86.382812 32.222656 86.148438 32.222656 " fill-opacity="1" fill-rule="nonzero"/><path fill="#0a21c0" d="M 96.148438 50.628906 C 95.886719 50.628906 95.644531 50.460938 95.566406 50.199219 C 94.976562 48.304688 94.675781 46.324219 94.675781 44.320312 C 94.675781 43.984375 94.949219 43.710938 95.285156 43.710938 C 95.621094 43.710938 95.894531 43.984375 95.894531 44.320312 C 95.894531 46.199219 96.175781 48.058594 96.730469 49.839844 C 96.828125 50.160156 96.648438 50.5 96.328125 50.601562 C 96.269531 50.621094 96.207031 50.628906 96.148438 50.628906 " fill-opacity="1" fill-rule="nonzero"/><path fill="#0a21c0" d="M 133.21875 41.070312 C 132.933594 41.070312 132.679688 40.871094 132.621094 40.582031 C 131.777344 36.457031 129.515625 32.703125 126.246094 30.003906 C 125.988281 29.789062 125.953125 29.40625 126.164062 29.148438 C 126.378906 28.886719 126.761719 28.847656 127.023438 29.066406 C 130.503906 31.9375 132.917969 35.941406 133.816406 40.335938 C 133.886719 40.667969 133.671875 40.988281 133.34375 41.058594 C 133.300781 41.066406 133.257812 41.070312 133.21875 41.070312 " fill-opacity="1" fill-rule="nonzero"/><path fill="#0a21c0" d="M 95.285156 44.929688 C 94.949219 44.929688 94.675781 44.660156 94.675781 44.320312 C 94.675781 33.421875 103.542969 24.550781 114.445312 24.550781 C 116.503906 24.550781 118.535156 24.867188 120.476562 25.488281 C 120.796875 25.589844 120.976562 25.933594 120.871094 26.253906 C 120.769531 26.574219 120.429688 26.75 120.105469 26.648438 C 118.28125 26.066406 116.378906 25.773438 114.445312 25.773438 C 104.21875 25.773438 95.894531 34.09375 95.894531 44.320312 C 95.894531 44.660156 95.621094 44.929688 95.285156 44.929688 " fill-opacity="1" fill-rule="nonzero"/><path fill="#141619" d="M 47.324219 140.21875 C 45.308594 140.722656 43.339844 139.042969 40.28125 136.433594 C 36.566406 133.261719 33.980469 131.050781 33.839844 127.492188 C 33.722656 124.371094 35.535156 121.46875 37.628906 119.917969 C 38.832031 119.03125 40.652344 118.617188 44.292969 117.796875 C 48.464844 116.859375 49 117.230469 51.414062 116.285156 C 54.226562 115.179688 54.667969 114.222656 55.960938 114.464844 C 58.054688 114.859375 59.941406 117.945312 59.898438 120.828125 C 59.84375 124.640625 56.453125 125.210938 52.625 131.433594 C 49.429688 136.632812 49.714844 139.621094 47.324219 140.21875 " fill-opacity="1" fill-rule="nonzero"/><path fill="#0a21c0" d="M 36.464844 153.046875 C 43.269531 150.828125 53.632812 149.234375 66.023438 153.179688 C 70.542969 154.621094 73.78125 158.597656 74.339844 163.304688 L 84.433594 221.417969 C 84.933594 225.640625 79.285156 229.75 75.308594 231.257812 C 71.152344 232.832031 64.871094 234.324219 55.972656 234.324219 C 46.4375 234.324219 39.507812 234.875 35.640625 233.183594 C 32.429688 231.777344 27.597656 228.375 27.4375 224.875 L 28.136719 165.140625 C 27.886719 159.695312 31.285156 154.738281 36.464844 153.046875 " fill-opacity="1" fill-rule="nonzero"/><path fill="#0a21c0" d="M 84.125 178.015625 C 84.125 178.015625 76.070312 155.699219 67.035156 153.554688 L 71.628906 185.175781 L 84.125 178.015625 " fill-opacity="1" fill-rule="nonzero"/><path fill="#0a21c0" d="M 14.152344 187.019531 C 14.152344 187.019531 17.375 175.035156 19.847656 168.296875 C 24.847656 154.671875 35.546875 153.386719 35.546875 153.386719 L 35.546875 186.921875 L 14.152344 187.019531 " fill-opacity="1" fill-rule="nonzero"/><path fill="#141619" d="M 55.207031 159.363281 C 46.347656 159.363281 38.582031 155.738281 38.207031 155.5625 C 37.902344 155.417969 37.773438 155.054688 37.917969 154.75 C 38.0625 154.445312 38.425781 154.316406 38.730469 154.460938 C 38.832031 154.507812 49.109375 159.296875 59.175781 157.871094 C 59.507812 157.828125 59.820312 158.058594 59.867188 158.390625 C 59.914062 158.722656 59.679688 159.035156 59.347656 159.078125 C 57.957031 159.277344 56.570312 159.363281 55.207031 159.363281 " fill-opacity="1" fill-rule="nonzero"/><path fill="#b3b4bd" d="M 51.832031 198.289062 L 91.398438 198.226562 C 92.398438 198.226562 93.273438 197.539062 93.511719 196.566406 L 101.449219 164.347656 C 101.789062 162.972656 100.746094 161.644531 99.328125 161.644531 L 59.761719 161.707031 C 58.757812 161.707031 57.886719 162.390625 57.648438 163.367188 L 49.710938 195.582031 C 49.371094 196.960938 50.414062 198.289062 51.832031 198.289062 " fill-opacity="1" fill-rule="nonzero"/><path fill="#141619" d="M 99.332031 162.253906 C 99.332031 162.253906 99.332031 162.253906 99.328125 162.253906 L 59.761719 162.316406 C 59.039062 162.316406 58.414062 162.808594 58.238281 163.511719 L 50.300781 195.730469 C 50.183594 196.203125 50.289062 196.691406 50.589844 197.074219 C 50.890625 197.457031 51.339844 197.675781 51.828125 197.675781 L 91.398438 197.617188 C 92.121094 197.613281 92.746094 197.121094 92.921875 196.421875 L 100.859375 164.203125 C 100.972656 163.730469 100.871094 163.238281 100.570312 162.855469 C 100.269531 162.472656 99.820312 162.253906 99.332031 162.253906 Z M 51.828125 198.894531 C 50.964844 198.894531 50.164062 198.507812 49.632812 197.828125 C 49.097656 197.148438 48.910156 196.277344 49.117188 195.4375 L 57.054688 163.21875 C 57.363281 161.972656 58.476562 161.097656 59.761719 161.09375 L 99.328125 161.035156 C 99.328125 161.035156 99.332031 161.035156 99.332031 161.035156 C 100.195312 161.035156 100.996094 161.425781 101.527344 162.105469 C 102.0625 162.785156 102.25 163.65625 102.042969 164.496094 L 94.105469 196.710938 C 93.796875 197.960938 92.683594 198.835938 91.398438 198.835938 L 51.832031 198.894531 C 51.832031 198.894531 51.828125 198.894531 51.828125 198.894531 " fill-opacity="1" fill-rule="nonzero"/><path fill="#f4f5f8" d="M 98.535156 177.65625 L 97.378906 180.878906 L 87.855469 176.363281 C 87.855469 176.363281 82.632812 180.902344 95.320312 186.6875 C 100.609375 189.097656 98.535156 177.65625 98.535156 177.65625 " fill-opacity="1" fill-rule="nonzero"/><path fill="#141619" d="M 88 177.109375 C 87.707031 177.492188 87.277344 178.246094 87.433594 179.269531 C 87.667969 180.8125 89.269531 183.257812 95.574219 186.132812 C 96.71875 186.652344 97.164062 186.308594 97.3125 186.191406 C 98.316406 185.414062 98.445312 182.703125 98.25 180.253906 L 97.953125 181.085938 C 97.894531 181.246094 97.769531 181.378906 97.609375 181.445312 C 97.449219 181.511719 97.273438 181.503906 97.117188 181.429688 Z M 96.648438 187.632812 C 96.167969 187.632812 95.640625 187.503906 95.070312 187.242188 C 89.589844 184.746094 86.613281 182.113281 86.222656 179.421875 C 85.914062 177.273438 87.394531 175.957031 87.457031 175.902344 C 87.640625 175.746094 87.898438 175.710938 88.117188 175.8125 L 97.03125 180.042969 L 97.960938 177.449219 C 98.054688 177.191406 98.3125 177.027344 98.585938 177.046875 C 98.859375 177.070312 99.085938 177.277344 99.132812 177.546875 C 99.277344 178.335938 100.460938 185.289062 98.058594 187.15625 C 97.652344 187.472656 97.179688 187.632812 96.648438 187.632812 " fill-opacity="1" fill-rule="nonzero"/><path fill="#f4f5f8" d="M 40.527344 168.679688 C 40.527344 168.679688 22.757812 178.691406 19.089844 181.832031 C 15.425781 184.972656 11.453125 187.355469 16.632812 194.203125 C 21.816406 201.050781 43.824219 173.5625 43.824219 173.5625 C 43.824219 173.5625 48.0625 174.253906 49.53125 168.484375 C 49.53125 168.484375 56.683594 168.726562 56.9375 166.484375 L 46.847656 164.695312 C 45.546875 164.464844 44.210938 164.894531 43.285156 165.84375 L 40.527344 168.679688 " fill-opacity="1" fill-rule="nonzero"/><path fill="#141619" d="M 40.527344 168.679688 L 40.53125 168.679688 Z M 46.148438 165.242188 C 45.242188 165.242188 44.367188 165.605469 43.722656 166.269531 L 40.960938 169.105469 C 40.921875 169.144531 40.875 169.179688 40.824219 169.210938 C 40.648438 169.308594 23.066406 179.226562 19.488281 182.292969 C 19.203125 182.539062 18.917969 182.777344 18.632812 183.015625 C 15.3125 185.789062 12.691406 187.980469 17.121094 193.835938 C 17.546875 194.398438 18.121094 194.679688 18.878906 194.6875 C 18.894531 194.6875 18.910156 194.6875 18.925781 194.6875 C 26.042969 194.691406 43.175781 173.394531 43.347656 173.179688 C 43.484375 173.007812 43.707031 172.921875 43.921875 172.957031 C 44.070312 172.980469 47.632812 173.460938 48.941406 168.335938 C 49.007812 168.054688 49.261719 167.863281 49.550781 167.875 C 52.144531 167.960938 54.9375 167.605469 55.945312 166.925781 L 46.742188 165.296875 C 46.546875 165.261719 46.347656 165.242188 46.148438 165.242188 Z M 18.917969 195.910156 C 18.898438 195.910156 18.882812 195.910156 18.863281 195.910156 C 17.722656 195.894531 16.808594 195.445312 16.148438 194.570312 C 11.015625 187.789062 14.488281 184.886719 17.847656 182.078125 C 18.128906 181.84375 18.414062 181.609375 18.695312 181.367188 C 22.277344 178.296875 38.714844 169 40.148438 168.191406 L 42.847656 165.417969 C 43.917969 164.320312 45.449219 163.828125 46.957031 164.09375 L 57.046875 165.882812 C 57.363281 165.941406 57.582031 166.234375 57.542969 166.554688 C 57.269531 168.976562 51.945312 169.132812 49.992188 169.105469 C 48.578125 173.863281 45.238281 174.214844 44.101562 174.191406 C 42.042969 176.730469 26.273438 195.90625 18.917969 195.910156 " fill-opacity="1" fill-rule="nonzero"/><path fill="#f4f5f8" d="M 61.640625 313.609375 L 55.746094 331.191406 C 55.746094 331.191406 62.167969 330.644531 62.78125 330.761719 C 63.394531 330.882812 70.898438 314.730469 70.898438 314.730469 L 61.640625 313.609375 " fill-opacity="1" fill-rule="nonzero"/><path fill="#141619" d="M 62.867188 330.160156 C 62.875 330.160156 62.886719 330.164062 62.894531 330.164062 C 62.886719 330.164062 62.875 330.160156 62.867188 330.160156 Z M 62.058594 314.277344 L 56.621094 330.507812 C 58.554688 330.347656 61.503906 330.121094 62.5625 330.140625 C 63.503906 328.867188 67.417969 320.75 69.992188 315.234375 Z M 55.746094 331.800781 C 55.5625 331.800781 55.386719 331.714844 55.269531 331.570312 C 55.140625 331.40625 55.105469 331.191406 55.167969 331 L 61.0625 313.417969 C 61.152344 313.144531 61.425781 312.96875 61.710938 313.007812 L 70.972656 314.125 C 71.167969 314.148438 71.335938 314.265625 71.433594 314.433594 C 71.527344 314.605469 71.535156 314.8125 71.453125 314.988281 C 71.433594 315.027344 69.550781 319.078125 67.617188 323.058594 C 63.507812 331.527344 63.257812 331.476562 62.664062 331.363281 C 62.246094 331.304688 58.84375 331.539062 55.800781 331.800781 C 55.78125 331.800781 55.765625 331.800781 55.746094 331.800781 " fill-opacity="1" fill-rule="nonzero"/><path fill="#e5e7fd" d="M 57.097656 327.328125 C 57.097656 327.328125 65.957031 323.695312 67.597656 328.253906 C 69.683594 334.050781 72.941406 342.902344 72.941406 342.902344 C 73.492188 344.441406 72.429688 346.082031 70.800781 346.214844 C 67.5625 346.476562 62.730469 346.683594 60.480469 345.894531 C 56.929688 344.648438 51.035156 333.40625 51.035156 333.40625 L 52.851562 323.839844 C 52.851562 323.839844 56.066406 323.386719 57.097656 327.328125 " fill-opacity="1" fill-rule="nonzero"/><path fill="#141619" d="M 51.675781 333.308594 C 53.371094 336.511719 58.011719 344.382812 60.683594 345.320312 C 62.320312 345.894531 65.898438 345.996094 70.75 345.605469 C 71.339844 345.558594 71.859375 345.246094 72.175781 344.753906 C 72.496094 344.261719 72.566406 343.660156 72.367188 343.105469 C 72.335938 343.023438 69.085938 334.195312 67.023438 328.460938 C 66.773438 327.757812 66.308594 327.265625 65.605469 326.953125 C 62.765625 325.691406 57.382812 327.871094 57.328125 327.890625 C 57.167969 327.960938 56.984375 327.953125 56.824219 327.871094 C 56.667969 327.796875 56.550781 327.652344 56.507812 327.480469 C 55.828125 324.890625 54.152344 324.476562 53.359375 324.433594 Z M 65.585938 347.058594 C 63.488281 347.058594 61.527344 346.910156 60.28125 346.472656 C 56.605469 345.183594 51.109375 334.863281 50.496094 333.691406 C 50.433594 333.566406 50.410156 333.429688 50.4375 333.292969 L 52.253906 323.726562 C 52.300781 323.46875 52.507812 323.273438 52.765625 323.234375 C 52.804688 323.230469 56.15625 322.804688 57.488281 326.527344 C 59.09375 325.953125 63.390625 324.632812 66.101562 325.839844 C 67.109375 326.289062 67.804688 327.03125 68.171875 328.046875 C 70.230469 333.777344 73.480469 342.601562 73.511719 342.691406 C 73.839844 343.609375 73.726562 344.601562 73.203125 345.414062 C 72.675781 346.230469 71.816406 346.746094 70.847656 346.820312 C 69.226562 346.953125 67.355469 347.058594 65.585938 347.058594 " fill-opacity="1" fill-rule="nonzero"/><path fill="#141619" d="M 70.671875 342.992188 L 61.570312 342.992188 C 61.234375 342.992188 60.960938 342.71875 60.960938 342.382812 C 60.960938 342.046875 61.234375 341.773438 61.570312 341.773438 L 70.671875 341.773438 C 71.007812 341.773438 71.28125 342.046875 71.28125 342.382812 C 71.28125 342.71875 71.007812 342.992188 70.671875 342.992188 " fill-opacity="1" fill-rule="nonzero"/><path fill="#f4f5f8" d="M 44.933594 317.929688 L 46.933594 335.617188 L 54.988281 333.40625 L 54.367188 317.472656 L 44.933594 317.929688 " fill-opacity="1" fill-rule="nonzero"/><path fill="#141619" d="M 45.613281 318.507812 L 47.460938 334.835938 L 54.359375 332.945312 L 53.78125 318.113281 Z M 46.933594 336.226562 C 46.816406 336.226562 46.695312 336.1875 46.59375 336.121094 C 46.445312 336.019531 46.347656 335.859375 46.328125 335.683594 L 44.328125 318 C 44.308594 317.832031 44.359375 317.664062 44.46875 317.535156 C 44.578125 317.40625 44.734375 317.332031 44.902344 317.320312 L 54.339844 316.863281 C 54.503906 316.851562 54.660156 316.910156 54.78125 317.023438 C 54.902344 317.132812 54.972656 317.285156 54.976562 317.449219 L 55.597656 333.382812 C 55.609375 333.664062 55.421875 333.917969 55.148438 333.992188 L 47.097656 336.203125 C 47.042969 336.21875 46.988281 336.226562 46.933594 336.226562 " fill-opacity="1" fill-rule="nonzero"/><path fill="#e5e7fd" d="M 46.175781 348.644531 L 58.917969 348.644531 C 60.644531 348.644531 61.964844 347.113281 61.714844 345.410156 C 61.289062 342.53125 59.902344 337.757812 55.746094 331.191406 C 55.292969 330.476562 54.503906 330.039062 53.652344 330.039062 L 49.777344 330.039062 C 49.109375 330.039062 48.550781 330.542969 48.480469 331.207031 L 48.1875 334.003906 L 46.5 331.777344 C 46.5 331.777344 43.488281 338.121094 43.347656 345.765625 C 43.320312 347.347656 44.59375 348.644531 46.175781 348.644531 " fill-opacity="1" fill-rule="nonzero"/><path fill="#141619" d="M 46.648438 332.980469 C 45.835938 335.007812 44.0625 340.046875 43.957031 345.777344 C 43.945312 346.375 44.171875 346.941406 44.59375 347.367188 C 45.011719 347.796875 45.574219 348.035156 46.175781 348.035156 L 58.917969 348.035156 C 59.5625 348.035156 60.175781 347.753906 60.597656 347.265625 C 61.019531 346.777344 61.203125 346.132812 61.113281 345.5 C 60.699219 342.707031 59.34375 338.011719 55.234375 331.519531 C 54.894531 330.980469 54.289062 330.648438 53.652344 330.648438 L 49.777344 330.648438 C 49.421875 330.648438 49.125 330.917969 49.085938 331.269531 L 48.792969 334.066406 C 48.769531 334.316406 48.59375 334.523438 48.351562 334.59375 C 48.109375 334.660156 47.851562 334.570312 47.699219 334.375 Z M 58.917969 349.253906 L 46.175781 349.253906 C 45.246094 349.253906 44.375 348.886719 43.722656 348.222656 C 43.070312 347.5625 42.722656 346.683594 42.738281 345.757812 C 42.878906 338.066406 45.824219 331.777344 45.949219 331.515625 C 46.039062 331.320312 46.226562 331.191406 46.4375 331.171875 C 46.648438 331.144531 46.859375 331.238281 46.988281 331.40625 L 47.742188 332.40625 L 47.875 331.144531 C 47.976562 330.167969 48.792969 329.429688 49.777344 329.429688 L 53.652344 329.429688 C 54.71875 329.429688 55.695312 329.964844 56.265625 330.867188 C 60.488281 337.542969 61.886719 342.410156 62.316406 345.320312 C 62.464844 346.308594 62.171875 347.304688 61.523438 348.0625 C 60.867188 348.820312 59.917969 349.253906 58.917969 349.253906 " fill-opacity="1" fill-rule="nonzero"/><path fill="#141619" d="M 60.480469 346.207031 L 45.226562 346.207031 C 44.890625 346.207031 44.617188 345.933594 44.617188 345.597656 C 44.617188 345.261719 44.890625 344.988281 45.226562 344.988281 L 60.480469 344.988281 C 60.820312 344.988281 61.089844 345.261719 61.089844 345.597656 C 61.089844 345.933594 60.820312 346.207031 60.480469 346.207031 " fill-opacity="1" fill-rule="nonzero"/><path fill="#141619" d="M 75.179688 211.726562 C 74.84375 210.910156 74.171875 210.285156 73.328125 210.023438 C 68.671875 208.5625 52.425781 204.710938 35.703125 215.433594 C 34.914062 215.941406 34.40625 216.789062 34.339844 217.722656 C 33.734375 226.222656 31.480469 270.648438 45.535156 323.25 L 55 322.574219 L 56.933594 232.636719 C 56.933594 232.636719 70.957031 265.609375 59.554688 318.082031 L 69.398438 319.902344 C 69.398438 319.902344 83.808594 300.953125 86.390625 272 C 88.671875 246.386719 77.734375 217.949219 75.179688 211.726562 " fill-opacity="1" fill-rule="nonzero"/><path fill="#f4f5f8" d="M 47.949219 281.6875 C 47.9375 281.6875 47.929688 281.6875 47.921875 281.683594 C 38.964844 281.300781 37.953125 269.164062 37.945312 269.042969 C 37.917969 268.703125 38.171875 268.414062 38.507812 268.386719 C 38.84375 268.359375 39.136719 268.613281 39.160156 268.949219 C 39.167969 269.0625 40.101562 280.128906 47.972656 280.46875 C 48.308594 280.480469 48.570312 280.765625 48.558594 281.101562 C 48.542969 281.429688 48.273438 281.6875 47.949219 281.6875 " fill-opacity="1" fill-rule="nonzero"/><path fill="#f4f5f8" d="M 57.753906 241.492188 C 57.425781 241.492188 57.15625 241.230469 57.144531 240.898438 L 56.8125 229.648438 C 56.804688 229.445312 56.902344 229.25 57.070312 229.132812 L 62.972656 224.984375 C 63.246094 224.789062 63.628906 224.855469 63.824219 225.132812 C 64.015625 225.40625 63.949219 225.789062 63.675781 225.980469 L 58.042969 229.941406 L 58.367188 240.863281 C 58.375 241.203125 58.109375 241.480469 57.773438 241.492188 C 57.769531 241.492188 57.761719 241.492188 57.753906 241.492188 " fill-opacity="1" fill-rule="nonzero"/><path fill="#f4f5f8" d="M 43.390625 150.234375 C 45.128906 149.082031 46.144531 147.105469 46.097656 145.023438 L 45.898438 136.363281 C 45.839844 136.308594 45.78125 136.253906 45.722656 136.199219 C 45.722656 136.199219 42.257812 136.433594 41.75 134.664062 C 41.246094 132.898438 43.699219 132.558594 43.699219 132.558594 C 43.699219 132.558594 41.382812 127.683594 47.375 127.742188 C 48.980469 127.757812 49.558594 125.089844 52.199219 124.492188 C 52.199219 124.492188 53.503906 124.382812 54.828125 127.804688 L 57.726562 132.09375 L 56.277344 132.890625 C 56.632812 134.519531 56.789062 136.320312 56.570312 138.226562 C 56.503906 138.777344 56.128906 139.238281 55.601562 139.410156 C 55.164062 139.546875 54.578125 139.699219 53.886719 139.777344 L 54.355469 145.574219 C 54.558594 148.109375 55.890625 150.421875 57.972656 151.882812 C 59.984375 153.292969 61.839844 154.292969 61.839844 154.292969 C 61.839844 154.292969 51.15625 155.753906 38.875 152.949219 C 38.875 152.949219 41.246094 151.652344 43.390625 150.234375 " fill-opacity="1" fill-rule="nonzero"/><path fill="#141619" d="M 52.25 125.101562 Z M 40.570312 152.6875 C 49.003906 154.390625 56.527344 154.125 59.894531 153.867188 C 59.238281 153.46875 58.445312 152.960938 57.621094 152.382812 C 55.378906 150.804688 53.964844 148.34375 53.746094 145.625 L 53.277344 139.828125 C 53.253906 139.5 53.492188 139.210938 53.816406 139.171875 C 54.363281 139.109375 54.902344 138.992188 55.414062 138.828125 C 55.710938 138.730469 55.925781 138.46875 55.960938 138.15625 C 56.15625 136.484375 56.0625 134.757812 55.679688 133.019531 C 55.625 132.753906 55.746094 132.484375 55.984375 132.355469 L 56.84375 131.882812 L 54.320312 128.148438 C 54.296875 128.109375 54.273438 128.066406 54.257812 128.023438 C 53.296875 125.542969 52.425781 125.164062 52.238281 125.109375 C 51.078125 125.40625 50.390625 126.164062 49.722656 126.898438 C 49.074219 127.613281 48.402344 128.351562 47.386719 128.351562 C 47.34375 128.351562 47.308594 128.351562 47.265625 128.351562 C 45.671875 128.351562 44.628906 128.71875 44.164062 129.449219 C 43.457031 130.554688 44.242188 132.28125 44.25 132.296875 C 44.332031 132.472656 44.328125 132.679688 44.234375 132.847656 C 44.140625 133.019531 43.972656 133.136719 43.78125 133.164062 C 43.511719 133.203125 42.679688 133.414062 42.394531 133.855469 C 42.320312 133.96875 42.238281 134.152344 42.335938 134.496094 C 42.617188 135.472656 44.714844 135.65625 45.683594 135.589844 C 45.851562 135.578125 46.019531 135.640625 46.144531 135.757812 L 46.3125 135.914062 C 46.433594 136.027344 46.503906 136.183594 46.507812 136.347656 L 46.707031 145.007812 C 46.761719 147.328125 45.644531 149.46875 43.726562 150.742188 C 42.621094 151.472656 41.449219 152.175781 40.570312 152.6875 Z M 54.710938 155.273438 C 50.476562 155.273438 44.78125 154.921875 38.738281 153.542969 C 38.492188 153.484375 38.304688 153.285156 38.273438 153.03125 C 38.238281 152.78125 38.359375 152.535156 38.582031 152.414062 C 38.605469 152.398438 40.957031 151.113281 43.054688 149.722656 C 44.621094 148.6875 45.53125 146.933594 45.488281 145.035156 L 45.300781 136.824219 C 45.292969 136.824219 45.285156 136.824219 45.28125 136.824219 C 44.179688 136.824219 41.675781 136.621094 41.164062 134.832031 C 40.992188 134.230469 41.0625 133.664062 41.371094 133.191406 C 41.746094 132.617188 42.386719 132.300781 42.890625 132.132812 C 42.644531 131.316406 42.410156 129.925781 43.136719 128.792969 C 43.851562 127.671875 45.28125 127.109375 47.378906 127.132812 C 47.382812 127.132812 47.382812 127.132812 47.386719 127.132812 C 47.839844 127.132812 48.226562 126.730469 48.820312 126.078125 C 49.554688 125.269531 50.46875 124.257812 52.0625 123.898438 C 52.089844 123.890625 52.117188 123.886719 52.144531 123.886719 C 52.433594 123.859375 53.960938 123.917969 55.371094 127.519531 L 58.230469 131.753906 C 58.328125 131.894531 58.359375 132.070312 58.316406 132.238281 C 58.277344 132.40625 58.167969 132.546875 58.019531 132.628906 L 56.964844 133.207031 C 57.296875 134.925781 57.367188 136.632812 57.175781 138.296875 C 57.082031 139.082031 56.539062 139.746094 55.789062 139.988281 C 55.382812 140.117188 54.964844 140.222656 54.542969 140.296875 L 54.960938 145.527344 C 55.152344 147.882812 56.375 150.015625 58.320312 151.382812 C 60.28125 152.757812 62.113281 153.746094 62.128906 153.753906 C 62.363281 153.878906 62.488281 154.140625 62.441406 154.398438 C 62.394531 154.660156 62.1875 154.859375 61.921875 154.894531 C 61.867188 154.902344 59.0625 155.273438 54.710938 155.273438 " fill-opacity="1" fill-rule="nonzero"/><path fill="#f4f5f8" d="M 53.886719 139.777344 C 53.886719 139.777344 50.085938 139.910156 48.574219 137.84375 L 53.886719 139.777344 " fill-opacity="1" fill-rule="nonzero"/><path fill="#141619" d="M 53.734375 140.390625 C 52.921875 140.390625 49.585938 140.261719 48.082031 138.203125 C 47.882812 137.933594 47.945312 137.550781 48.214844 137.351562 C 48.488281 137.152344 48.871094 137.214844 49.070312 137.484375 C 50.148438 138.964844 52.902344 139.203125 53.867188 139.167969 C 54.222656 139.160156 54.484375 139.421875 54.496094 139.757812 C 54.507812 140.09375 54.246094 140.375 53.910156 140.390625 C 53.890625 140.390625 53.828125 140.390625 53.734375 140.390625 " fill-opacity="1" fill-rule="nonzero"/><path fill="#b3b4bd" d="M 295.011719 31.164062 C 297.160156 31.164062 298.898438 32.902344 298.898438 35.050781 L 298.898438 61.808594 C 298.898438 63.957031 297.160156 65.695312 295.011719 65.695312 L 221.25 65.695312 C 219.101562 65.695312 217.363281 63.957031 217.363281 61.808594 L 217.363281 35.050781 C 217.363281 32.902344 219.101562 31.164062 221.25 31.164062 L 295.011719 31.164062 " fill-opacity="1" fill-rule="nonzero"/><path fill="#141619" d="M 295.011719 66.304688 L 221.25 66.304688 C 218.769531 66.304688 216.75 64.289062 216.75 61.808594 L 216.75 35.050781 C 216.75 32.570312 218.769531 30.554688 221.25 30.554688 L 235.800781 30.554688 C 236.140625 30.554688 236.414062 30.824219 236.414062 31.160156 C 236.414062 31.5 236.140625 31.773438 235.800781 31.773438 L 221.25 31.773438 C 219.445312 31.773438 217.972656 33.242188 217.972656 35.050781 L 217.972656 61.808594 C 217.972656 63.617188 219.445312 65.085938 221.25 65.085938 L 295.011719 65.085938 C 296.820312 65.085938 298.289062 63.617188 298.289062 61.808594 L 298.289062 35.050781 C 298.289062 33.242188 296.820312 31.773438 295.011719 31.773438 L 270.871094 31.773438 C 270.535156 31.773438 270.261719 31.5 270.261719 31.160156 C 270.261719 30.824219 270.535156 30.554688 270.871094 30.554688 L 295.011719 30.554688 C 297.492188 30.554688 299.511719 32.570312 299.511719 35.050781 L 299.511719 61.808594 C 299.511719 64.289062 297.492188 66.304688 295.011719 66.304688 " fill-opacity="1" fill-rule="nonzero"/><path fill="#f4f5f8" d="M 288.132812 44.511719 L 229.511719 44.511719 C 229.175781 44.511719 228.902344 44.238281 228.902344 43.898438 C 228.902344 43.5625 229.175781 43.289062 229.511719 43.289062 L 288.132812 43.289062 C 288.472656 43.289062 288.746094 43.5625 288.746094 43.898438 C 288.746094 44.238281 288.472656 44.511719 288.132812 44.511719 " fill-opacity="1" fill-rule="nonzero"/><path fill="#f4f5f8" d="M 288.136719 52.339844 L 275.878906 52.339844 C 275.542969 52.339844 275.269531 52.070312 275.269531 51.734375 C 275.269531 51.394531 275.542969 51.121094 275.878906 51.121094 L 288.136719 51.121094 C 288.472656 51.121094 288.746094 51.394531 288.746094 51.734375 C 288.746094 52.070312 288.472656 52.339844 288.136719 52.339844 " fill-opacity="1" fill-rule="nonzero"/><path fill="#f4f5f8" d="M 258.132812 52.339844 L 229.515625 52.339844 C 229.175781 52.339844 228.90625 52.070312 228.90625 51.734375 C 228.90625 51.394531 229.175781 51.121094 229.515625 51.121094 L 258.132812 51.121094 C 258.46875 51.121094 258.742188 51.394531 258.742188 51.734375 C 258.742188 52.070312 258.46875 52.339844 258.132812 52.339844 " fill-opacity="1" fill-rule="nonzero"/><path fill="#141619" d="M 169 18.53125 C 168.660156 18.53125 168.390625 18.257812 168.390625 17.917969 L 168.390625 14.765625 C 168.390625 14.429688 168.660156 14.15625 169 14.15625 C 169.335938 14.15625 169.609375 14.429688 169.609375 14.765625 L 169.609375 17.917969 C 169.609375 18.257812 169.335938 18.53125 169 18.53125 " fill-opacity="1" fill-rule="nonzero"/><path fill="#141619" d="M 169 25.878906 C 168.660156 25.878906 168.390625 25.605469 168.390625 25.269531 L 168.390625 22.113281 C 168.390625 21.777344 168.660156 21.503906 169 21.503906 C 169.335938 21.503906 169.609375 21.777344 169.609375 22.113281 L 169.609375 25.269531 C 169.609375 25.605469 169.335938 25.878906 169 25.878906 " fill-opacity="1" fill-rule="nonzero"/><path fill="#141619" d="M 166.902344 20.628906 L 163.75 20.628906 C 163.410156 20.628906 163.136719 20.355469 163.136719 20.015625 C 163.136719 19.679688 163.410156 19.40625 163.75 19.40625 L 166.902344 19.40625 C 167.238281 19.40625 167.511719 19.679688 167.511719 20.015625 C 167.511719 20.355469 167.238281 20.628906 166.902344 20.628906 " fill-opacity="1" fill-rule="nonzero"/><path fill="#141619" d="M 174.25 20.628906 L 171.097656 20.628906 C 170.757812 20.628906 170.484375 20.355469 170.484375 20.015625 C 170.484375 19.679688 170.757812 19.40625 171.097656 19.40625 L 174.25 19.40625 C 174.585938 19.40625 174.859375 19.679688 174.859375 20.015625 C 174.859375 20.355469 174.585938 20.628906 174.25 20.628906 " fill-opacity="1" fill-rule="nonzero"/><path fill="#141619" d="M 89.300781 306.417969 C 88.964844 306.417969 88.691406 306.144531 88.691406 305.808594 L 88.691406 302.65625 C 88.691406 302.316406 88.964844 302.046875 89.300781 302.046875 C 89.636719 302.046875 89.910156 302.316406 89.910156 302.65625 L 89.910156 305.808594 C 89.910156 306.144531 89.636719 306.417969 89.300781 306.417969 " fill-opacity="1" fill-rule="nonzero"/><path fill="#141619" d="M 89.300781 313.769531 C 88.964844 313.769531 88.691406 313.496094 88.691406 313.15625 L 88.691406 310.003906 C 88.691406 309.667969 88.964844 309.394531 89.300781 309.394531 C 89.636719 309.394531 89.910156 309.667969 89.910156 310.003906 L 89.910156 313.15625 C 89.910156 313.496094 89.636719 313.769531 89.300781 313.769531 " fill-opacity="1" fill-rule="nonzero"/><path fill="#141619" d="M 87.203125 308.515625 L 84.050781 308.515625 C 83.714844 308.515625 83.4375 308.246094 83.4375 307.90625 C 83.4375 307.570312 83.714844 307.296875 84.050781 307.296875 L 87.203125 307.296875 C 87.539062 307.296875 87.8125 307.570312 87.8125 307.90625 C 87.8125 308.246094 87.539062 308.515625 87.203125 308.515625 " fill-opacity="1" fill-rule="nonzero"/><path fill="#141619" d="M 94.550781 308.515625 L 91.398438 308.515625 C 91.0625 308.515625 90.789062 308.246094 90.789062 307.90625 C 90.789062 307.570312 91.0625 307.296875 91.398438 307.296875 L 94.550781 307.296875 C 94.890625 307.296875 95.164062 307.570312 95.164062 307.90625 C 95.164062 308.246094 94.890625 308.515625 94.550781 308.515625 " fill-opacity="1" fill-rule="nonzero"/><path fill="#141619" d="M 103.5 315.046875 C 101.625 315.890625 100.773438 318.132812 101.597656 320.050781 C 102.003906 320.984375 102.738281 321.699219 103.671875 322.0625 C 104.582031 322.414062 105.578125 322.390625 106.472656 321.988281 C 108.34375 321.148438 109.195312 318.90625 108.371094 316.988281 C 107.96875 316.054688 107.234375 315.339844 106.300781 314.976562 C 105.386719 314.621094 104.394531 314.648438 103.5 315.046875 Z M 104.988281 323.53125 C 104.394531 323.53125 103.800781 323.421875 103.230469 323.199219 C 101.988281 322.714844 101.011719 321.769531 100.480469 320.53125 C 99.390625 318.007812 100.519531 315.046875 103 313.9375 C 104.191406 313.402344 105.523438 313.367188 106.742188 313.839844 C 107.980469 314.324219 108.957031 315.269531 109.492188 316.503906 C 110.582031 319.03125 109.449219 321.988281 106.972656 323.101562 C 106.335938 323.386719 105.664062 323.53125 104.988281 323.53125 " fill-opacity="1" fill-rule="nonzero"/><path fill="#141619" d="M 186.480469 15.394531 L 186.484375 15.394531 Z M 188.179688 15.636719 C 187.6875 15.636719 187.195312 15.742188 186.726562 15.949219 C 184.898438 16.769531 184.066406 18.960938 184.875 20.832031 C 185.269531 21.746094 185.988281 22.445312 186.898438 22.800781 C 187.789062 23.144531 188.761719 23.121094 189.632812 22.730469 C 191.464844 21.90625 192.296875 19.714844 191.488281 17.84375 C 191.09375 16.929688 190.375 16.234375 189.464844 15.878906 C 189.046875 15.714844 188.613281 15.636719 188.179688 15.636719 Z M 188.183594 24.261719 C 187.601562 24.261719 187.015625 24.152344 186.457031 23.9375 C 185.238281 23.460938 184.277344 22.53125 183.753906 21.316406 C 182.683594 18.835938 183.792969 15.929688 186.230469 14.835938 C 187.402344 14.308594 188.710938 14.277344 189.90625 14.742188 C 191.125 15.214844 192.085938 16.144531 192.609375 17.359375 C 193.679688 19.839844 192.570312 22.75 190.132812 23.839844 C 189.507812 24.121094 188.847656 24.261719 188.183594 24.261719 " fill-opacity="1" fill-rule="nonzero"/><path fill="#b3b4bd" d="M 62.90625 93.15625 L 48.886719 93.8125 C 47.160156 93.894531 45.636719 94.972656 44.992188 96.578125 L 41.699219 104.722656 L 36.757812 96.675781 C 35.914062 95.300781 34.390625 94.496094 32.777344 94.566406 L 19.886719 95.171875 C 17.441406 95.285156 15.371094 93.402344 15.253906 90.957031 L 13.972656 63.589844 C 13.855469 61.148438 15.746094 59.074219 18.1875 58.960938 L 61.207031 56.941406 C 63.652344 56.828125 65.722656 58.714844 65.839844 61.15625 L 67.121094 88.523438 C 67.238281 90.96875 65.351562 93.039062 62.90625 93.15625 " fill-opacity="1" fill-rule="nonzero"/><path fill="#141619" d="M 32.988281 93.953125 C 34.730469 93.953125 36.359375 94.859375 37.28125 96.355469 L 41.585938 103.375 L 44.425781 96.347656 C 45.160156 94.53125 46.898438 93.296875 48.859375 93.203125 L 62.878906 92.546875 C 63.898438 92.5 64.835938 92.058594 65.523438 91.304688 C 66.207031 90.546875 66.5625 89.574219 66.511719 88.554688 L 65.230469 61.1875 C 65.132812 59.082031 63.339844 57.449219 61.238281 57.550781 L 18.214844 59.570312 C 16.113281 59.667969 14.480469 61.460938 14.582031 63.5625 L 15.863281 90.929688 C 15.960938 93.03125 17.761719 94.664062 19.855469 94.566406 L 32.75 93.960938 C 32.828125 93.953125 32.90625 93.953125 32.988281 93.953125 Z M 41.699219 105.335938 C 41.488281 105.335938 41.289062 105.226562 41.179688 105.042969 L 36.242188 96.996094 C 35.511719 95.808594 34.203125 95.109375 32.808594 95.179688 L 19.914062 95.785156 C 17.125 95.90625 14.777344 93.761719 14.644531 90.984375 L 13.363281 63.617188 C 13.230469 60.84375 15.382812 58.480469 18.160156 58.351562 L 61.179688 56.332031 C 63.949219 56.203125 66.316406 58.355469 66.449219 61.128906 L 67.730469 88.496094 C 67.792969 89.839844 67.332031 91.128906 66.425781 92.125 C 65.519531 93.117188 64.28125 93.703125 62.9375 93.765625 L 48.917969 94.421875 C 47.429688 94.492188 46.113281 95.425781 45.554688 96.804688 L 42.261719 104.953125 C 42.175781 105.167969 41.976562 105.3125 41.75 105.332031 C 41.730469 105.335938 41.714844 105.335938 41.699219 105.335938 " fill-opacity="1" fill-rule="nonzero"/><path fill="#f4f5f8" d="M 25.640625 70.148438 C 25.316406 70.148438 25.046875 69.894531 25.03125 69.566406 C 25.015625 69.230469 25.273438 68.945312 25.609375 68.929688 L 56.550781 67.394531 C 56.898438 67.371094 57.175781 67.636719 57.191406 67.976562 C 57.207031 68.3125 56.949219 68.597656 56.613281 68.613281 L 25.671875 70.148438 C 25.660156 70.148438 25.648438 70.148438 25.640625 70.148438 " fill-opacity="1" fill-rule="nonzero"/><path fill="#f4f5f8" d="M 25.25 77.433594 C 24.925781 77.433594 24.65625 77.179688 24.640625 76.855469 C 24.625 76.519531 24.882812 76.234375 25.21875 76.214844 L 48.152344 75.078125 C 48.5 75.058594 48.773438 75.324219 48.789062 75.660156 C 48.808594 75.996094 48.550781 76.28125 48.210938 76.296875 L 25.28125 77.433594 C 25.269531 77.433594 25.261719 77.433594 25.25 77.433594 " fill-opacity="1" fill-rule="nonzero"/><path fill="#f4f5f8" d="M 26.457031 84.820312 C 26.132812 84.820312 25.863281 84.566406 25.847656 84.238281 C 25.832031 83.902344 26.089844 83.617188 26.425781 83.601562 L 57.371094 82.066406 C 57.710938 82.050781 57.992188 82.3125 58.007812 82.648438 C 58.027344 82.984375 57.765625 83.269531 57.429688 83.285156 L 26.488281 84.816406 C 26.476562 84.820312 26.46875 84.820312 26.457031 84.820312 " fill-opacity="1" fill-rule="nonzero"/><path fill="#f4f5f8" d="M 249.621094 245.167969 C 249.855469 243.34375 251.402344 241.980469 253.234375 241.980469 L 344.234375 241.980469 C 347.839844 241.980469 350.625 245.15625 350.164062 248.738281 L 340.671875 318.734375 C 340.441406 320.554688 338.894531 321.917969 337.0625 321.917969 L 242.980469 321.917969 C 240.988281 321.917969 239.449219 320.164062 239.714844 318.1875 L 249.621094 245.167969 " fill-opacity="1" fill-rule="nonzero"/><path fill="#e5e7fd" d="M 260.070312 311.289062 L 261.695312 299.75 C 261.824219 298.828125 261.109375 298.003906 260.175781 298.003906 L 254.441406 298.003906 C 253.675781 298.003906 253.03125 298.566406 252.921875 299.324219 L 251.292969 310.859375 C 251.164062 311.785156 251.882812 312.609375 252.8125 312.609375 L 258.550781 312.609375 C 259.316406 312.609375 259.964844 312.046875 260.070312 311.289062 " fill-opacity="1" fill-rule="nonzero"/><path fill="#e5e7fd" d="M 274.664062 311.273438 L 277.234375 291.519531 C 277.351562 290.601562 276.640625 289.789062 275.710938 289.789062 L 269.972656 289.789062 C 269.203125 289.789062 268.554688 290.359375 268.457031 291.125 L 265.878906 310.878906 C 265.761719 311.796875 266.476562 312.609375 267.402344 312.609375 L 273.144531 312.609375 C 273.914062 312.609375 274.5625 312.039062 274.664062 311.273438 " fill-opacity="1" fill-rule="nonzero"/><path fill="#e5e7fd" d="M 289.285156 311.289062 L 292.730469 286.972656 C 292.859375 286.050781 292.144531 285.222656 291.210938 285.222656 L 285.476562 285.222656 C 284.714844 285.222656 284.066406 285.785156 283.960938 286.542969 L 280.507812 310.859375 C 280.378906 311.78125 281.09375 312.609375 282.027344 312.609375 L 287.765625 312.609375 C 288.527344 312.609375 289.175781 312.046875 289.285156 311.289062 " fill-opacity="1" fill-rule="nonzero"/><path fill="#e5e7fd" d="M 303.875 311.273438 L 307.816406 281.023438 C 307.933594 280.105469 307.21875 279.289062 306.292969 279.289062 L 300.554688 279.289062 C 299.785156 279.289062 299.132812 279.859375 299.035156 280.625 L 295.089844 310.878906 C 294.972656 311.796875 295.683594 312.609375 296.613281 312.609375 L 302.355469 312.609375 C 303.125 312.609375 303.773438 312.039062 303.875 311.273438 " fill-opacity="1" fill-rule="nonzero"/><path fill="#e5e7fd" d="M 318.476562 311.269531 L 321.515625 287.40625 C 321.628906 286.488281 320.917969 285.679688 319.992188 285.679688 L 314.25 285.679688 C 313.476562 285.679688 312.828125 286.253906 312.734375 287.019531 L 309.691406 310.882812 C 309.574219 311.796875 310.289062 312.609375 311.214844 312.609375 L 316.957031 312.609375 C 317.730469 312.609375 318.378906 312.035156 318.476562 311.269531 " fill-opacity="1" fill-rule="nonzero"/><path fill="#e5e7fd" d="M 333.097656 311.28125 L 338.382812 272.816406 C 338.511719 271.894531 337.792969 271.074219 336.863281 271.074219 L 331.128906 271.074219 C 330.363281 271.074219 329.714844 271.640625 329.609375 272.398438 L 324.320312 310.867188 C 324.195312 311.789062 324.910156 312.609375 325.839844 312.609375 L 331.578125 312.609375 C 332.34375 312.609375 332.992188 312.042969 333.097656 311.28125 " fill-opacity="1" fill-rule="nonzero"/><path fill="#141619" d="M 248.28125 255.65625 C 248.253906 255.65625 248.222656 255.65625 248.195312 255.652344 C 247.863281 255.605469 247.628906 255.300781 247.675781 254.964844 L 249.015625 245.085938 C 249.289062 242.96875 251.101562 241.371094 253.234375 241.371094 L 273.480469 241.371094 C 273.816406 241.371094 274.089844 241.644531 274.089844 241.980469 C 274.089844 242.316406 273.816406 242.589844 273.480469 242.589844 L 253.234375 242.589844 C 251.714844 242.589844 250.417969 243.730469 250.226562 245.246094 L 248.882812 255.128906 C 248.84375 255.4375 248.582031 255.65625 248.28125 255.65625 " fill-opacity="1" fill-rule="nonzero"/><path fill="#141619" d="M 242.980469 322.53125 C 241.851562 322.53125 240.785156 322.042969 240.039062 321.199219 C 239.300781 320.347656 238.960938 319.222656 239.109375 318.109375 L 245.976562 267.46875 C 246.023438 267.132812 246.332031 266.902344 246.664062 266.945312 C 246.996094 266.992188 247.230469 267.300781 247.1875 267.632812 L 240.316406 318.273438 C 240.214844 319.039062 240.449219 319.8125 240.957031 320.394531 C 241.46875 320.976562 242.203125 321.308594 242.976562 321.308594 L 255.113281 321.261719 C 255.46875 321.261719 255.722656 321.53125 255.722656 321.867188 C 255.726562 322.203125 255.453125 322.476562 255.117188 322.480469 L 242.980469 322.53125 " fill-opacity="1" fill-rule="nonzero"/><path fill="#141619" d="M 337.058594 322.53125 L 263.046875 322.480469 C 262.707031 322.480469 262.4375 322.207031 262.4375 321.871094 C 262.4375 321.53125 262.707031 321.257812 263.046875 321.257812 L 337.058594 321.308594 C 338.578125 321.308594 339.875 320.167969 340.070312 318.65625 L 348.648438 255.34375 C 348.695312 255.011719 349.007812 254.777344 349.335938 254.820312 C 349.671875 254.867188 349.90625 255.175781 349.859375 255.507812 L 341.277344 318.8125 C 341.007812 320.929688 339.191406 322.53125 337.058594 322.53125 " fill-opacity="1" fill-rule="nonzero"/><path fill="#b3b4bd" d="M 299.617188 263.167969 L 258.097656 263.167969 C 256.949219 263.167969 256.019531 262.238281 256.019531 261.089844 L 256.019531 260.980469 C 256.019531 259.832031 256.949219 258.902344 258.097656 258.902344 L 299.617188 258.902344 C 300.765625 258.902344 301.695312 259.832031 301.695312 260.980469 L 301.695312 261.089844 C 301.695312 262.238281 300.765625 263.167969 299.617188 263.167969 " fill-opacity="1" fill-rule="nonzero"/><path fill="#e5e7fd" d="M 280.398438 254.726562 L 259.507812 254.726562 C 258.359375 254.726562 257.425781 253.792969 257.425781 252.644531 L 257.425781 252.535156 C 257.425781 251.386719 258.359375 250.457031 259.507812 250.457031 L 280.398438 250.457031 C 281.546875 250.457031 282.480469 251.386719 282.480469 252.535156 L 282.480469 252.644531 C 282.480469 253.792969 281.546875 254.726562 280.398438 254.726562 " fill-opacity="1" fill-rule="nonzero"/><path fill="#b3b4bd" d="M 307.269531 247.917969 C 306.671875 255.8125 299.84375 261.925781 292.019531 261.566406 C 284.191406 261.210938 278.332031 254.519531 278.929688 246.621094 C 279.527344 238.726562 286.351562 232.613281 294.179688 232.972656 C 302.007812 233.328125 307.863281 240.019531 307.269531 247.917969 " fill-opacity="1" fill-rule="nonzero"/><path fill="#141619" d="M 293.078125 262.351562 C 288.382812 262.351562 283.746094 260.304688 280.699219 256.410156 C 277.566406 252.410156 276.703125 247.175781 278.378906 242.410156 C 278.492188 242.09375 278.839844 241.925781 279.160156 242.039062 C 279.472656 242.148438 279.644531 242.496094 279.53125 242.816406 C 277.992188 247.1875 278.789062 251.988281 281.660156 255.660156 C 286.429688 261.757812 295.445312 262.941406 301.753906 258.300781 C 304.828125 256.042969 306.796875 252.757812 307.308594 249.058594 C 307.804688 245.417969 306.820312 241.800781 304.535156 238.878906 C 299.761719 232.78125 290.746094 231.597656 284.4375 236.234375 C 284.167969 236.4375 283.785156 236.375 283.585938 236.105469 C 283.386719 235.835938 283.445312 235.453125 283.714844 235.253906 C 290.550781 230.226562 300.320312 231.515625 305.492188 238.125 C 307.988281 241.3125 309.058594 245.253906 308.515625 249.222656 C 307.960938 253.253906 305.816406 256.824219 302.476562 259.285156 C 299.664062 261.351562 296.355469 262.351562 293.078125 262.351562 " fill-opacity="1" fill-rule="nonzero"/><path fill="#0a21c0" d="M 291.355469 255.738281 L 291.507812 253.757812 C 290.125 253.628906 288.808594 253.195312 288.054688 252.699219 L 288.863281 250.28125 C 289.691406 250.800781 290.882812 251.296875 292.226562 251.359375 C 293.40625 251.410156 294.25 250.988281 294.3125 250.152344 C 294.371094 249.359375 293.746094 248.828125 292.253906 248.238281 C 290.097656 247.382812 288.664062 246.269531 288.820312 244.246094 C 288.960938 242.40625 290.351562 241.027344 292.597656 240.6875 L 292.746094 238.703125 L 294.777344 238.796875 L 294.636719 240.632812 C 296.019531 240.761719 296.929688 241.09375 297.585938 241.460938 L 296.808594 243.792969 C 296.289062 243.539062 295.371094 243.015625 293.878906 242.949219 C 292.535156 242.886719 292.054688 243.453125 292.015625 244.035156 C 291.960938 244.726562 292.652344 245.195312 294.363281 245.945312 C 296.757812 246.933594 297.660156 248.128906 297.519531 250.007812 C 297.378906 251.867188 295.957031 253.390625 293.546875 253.703125 L 293.382812 255.832031 L 291.355469 255.738281 " fill-opacity="1" fill-rule="nonzero"/><path fill="#b3b4bd" d="M 342.164062 241.179688 C 344.882812 246.148438 343.167969 252.472656 338.335938 255.308594 C 333.503906 258.140625 327.382812 256.410156 324.667969 251.445312 C 321.949219 246.476562 323.660156 240.152344 328.496094 237.316406 C 333.324219 234.484375 339.445312 236.210938 342.164062 241.179688 " fill-opacity="1" fill-rule="nonzero"/><path fill="#141619" d="M 333.371094 257.609375 C 332.417969 257.609375 331.460938 257.480469 330.515625 257.21875 C 327.664062 256.429688 325.300781 254.542969 323.855469 251.898438 C 320.898438 246.496094 322.769531 239.589844 328.03125 236.503906 C 331.214844 234.640625 335.066406 234.519531 338.335938 236.191406 C 338.636719 236.34375 338.757812 236.710938 338.601562 237.011719 C 338.449219 237.3125 338.082031 237.429688 337.78125 237.277344 C 334.882812 235.796875 331.46875 235.902344 328.644531 237.558594 C 323.949219 240.3125 322.28125 246.480469 324.925781 251.3125 C 326.210938 253.664062 328.3125 255.34375 330.839844 256.042969 C 333.328125 256.730469 335.9375 256.382812 338.183594 255.066406 C 342.878906 252.3125 344.546875 246.140625 341.90625 241.3125 C 341.746094 241.015625 341.851562 240.644531 342.148438 240.484375 C 342.441406 240.324219 342.8125 240.429688 342.976562 240.726562 C 345.929688 246.128906 344.058594 253.03125 338.800781 256.117188 C 337.117188 257.105469 335.253906 257.609375 333.371094 257.609375 " fill-opacity="1" fill-rule="nonzero"/><path fill="#0a21c0" d="M 335.671875 252.066406 L 334.988281 250.820312 C 334.109375 251.285156 333.148438 251.535156 332.507812 251.53125 L 332.050781 249.769531 C 332.75 249.753906 333.65625 249.589844 334.488281 249.101562 C 335.214844 248.675781 335.554688 248.09375 335.269531 247.566406 C 334.996094 247.066406 334.414062 246.992188 333.289062 247.21875 C 331.664062 247.550781 330.371094 247.4375 329.671875 246.164062 C 329.039062 245.007812 329.335938 243.636719 330.554688 242.558594 L 329.867188 241.3125 L 331.125 240.578125 L 331.753906 241.734375 C 332.632812 241.273438 333.308594 241.117188 333.84375 241.078125 L 334.285156 242.78125 C 333.875 242.832031 333.125 242.875 332.199219 243.414062 C 331.371094 243.902344 331.304688 244.425781 331.507812 244.792969 C 331.742188 245.230469 332.34375 245.242188 333.65625 245.023438 C 335.480469 244.683594 336.488281 245.046875 337.136719 246.230469 C 337.773438 247.398438 337.515625 248.867188 336.1875 249.992188 L 336.921875 251.332031 L 335.671875 252.066406 " fill-opacity="1" fill-rule="nonzero"/><path fill="#b3b4bd" d="M 325.5625 219.214844 C 328.28125 224.183594 326.566406 230.507812 321.734375 233.339844 C 316.90625 236.175781 310.785156 234.445312 308.066406 229.476562 C 305.347656 224.511719 307.0625 218.183594 311.894531 215.351562 C 316.726562 212.519531 322.847656 214.25 325.5625 219.214844 " fill-opacity="1" fill-rule="nonzero"/><path fill="#141619" d="M 316.765625 235.644531 C 315.8125 235.644531 314.855469 235.515625 313.914062 235.253906 C 311.0625 234.46875 308.699219 232.578125 307.253906 229.933594 C 304.292969 224.53125 306.171875 217.625 311.429688 214.542969 C 314.613281 212.675781 318.460938 212.558594 321.734375 214.226562 C 322.035156 214.378906 322.15625 214.746094 322 215.046875 C 321.847656 215.34375 321.480469 215.464844 321.183594 215.3125 C 318.28125 213.832031 314.867188 213.941406 312.042969 215.59375 C 307.347656 218.347656 305.679688 224.519531 308.320312 229.347656 C 309.609375 231.699219 311.710938 233.378906 314.238281 234.078125 C 316.726562 234.769531 319.332031 234.421875 321.578125 233.101562 C 326.277344 230.347656 327.945312 224.175781 325.304688 219.347656 C 325.140625 219.050781 325.25 218.679688 325.546875 218.519531 C 325.839844 218.355469 326.210938 218.464844 326.371094 218.761719 C 329.328125 224.164062 327.457031 231.070312 322.199219 234.152344 C 320.511719 235.140625 318.652344 235.644531 316.765625 235.644531 " fill-opacity="1" fill-rule="nonzero"/><path fill="#0a21c0" d="M 319.070312 230.101562 L 318.386719 228.855469 C 317.507812 229.316406 316.550781 229.566406 315.90625 229.566406 L 315.449219 227.804688 C 316.148438 227.789062 317.050781 227.625 317.882812 227.136719 C 318.613281 226.710938 318.953125 226.128906 318.664062 225.605469 C 318.390625 225.105469 317.8125 225.027344 316.6875 225.253906 C 315.058594 225.582031 313.769531 225.472656 313.070312 224.199219 C 312.4375 223.042969 312.734375 221.671875 313.949219 220.59375 L 313.265625 219.347656 L 314.519531 218.613281 L 315.15625 219.769531 C 316.03125 219.304688 316.707031 219.152344 317.242188 219.117188 L 317.683594 220.816406 C 317.273438 220.867188 316.519531 220.910156 315.601562 221.449219 C 314.769531 221.9375 314.703125 222.460938 314.902344 222.832031 C 315.140625 223.261719 315.738281 223.277344 317.054688 223.0625 C 318.875 222.71875 319.882812 223.082031 320.53125 224.265625 C 321.171875 225.433594 320.914062 226.90625 319.585938 228.027344 L 320.320312 229.371094 L 319.070312 230.101562 " fill-opacity="1" fill-rule="nonzero"/><path fill="#0a21c0" d="M 161.46875 172.597656 L 155.394531 206.109375 C 154.949219 208.5625 155.828125 210.753906 157.359375 210.996094 L 159.875 211.398438 C 161.40625 211.640625 163.007812 209.847656 163.453125 207.394531 L 169.527344 173.882812 L 161.46875 172.597656 " fill-opacity="1" fill-rule="nonzero"/><path fill="#141619" d="M 161.964844 173.292969 L 155.996094 206.21875 C 155.746094 207.589844 155.945312 208.941406 156.519531 209.746094 C 156.785156 210.121094 157.097656 210.335938 157.453125 210.394531 L 159.972656 210.796875 C 161.148438 210.984375 162.472656 209.378906 162.851562 207.285156 L 168.816406 174.386719 Z M 160.160156 212.03125 C 160.035156 212.03125 159.90625 212.019531 159.78125 212 L 157.261719 211.597656 C 156.578125 211.492188 155.976562 211.09375 155.523438 210.453125 C 154.757812 209.371094 154.484375 207.710938 154.792969 206 L 160.871094 172.488281 C 160.929688 172.160156 161.242188 171.941406 161.566406 171.996094 L 169.625 173.28125 C 169.785156 173.304688 169.929688 173.398438 170.027344 173.527344 C 170.121094 173.664062 170.15625 173.828125 170.125 173.988281 L 164.050781 207.503906 C 163.574219 210.132812 161.910156 212.03125 160.160156 212.03125 " fill-opacity="1" fill-rule="nonzero"/><path fill="#f4f5f8" d="M 177.78125 138.050781 L 145.449219 145.390625 L 131.535156 151.386719 L 124.914062 156.527344 L 124.867188 156.570312 C 123.628906 157.421875 122.929688 160.289062 123.199219 163.613281 C 123.46875 166.898438 124.636719 169.589844 125.976562 170.277344 L 125.925781 170.28125 L 132.910156 174.132812 L 147.515625 177.679688 L 180.925781 179.460938 L 214.441406 200.78125 L 214.691406 200.894531 C 206.289062 195.417969 199.128906 178.164062 197.429688 157.277344 C 195.730469 136.414062 199.996094 118.285156 207.390625 111.566406 L 207.386719 111.558594 L 178.15625 137.71875 L 177.78125 138.050781 " fill-opacity="1" fill-rule="nonzero"/><path fill="#0a21c0" d="M 236.617188 154.226562 C 238.71875 180.054688 231.640625 201.671875 220.808594 202.515625 C 209.976562 203.359375 199.488281 183.101562 197.382812 157.277344 C 195.277344 131.445312 202.355469 109.828125 213.191406 108.984375 C 224.023438 108.144531 234.511719 128.398438 236.617188 154.226562 " fill-opacity="1" fill-rule="nonzero"/><path fill="#141619" d="M 213.855469 109.570312 C 213.648438 109.570312 213.445312 109.578125 213.238281 109.59375 C 210.777344 109.785156 208.464844 111.128906 206.371094 113.589844 C 199.753906 121.351562 196.460938 138.476562 197.992188 157.226562 C 200.0625 182.679688 210.296875 202.730469 220.761719 201.90625 C 223.21875 201.714844 225.53125 200.371094 227.628906 197.910156 C 234.246094 190.152344 237.535156 173.023438 236.007812 154.273438 C 233.972656 129.324219 224.117188 109.570312 213.855469 109.570312 Z M 220.152344 203.152344 C 214.886719 203.152344 209.628906 198.578125 205.28125 190.175781 C 200.816406 181.558594 197.800781 169.894531 196.773438 157.324219 C 195.222656 138.269531 198.625 120.792969 205.441406 112.796875 C 207.757812 110.082031 210.347656 108.59375 213.144531 108.378906 C 218.640625 107.949219 224.175781 112.546875 228.71875 121.324219 C 233.179688 129.9375 236.199219 141.605469 237.222656 154.175781 C 238.773438 173.230469 235.375 190.707031 228.558594 198.703125 C 226.242188 201.417969 223.648438 202.90625 220.851562 203.125 C 220.621094 203.140625 220.386719 203.152344 220.152344 203.152344 " fill-opacity="1" fill-rule="nonzero"/><path fill="#e5e7fd" d="M 215.8125 155.875 C 216.273438 161.527344 214.722656 166.261719 212.355469 166.445312 C 209.984375 166.628906 207.6875 162.195312 207.226562 156.542969 C 206.765625 150.886719 208.316406 146.15625 210.6875 145.972656 C 213.054688 145.789062 215.351562 150.21875 215.8125 155.875 " fill-opacity="1" fill-rule="nonzero"/><path fill="#141619" d="M 210.824219 146.578125 C 210.796875 146.578125 210.761719 146.578125 210.734375 146.578125 C 210.328125 146.609375 209.929688 146.847656 209.558594 147.289062 C 208.207031 148.867188 207.519531 152.566406 207.835938 156.492188 C 208.289062 162.070312 210.484375 165.839844 212.214844 165.839844 C 212.246094 165.839844 212.277344 165.839844 212.304688 165.835938 C 212.714844 165.804688 213.109375 165.566406 213.484375 165.128906 C 214.832031 163.546875 215.523438 159.847656 215.207031 155.925781 C 214.75 150.347656 212.554688 146.578125 210.824219 146.578125 Z M 212.21875 167.058594 C 209.542969 167.058594 207.105469 162.535156 206.621094 156.589844 C 206.273438 152.300781 207.058594 148.335938 208.628906 146.496094 C 209.21875 145.800781 209.898438 145.421875 210.640625 145.363281 C 213.390625 145.148438 215.925781 149.746094 216.421875 155.824219 C 216.769531 160.117188 215.980469 164.078125 214.410156 165.917969 C 213.820312 166.613281 213.144531 166.996094 212.402344 167.050781 C 212.339844 167.058594 212.277344 167.058594 212.21875 167.058594 " fill-opacity="1" fill-rule="nonzero"/><path fill="#141619" d="M 147.605469 177.074219 L 180.957031 178.851562 C 181.0625 178.855469 181.164062 178.890625 181.25 178.945312 L 209.636719 197 C 203.105469 188.953125 198.1875 174.101562 196.820312 157.324219 C 195.464844 140.660156 197.878906 125.320312 202.960938 116.339844 L 178.1875 138.507812 C 178.109375 138.578125 178.019531 138.625 177.917969 138.648438 L 145.636719 145.972656 L 131.851562 151.917969 L 125.269531 157.027344 C 125.25 157.042969 125.230469 157.058594 125.210938 157.074219 C 124.324219 157.683594 123.53125 160.164062 123.808594 163.5625 C 124.082031 166.894531 125.269531 169.230469 126.253906 169.734375 C 126.316406 169.765625 126.371094 169.804688 126.417969 169.855469 L 133.136719 173.558594 Z M 214.691406 201.503906 C 214.609375 201.503906 214.523438 201.484375 214.441406 201.449219 L 214.191406 201.332031 C 214.164062 201.324219 214.136719 201.308594 214.113281 201.292969 L 180.730469 180.0625 L 147.484375 178.289062 C 147.445312 178.289062 147.410156 178.28125 147.371094 178.273438 L 132.769531 174.726562 C 132.714844 174.710938 132.664062 174.691406 132.617188 174.667969 L 125.628906 170.8125 C 125.570312 170.78125 125.515625 170.738281 125.46875 170.683594 C 124.003906 169.730469 122.863281 166.964844 122.59375 163.660156 C 122.308594 160.140625 123.066406 157.109375 124.484375 156.089844 L 124.507812 156.070312 L 131.164062 150.90625 C 131.203125 150.875 131.25 150.847656 131.296875 150.828125 L 145.207031 144.828125 C 145.242188 144.8125 145.277344 144.804688 145.3125 144.792969 L 177.492188 137.492188 L 206.976562 111.105469 C 207.226562 110.882812 207.613281 110.902344 207.835938 111.148438 C 207.945312 111.269531 208.003906 111.429688 207.996094 111.589844 C 207.988281 111.753906 207.921875 111.90625 207.800781 112.015625 C 200.3125 118.824219 196.390625 136.992188 198.035156 157.226562 C 199.6875 177.492188 206.515625 194.835938 215.027344 200.382812 C 215.292969 200.554688 215.382812 200.90625 215.230469 201.183594 C 215.117188 201.386719 214.910156 201.503906 214.691406 201.503906 " fill-opacity="1" fill-rule="nonzero"/><path fill="#e5e7fd" d="M 177.871094 137.972656 L 207.386719 111.558594 L 207.390625 111.566406 C 199.996094 118.285156 195.730469 136.414062 197.429688 157.277344 C 199.128906 178.164062 206.289062 195.417969 214.691406 200.894531 L 214.441406 200.78125 L 180.980469 179.496094 L 180.203125 179.003906 C 176.324219 176.511719 173.007812 168.710938 172.261719 159.261719 C 171.492188 149.5625 174.101562 141.308594 177.503906 138.292969 L 177.871094 137.972656 " fill-opacity="1" fill-rule="nonzero"/><path fill="#141619" d="M 177.871094 137.972656 L 177.875 137.972656 Z M 202.960938 116.339844 L 178.273438 138.429688 C 178.273438 138.429688 178.273438 138.429688 178.269531 138.433594 L 177.902344 138.753906 C 174.816406 141.488281 172.089844 149.398438 172.871094 159.214844 C 173.574219 168.117188 176.726562 176.042969 180.53125 178.492188 L 181.304688 178.980469 L 209.636719 197 C 203.105469 188.953125 198.1875 174.101562 196.820312 157.324219 C 195.464844 140.660156 197.878906 125.320312 202.960938 116.339844 Z M 214.691406 201.503906 C 214.609375 201.503906 214.523438 201.484375 214.441406 201.449219 L 214.191406 201.332031 C 214.164062 201.324219 214.136719 201.308594 214.113281 201.292969 L 179.878906 179.519531 C 175.703125 176.835938 172.398438 168.714844 171.652344 159.308594 C 170.925781 150.152344 173.167969 141.320312 177.097656 137.835938 L 177.464844 137.515625 L 206.976562 111.105469 C 207.226562 110.882812 207.613281 110.902344 207.835938 111.148438 C 207.945312 111.269531 208.003906 111.429688 207.996094 111.589844 C 207.988281 111.753906 207.921875 111.90625 207.800781 112.015625 C 200.3125 118.824219 196.390625 136.992188 198.035156 157.226562 C 199.6875 177.492188 206.515625 194.835938 215.027344 200.382812 C 215.292969 200.554688 215.382812 200.90625 215.230469 201.183594 C 215.117188 201.386719 214.910156 201.503906 214.691406 201.503906 " fill-opacity="1" fill-rule="nonzero"/><path fill="#141619" d="M 132.535156 174.535156 C 132.433594 174.535156 132.335938 174.511719 132.242188 174.457031 L 125.628906 170.8125 C 125.570312 170.78125 125.515625 170.738281 125.46875 170.683594 C 124.003906 169.730469 122.863281 166.964844 122.59375 163.660156 C 122.308594 160.140625 123.066406 157.109375 124.484375 156.089844 L 124.507812 156.070312 L 131.164062 150.90625 C 131.429688 150.699219 131.8125 150.75 132.019531 151.015625 C 132.226562 151.28125 132.175781 151.664062 131.910156 151.871094 L 125.269531 157.027344 C 125.25 157.042969 125.230469 157.058594 125.210938 157.074219 C 124.324219 157.683594 123.53125 160.164062 123.808594 163.5625 C 124.082031 166.894531 125.269531 169.230469 126.253906 169.734375 C 126.316406 169.765625 126.371094 169.804688 126.417969 169.855469 L 132.832031 173.390625 C 133.125 173.554688 133.230469 173.921875 133.070312 174.21875 C 132.957031 174.421875 132.75 174.535156 132.535156 174.535156 " fill-opacity="1" fill-rule="nonzero"/><path fill="#0a21c0" d="M 132.992188 174.117188 C 130.808594 173.015625 129 168.511719 128.5625 163.148438 C 128.101562 157.46875 129.558594 152.402344 131.757812 151.304688 L 124.914062 156.527344 L 124.867188 156.570312 C 123.628906 157.421875 122.929688 160.289062 123.199219 163.613281 C 123.46875 166.898438 124.636719 169.589844 125.976562 170.277344 L 125.925781 170.28125 L 132.992188 174.117188 " fill-opacity="1" fill-rule="nonzero"/><path fill="#141619" d="M 126.414062 169.851562 L 130.25 171.933594 C 129.082031 169.796875 128.242188 166.695312 127.957031 163.199219 C 127.679688 159.800781 128.074219 156.570312 128.941406 154.21875 L 125.269531 157.027344 C 125.25 157.042969 125.230469 157.058594 125.210938 157.074219 C 124.324219 157.683594 123.53125 160.164062 123.808594 163.5625 C 124.082031 166.894531 125.269531 169.230469 126.253906 169.734375 C 126.3125 169.765625 126.367188 169.804688 126.414062 169.851562 Z M 132.992188 174.730469 C 132.898438 174.730469 132.804688 174.707031 132.71875 174.664062 C 132.660156 174.636719 132.605469 174.605469 132.546875 174.570312 L 125.632812 170.816406 C 125.570312 170.78125 125.515625 170.738281 125.46875 170.683594 C 124.003906 169.730469 122.863281 166.964844 122.59375 163.660156 C 122.308594 160.140625 123.066406 157.109375 124.484375 156.089844 L 124.507812 156.070312 C 124.519531 156.0625 124.53125 156.050781 124.542969 156.042969 L 130.554688 151.453125 C 130.84375 151.15625 131.15625 150.921875 131.484375 150.757812 C 131.765625 150.617188 132.109375 150.714844 132.273438 150.980469 C 132.441406 151.25 132.375 151.597656 132.125 151.789062 L 131.351562 152.378906 C 129.902344 153.941406 128.761719 158.035156 129.171875 163.097656 C 129.578125 168.066406 131.230469 172.386719 133.136719 173.5 L 133.285156 173.582031 C 133.578125 173.742188 133.6875 174.105469 133.53125 174.402344 C 133.421875 174.609375 133.210938 174.730469 132.992188 174.730469 " fill-opacity="1" fill-rule="nonzero"/><path fill="#e5e7fd" d="M 146.984375 177.550781 L 147.609375 177.679688 C 144.183594 177.011719 141.207031 170.179688 140.535156 161.941406 C 139.851562 153.539062 142.058594 146.359375 145.449219 145.390625 L 144.984375 145.589844 L 131.792969 151.285156 C 129.574219 152.34375 128.097656 157.4375 128.5625 163.148438 C 129.011719 168.660156 130.980469 173.273438 133.242188 174.207031 L 146.984375 177.550781 " fill-opacity="1" fill-rule="nonzero"/><path fill="#141619" d="M 133.433594 173.625 L 144.574219 176.335938 C 142.238281 173.59375 140.441406 168.277344 139.929688 161.992188 C 139.4375 155.9375 140.394531 150.523438 142.285156 147.421875 L 132.035156 151.84375 C 130.296875 152.675781 128.691406 157.222656 129.171875 163.097656 C 129.589844 168.234375 131.417969 172.742188 133.433594 173.625 Z M 147.613281 178.289062 C 147.574219 178.289062 147.535156 178.285156 147.496094 178.277344 C 147.480469 178.273438 147.460938 178.269531 147.445312 178.265625 L 146.863281 178.148438 C 146.855469 178.144531 146.847656 178.144531 146.835938 178.144531 L 133.097656 174.796875 C 133.070312 174.789062 133.039062 174.78125 133.007812 174.769531 C 130.503906 173.734375 128.425781 168.976562 127.957031 163.199219 C 127.476562 157.296875 129.011719 151.9375 131.53125 150.734375 L 144.445312 145.15625 C 144.714844 145.003906 144.992188 144.882812 145.28125 144.804688 C 145.589844 144.714844 145.914062 144.878906 146.019531 145.183594 C 146.128906 145.488281 145.984375 145.824219 145.691406 145.949219 L 145.011719 146.242188 C 142.550781 147.707031 140.480469 153.71875 141.144531 161.890625 C 141.789062 169.785156 144.65625 176.433594 147.691406 177.070312 L 147.730469 177.078125 C 148.0625 177.144531 148.273438 177.464844 148.210938 177.796875 C 148.152344 178.085938 147.898438 178.289062 147.613281 178.289062 " fill-opacity="1" fill-rule="nonzero"/><path fill="#141619" d="M 210.6875 145.972656 C 208.316406 146.15625 206.667969 150.894531 207.226562 156.542969 C 208.171875 166.003906 211.871094 166.484375 212.320312 166.507812 C 212.328125 166.507812 212.328125 166.519531 212.320312 166.519531 L 202.734375 169.285156 C 201.871094 165.453125 201.238281 161.324219 200.886719 157.007812 C 200.550781 152.871094 200.496094 148.863281 200.699219 145.085938 L 210.6875 145.972656 " fill-opacity="1" fill-rule="nonzero"/><path fill="#141619" d="M 201.273438 145.75 C 201.109375 149.386719 201.183594 153.152344 201.496094 156.957031 C 201.820312 160.929688 202.386719 164.816406 203.191406 168.523438 L 210.496094 166.414062 C 209.058594 165.378906 207.242188 162.835938 206.621094 156.601562 C 206.203125 152.40625 206.96875 148.464844 208.566406 146.550781 C 208.609375 146.503906 208.652344 146.453125 208.695312 146.40625 Z M 202.285156 170.054688 L 202.140625 169.421875 C 201.25 165.472656 200.625 161.3125 200.277344 157.058594 C 199.945312 152.976562 199.882812 148.9375 200.089844 145.050781 L 200.121094 144.421875 L 210.742188 145.363281 L 210.734375 146.578125 C 210.308594 146.609375 209.894531 146.867188 209.503906 147.335938 C 208.125 148.980469 207.457031 152.65625 207.835938 156.480469 C 208.742188 165.609375 212.203125 165.890625 212.351562 165.898438 L 212.871094 165.925781 L 212.988281 166.960938 L 202.285156 170.054688 " fill-opacity="1" fill-rule="nonzero"/><path fill="#0a21c0" d="M 108.9375 148.007812 C 108.234375 148.007812 107.523438 147.925781 106.8125 147.75 C 102.074219 146.582031 99.175781 141.792969 100.34375 137.050781 C 105.203125 117.335938 116.683594 99.488281 132.671875 86.792969 C 149.15625 73.707031 169.019531 66.789062 190.109375 66.789062 C 220.484375 66.789062 248.9375 81.730469 266.222656 106.757812 C 268.996094 110.773438 267.992188 116.28125 263.972656 119.054688 C 259.953125 121.832031 254.445312 120.820312 251.675781 116.804688 C 237.691406 96.558594 214.675781 84.472656 190.109375 84.472656 C 155.605469 84.472656 125.753906 107.832031 117.511719 141.28125 C 116.519531 145.308594 112.910156 148.007812 108.9375 148.007812 " fill-opacity="1" fill-rule="nonzero"/><path fill="#0a21c0" d="M 80.558594 125.703125 L 106.503906 159.234375 L 140.035156 133.292969 Z M 80.558594 125.703125 " fill-opacity="1" fill-rule="nonzero"/><path fill="#0a21c0" d="M 207.269531 68.402344 C 201.664062 67.339844 195.921875 66.789062 190.109375 66.789062 C 169.019531 66.789062 149.15625 73.707031 132.671875 86.792969 C 116.683594 99.484375 105.203125 117.335938 100.34375 137.050781 C 99.175781 141.792969 102.074219 146.582031 106.8125 147.75 C 107.523438 147.925781 108.234375 148.007812 108.9375 148.007812 C 112.910156 148.007812 116.519531 145.308594 117.511719 141.28125 C 125.753906 107.832031 155.605469 84.472656 190.109375 84.472656 C 195.753906 84.472656 201.320312 85.117188 206.710938 86.347656 C 207.058594 80.371094 207.269531 74.382812 207.269531 68.402344 " fill-opacity="1" fill-rule="nonzero"/><path fill="#0a21c0" d="M 80.558594 125.703125 L 106.503906 159.234375 L 140.035156 133.292969 Z M 80.558594 125.703125 " fill-opacity="1" fill-rule="nonzero"/><path fill="#141619" d="M 106.503906 159.84375 C 106.324219 159.84375 106.140625 159.761719 106.023438 159.609375 L 80.078125 126.078125 C 79.925781 125.882812 79.90625 125.613281 80.03125 125.402344 C 80.152344 125.1875 80.390625 125.066406 80.636719 125.097656 L 102.480469 127.886719 C 108.363281 111.5 118.664062 97.136719 132.292969 86.316406 C 148.886719 73.140625 168.878906 66.179688 190.109375 66.179688 C 190.441406 66.179688 190.71875 66.453125 190.71875 66.789062 C 190.71875 67.128906 190.441406 67.402344 190.109375 67.402344 C 169.15625 67.402344 149.425781 74.273438 133.050781 87.273438 C 119.472656 98.050781 109.242188 112.394531 103.464844 128.757812 C 103.371094 129.027344 103.09375 129.195312 102.8125 129.160156 L 81.945312 126.496094 L 106.613281 158.378906 L 138.496094 133.710938 L 120.828125 131.453125 C 120.640625 131.429688 120.472656 131.320312 120.378906 131.15625 C 120.28125 130.992188 120.269531 130.792969 120.339844 130.621094 C 123.894531 121.910156 128.980469 114.042969 135.457031 107.234375 C 135.691406 106.988281 136.078125 106.980469 136.320312 107.210938 C 136.566406 107.445312 136.574219 107.832031 136.339844 108.074219 C 130.152344 114.582031 125.253906 122.070312 121.773438 130.34375 L 140.109375 132.6875 C 140.355469 132.71875 140.558594 132.894531 140.625 133.128906 C 140.6875 133.367188 140.601562 133.621094 140.40625 133.773438 L 106.878906 159.714844 C 106.765625 159.800781 106.636719 159.84375 106.503906 159.84375 " fill-opacity="1" fill-rule="nonzero"/><path fill="#0a21c0" d="M 190.109375 251.675781 C 161.578125 251.675781 135.085938 238.804688 117.421875 216.359375 C 114.402344 212.523438 115.066406 206.964844 118.902344 203.945312 C 122.742188 200.925781 128.300781 201.589844 131.320312 205.425781 C 145.605469 223.582031 167.035156 233.996094 190.109375 233.996094 C 224.609375 233.996094 254.460938 210.632812 262.703125 177.1875 C 263.871094 172.445312 268.660156 169.550781 273.402344 170.714844 C 278.144531 171.886719 281.039062 176.675781 279.871094 181.417969 C 275.015625 201.132812 263.53125 218.980469 247.542969 231.675781 C 231.058594 244.761719 211.195312 251.675781 190.109375 251.675781 " fill-opacity="1" fill-rule="nonzero"/><path fill="#0a21c0" d="M 299.652344 192.761719 L 273.710938 159.234375 L 240.179688 185.175781 L 299.652344 192.761719 " fill-opacity="1" fill-rule="nonzero"/><path fill="#0a21c0" d="M 273.402344 170.714844 C 268.660156 169.550781 263.871094 172.445312 262.703125 177.183594 C 254.765625 209.40625 226.765625 232.265625 193.882812 233.898438 C 194.078125 234.738281 194.273438 235.578125 194.472656 236.414062 C 195.632812 241.394531 196.800781 246.378906 198.039062 251.347656 C 216.164062 249.832031 233.144531 243.105469 247.542969 231.675781 C 263.53125 218.980469 275.015625 201.132812 279.871094 181.417969 C 281.039062 176.675781 278.144531 171.886719 273.402344 170.714844 " fill-opacity="1" fill-rule="nonzero"/><path fill="#0a21c0" d="M 299.652344 192.761719 L 273.710938 159.234375 L 240.179688 185.175781 L 299.652344 192.761719 " fill-opacity="1" fill-rule="nonzero"/><path fill="#141619" d="M 247.542969 232.285156 C 247.367188 232.285156 247.1875 232.207031 247.066406 232.054688 C 246.855469 231.789062 246.898438 231.40625 247.164062 231.195312 C 260.742188 220.417969 270.972656 206.074219 276.75 189.714844 C 276.847656 189.441406 277.121094 189.273438 277.402344 189.3125 L 298.269531 191.972656 L 273.601562 160.089844 L 241.71875 184.761719 L 259.386719 187.011719 C 259.574219 187.035156 259.742188 187.144531 259.839844 187.308594 C 259.933594 187.476562 259.945312 187.671875 259.875 187.847656 C 256.515625 196.078125 251.777344 203.570312 245.789062 210.128906 C 245.5625 210.375 245.175781 210.394531 244.925781 210.167969 C 244.679688 209.9375 244.664062 209.550781 244.886719 209.304688 C 250.601562 203.050781 255.160156 195.929688 258.441406 188.121094 L 240.105469 185.785156 C 239.855469 185.75 239.65625 185.578125 239.59375 185.335938 C 239.527344 185.101562 239.613281 184.847656 239.804688 184.695312 L 273.335938 158.75 C 273.464844 158.65625 273.628906 158.609375 273.789062 158.628906 C 273.949219 158.652344 274.09375 158.734375 274.195312 158.859375 L 300.136719 192.390625 C 300.285156 192.585938 300.304688 192.851562 300.179688 193.066406 C 300.058594 193.277344 299.824219 193.398438 299.578125 193.367188 L 277.734375 190.585938 C 271.851562 206.96875 261.550781 221.332031 247.921875 232.152344 C 247.808594 232.242188 247.675781 232.285156 247.542969 232.285156 " fill-opacity="1" fill-rule="nonzero"/></svg>