<svg xmlns="http://www.w3.org/2000/svg" xmlns:xlink="http://www.w3.org/1999/xlink" width="500" zoomAndPan="magnify" viewBox="0 0 375 374.999991" height="500" preserveAspectRatio="xMidYMid meet" version="1.0"><path fill="#b3b4bd" d="M 357.023438 142.1875 C 341.226562 62.015625 261.753906 15.511719 194.824219 9.332031 C 139.371094 4.210938 66.957031 24.449219 41.359375 73.355469 C 25.265625 104.109375 44.601562 113.875 31.433594 183.5625 C 20.039062 243.878906 0.09375 265.472656 12.734375 296.210938 C 23.070312 321.34375 47.226562 333.230469 62.667969 340.832031 C 123.527344 370.777344 215.984375 367.261719 282.542969 312.632812 C 298.117188 299.847656 374.886719 232.875 357.023438 142.1875 " fill-opacity="1" fill-rule="nonzero"/><path fill="#e5e7fd" d="M 281.140625 340.308594 L 123.703125 340.308594 C 116.917969 340.308594 112.113281 334.84375 112.96875 328.105469 L 151.734375 22.886719 C 152.589844 16.148438 158.785156 10.683594 165.570312 10.683594 L 315.101562 8.941406 C 332.265625 8.941406 334.59375 16.148438 333.738281 22.886719 L 294.972656 328.105469 C 294.117188 334.84375 287.921875 340.308594 281.140625 340.308594 " fill-opacity="1" fill-rule="nonzero"/><path fill="#e4e6ef" d="M 271.664062 340.308594 L 114.230469 340.308594 C 107.445312 340.308594 102.640625 334.828125 103.496094 328.0625 L 142.261719 21.875 C 143.117188 15.113281 149.3125 9.632812 156.097656 9.632812 L 313.53125 9.632812 C 320.3125 9.632812 325.121094 15.113281 324.265625 21.875 L 285.5 328.0625 C 284.644531 334.828125 278.449219 340.308594 271.664062 340.308594 " fill-opacity="1" fill-rule="nonzero"/><path fill="#b3b4bd" d="M 112.464844 328.484375 L 149.480469 36.128906 C 149.675781 34.566406 151.105469 33.304688 152.671875 33.304688 L 310.957031 33.304688 C 312.523438 33.304688 313.628906 34.566406 313.433594 36.128906 L 276.417969 328.484375 C 276.222656 330.046875 274.792969 331.3125 273.226562 331.3125 L 114.945312 331.3125 C 113.378906 331.3125 112.269531 330.046875 112.464844 328.484375 " fill-opacity="1" fill-rule="nonzero"/><path fill="#b3b4bd" d="M 232.839844 25.207031 C 230.296875 25.207031 228.496094 23.15625 228.816406 20.621094 C 229.136719 18.085938 231.460938 16.035156 234.003906 16.035156 C 236.542969 16.035156 238.34375 18.085938 238.019531 20.621094 C 237.703125 23.15625 235.382812 25.207031 232.839844 25.207031 " fill-opacity="1" fill-rule="nonzero"/><path fill="#141619" d="M 271.664062 340.941406 L 114.230469 340.941406 C 110.773438 340.941406 107.6875 339.601562 105.539062 337.160156 C 103.375 334.707031 102.425781 331.449219 102.867188 327.984375 C 102.910156 327.636719 103.226562 327.394531 103.574219 327.433594 C 103.921875 327.480469 104.167969 327.796875 104.125 328.144531 C 103.730469 331.242188 104.574219 334.144531 106.488281 336.320312 C 108.394531 338.480469 111.144531 339.671875 114.230469 339.671875 L 271.664062 339.671875 C 278.128906 339.671875 284.050781 334.429688 284.867188 327.984375 L 292.902344 264.515625 C 292.949219 264.167969 293.261719 263.917969 293.613281 263.964844 C 293.964844 264.007812 294.207031 264.328125 294.164062 264.671875 L 286.128906 328.144531 C 285.234375 335.199219 278.746094 340.941406 271.664062 340.941406 " fill-opacity="1" fill-rule="nonzero"/><path fill="#141619" d="M 302.546875 194.070312 C 302.519531 194.070312 302.492188 194.066406 302.464844 194.066406 C 302.117188 194.019531 301.871094 193.703125 301.914062 193.355469 L 323.636719 21.792969 C 324.027344 18.699219 323.1875 15.792969 321.269531 13.617188 C 319.367188 11.457031 316.617188 10.265625 313.53125 10.265625 L 156.09375 10.265625 C 149.628906 10.265625 143.707031 15.511719 142.890625 21.953125 L 137 68.480469 C 136.957031 68.828125 136.636719 69.074219 136.292969 69.03125 C 135.945312 68.988281 135.699219 68.667969 135.742188 68.320312 L 141.632812 21.792969 C 142.523438 14.738281 149.011719 8.996094 156.09375 8.996094 L 313.53125 8.996094 C 316.988281 8.996094 320.074219 10.339844 322.222656 12.777344 C 324.386719 15.230469 325.332031 18.488281 324.894531 21.953125 L 303.175781 193.515625 C 303.132812 193.835938 302.859375 194.070312 302.546875 194.070312 " fill-opacity="1" fill-rule="nonzero"/><path fill="#b3b4bd" d="M 218.707031 181.121094 L 246.265625 170.992188 C 260.53125 165.292969 273.09375 141.390625 275.417969 120.75 C 277.09375 105.839844 270.179688 92.1875 262.765625 88.898438 L 238.746094 82.332031 C 246.160156 85.617188 250.554688 95.796875 249.445312 109.945312 C 247.785156 130.648438 234.851562 152.101562 220.585938 157.796875 L 187.660156 170.765625 L 218.707031 181.121094 " fill-opacity="1" fill-rule="nonzero"/><path fill="#141619" d="M 218.714844 181.792969 L 218.503906 181.722656 L 185.800781 170.816406 L 220.355469 157.210938 C 234.402344 151.601562 247.171875 130.375 248.808594 109.894531 C 249.117188 105.953125 249.003906 102.242188 248.460938 98.867188 C 248.40625 98.519531 248.644531 98.195312 248.988281 98.136719 C 249.332031 98.085938 249.660156 98.320312 249.714844 98.664062 C 250.269531 102.136719 250.394531 105.953125 250.074219 109.996094 C 248.398438 130.910156 235.277344 152.617188 220.824219 158.390625 L 189.515625 170.71875 L 218.691406 180.449219 L 246.046875 170.394531 C 260.535156 164.609375 272.613281 140.015625 274.785156 120.679688 C 276.429688 106.035156 269.796875 92.753906 262.550781 89.5 L 238.578125 82.945312 C 238.242188 82.851562 238.039062 82.503906 238.132812 82.167969 C 238.222656 81.828125 238.574219 81.628906 238.914062 81.722656 L 263.023438 88.320312 C 270.695312 91.722656 277.757812 105.59375 276.046875 120.820312 C 274.894531 131.054688 271.1875 142.339844 265.871094 151.785156 C 260.230469 161.816406 253.347656 168.84375 246.5 171.582031 L 218.714844 181.792969 " fill-opacity="1" fill-rule="nonzero"/><path fill="#b3b4bd" d="M 226.226562 69.15625 L 253.257812 58.410156 C 253.257812 58.410156 270.128906 54.953125 276.867188 57.933594 L 249.269531 48.832031 C 242.53125 45.851562 234.5 45.8125 225.660156 49.304688 L 198.183594 59.96875 L 226.226562 69.15625 " fill-opacity="1" fill-rule="nonzero"/><path fill="#141619" d="M 200.070312 59.917969 L 226.207031 68.480469 L 253.027344 57.820312 C 253.058594 57.808594 253.097656 57.796875 253.132812 57.789062 C 253.625 57.6875 261.957031 55.992188 269.246094 56.085938 L 249.074219 49.433594 C 249.050781 49.425781 249.035156 49.417969 249.015625 49.410156 C 242.253906 46.417969 234.261719 46.585938 225.894531 49.894531 Z M 226.226562 69.785156 C 226.160156 69.785156 226.09375 69.777344 226.027344 69.757812 L 197.988281 60.570312 C 197.734375 60.488281 197.558594 60.253906 197.550781 59.984375 C 197.542969 59.714844 197.707031 59.472656 197.953125 59.378906 L 225.433594 48.714844 C 234.105469 45.28125 242.425781 45.117188 249.5 48.234375 L 275.214844 56.71875 C 275.910156 56.890625 276.550781 57.097656 277.128906 57.351562 C 277.433594 57.488281 277.582031 57.84375 277.460938 58.160156 C 277.339844 58.476562 276.988281 58.640625 276.667969 58.535156 L 274.832031 57.925781 C 267.753906 56.226562 254.402344 58.828125 253.441406 59.019531 L 226.460938 69.742188 C 226.386719 69.773438 226.308594 69.785156 226.226562 69.785156 " fill-opacity="1" fill-rule="nonzero"/><path fill="#e5e7fd" d="M 187.660156 170.761719 L 150.125 185.074219 L 182.25 194.519531 L 218.703125 181.121094 L 187.660156 170.761719 " fill-opacity="1" fill-rule="nonzero"/><path fill="#141619" d="M 152.109375 184.996094 L 182.230469 193.851562 L 216.789062 181.148438 L 187.671875 171.4375 Z M 182.25 195.152344 C 182.191406 195.152344 182.128906 195.144531 182.070312 195.128906 L 149.945312 185.679688 C 149.683594 185.605469 149.5 185.371094 149.488281 185.097656 C 149.480469 184.824219 149.644531 184.578125 149.894531 184.480469 L 187.433594 170.171875 C 187.570312 170.121094 187.71875 170.117188 187.859375 170.160156 L 218.90625 180.519531 C 219.160156 180.601562 219.335938 180.839844 219.339844 181.109375 C 219.34375 181.378906 219.175781 181.625 218.921875 181.714844 L 182.46875 195.117188 C 182.398438 195.140625 182.324219 195.152344 182.25 195.152344 " fill-opacity="1" fill-rule="nonzero"/><path fill="#e5e7fd" d="M 198.183594 59.972656 L 159.414062 74.769531 L 190.300781 83.433594 L 226.226562 69.15625 L 198.183594 59.972656 " fill-opacity="1" fill-rule="nonzero"/><path fill="#141619" d="M 161.433594 74.675781 L 190.265625 82.761719 L 224.363281 69.210938 L 198.199219 60.640625 Z M 190.300781 84.066406 C 190.242188 84.066406 190.183594 84.058594 190.128906 84.042969 L 159.242188 75.378906 C 158.980469 75.304688 158.792969 75.070312 158.78125 74.796875 C 158.769531 74.523438 158.933594 74.273438 159.1875 74.175781 L 197.957031 59.375 C 198.09375 59.324219 198.246094 59.320312 198.382812 59.363281 L 226.421875 68.550781 C 226.679688 68.632812 226.851562 68.867188 226.863281 69.132812 C 226.867188 69.398438 226.710938 69.644531 226.460938 69.742188 L 190.53125 84.023438 C 190.457031 84.054688 190.378906 84.066406 190.300781 84.066406 " fill-opacity="1" fill-rule="nonzero"/><path fill="#0a21c0" d="M 178.945312 228.507812 L 147.441406 219.230469 L 150.125 185.074219 L 181.628906 194.351562 L 178.945312 228.507812 " fill-opacity="1" fill-rule="nonzero"/><path fill="#141619" d="M 148.113281 218.765625 L 178.375 227.679688 L 180.957031 194.816406 L 150.695312 185.902344 Z M 178.945312 229.144531 C 178.886719 229.144531 178.828125 229.136719 178.769531 229.117188 L 147.261719 219.835938 C 146.972656 219.753906 146.785156 219.480469 146.808594 219.179688 L 149.492188 185.023438 C 149.503906 184.832031 149.605469 184.660156 149.765625 184.550781 C 149.921875 184.441406 150.117188 184.410156 150.304688 184.464844 L 181.808594 193.746094 C 182.097656 193.828125 182.285156 194.105469 182.261719 194.402344 L 179.578125 228.558594 C 179.566406 228.75 179.464844 228.921875 179.308594 229.03125 C 179.199219 229.105469 179.074219 229.144531 178.945312 229.144531 " fill-opacity="1" fill-rule="nonzero"/><path fill="#0a21c0" d="M 187.710938 116.386719 L 156.828125 107.722656 L 159.414062 74.769531 L 190.300781 83.429688 L 187.710938 116.386719 " fill-opacity="1" fill-rule="nonzero"/><path fill="#141619" d="M 157.5 107.253906 L 187.140625 115.570312 L 189.625 83.902344 L 159.988281 75.589844 Z M 187.710938 117.023438 C 187.652344 117.023438 187.597656 117.015625 187.539062 117 L 156.65625 108.335938 C 156.363281 108.253906 156.171875 107.972656 156.195312 107.675781 L 158.78125 74.71875 C 158.796875 74.527344 158.898438 74.355469 159.050781 74.246094 C 159.207031 74.140625 159.402344 74.105469 159.585938 74.15625 L 190.472656 82.820312 C 190.761719 82.902344 190.957031 83.179688 190.929688 83.484375 L 188.34375 116.4375 C 188.328125 116.625 188.230469 116.800781 188.078125 116.90625 C 187.96875 116.980469 187.839844 117.023438 187.710938 117.023438 " fill-opacity="1" fill-rule="nonzero"/><path fill="#0a21c0" d="M 215.117188 213.9375 L 178.925781 228.320312 L 181.511719 195.363281 L 217.703125 180.984375 L 215.117188 213.9375 " fill-opacity="1" fill-rule="nonzero"/><path fill="#141619" d="M 215.117188 213.9375 L 215.121094 213.9375 Z M 182.113281 195.808594 L 179.636719 227.355469 L 214.515625 213.492188 L 216.992188 181.945312 Z M 178.925781 228.953125 C 178.792969 228.953125 178.660156 228.910156 178.546875 228.832031 C 178.371094 228.699219 178.277344 228.492188 178.292969 228.273438 L 180.878906 195.316406 C 180.898438 195.074219 181.054688 194.867188 181.277344 194.777344 L 217.46875 180.390625 C 217.671875 180.3125 217.902344 180.339844 218.082031 180.472656 C 218.257812 180.601562 218.355469 180.8125 218.335938 181.03125 L 215.75 213.988281 C 215.730469 214.226562 215.574219 214.4375 215.351562 214.527344 L 179.160156 228.910156 C 179.082031 228.941406 179.003906 228.953125 178.925781 228.953125 " fill-opacity="1" fill-rule="nonzero"/><path fill="#0a21c0" d="M 223.582031 102.128906 L 187.710938 116.386719 L 190.300781 83.433594 L 226.167969 69.175781 L 223.582031 102.128906 " fill-opacity="1" fill-rule="nonzero"/><path fill="#141619" d="M 223.582031 102.132812 L 223.585938 102.132812 Z M 190.902344 83.878906 L 188.425781 115.421875 L 222.980469 101.6875 L 225.457031 70.144531 Z M 187.710938 117.023438 C 187.578125 117.023438 187.445312 116.980469 187.335938 116.898438 C 187.15625 116.769531 187.0625 116.558594 187.078125 116.339844 L 189.664062 83.382812 C 189.6875 83.144531 189.839844 82.933594 190.066406 82.84375 L 225.933594 68.585938 C 226.136719 68.507812 226.367188 68.535156 226.546875 68.664062 C 226.722656 68.796875 226.816406 69.007812 226.800781 69.226562 L 224.214844 102.183594 C 224.195312 102.421875 224.042969 102.632812 223.816406 102.722656 L 187.945312 116.976562 C 187.871094 117.007812 187.792969 117.023438 187.710938 117.023438 " fill-opacity="1" fill-rule="nonzero"/><path fill="#e4e6ef" d="M 226.167969 69.179688 L 253.257812 58.410156 C 280.839844 47.496094 300.621094 71.042969 297.488281 110.929688 C 294.28125 150.992188 269.367188 192.324219 241.882812 203.300781 L 215.117188 213.9375 L 217.703125 180.984375 L 244.472656 170.34375 C 259.453125 164.363281 273.03125 141.839844 274.773438 120.089844 C 276.488281 98.246094 265.707031 85.414062 250.738281 91.339844 L 223.582031 102.132812 L 226.167969 69.179688 " fill-opacity="1" fill-rule="nonzero"/><path fill="#141619" d="M 218.304688 181.425781 L 215.828125 212.972656 L 241.652344 202.710938 C 268.90625 191.828125 293.671875 150.632812 296.859375 110.878906 C 298.628906 88.292969 292.867188 69.769531 281.433594 61.328125 C 273.71875 55.625 264.050781 54.820312 253.492188 59.003906 L 226.769531 69.621094 L 224.292969 101.164062 L 250.507812 90.75 C 256.558594 88.355469 262.121094 88.835938 266.597656 92.140625 C 273.210938 97.027344 276.421875 107.230469 275.40625 120.136719 C 273.648438 142.09375 259.875 164.878906 244.707031 170.933594 Z M 215.117188 214.574219 C 214.980469 214.574219 214.847656 214.53125 214.738281 214.449219 C 214.5625 214.316406 214.464844 214.105469 214.484375 213.886719 L 217.070312 180.933594 C 217.089844 180.691406 217.242188 180.484375 217.46875 180.390625 L 244.234375 169.753906 C 259 163.863281 272.417969 141.5625 274.140625 120.039062 C 275.105469 107.757812 272.003906 97.714844 265.84375 93.160156 C 261.738281 90.128906 256.597656 89.703125 250.976562 91.929688 L 223.816406 102.722656 C 223.613281 102.804688 223.382812 102.773438 223.203125 102.640625 C 223.03125 102.511719 222.929688 102.300781 222.949219 102.082031 L 225.535156 69.128906 C 225.554688 68.886719 225.710938 68.679688 225.933594 68.589844 L 253.023438 57.820312 C 264.011719 53.472656 274.097656 54.332031 282.1875 60.304688 C 287.921875 64.539062 292.410156 71.304688 295.175781 79.863281 C 298.050781 88.777344 299.042969 99.246094 298.121094 110.976562 C 294.902344 151.167969 269.78125 192.847656 242.121094 203.886719 L 215.351562 214.527344 C 215.273438 214.558594 215.195312 214.574219 215.117188 214.574219 " fill-opacity="1" fill-rule="nonzero"/><path fill="#0a21c0" d="M 95.410156 119.261719 C 95.410156 129.105469 87.429688 137.089844 77.585938 137.089844 C 67.742188 137.089844 59.761719 129.105469 59.761719 119.261719 C 59.761719 109.421875 67.742188 101.4375 77.585938 101.4375 C 87.429688 101.4375 95.410156 109.421875 95.410156 119.261719 " fill-opacity="1" fill-rule="nonzero"/><path fill="#e4e6ef" d="M 83.507812 116.816406 C 83.507812 120.253906 80.722656 123.039062 77.285156 123.039062 C 73.847656 123.039062 71.0625 120.253906 71.0625 116.816406 C 71.0625 113.382812 73.847656 110.597656 77.285156 110.597656 C 80.722656 110.597656 83.507812 113.382812 83.507812 116.816406 " fill-opacity="1" fill-rule="nonzero"/><path fill="#e4e6ef" d="M 64.539062 131.402344 C 66.667969 129.058594 69.25 126.703125 72.003906 125.152344 C 72.667969 124.777344 73.457031 124.691406 74.1875 124.921875 C 76.988281 125.800781 79.167969 125.402344 81.589844 124.503906 C 82.175781 124.285156 82.828125 124.3125 83.390625 124.59375 C 86.417969 126.09375 89.035156 128.175781 91.027344 130.96875 C 83.160156 139.71875 70.5625 138.460938 64.539062 131.402344 " fill-opacity="1" fill-rule="nonzero"/><path fill="#141619" d="M 77.585938 102.074219 C 68.109375 102.074219 60.398438 109.785156 60.398438 119.261719 C 60.398438 128.742188 68.109375 136.453125 77.585938 136.453125 C 87.066406 136.453125 94.777344 128.742188 94.777344 119.261719 C 94.777344 109.785156 87.066406 102.074219 77.585938 102.074219 Z M 77.585938 137.722656 C 67.410156 137.722656 59.128906 129.441406 59.128906 119.261719 C 59.128906 109.085938 67.410156 100.804688 77.585938 100.804688 C 87.765625 100.804688 96.046875 109.085938 96.046875 119.261719 C 96.046875 129.441406 87.765625 137.722656 77.585938 137.722656 " fill-opacity="1" fill-rule="nonzero"/><path fill="#0a21c0" d="M 132.511719 291.277344 C 132.511719 301.089844 124.558594 309.042969 114.75 309.042969 C 104.9375 309.042969 96.984375 301.089844 96.984375 291.277344 C 96.984375 281.464844 104.9375 273.511719 114.75 273.511719 C 124.558594 273.511719 132.511719 281.464844 132.511719 291.277344 " fill-opacity="1" fill-rule="nonzero"/><path fill="#e4e6ef" d="M 120.648438 288.84375 C 120.648438 292.265625 117.871094 295.042969 114.445312 295.042969 C 111.019531 295.042969 108.246094 292.265625 108.246094 288.84375 C 108.246094 285.417969 111.019531 282.640625 114.445312 282.640625 C 117.871094 282.640625 120.648438 285.417969 120.648438 288.84375 " fill-opacity="1" fill-rule="nonzero"/><path fill="#e4e6ef" d="M 101.742188 303.378906 C 103.863281 301.042969 106.4375 298.695312 109.183594 297.148438 C 109.847656 296.773438 110.632812 296.691406 111.359375 296.917969 C 114.152344 297.792969 116.324219 297.394531 118.734375 296.503906 C 119.320312 296.285156 119.972656 296.3125 120.53125 296.589844 C 123.546875 298.085938 126.15625 300.160156 128.144531 302.945312 C 120.304688 311.667969 107.746094 310.410156 101.742188 303.378906 " fill-opacity="1" fill-rule="nonzero"/><path fill="#141619" d="M 114.75 274.144531 C 105.300781 274.144531 97.617188 281.832031 97.617188 291.277344 C 97.617188 300.722656 105.300781 308.40625 114.75 308.40625 C 124.195312 308.40625 131.878906 300.722656 131.878906 291.277344 C 131.878906 281.832031 124.195312 274.144531 114.75 274.144531 Z M 114.75 309.675781 C 104.601562 309.675781 96.347656 301.421875 96.347656 291.277344 C 96.347656 281.132812 104.601562 272.878906 114.75 272.878906 C 124.894531 272.878906 133.148438 281.132812 133.148438 291.277344 C 133.148438 301.421875 124.894531 309.675781 114.75 309.675781 " fill-opacity="1" fill-rule="nonzero"/><path fill="#0a21c0" d="M 54.675781 274.617188 C 54.675781 282.859375 47.996094 289.535156 39.753906 289.535156 C 31.515625 289.535156 24.835938 282.859375 24.835938 274.617188 C 24.835938 266.378906 31.515625 259.699219 39.753906 259.699219 C 47.996094 259.699219 54.675781 266.378906 54.675781 274.617188 " fill-opacity="1" fill-rule="nonzero"/><path fill="#e4e6ef" d="M 44.707031 272.574219 C 44.707031 275.449219 42.375 277.78125 39.5 277.78125 C 36.625 277.78125 34.292969 275.449219 34.292969 272.574219 C 34.292969 269.695312 36.625 267.363281 39.5 267.363281 C 42.375 267.363281 44.707031 269.695312 44.707031 272.574219 " fill-opacity="1" fill-rule="nonzero"/><path fill="#e4e6ef" d="M 28.832031 284.78125 C 30.613281 282.816406 32.777344 280.847656 35.082031 279.546875 C 35.636719 279.234375 36.296875 279.164062 36.910156 279.355469 C 39.253906 280.09375 41.078125 279.757812 43.105469 279.007812 C 43.59375 278.824219 44.140625 278.847656 44.613281 279.082031 C 47.144531 280.339844 49.335938 282.078125 51.003906 284.417969 C 44.421875 291.742188 33.875 290.6875 28.832031 284.78125 " fill-opacity="1" fill-rule="nonzero"/><path fill="#141619" d="M 39.753906 260.332031 C 31.878906 260.332031 25.46875 266.742188 25.46875 274.617188 C 25.46875 282.496094 31.878906 288.902344 39.753906 288.902344 C 47.632812 288.902344 54.039062 282.496094 54.039062 274.617188 C 54.039062 266.742188 47.632812 260.332031 39.753906 260.332031 Z M 39.753906 290.171875 C 31.179688 290.171875 24.199219 283.195312 24.199219 274.617188 C 24.199219 266.042969 31.179688 259.066406 39.753906 259.066406 C 48.332031 259.066406 55.308594 266.042969 55.308594 274.617188 C 55.308594 283.195312 48.332031 290.171875 39.753906 290.171875 " fill-opacity="1" fill-rule="nonzero"/><path fill="#0a21c0" d="M 98.441406 167.449219 C 98.441406 175.695312 91.753906 182.382812 83.507812 182.382812 C 75.257812 182.382812 68.570312 175.695312 68.570312 167.449219 C 68.570312 159.199219 75.257812 152.511719 83.507812 152.511719 C 91.753906 152.511719 98.441406 159.199219 98.441406 167.449219 " fill-opacity="1" fill-rule="nonzero"/><path fill="#e4e6ef" d="M 88.464844 165.398438 C 88.464844 168.277344 86.132812 170.613281 83.25 170.613281 C 80.371094 170.613281 78.039062 168.277344 78.039062 165.398438 C 78.039062 162.519531 80.371094 160.1875 83.25 160.1875 C 86.132812 160.1875 88.464844 162.519531 88.464844 165.398438 " fill-opacity="1" fill-rule="nonzero"/><path fill="#e4e6ef" d="M 72.570312 177.621094 C 74.355469 175.65625 76.519531 173.683594 78.828125 172.382812 C 79.386719 172.066406 80.046875 172 80.65625 172.191406 C 83.003906 172.925781 84.832031 172.59375 86.859375 171.839844 C 87.351562 171.660156 87.898438 171.679688 88.367188 171.914062 C 90.90625 173.171875 93.097656 174.914062 94.769531 177.257812 C 88.175781 184.59375 77.621094 183.535156 72.570312 177.621094 " fill-opacity="1" fill-rule="nonzero"/><path fill="#141619" d="M 83.503906 153.144531 C 75.621094 153.144531 69.203125 159.5625 69.203125 167.449219 C 69.203125 175.332031 75.621094 181.75 83.503906 181.75 C 91.390625 181.75 97.808594 175.332031 97.808594 167.449219 C 97.808594 159.5625 91.390625 153.144531 83.503906 153.144531 Z M 83.503906 183.019531 C 74.921875 183.019531 67.933594 176.035156 67.933594 167.449219 C 67.933594 158.863281 74.921875 151.878906 83.503906 151.878906 C 92.089844 151.878906 99.078125 158.863281 99.078125 167.449219 C 99.078125 176.035156 92.089844 183.019531 83.503906 183.019531 " fill-opacity="1" fill-rule="nonzero"/><path fill="#0a21c0" d="M 66.015625 212.675781 C 66.015625 220.925781 59.328125 227.613281 51.078125 227.613281 C 42.828125 227.613281 36.140625 220.925781 36.140625 212.675781 C 36.140625 204.425781 42.828125 197.738281 51.078125 197.738281 C 59.328125 197.738281 66.015625 204.425781 66.015625 212.675781 " fill-opacity="1" fill-rule="nonzero"/><path fill="#e4e6ef" d="M 56.039062 210.628906 C 56.039062 213.507812 53.703125 215.839844 50.824219 215.839844 C 47.945312 215.839844 45.609375 213.507812 45.609375 210.628906 C 45.609375 207.75 47.945312 205.414062 50.824219 205.414062 C 53.703125 205.414062 56.039062 207.75 56.039062 210.628906 " fill-opacity="1" fill-rule="nonzero"/><path fill="#e4e6ef" d="M 40.144531 222.847656 C 41.925781 220.886719 44.09375 218.910156 46.398438 217.609375 C 46.957031 217.296875 47.617188 217.226562 48.226562 217.417969 C 50.574219 218.15625 52.402344 217.820312 54.429688 217.070312 C 54.925781 216.886719 55.46875 216.910156 55.941406 217.140625 C 58.476562 218.402344 60.671875 220.144531 62.339844 222.488281 C 55.75 229.820312 45.191406 228.761719 40.144531 222.847656 " fill-opacity="1" fill-rule="nonzero"/><path fill="#141619" d="M 51.078125 198.375 C 43.191406 198.375 36.777344 204.789062 36.777344 212.675781 C 36.777344 220.5625 43.191406 226.976562 51.078125 226.976562 C 58.964844 226.976562 65.378906 220.5625 65.378906 212.675781 C 65.378906 204.789062 58.964844 198.375 51.078125 198.375 Z M 51.078125 228.246094 C 42.492188 228.246094 35.507812 221.261719 35.507812 212.675781 C 35.507812 204.089844 42.492188 197.105469 51.078125 197.105469 C 59.664062 197.105469 66.648438 204.089844 66.648438 212.675781 C 66.648438 221.261719 59.664062 228.246094 51.078125 228.246094 " fill-opacity="1" fill-rule="nonzero"/><path fill="#e4e6ef" d="M 71.261719 245.253906 C 71.261719 234.335938 80.109375 225.488281 91.027344 225.488281 C 101.941406 225.488281 110.792969 234.335938 110.792969 245.253906 C 110.792969 256.167969 101.941406 265.019531 91.027344 265.019531 C 80.109375 265.019531 71.261719 256.167969 71.261719 245.253906 " fill-opacity="1" fill-rule="nonzero"/><path fill="#141619" d="M 91.027344 226.121094 C 80.480469 226.121094 71.894531 234.703125 71.894531 245.253906 C 71.894531 255.800781 80.480469 264.382812 91.027344 264.382812 C 101.578125 264.382812 110.15625 255.800781 110.15625 245.253906 C 110.15625 234.703125 101.578125 226.121094 91.027344 226.121094 Z M 91.027344 265.652344 C 79.777344 265.652344 70.628906 256.5 70.628906 245.253906 C 70.628906 234.003906 79.777344 224.855469 91.027344 224.855469 C 102.277344 224.855469 111.425781 234.003906 111.425781 245.253906 C 111.425781 256.5 102.277344 265.652344 91.027344 265.652344 " fill-opacity="1" fill-rule="nonzero"/><path fill="#0a21c0" d="M 91.136719 255.195312 C 90.941406 255.316406 90.695312 255.324219 90.496094 255.210938 C 88.753906 254.238281 80.671875 249.367188 80.988281 243 C 81.324219 236.269531 88.628906 237.4375 90.429688 240.75 C 90.5 240.875 90.632812 240.949219 90.773438 240.941406 C 90.917969 240.933594 91.042969 240.847656 91.097656 240.714844 C 91.984375 238.585938 94.839844 237.046875 97.53125 238.054688 C 100.742188 239.261719 104.003906 247.222656 91.136719 255.195312 " fill-opacity="1" fill-rule="nonzero"/><path fill="#e4e6ef" d="M 113.28125 144.464844 C 113.28125 133.84375 121.890625 125.234375 132.511719 125.234375 C 143.132812 125.234375 151.746094 133.84375 151.746094 144.464844 C 151.746094 155.089844 143.132812 163.699219 132.511719 163.699219 C 121.890625 163.699219 113.28125 155.089844 113.28125 144.464844 " fill-opacity="1" fill-rule="nonzero"/><path fill="#141619" d="M 132.511719 125.867188 C 122.257812 125.867188 113.914062 134.210938 113.914062 144.464844 C 113.914062 154.722656 122.257812 163.066406 132.511719 163.066406 C 142.769531 163.066406 151.113281 154.722656 151.113281 144.464844 C 151.113281 134.210938 142.769531 125.867188 132.511719 125.867188 Z M 132.511719 164.335938 C 121.558594 164.335938 112.644531 155.421875 112.644531 144.464844 C 112.644531 133.511719 121.558594 124.601562 132.511719 124.601562 C 143.46875 124.601562 152.378906 133.511719 152.378906 144.464844 C 152.378906 155.421875 143.46875 164.335938 132.511719 164.335938 " fill-opacity="1" fill-rule="nonzero"/><path fill="#0a21c0" d="M 132.621094 154.140625 C 132.429688 154.261719 132.191406 154.265625 131.996094 154.15625 C 130.300781 153.210938 122.4375 148.46875 122.746094 142.273438 C 123.070312 135.726562 130.175781 136.859375 131.933594 140.085938 C 132 140.207031 132.128906 140.28125 132.269531 140.273438 C 132.40625 140.265625 132.53125 140.179688 132.582031 140.050781 C 133.441406 137.980469 136.222656 136.480469 138.84375 137.464844 C 141.964844 138.636719 145.140625 146.382812 132.621094 154.140625 " fill-opacity="1" fill-rule="nonzero"/><path fill="#e4e6ef" d="M 9.832031 158.339844 C 9.832031 149.96875 16.617188 143.183594 24.988281 143.183594 C 33.359375 143.183594 40.144531 149.96875 40.144531 158.339844 C 40.144531 166.710938 33.359375 173.496094 24.988281 173.496094 C 16.617188 173.496094 9.832031 166.710938 9.832031 158.339844 " fill-opacity="1" fill-rule="nonzero"/><path fill="#141619" d="M 24.988281 143.816406 C 16.980469 143.816406 10.46875 150.335938 10.46875 158.339844 C 10.46875 166.347656 16.980469 172.859375 24.988281 172.859375 C 32.996094 172.859375 39.507812 166.347656 39.507812 158.339844 C 39.507812 150.335938 32.996094 143.816406 24.988281 143.816406 Z M 24.988281 174.128906 C 16.28125 174.128906 9.199219 167.046875 9.199219 158.339844 C 9.199219 149.632812 16.28125 142.550781 24.988281 142.550781 C 33.695312 142.550781 40.777344 149.632812 40.777344 158.339844 C 40.777344 167.046875 33.695312 174.128906 24.988281 174.128906 " fill-opacity="1" fill-rule="nonzero"/><path fill="#0a21c0" d="M 25.074219 165.964844 C 24.921875 166.054688 24.734375 166.0625 24.578125 165.976562 C 23.246094 165.230469 17.046875 161.496094 17.289062 156.613281 C 17.546875 151.453125 23.148438 152.347656 24.53125 154.886719 C 24.582031 154.984375 24.683594 155.039062 24.796875 155.035156 C 24.90625 155.027344 25 154.960938 25.042969 154.859375 C 25.722656 153.226562 27.914062 152.046875 29.976562 152.820312 C 32.4375 153.746094 34.9375 159.847656 25.074219 165.964844 " fill-opacity="1" fill-rule="nonzero"/><path fill="#e4e6ef" d="M 44.328125 326.714844 C 44.328125 318.34375 51.113281 311.558594 59.484375 311.558594 C 67.851562 311.558594 74.636719 318.34375 74.636719 326.714844 C 74.636719 335.085938 67.851562 341.871094 59.484375 341.871094 C 51.113281 341.871094 44.328125 335.085938 44.328125 326.714844 " fill-opacity="1" fill-rule="nonzero"/><path fill="#141619" d="M 59.484375 312.195312 C 51.476562 312.195312 44.960938 318.710938 44.960938 326.714844 C 44.960938 334.722656 51.476562 341.238281 59.484375 341.238281 C 67.488281 341.238281 74.003906 334.722656 74.003906 326.714844 C 74.003906 318.710938 67.488281 312.195312 59.484375 312.195312 Z M 59.484375 342.503906 C 50.777344 342.503906 43.691406 335.421875 43.691406 326.714844 C 43.691406 318.007812 50.777344 310.925781 59.484375 310.925781 C 68.1875 310.925781 75.273438 318.007812 75.273438 326.714844 C 75.273438 335.421875 68.1875 342.503906 59.484375 342.503906 " fill-opacity="1" fill-rule="nonzero"/><path fill="#0a21c0" d="M 59.566406 334.339844 C 59.417969 334.433594 59.226562 334.4375 59.074219 334.351562 C 57.738281 333.605469 51.542969 329.871094 51.785156 324.988281 C 52.042969 319.828125 57.640625 320.722656 59.023438 323.261719 C 59.078125 323.359375 59.179688 323.414062 59.289062 323.410156 C 59.398438 323.402344 59.496094 323.335938 59.539062 323.234375 C 60.214844 321.605469 62.40625 320.421875 64.472656 321.195312 C 66.929688 322.121094 69.433594 328.222656 59.566406 334.339844 " fill-opacity="1" fill-rule="nonzero"/><path fill="#e4e6ef" d="M 24.597656 91.273438 C 24.597656 81.644531 32.410156 73.832031 42.039062 73.832031 C 51.671875 73.832031 59.484375 81.644531 59.484375 91.273438 C 59.484375 100.910156 51.671875 108.71875 42.039062 108.71875 C 32.410156 108.71875 24.597656 100.910156 24.597656 91.273438 " fill-opacity="1" fill-rule="nonzero"/><path fill="#141619" d="M 42.042969 74.46875 C 32.773438 74.46875 25.234375 82.007812 25.234375 91.277344 C 25.234375 100.542969 32.773438 108.082031 42.042969 108.082031 C 51.308594 108.082031 58.847656 100.542969 58.847656 91.277344 C 58.847656 82.007812 51.308594 74.46875 42.042969 74.46875 Z M 42.042969 109.351562 C 32.074219 109.351562 23.964844 101.242188 23.964844 91.277344 C 23.964844 81.308594 32.074219 73.199219 42.042969 73.199219 C 52.007812 73.199219 60.117188 81.308594 60.117188 91.277344 C 60.117188 101.242188 52.007812 109.351562 42.042969 109.351562 " fill-opacity="1" fill-rule="nonzero"/><path fill="#0a21c0" d="M 42.136719 100.050781 C 41.964844 100.15625 41.746094 100.164062 41.570312 100.0625 C 40.035156 99.203125 32.902344 94.90625 33.183594 89.289062 C 33.476562 83.347656 39.921875 84.378906 41.511719 87.300781 C 41.574219 87.410156 41.691406 87.476562 41.820312 87.472656 C 41.945312 87.464844 42.054688 87.386719 42.105469 87.269531 C 42.882812 85.394531 45.40625 84.03125 47.78125 84.925781 C 50.613281 85.988281 53.492188 93.015625 42.136719 100.050781 " fill-opacity="1" fill-rule="nonzero"/><path fill="#141619" d="M 343.859375 122.816406 C 343.507812 122.816406 343.226562 122.53125 343.226562 122.183594 L 343.226562 118.902344 C 343.226562 118.550781 343.507812 118.265625 343.859375 118.265625 C 344.210938 118.265625 344.496094 118.550781 344.496094 118.902344 L 344.496094 122.183594 C 344.496094 122.53125 344.210938 122.816406 343.859375 122.816406 " fill-opacity="1" fill-rule="nonzero"/><path fill="#141619" d="M 343.859375 130.457031 C 343.507812 130.457031 343.226562 130.175781 343.226562 129.824219 L 343.226562 126.542969 C 343.226562 126.191406 343.507812 125.90625 343.859375 125.90625 C 344.210938 125.90625 344.496094 126.191406 344.496094 126.542969 L 344.496094 129.824219 C 344.496094 130.175781 344.210938 130.457031 343.859375 130.457031 " fill-opacity="1" fill-rule="nonzero"/><path fill="#141619" d="M 341.679688 124.996094 L 338.398438 124.996094 C 338.050781 124.996094 337.765625 124.710938 337.765625 124.359375 C 337.765625 124.011719 338.050781 123.726562 338.398438 123.726562 L 341.679688 123.726562 C 342.03125 123.726562 342.316406 124.011719 342.316406 124.359375 C 342.316406 124.710938 342.03125 124.996094 341.679688 124.996094 " fill-opacity="1" fill-rule="nonzero"/><path fill="#141619" d="M 349.324219 124.996094 L 346.042969 124.996094 C 345.691406 124.996094 345.40625 124.710938 345.40625 124.359375 C 345.40625 124.011719 345.691406 123.726562 346.042969 123.726562 L 349.324219 123.726562 C 349.675781 123.726562 349.957031 124.011719 349.957031 124.359375 C 349.957031 124.710938 349.675781 124.996094 349.324219 124.996094 " fill-opacity="1" fill-rule="nonzero"/><path fill="#141619" d="M 94.769531 45.089844 C 94.417969 45.089844 94.136719 44.804688 94.136719 44.457031 L 94.136719 41.175781 C 94.136719 40.824219 94.417969 40.539062 94.769531 40.539062 C 95.121094 40.539062 95.402344 40.824219 95.402344 41.175781 L 95.402344 44.457031 C 95.402344 44.804688 95.121094 45.089844 94.769531 45.089844 " fill-opacity="1" fill-rule="nonzero"/><path fill="#141619" d="M 94.769531 52.730469 C 94.417969 52.730469 94.136719 52.445312 94.136719 52.097656 L 94.136719 48.816406 C 94.136719 48.464844 94.417969 48.183594 94.769531 48.183594 C 95.121094 48.183594 95.402344 48.464844 95.402344 48.816406 L 95.402344 52.097656 C 95.402344 52.445312 95.121094 52.730469 94.769531 52.730469 " fill-opacity="1" fill-rule="nonzero"/><path fill="#141619" d="M 92.589844 47.269531 L 89.308594 47.269531 C 88.957031 47.269531 88.671875 46.984375 88.671875 46.636719 C 88.671875 46.285156 88.957031 46 89.308594 46 L 92.589844 46 C 92.9375 46 93.222656 46.285156 93.222656 46.636719 C 93.222656 46.984375 92.9375 47.269531 92.589844 47.269531 " fill-opacity="1" fill-rule="nonzero"/><path fill="#141619" d="M 100.230469 47.269531 L 96.949219 47.269531 C 96.597656 47.269531 96.316406 46.984375 96.316406 46.636719 C 96.316406 46.285156 96.597656 46 96.949219 46 L 100.230469 46 C 100.582031 46 100.863281 46.285156 100.863281 46.636719 C 100.863281 46.984375 100.582031 47.269531 100.230469 47.269531 " fill-opacity="1" fill-rule="nonzero"/><path fill="#141619" d="M 159.414062 298.921875 C 159.0625 298.921875 158.78125 298.636719 158.78125 298.285156 L 158.78125 295.003906 C 158.78125 294.65625 159.0625 294.371094 159.414062 294.371094 C 159.765625 294.371094 160.046875 294.65625 160.046875 295.003906 L 160.046875 298.285156 C 160.046875 298.636719 159.765625 298.921875 159.414062 298.921875 " fill-opacity="1" fill-rule="nonzero"/><path fill="#141619" d="M 159.414062 306.5625 C 159.0625 306.5625 158.78125 306.277344 158.78125 305.929688 L 158.78125 302.648438 C 158.78125 302.296875 159.0625 302.011719 159.414062 302.011719 C 159.765625 302.011719 160.046875 302.296875 160.046875 302.648438 L 160.046875 305.929688 C 160.046875 306.277344 159.765625 306.5625 159.414062 306.5625 " fill-opacity="1" fill-rule="nonzero"/><path fill="#141619" d="M 157.234375 301.101562 L 153.953125 301.101562 C 153.601562 301.101562 153.316406 300.816406 153.316406 300.46875 C 153.316406 300.117188 153.601562 299.832031 153.953125 299.832031 L 157.234375 299.832031 C 157.582031 299.832031 157.867188 300.117188 157.867188 300.46875 C 157.867188 300.816406 157.582031 301.101562 157.234375 301.101562 " fill-opacity="1" fill-rule="nonzero"/><path fill="#141619" d="M 164.875 301.101562 L 161.59375 301.101562 C 161.246094 301.101562 160.960938 300.816406 160.960938 300.46875 C 160.960938 300.117188 161.246094 299.832031 161.59375 299.832031 L 164.875 299.832031 C 165.226562 299.832031 165.511719 300.117188 165.511719 300.46875 C 165.511719 300.816406 165.226562 301.101562 164.875 301.101562 " fill-opacity="1" fill-rule="nonzero"/><path fill="#141619" d="M 163.371094 262.316406 L 163.375 262.316406 Z M 164.535156 262.699219 C 164.226562 262.699219 163.921875 262.765625 163.628906 262.894531 C 162.484375 263.410156 161.964844 264.78125 162.46875 265.957031 C 162.71875 266.527344 163.164062 266.964844 163.734375 267.1875 C 164.292969 267.402344 164.894531 267.386719 165.441406 267.140625 C 166.585938 266.628906 167.109375 265.253906 166.601562 264.082031 C 166.355469 263.507812 165.90625 263.074219 165.335938 262.851562 C 165.078125 262.75 164.804688 262.699219 164.535156 262.699219 Z M 164.539062 268.605469 C 164.109375 268.605469 163.683594 268.527344 163.277344 268.367188 C 162.386719 268.023438 161.6875 267.34375 161.304688 266.460938 C 160.527344 264.652344 161.335938 262.535156 163.109375 261.738281 C 163.964844 261.351562 164.921875 261.328125 165.796875 261.667969 C 166.683594 262.015625 167.382812 262.691406 167.765625 263.578125 C 168.546875 265.382812 167.734375 267.503906 165.960938 268.300781 C 165.507812 268.503906 165.019531 268.605469 164.539062 268.605469 " fill-opacity="1" fill-rule="nonzero"/><path fill="#141619" d="M 24.082031 235.613281 C 22.9375 236.132812 22.417969 237.503906 22.921875 238.675781 C 23.167969 239.246094 23.617188 239.683594 24.1875 239.90625 C 24.742188 240.121094 25.347656 240.105469 25.894531 239.863281 C 27.039062 239.347656 27.558594 237.976562 27.054688 236.800781 C 26.808594 236.226562 26.359375 235.792969 25.789062 235.570312 C 25.234375 235.355469 24.628906 235.371094 24.082031 235.613281 Z M 24.988281 241.328125 C 24.5625 241.328125 24.136719 241.246094 23.726562 241.089844 C 22.839844 240.742188 22.140625 240.0625 21.757812 239.179688 C 20.976562 237.375 21.789062 235.253906 23.5625 234.457031 C 24.417969 234.074219 25.375 234.050781 26.246094 234.386719 C 27.136719 234.734375 27.835938 235.414062 28.21875 236.296875 C 29 238.105469 28.1875 240.222656 26.414062 241.019531 C 25.957031 241.222656 25.472656 241.328125 24.988281 241.328125 " fill-opacity="1" fill-rule="nonzero"/><path fill="#141619" d="M 70.097656 69 L 70.101562 69 Z M 71.261719 69.382812 C 70.953125 69.382812 70.648438 69.449219 70.355469 69.578125 C 69.210938 70.089844 68.691406 71.464844 69.195312 72.636719 C 69.445312 73.210938 69.894531 73.648438 70.460938 73.867188 C 71.019531 74.085938 71.625 74.066406 72.167969 73.824219 C 73.3125 73.308594 73.835938 71.9375 73.328125 70.761719 C 73.082031 70.191406 72.632812 69.757812 72.0625 69.53125 C 71.804688 69.433594 71.53125 69.382812 71.261719 69.382812 Z M 71.265625 75.289062 C 70.835938 75.289062 70.410156 75.210938 70.003906 75.050781 C 69.113281 74.703125 68.414062 74.027344 68.03125 73.140625 C 67.253906 71.335938 68.0625 69.21875 69.835938 68.421875 C 70.695312 68.035156 71.648438 68.011719 72.523438 68.351562 C 73.410156 68.695312 74.109375 69.375 74.492188 70.261719 C 75.273438 72.066406 74.460938 74.183594 72.6875 74.980469 C 72.230469 75.1875 71.75 75.289062 71.265625 75.289062 " fill-opacity="1" fill-rule="nonzero"/><path fill="#141619" d="M 142.867188 188.890625 L 92.585938 188.890625 C 92.238281 188.890625 91.953125 188.605469 91.953125 188.253906 C 91.953125 187.90625 92.238281 187.621094 92.585938 187.621094 L 142.867188 187.621094 C 143.21875 187.621094 143.5 187.90625 143.5 188.253906 C 143.5 188.605469 143.21875 188.890625 142.867188 188.890625 " fill-opacity="1" fill-rule="nonzero"/><path fill="#141619" d="M 108.242188 208.808594 C 107.945312 208.808594 107.675781 208.59375 107.621094 208.289062 C 107.558594 207.945312 107.785156 207.613281 108.128906 207.550781 L 141.539062 201.433594 C 141.882812 201.367188 142.214844 201.597656 142.277344 201.941406 C 142.34375 202.285156 142.113281 202.617188 141.769531 202.679688 L 108.359375 208.796875 C 108.320312 208.804688 108.28125 208.808594 108.242188 208.808594 " fill-opacity="1" fill-rule="nonzero"/><path fill="#141619" d="M 124.949219 238.375 C 124.710938 238.375 124.480469 238.234375 124.371094 238.003906 C 124.226562 237.683594 124.367188 237.308594 124.6875 237.160156 L 151.480469 224.910156 C 151.800781 224.765625 152.175781 224.90625 152.320312 225.222656 C 152.46875 225.542969 152.328125 225.921875 152.007812 226.066406 L 125.214844 238.316406 C 125.128906 238.355469 125.039062 238.375 124.949219 238.375 " fill-opacity="1" fill-rule="nonzero"/><path fill="#141619" d="M 128.144531 255.925781 C 127.929688 255.925781 127.71875 255.8125 127.597656 255.613281 C 127.417969 255.3125 127.519531 254.921875 127.820312 254.746094 L 159.671875 235.855469 C 159.976562 235.675781 160.363281 235.777344 160.542969 236.078125 C 160.722656 236.378906 160.621094 236.765625 160.320312 236.945312 L 128.46875 255.835938 C 128.367188 255.894531 128.253906 255.925781 128.144531 255.925781 " fill-opacity="1" fill-rule="nonzero"/><path fill="#141619" d="M 90.699219 82.964844 C 90.371094 82.964844 90.089844 82.710938 90.066406 82.375 C 90.042969 82.027344 90.308594 81.722656 90.660156 81.699219 L 150.082031 77.707031 C 150.429688 77.691406 150.734375 77.949219 150.753906 78.296875 C 150.78125 78.648438 150.515625 78.949219 150.164062 78.972656 L 90.742188 82.964844 C 90.730469 82.964844 90.714844 82.964844 90.699219 82.964844 " fill-opacity="1" fill-rule="nonzero"/><path fill="#141619" d="M 100.421875 100.769531 C 100.121094 100.769531 99.851562 100.554688 99.796875 100.246094 C 99.734375 99.902344 99.964844 99.570312 100.308594 99.511719 L 150.011719 90.652344 C 150.355469 90.589844 150.6875 90.820312 150.746094 91.167969 C 150.808594 91.511719 150.578125 91.839844 150.234375 91.902344 L 100.53125 100.757812 C 100.496094 100.765625 100.457031 100.769531 100.421875 100.769531 " fill-opacity="1" fill-rule="nonzero"/><path fill="#e4e6ef" d="M 202.523438 304.921875 C 202.296875 304.921875 202.078125 304.804688 201.960938 304.589844 C 201.796875 304.28125 201.910156 303.898438 202.21875 303.730469 L 268.480469 267.898438 C 268.785156 267.730469 269.171875 267.84375 269.335938 268.152344 C 269.503906 268.460938 269.390625 268.847656 269.082031 269.011719 L 202.824219 304.847656 C 202.726562 304.898438 202.625 304.921875 202.523438 304.921875 " fill-opacity="1" fill-rule="nonzero"/><path fill="#e4e6ef" d="M 191.222656 289.476562 C 190.992188 289.476562 190.769531 289.347656 190.65625 289.128906 C 190.5 288.816406 190.621094 288.433594 190.933594 288.273438 L 237.773438 264.453125 C 238.085938 264.292969 238.46875 264.417969 238.625 264.730469 C 238.785156 265.042969 238.660156 265.425781 238.347656 265.582031 L 191.511719 289.40625 C 191.417969 289.453125 191.320312 289.476562 191.222656 289.476562 " fill-opacity="1" fill-rule="nonzero"/><path fill="#0a21c0" d="M 334.796875 206.289062 C 351.328125 209.835938 359.335938 240.382812 359.6875 260.15625 C 360.28125 293.800781 339.222656 326.050781 310.160156 341.550781 C 271.542969 362.144531 213.972656 355.742188 195.011719 322.277344 C 183.699219 302.3125 185.25 271.152344 200.988281 258.640625 C 216.765625 246.089844 232.96875 263.28125 263.128906 255.582031 C 304.808594 244.945312 314.117188 201.851562 334.796875 206.289062 " fill-opacity="1" fill-rule="nonzero"/><path fill="#e4e6ef" d="M 239.226562 353.28125 C 239.226562 353.28125 224.761719 359.222656 214.457031 359.132812 C 212.71875 359.117188 211.59375 357.296875 212.324219 355.71875 C 212.746094 354.808594 213.386719 353.660156 214.34375 352.222656 C 217.921875 346.851562 233.246094 338.136719 233.246094 338.136719 L 235.714844 339.207031 C 236.578125 339.582031 236.933594 340.625 236.472656 341.449219 L 235.847656 342.5625 L 239.953125 342.558594 C 240.886719 342.558594 241.636719 343.339844 241.589844 344.273438 C 241.488281 346.171875 241.023438 349.46875 239.226562 353.28125 " fill-opacity="1" fill-rule="nonzero"/><path fill="#141619" d="M 239.226562 353.28125 L 239.230469 353.28125 Z M 233.285156 338.84375 C 231.214844 340.042969 218.066406 347.777344 214.871094 352.574219 C 214.023438 353.851562 213.359375 354.996094 212.902344 355.988281 C 212.644531 356.539062 212.6875 357.175781 213.007812 357.6875 C 213.332031 358.199219 213.859375 358.492188 214.460938 358.5 C 214.535156 358.503906 214.613281 358.503906 214.6875 358.503906 C 224.03125 358.503906 236.890625 353.527344 238.757812 352.785156 C 240.382812 349.25 240.851562 346.195312 240.953125 344.238281 C 240.96875 343.964844 240.875 343.707031 240.683594 343.507812 C 240.492188 343.304688 240.234375 343.191406 239.957031 343.191406 C 239.953125 343.191406 239.953125 343.191406 239.953125 343.191406 L 235.847656 343.199219 C 235.625 343.199219 235.414062 343.078125 235.300781 342.886719 C 235.1875 342.691406 235.1875 342.453125 235.296875 342.253906 L 235.917969 341.136719 C 236.050781 340.898438 236.078125 340.625 235.988281 340.363281 C 235.902344 340.101562 235.714844 339.894531 235.460938 339.789062 Z M 214.691406 359.769531 C 214.609375 359.769531 214.53125 359.769531 214.453125 359.769531 C 213.425781 359.757812 212.488281 359.234375 211.9375 358.367188 C 211.378906 357.484375 211.3125 356.398438 211.75 355.453125 C 212.234375 354.40625 212.929688 353.199219 213.816406 351.871094 C 217.4375 346.433594 232.300781 337.941406 232.929688 337.582031 C 233.105469 337.484375 233.3125 337.472656 233.496094 337.550781 L 235.964844 338.625 C 236.542969 338.875 236.988281 339.359375 237.191406 339.957031 C 237.390625 340.550781 237.332031 341.210938 237.027344 341.757812 L 236.929688 341.929688 L 239.953125 341.925781 C 240.578125 341.925781 241.175781 342.183594 241.605469 342.632812 C 242.035156 343.085938 242.253906 343.683594 242.21875 344.308594 C 242.109375 346.417969 241.601562 349.734375 239.800781 353.550781 C 239.730469 353.695312 239.613281 353.808594 239.46875 353.867188 C 238.875 354.109375 224.984375 359.769531 214.691406 359.769531 " fill-opacity="1" fill-rule="nonzero"/><path fill="#141619" d="M 213.933594 357.070312 C 213.605469 357.070312 213.324219 356.816406 213.304688 356.480469 C 213.28125 356.128906 213.542969 355.828125 213.894531 355.804688 C 224.96875 355.066406 238.058594 350.132812 238.191406 350.082031 C 238.519531 349.960938 238.886719 350.125 239.011719 350.453125 C 239.136719 350.777344 238.96875 351.144531 238.640625 351.269531 C 238.507812 351.320312 225.246094 356.320312 213.976562 357.070312 C 213.964844 357.070312 213.949219 357.070312 213.933594 357.070312 " fill-opacity="1" fill-rule="nonzero"/><path fill="#141619" d="M 223.699219 351.085938 C 223.480469 351.085938 223.269531 350.972656 223.152344 350.773438 L 220.9375 347.011719 C 220.761719 346.707031 220.859375 346.316406 221.160156 346.140625 C 221.464844 345.964844 221.855469 346.066406 222.03125 346.367188 L 224.246094 350.128906 C 224.421875 350.433594 224.324219 350.820312 224.019531 351 C 223.917969 351.058594 223.808594 351.085938 223.699219 351.085938 " fill-opacity="1" fill-rule="nonzero"/><path fill="#141619" d="M 228.671875 349.558594 C 228.457031 349.558594 228.242188 349.445312 228.125 349.246094 L 225.34375 344.515625 C 225.167969 344.214844 225.265625 343.824219 225.570312 343.648438 C 225.871094 343.472656 226.257812 343.570312 226.4375 343.871094 L 229.21875 348.601562 C 229.398438 348.902344 229.296875 349.292969 228.996094 349.472656 C 228.894531 349.53125 228.78125 349.558594 228.671875 349.558594 " fill-opacity="1" fill-rule="nonzero"/><path fill="#141619" d="M 284.53125 260.445312 C 284.089844 259.980469 252.476562 246.324219 239.554688 243.417969 C 226.632812 240.511719 221.820312 240.484375 217.421875 247.871094 C 213.027344 255.253906 238.601562 295.550781 238.601562 295.550781 L 293.015625 281.367188 L 284.53125 260.445312 " fill-opacity="1" fill-rule="nonzero"/><path fill="#e4e6ef" d="M 253.910156 276.394531 C 253.667969 276.394531 253.4375 276.253906 253.332031 276.019531 C 247.328125 262.617188 237.414062 253.035156 237.3125 252.941406 C 237.0625 252.695312 237.050781 252.296875 237.292969 252.042969 C 237.535156 251.789062 237.9375 251.78125 238.191406 252.023438 C 238.289062 252.121094 248.378906 261.867188 254.488281 275.5 C 254.632812 275.820312 254.488281 276.195312 254.171875 276.339844 C 254.085938 276.378906 253.996094 276.394531 253.910156 276.394531 " fill-opacity="1" fill-rule="nonzero"/><path fill="#141619" d="M 310.394531 278.496094 C 310.394531 278.496094 310.394531 286.203125 303.101562 293.417969 C 293.957031 302.457031 264.5 296.234375 264.5 296.234375 C 264.5 296.234375 261.46875 301.199219 259.488281 314.460938 C 257.511719 327.722656 255.304688 345.578125 252.027344 349.933594 L 223.488281 343.769531 C 223.488281 343.769531 232.953125 286.960938 239.523438 279.234375 C 246.097656 271.507812 293.933594 270.296875 293.933594 270.296875 L 310.394531 278.496094 " fill-opacity="1" fill-rule="nonzero"/><path fill="#e4e6ef" d="M 236.226562 286.835938 C 236.15625 286.835938 236.085938 286.828125 236.019531 286.804688 C 235.6875 286.6875 235.511719 286.324219 235.625 285.996094 C 236.875 282.402344 237.992188 280.058594 239.042969 278.824219 C 243.550781 273.523438 273.253906 270.886719 285.816406 270 C 286.152344 269.964844 286.46875 270.238281 286.492188 270.585938 C 286.519531 270.933594 286.257812 271.242188 285.90625 271.265625 C 265.964844 272.671875 243.441406 275.617188 240.007812 279.644531 C 239.074219 280.742188 238.007812 283.019531 236.824219 286.414062 C 236.734375 286.671875 236.488281 286.835938 236.226562 286.835938 " fill-opacity="1" fill-rule="nonzero"/><path fill="#0a21c0" d="M 274.214844 251.785156 C 274.070312 251.332031 259.4375 229.050781 259.4375 229.050781 L 255.910156 231.628906 L 269.285156 252.480469 L 274.214844 251.785156 " fill-opacity="1" fill-rule="nonzero"/><path fill="#e4e6ef" d="M 324.601562 275.671875 C 324.601562 275.671875 329.71875 268.511719 327.625 252.480469 C 325.527344 236.449219 320.398438 228.128906 315.027344 226.226562 C 309.660156 224.328125 287.582031 227.796875 285.859375 254.730469 L 324.601562 275.671875 " fill-opacity="1" fill-rule="nonzero"/><path fill="#141619" d="M 286.519531 254.371094 L 324.371094 274.824219 C 325.402344 273 328.730469 265.863281 326.992188 252.5625 C 325.152344 238.496094 320.601562 228.875 314.816406 226.824219 C 312.117188 225.867188 305.179688 226.390625 298.875 230.550781 C 293.765625 233.921875 287.503906 240.785156 286.519531 254.371094 Z M 324.597656 276.304688 C 324.496094 276.304688 324.390625 276.28125 324.296875 276.226562 L 285.558594 255.289062 C 285.339844 255.171875 285.207031 254.941406 285.226562 254.691406 C 286.144531 240.320312 292.773438 233.054688 298.175781 229.492188 C 304.839844 225.09375 312.296875 224.589844 315.242188 225.628906 C 321.578125 227.875 326.320312 237.628906 328.25 252.398438 C 330.359375 268.492188 325.328125 275.738281 325.113281 276.039062 C 324.992188 276.210938 324.796875 276.304688 324.597656 276.304688 " fill-opacity="1" fill-rule="nonzero"/><path fill="#141619" d="M 309.171875 264.722656 C 309.15625 264.722656 309.144531 264.722656 309.128906 264.722656 C 308.777344 264.699219 308.515625 264.394531 308.542969 264.046875 L 309.601562 249.011719 C 309.625 248.660156 309.933594 248.390625 310.277344 248.421875 C 310.628906 248.449219 310.890625 248.75 310.867188 249.101562 L 309.804688 264.132812 C 309.78125 264.46875 309.503906 264.722656 309.171875 264.722656 " fill-opacity="1" fill-rule="nonzero"/><path fill="#e4e6ef" d="M 326.464844 271.546875 C 326.464844 271.546875 324.605469 285.007812 305.789062 280.503906 C 286.972656 275.996094 277.160156 258.507812 277.160156 258.507812 C 277.160156 258.507812 266.207031 256.164062 266.578125 249.054688 C 266.578125 249.054688 270.246094 250.039062 273.363281 249.054688 C 276.480469 248.074219 279.859375 249.078125 281.15625 250.296875 C 290.054688 258.640625 318.472656 261.140625 326.464844 271.546875 " fill-opacity="1" fill-rule="nonzero"/><path fill="#141619" d="M 267.21875 249.847656 C 267.675781 255.757812 277.195312 257.863281 277.292969 257.886719 C 277.472656 257.921875 277.625 258.039062 277.714844 258.195312 C 277.808594 258.367188 287.617188 275.5 305.933594 279.886719 C 312.449219 281.449219 317.578125 281 321.171875 278.554688 C 324.613281 276.214844 325.578125 272.683594 325.785156 271.714844 C 321.457031 266.339844 311.316406 263.101562 301.507812 259.96875 C 292.957031 257.238281 284.878906 254.660156 280.71875 250.757812 C 279.597656 249.703125 276.484375 248.734375 273.554688 249.660156 C 271.164062 250.414062 268.519531 250.089844 267.21875 249.847656 Z M 312.898438 282.066406 C 310.691406 282.066406 308.265625 281.75 305.640625 281.121094 C 287.996094 276.894531 278.050781 261.222656 276.753906 259.0625 C 274.96875 258.628906 265.578125 256.015625 265.945312 249.023438 C 265.953125 248.832031 266.050781 248.65625 266.203125 248.542969 C 266.355469 248.429688 266.554688 248.394531 266.742188 248.441406 C 266.773438 248.453125 270.273438 249.363281 273.171875 248.449219 C 276.378906 247.441406 280.039062 248.378906 281.589844 249.832031 C 285.539062 253.539062 293.480469 256.074219 301.890625 258.761719 C 312.019531 261.996094 322.496094 265.339844 326.96875 271.160156 C 327.070312 271.292969 327.113281 271.464844 327.089844 271.632812 C 327.066406 271.832031 326.367188 276.542969 321.90625 279.589844 C 319.492188 281.238281 316.476562 282.066406 312.898438 282.066406 " fill-opacity="1" fill-rule="nonzero"/><path fill="#141619" d="M 273.292969 252.730469 C 268.101562 252.730469 266.269531 250.910156 266.1875 250.828125 C 265.945312 250.578125 265.949219 250.179688 266.199219 249.933594 C 266.449219 249.691406 266.847656 249.691406 267.09375 249.9375 C 267.136719 249.980469 268.949219 251.65625 274.1875 251.441406 C 274.539062 251.421875 274.832031 251.699219 274.847656 252.050781 C 274.859375 252.398438 274.589844 252.695312 274.242188 252.710938 C 273.910156 252.722656 273.597656 252.730469 273.292969 252.730469 " fill-opacity="1" fill-rule="nonzero"/><path fill="#141619" d="M 273.855469 255.332031 C 268.941406 255.332031 267.269531 253.480469 267.199219 253.402344 C 266.96875 253.136719 266.996094 252.738281 267.257812 252.507812 C 267.519531 252.277344 267.917969 252.304688 268.148438 252.558594 C 268.1875 252.597656 269.625 254.066406 273.855469 254.066406 C 273.96875 254.066406 274.085938 254.0625 274.203125 254.058594 C 274.207031 254.058594 274.210938 254.058594 274.214844 254.058594 C 274.558594 254.058594 274.84375 254.335938 274.847656 254.683594 C 274.855469 255.035156 274.578125 255.324219 274.226562 255.328125 C 274.101562 255.332031 273.980469 255.332031 273.855469 255.332031 " fill-opacity="1" fill-rule="nonzero"/><path fill="#e4e6ef" d="M 306.171875 215.5625 C 306.300781 215.789062 311.632812 224.90625 311.632812 224.90625 L 315.308594 227.375 C 313.953125 228.40625 311.554688 229.957031 308.203125 230.847656 C 304.785156 231.753906 301.882812 231.566406 300.183594 231.332031 C 300.328125 230.867188 300.582031 230.265625 301.007812 229.632812 C 301.6875 228.636719 302.496094 228.042969 303.015625 227.722656 C 301.917969 225.839844 300.820312 223.953125 299.722656 222.070312 L 306.171875 215.5625 " fill-opacity="1" fill-rule="nonzero"/><path fill="#141619" d="M 301.070312 230.800781 C 303.417969 231.03125 305.757812 230.839844 308.039062 230.234375 C 310.257812 229.648438 312.324219 228.691406 314.203125 227.398438 L 311.277344 225.433594 C 311.199219 225.378906 311.132812 225.308594 311.082031 225.226562 C 310.632812 224.449219 307.246094 218.667969 306.039062 216.59375 L 300.515625 222.171875 L 303.5625 227.40625 C 303.734375 227.703125 303.640625 228.085938 303.347656 228.265625 C 302.617188 228.714844 302.007812 229.292969 301.535156 229.988281 C 301.355469 230.246094 301.203125 230.515625 301.070312 230.800781 Z M 302.996094 232.164062 C 302.035156 232.164062 301.066406 232.09375 300.097656 231.960938 C 299.910156 231.9375 299.746094 231.828125 299.644531 231.671875 C 299.546875 231.511719 299.523438 231.320312 299.578125 231.140625 C 299.789062 230.476562 300.09375 229.847656 300.484375 229.273438 C 300.945312 228.597656 301.507812 228.015625 302.167969 227.527344 L 299.171875 222.390625 C 299.03125 222.140625 299.070312 221.828125 299.269531 221.625 L 305.722656 215.113281 C 305.863281 214.972656 306.0625 214.902344 306.261719 214.929688 C 306.460938 214.960938 306.632812 215.078125 306.726562 215.253906 C 306.847656 215.46875 310.253906 221.296875 312.105469 224.460938 L 315.664062 226.851562 C 315.835938 226.964844 315.9375 227.152344 315.945312 227.359375 C 315.949219 227.5625 315.859375 227.757812 315.695312 227.882812 C 313.496094 229.550781 311.03125 230.753906 308.367188 231.460938 C 306.601562 231.929688 304.804688 232.164062 302.996094 232.164062 " fill-opacity="1" fill-rule="nonzero"/><path fill="#141619" d="M 296.792969 201.449219 C 299.945312 201.039062 301.289062 204.363281 305.03125 203.78125 C 306.746094 203.515625 307.417969 202.671875 309.085938 202.980469 C 310.191406 203.1875 311.914062 203.933594 312.46875 205.390625 C 313.167969 207.246094 311.1875 208.222656 310.046875 212.46875 C 309.242188 215.449219 309.617188 217.199219 308.476562 217.707031 C 307.320312 218.222656 306.332031 216.703125 305.027344 217.167969 C 303.34375 217.773438 303.898438 220.710938 302.308594 222.0625 C 301.21875 222.988281 298.425781 223.542969 293.65625 221.332031 C 293.855469 220.472656 294.148438 218.699219 294.621094 217.089844 C 296.109375 212.042969 297.789062 210.808594 297.058594 209.578125 C 295.945312 207.699219 292.316406 209.082031 291.585938 207.527344 C 290.828125 205.910156 293.550781 201.867188 296.792969 201.449219 " fill-opacity="1" fill-rule="nonzero"/><path fill="#e4e6ef" d="M 304.117188 208.949219 L 302.910156 209.953125 C 302.910156 209.953125 302.050781 214.933594 301.402344 216.613281 C 300.753906 218.296875 295.398438 216.683594 295.398438 216.683594 L 295.011719 215.703125 L 293.53125 215.226562 C 293.53125 215.226562 296.304688 210.878906 296.953125 207.230469 C 296.953125 207.230469 300.75 205.960938 304.117188 208.949219 " fill-opacity="1" fill-rule="nonzero"/><path fill="#141619" d="M 303.484375 208.941406 C 303.355469 208.941406 303.257812 208.972656 303.203125 208.984375 C 303.132812 208.988281 303.160156 208.980469 302.996094 208.878906 C 302.75 208.71875 302.507812 208.542969 302.242188 208.417969 C 301.730469 208.132812 301.171875 207.9375 300.605469 207.796875 C 300.035156 207.65625 299.445312 207.589844 298.855469 207.601562 C 298.5625 207.605469 298.265625 207.625 297.976562 207.664062 C 297.695312 207.703125 297.378906 207.765625 297.152344 207.832031 L 297.578125 207.34375 C 297.257812 208.855469 296.703125 210.25 296.074219 211.589844 C 295.753906 212.257812 295.410156 212.917969 295.050781 213.5625 C 294.6875 214.207031 294.316406 214.835938 293.90625 215.460938 L 293.667969 214.804688 L 295.207031 215.101562 C 295.378906 215.132812 295.511719 215.25 295.574219 215.402344 L 295.597656 215.472656 L 295.601562 215.472656 L 295.988281 216.453125 L 295.578125 216.078125 C 296.585938 216.363281 297.65625 216.597656 298.683594 216.703125 C 299.675781 216.800781 300.894531 216.769531 300.882812 216.175781 C 301.203125 215.199219 301.4375 214.117188 301.667969 213.058594 C 301.890625 211.992188 302.097656 210.914062 302.285156 209.84375 C 302.3125 209.695312 302.390625 209.566406 302.492188 209.476562 L 302.503906 209.464844 C 302.777344 209.226562 303.074219 209.113281 303.484375 208.941406 Z M 304.75 208.960938 C 304.355469 209.457031 303.847656 210.011719 303.316406 210.441406 L 303.535156 210.058594 C 303.339844 211.152344 303.136719 212.234375 302.90625 213.320312 C 302.675781 214.40625 302.445312 215.476562 302.082031 216.589844 L 302.007812 216.800781 C 302 216.828125 301.976562 216.886719 301.945312 216.941406 L 301.863281 217.101562 C 301.734375 217.296875 301.566406 217.46875 301.390625 217.578125 C 301.035156 217.804688 300.691406 217.894531 300.371094 217.949219 C 299.730469 218.050781 299.136719 218.019531 298.5625 217.96875 C 297.40625 217.847656 296.320312 217.605469 295.210938 217.292969 C 295.023438 217.238281 294.878906 217.101562 294.808594 216.929688 L 294.804688 216.917969 L 294.421875 215.9375 L 294.417969 215.9375 L 294.816406 216.308594 L 293.398438 215.644531 L 293.394531 215.644531 L 293.359375 215.628906 C 293.128906 215.523438 293.035156 215.253906 293.140625 215.027344 L 293.160156 214.988281 C 293.519531 214.382812 293.863281 213.742188 294.183594 213.101562 C 294.507812 212.457031 294.808594 211.808594 295.089844 211.152344 C 295.640625 209.835938 296.105469 208.480469 296.328125 207.121094 L 296.332031 207.097656 C 296.375 206.867188 296.539062 206.695312 296.75 206.632812 C 297.136719 206.515625 297.453125 206.457031 297.804688 206.40625 C 298.148438 206.359375 298.496094 206.335938 298.839844 206.332031 C 299.527344 206.320312 300.226562 206.394531 300.898438 206.5625 C 301.570312 206.726562 302.230469 206.960938 302.835938 207.300781 C 303.152344 207.449219 303.433594 207.652344 303.722656 207.839844 C 303.835938 207.902344 304.097656 208.113281 304.28125 208.316406 C 304.476562 208.523438 304.628906 208.761719 304.75 208.960938 " fill-opacity="1" fill-rule="nonzero"/><path fill="#e4e6ef" d="M 303.472656 213.425781 C 303.472656 213.425781 304.886719 210.269531 306.183594 211.21875 C 307.484375 212.164062 305.839844 215.597656 303.472656 213.425781 " fill-opacity="1" fill-rule="nonzero"/><path fill="#141619" d="M 304.554688 213.167969 C 304.757812 213.269531 304.976562 213.324219 305.171875 213.253906 C 305.46875 213.144531 305.726562 212.78125 305.785156 212.378906 C 305.816406 212.160156 305.777344 211.96875 305.683594 211.898438 C 305.441406 211.910156 304.953125 212.484375 304.554688 213.167969 Z M 304.980469 214.976562 C 304.421875 214.976562 303.695312 214.773438 302.902344 214.046875 C 302.632812 213.800781 302.550781 213.410156 302.699219 213.078125 C 302.882812 212.671875 303.867188 210.617188 305.230469 210.253906 C 305.742188 210.117188 306.242188 210.214844 306.683594 210.535156 C 307.292969 210.976562 307.582031 211.757812 307.457031 212.621094 C 307.308594 213.652344 306.636719 214.527344 305.742188 214.847656 C 305.554688 214.914062 305.292969 214.976562 304.980469 214.976562 " fill-opacity="1" fill-rule="nonzero"/><path fill="#e4e6ef" d="M 326.464844 307.503906 C 326.214844 307.503906 325.976562 307.355469 325.878906 307.109375 C 322.195312 298.21875 309.746094 296.464844 309.621094 296.449219 C 309.273438 296.40625 309.027344 296.085938 309.074219 295.738281 C 309.121094 295.390625 309.441406 295.148438 309.785156 295.191406 C 310.328125 295.265625 323.082031 297.050781 327.050781 306.625 C 327.183594 306.949219 327.03125 307.320312 326.707031 307.453125 C 326.625 307.488281 326.542969 307.503906 326.464844 307.503906 " fill-opacity="1" fill-rule="nonzero"/><path fill="#e4e6ef" d="M 308.753906 313.292969 C 308.730469 313.292969 308.710938 313.292969 308.6875 313.289062 C 308.335938 313.253906 308.085938 312.941406 308.125 312.59375 C 309.039062 303.960938 303.976562 298.261719 303.929688 298.203125 C 303.691406 297.945312 303.714844 297.542969 303.972656 297.308594 C 304.230469 297.074219 304.632812 297.089844 304.867188 297.347656 C 305.09375 297.597656 310.363281 303.511719 309.386719 312.726562 C 309.351562 313.050781 309.074219 313.292969 308.753906 313.292969 " fill-opacity="1" fill-rule="nonzero"/></svg>