<svg xmlns="http://www.w3.org/2000/svg" xmlns:xlink="http://www.w3.org/1999/xlink" width="500" zoomAndPan="magnify" viewBox="0 0 375 374.999991" height="500" preserveAspectRatio="xMidYMid meet" version="1.0"><path fill="#f4f5f8" d="M 348.199219 299.546875 C 321.085938 345.121094 269.8125 356.0625 250.476562 360.1875 C 184.671875 374.226562 87.472656 356.554688 40.890625 278.457031 C 0.0078125 209.910156 23.277344 137.007812 26.644531 127.011719 C 32.296875 110.25 46.4375 70.050781 86.132812 42.957031 C 147.929688 0.777344 241.785156 10.730469 273.71875 54.703125 C 288.714844 75.355469 276.460938 84.796875 293.871094 121.273438 C 317.191406 170.125 346.414062 169.089844 359.847656 208.175781 C 375.015625 252.304688 350.707031 295.335938 348.199219 299.546875 " fill-opacity="1" fill-rule="nonzero"/><path fill="#b3b4bd" d="M 36.082031 268.078125 C 36.082031 268.078125 9.789062 226.328125 18.941406 184.152344 C 19.25 182.730469 24.097656 184.5 24.472656 183.085938 C 24.769531 181.96875 20.851562 176.453125 21.191406 175.339844 C 23.28125 168.507812 26.210938 161.796875 30.1875 155.410156 C 30.378906 155.109375 30.796875 155.046875 31.066406 155.289062 C 35.675781 159.425781 51.914062 198.726562 50.972656 274.261719 L 36.082031 268.078125 " fill-opacity="1" fill-rule="nonzero"/><path fill="#0a21c0" d="M 33.070312 234.691406 C 32.757812 234.691406 32.484375 234.457031 32.445312 234.136719 L 32.328125 233.203125 C 27.96875 198.171875 27.96875 198.171875 29.753906 169.890625 L 30.082031 164.675781 C 30.105469 164.328125 30.402344 164.0625 30.75 164.085938 C 31.097656 164.105469 31.363281 164.40625 31.339844 164.753906 L 31.011719 169.96875 C 29.234375 198.128906 29.234375 198.128906 33.582031 233.046875 L 33.695312 233.980469 C 33.742188 234.328125 33.496094 234.640625 33.148438 234.6875 C 33.125 234.6875 33.097656 234.691406 33.070312 234.691406 " fill-opacity="1" fill-rule="nonzero"/><path fill="#b3b4bd" d="M 36.082031 270.878906 C 36.082031 270.878906 24.097656 242.007812 53.625 187.953125 C 54.574219 186.21875 61.769531 192.671875 63.453125 190.527344 C 65.136719 188.378906 60.179688 179.019531 62.042969 176.449219 C 66.285156 170.605469 71.246094 162.449219 71.820312 154.152344 C 71.863281 153.523438 72.65625 153.289062 73.027344 153.800781 C 74.363281 155.628906 76.707031 159.148438 79.261719 164.390625 C 79.722656 165.339844 77.234375 170.878906 77.707031 171.945312 C 78.273438 173.214844 81.796875 170.035156 82.359375 171.46875 C 84.46875 176.84375 86.503906 183.363281 88.050781 191.050781 C 88.449219 193.039062 80.855469 198.828125 81.179688 200.972656 C 81.488281 203.011719 89.777344 203.066406 90.007812 205.25 C 92.714844 230.921875 82.496094 265.382812 62.980469 311.226562 L 36.082031 270.878906 " fill-opacity="1" fill-rule="nonzero"/><path fill="#0a21c0" d="M 53.175781 268.425781 C 53.125 268.425781 53.074219 268.421875 53.023438 268.410156 C 52.6875 268.324219 52.480469 267.984375 52.5625 267.644531 C 52.695312 267.109375 65.8125 213.734375 70.304688 196.214844 C 73.542969 183.59375 73.082031 160.441406 73.074219 160.207031 C 73.070312 159.859375 73.34375 159.570312 73.691406 159.566406 C 74.046875 159.554688 74.328125 159.832031 74.335938 160.179688 C 74.339844 160.414062 74.804688 183.742188 71.527344 196.527344 C 67.039062 214.042969 53.917969 267.410156 53.789062 267.949219 C 53.714844 268.234375 53.460938 268.425781 53.175781 268.425781 " fill-opacity="1" fill-rule="nonzero"/><path fill="#0a21c0" d="M 58.113281 222.199219 C 57.832031 222.199219 57.574219 222.007812 57.5 221.726562 C 55.074219 212.34375 50.019531 206.039062 49.96875 205.976562 C 49.75 205.707031 49.789062 205.308594 50.0625 205.089844 C 50.332031 204.871094 50.730469 204.910156 50.949219 205.183594 C 51.164062 205.445312 56.226562 211.761719 58.722656 221.410156 C 58.808594 221.746094 58.609375 222.089844 58.269531 222.175781 C 58.21875 222.191406 58.164062 222.199219 58.113281 222.199219 " fill-opacity="1" fill-rule="nonzero"/><path fill="#0a21c0" d="M 334.457031 351.789062 L 87.316406 351.003906 C 82.636719 351.003906 78.929688 347.054688 79.230469 342.382812 L 99.476562 24.75 C 99.75 20.484375 103.289062 17.164062 107.5625 17.164062 L 355.332031 16.398438 C 360.015625 16.398438 364.382812 21.113281 364.085938 25.78125 L 343.839844 343.414062 C 343.566406 347.679688 338.734375 351.789062 334.457031 351.789062 " fill-opacity="1" fill-rule="nonzero"/><path fill="#e4e6ef" d="M 327.433594 351.003906 L 78.996094 351.003906 C 74.316406 351.003906 70.609375 347.054688 70.910156 342.382812 L 91.15625 24.75 C 91.429688 20.484375 94.96875 17.164062 99.242188 17.164062 L 347.683594 17.164062 C 352.359375 17.164062 356.066406 21.113281 355.769531 25.78125 L 335.519531 343.414062 C 335.25 347.679688 331.707031 351.003906 327.433594 351.003906 " fill-opacity="1" fill-rule="nonzero"/><path fill="#141619" d="M 327.433594 351.632812 L 85.496094 351.632812 C 85.148438 351.632812 84.867188 351.351562 84.867188 351.003906 C 84.867188 350.65625 85.148438 350.371094 85.496094 350.371094 L 327.433594 350.371094 C 331.367188 350.371094 334.640625 347.296875 334.890625 343.375 L 355.136719 25.742188 C 355.273438 23.660156 354.558594 21.675781 353.128906 20.152344 C 351.703125 18.632812 349.769531 17.792969 347.679688 17.792969 L 99.242188 17.792969 C 95.3125 17.792969 92.035156 20.867188 91.785156 24.789062 L 86.347656 110.105469 C 86.324219 110.449219 86.023438 110.71875 85.679688 110.691406 C 85.332031 110.671875 85.066406 110.371094 85.089844 110.023438 L 90.527344 24.710938 C 90.820312 20.125 94.648438 16.53125 99.242188 16.53125 L 347.679688 16.53125 C 350.117188 16.53125 352.382812 17.511719 354.050781 19.292969 C 355.71875 21.070312 356.550781 23.390625 356.394531 25.820312 L 336.148438 343.457031 C 335.855469 348.039062 332.027344 351.632812 327.433594 351.632812 " fill-opacity="1" fill-rule="nonzero"/><path fill="#f4f5f8" d="M 318.546875 340.726562 L 87.976562 340.726562 C 83.683594 340.726562 80.28125 337.101562 80.554688 332.820312 L 99.691406 33.324219 C 99.941406 29.410156 103.1875 26.359375 107.109375 26.359375 L 337.683594 26.359375 C 341.976562 26.359375 345.378906 29.988281 345.105469 34.269531 L 325.96875 333.765625 C 325.722656 337.679688 322.472656 340.726562 318.546875 340.726562 " fill-opacity="1" fill-rule="nonzero"/><path fill="#b3b4bd" d="M 119.792969 63.796875 L 319.84375 63.40625 C 323.605469 63.398438 326.589844 66.570312 326.347656 70.324219 L 310.238281 322.769531 C 310.023438 326.183594 307.199219 328.839844 303.78125 328.859375 L 103.847656 329.828125 C 100.082031 329.847656 97.089844 326.671875 97.324219 322.914062 L 113.3125 69.890625 C 113.53125 66.472656 116.363281 63.804688 119.792969 63.796875 " fill-opacity="1" fill-rule="nonzero"/><path fill="#b3b4bd" d="M 343.777344 55.046875 L 345.101562 34.292969 C 345.378906 30.007812 341.976562 26.40625 337.683594 26.40625 L 107.109375 26.40625 C 103.1875 26.40625 99.941406 29.429688 99.691406 33.34375 L 98.25 55.863281 L 343.777344 55.046875 " fill-opacity="1" fill-rule="nonzero"/><path fill="#0a21c0" d="M 126.027344 42.238281 C 126.027344 46.105469 122.890625 49.242188 119.023438 49.242188 C 115.152344 49.242188 112.015625 46.105469 112.015625 42.238281 C 112.015625 38.367188 115.152344 35.230469 119.023438 35.230469 C 122.890625 35.230469 126.027344 38.367188 126.027344 42.238281 " fill-opacity="1" fill-rule="nonzero"/><path fill="#0a21c0" d="M 147.042969 42.515625 C 147.042969 46.386719 143.90625 49.519531 140.039062 49.519531 C 136.167969 49.519531 133.03125 46.386719 133.03125 42.515625 C 133.03125 38.648438 136.167969 35.511719 140.039062 35.511719 C 143.90625 35.511719 147.042969 38.648438 147.042969 42.515625 " fill-opacity="1" fill-rule="nonzero"/><path fill="#0a21c0" d="M 168.757812 42.375 C 168.757812 46.246094 165.621094 49.378906 161.75 49.378906 C 157.882812 49.378906 154.746094 46.246094 154.746094 42.375 C 154.746094 38.507812 157.882812 35.371094 161.75 35.371094 C 165.621094 35.371094 168.757812 38.507812 168.757812 42.375 " fill-opacity="1" fill-rule="nonzero"/><path fill="#0a21c0" d="M 209.269531 35.5 L 319.492188 34.96875 C 321.253906 34.957031 322.664062 36.425781 322.585938 38.183594 L 322.292969 44.917969 C 322.21875 46.558594 320.882812 47.855469 319.242188 47.867188 L 208.707031 48.929688 C 206.890625 48.945312 205.453125 47.398438 205.605469 45.589844 L 206.210938 38.324219 C 206.34375 36.730469 207.667969 35.507812 209.269531 35.5 " fill-opacity="1" fill-rule="nonzero"/><path fill="#f4f5f8" d="M 205.601562 163.605469 L 122.335938 163.027344 C 119.8125 163.011719 117.820312 160.878906 117.976562 158.359375 L 121.632812 99.472656 C 121.777344 97.15625 123.699219 95.351562 126.023438 95.351562 L 209.65625 95.335938 C 212.199219 95.335938 214.214844 97.492188 214.042969 100.03125 L 210.019531 159.503906 C 209.859375 161.824219 207.925781 163.621094 205.601562 163.605469 " fill-opacity="1" fill-rule="nonzero"/><path fill="#f4f5f8" d="M 305.476562 163.40625 L 223.132812 162.835938 C 219.972656 162.8125 217.484375 160.128906 217.703125 156.976562 L 221.574219 100.460938 C 221.769531 97.578125 224.171875 95.339844 227.058594 95.347656 L 309.285156 95.523438 C 312.453125 95.53125 314.953125 98.210938 314.746094 101.371094 L 310.988281 158.28125 C 310.792969 161.179688 308.378906 163.425781 305.476562 163.40625 " fill-opacity="1" fill-rule="nonzero"/><path fill="#f4f5f8" d="M 306.566406 87.492188 L 228.25 87.632812 C 227.222656 87.636719 226.410156 86.617188 226.480469 85.414062 L 226.984375 76.6875 C 227.046875 75.597656 227.820312 74.75 228.753906 74.746094 L 307.066406 74.609375 C 308.09375 74.605469 308.90625 75.628906 308.835938 76.828125 L 308.328125 85.554688 C 308.265625 86.648438 307.496094 87.492188 306.566406 87.492188 " fill-opacity="1" fill-rule="nonzero"/><path fill="#f4f5f8" d="M 209.488281 87.492188 L 131.175781 87.632812 C 130.148438 87.636719 129.332031 86.613281 129.402344 85.414062 L 129.910156 76.6875 C 129.972656 75.59375 130.746094 74.75 131.675781 74.746094 L 209.988281 74.605469 C 211.015625 74.605469 211.832031 75.625 211.761719 76.828125 L 211.253906 85.554688 C 211.191406 86.644531 210.417969 87.492188 209.488281 87.492188 " fill-opacity="1" fill-rule="nonzero"/><path fill="#f4f5f8" d="M 307.429688 193.472656 L 116.484375 193.683594 C 115.996094 193.683594 115.609375 193.269531 115.640625 192.785156 L 116.292969 182.699219 C 116.324219 182.257812 116.691406 181.910156 117.136719 181.910156 L 308.128906 182.019531 C 308.617188 182.019531 309.003906 182.433594 308.96875 182.921875 L 308.273438 192.691406 C 308.238281 193.132812 307.875 193.472656 307.429688 193.472656 " fill-opacity="1" fill-rule="nonzero"/><path fill="#f4f5f8" d="M 305.492188 212.390625 L 116.777344 212.664062 C 115.753906 212.664062 114.945312 211.804688 115.011719 210.78125 L 115.550781 202.351562 C 115.613281 201.417969 116.386719 200.6875 117.320312 200.691406 L 306.046875 201.035156 C 307.074219 201.039062 307.882812 201.910156 307.808594 202.933594 L 307.253906 210.746094 C 307.191406 211.667969 306.421875 212.386719 305.492188 212.390625 " fill-opacity="1" fill-rule="nonzero"/><path fill="#f4f5f8" d="M 304.285156 231.722656 L 115.457031 231.929688 C 114.492188 231.929688 113.71875 231.121094 113.765625 230.15625 L 114.179688 221.773438 C 114.222656 220.871094 114.96875 220.164062 115.871094 220.164062 L 304.726562 220.472656 C 305.695312 220.476562 306.464844 221.289062 306.414062 222.257812 L 305.96875 230.125 C 305.921875 231.019531 305.179688 231.71875 304.285156 231.722656 " fill-opacity="1" fill-rule="nonzero"/><path fill="#f4f5f8" d="M 303.707031 251.046875 L 113.675781 251.261719 C 113.003906 251.261719 112.472656 250.695312 112.511719 250.027344 L 113.074219 240.59375 C 113.109375 239.976562 113.621094 239.496094 114.238281 239.496094 L 304.320312 239.773438 C 304.996094 239.777344 305.527344 240.347656 305.480469 241.019531 L 304.867188 249.960938 C 304.824219 250.570312 304.316406 251.046875 303.707031 251.046875 " fill-opacity="1" fill-rule="nonzero"/><path fill="#f4f5f8" d="M 301.953125 281.246094 L 111.5 281.59375 C 110.867188 281.59375 110.367188 281.0625 110.40625 280.433594 L 110.976562 270.789062 C 111.011719 270.207031 111.488281 269.757812 112.070312 269.757812 L 302.574219 269.964844 C 303.207031 269.964844 303.707031 270.503906 303.664062 271.136719 L 303.042969 280.226562 C 303.003906 280.800781 302.527344 281.246094 301.953125 281.246094 " fill-opacity="1" fill-rule="nonzero"/><path fill="#f4f5f8" d="M 300.539062 300.230469 L 110.414062 300.578125 C 109.726562 300.578125 109.183594 300 109.226562 299.3125 L 109.84375 289.714844 C 109.882812 289.089844 110.402344 288.601562 111.03125 288.601562 L 301.203125 288.878906 C 301.894531 288.878906 302.4375 289.46875 302.386719 290.15625 L 301.722656 299.128906 C 301.675781 299.75 301.160156 300.230469 300.539062 300.230469 " fill-opacity="1" fill-rule="nonzero"/><path fill="#f4f5f8" d="M 299.105469 319.144531 L 109.574219 319.351562 C 108.699219 319.351562 108.007812 318.609375 108.070312 317.738281 L 108.695312 308.984375 C 108.75 308.195312 109.40625 307.585938 110.199219 307.585938 L 299.621094 307.792969 C 300.488281 307.792969 301.175781 308.527344 301.121094 309.390625 L 300.609375 317.730469 C 300.558594 318.523438 299.902344 319.140625 299.105469 319.144531 " fill-opacity="1" fill-rule="nonzero"/><path fill="#0a21c0" d="M 281.664062 148.359375 C 281.664062 170.816406 263.457031 189.019531 241 189.019531 C 218.546875 189.019531 200.339844 170.816406 200.339844 148.359375 C 200.339844 125.902344 218.546875 107.695312 241 107.695312 C 263.457031 107.695312 281.664062 125.902344 281.664062 148.359375 " fill-opacity="1" fill-rule="nonzero"/><path fill="#141619" d="M 241 108.328125 C 218.929688 108.328125 200.96875 126.285156 200.96875 148.359375 C 200.96875 170.433594 218.929688 188.390625 241 188.390625 C 263.074219 188.390625 281.03125 170.433594 281.03125 148.359375 C 281.03125 126.285156 263.074219 108.328125 241 108.328125 Z M 241 189.652344 C 218.234375 189.652344 199.710938 171.125 199.710938 148.359375 C 199.710938 125.589844 218.234375 107.066406 241 107.066406 C 263.769531 107.066406 282.292969 125.589844 282.292969 148.359375 C 282.292969 171.125 263.769531 189.652344 241 189.652344 " fill-opacity="1" fill-rule="nonzero"/><path fill="#e4e6ef" d="M 215.039062 148.292969 L 228.886719 153.550781 L 228.886719 159.257812 L 209.238281 150.5 L 209.238281 145.96875 L 228.886719 137.238281 L 228.886719 142.941406 L 215.039062 148.292969 " fill-opacity="1" fill-rule="nonzero"/><path fill="#e4e6ef" d="M 236.726562 166.039062 L 232.246094 166.039062 L 245.695312 128.929688 L 250.175781 128.929688 L 236.726562 166.039062 " fill-opacity="1" fill-rule="nonzero"/><path fill="#e4e6ef" d="M 268.722656 148.175781 L 254.21875 142.847656 L 254.21875 137.238281 L 274.5 145.96875 L 274.5 150.5 L 254.21875 159.230469 L 254.21875 153.621094 L 268.722656 148.175781 " fill-opacity="1" fill-rule="nonzero"/><path fill="#141619" d="M 287.84375 357.964844 L 230.105469 357.964844 L 299.292969 292.136719 C 301.453125 290.078125 304.28125 288.832031 306.785156 288.832031 L 353.644531 288.832031 C 356.621094 288.832031 357.152344 292.015625 354.582031 294.460938 L 287.84375 357.964844 " fill-opacity="1" fill-rule="nonzero"/><path fill="#f4f5f8" d="M 318.613281 311.914062 C 315.582031 314.800781 310.609375 317.140625 307.507812 317.140625 C 304.40625 317.140625 304.351562 314.800781 307.386719 311.914062 C 310.417969 309.03125 315.390625 306.691406 318.488281 306.691406 C 321.59375 306.691406 321.648438 309.03125 318.613281 311.914062 " fill-opacity="1" fill-rule="nonzero"/><path fill="#141619" d="M 286.984375 364.457031 L 163.671875 364.457031 C 162.464844 364.457031 161.484375 363.480469 161.484375 362.273438 L 161.484375 357.40625 L 289.171875 357.40625 L 289.171875 362.273438 C 289.171875 363.480469 288.195312 364.457031 286.984375 364.457031 " fill-opacity="1" fill-rule="nonzero"/><path fill="#e4e6ef" d="M 285.378906 358.664062 L 226.789062 358.664062 C 226.441406 358.664062 226.15625 358.382812 226.15625 358.035156 C 226.15625 357.6875 226.441406 357.40625 226.789062 357.40625 L 285.378906 357.40625 C 285.726562 357.40625 286.007812 357.6875 286.007812 358.035156 C 286.007812 358.382812 285.726562 358.664062 285.378906 358.664062 " fill-opacity="1" fill-rule="nonzero"/><path fill="#141619" d="M 111.203125 242.773438 C 111.203125 242.773438 99.261719 231.726562 94.878906 229.15625 C 90.496094 226.585938 85.035156 216.046875 99.765625 209.59375 C 104.539062 207.5 105.476562 201.703125 114.671875 200.714844 C 123.863281 199.722656 131.5 204.386719 132.488281 210.1875 C 133.480469 215.984375 127.980469 221.003906 123.871094 221.675781 C 119.761719 222.347656 111.203125 242.773438 111.203125 242.773438 " fill-opacity="1" fill-rule="nonzero"/><path fill="#e4e6ef" d="M 131.964844 229.144531 L 133.246094 227.296875 L 128.183594 220.816406 L 124.710938 212.304688 C 114.902344 211.640625 110.972656 214.324219 110.84375 221.847656 C 110.761719 226.667969 108.222656 226.785156 108.222656 226.785156 C 108.222656 226.785156 104.492188 222.769531 102.5625 227.53125 C 100.632812 232.292969 108.652344 235.601562 108.652344 235.601562 C 109.695312 237.800781 109.445312 240.394531 108.003906 242.351562 L 93.738281 261.734375 C 93.738281 261.734375 120.484375 268.816406 120.765625 264.597656 C 120.847656 263.402344 120.4375 262.378906 119.816406 261.53125 C 116.734375 257.332031 122.300781 245.980469 122.300781 245.980469 L 131.230469 242.375 C 132.867188 241.714844 133.734375 239.921875 133.242188 238.226562 L 131.476562 232.152344 C 131.179688 231.128906 131.359375 230.023438 131.964844 229.144531 " fill-opacity="1" fill-rule="nonzero"/><path fill="#141619" d="M 94.796875 261.359375 C 103.6875 263.65625 117.660156 266.46875 119.957031 264.820312 C 120.128906 264.695312 120.132812 264.601562 120.136719 264.554688 C 120.199219 263.628906 119.917969 262.738281 119.308594 261.902344 C 116.035156 257.449219 121.5 246.179688 121.734375 245.703125 C 121.804688 245.5625 121.921875 245.457031 122.066406 245.394531 L 130.992188 241.789062 C 132.335938 241.25 133.042969 239.792969 132.636719 238.402344 L 130.871094 232.328125 C 130.519531 231.117188 130.730469 229.824219 131.449219 228.785156 L 132.464844 227.316406 L 127.6875 221.203125 C 127.652344 221.160156 127.621094 221.109375 127.601562 221.054688 L 124.277344 212.910156 C 119.082031 212.601562 115.753906 213.292969 113.820312 215.070312 C 112.273438 216.488281 111.527344 218.648438 111.472656 221.859375 C 111.382812 227.210938 108.378906 227.40625 108.25 227.414062 C 108.066406 227.417969 107.886719 227.347656 107.757812 227.214844 C 107.339844 226.765625 106.007812 225.652344 104.890625 225.859375 C 104.195312 225.988281 103.609375 226.632812 103.148438 227.769531 C 101.476562 231.894531 108.820312 234.988281 108.894531 235.019531 C 109.039062 235.078125 109.15625 235.191406 109.222656 235.332031 C 110.367188 237.742188 110.09375 240.578125 108.511719 242.726562 Z M 116.964844 266.542969 C 109.699219 266.546875 95.515625 262.859375 93.578125 262.347656 C 93.378906 262.292969 93.214844 262.140625 93.144531 261.945312 C 93.074219 261.75 93.109375 261.53125 93.230469 261.363281 L 107.496094 241.980469 C 108.753906 240.265625 109.011719 238.027344 108.179688 236.082031 C 106.785156 235.460938 100.015625 232.144531 101.980469 227.296875 C 102.613281 225.730469 103.519531 224.828125 104.667969 224.617188 C 106.28125 224.324219 107.820312 225.542969 108.421875 226.097656 C 108.9375 225.90625 110.15625 225.117188 110.214844 221.835938 C 110.273438 218.304688 111.175781 215.789062 112.964844 214.140625 C 115.222656 212.066406 118.96875 211.28125 124.753906 211.679688 C 124.996094 211.695312 125.203125 211.847656 125.296875 212.066406 L 128.734375 220.496094 L 133.742188 226.90625 C 133.910156 227.125 133.921875 227.425781 133.765625 227.652344 L 132.484375 229.503906 C 131.984375 230.226562 131.835938 231.128906 132.082031 231.976562 L 133.847656 238.050781 C 134.433594 240.0625 133.410156 242.175781 131.464844 242.957031 L 122.765625 246.472656 C 121.21875 249.710938 118.035156 258.042969 120.324219 261.15625 C 121.117188 262.238281 121.476562 263.410156 121.394531 264.640625 C 121.371094 264.972656 121.234375 265.457031 120.691406 265.84375 C 120 266.339844 118.671875 266.542969 116.964844 266.542969 " fill-opacity="1" fill-rule="nonzero"/><path fill="#141619" d="M 108.9375 220.4375 L 115.722656 229.613281 C 118.601562 233.507812 123.867188 234.746094 128.179688 232.550781 L 131.867188 230.671875 L 138.671875 243.207031 C 139.402344 244.988281 138.457031 247.015625 136.621094 247.601562 L 126.726562 251.707031 C 123.898438 252.609375 120.804688 251.847656 118.71875 249.734375 L 108.082031 238.957031 C 108.082031 238.957031 112.117188 235.214844 108.222656 226.785156 C 104.328125 218.355469 108.9375 220.4375 108.9375 220.4375 " fill-opacity="1" fill-rule="nonzero"/><path fill="#0a21c0" d="M 223.171875 248.164062 L 203.792969 251 C 203.792969 251 195.933594 281.191406 176.214844 282.183594 C 166.730469 282.660156 159.550781 279.703125 154.65625 276.511719 C 147.246094 271.675781 138.789062 268.6875 129.96875 267.957031 L 94.53125 265.042969 C 74.949219 263.429688 56.28125 273.625 47.078125 290.984375 C 37.234375 309.550781 25.035156 334.308594 17.25 356.335938 C 15.8125 360.398438 18.804688 364.660156 23.113281 364.660156 L 117.148438 364.660156 L 137.835938 312.851562 C 148.144531 317.242188 164.03125 321.113281 186.34375 319.058594 C 233.515625 314.710938 223.171875 248.164062 223.171875 248.164062 " fill-opacity="1" fill-rule="nonzero"/><path fill="#141619" d="M 90.464844 265.503906 C 72.609375 265.503906 56.097656 275.316406 47.632812 291.28125 C 38.433594 308.628906 25.800781 334.035156 17.84375 356.546875 C 17.226562 358.292969 17.484375 360.160156 18.550781 361.667969 C 19.613281 363.167969 21.273438 364.027344 23.113281 364.027344 L 116.71875 364.027344 L 137.25 312.621094 C 137.3125 312.460938 137.4375 312.335938 137.59375 312.269531 C 137.75 312.203125 137.929688 312.207031 138.082031 312.273438 C 147.417969 316.246094 163.363281 320.542969 186.285156 318.433594 C 197.261719 317.417969 205.972656 312.875 212.179688 304.917969 C 226.839844 286.125 223.273438 253.753906 222.632812 248.882812 L 204.292969 251.566406 C 203.8125 253.246094 201.785156 259.886719 197.945312 266.535156 C 192.035156 276.769531 184.53125 282.394531 176.246094 282.8125 C 168.183594 283.21875 160.804688 281.273438 154.3125 277.039062 C 146.921875 272.214844 138.484375 269.292969 129.914062 268.585938 L 94.480469 265.671875 C 93.136719 265.558594 91.796875 265.503906 90.464844 265.503906 Z M 117.148438 365.289062 L 23.113281 365.289062 C 20.859375 365.289062 18.820312 364.238281 17.519531 362.398438 C 16.214844 360.550781 15.898438 358.265625 16.65625 356.125 C 24.636719 333.542969 37.300781 308.074219 46.519531 290.691406 C 55.851562 273.09375 74.71875 262.78125 94.582031 264.414062 L 130.019531 267.332031 C 138.796875 268.054688 147.433594 271.046875 155.003906 275.984375 C 161.265625 280.070312 168.390625 281.945312 176.183594 281.554688 C 195.210938 280.597656 203.105469 251.140625 203.183594 250.84375 C 203.25 250.597656 203.453125 250.414062 203.703125 250.378906 L 223.078125 247.542969 C 223.425781 247.492188 223.742188 247.726562 223.792969 248.070312 C 223.808594 248.160156 225.214844 257.371094 224.613281 268.996094 C 224.058594 279.757812 221.625 294.859375 213.175781 305.6875 C 206.746094 313.933594 197.738281 318.644531 186.402344 319.6875 C 163.691406 321.777344 147.730469 317.640625 138.183594 313.683594 L 117.730469 364.894531 C 117.636719 365.132812 117.40625 365.289062 117.148438 365.289062 " fill-opacity="1" fill-rule="nonzero"/><path fill="#0a21c0" d="M 141.695312 323.171875 C 127.046875 318.320312 119.132812 295.550781 119.132812 295.550781 L 75.996094 304.238281 C 75.996094 304.238281 105.894531 351.949219 126.496094 356.316406 C 139.339844 359.039062 165.140625 346.925781 182.757812 337.410156 C 180.5 332.417969 177.253906 325.25 174.84375 319.976562 C 161.960938 323.105469 148.347656 325.375 141.695312 323.171875 " fill-opacity="1" fill-rule="nonzero"/><path fill="#141619" d="M 130.59375 357.335938 C 129.074219 357.335938 127.65625 357.207031 126.367188 356.933594 C 105.738281 352.558594 76.6875 306.53125 75.460938 304.570312 C 75.277344 304.277344 75.367188 303.886719 75.660156 303.703125 C 75.957031 303.519531 76.34375 303.609375 76.53125 303.902344 C 76.828125 304.378906 106.519531 351.4375 126.628906 355.699219 C 138.9375 358.3125 163.390625 347.117188 181.941406 337.132812 C 179.738281 332.257812 176.761719 325.695312 174.488281 320.710938 C 158.269531 324.621094 147.171875 325.648438 141.496094 323.769531 C 126.722656 318.878906 118.863281 296.699219 118.535156 295.757812 C 118.421875 295.429688 118.597656 295.070312 118.925781 294.957031 C 119.253906 294.84375 119.613281 295.015625 119.726562 295.34375 C 119.804688 295.570312 127.710938 317.878906 141.894531 322.574219 C 147.320312 324.367188 158.664062 323.261719 174.695312 319.363281 C 174.988281 319.292969 175.292969 319.4375 175.417969 319.714844 C 177.800781 324.933594 181.039062 332.074219 183.332031 337.148438 C 183.472656 337.453125 183.351562 337.808594 183.058594 337.964844 C 166.15625 347.09375 144.164062 357.335938 130.59375 357.335938 " fill-opacity="1" fill-rule="nonzero"/><path fill="#e4e6ef" d="M 229.617188 325.015625 L 209.648438 313.921875 C 206.566406 312.207031 202.914062 311.847656 199.558594 312.929688 C 193.992188 314.726562 184.628906 317.601562 174.84375 319.976562 C 177.253906 325.25 180.5 332.417969 182.757812 337.410156 C 193.414062 331.65625 201.074219 326.855469 201.074219 326.855469 L 213.964844 333.644531 C 213.964844 333.644531 213.246094 344.957031 215.804688 345.269531 C 218.363281 345.578125 219.324219 335.140625 219.324219 335.140625 C 219.324219 335.140625 221.527344 348.101562 225.328125 345.269531 L 226.789062 329.617188 C 226.789062 329.617188 229.3125 336.546875 230.757812 336.835938 C 232.207031 337.121094 232.207031 337.121094 232.207031 337.121094 L 229.617188 325.015625 " fill-opacity="1" fill-rule="nonzero"/><path fill="#141619" d="M 219.328125 334.511719 C 219.632812 334.511719 219.898438 334.730469 219.949219 335.035156 C 220.535156 338.496094 222.140625 344.257812 223.9375 344.976562 C 224.121094 345.050781 224.371094 345.101562 224.730469 344.90625 L 226.160156 329.558594 C 226.1875 329.265625 226.414062 329.03125 226.707031 328.992188 C 227 328.953125 227.277344 329.125 227.378906 329.402344 C 228.648438 332.886719 230.253906 336.007812 230.890625 336.21875 L 231.390625 336.316406 L 229.058594 325.425781 L 209.34375 314.472656 C 206.421875 312.847656 202.925781 312.503906 199.75 313.527344 C 193.914062 315.410156 185.070312 318.113281 175.734375 320.40625 C 177.984375 325.335938 180.886719 331.738281 183.054688 336.53125 C 193.261719 331 200.664062 326.367188 200.738281 326.320312 C 200.929688 326.203125 201.167969 326.191406 201.367188 326.296875 L 214.257812 333.085938 C 214.476562 333.199219 214.609375 333.433594 214.59375 333.683594 C 214.230469 339.394531 214.832031 344.515625 215.878906 344.644531 C 215.921875 344.648438 216.023438 344.660156 216.191406 344.519531 C 217.480469 343.484375 218.414062 338.179688 218.699219 335.082031 C 218.726562 334.769531 218.988281 334.523438 219.304688 334.511719 C 219.308594 334.511719 219.320312 334.511719 219.328125 334.511719 Z M 224.253906 346.300781 C 223.949219 346.300781 223.679688 346.234375 223.464844 346.148438 C 221.558594 345.382812 220.238281 341.671875 219.476562 338.773438 C 219.03125 341.335938 218.25 344.484375 216.988281 345.5 C 216.5 345.894531 216.035156 345.929688 215.730469 345.894531 C 212.9375 345.554688 213.132812 337.191406 213.308594 334.011719 L 201.097656 327.578125 C 199.558594 328.53125 192.421875 332.910156 183.058594 337.964844 C 182.90625 338.046875 182.722656 338.0625 182.558594 338.007812 C 182.390625 337.949219 182.257812 337.828125 182.1875 337.667969 C 179.890625 332.597656 176.65625 325.453125 174.269531 320.238281 C 174.191406 320.066406 174.195312 319.871094 174.273438 319.703125 C 174.359375 319.53125 174.511719 319.410156 174.695312 319.363281 C 184.265625 317.039062 193.394531 314.253906 199.363281 312.328125 C 202.871094 311.199219 206.730469 311.574219 209.957031 313.371094 L 229.921875 324.460938 C 230.082031 324.550781 230.195312 324.703125 230.234375 324.882812 L 232.824219 336.988281 C 232.867188 337.195312 232.804688 337.414062 232.65625 337.566406 C 232.507812 337.714844 232.292969 337.78125 232.085938 337.738281 L 230.636719 337.453125 C 229.488281 337.226562 228.140625 334.601562 227.167969 332.3125 L 225.957031 345.328125 C 225.941406 345.503906 225.847656 345.667969 225.703125 345.773438 C 225.171875 346.171875 224.675781 346.300781 224.253906 346.300781 " fill-opacity="1" fill-rule="nonzero"/><path fill="#0a21c0" d="M 127.851562 269.589844 L 128.734375 264.25 C 129.027344 262.464844 127.867188 260.769531 126.101562 260.394531 C 117.285156 258.539062 92.851562 253.242188 89.671875 251 C 85.777344 248.257812 57.597656 274.808594 61.824219 274.113281 C 93.28125 268.925781 127.851562 269.589844 127.851562 269.589844 " fill-opacity="1" fill-rule="nonzero"/><path fill="#141619" d="M 88.921875 251.4375 C 88.613281 251.4375 88.085938 251.527344 87.21875 251.90625 C 79.984375 255.035156 64.300781 270.019531 62.242188 273.40625 C 91.113281 268.710938 122.796875 268.894531 127.320312 268.949219 L 128.109375 264.148438 C 128.351562 262.691406 127.410156 261.316406 125.972656 261.011719 C 116.023438 258.917969 92.535156 253.792969 89.304688 251.515625 C 89.273438 251.496094 89.164062 251.4375 88.921875 251.4375 Z M 61.675781 274.757812 C 61.132812 274.757812 60.914062 274.421875 60.839844 274.261719 C 60.636719 273.816406 60.296875 273.066406 65.363281 267.875 C 68.320312 264.847656 72.246094 261.246094 75.867188 258.246094 C 83.539062 251.878906 88.304688 249.269531 90.03125 250.488281 C 92.140625 251.972656 105.671875 255.445312 126.230469 259.78125 C 128.332031 260.222656 129.707031 262.230469 129.355469 264.351562 L 128.476562 269.691406 C 128.425781 270 128.15625 270.21875 127.839844 270.21875 C 127.496094 270.214844 92.964844 269.617188 61.925781 274.734375 C 61.835938 274.75 61.75 274.757812 61.675781 274.757812 " fill-opacity="1" fill-rule="nonzero"/><path fill="#e4e6ef" d="M 213.457031 216.28125 C 213.996094 215.207031 216.691406 212.003906 217.914062 211.085938 L 230.867188 199.046875 C 230.867188 199.046875 232.546875 204.847656 230.507812 208.269531 C 234.480469 208.402344 237.628906 209.078125 237.628906 209.078125 C 237.628906 209.078125 243.542969 203.863281 245.019531 202.96875 C 246.492188 202.066406 248.414062 200.644531 250.394531 200.667969 C 252.382812 200.695312 254.351562 202.214844 254.351562 202.214844 L 242.976562 216.632812 L 222.292969 222.324219 L 223.449219 253.6875 L 203.792969 251 L 213.457031 216.28125 " fill-opacity="1" fill-rule="nonzero"/><path fill="#141619" d="M 204.597656 250.476562 L 222.792969 252.964844 L 221.660156 222.347656 C 221.648438 222.054688 221.84375 221.792969 222.125 221.714844 L 242.609375 216.078125 L 253.4375 202.355469 C 252.769531 201.941406 251.5625 201.3125 250.390625 201.300781 C 248.886719 201.265625 247.277344 202.289062 245.996094 203.097656 C 245.773438 203.238281 245.554688 203.378906 245.347656 203.503906 C 244.21875 204.191406 240.078125 207.761719 238.046875 209.550781 C 237.894531 209.683594 237.691406 209.738281 237.496094 209.695312 C 237.464844 209.6875 234.355469 209.027344 230.488281 208.898438 C 230.265625 208.890625 230.0625 208.765625 229.953125 208.570312 C 229.847656 208.375 229.851562 208.136719 229.96875 207.945312 C 231.351562 205.625 230.859375 202.003906 230.503906 200.246094 L 218.347656 211.550781 C 218.328125 211.5625 218.3125 211.578125 218.292969 211.589844 C 217.167969 212.433594 214.601562 215.480469 214.046875 216.515625 Z M 223.449219 254.320312 C 223.421875 254.320312 223.390625 254.316406 223.363281 254.3125 L 203.707031 251.625 C 203.527344 251.601562 203.367188 251.5 203.265625 251.347656 C 203.167969 251.195312 203.136719 251.007812 203.1875 250.832031 L 212.851562 216.113281 C 212.863281 216.074219 212.875 216.035156 212.894531 216 C 213.46875 214.851562 216.171875 211.621094 217.511719 210.601562 L 230.4375 198.582031 C 230.597656 198.433594 230.820312 198.378906 231.035156 198.4375 C 231.246094 198.496094 231.410156 198.660156 231.472656 198.871094 C 231.539062 199.097656 232.949219 204.074219 231.496094 207.679688 C 234.359375 207.839844 236.636719 208.242188 237.449219 208.398438 C 238.582031 207.40625 243.339844 203.253906 244.691406 202.429688 C 244.894531 202.304688 245.105469 202.171875 245.324219 202.03125 C 246.730469 201.144531 248.472656 200.039062 250.34375 200.039062 C 250.363281 200.039062 250.386719 200.039062 250.40625 200.039062 C 252.578125 200.066406 254.652344 201.648438 254.738281 201.714844 C 254.871094 201.816406 254.957031 201.96875 254.976562 202.136719 C 255 202.304688 254.949219 202.472656 254.847656 202.605469 L 243.472656 217.023438 C 243.386719 217.128906 243.273438 217.203125 243.144531 217.238281 L 222.941406 222.800781 L 224.078125 253.667969 C 224.085938 253.851562 224.011719 254.03125 223.875 254.15625 C 223.753906 254.261719 223.605469 254.320312 223.449219 254.320312 " fill-opacity="1" fill-rule="nonzero"/><path fill="#141619" d="M 70.378906 61.96875 C 70.222656 61.96875 70.066406 61.914062 69.941406 61.796875 C 69.6875 61.550781 69.675781 61.148438 69.917969 60.894531 C 71.652344 59.066406 73.453125 57.25 75.265625 55.492188 C 75.519531 55.246094 75.921875 55.253906 76.167969 55.503906 C 76.414062 55.757812 76.40625 56.160156 76.152344 56.40625 C 74.351562 58.152344 72.566406 59.957031 70.84375 61.773438 C 70.71875 61.902344 70.546875 61.96875 70.378906 61.96875 " fill-opacity="1" fill-rule="nonzero"/><path fill="#141619" d="M 26.878906 150.917969 C 26.851562 150.917969 26.824219 150.917969 26.796875 150.910156 C 26.453125 150.871094 26.207031 150.554688 26.25 150.210938 C 28.253906 134.074219 33.0625 118.15625 40.539062 102.90625 C 47.972656 87.75 57.855469 73.621094 69.921875 60.902344 C 70.160156 60.648438 70.5625 60.636719 70.8125 60.875 C 71.066406 61.117188 71.078125 61.519531 70.835938 61.769531 C 46.84375 87.054688 31.457031 118.519531 27.5 150.363281 C 27.460938 150.683594 27.191406 150.917969 26.878906 150.917969 " fill-opacity="1" fill-rule="nonzero"/><path fill="#141619" d="M 36.242188 152.199219 C 36.214844 152.199219 36.1875 152.195312 36.164062 152.195312 C 35.816406 152.152344 35.574219 151.835938 35.617188 151.492188 C 38.578125 127.914062 47.992188 104.5625 62.839844 83.957031 C 63.042969 83.675781 63.4375 83.613281 63.71875 83.816406 C 64.003906 84.019531 64.066406 84.414062 63.863281 84.695312 C 49.136719 105.128906 39.800781 128.28125 36.867188 151.648438 C 36.828125 151.964844 36.554688 152.199219 36.242188 152.199219 " fill-opacity="1" fill-rule="nonzero"/><path fill="#141619" d="M 98.566406 191.792969 C 98.21875 191.792969 97.9375 191.511719 97.9375 191.164062 L 97.9375 187.902344 C 97.9375 187.554688 98.21875 187.273438 98.566406 187.273438 C 98.914062 187.273438 99.199219 187.554688 99.199219 187.902344 L 99.199219 191.164062 C 99.199219 191.511719 98.914062 191.792969 98.566406 191.792969 " fill-opacity="1" fill-rule="nonzero"/><path fill="#141619" d="M 98.566406 199.386719 C 98.21875 199.386719 97.9375 199.105469 97.9375 198.757812 L 97.9375 195.496094 C 97.9375 195.148438 98.21875 194.867188 98.566406 194.867188 C 98.914062 194.867188 99.199219 195.148438 99.199219 195.496094 L 99.199219 198.757812 C 99.199219 199.105469 98.914062 199.386719 98.566406 199.386719 " fill-opacity="1" fill-rule="nonzero"/><path fill="#141619" d="M 96.398438 193.960938 L 93.140625 193.960938 C 92.792969 193.960938 92.507812 193.679688 92.507812 193.328125 C 92.507812 192.980469 92.792969 192.699219 93.140625 192.699219 L 96.398438 192.699219 C 96.75 192.699219 97.03125 192.980469 97.03125 193.328125 C 97.03125 193.679688 96.75 193.960938 96.398438 193.960938 " fill-opacity="1" fill-rule="nonzero"/><path fill="#141619" d="M 103.996094 193.960938 L 100.734375 193.960938 C 100.386719 193.960938 100.105469 193.679688 100.105469 193.328125 C 100.105469 192.980469 100.386719 192.699219 100.734375 192.699219 L 103.996094 192.699219 C 104.34375 192.699219 104.625 192.980469 104.625 193.328125 C 104.625 193.679688 104.34375 193.960938 103.996094 193.960938 " fill-opacity="1" fill-rule="nonzero"/><path fill="#141619" d="M 108.65625 178.632812 C 108.308594 178.632812 108.023438 178.351562 108.023438 178.003906 L 108.023438 174.742188 C 108.023438 174.394531 108.308594 174.113281 108.65625 174.113281 C 109.003906 174.113281 109.285156 174.394531 109.285156 174.742188 L 109.285156 178.003906 C 109.285156 178.351562 109.003906 178.632812 108.65625 178.632812 " fill-opacity="1" fill-rule="nonzero"/><path fill="#141619" d="M 108.65625 186.230469 C 108.308594 186.230469 108.023438 185.945312 108.023438 185.597656 L 108.023438 182.335938 C 108.023438 181.988281 108.308594 181.707031 108.65625 181.707031 C 109.003906 181.707031 109.285156 181.988281 109.285156 182.335938 L 109.285156 185.597656 C 109.285156 185.945312 109.003906 186.230469 108.65625 186.230469 " fill-opacity="1" fill-rule="nonzero"/><path fill="#141619" d="M 106.488281 180.800781 L 103.226562 180.800781 C 102.878906 180.800781 102.597656 180.515625 102.597656 180.167969 C 102.597656 179.820312 102.878906 179.539062 103.226562 179.539062 L 106.488281 179.539062 C 106.835938 179.539062 107.117188 179.820312 107.117188 180.167969 C 107.117188 180.515625 106.835938 180.800781 106.488281 180.800781 " fill-opacity="1" fill-rule="nonzero"/><path fill="#141619" d="M 114.082031 180.800781 L 110.824219 180.800781 C 110.472656 180.800781 110.191406 180.515625 110.191406 180.167969 C 110.191406 179.820312 110.472656 179.539062 110.824219 179.539062 L 114.082031 179.539062 C 114.429688 179.539062 114.714844 179.820312 114.714844 180.167969 C 114.714844 180.515625 114.429688 180.800781 114.082031 180.800781 " fill-opacity="1" fill-rule="nonzero"/><path fill="#141619" d="M 263.371094 203.058594 C 263.183594 203.058594 263 202.980469 262.875 202.820312 C 262.660156 202.546875 262.703125 202.152344 262.976562 201.9375 L 292.4375 178.648438 C 292.714844 178.433594 293.109375 178.480469 293.324219 178.753906 C 293.542969 179.027344 293.492188 179.421875 293.222656 179.640625 L 263.757812 202.925781 C 263.644531 203.015625 263.507812 203.058594 263.371094 203.058594 " fill-opacity="1" fill-rule="nonzero"/><path fill="#141619" d="M 268.804688 210.699219 C 268.601562 210.699219 268.398438 210.601562 268.277344 210.421875 C 268.085938 210.132812 268.164062 209.738281 268.457031 209.546875 L 306.605469 184.238281 C 306.894531 184.046875 307.289062 184.125 307.480469 184.417969 C 307.671875 184.707031 307.59375 185.097656 307.304688 185.289062 L 269.152344 210.597656 C 269.042969 210.667969 268.925781 210.699219 268.804688 210.699219 " fill-opacity="1" fill-rule="nonzero"/></svg>