<svg xmlns="http://www.w3.org/2000/svg" xmlns:xlink="http://www.w3.org/1999/xlink" width="300" zoomAndPan="magnify" viewBox="0 0 224.87999 225" height="300" preserveAspectRatio="xMidYMid meet" version="1.0"><path fill="#b3b4bd" d="M 214.121094 86.402344 C 204.652344 38.304688 156.839844 9.234375 116.714844 5.527344 C 83.46875 2.453125 43.175781 10.832031 24.550781 41.664062 C 13.140625 60.554688 27.21875 68.871094 19.324219 110.679688 C 12.492188 146.863281 0.0390625 159.902344 7.617188 178.34375 C 13.816406 193.421875 27.917969 200.03125 37.171875 204.589844 C 73.660156 222.554688 140.863281 221.128906 180.769531 188.355469 C 190.109375 180.683594 224.832031 140.808594 214.121094 86.402344 " fill-opacity="1" fill-rule="nonzero"/><path fill="#f4f5f8" d="M 88.199219 51.226562 C 93.644531 41.820312 105.683594 38.605469 115.089844 44.050781 C 124.496094 49.496094 127.710938 61.539062 122.265625 70.945312 C 116.820312 80.351562 104.78125 83.5625 95.371094 78.117188 C 85.964844 72.675781 82.753906 60.632812 88.199219 51.226562 Z M 75.214844 50.253906 C 74.601562 51.941406 74.136719 53.660156 73.824219 55.394531 L 65.683594 57.21875 L 65.675781 64.867188 L 73.824219 66.710938 C 74.136719 68.460938 74.59375 70.179688 75.195312 71.851562 L 69.050781 77.511719 L 72.867188 84.136719 L 80.832031 81.664062 C 81.964844 83.011719 83.226562 84.269531 84.601562 85.429688 L 82.109375 93.402344 L 88.726562 97.230469 L 94.398438 91.101562 C 96.089844 91.710938 97.808594 92.179688 99.539062 92.492188 L 101.367188 100.632812 L 109.011719 100.640625 L 110.859375 92.492188 C 112.605469 92.179688 114.324219 91.722656 116 91.121094 L 121.65625 97.265625 L 128.28125 93.449219 L 125.8125 85.484375 C 127.15625 84.351562 128.414062 83.089844 129.578125 81.714844 L 137.546875 84.207031 L 141.375 77.585938 L 135.246094 71.917969 C 135.859375 70.226562 136.328125 68.507812 136.640625 66.777344 L 144.777344 64.949219 L 144.785156 57.304688 L 136.640625 55.457031 C 136.328125 53.710938 135.867188 51.992188 135.269531 50.320312 L 141.410156 44.660156 L 137.597656 38.035156 L 129.628906 40.503906 C 128.496094 39.160156 127.234375 37.902344 125.859375 36.742188 L 128.351562 28.769531 L 121.734375 24.9375 L 116.0625 31.070312 C 114.371094 30.457031 112.65625 29.992188 110.921875 29.675781 L 109.097656 21.539062 L 101.449219 21.53125 L 99.605469 29.675781 C 97.855469 29.992188 96.136719 30.449219 94.464844 31.046875 L 88.804688 24.90625 L 82.179688 28.71875 L 84.648438 36.6875 C 83.304688 37.820312 82.046875 39.082031 80.886719 40.453125 L 72.917969 37.964844 L 69.085938 44.582031 L 75.214844 50.253906 " fill-opacity="1" fill-rule="nonzero"/><path fill="#0a21c0" d="M 144.136719 207.269531 L 101.503906 207.269531 L 79.496094 168.753906 L 79.496094 202.394531 C 79.496094 207.652344 83.335938 211.863281 87.984375 211.863281 L 144.136719 211.863281 C 145.042969 211.863281 145.855469 211.230469 145.855469 210.324219 L 145.855469 208.816406 C 145.855469 207.910156 145.042969 207.269531 144.136719 207.269531 " fill-opacity="1" fill-rule="nonzero"/><path fill="#f4f5f8" d="M 85.75 180.855469 L 85.75 199.929688 C 85.75 203.796875 88.816406 206.886719 92.683594 206.886719 L 129.394531 206.886719 L 129.394531 180.855469 L 85.75 180.855469 " fill-opacity="1" fill-rule="nonzero"/><path fill="#141619" d="M 86.132812 181.234375 L 86.132812 199.929688 C 86.132812 203.617188 89.007812 206.503906 92.683594 206.503906 L 129.011719 206.503906 L 129.011719 181.234375 Z M 129.777344 207.269531 L 92.683594 207.269531 C 88.582031 207.269531 85.367188 204.046875 85.367188 199.929688 L 85.367188 180.472656 L 129.777344 180.472656 L 129.777344 207.269531 " fill-opacity="1" fill-rule="nonzero"/><path fill="#0a21c0" d="M 201.265625 182.613281 L 22.269531 183.003906 C 20.707031 183.003906 19.386719 181.839844 19.1875 180.285156 L 4.925781 68.855469 C 4.582031 66.144531 6.558594 63.585938 9.285156 63.585938 L 185.964844 63.746094 L 201.265625 182.613281 " fill-opacity="1" fill-rule="nonzero"/><path fill="#f4f5f8" d="M 204.933594 182.472656 L 29.515625 182.472656 C 27.949219 182.472656 26.628906 181.304688 26.429688 179.742188 L 12.261719 69.316406 C 11.867188 66.25 14.242188 63.535156 17.320312 63.535156 L 190.476562 63.535156 C 192.039062 63.535156 193.359375 64.703125 193.5625 66.261719 L 208.019531 178.941406 C 208.257812 180.8125 206.808594 182.472656 204.933594 182.472656 " fill-opacity="1" fill-rule="nonzero"/><path fill="#141619" d="M 17.320312 63.914062 C 15.96875 63.914062 14.683594 64.5 13.789062 65.515625 C 12.886719 66.542969 12.46875 67.910156 12.640625 69.269531 L 26.808594 179.695312 C 26.984375 181.058594 28.148438 182.089844 29.515625 182.089844 L 204.933594 182.089844 C 205.714844 182.089844 206.460938 181.75 206.976562 181.164062 C 207.5 180.570312 207.742188 179.777344 207.640625 178.992188 L 193.179688 66.308594 C 193.007812 64.945312 191.84375 63.914062 190.476562 63.914062 Z M 204.933594 182.855469 L 29.515625 182.855469 C 27.761719 182.855469 26.273438 181.539062 26.050781 179.792969 L 11.882812 69.367188 C 11.679688 67.789062 12.164062 66.203125 13.214844 65.011719 C 14.253906 63.828125 15.75 63.152344 17.320312 63.152344 L 190.476562 63.152344 C 192.226562 63.152344 193.71875 64.464844 193.941406 66.210938 L 208.398438 178.894531 C 208.527344 179.898438 208.21875 180.910156 207.550781 181.667969 C 206.886719 182.421875 205.933594 182.855469 204.933594 182.855469 " fill-opacity="1" fill-rule="nonzero"/><path fill="#b3b4bd" d="M 26.054688 52.96875 L 179.6875 52.96875 C 183.078125 52.96875 186.164062 55.726562 186.578125 59.128906 L 199.539062 165.394531 C 199.957031 168.835938 197.535156 171.625 194.125 171.625 L 39.625 171.625 C 36.214844 171.625 33.132812 168.835938 32.742188 165.394531 L 20.617188 59.128906 C 20.230469 55.726562 22.664062 52.96875 26.054688 52.96875 " fill-opacity="1" fill-rule="nonzero"/><path fill="#0a21c0" d="M 187.066406 62.890625 L 186.777344 59.074219 C 186.367188 55.699219 183.171875 53.015625 179.78125 53.015625 L 26.144531 53.015625 C 22.753906 53.015625 20.285156 55.699219 20.671875 59.074219 L 21.03125 63.773438 L 187.066406 62.890625 " fill-opacity="1" fill-rule="nonzero"/><path fill="#b3b4bd" d="M 30.339844 59.234375 C 30.464844 60.328125 29.679688 61.21875 28.585938 61.21875 C 27.488281 61.21875 26.5 60.328125 26.375 59.234375 C 26.246094 58.136719 27.035156 57.25 28.128906 57.25 C 29.226562 57.25 30.214844 58.136719 30.339844 59.234375 " fill-opacity="1" fill-rule="nonzero"/><path fill="#b3b4bd" d="M 36.675781 59.097656 C 36.800781 60.195312 36.015625 61.085938 34.917969 61.085938 C 33.824219 61.085938 32.832031 60.195312 32.707031 59.097656 C 32.582031 58.003906 33.367188 57.117188 34.460938 57.117188 C 35.558594 57.117188 36.546875 58.003906 36.675781 59.097656 " fill-opacity="1" fill-rule="nonzero"/><path fill="#b3b4bd" d="M 43.582031 59.363281 C 43.707031 60.460938 42.921875 61.351562 41.828125 61.351562 C 40.730469 61.351562 39.738281 60.460938 39.613281 59.363281 C 39.488281 58.269531 40.273438 57.382812 41.371094 57.382812 C 42.464844 57.382812 43.457031 58.269531 43.582031 59.363281 " fill-opacity="1" fill-rule="nonzero"/><path fill="#f4f5f8" d="M 55.710938 122.414062 L 70.378906 122.414062 L 67.65625 98.957031 L 67.105469 100.191406 Z M 79.734375 122.414062 L 86.703125 122.414062 L 87.582031 129.949219 L 80.613281 129.949219 L 82.074219 142.480469 L 72.707031 142.480469 L 71.253906 129.949219 L 47.027344 129.949219 L 46.101562 124.230469 L 65.875 86.285156 L 75.523438 86.285156 L 79.734375 122.414062 " fill-opacity="1" fill-rule="nonzero"/><path fill="#f4f5f8" d="M 118.40625 108.289062 C 117.785156 103.019531 116.609375 99.15625 114.882812 96.703125 C 113.15625 94.25 110.730469 93.023438 107.601562 93.023438 C 104.554688 93.023438 102.449219 94.183594 101.285156 96.507812 C 100.121094 98.835938 99.792969 102.464844 100.296875 107.402344 L 101.796875 120.136719 C 102.414062 125.390625 103.605469 129.304688 105.371094 131.882812 C 107.140625 134.460938 109.589844 135.75 112.722656 135.75 C 115.726562 135.75 117.808594 134.558594 118.964844 132.171875 C 120.121094 129.789062 120.4375 126.058594 119.914062 120.988281 Z M 129.003906 118.785156 C 129.96875 126.871094 129.183594 132.972656 126.652344 137.085938 C 124.125 141.199219 119.773438 143.253906 113.609375 143.253906 C 107.546875 143.253906 102.742188 141.25 99.203125 137.238281 C 95.664062 133.230469 93.394531 127.296875 92.398438 119.441406 L 91.257812 109.714844 C 90.3125 101.644531 91.109375 95.589844 93.648438 91.558594 C 96.1875 87.53125 100.542969 85.515625 106.71875 85.515625 C 112.839844 85.515625 117.640625 87.476562 121.117188 91.40625 C 124.59375 95.335938 126.839844 101.21875 127.847656 109.058594 L 129.003906 118.785156 " fill-opacity="1" fill-rule="nonzero"/><path fill="#f4f5f8" d="M 145.335938 122.414062 L 160.003906 122.414062 L 157.179688 98.957031 L 156.636719 100.191406 Z M 169.359375 122.414062 L 176.328125 122.414062 L 177.238281 129.949219 L 170.269531 129.949219 L 171.78125 142.480469 L 162.417969 142.480469 L 160.910156 129.949219 L 136.6875 129.949219 L 135.734375 124.230469 L 155.347656 86.285156 L 164.996094 86.285156 L 169.359375 122.414062 " fill-opacity="1" fill-rule="nonzero"/><path fill="#e5e7fd" d="M 58.132812 119.941406 L 71.746094 119.941406 L 69.230469 98.296875 Z M 72.175781 120.707031 L 57.507812 120.707031 C 57.375 120.707031 57.25 120.640625 57.179688 120.523438 C 57.109375 120.410156 57.105469 120.269531 57.164062 120.152344 L 68.5625 97.925781 L 69.101562 96.710938 C 69.171875 96.554688 69.335938 96.460938 69.507812 96.488281 C 69.679688 96.515625 69.8125 96.652344 69.832031 96.824219 L 72.554688 120.28125 C 72.566406 120.390625 72.535156 120.5 72.460938 120.582031 C 72.386719 120.664062 72.285156 120.707031 72.175781 120.707031 Z M 74.84375 140.007812 L 83.4375 140.007812 L 82.027344 127.90625 C 82.015625 127.796875 82.050781 127.6875 82.121094 127.605469 C 82.195312 127.523438 82.296875 127.476562 82.410156 127.476562 L 88.949219 127.476562 L 88.15625 120.707031 L 81.53125 120.707031 C 81.335938 120.707031 81.171875 120.5625 81.148438 120.371094 L 76.976562 84.578125 L 67.90625 84.578125 L 48.296875 122.207031 L 49.152344 127.476562 L 73.050781 127.476562 C 73.246094 127.476562 73.40625 127.625 73.429688 127.816406 Z M 83.867188 140.773438 L 74.503906 140.773438 C 74.308594 140.773438 74.144531 140.628906 74.125 140.4375 L 72.707031 128.242188 L 48.824219 128.242188 C 48.636719 128.242188 48.476562 128.105469 48.445312 127.921875 L 47.519531 122.203125 C 47.507812 122.121094 47.519531 122.039062 47.558594 121.964844 L 67.332031 84.019531 C 67.398438 83.890625 67.53125 83.8125 67.671875 83.8125 L 77.320312 83.8125 C 77.515625 83.8125 77.675781 83.957031 77.699219 84.152344 L 81.871094 119.941406 L 88.5 119.941406 C 88.691406 119.941406 88.855469 120.089844 88.878906 120.28125 L 89.757812 127.816406 C 89.773438 127.925781 89.738281 128.035156 89.664062 128.113281 C 89.59375 128.195312 89.488281 128.242188 89.378906 128.242188 L 82.839844 128.242188 L 84.25 140.347656 C 84.261719 140.457031 84.226562 140.566406 84.15625 140.644531 C 84.082031 140.726562 83.976562 140.773438 83.867188 140.773438 " fill-opacity="1" fill-rule="nonzero"/><path fill="#e5e7fd" d="M 109.398438 91.316406 C 106.480469 91.316406 104.527344 92.386719 103.425781 94.589844 C 102.300781 96.839844 101.980469 100.433594 102.472656 105.273438 L 103.972656 118 C 104.578125 123.171875 105.761719 127.0625 107.484375 129.578125 C 109.191406 132.066406 111.492188 133.277344 114.519531 133.277344 C 117.390625 133.277344 119.320312 132.175781 120.414062 129.917969 C 121.535156 127.609375 121.839844 123.914062 121.328125 118.9375 L 119.824219 106.242188 C 119.210938 101.0625 118.046875 97.222656 116.363281 94.832031 C 114.699219 92.46875 112.421875 91.316406 109.398438 91.316406 Z M 114.519531 134.042969 C 111.265625 134.042969 108.6875 132.6875 106.851562 130.007812 C 105.058594 127.394531 103.832031 123.382812 103.210938 118.09375 L 101.714844 105.355469 C 101.203125 100.363281 101.550781 96.628906 102.738281 94.25 C 103.964844 91.792969 106.207031 90.550781 109.398438 90.550781 C 112.644531 90.550781 115.195312 91.84375 116.992188 94.394531 C 118.746094 96.886719 119.957031 100.84375 120.582031 106.152344 L 122.089844 118.851562 C 122.617188 123.980469 122.285156 127.8125 121.105469 130.25 C 119.886719 132.765625 117.667969 134.042969 114.519531 134.042969 Z M 108.511719 83.808594 C 102.507812 83.808594 98.21875 85.78125 95.769531 89.675781 C 93.289062 93.613281 92.503906 99.636719 93.433594 107.582031 L 94.574219 117.308594 C 95.558594 125.046875 97.816406 130.964844 101.285156 134.894531 C 104.734375 138.800781 109.484375 140.78125 115.40625 140.78125 C 121.398438 140.78125 125.679688 138.765625 128.125 134.792969 C 130.59375 130.777344 131.367188 124.703125 130.421875 116.742188 L 129.265625 107.015625 C 128.269531 99.292969 126.039062 93.421875 122.625 89.570312 C 119.242188 85.746094 114.492188 83.808594 108.511719 83.808594 Z M 115.40625 141.546875 C 109.253906 141.546875 104.3125 139.480469 100.710938 135.402344 C 97.140625 131.355469 94.816406 125.296875 93.816406 117.402344 L 92.675781 107.671875 C 91.722656 99.546875 92.546875 93.355469 95.121094 89.265625 C 97.722656 85.136719 102.226562 83.042969 108.511719 83.042969 C 114.722656 83.042969 119.664062 85.066406 123.199219 89.0625 C 126.714844 93.03125 129.007812 99.042969 130.023438 106.921875 L 131.179688 116.648438 C 132.148438 124.789062 131.339844 131.027344 128.773438 135.195312 C 126.183594 139.410156 121.683594 141.546875 115.40625 141.546875 " fill-opacity="1" fill-rule="nonzero"/><path fill="#e5e7fd" d="M 161.800781 120.707031 L 147.132812 120.707031 C 147 120.707031 146.875 120.640625 146.804688 120.527344 C 146.738281 120.410156 146.730469 120.273438 146.789062 120.152344 L 158.09375 97.929688 L 158.625 96.714844 C 158.695312 96.554688 158.863281 96.460938 159.035156 96.488281 C 159.203125 96.515625 159.335938 96.648438 159.355469 96.820312 L 161.113281 111.394531 C 161.136719 111.605469 160.988281 111.792969 160.777344 111.820312 C 160.5625 111.847656 160.375 111.695312 160.351562 111.488281 L 158.765625 98.296875 L 147.757812 119.941406 L 161.367188 119.941406 L 161.058594 117.363281 C 161.03125 117.152344 161.183594 116.960938 161.390625 116.9375 C 161.605469 116.910156 161.792969 117.0625 161.816406 117.269531 L 162.179688 120.28125 C 162.191406 120.390625 162.160156 120.496094 162.085938 120.578125 C 162.011719 120.660156 161.910156 120.707031 161.800781 120.707031 Z M 173.578125 140.773438 L 164.214844 140.773438 C 164.023438 140.773438 163.859375 140.628906 163.835938 140.4375 L 162.367188 128.242188 L 138.484375 128.242188 C 138.296875 128.242188 138.136719 128.109375 138.105469 127.925781 L 137.15625 122.203125 C 137.140625 122.125 137.152344 122.039062 137.191406 121.964844 L 156.804688 84.019531 C 156.871094 83.894531 157.003906 83.8125 157.144531 83.8125 L 166.792969 83.8125 C 166.984375 83.8125 167.148438 83.957031 167.171875 84.148438 L 168.355469 93.949219 C 168.378906 94.15625 168.230469 94.347656 168.019531 94.375 C 167.808594 94.398438 167.621094 94.25 167.59375 94.039062 L 166.453125 84.578125 L 157.378906 84.578125 L 137.929688 122.203125 L 138.808594 127.476562 L 162.707031 127.476562 C 162.902344 127.476562 163.0625 127.621094 163.085938 127.8125 L 164.554688 140.007812 L 173.148438 140.007812 L 171.9375 129.996094 C 171.914062 129.785156 172.0625 129.59375 172.273438 129.570312 C 172.480469 129.546875 172.671875 129.695312 172.699219 129.902344 L 173.957031 140.347656 C 173.972656 140.453125 173.9375 140.5625 173.867188 140.644531 C 173.792969 140.726562 173.6875 140.773438 173.578125 140.773438 " fill-opacity="1" fill-rule="nonzero"/><path fill="#e5e7fd" d="M 167.171875 172.007812 L 39.683594 172.007812 C 36.089844 172.007812 32.832031 169.058594 32.417969 165.441406 L 20.292969 59.171875 C 20.089844 57.40625 20.59375 55.746094 21.707031 54.496094 C 22.808594 53.261719 24.371094 52.585938 26.109375 52.585938 L 179.746094 52.585938 C 183.316406 52.585938 186.578125 55.5 187.015625 59.082031 L 191.230469 93.640625 C 191.253906 93.851562 191.105469 94.039062 190.898438 94.066406 C 190.6875 94.089844 190.496094 93.941406 190.46875 93.730469 L 186.253906 59.175781 C 185.863281 55.964844 182.941406 53.351562 179.746094 53.351562 L 26.109375 53.351562 C 24.59375 53.351562 23.230469 53.9375 22.28125 55.003906 C 21.3125 56.089844 20.878906 57.539062 21.054688 59.085938 L 33.179688 165.351562 C 33.546875 168.597656 36.464844 171.238281 39.683594 171.238281 L 167.171875 171.238281 C 167.382812 171.238281 167.554688 171.414062 167.554688 171.625 C 167.554688 171.835938 167.382812 172.007812 167.171875 172.007812 " fill-opacity="1" fill-rule="nonzero"/><path fill="#141619" d="M 143.871094 212.117188 L 89.960938 212.117188 C 89.75 212.117188 89.578125 211.945312 89.578125 211.734375 C 89.578125 211.523438 89.75 211.351562 89.960938 211.351562 L 143.871094 211.351562 C 144.554688 211.351562 145.089844 210.792969 145.089844 210.078125 L 145.089844 208.574219 C 145.089844 207.855469 144.542969 207.269531 143.871094 207.269531 L 128.246094 207.269531 C 128.035156 207.269531 127.863281 207.097656 127.863281 206.886719 C 127.863281 206.675781 128.035156 206.503906 128.246094 206.503906 L 143.871094 206.503906 C 144.964844 206.503906 145.855469 207.429688 145.855469 208.574219 L 145.855469 210.078125 C 145.855469 211.203125 144.964844 212.117188 143.871094 212.117188 " fill-opacity="1" fill-rule="nonzero"/><path fill="#0a21c0" d="M 72.476562 208.035156 L 26.019531 208.035156 L 30.417969 199.382812 L 34.25 191.84375 L 38.53125 183.425781 L 42.359375 175.890625 L 47.34375 166.101562 C 47.707031 165.382812 48.445312 164.933594 49.25 164.933594 C 50.054688 164.933594 50.789062 165.382812 51.15625 166.101562 L 56.136719 175.890625 L 59.96875 183.421875 L 64.25 191.839844 L 68.082031 199.382812 L 72.476562 208.035156 " fill-opacity="1" fill-rule="nonzero"/><path fill="#e5e7fd" d="M 59.96875 183.53125 L 38.53125 183.53125 L 42.359375 175.878906 L 56.136719 175.878906 L 59.96875 183.53125 " fill-opacity="1" fill-rule="nonzero"/><path fill="#e5e7fd" d="M 68.082031 199.355469 L 30.417969 199.355469 L 34.25 191.957031 L 64.25 191.957031 L 68.082031 199.355469 " fill-opacity="1" fill-rule="nonzero"/><path fill="#141619" d="M 26.414062 207.777344 L 71.625 207.777344 L 63.675781 192.015625 L 50.585938 166.273438 C 50.285156 165.683594 49.683594 165.316406 49.019531 165.316406 C 48.355469 165.316406 47.753906 165.683594 47.453125 166.277344 L 38.640625 183.613281 L 34.359375 192.050781 L 30.527344 199.617188 Z M 72.246094 208.542969 L 25.789062 208.542969 C 25.660156 208.542969 25.535156 208.476562 25.464844 208.363281 C 25.394531 208.25 25.390625 208.109375 25.449219 207.988281 L 29.847656 199.273438 L 33.679688 191.703125 L 41.789062 175.726562 L 46.773438 165.929688 C 47.203125 165.082031 48.066406 164.550781 49.019531 164.550781 C 49.976562 164.550781 50.835938 165.078125 51.265625 165.925781 L 64.359375 191.667969 L 72.589844 207.988281 C 72.648438 208.109375 72.644531 208.25 72.574219 208.363281 C 72.503906 208.476562 72.378906 208.542969 72.246094 208.542969 " fill-opacity="1" fill-rule="nonzero"/><path fill="#e5e7fd" d="M 76.785156 208.195312 C 76.785156 207.335938 76.089844 206.640625 75.226562 206.640625 L 23.039062 206.640625 C 22.179688 206.640625 21.484375 207.335938 21.484375 208.195312 L 21.484375 213.113281 C 21.484375 213.972656 22.179688 214.667969 23.039062 214.667969 L 75.226562 214.667969 C 76.089844 214.667969 76.785156 213.972656 76.785156 213.113281 L 76.785156 208.195312 " fill-opacity="1" fill-rule="nonzero"/><path fill="#141619" d="M 23.039062 207.023438 C 22.394531 207.023438 21.867188 207.546875 21.867188 208.195312 L 21.867188 213.113281 C 21.867188 213.761719 22.394531 214.289062 23.039062 214.289062 L 75.226562 214.289062 C 75.875 214.289062 76.402344 213.761719 76.402344 213.113281 L 76.402344 208.195312 C 76.402344 207.546875 75.875 207.023438 75.226562 207.023438 Z M 75.226562 215.054688 L 23.039062 215.054688 C 21.972656 215.054688 21.101562 214.183594 21.101562 213.113281 L 21.101562 208.195312 C 21.101562 207.125 21.972656 206.257812 23.039062 206.257812 L 75.226562 206.257812 C 76.296875 206.257812 77.167969 207.125 77.167969 208.195312 L 77.167969 213.113281 C 77.167969 214.183594 76.296875 215.054688 75.226562 215.054688 " fill-opacity="1" fill-rule="nonzero"/><path fill="#e5e7fd" d="M 201.851562 114.34375 C 207.890625 116.042969 215.664062 122.582031 215.664062 134.445312 C 215.664062 142.988281 203.078125 150.226562 203.078125 150.226562 L 201 145.132812 C 201 145.132812 207.941406 139.996094 207.605469 133.996094 C 207.339844 129.1875 199.585938 127.691406 199.585938 127.691406 L 201.851562 114.34375 " fill-opacity="1" fill-rule="nonzero"/><path fill="#e5e7fd" d="M 199.300781 211.828125 L 194.960938 211.828125 L 194.960938 206.730469 L 199.300781 206.730469 L 199.300781 211.828125 " fill-opacity="1" fill-rule="nonzero"/><path fill="#e5e7fd" d="M 187.75 210.882812 L 183.527344 211.878906 L 182.355469 206.921875 L 186.582031 205.921875 L 187.75 210.882812 " fill-opacity="1" fill-rule="nonzero"/><path fill="#141619" d="M 202.886719 143.503906 C 202.886719 143.503906 204.183594 153.753906 203.1875 157.734375 C 202.195312 161.710938 199.867188 198.480469 199.867188 208.429688 L 194.019531 208.429688 L 191.375 161.433594 L 183.210938 178.484375 C 182.617188 179.871094 182.464844 181.402344 182.78125 182.875 L 187.601562 208.429688 L 182.125 208.808594 L 172.976562 180.746094 C 172.566406 179.355469 172.535156 177.878906 172.886719 176.472656 L 180.308594 146.789062 L 202.886719 143.503906 " fill-opacity="1" fill-rule="nonzero"/><path fill="#f4f5f8" d="M 191.660156 160.78125 C 191.574219 160.78125 191.492188 160.753906 191.417969 160.695312 C 191.253906 160.5625 191.226562 160.324219 191.359375 160.15625 L 194.378906 156.382812 C 194.511719 156.21875 194.75 156.191406 194.917969 156.324219 C 195.082031 156.457031 195.109375 156.695312 194.976562 156.863281 L 191.957031 160.636719 C 191.878906 160.730469 191.769531 160.78125 191.660156 160.78125 " fill-opacity="1" fill-rule="nonzero"/><path fill="#f4f5f8" d="M 199.585938 210.695312 L 194.488281 210.695312 L 193.734375 214.542969 C 193.589844 215.28125 194.125 215.980469 194.84375 215.980469 L 199.234375 215.980469 C 199.949219 215.980469 200.488281 215.28125 200.34375 214.542969 L 199.585938 210.695312 " fill-opacity="1" fill-rule="nonzero"/><path fill="#141619" d="M 194.804688 211.078125 L 194.109375 214.617188 C 194.058594 214.871094 194.121094 215.128906 194.28125 215.324219 C 194.425781 215.5 194.625 215.597656 194.839844 215.597656 L 199.234375 215.597656 C 199.449219 215.597656 199.648438 215.5 199.789062 215.324219 C 199.953125 215.128906 200.015625 214.871094 199.964844 214.617188 L 199.269531 211.078125 Z M 199.234375 216.363281 L 194.839844 216.363281 C 194.398438 216.363281 193.980469 216.164062 193.691406 215.8125 C 193.386719 215.441406 193.265625 214.949219 193.355469 214.46875 L 194.113281 210.621094 C 194.148438 210.441406 194.304688 210.3125 194.488281 210.3125 L 199.585938 210.3125 C 199.769531 210.3125 199.925781 210.441406 199.960938 210.621094 L 200.714844 214.46875 C 200.808594 214.949219 200.691406 215.441406 200.382812 215.8125 C 200.09375 216.164062 199.675781 216.363281 199.234375 216.363281 " fill-opacity="1" fill-rule="nonzero"/><path fill="#141619" d="M 199.585938 215.136719 L 194.300781 215.136719 C 194.089844 215.136719 193.917969 214.964844 193.917969 214.753906 C 193.917969 214.542969 194.089844 214.371094 194.300781 214.371094 L 199.585938 214.371094 C 199.796875 214.371094 199.96875 214.542969 199.96875 214.753906 C 199.96875 214.964844 199.796875 215.136719 199.585938 215.136719 " fill-opacity="1" fill-rule="nonzero"/><path fill="#f4f5f8" d="M 187.882812 209.5625 L 189.28125 214.195312 C 189.523438 215 189.03125 215.851562 188.308594 215.875 L 178.722656 216.199219 C 178.128906 216.222656 177.894531 215.300781 178.394531 214.925781 C 179.953125 213.753906 182.027344 212.125 182.597656 211.351562 C 183.921875 209.5625 185.242188 211.128906 185.242188 211.128906 C 185.242188 211.128906 186.183594 209.5625 187.882812 209.5625 " fill-opacity="1" fill-rule="nonzero"/><path fill="#141619" d="M 183.976562 210.878906 C 183.964844 210.878906 183.957031 210.878906 183.945312 210.878906 C 183.589844 210.890625 183.242188 211.128906 182.90625 211.582031 C 182.433594 212.222656 180.988281 213.453125 178.625 215.230469 C 178.492188 215.332031 178.480469 215.519531 178.53125 215.652344 C 178.546875 215.703125 178.601562 215.820312 178.707031 215.820312 C 178.707031 215.820312 178.707031 215.820312 178.710938 215.820312 L 188.296875 215.492188 C 188.542969 215.484375 188.703125 215.3125 188.777344 215.210938 C 188.953125 214.964844 189.007812 214.617188 188.914062 214.304688 L 187.605469 209.960938 C 186.320312 210.121094 185.578125 211.316406 185.570312 211.328125 C 185.503906 211.433594 185.394531 211.5 185.269531 211.511719 C 185.148438 211.519531 185.027344 211.46875 184.949219 211.375 C 184.945312 211.371094 184.515625 210.878906 183.976562 210.878906 Z M 178.703125 216.582031 C 178.304688 216.582031 177.953125 216.320312 177.808594 215.90625 C 177.636719 215.425781 177.78125 214.90625 178.164062 214.621094 C 180.40625 212.933594 181.871094 211.691406 182.289062 211.125 C 182.773438 210.472656 183.324219 210.132812 183.925781 210.113281 C 184.457031 210.085938 184.898438 210.339844 185.183594 210.558594 C 185.609375 210.042969 186.527344 209.179688 187.882812 209.179688 C 188.050781 209.179688 188.203125 209.289062 188.25 209.453125 L 189.644531 214.082031 C 189.808594 214.625 189.71875 215.214844 189.398438 215.65625 C 189.136719 216.027344 188.742188 216.246094 188.320312 216.257812 L 178.738281 216.582031 C 178.722656 216.582031 178.714844 216.582031 178.703125 216.582031 " fill-opacity="1" fill-rule="nonzero"/><path fill="#f4f5f8" d="M 179.769531 214.753906 L 188.449219 214.375 L 179.769531 214.753906 " fill-opacity="1" fill-rule="nonzero"/><path fill="#141619" d="M 179.769531 215.136719 C 179.566406 215.136719 179.394531 214.976562 179.386719 214.769531 C 179.375 214.558594 179.539062 214.378906 179.75 214.371094 L 188.433594 213.992188 C 188.648438 213.980469 188.824219 214.148438 188.832031 214.359375 C 188.839844 214.570312 188.675781 214.75 188.464844 214.757812 L 179.785156 215.136719 C 179.777344 215.136719 179.773438 215.136719 179.769531 215.136719 " fill-opacity="1" fill-rule="nonzero"/><path fill="#f4f5f8" d="M 192.980469 111.703125 L 197.699219 114.910156 L 184.703125 114.289062 L 188.449219 111.890625 L 188.953125 109.570312 C 188.289062 109.472656 187.375 109.40625 187.085938 109.042969 C 186.570312 108.402344 186.800781 106.1875 186.800781 106.1875 L 186.238281 105.746094 C 186.179688 105.714844 186.136719 105.660156 186.117188 105.597656 C 186.097656 105.53125 186.109375 105.460938 186.144531 105.40625 C 186.625 104.644531 187.074219 104.398438 187.285156 103.621094 C 187.496094 102.855469 187.402344 102.972656 188.226562 101.324219 L 193.167969 101.316406 L 193.195312 105.019531 C 193.195312 105.019531 193.953125 104.53125 194.433594 105.191406 C 194.785156 105.671875 194.011719 107.28125 193.382812 107.28125 L 192.980469 111.703125 " fill-opacity="1" fill-rule="nonzero"/><path fill="#141619" d="M 185.921875 113.964844 L 196.359375 114.464844 L 192.761719 112.019531 C 192.648438 111.941406 192.585938 111.808594 192.597656 111.667969 L 193.003906 107.246094 C 193.019531 107.050781 193.1875 106.902344 193.382812 106.902344 C 193.4375 106.894531 193.652344 106.757812 193.878906 106.351562 C 194.128906 105.898438 194.167969 105.5 194.121094 105.414062 C 193.863281 105.058594 193.449219 105.3125 193.402344 105.339844 C 193.285156 105.417969 193.136719 105.421875 193.015625 105.355469 C 192.890625 105.289062 192.816406 105.160156 192.8125 105.023438 L 192.789062 101.699219 L 188.464844 101.707031 C 187.871094 102.894531 187.84375 103.003906 187.726562 103.449219 C 187.707031 103.527344 187.683594 103.617188 187.65625 103.722656 C 187.5 104.289062 187.234375 104.617188 186.949219 104.960938 C 186.816406 105.125 186.679688 105.289062 186.542969 105.496094 L 187.039062 105.886719 C 187.144531 105.96875 187.195312 106.097656 187.183594 106.226562 C 187.09375 107.085938 187.097656 108.449219 187.382812 108.804688 C 187.535156 108.992188 188.261719 109.089844 188.699219 109.148438 C 188.804688 109.164062 188.910156 109.179688 189.011719 109.191406 C 189.113281 109.207031 189.207031 109.265625 189.269531 109.351562 C 189.328125 109.441406 189.347656 109.546875 189.328125 109.652344 L 188.824219 111.972656 C 188.800781 112.074219 188.742188 112.160156 188.65625 112.214844 Z M 197.699219 115.296875 C 197.691406 115.296875 197.683594 115.292969 197.679688 115.292969 L 184.6875 114.671875 C 184.519531 114.664062 184.378906 114.550781 184.335938 114.386719 C 184.292969 114.226562 184.359375 114.058594 184.5 113.96875 L 188.109375 111.65625 L 188.492188 109.894531 C 187.804688 109.800781 187.113281 109.691406 186.785156 109.28125 C 186.273438 108.644531 186.347656 107.015625 186.402344 106.363281 L 186.027344 106.066406 C 185.890625 105.980469 185.792969 105.851562 185.75 105.699219 C 185.703125 105.53125 185.730469 105.351562 185.824219 105.203125 C 186.011719 104.902344 186.195312 104.675781 186.359375 104.476562 C 186.617188 104.160156 186.804688 103.929688 186.917969 103.519531 C 186.945312 103.417969 186.964844 103.332031 186.988281 103.253906 C 187.128906 102.714844 187.175781 102.570312 187.882812 101.152344 C 187.949219 101.023438 188.082031 100.941406 188.226562 100.941406 L 193.167969 100.933594 C 193.378906 100.933594 193.550781 101.105469 193.550781 101.3125 L 193.574219 104.480469 C 193.96875 104.421875 194.417969 104.519531 194.746094 104.96875 C 195.125 105.492188 194.730469 106.367188 194.597656 106.625 C 194.472656 106.875 194.167969 107.382812 193.738281 107.582031 L 193.378906 111.511719 L 197.914062 114.59375 C 198.054688 114.691406 198.117188 114.871094 198.0625 115.035156 C 198.007812 115.191406 197.863281 115.296875 197.699219 115.296875 " fill-opacity="1" fill-rule="nonzero"/><path fill="#141619" d="M 193.625 108.9375 C 192.628906 109.269531 191.644531 108.492188 191.472656 108.351562 C 190.777344 107.800781 190.214844 106.824219 190.492188 106.394531 C 190.644531 106.15625 190.917969 106.285156 191.273438 106.003906 C 191.800781 105.582031 191.949219 104.679688 191.664062 104.433594 C 191.433594 104.234375 191.070312 104.617188 190.6875 104.433594 C 190.222656 104.210938 190.460938 103.496094 190.097656 102.867188 C 189.511719 101.839844 188.140625 102.460938 187.085938 101.367188 C 186.394531 100.652344 186.097656 99.460938 186.492188 98.785156 C 186.605469 98.59375 186.78125 98.417969 187.03125 98.277344 C 188.691406 97.367188 188.9375 98.617188 190.554688 98.628906 C 193.878906 98.660156 195.507812 99.324219 196.109375 100.703125 C 196.519531 101.636719 196.019531 103.125 195.777344 103.847656 C 195.699219 104.089844 195.53125 104.542969 195.386719 105.21875 C 195.230469 105.957031 195.277344 106.148438 195.191406 106.589844 C 195.128906 106.898438 194.796875 108.546875 193.625 108.9375 " fill-opacity="1" fill-rule="nonzero"/><path fill="#f4f5f8" d="M 186.179688 103.140625 C 186.179688 103.140625 187.644531 103.679688 187.964844 102.949219 C 188.285156 102.214844 187.773438 101.609375 188.570312 101.035156 C 189.371094 100.460938 191.285156 99.851562 190.582031 98.992188 C 189.878906 98.128906 187.742188 97.777344 187.136719 98.800781 C 186.53125 99.820312 186.082031 101.574219 185.667969 101.609375 C 185.253906 101.640625 185.410156 102.960938 186.179688 103.140625 " fill-opacity="1" fill-rule="nonzero"/><path fill="#141619" d="M 186.3125 102.78125 C 186.773438 102.949219 187.503906 103.050781 187.613281 102.792969 C 187.707031 102.585938 187.707031 102.382812 187.707031 102.148438 C 187.703125 101.71875 187.699219 101.1875 188.347656 100.722656 C 188.570312 100.5625 188.855469 100.410156 189.15625 100.246094 C 189.582031 100.015625 190.300781 99.632812 190.347656 99.378906 C 190.355469 99.34375 190.335938 99.292969 190.285156 99.234375 C 189.941406 98.8125 189.082031 98.511719 188.363281 98.566406 C 188.113281 98.582031 187.664062 98.664062 187.464844 98.996094 C 187.234375 99.386719 187.015625 99.917969 186.824219 100.386719 C 186.460938 101.269531 186.226562 101.835938 185.832031 101.964844 C 185.816406 102.058594 185.832031 102.25 185.929688 102.449219 C 185.976562 102.546875 186.085938 102.722656 186.265625 102.765625 C 186.28125 102.769531 186.296875 102.773438 186.3125 102.78125 Z M 187.1875 103.714844 C 186.695312 103.714844 186.207031 103.554688 186.066406 103.507812 C 185.316406 103.316406 185.023438 102.453125 185.066406 101.925781 C 185.097656 101.484375 185.335938 101.28125 185.570312 101.234375 C 185.707031 101.089844 185.953125 100.496094 186.113281 100.09375 C 186.316406 99.601562 186.546875 99.042969 186.808594 98.605469 C 187.082031 98.136719 187.617188 97.851562 188.304688 97.800781 C 189.285156 97.726562 190.371094 98.128906 190.878906 98.75 C 191.128906 99.054688 191.136719 99.34375 191.101562 99.527344 C 190.976562 100.136719 190.234375 100.535156 189.519531 100.921875 C 189.238281 101.070312 188.976562 101.210938 188.792969 101.34375 C 188.46875 101.582031 188.46875 101.769531 188.46875 102.144531 C 188.46875 102.410156 188.472656 102.742188 188.316406 103.101562 C 188.109375 103.578125 187.644531 103.714844 187.1875 103.714844 " fill-opacity="1" fill-rule="nonzero"/><path fill="#e5e7fd" d="M 179.769531 113.59375 C 179.769531 113.59375 191.089844 110.382812 201.851562 114.347656 C 202.675781 119.117188 203.246094 123.234375 203.640625 126.496094 C 204.339844 132.238281 203.90625 130.40625 204.777344 138.789062 C 205.316406 143.996094 205.460938 144.476562 204.964844 145.394531 C 202.46875 150.023438 192.410156 149.769531 188.542969 148.789062 C 188.269531 148.71875 187.132812 148.421875 185.277344 147.953125 C 183.152344 147.417969 181.40625 146.992188 180.238281 146.714844 C 179.609375 146.429688 178.757812 145.921875 178.164062 145.015625 C 176.832031 142.984375 177.722656 140.355469 178.164062 138.597656 C 179.296875 134.089844 177.808594 133.992188 178.164062 125.765625 C 178.285156 122.886719 178.648438 118.710938 179.769531 113.59375 " fill-opacity="1" fill-rule="nonzero"/><path fill="#f4f5f8" d="M 200.484375 148.921875 C 200.296875 148.921875 200.132812 148.785156 200.105469 148.59375 C 200.074219 148.386719 200.21875 148.191406 200.429688 148.160156 C 200.632812 148.128906 205.445312 147.367188 204.808594 142.804688 C 204.78125 142.59375 204.925781 142.402344 205.132812 142.371094 C 205.339844 142.34375 205.539062 142.488281 205.566406 142.699219 C 206.308594 148.015625 200.59375 148.910156 200.535156 148.917969 C 200.519531 148.921875 200.5 148.921875 200.484375 148.921875 " fill-opacity="1" fill-rule="nonzero"/><path fill="#f4f5f8" d="M 187.367188 144.519531 C 187.269531 144.519531 187.171875 144.484375 187.097656 144.410156 C 182.585938 139.957031 181.652344 133.226562 181.613281 132.941406 C 181.589844 132.730469 181.734375 132.539062 181.945312 132.511719 C 182.15625 132.484375 182.347656 132.632812 182.375 132.839844 C 182.382812 132.910156 183.3125 139.601562 187.636719 143.863281 C 187.785156 144.011719 187.789062 144.253906 187.640625 144.402344 C 187.566406 144.480469 187.464844 144.519531 187.367188 144.519531 " fill-opacity="1" fill-rule="nonzero"/><path fill="#e5e7fd" d="M 175.75 107.515625 C 175.753906 107.316406 175.902344 107.144531 176.097656 107.109375 L 187.285156 103.621094 L 186.316406 101.316406 C 186.316406 101.316406 171.167969 96.507812 164.0625 102.640625 C 156.953125 108.777344 171.242188 123.933594 179.304688 127.445312 L 186.691406 112.621094 L 176.070312 107.949219 C 175.875 107.898438 175.742188 107.71875 175.75 107.515625 " fill-opacity="1" fill-rule="nonzero"/><path fill="#f4f5f8" d="M 210.367188 69.824219 C 210.367188 78.332031 203.46875 85.230469 194.960938 85.230469 C 186.453125 85.230469 179.558594 78.332031 179.558594 69.824219 C 179.558594 61.320312 186.453125 54.421875 194.960938 54.421875 C 203.46875 54.421875 210.367188 61.320312 210.367188 69.824219 " fill-opacity="1" fill-rule="nonzero"/><path fill="#141619" d="M 194.960938 54.804688 C 186.679688 54.804688 179.941406 61.542969 179.941406 69.824219 C 179.941406 78.109375 186.679688 84.847656 194.960938 84.847656 C 203.242188 84.847656 209.984375 78.109375 209.984375 69.824219 C 209.984375 61.542969 203.242188 54.804688 194.960938 54.804688 Z M 194.960938 85.613281 C 186.257812 85.613281 179.175781 78.53125 179.175781 69.824219 C 179.175781 61.121094 186.257812 54.039062 194.960938 54.039062 C 203.664062 54.039062 210.746094 61.121094 210.746094 69.824219 C 210.746094 78.53125 203.664062 85.613281 194.960938 85.613281 " fill-opacity="1" fill-rule="nonzero"/><path fill="#0a21c0" d="M 204.664062 69.828125 C 204.664062 75.1875 200.320312 79.53125 194.960938 79.53125 C 189.601562 79.53125 185.257812 75.1875 185.257812 69.828125 C 185.257812 64.46875 189.601562 60.121094 194.960938 60.121094 C 200.320312 60.121094 204.664062 64.46875 204.664062 69.828125 " fill-opacity="1" fill-rule="nonzero"/><path fill="#f4f5f8" d="M 190.789062 74.21875 C 190.753906 74.21875 190.71875 74.214844 190.6875 74.207031 C 190.480469 74.152344 190.363281 73.941406 190.417969 73.734375 C 190.984375 71.660156 192.890625 70.210938 195.042969 70.210938 C 197.089844 70.210938 198.914062 71.511719 199.578125 73.449219 C 199.648438 73.648438 199.542969 73.867188 199.34375 73.933594 C 199.140625 74 198.925781 73.894531 198.855469 73.695312 C 198.296875 72.070312 196.765625 70.976562 195.042969 70.976562 C 193.230469 70.976562 191.632812 72.191406 191.15625 73.9375 C 191.109375 74.109375 190.957031 74.21875 190.789062 74.21875 " fill-opacity="1" fill-rule="nonzero"/><path fill="#f4f5f8" d="M 191.785156 68.183594 C 191.683594 68.183594 191.585938 68.144531 191.511719 68.070312 L 189.332031 65.890625 C 189.183594 65.742188 189.183594 65.5 189.332031 65.351562 C 189.480469 65.199219 189.722656 65.199219 189.875 65.351562 L 192.054688 67.53125 C 192.203125 67.679688 192.203125 67.921875 192.054688 68.070312 C 191.980469 68.144531 191.882812 68.183594 191.785156 68.183594 " fill-opacity="1" fill-rule="nonzero"/><path fill="#f4f5f8" d="M 191.785156 68.183594 C 191.683594 68.183594 191.585938 68.144531 191.511719 68.070312 L 189.332031 65.890625 C 189.183594 65.742188 189.183594 65.5 189.332031 65.351562 C 189.480469 65.199219 189.722656 65.199219 189.875 65.351562 L 192.054688 67.53125 C 192.203125 67.679688 192.203125 67.921875 192.054688 68.070312 C 191.980469 68.144531 191.882812 68.183594 191.785156 68.183594 " fill-opacity="1" fill-rule="nonzero"/><path fill="#f4f5f8" d="M 189.601562 68.183594 C 189.503906 68.183594 189.40625 68.144531 189.332031 68.070312 C 189.183594 67.921875 189.183594 67.679688 189.332031 67.53125 L 191.511719 65.351562 C 191.660156 65.199219 191.902344 65.199219 192.054688 65.351562 C 192.203125 65.5 192.203125 65.742188 192.054688 65.890625 L 189.875 68.070312 C 189.796875 68.144531 189.703125 68.183594 189.601562 68.183594 " fill-opacity="1" fill-rule="nonzero"/><path fill="#f4f5f8" d="M 200.457031 68.183594 C 200.363281 68.183594 200.265625 68.148438 200.191406 68.074219 L 198.007812 65.890625 C 197.859375 65.742188 197.859375 65.5 198.007812 65.351562 C 198.160156 65.203125 198.398438 65.203125 198.550781 65.351562 L 200.730469 67.53125 C 200.878906 67.679688 200.878906 67.921875 200.730469 68.074219 C 200.65625 68.148438 200.554688 68.183594 200.457031 68.183594 " fill-opacity="1" fill-rule="nonzero"/><path fill="#f4f5f8" d="M 198.277344 68.183594 C 198.179688 68.183594 198.082031 68.148438 198.007812 68.074219 C 197.859375 67.921875 197.859375 67.679688 198.007812 67.53125 L 200.191406 65.351562 C 200.335938 65.203125 200.578125 65.203125 200.730469 65.351562 C 200.878906 65.5 200.878906 65.742188 200.730469 65.890625 L 198.550781 68.074219 C 198.476562 68.148438 198.375 68.183594 198.277344 68.183594 " fill-opacity="1" fill-rule="nonzero"/><path fill="#141619" d="M 142.941406 21.710938 C 142.875 21.710938 142.808594 21.699219 142.746094 21.671875 C 127.609375 15.363281 110.144531 13.433594 92.246094 16.101562 C 91.964844 16.140625 91.707031 15.953125 91.664062 15.671875 C 91.625 15.394531 91.816406 15.132812 92.09375 15.09375 C 110.175781 12.398438 127.828125 14.347656 143.136719 20.730469 C 143.398438 20.835938 143.523438 21.136719 143.414062 21.398438 C 143.332031 21.59375 143.140625 21.710938 142.941406 21.710938 " fill-opacity="1" fill-rule="nonzero"/><path fill="#141619" d="M 150.230469 19.535156 C 150.152344 19.535156 150.070312 19.515625 149.996094 19.476562 C 148.695312 18.800781 147.347656 18.144531 145.988281 17.53125 C 126.945312 8.925781 103.902344 7.300781 81.101562 12.949219 C 80.828125 13.015625 80.550781 12.847656 80.484375 12.578125 C 80.417969 12.300781 80.582031 12.023438 80.855469 11.957031 C 103.878906 6.253906 127.15625 7.902344 146.410156 16.601562 C 147.785156 17.222656 149.152344 17.886719 150.46875 18.570312 C 150.71875 18.699219 150.816406 19.007812 150.683594 19.257812 C 150.59375 19.433594 150.417969 19.535156 150.230469 19.535156 " fill-opacity="1" fill-rule="nonzero"/><path fill="#141619" d="M 166.3125 37.582031 C 166.109375 37.582031 165.941406 37.421875 165.929688 37.214844 C 165.917969 37.003906 166.082031 36.824219 166.292969 36.816406 L 168.132812 36.726562 C 168.34375 36.71875 168.523438 36.878906 168.53125 37.089844 C 168.542969 37.300781 168.378906 37.480469 168.171875 37.492188 L 166.332031 37.582031 C 166.324219 37.582031 166.316406 37.582031 166.3125 37.582031 " fill-opacity="1" fill-rule="nonzero"/><path fill="#141619" d="M 172.746094 37.273438 C 172.542969 37.273438 172.375 37.113281 172.363281 36.90625 C 172.355469 36.695312 172.519531 36.515625 172.730469 36.507812 L 174.566406 36.417969 C 174.773438 36.410156 174.957031 36.570312 174.96875 36.78125 C 174.976562 36.992188 174.816406 37.171875 174.601562 37.183594 L 172.765625 37.273438 C 172.757812 37.273438 172.753906 37.273438 172.746094 37.273438 " fill-opacity="1" fill-rule="nonzero"/><path fill="#141619" d="M 170.671875 41.519531 C 170.46875 41.519531 170.300781 41.363281 170.289062 41.15625 L 170.191406 39.320312 C 170.179688 39.109375 170.34375 38.925781 170.550781 38.914062 C 170.765625 38.910156 170.945312 39.066406 170.957031 39.277344 L 171.054688 41.117188 C 171.066406 41.328125 170.90625 41.507812 170.691406 41.519531 C 170.6875 41.519531 170.679688 41.519531 170.671875 41.519531 " fill-opacity="1" fill-rule="nonzero"/><path fill="#141619" d="M 170.324219 35.082031 C 170.121094 35.082031 169.957031 34.925781 169.941406 34.71875 L 169.84375 32.882812 C 169.832031 32.671875 169.996094 32.492188 170.207031 32.476562 C 170.414062 32.472656 170.597656 32.628906 170.609375 32.839844 L 170.707031 34.679688 C 170.71875 34.890625 170.558594 35.070312 170.347656 35.082031 C 170.339844 35.082031 170.332031 35.082031 170.324219 35.082031 " fill-opacity="1" fill-rule="nonzero"/><path fill="#141619" d="M 153.675781 192.386719 C 153.605469 192.386719 153.535156 192.367188 153.472656 192.328125 L 152.164062 191.519531 C 151.984375 191.40625 151.929688 191.171875 152.039062 190.992188 C 152.152344 190.8125 152.386719 190.753906 152.566406 190.867188 L 153.878906 191.675781 C 154.058594 191.789062 154.113281 192.023438 154 192.203125 C 153.929688 192.320312 153.804688 192.386719 153.675781 192.386719 " fill-opacity="1" fill-rule="nonzero"/><path fill="#141619" d="M 158.257812 195.21875 C 158.1875 195.21875 158.117188 195.199219 158.054688 195.160156 L 156.746094 194.351562 C 156.566406 194.242188 156.511719 194.003906 156.621094 193.824219 C 156.734375 193.644531 156.96875 193.589844 157.148438 193.699219 L 158.457031 194.511719 C 158.640625 194.621094 158.695312 194.855469 158.582031 195.039062 C 158.511719 195.15625 158.386719 195.21875 158.257812 195.21875 " fill-opacity="1" fill-rule="nonzero"/><path fill="#141619" d="M 153.503906 196.355469 C 153.4375 196.355469 153.367188 196.335938 153.304688 196.296875 C 153.125 196.1875 153.070312 195.953125 153.179688 195.769531 L 153.980469 194.457031 C 154.089844 194.277344 154.328125 194.21875 154.507812 194.332031 C 154.6875 194.441406 154.746094 194.675781 154.632812 194.855469 L 153.832031 196.171875 C 153.757812 196.289062 153.632812 196.355469 153.503906 196.355469 " fill-opacity="1" fill-rule="nonzero"/><path fill="#141619" d="M 156.3125 191.753906 C 156.246094 191.753906 156.179688 191.738281 156.117188 191.699219 C 155.933594 191.585938 155.878906 191.351562 155.988281 191.171875 L 156.792969 189.859375 C 156.902344 189.675781 157.136719 189.621094 157.316406 189.730469 C 157.5 189.839844 157.554688 190.078125 157.445312 190.257812 L 156.644531 191.570312 C 156.570312 191.6875 156.445312 191.753906 156.3125 191.753906 " fill-opacity="1" fill-rule="nonzero"/><path fill="#141619" d="M 54.601562 31.511719 C 54.5625 31.511719 54.523438 31.507812 54.484375 31.496094 L 53.058594 31.050781 C 52.855469 30.984375 52.742188 30.769531 52.808594 30.570312 C 52.871094 30.367188 53.085938 30.253906 53.289062 30.316406 L 54.714844 30.765625 C 54.917969 30.828125 55.027344 31.042969 54.964844 31.246094 C 54.914062 31.410156 54.761719 31.511719 54.601562 31.511719 " fill-opacity="1" fill-rule="nonzero"/><path fill="#141619" d="M 49.601562 29.949219 C 49.566406 29.949219 49.527344 29.945312 49.488281 29.933594 L 48.0625 29.488281 C 47.859375 29.421875 47.746094 29.207031 47.808594 29.007812 C 47.871094 28.804688 48.085938 28.691406 48.289062 28.753906 L 49.71875 29.203125 C 49.917969 29.265625 50.03125 29.480469 49.96875 29.683594 C 49.917969 29.847656 49.765625 29.949219 49.601562 29.949219 " fill-opacity="1" fill-rule="nonzero"/><path fill="#141619" d="M 51.9375 28.71875 C 51.898438 28.71875 51.859375 28.714844 51.824219 28.703125 C 51.621094 28.640625 51.507812 28.425781 51.570312 28.226562 L 52.007812 26.792969 C 52.070312 26.59375 52.285156 26.476562 52.484375 26.539062 C 52.6875 26.601562 52.800781 26.816406 52.738281 27.019531 L 52.300781 28.449219 C 52.25 28.613281 52.101562 28.71875 51.9375 28.71875 " fill-opacity="1" fill-rule="nonzero"/><path fill="#141619" d="M 50.402344 33.726562 C 50.363281 33.726562 50.328125 33.722656 50.289062 33.710938 C 50.085938 33.648438 49.972656 33.433594 50.035156 33.234375 L 50.472656 31.800781 C 50.535156 31.601562 50.75 31.484375 50.953125 31.546875 C 51.152344 31.609375 51.269531 31.824219 51.207031 32.027344 L 50.765625 33.457031 C 50.71875 33.621094 50.566406 33.726562 50.402344 33.726562 " fill-opacity="1" fill-rule="nonzero"/><path fill="#141619" d="M 75.554688 12.851562 C 75.492188 12.851562 75.429688 12.859375 75.363281 12.867188 C 74.695312 12.972656 74.234375 13.605469 74.339844 14.273438 C 74.390625 14.597656 74.566406 14.882812 74.832031 15.078125 C 75.097656 15.269531 75.421875 15.347656 75.746094 15.296875 C 76.417969 15.191406 76.875 14.558594 76.769531 13.890625 C 76.675781 13.285156 76.152344 12.851562 75.554688 12.851562 Z M 75.550781 16.078125 C 75.132812 16.078125 74.726562 15.949219 74.382812 15.695312 C 73.949219 15.382812 73.667969 14.921875 73.585938 14.394531 C 73.414062 13.304688 74.15625 12.28125 75.246094 12.109375 C 76.332031 11.9375 77.355469 12.683594 77.527344 13.773438 C 77.699219 14.859375 76.953125 15.882812 75.867188 16.054688 C 75.761719 16.070312 75.65625 16.078125 75.550781 16.078125 " fill-opacity="1" fill-rule="nonzero"/></svg>