<svg xmlns="http://www.w3.org/2000/svg" xmlns:xlink="http://www.w3.org/1999/xlink" width="500" zoomAndPan="magnify" viewBox="0 0 375 374.999991" height="500" preserveAspectRatio="xMidYMid meet" version="1.0"><path fill="#b3b4bd" d="M 157.605469 16.292969 C 150.207031 18.597656 117.378906 29.316406 84.597656 57.761719 C 76.65625 64.652344 44.554688 92.5 30.84375 129.945312 C 7.5 193.679688 35.433594 290.640625 115.886719 329.605469 C 209.597656 374.992188 327.972656 319.128906 354.96875 244.367188 C 366.945312 211.207031 367.484375 156.222656 337.320312 119.960938 C 313.042969 90.78125 271.527344 76.917969 273.136719 49.316406 C 273.910156 36.019531 283.941406 32.34375 281.160156 23.972656 C 274.5625 4.113281 209.894531 -0.00390625 157.605469 16.292969 " fill-opacity="1" fill-rule="nonzero"/><path fill="#e5e7fd" d="M 80.527344 110.378906 C 91.375 108.867188 101.394531 116.429688 102.90625 127.265625 C 104.417969 138.101562 96.847656 148.109375 86 149.617188 C 75.152344 151.125 65.132812 143.566406 63.621094 132.730469 C 62.109375 121.894531 69.679688 111.886719 80.527344 110.378906 Z M 43.257812 131.675781 L 44.320312 139.300781 L 52.707031 140 C 53.269531 141.71875 53.964844 143.375 54.789062 144.941406 L 49.460938 151.429688 L 54.195312 157.5 L 61.808594 153.917969 C 63.144531 155.109375 64.574219 156.191406 66.085938 157.144531 L 64.71875 165.441406 L 71.855469 168.332031 L 76.652344 161.4375 C 78.386719 161.804688 80.167969 162.019531 81.980469 162.089844 L 84.945312 169.953125 L 92.574219 168.894531 L 93.277344 160.515625 C 95 159.953125 96.652344 159.261719 98.222656 158.4375 L 104.722656 163.757812 L 110.796875 159.03125 L 107.214844 151.425781 C 108.40625 150.089844 109.488281 148.664062 110.445312 147.152344 L 118.75 148.523438 L 121.644531 141.390625 L 114.742188 136.601562 C 115.105469 134.867188 115.324219 133.085938 115.394531 131.28125 L 123.265625 128.316406 L 122.203125 120.695312 L 113.820312 119.996094 C 113.257812 118.273438 112.5625 116.621094 111.738281 115.054688 L 117.066406 108.566406 L 112.332031 102.496094 L 104.714844 106.074219 C 103.382812 104.882812 101.953125 103.804688 100.4375 102.847656 L 101.808594 94.554688 L 94.667969 91.664062 L 89.875 98.558594 C 88.140625 98.191406 86.359375 97.976562 84.546875 97.90625 L 81.582031 90.042969 L 73.949219 91.105469 L 73.25 99.476562 C 71.527344 100.039062 69.871094 100.734375 68.300781 101.558594 L 61.804688 96.234375 L 55.726562 100.964844 L 59.3125 108.566406 C 58.121094 109.902344 57.039062 111.332031 56.082031 112.84375 L 47.777344 111.476562 L 44.882812 118.605469 L 51.785156 123.394531 C 51.421875 125.128906 51.203125 126.90625 51.132812 128.714844 L 43.257812 131.675781 " fill-opacity="1" fill-rule="nonzero"/><path fill="#141619" d="M 43.371094 227.308594 C 43.164062 227.308594 42.957031 227.203125 42.84375 227.007812 C 32.390625 209.558594 29.023438 189.367188 32.550781 165.28125 C 32.601562 164.945312 32.910156 164.714844 33.246094 164.761719 C 33.582031 164.808594 33.816406 165.121094 33.765625 165.457031 C 30.28125 189.253906 33.59375 209.179688 43.898438 226.378906 C 44.070312 226.667969 43.976562 227.046875 43.683594 227.21875 C 43.585938 227.28125 43.476562 227.308594 43.371094 227.308594 " fill-opacity="1" fill-rule="nonzero"/><path fill="#141619" d="M 37.015625 224.808594 C 36.84375 224.808594 36.671875 224.738281 36.550781 224.597656 C 32.570312 220.050781 29.421875 212.320312 27.691406 202.824219 C 26.144531 194.335938 25.90625 185.226562 27.058594 178.460938 C 27.117188 178.125 27.4375 177.902344 27.769531 177.957031 C 28.101562 178.015625 28.328125 178.332031 28.269531 178.664062 C 25.941406 192.347656 29.382812 214.550781 37.476562 223.789062 C 37.699219 224.042969 37.671875 224.429688 37.417969 224.65625 C 37.300781 224.757812 37.15625 224.808594 37.015625 224.808594 " fill-opacity="1" fill-rule="nonzero"/><path fill="#141619" d="M 351.199219 186.015625 C 351.171875 186.015625 351.140625 186.011719 351.105469 186.007812 C 350.769531 185.953125 350.542969 185.640625 350.597656 185.304688 L 351.089844 182.179688 C 351.140625 181.84375 351.457031 181.617188 351.789062 181.667969 C 352.125 181.722656 352.351562 182.035156 352.300781 182.371094 L 351.808594 185.496094 C 351.761719 185.800781 351.5 186.015625 351.199219 186.015625 " fill-opacity="1" fill-rule="nonzero"/><path fill="#141619" d="M 349.476562 196.953125 C 349.445312 196.953125 349.414062 196.949219 349.382812 196.945312 C 349.042969 196.894531 348.816406 196.578125 348.867188 196.242188 L 349.363281 193.117188 C 349.414062 192.785156 349.730469 192.554688 350.0625 192.609375 C 350.398438 192.660156 350.628906 192.976562 350.574219 193.308594 L 350.082031 196.433594 C 350.035156 196.738281 349.773438 196.953125 349.476562 196.953125 " fill-opacity="1" fill-rule="nonzero"/><path fill="#141619" d="M 346.742188 189.257812 C 346.707031 189.257812 346.671875 189.253906 346.636719 189.246094 L 343.5625 188.71875 C 343.226562 188.660156 343.003906 188.339844 343.058594 188.007812 C 343.121094 187.671875 343.4375 187.449219 343.769531 187.507812 L 346.84375 188.039062 C 347.179688 188.09375 347.402344 188.414062 347.347656 188.746094 C 347.292969 189.046875 347.035156 189.257812 346.742188 189.257812 " fill-opacity="1" fill-rule="nonzero"/><path fill="#141619" d="M 357.507812 191.117188 C 357.472656 191.117188 357.433594 191.113281 357.402344 191.105469 L 354.324219 190.578125 C 353.992188 190.519531 353.765625 190.199219 353.824219 189.867188 C 353.882812 189.53125 354.203125 189.308594 354.535156 189.367188 L 357.609375 189.898438 C 357.945312 189.953125 358.167969 190.269531 358.109375 190.605469 C 358.058594 190.90625 357.800781 191.117188 357.507812 191.117188 " fill-opacity="1" fill-rule="nonzero"/><path fill="#141619" d="M 35.976562 145.894531 C 35.683594 145.894531 35.386719 145.855469 35.097656 145.785156 C 34.183594 145.546875 33.417969 144.96875 32.941406 144.160156 C 32.460938 143.347656 32.328125 142.398438 32.5625 141.488281 C 33.050781 139.601562 34.976562 138.464844 36.863281 138.953125 C 37.191406 139.035156 37.390625 139.375 37.304688 139.703125 C 37.222656 140.03125 36.886719 140.226562 36.558594 140.144531 C 35.328125 139.824219 34.070312 140.5625 33.75 141.792969 C 33.597656 142.386719 33.683594 143.003906 33.996094 143.535156 C 34.308594 144.066406 34.808594 144.441406 35.40625 144.59375 C 36.195312 144.796875 37.042969 144.566406 37.617188 143.984375 C 37.859375 143.742188 38.246094 143.742188 38.488281 143.980469 C 38.726562 144.21875 38.730469 144.609375 38.492188 144.851562 C 37.820312 145.523438 36.90625 145.894531 35.976562 145.894531 " fill-opacity="1" fill-rule="nonzero"/><path fill="#141619" d="M 259.507812 325.949219 L 107.976562 325.949219 C 101.445312 325.949219 96.820312 320.699219 97.640625 314.222656 L 134.957031 20.9375 C 135.78125 14.460938 141.742188 9.207031 148.269531 9.207031 L 292.199219 7.535156 C 308.71875 7.535156 310.960938 14.460938 310.136719 20.9375 L 272.824219 314.222656 C 272 320.699219 266.039062 325.949219 259.507812 325.949219 " fill-opacity="1" fill-rule="nonzero"/><path fill="#f4f5f8" d="M 250.390625 326.566406 L 98.855469 326.566406 C 92.324219 326.566406 87.699219 321.277344 88.523438 314.753906 L 125.835938 19.402344 C 126.660156 12.882812 132.621094 7.59375 139.152344 7.59375 L 290.683594 7.59375 C 297.21875 7.59375 301.84375 12.882812 301.019531 19.402344 L 263.707031 314.753906 C 262.882812 321.277344 256.921875 326.566406 250.390625 326.566406 " fill-opacity="1" fill-rule="nonzero"/><path fill="#b3b4bd" d="M 97.160156 315.164062 L 132.789062 33.148438 C 132.976562 31.644531 134.355469 30.421875 135.863281 30.421875 L 288.210938 30.421875 C 289.71875 30.421875 290.785156 31.644531 290.597656 33.148438 L 254.96875 315.164062 C 254.777344 316.667969 253.402344 317.886719 251.898438 317.886719 L 99.546875 317.886719 C 98.039062 317.886719 96.96875 316.667969 97.160156 315.164062 " fill-opacity="1" fill-rule="nonzero"/><path fill="#b3b4bd" d="M 213.023438 22.613281 C 210.574219 22.613281 208.84375 20.632812 209.152344 18.191406 C 209.460938 15.746094 211.695312 13.765625 214.140625 13.765625 C 216.585938 13.765625 218.320312 15.746094 218.011719 18.191406 C 217.699219 20.632812 215.46875 22.613281 213.023438 22.613281 " fill-opacity="1" fill-rule="nonzero"/><path fill="#141619" d="M 111.855469 195.597656 C 111.828125 195.597656 111.800781 195.597656 111.773438 195.59375 C 111.4375 195.550781 111.199219 195.242188 111.246094 194.90625 L 132.179688 33.070312 C 132.40625 31.269531 134.058594 29.808594 135.863281 29.808594 L 288.210938 29.808594 C 289.117188 29.808594 289.925781 30.164062 290.496094 30.808594 C 291.066406 31.460938 291.320312 32.316406 291.203125 33.226562 L 274.988281 161.609375 C 274.945312 161.945312 274.640625 162.179688 274.300781 162.144531 C 273.964844 162.097656 273.726562 161.792969 273.769531 161.457031 L 289.984375 33.070312 C 290.058594 32.519531 289.910156 32.003906 289.574219 31.621094 C 289.242188 31.242188 288.757812 31.035156 288.210938 31.035156 L 135.863281 31.035156 C 134.65625 31.035156 133.550781 32.019531 133.398438 33.226562 L 112.460938 195.066406 C 112.421875 195.371094 112.160156 195.597656 111.855469 195.597656 " fill-opacity="1" fill-rule="nonzero"/><path fill="#141619" d="M 277.929688 202.832031 C 277.90625 202.832031 277.878906 202.832031 277.851562 202.828125 C 277.515625 202.785156 277.277344 202.476562 277.316406 202.140625 L 300.40625 19.324219 C 300.789062 16.335938 299.976562 13.53125 298.125 11.429688 C 296.292969 9.351562 293.648438 8.207031 290.6875 8.207031 L 139.152344 8.207031 C 132.929688 8.207031 127.230469 13.265625 126.445312 19.480469 L 124.546875 33.964844 C 124.503906 34.300781 124.195312 34.539062 123.859375 34.492188 C 123.523438 34.449219 123.285156 34.140625 123.328125 33.804688 L 125.226562 19.324219 C 126.085938 12.519531 132.335938 6.980469 139.152344 6.980469 L 290.6875 6.980469 C 294.007812 6.980469 296.976562 8.273438 299.042969 10.617188 C 301.132812 12.988281 302.050781 16.132812 301.628906 19.480469 L 278.539062 202.296875 C 278.496094 202.605469 278.234375 202.832031 277.929688 202.832031 " fill-opacity="1" fill-rule="nonzero"/><path fill="#141619" d="M 115.945312 95.4375 C 115.921875 95.4375 115.894531 95.4375 115.867188 95.433594 C 115.53125 95.390625 115.292969 95.082031 115.335938 94.742188 L 116.472656 86.09375 C 116.515625 85.757812 116.828125 85.519531 117.160156 85.5625 C 117.496094 85.609375 117.734375 85.917969 117.691406 86.25 L 116.554688 94.902344 C 116.515625 95.210938 116.25 95.4375 115.945312 95.4375 " fill-opacity="1" fill-rule="nonzero"/><path fill="#e5e7fd" d="M 304.078125 260.960938 C 300.421875 261.960938 296.644531 259.808594 295.640625 256.15625 C 294.640625 252.5 296.792969 248.722656 300.449219 247.722656 C 304.109375 246.722656 307.886719 248.875 308.886719 252.53125 C 309.890625 256.183594 307.734375 259.960938 304.078125 260.960938 Z M 315.925781 251.984375 L 315.21875 249.414062 L 312.3125 249.546875 C 312.042969 248.980469 311.730469 248.445312 311.375 247.941406 L 312.917969 245.472656 L 311.019531 243.597656 L 308.5625 245.167969 C 308.054688 244.820312 307.515625 244.511719 306.953125 244.25 L 307.050781 241.335938 L 304.472656 240.664062 L 303.132812 243.246094 C 302.519531 243.195312 301.898438 243.199219 301.273438 243.257812 L 299.90625 240.6875 L 297.332031 241.390625 L 297.464844 244.300781 C 296.898438 244.570312 296.359375 244.882812 295.859375 245.234375 L 293.390625 243.695312 L 291.515625 245.589844 L 293.085938 248.042969 C 292.734375 248.554688 292.429688 249.09375 292.167969 249.65625 L 289.253906 249.554688 L 288.574219 252.136719 L 291.160156 253.472656 C 291.113281 254.085938 291.117188 254.707031 291.175781 255.332031 L 288.601562 256.699219 L 289.308594 259.269531 L 292.214844 259.136719 C 292.488281 259.703125 292.796875 260.242188 293.152344 260.742188 L 291.613281 263.210938 L 293.507812 265.085938 L 295.960938 263.515625 C 296.472656 263.867188 297.015625 264.171875 297.574219 264.433594 L 297.476562 267.347656 L 300.054688 268.019531 L 301.394531 265.441406 C 302.007812 265.488281 302.628906 265.484375 303.253906 265.425781 L 304.621094 267.996094 L 307.195312 267.292969 L 307.0625 264.382812 C 307.628906 264.113281 308.164062 263.800781 308.667969 263.449219 L 311.136719 264.988281 L 313.011719 263.09375 L 311.441406 260.640625 C 311.792969 260.128906 312.101562 259.589844 312.363281 259.027344 L 315.277344 259.128906 L 315.949219 256.550781 L 313.367188 255.210938 C 313.414062 254.597656 313.410156 253.976562 313.351562 253.355469 L 315.925781 251.984375 " fill-opacity="1" fill-rule="nonzero"/><path fill="#e5e7fd" d="M 238.972656 332.816406 L 104.949219 332.816406 C 102.640625 332.816406 100.902344 330.925781 101.085938 328.617188 L 101.246094 326.582031 C 101.425781 324.273438 103.464844 322.386719 105.769531 322.386719 L 239.796875 322.386719 C 242.101562 322.386719 243.84375 324.273438 243.660156 326.582031 L 243.5 328.617188 C 243.316406 330.925781 241.28125 332.816406 238.972656 332.816406 " fill-opacity="1" fill-rule="nonzero"/><path fill="#0a21c0" d="M 187.496094 333.214844 L 104.917969 333.214844 C 102.609375 333.214844 100.871094 331.328125 101.050781 329.023438 L 101.214844 326.980469 C 101.394531 324.675781 103.433594 322.789062 105.738281 322.789062 L 188.320312 322.789062 C 190.628906 322.789062 192.367188 324.675781 192.1875 326.980469 L 192.023438 329.023438 C 191.84375 331.328125 189.804688 333.214844 187.496094 333.214844 " fill-opacity="1" fill-rule="nonzero"/><path fill="#141619" d="M 105.769531 323 C 103.769531 323 102.015625 324.628906 101.855469 326.628906 L 101.695312 328.667969 C 101.621094 329.613281 101.921875 330.503906 102.539062 331.167969 C 103.152344 331.835938 104.007812 332.203125 104.949219 332.203125 L 238.972656 332.203125 C 240.972656 332.203125 242.730469 330.574219 242.886719 328.570312 L 243.046875 326.535156 C 243.121094 325.585938 242.824219 324.699219 242.207031 324.03125 C 241.589844 323.367188 240.734375 323 239.796875 323 Z M 238.972656 333.429688 L 104.949219 333.429688 C 103.660156 333.429688 102.484375 332.921875 101.636719 332.003906 C 100.785156 331.082031 100.371094 329.863281 100.472656 328.570312 L 100.632812 326.535156 C 100.839844 323.910156 103.144531 321.769531 105.769531 321.769531 L 239.796875 321.769531 C 241.082031 321.769531 242.257812 322.277344 243.105469 323.199219 C 243.960938 324.121094 244.375 325.339844 244.273438 326.628906 L 244.109375 328.667969 C 243.90625 331.292969 241.597656 333.429688 238.972656 333.429688 " fill-opacity="1" fill-rule="nonzero"/><path fill="#e5e7fd" d="M 216.113281 244.417969 C 211.695312 248.882812 207.507812 253.589844 203.628906 258.515625 C 216.308594 267.164062 223.988281 282.195312 222.640625 299.265625 C 222.25 304.207031 221.132812 308.953125 219.398438 313.46875 L 238.039062 313.46875 C 239.398438 308.953125 240.308594 304.144531 240.691406 299.269531 C 242.484375 276.535156 232.613281 256.433594 216.113281 244.417969 " fill-opacity="1" fill-rule="nonzero"/><path fill="#0a21c0" d="M 179.382812 232.710938 C 142.679688 232.710938 110.464844 262.609375 107.566406 299.308594 C 107.183594 304.183594 107.332031 309.050781 107.976562 313.550781 L 126.617188 313.550781 C 125.59375 309.050781 125.230469 304.253906 125.617188 299.3125 C 127.730469 272.5625 151.207031 250.785156 177.957031 250.785156 C 187.632812 250.785156 196.433594 253.625 203.625 258.527344 C 207.507812 253.601562 211.695312 248.890625 216.113281 244.425781 C 205.980469 237.042969 193.351562 232.710938 179.382812 232.710938 " fill-opacity="1" fill-rule="nonzero"/><path fill="#0a21c0" d="M 172.878906 290.425781 L 202.464844 273.878906 L 177.242188 296.140625 Z M 172.878906 290.425781 " fill-opacity="1" fill-rule="nonzero"/><path fill="#141619" d="M 173.796875 290.613281 L 177.328125 295.242188 L 197.757812 277.214844 Z M 177.242188 296.753906 C 177.222656 296.753906 177.203125 296.753906 177.183594 296.75 C 177.011719 296.734375 176.859375 296.648438 176.753906 296.515625 L 172.394531 290.796875 C 172.285156 290.65625 172.242188 290.472656 172.28125 290.300781 C 172.316406 290.125 172.425781 289.976562 172.578125 289.890625 L 202.164062 273.34375 C 202.441406 273.1875 202.785156 273.265625 202.964844 273.523438 C 203.148438 273.777344 203.105469 274.128906 202.871094 274.339844 L 177.648438 296.601562 C 177.535156 296.699219 177.390625 296.753906 177.242188 296.753906 " fill-opacity="1" fill-rule="nonzero"/><path fill="#0a21c0" d="M 180.304688 293.855469 C 179.964844 298.152344 176.203125 301.640625 171.90625 301.640625 C 167.605469 301.640625 164.394531 298.152344 164.734375 293.855469 C 165.074219 289.554688 168.835938 286.070312 173.132812 286.070312 C 177.433594 286.070312 180.640625 289.554688 180.304688 293.855469 " fill-opacity="1" fill-rule="nonzero"/><path fill="#141619" d="M 173.132812 286.683594 C 169.152344 286.683594 165.660156 289.925781 165.347656 293.902344 C 165.195312 295.8125 165.796875 297.605469 167.039062 298.953125 C 168.277344 300.289062 170.003906 301.027344 171.90625 301.027344 C 175.882812 301.027344 179.378906 297.785156 179.691406 293.808594 C 179.839844 291.898438 179.242188 290.101562 178 288.757812 C 176.761719 287.421875 175.035156 286.683594 173.132812 286.683594 Z M 171.90625 302.25 C 169.65625 302.25 167.609375 301.375 166.136719 299.785156 C 164.660156 298.1875 163.945312 296.0625 164.121094 293.808594 C 164.484375 289.203125 168.527344 285.457031 173.132812 285.457031 C 175.378906 285.457031 177.429688 286.335938 178.902344 287.925781 C 180.378906 289.523438 181.09375 291.648438 180.914062 293.902344 C 180.550781 298.507812 176.511719 302.25 171.90625 302.25 " fill-opacity="1" fill-rule="nonzero"/><path fill="#141619" d="M 220.242188 313.144531 L 237.550781 313.144531 C 238.914062 308.230469 239.714844 303.84375 240.070312 299.367188 C 241.78125 277.628906 232.710938 257.292969 215.804688 244.953125 C 215.785156 244.941406 215.769531 244.929688 215.75 244.917969 C 205.335938 237.332031 192.761719 233.324219 179.382812 233.324219 C 142.992188 233.324219 111.046875 262.992188 108.171875 299.460938 C 107.804688 304.101562 107.917969 308.816406 108.496094 313.144531 L 125.839844 313.144531 C 124.921875 308.753906 124.632812 304.007812 125 299.367188 C 127.136719 272.269531 150.890625 250.222656 177.953125 250.222656 C 187.410156 250.222656 196.359375 252.894531 203.839844 257.957031 C 203.886719 257.972656 203.933594 257.996094 203.976562 258.027344 C 217.367188 267.15625 224.566406 282.648438 223.242188 299.46875 C 222.886719 303.964844 221.957031 308.214844 220.242188 313.144531 Z M 238.019531 314.371094 L 219.375 314.371094 C 219.175781 314.371094 218.988281 314.273438 218.871094 314.109375 C 218.757812 313.949219 218.730469 313.738281 218.796875 313.550781 C 220.660156 308.375 221.652344 304 222.015625 299.371094 C 223.304688 283.050781 216.351562 268.019531 203.414062 259.128906 C 203.367188 259.109375 203.320312 259.089844 203.277344 259.058594 C 195.976562 254.082031 187.21875 251.449219 177.953125 251.449219 C 151.519531 251.449219 128.3125 272.988281 126.222656 299.460938 C 125.84375 304.25 126.183594 309.144531 127.203125 313.621094 C 127.242188 313.804688 127.199219 313.996094 127.082031 314.140625 C 126.964844 314.285156 126.789062 314.371094 126.601562 314.371094 L 107.960938 314.371094 C 107.652344 314.371094 107.394531 314.144531 107.351562 313.84375 C 106.699219 309.289062 106.558594 304.28125 106.949219 299.363281 C 109.875 262.273438 142.367188 232.097656 179.382812 232.097656 C 193 232.097656 205.808594 236.175781 216.421875 243.886719 C 216.441406 243.898438 216.460938 243.910156 216.476562 243.921875 C 233.765625 256.511719 243.042969 277.273438 241.292969 299.460938 C 240.921875 304.15625 240.070312 308.75 238.609375 313.921875 C 238.535156 314.1875 238.292969 314.371094 238.019531 314.371094 " fill-opacity="1" fill-rule="nonzero"/><path fill="#0a21c0" d="M 262.996094 79.882812 L 92.835938 79.882812 C 89.738281 79.882812 88.125 76.554688 88.621094 73.5 L 93.984375 43.230469 C 94.378906 40.800781 96.851562 38.421875 99.316406 38.421875 L 269.480469 38.421875 C 272.574219 38.421875 274.5625 41.785156 274.066406 44.835938 L 268.707031 75.105469 C 268.308594 77.535156 265.460938 79.882812 262.996094 79.882812 " fill-opacity="1" fill-rule="nonzero"/><path fill="#f4f5f8" d="M 257.984375 79.324219 L 81.105469 79.324219 C 78.007812 79.324219 75.648438 76.550781 76.144531 73.5 L 81.507812 43.230469 C 81.902344 40.796875 84.003906 39.011719 86.46875 39.011719 L 263.351562 39.011719 C 266.449219 39.011719 268.808594 41.785156 268.3125 44.835938 L 262.949219 75.105469 C 262.554688 77.535156 260.453125 79.324219 257.984375 79.324219 " fill-opacity="1" fill-rule="nonzero"/><path fill="#141619" d="M 86.46875 39.628906 C 84.292969 39.628906 82.460938 41.183594 82.113281 43.328125 L 76.75 73.605469 C 76.542969 74.875 76.90625 76.171875 77.742188 77.15625 C 78.582031 78.144531 79.808594 78.707031 81.105469 78.707031 L 257.988281 78.707031 C 260.164062 78.707031 261.996094 77.152344 262.34375 75.007812 L 267.707031 44.730469 C 267.914062 43.460938 267.550781 42.167969 266.714844 41.183594 C 265.875 40.195312 264.648438 39.628906 263.351562 39.628906 Z M 257.988281 79.9375 L 81.105469 79.9375 C 79.449219 79.9375 77.878906 79.210938 76.808594 77.949219 C 75.734375 76.691406 75.273438 75.03125 75.539062 73.402344 L 80.902344 43.125 C 81.347656 40.390625 83.6875 38.398438 86.46875 38.398438 L 263.351562 38.398438 C 265.007812 38.398438 266.574219 39.125 267.648438 40.386719 C 268.722656 41.644531 269.183594 43.304688 268.917969 44.933594 L 263.550781 75.214844 C 263.109375 77.945312 260.765625 79.9375 257.988281 79.9375 " fill-opacity="1" fill-rule="nonzero"/><path fill="#0a21c0" d="M 99.671875 61.867188 C 97.011719 59.214844 97.011719 54.90625 99.671875 52.25 C 102.332031 49.59375 106.644531 49.59375 109.300781 52.25 C 111.960938 54.90625 111.960938 59.214844 109.300781 61.867188 C 106.644531 64.523438 102.332031 64.523438 99.671875 61.867188 Z M 110.898438 50.65625 C 107.359375 47.117188 101.617188 47.117188 98.074219 50.65625 C 94.535156 54.191406 94.535156 59.925781 98.074219 63.460938 C 101.617188 67 107.359375 67 110.898438 63.460938 C 114.441406 59.925781 114.441406 54.191406 110.898438 50.65625 " fill-opacity="1" fill-rule="nonzero"/><path fill="#0a21c0" d="M 91.859375 69.652344 C 91.398438 69.195312 91.398438 68.453125 91.859375 67.996094 L 98.011719 61.847656 L 99.671875 63.503906 L 93.515625 69.652344 C 93.058594 70.109375 92.316406 70.109375 91.859375 69.652344 " fill-opacity="1" fill-rule="nonzero"/><path fill="#e5e7fd" d="M 198.589844 63.382812 L 132.148438 63.382812 C 128.792969 63.382812 126.074219 60.664062 126.074219 57.316406 C 126.074219 53.964844 128.792969 51.25 132.148438 51.25 L 198.589844 51.25 C 201.945312 51.25 204.664062 53.964844 204.664062 57.316406 C 204.664062 60.664062 201.945312 63.382812 198.589844 63.382812 " fill-opacity="1" fill-rule="nonzero"/><path fill="#e5e7fd" d="M 231 63.289062 L 220.941406 63.289062 C 217.585938 63.289062 214.867188 60.570312 214.867188 57.222656 C 214.867188 53.871094 217.585938 51.15625 220.941406 51.15625 L 231 51.15625 C 234.355469 51.15625 237.074219 53.871094 237.074219 57.222656 C 237.074219 60.570312 234.355469 63.289062 231 63.289062 " fill-opacity="1" fill-rule="nonzero"/><path fill="#f4f5f8" d="M 284.230469 231.253906 L 204.386719 231.253906 C 199.859375 231.253906 196.355469 227.292969 196.914062 222.804688 L 211.167969 106.90625 C 211.640625 103.140625 214.84375 100.3125 218.640625 100.3125 L 298.484375 100.3125 C 303.011719 100.3125 306.519531 104.273438 305.960938 108.761719 L 291.703125 224.660156 C 291.234375 228.429688 288.03125 231.253906 284.230469 231.253906 " fill-opacity="1" fill-rule="nonzero"/><path fill="#141619" d="M 218.640625 100.929688 C 215.15625 100.929688 212.207031 103.53125 211.78125 106.984375 L 197.523438 222.882812 C 197.277344 224.84375 197.886719 226.820312 199.199219 228.304688 C 200.507812 229.789062 202.398438 230.640625 204.386719 230.640625 L 284.230469 230.640625 C 287.710938 230.640625 290.664062 228.039062 291.09375 224.585938 L 305.347656 108.6875 C 305.59375 106.726562 304.980469 104.75 303.671875 103.269531 C 302.359375 101.78125 300.46875 100.929688 298.484375 100.929688 Z M 284.230469 231.867188 L 204.386719 231.867188 C 202.050781 231.867188 199.824219 230.863281 198.277344 229.117188 C 196.738281 227.371094 196.015625 225.042969 196.304688 222.730469 L 210.558594 106.832031 C 211.066406 102.765625 214.539062 99.703125 218.640625 99.703125 L 298.484375 99.703125 C 300.820312 99.703125 303.046875 100.703125 304.589844 102.453125 C 306.132812 104.199219 306.855469 106.527344 306.566406 108.839844 L 292.308594 224.738281 C 291.804688 228.804688 288.328125 231.867188 284.230469 231.867188 " fill-opacity="1" fill-rule="nonzero"/><path fill="#b3b4bd" d="M 276.683594 178.855469 C 276.878906 177.34375 275.699219 176.007812 274.171875 176.007812 L 221.566406 176.007812 C 220.296875 176.007812 219.21875 176.953125 219.058594 178.214844 C 218.863281 179.726562 220.042969 181.0625 221.566406 181.0625 L 274.171875 181.0625 C 275.445312 181.0625 276.523438 180.117188 276.683594 178.855469 " fill-opacity="1" fill-rule="nonzero"/><path fill="#b3b4bd" d="M 252.34375 191.605469 C 252.535156 190.09375 251.359375 188.757812 249.832031 188.757812 L 219.941406 188.757812 C 218.664062 188.757812 217.589844 189.703125 217.429688 190.964844 C 217.234375 192.476562 218.414062 193.8125 219.941406 193.8125 L 249.832031 193.8125 C 251.105469 193.8125 252.183594 192.867188 252.34375 191.605469 " fill-opacity="1" fill-rule="nonzero"/><path fill="#b3b4bd" d="M 258.246094 204.355469 C 258.4375 202.84375 257.261719 201.507812 255.734375 201.507812 L 218.3125 201.507812 C 217.039062 201.507812 215.960938 202.453125 215.800781 203.714844 C 215.605469 205.226562 216.785156 206.5625 218.3125 206.5625 L 255.734375 206.5625 C 257.007812 206.5625 258.085938 205.617188 258.246094 204.355469 " fill-opacity="1" fill-rule="nonzero"/><path fill="#f4f5f8" d="M 273.992188 160.71875 L 229.492188 160.71875 C 225.824219 160.71875 222.988281 157.5 223.460938 153.867188 L 227.417969 123.152344 C 227.808594 120.121094 230.394531 117.847656 233.453125 117.847656 L 277.953125 117.847656 C 281.625 117.847656 284.457031 121.066406 283.988281 124.703125 L 280.03125 155.417969 C 279.636719 158.449219 277.054688 160.71875 273.992188 160.71875 " fill-opacity="1" fill-rule="nonzero"/><path fill="#0a21c0" d="M 223.730469 154.925781 L 224.429688 148.859375 C 224.511719 148.167969 224.824219 147.523438 225.320312 147.03125 L 241.683594 130.789062 C 242.886719 129.597656 244.824219 129.597656 246.019531 130.792969 L 253.949219 138.703125 C 255.097656 139.851562 256.949219 139.902344 258.164062 138.820312 L 258.742188 138.304688 C 260 137.183594 261.921875 137.28125 263.058594 138.523438 L 278.867188 155.808594 C 279.433594 156.433594 279.722656 157.265625 279.660156 158.109375 C 279.539062 159.71875 274.960938 160.960938 273.34375 160.949219 L 228.660156 160.507812 C 225.683594 160.484375 223.386719 157.882812 223.730469 154.925781 " fill-opacity="1" fill-rule="nonzero"/><path fill="#e5e7fd" d="M 276.710938 129.953125 C 276.710938 132.519531 274.628906 134.601562 272.058594 134.601562 C 269.488281 134.601562 267.40625 132.519531 267.40625 129.953125 C 267.40625 127.390625 269.488281 125.308594 272.058594 125.308594 C 274.628906 125.308594 276.710938 127.390625 276.710938 129.953125 " fill-opacity="1" fill-rule="nonzero"/><path fill="#141619" d="M 233.132812 118.460938 C 230.574219 118.460938 228.394531 120.375 228.070312 122.910156 L 224.019531 154.355469 C 223.832031 155.808594 224.277344 157.269531 225.242188 158.371094 C 226.214844 159.472656 227.613281 160.105469 229.082031 160.105469 L 274.316406 160.105469 C 276.878906 160.105469 279.054688 158.191406 279.382812 155.65625 L 283.4375 124.210938 C 283.621094 122.757812 283.175781 121.296875 282.207031 120.195312 C 281.238281 119.09375 279.839844 118.460938 278.371094 118.460938 Z M 274.316406 161.332031 L 229.082031 161.332031 C 227.257812 161.332031 225.523438 160.546875 224.320312 159.179688 C 223.121094 157.816406 222.566406 156 222.800781 154.195312 L 226.851562 122.753906 C 227.257812 119.605469 229.957031 117.234375 233.132812 117.234375 L 278.371094 117.234375 C 280.191406 117.234375 281.925781 118.019531 283.128906 119.386719 C 284.328125 120.75 284.882812 122.566406 284.652344 124.367188 L 280.597656 155.8125 C 280.191406 158.960938 277.492188 161.332031 274.316406 161.332031 " fill-opacity="1" fill-rule="nonzero"/><path fill="#f4f5f8" d="M 40.582031 296.519531 L 49.59375 299.566406 L 50.992188 290.675781 L 39.953125 290.707031 L 40.582031 296.519531 " fill-opacity="1" fill-rule="nonzero"/><path fill="#141619" d="M 41.148438 296.0625 L 49.101562 298.75 L 50.273438 291.292969 L 40.636719 291.320312 Z M 49.59375 300.179688 C 49.527344 300.179688 49.460938 300.167969 49.398438 300.148438 L 40.386719 297.097656 C 40.160156 297.023438 39.996094 296.820312 39.972656 296.582031 L 39.339844 290.777344 C 39.324219 290.601562 39.378906 290.429688 39.496094 290.300781 C 39.609375 290.171875 39.777344 290.097656 39.949219 290.09375 L 50.992188 290.0625 C 51.171875 290.0625 51.34375 290.140625 51.457031 290.277344 C 51.574219 290.414062 51.628906 290.59375 51.597656 290.773438 L 50.199219 299.664062 C 50.171875 299.839844 50.066406 300 49.910156 300.089844 C 49.816406 300.148438 49.703125 300.179688 49.59375 300.179688 " fill-opacity="1" fill-rule="nonzero"/><path fill="#141619" d="M 43.507812 318.039062 L 43.222656 332.425781 L 48.628906 330.035156 L 48.070312 326.839844 C 48.054688 326.746094 48.058594 326.648438 48.085938 326.558594 L 50.738281 317.59375 Z M 42.589844 333.988281 C 42.472656 333.988281 42.351562 333.953125 42.25 333.886719 C 42.074219 333.769531 41.972656 333.570312 41.976562 333.363281 L 42.292969 317.449219 C 42.296875 317.132812 42.550781 316.871094 42.867188 316.847656 L 51.539062 316.3125 C 51.742188 316.296875 51.929688 316.386719 52.054688 316.542969 C 52.179688 316.699219 52.222656 316.910156 52.164062 317.101562 L 49.304688 326.769531 L 49.921875 330.296875 C 49.96875 330.578125 49.820312 330.851562 49.5625 330.964844 L 42.839844 333.9375 C 42.757812 333.972656 42.675781 333.988281 42.589844 333.988281 " fill-opacity="1" fill-rule="nonzero"/><path fill="#0a21c0" d="M 34.550781 289.21875 C 34.550781 289.21875 25.691406 300 23.0625 308.8125 C 22.621094 310.296875 23.882812 311.738281 25.417969 311.527344 C 26.304688 311.402344 27.453125 311.160156 28.929688 310.71875 C 34.453125 309.078125 45.902344 298.292969 45.902344 298.292969 L 45.636719 295.90625 C 45.542969 295.066406 44.746094 294.492188 43.921875 294.671875 L 42.808594 294.910156 L 43.886719 291.40625 C 44.132812 290.609375 43.664062 289.769531 42.855469 289.566406 C 41.210938 289.152344 38.273438 288.683594 34.550781 289.21875 " fill-opacity="1" fill-rule="nonzero"/><path fill="#141619" d="M 25.226562 310.78125 C 25.128906 310.78125 25.03125 310.765625 24.9375 310.730469 C 24.511719 310.566406 24.300781 310.09375 24.464844 309.671875 C 28.070312 300.222656 35.597656 290.496094 35.914062 290.089844 C 36.191406 289.730469 36.707031 289.664062 37.066406 289.945312 C 37.421875 290.222656 37.484375 290.738281 37.207031 291.09375 C 37.132812 291.191406 29.511719 301.039062 25.992188 310.253906 C 25.867188 310.582031 25.558594 310.78125 25.226562 310.78125 " fill-opacity="1" fill-rule="nonzero"/><path fill="#141619" d="M 35.523438 306.898438 C 35.304688 306.898438 35.082031 306.808594 34.921875 306.632812 L 32.289062 303.757812 C 31.984375 303.425781 32.007812 302.90625 32.34375 302.601562 C 32.675781 302.292969 33.191406 302.320312 33.5 302.652344 L 36.128906 305.527344 C 36.433594 305.859375 36.410156 306.378906 36.078125 306.683594 C 35.921875 306.828125 35.722656 306.898438 35.523438 306.898438 " fill-opacity="1" fill-rule="nonzero"/><path fill="#141619" d="M 38.808594 303.796875 C 38.585938 303.796875 38.363281 303.703125 38.203125 303.527344 L 34.898438 299.914062 C 34.59375 299.582031 34.613281 299.0625 34.949219 298.757812 C 35.28125 298.453125 35.800781 298.476562 36.105469 298.8125 L 39.410156 302.421875 C 39.714844 302.757812 39.691406 303.273438 39.359375 303.582031 C 39.203125 303.722656 39.003906 303.796875 38.808594 303.796875 " fill-opacity="1" fill-rule="nonzero"/><path fill="#0a21c0" d="M 41.960938 325.699219 C 40.675781 326.722656 37.523438 329.339844 35.289062 332.035156 C 34.210938 333.335938 34.539062 335.289062 35.996094 336.148438 C 40.472656 338.789062 50.4375 344.074219 61.117188 345.835938 C 62.695312 346.097656 63.953125 344.554688 63.421875 343.046875 C 62.4375 340.253906 59.535156 335.761719 51.328125 330.195312 L 48.589844 328.402344 L 43.761719 330.226562 C 43.761719 330.226562 44.367188 327.339844 43.410156 325.921875 C 43.085938 325.4375 42.414062 325.335938 41.960938 325.699219 " fill-opacity="1" fill-rule="nonzero"/><path fill="#141619" d="M 61.269531 344.09375 C 61.210938 344.09375 61.148438 344.089844 61.085938 344.074219 C 50.304688 341.625 36.859375 334.234375 36.292969 333.917969 C 35.898438 333.699219 35.753906 333.203125 35.972656 332.804688 C 36.191406 332.410156 36.691406 332.269531 37.085938 332.488281 C 37.222656 332.5625 50.894531 340.078125 61.449219 342.480469 C 61.890625 342.578125 62.167969 343.015625 62.066406 343.460938 C 61.980469 343.839844 61.644531 344.09375 61.269531 344.09375 " fill-opacity="1" fill-rule="nonzero"/><path fill="#141619" d="M 48.492188 335.503906 C 48.261719 335.503906 48.03125 335.40625 47.867188 335.21875 C 47.574219 334.875 47.617188 334.355469 47.960938 334.0625 L 51.777344 330.804688 C 52.121094 330.511719 52.636719 330.554688 52.933594 330.898438 C 53.226562 331.238281 53.183594 331.757812 52.839844 332.050781 L 49.023438 335.308594 C 48.867188 335.441406 48.679688 335.503906 48.492188 335.503906 " fill-opacity="1" fill-rule="nonzero"/><path fill="#141619" d="M 52.894531 337.285156 C 52.664062 337.285156 52.433594 337.1875 52.273438 336.996094 C 51.976562 336.65625 52.019531 336.136719 52.363281 335.84375 L 55.105469 333.5 C 55.449219 333.203125 55.96875 333.242188 56.261719 333.585938 C 56.554688 333.933594 56.515625 334.449219 56.167969 334.742188 L 53.425781 337.089844 C 53.273438 337.21875 53.082031 337.285156 52.894531 337.285156 " fill-opacity="1" fill-rule="nonzero"/><path fill="#141619" d="M 89.292969 233.0625 C 89.292969 233.0625 101.078125 262.21875 97.503906 281.980469 C 93.925781 301.742188 60.1875 304.027344 48.421875 300.5 L 49.582031 288.855469 C 49.582031 288.855469 65.542969 292.488281 75.101562 281.378906 C 84.660156 270.265625 63.714844 254.8125 63.714844 254.8125 L 60.914062 234.222656 L 89.292969 233.0625 " fill-opacity="1" fill-rule="nonzero"/><path fill="#141619" d="M 56.25 229.289062 C 56.25 229.289062 55.300781 234.699219 55.296875 241.5625 C 55.296875 248.246094 53.953125 254.855469 51.414062 261.042969 C 46.667969 272.609375 39.734375 295.679688 41.871094 321.769531 L 51.578125 321.171875 C 51.578125 321.171875 73.222656 262.828125 79.183594 251.691406 C 85.144531 240.558594 88.453125 231.9375 88.453125 231.9375 L 56.25 229.289062 " fill-opacity="1" fill-rule="nonzero"/><path fill="#b3b4bd" d="M 59.328125 302.597656 C 59.257812 302.597656 59.183594 302.585938 59.109375 302.558594 C 58.792969 302.4375 58.636719 302.082031 58.757812 301.765625 L 62.664062 291.554688 C 62.785156 291.234375 63.140625 291.078125 63.457031 291.199219 C 63.773438 291.320312 63.929688 291.675781 63.808594 291.992188 L 59.902344 302.203125 C 59.808594 302.449219 59.578125 302.597656 59.328125 302.597656 " fill-opacity="1" fill-rule="nonzero"/><path fill="#b3b4bd" d="M 73.816406 265.570312 C 73.742188 265.570312 73.667969 265.554688 73.59375 265.527344 C 73.277344 265.40625 73.121094 265.050781 73.242188 264.734375 L 75.445312 258.976562 C 75.5625 258.660156 75.921875 258.503906 76.234375 258.625 C 76.554688 258.746094 76.710938 259.101562 76.589844 259.417969 L 74.386719 265.171875 C 74.292969 265.417969 74.0625 265.570312 73.816406 265.570312 " fill-opacity="1" fill-rule="nonzero"/><path fill="#b3b4bd" d="M 54.808594 243.007812 C 54.804688 243.007812 54.800781 243.007812 54.800781 243.007812 C 54.460938 243.003906 54.1875 242.726562 54.191406 242.386719 L 54.222656 239.324219 C 54.226562 238.988281 54.5 238.71875 54.839844 238.71875 C 54.839844 238.71875 54.839844 238.71875 54.84375 238.71875 C 55.183594 238.722656 55.457031 239 55.453125 239.335938 L 55.421875 242.398438 C 55.417969 242.734375 55.144531 243.007812 54.808594 243.007812 " fill-opacity="1" fill-rule="nonzero"/><path fill="#f4f5f8" d="M 126.773438 159.378906 C 126.773438 159.378906 128.730469 155.582031 128.558594 154.511719 C 128.339844 153.15625 127.234375 150.160156 128.226562 148.078125 C 129.515625 145.382812 132.34375 143.859375 132.824219 144.445312 C 133.304688 145.03125 129.671875 150.121094 131.664062 152.28125 C 131.664062 152.28125 132.933594 152.339844 134.929688 149.542969 C 135.148438 149.238281 135.617188 149.324219 135.753906 149.691406 C 135.945312 150.199219 135.878906 151.796875 135.558594 152.988281 C 135.148438 154.503906 134.121094 155.363281 133.03125 156.324219 C 132.390625 156.886719 131.78125 161.558594 131.625 161.488281 L 126.773438 159.378906 " fill-opacity="1" fill-rule="nonzero"/><path fill="#141619" d="M 127.613281 159.074219 L 131.222656 160.644531 C 131.265625 160.441406 131.308594 160.210938 131.351562 159.996094 C 131.84375 157.480469 132.140625 156.289062 132.625 155.863281 L 132.753906 155.75 C 133.753906 154.867188 134.617188 154.105469 134.964844 152.824219 C 135.222656 151.863281 135.277344 150.726562 135.230469 150.175781 C 133.25 152.828125 131.890625 152.914062 131.636719 152.894531 L 131.382812 152.882812 L 131.214844 152.699219 C 129.617188 150.964844 130.886719 147.988281 131.726562 146.019531 C 131.871094 145.683594 132.039062 145.292969 132.144531 145 C 131.339844 145.289062 129.679688 146.46875 128.78125 148.34375 C 128.089844 149.792969 128.59375 151.921875 128.929688 153.328125 C 129.027344 153.746094 129.113281 154.105469 129.164062 154.410156 C 129.324219 155.40625 128.246094 157.792969 127.613281 159.074219 Z M 131.652344 162.167969 L 125.929688 159.679688 L 126.226562 159.097656 C 127.128906 157.351562 128.035156 155.128906 127.949219 154.605469 C 127.910156 154.347656 127.828125 154.007812 127.734375 153.613281 C 127.359375 152.035156 126.792969 149.65625 127.671875 147.816406 C 128.847656 145.363281 131.105469 143.863281 132.28125 143.71875 C 132.867188 143.644531 133.167969 143.898438 133.296875 144.054688 C 133.695312 144.539062 133.414062 145.195312 132.855469 146.5 C 132.191406 148.058594 131.214844 150.355469 131.921875 151.59375 C 132.316406 151.433594 133.207031 150.902344 134.429688 149.1875 C 134.660156 148.867188 135.039062 148.703125 135.429688 148.75 C 135.835938 148.804688 136.179688 149.082031 136.328125 149.476562 C 136.609375 150.214844 136.457031 152.003906 136.148438 153.144531 C 135.707031 154.78125 134.621094 155.742188 133.566406 156.667969 L 133.4375 156.78125 C 133.164062 157.121094 132.738281 159.300781 132.558594 160.230469 C 132.269531 161.710938 132.238281 161.863281 131.914062 162.035156 L 131.652344 162.167969 " fill-opacity="1" fill-rule="nonzero"/><path fill="#0a21c0" d="M 55.445312 207.257812 C 56.429688 194.664062 55.824219 180.085938 73.832031 172.21875 C 73.910156 172.183594 73.996094 172.058594 74.160156 172.003906 C 80.039062 170.125 80.367188 170.828125 84.488281 170.761719 C 88.296875 170.699219 89.117188 170.546875 94.746094 173.320312 C 102.617188 173.8125 110.546875 171.582031 117.054688 166.660156 C 120.9375 163.726562 123.433594 161.84375 126.769531 156.273438 L 133.875 159.066406 C 133.875 159.066406 127.609375 196.039062 92.371094 192.597656 C 92.371094 192.597656 88.128906 218.578125 91.914062 235.976562 C 91.914062 235.976562 58.769531 246.792969 49.570312 230.628906 C 49.570312 230.628906 54.429688 220.222656 55.445312 207.257812 " fill-opacity="1" fill-rule="nonzero"/><path fill="#141619" d="M 87.410156 217.425781 C 87.347656 217.425781 87.28125 217.417969 87.21875 217.394531 C 79.058594 214.714844 75.15625 209.4375 75.621094 201.703125 C 75.640625 201.367188 75.9375 201.109375 76.269531 201.128906 C 76.609375 201.148438 76.867188 201.441406 76.84375 201.777344 C 76.414062 208.984375 79.929688 213.710938 87.601562 216.230469 C 87.921875 216.332031 88.097656 216.679688 87.992188 217.003906 C 87.910156 217.261719 87.667969 217.425781 87.410156 217.425781 " fill-opacity="1" fill-rule="nonzero"/><path fill="#f4f5f8" d="M 77.105469 171.875 L 77.28125 161.148438 L 85.152344 164.921875 L 85.214844 171.699219 C 85.191406 173.207031 83.925781 174.078125 83.925781 174.078125 C 82.363281 175.28125 80.128906 175.121094 78.484375 174.03125 L 78.101562 173.777344 C 77.464844 173.355469 77.089844 172.636719 77.105469 171.875 " fill-opacity="1" fill-rule="nonzero"/><path fill="#141619" d="M 77.105469 171.871094 L 77.113281 171.871094 Z M 77.878906 162.117188 L 77.722656 171.882812 C 77.722656 171.882812 77.722656 171.886719 77.722656 171.886719 C 77.707031 172.445312 77.976562 172.957031 78.441406 173.265625 L 78.820312 173.519531 C 80.351562 174.53125 82.292969 174.558594 83.550781 173.59375 C 83.585938 173.570312 84.582031 172.851562 84.601562 171.6875 L 84.539062 165.3125 Z M 81.363281 175.539062 C 80.277344 175.539062 79.148438 175.207031 78.144531 174.542969 L 77.761719 174.289062 C 76.945312 173.75 76.46875 172.839844 76.492188 171.859375 L 76.667969 161.140625 C 76.671875 160.929688 76.78125 160.734375 76.957031 160.625 C 77.136719 160.515625 77.359375 160.503906 77.546875 160.59375 L 85.417969 164.371094 C 85.628906 164.472656 85.761719 164.683594 85.765625 164.917969 L 85.828125 171.691406 C 85.800781 173.515625 84.335938 174.542969 84.273438 174.585938 C 83.449219 175.21875 82.425781 175.539062 81.363281 175.539062 " fill-opacity="1" fill-rule="nonzero"/><path fill="#141619" d="M 88.324219 148.628906 C 86.246094 148.554688 88.902344 150.621094 81.171875 148.558594 C 78.09375 147.738281 79.71875 151.253906 78.917969 151.042969 C 75.96875 150.265625 76.070312 150.289062 74.644531 150.695312 C 73.703125 150.960938 73.125 152.710938 73.332031 154.003906 C 73.605469 155.710938 75.035156 156.125 76.375 159.714844 C 77.316406 162.238281 77.132812 163.785156 78.167969 164.132812 C 79.210938 164.484375 79.945312 163.085938 81.117188 163.386719 C 82.628906 163.773438 82.390625 166.367188 83.878906 167.410156 C 84.816406 168.066406 86.972656 168.335938 90.382812 166.59375 C 90.933594 166.3125 91.207031 165.675781 91.03125 165.082031 C 90.800781 164.320312 90.507812 163.363281 90.152344 162.46875 C 88.445312 158.210938 86.886719 157.273438 87.417969 156.148438 C 88.234375 154.425781 91.5 155.335938 92.007812 153.921875 C 92.535156 152.457031 91.171875 148.730469 88.324219 148.628906 " fill-opacity="1" fill-rule="nonzero"/><path fill="#f4f5f8" d="M 81.238281 156.175781 L 81.855469 157.265625 C 82.148438 157.78125 82.402344 158.3125 82.621094 158.859375 C 83.03125 159.890625 83.800781 161.628906 84.222656 162.609375 C 85.578125 165.769531 89.441406 162.179688 89.441406 162.179688 L 89.699219 161.296875 L 90.222656 161.074219 C 90.324219 161.027344 90.417969 160.964844 90.484375 160.875 C 90.652344 160.652344 90.644531 160.363281 90.496094 160.152344 C 89.675781 159.007812 87.96875 156.433594 87.320312 154.101562 C 87.320312 154.101562 83.917969 153.308594 81.238281 156.175781 " fill-opacity="1" fill-rule="nonzero"/><path fill="#141619" d="M 80.628906 156.105469 C 80.683594 155.984375 80.757812 155.847656 80.847656 155.726562 C 80.890625 155.664062 80.941406 155.605469 80.992188 155.546875 L 81.0625 155.472656 L 81.105469 155.433594 C 81.214844 155.328125 81.320312 155.222656 81.441406 155.125 C 81.667969 154.921875 81.914062 154.738281 82.164062 154.566406 C 82.675781 154.230469 83.230469 153.953125 83.808594 153.757812 C 84.390625 153.558594 84.996094 153.445312 85.601562 153.402344 C 85.90625 153.378906 86.210938 153.375 86.515625 153.390625 C 86.828125 153.40625 87.109375 153.429688 87.460938 153.507812 L 87.46875 153.511719 C 87.691406 153.558594 87.855469 153.734375 87.910156 153.941406 C 88.074219 154.585938 88.316406 155.226562 88.585938 155.859375 C 88.851562 156.496094 89.160156 157.121094 89.496094 157.734375 C 89.828125 158.347656 90.195312 158.949219 90.589844 159.527344 L 90.738281 159.746094 L 90.8125 159.851562 L 90.851562 159.910156 C 90.875 159.941406 90.894531 159.976562 90.914062 160.007812 C 91.058594 160.277344 91.070312 160.605469 90.96875 160.890625 C 90.921875 161.035156 90.84375 161.171875 90.734375 161.296875 C 90.632812 161.414062 90.480469 161.519531 90.398438 161.574219 C 90.25 161.679688 90.101562 161.78125 89.941406 161.859375 L 90.285156 161.46875 L 90.039062 162.355469 C 90.007812 162.464844 89.945312 162.5625 89.863281 162.636719 C 89.402344 163.054688 88.945312 163.394531 88.429688 163.71875 C 87.917969 164.03125 87.367188 164.3125 86.71875 164.46875 C 86.394531 164.542969 86.039062 164.582031 85.667969 164.539062 C 85.296875 164.5 84.914062 164.363281 84.59375 164.140625 C 84.273438 163.917969 84.027344 163.628906 83.855469 163.328125 C 83.753906 163.179688 83.695312 163.027344 83.617188 162.878906 L 83.453125 162.496094 C 83.011719 161.472656 82.5625 160.453125 82.136719 159.40625 C 81.929688 158.871094 81.742188 158.410156 81.492188 157.929688 L 81.304688 157.582031 C 81.21875 157.425781 81.132812 157.261719 81.050781 157.097656 C 80.890625 156.765625 80.75 156.429688 80.628906 156.105469 Z M 81.847656 156.25 C 82 156.414062 82.136719 156.558594 82.25 156.714844 C 82.304688 156.792969 82.359375 156.871094 82.40625 156.957031 L 82.621094 157.339844 C 82.898438 157.84375 83.144531 158.410156 83.347656 158.914062 C 83.769531 159.925781 84.21875 160.949219 84.664062 161.972656 C 85.066406 163.042969 85.503906 163.40625 86.433594 163.210938 C 87.316406 163.007812 88.261719 162.378906 89.019531 161.726562 L 88.847656 162.007812 L 89.109375 161.128906 L 89.121094 161.097656 C 89.171875 160.925781 89.300781 160.796875 89.457031 160.734375 C 89.621094 160.671875 89.800781 160.632812 89.980469 160.601562 C 90.109375 160.585938 90.109375 160.625 90.160156 160.570312 C 90.191406 160.527344 90.179688 160.464844 90.152344 160.421875 L 89.871094 160.027344 C 89.457031 159.4375 89.054688 158.835938 88.664062 158.226562 C 87.890625 157 87.175781 155.71875 86.734375 154.265625 L 87.183594 154.695312 C 86.988281 154.664062 86.707031 154.632812 86.464844 154.625 C 86.210938 154.617188 85.957031 154.625 85.703125 154.648438 C 85.195312 154.695312 84.699219 154.804688 84.21875 154.964844 C 83.742188 155.125 83.285156 155.351562 82.863281 155.625 C 82.652344 155.769531 82.441406 155.910156 82.25 156.078125 C 82.148438 156.152344 82.058594 156.246094 81.960938 156.328125 L 81.925781 156.359375 C 81.917969 156.367188 81.925781 156.359375 81.925781 156.359375 C 81.925781 156.355469 81.925781 156.34375 81.921875 156.332031 C 81.914062 156.308594 81.890625 156.273438 81.847656 156.25 " fill-opacity="1" fill-rule="nonzero"/><path fill="#f4f5f8" d="M 82.164062 160.007812 C 82.164062 160.007812 80.679688 157.386719 79.628906 158.3125 C 78.574219 159.242188 80.28125 162.085938 82.164062 160.007812 " fill-opacity="1" fill-rule="nonzero"/><path fill="#141619" d="M 87.5 157.449219 C 87.414062 157.449219 87.367188 157.480469 87.355469 157.496094 C 86.949219 158.617188 87.277344 159.371094 87.449219 159.558594 C 87.582031 159.550781 87.625 159.507812 87.648438 159.484375 C 87.714844 159.417969 87.917969 159.125 87.839844 158.140625 C 87.800781 157.648438 87.6875 157.496094 87.652344 157.480469 C 87.59375 157.457031 87.542969 157.449219 87.5 157.449219 Z M 87.417969 160.789062 C 87.371094 160.789062 87.328125 160.785156 87.285156 160.78125 C 86.945312 160.761719 86.617188 160.539062 86.371094 160.15625 C 85.972656 159.542969 85.71875 158.402344 86.214844 157.046875 C 86.324219 156.746094 86.574219 156.492188 86.894531 156.347656 C 87.269531 156.179688 87.703125 156.175781 88.109375 156.34375 C 88.957031 156.679688 89.039062 157.707031 89.066406 158.042969 C 89.152344 159.132812 88.976562 159.886719 88.523438 160.347656 C 88.234375 160.636719 87.855469 160.789062 87.417969 160.789062 " fill-opacity="1" fill-rule="nonzero"/><path fill="#141619" d="M 80.824219 158.417969 C 80.527344 158.417969 80.261719 158.195312 80.21875 157.890625 C 80.167969 157.558594 80.398438 157.246094 80.734375 157.195312 L 87.210938 156.234375 C 87.550781 156.179688 87.859375 156.414062 87.910156 156.75 C 87.960938 157.085938 87.726562 157.398438 87.390625 157.445312 L 80.914062 158.410156 C 80.886719 158.414062 80.855469 158.417969 80.824219 158.417969 " fill-opacity="1" fill-rule="nonzero"/><path fill="#141619" d="M 90 158.886719 Z M 89.859375 158.996094 Z M 90.273438 160.054688 C 90.042969 160.054688 89.828125 159.925781 89.722656 159.707031 C 89.59375 159.449219 89.664062 159.144531 89.875 158.96875 C 90 158.742188 90.242188 157.8125 89.855469 157.183594 C 89.835938 157.152344 89.824219 157.144531 89.824219 157.144531 C 89.730469 157.109375 89.359375 157.257812 89.09375 157.472656 C 88.832031 157.6875 88.441406 157.648438 88.230469 157.386719 C 88.015625 157.125 88.050781 156.738281 88.3125 156.523438 C 88.460938 156.402344 89.234375 155.800781 90.019531 155.933594 C 90.390625 155.996094 90.695312 156.203125 90.902344 156.542969 C 91.519531 157.546875 91.246094 158.726562 91.148438 159.0625 C 90.9375 159.796875 90.640625 159.941406 90.542969 159.992188 C 90.453125 160.03125 90.363281 160.054688 90.273438 160.054688 " fill-opacity="1" fill-rule="nonzero"/><path fill="#f4f5f8" d="M 182.042969 196.078125 L 103.046875 196.078125 C 99.085938 196.078125 96.011719 192.617188 96.484375 188.6875 L 106.203125 107.625 C 106.601562 104.304688 109.417969 101.808594 112.765625 101.808594 L 191.761719 101.808594 C 195.722656 101.808594 198.796875 105.265625 198.324219 109.195312 L 188.605469 190.257812 C 188.207031 193.578125 185.390625 196.078125 182.042969 196.078125 " fill-opacity="1" fill-rule="nonzero"/><path fill="#0a21c0" d="M 182.296875 124.980469 L 151.351562 124.980469 C 150.558594 124.980469 149.917969 124.339844 149.917969 123.546875 C 149.917969 122.757812 150.558594 122.117188 151.351562 122.117188 L 182.296875 122.117188 C 183.085938 122.117188 183.730469 122.757812 183.730469 123.546875 C 183.730469 124.339844 183.085938 124.980469 182.296875 124.980469 " fill-opacity="1" fill-rule="nonzero"/><path fill="#0a21c0" d="M 179.816406 135.125 L 149.699219 135.125 C 148.90625 135.125 148.265625 134.484375 148.265625 133.695312 C 148.265625 132.902344 148.90625 132.261719 149.699219 132.261719 L 179.816406 132.261719 C 180.605469 132.261719 181.246094 132.902344 181.246094 133.695312 C 181.246094 134.484375 180.605469 135.125 179.816406 135.125 " fill-opacity="1" fill-rule="nonzero"/><path fill="#0a21c0" d="M 178.988281 144.328125 L 172.136719 144.328125 C 171.347656 144.328125 170.707031 143.6875 170.707031 142.894531 C 170.707031 142.105469 171.347656 141.464844 172.136719 141.464844 L 178.988281 141.464844 C 179.78125 141.464844 180.421875 142.105469 180.421875 142.894531 C 180.421875 143.6875 179.78125 144.328125 178.988281 144.328125 " fill-opacity="1" fill-rule="nonzero"/><path fill="#0a21c0" d="M 177.808594 154 L 140.484375 154 C 139.691406 154 139.050781 153.359375 139.050781 152.570312 C 139.050781 151.78125 139.691406 151.136719 140.484375 151.136719 L 177.808594 151.136719 C 178.597656 151.136719 179.242188 151.78125 179.242188 152.570312 C 179.242188 153.359375 178.597656 154 177.808594 154 " fill-opacity="1" fill-rule="nonzero"/><path fill="#b3b4bd" d="M 109.65625 160.621094 L 186.867188 160.871094 L 182.25 190.816406 L 104.042969 191.765625 L 109.65625 160.621094 " fill-opacity="1" fill-rule="nonzero"/><path fill="#b3b4bd" d="M 133.871094 153.140625 L 109.253906 153.140625 C 108.707031 153.140625 108.285156 152.703125 108.371094 152.222656 L 113.425781 123.015625 C 113.492188 122.628906 113.867188 122.34375 114.308594 122.34375 L 138.925781 122.34375 C 139.472656 122.34375 139.894531 122.777344 139.8125 123.261719 L 134.753906 152.464844 C 134.6875 152.851562 134.3125 153.140625 133.871094 153.140625 " fill-opacity="1" fill-rule="nonzero"/><path fill="#e5e7fd" d="M 169.367188 115.550781 L 131.394531 115.550781 C 130.351562 115.550781 129.550781 114.636719 129.683594 113.605469 L 129.953125 111.566406 C 130.066406 110.710938 130.796875 110.070312 131.664062 110.070312 L 169.632812 110.070312 C 170.675781 110.070312 171.480469 110.984375 171.34375 112.015625 L 171.074219 114.054688 C 170.960938 114.910156 170.230469 115.550781 169.367188 115.550781 " fill-opacity="1" fill-rule="nonzero"/><path fill="#141619" d="M 182.042969 196.6875 L 143.925781 196.6875 C 143.585938 196.6875 143.3125 196.414062 143.3125 196.074219 C 143.3125 195.734375 143.585938 195.460938 143.925781 195.460938 L 182.042969 195.460938 C 185.074219 195.460938 187.636719 193.191406 187.996094 190.183594 L 197.714844 109.125 C 197.917969 107.425781 197.382812 105.71875 196.25 104.441406 C 195.109375 103.15625 193.472656 102.421875 191.761719 102.421875 L 112.765625 102.421875 C 109.734375 102.421875 107.171875 104.691406 106.8125 107.699219 L 100.074219 161.773438 C 100.035156 162.109375 99.730469 162.347656 99.390625 162.304688 C 99.054688 162.261719 98.816406 161.957031 98.855469 161.621094 L 105.59375 107.550781 C 106.027344 103.925781 109.113281 101.195312 112.765625 101.195312 L 191.761719 101.195312 C 193.828125 101.195312 195.796875 102.078125 197.167969 103.625 C 198.535156 105.164062 199.179688 107.222656 198.933594 109.269531 L 189.214844 190.332031 C 188.78125 193.957031 185.699219 196.6875 182.042969 196.6875 " fill-opacity="1" fill-rule="nonzero"/><path fill="#0a21c0" d="M 139.070312 179.222656 L 143.160156 185.425781 C 143.160156 185.425781 123.433594 214.582031 83.066406 200.796875 L 90.246094 179.199219 C 90.246094 179.199219 106.832031 195.261719 139.070312 179.222656 " fill-opacity="1" fill-rule="nonzero"/><path fill="#f4f5f8" d="M 138.898438 182.246094 C 138.652344 182.003906 138.113281 181.433594 138.097656 181.089844 C 138.054688 180.007812 138.40625 177.457031 138.726562 176.6875 C 139.140625 175.675781 139.824219 171.238281 140.636719 170.636719 C 141.445312 170.03125 142.304688 172.171875 142.160156 173.277344 C 142.019531 174.382812 141.347656 176.0625 141.867188 176.285156 C 142.386719 176.511719 147.769531 170.183594 148.871094 170.449219 C 149.976562 170.710938 157.207031 171.222656 148.199219 181.929688 C 146.949219 183.414062 144.316406 185.066406 143.160156 185.425781 C 142.675781 185.578125 142.148438 185.449219 141.789062 185.09375 L 138.898438 182.246094 " fill-opacity="1" fill-rule="nonzero"/><path fill="#141619" d="M 139.332031 181.808594 L 142.21875 184.65625 C 142.417969 184.851562 142.707031 184.925781 142.976562 184.839844 C 144.023438 184.515625 146.539062 182.949219 147.730469 181.53125 C 151.957031 176.507812 152.335938 174.035156 151.914062 172.847656 C 151.453125 171.558594 149.824219 171.253906 149.039062 171.105469 C 148.945312 171.089844 148.859375 171.074219 148.792969 171.058594 C 148.167969 171.226562 146.039062 173.332031 144.890625 174.472656 C 142.6875 176.648438 142.203125 177.101562 141.621094 176.851562 C 140.792969 176.492188 141.050781 175.429688 141.324219 174.296875 C 141.417969 173.914062 141.511719 173.515625 141.554688 173.199219 C 141.636719 172.535156 141.238281 171.464844 140.949219 171.1875 C 140.582031 171.683594 140.085938 173.820312 139.839844 174.871094 C 139.625 175.796875 139.453125 176.527344 139.292969 176.917969 C 139.019531 177.582031 138.671875 180.058594 138.710938 181.0625 C 138.722656 181.09375 138.871094 181.355469 139.332031 181.808594 Z M 142.75 186.101562 C 142.234375 186.101562 141.734375 185.902344 141.355469 185.53125 L 138.46875 182.683594 C 137.609375 181.835938 137.496094 181.382812 137.484375 181.113281 C 137.4375 179.996094 137.785156 177.347656 138.15625 176.449219 C 138.28125 176.152344 138.457031 175.394531 138.644531 174.59375 C 139.195312 172.226562 139.605469 170.636719 140.269531 170.140625 C 140.644531 169.863281 141.09375 169.839844 141.496094 170.078125 C 142.347656 170.574219 142.90625 172.292969 142.769531 173.355469 C 142.722656 173.738281 142.617188 174.171875 142.515625 174.585938 C 142.476562 174.761719 142.421875 174.980469 142.375 175.195312 C 142.847656 174.765625 143.476562 174.140625 144.023438 173.601562 C 147.042969 170.613281 148.183594 169.652344 149.015625 169.851562 C 149.078125 169.867188 149.164062 169.878906 149.265625 169.902344 C 150.195312 170.074219 152.371094 170.484375 153.070312 172.433594 C 153.855469 174.632812 152.414062 177.871094 148.667969 182.324219 C 147.324219 183.921875 144.550781 185.636719 143.339844 186.015625 C 143.148438 186.074219 142.945312 186.101562 142.75 186.101562 " fill-opacity="1" fill-rule="nonzero"/><path fill="#141619" d="M 112.191406 187.539062 C 104.835938 187.539062 94.144531 185.429688 89.753906 179.566406 C 89.550781 179.292969 89.609375 178.910156 89.878906 178.707031 C 90.152344 178.503906 90.535156 178.558594 90.738281 178.832031 C 96.082031 185.96875 112.109375 187.191406 117.445312 185.796875 C 117.773438 185.714844 118.109375 185.910156 118.191406 186.238281 C 118.277344 186.566406 118.082031 186.902344 117.753906 186.988281 C 116.40625 187.339844 114.457031 187.539062 112.191406 187.539062 " fill-opacity="1" fill-rule="nonzero"/><path fill="#f4f5f8" d="M 321.929688 54.65625 L 317.398438 54.65625 C 313.734375 54.65625 310.601562 57.292969 309.976562 60.90625 L 306.847656 79.003906 L 325.613281 79.003906 L 325.613281 72.425781 L 321.929688 54.65625 " fill-opacity="1" fill-rule="nonzero"/><path fill="#141619" d="M 307.578125 78.386719 L 324.996094 78.386719 L 324.996094 72.488281 L 321.433594 55.269531 L 317.402344 55.269531 C 314.023438 55.269531 311.15625 57.683594 310.582031 61.011719 Z M 325.613281 79.617188 L 306.847656 79.617188 C 306.667969 79.617188 306.496094 79.535156 306.378906 79.398438 C 306.261719 79.261719 306.214844 79.078125 306.246094 78.898438 L 309.375 60.800781 C 310.050781 56.882812 313.429688 54.042969 317.402344 54.042969 L 321.933594 54.042969 C 322.222656 54.042969 322.472656 54.246094 322.53125 54.53125 L 326.210938 72.300781 C 326.222656 72.34375 326.226562 72.386719 326.226562 72.425781 L 326.226562 79.003906 C 326.226562 79.339844 325.949219 79.617188 325.613281 79.617188 " fill-opacity="1" fill-rule="nonzero"/><path fill="#e5e7fd" d="M 325.613281 79.003906 C 325.613281 79.769531 321.414062 80.390625 316.230469 80.390625 C 311.046875 80.390625 306.847656 79.769531 306.847656 79.003906 C 306.847656 78.234375 311.046875 77.613281 316.230469 77.613281 C 321.414062 77.613281 325.613281 78.234375 325.613281 79.003906 " fill-opacity="1" fill-rule="nonzero"/><path fill="#141619" d="M 325.078125 79.234375 L 325.082031 79.234375 Z M 307.890625 79.003906 C 309 79.351562 311.792969 79.777344 316.230469 79.777344 C 320.667969 79.777344 323.464844 79.351562 324.570312 79.003906 C 323.464844 78.65625 320.667969 78.230469 316.230469 78.230469 C 311.792969 78.230469 309 78.65625 307.890625 79.003906 Z M 316.230469 81.007812 C 313.695312 81.007812 311.308594 80.859375 309.507812 80.589844 C 307.179688 80.25 306.234375 79.785156 306.234375 79.003906 C 306.234375 78.207031 307.152344 77.761719 309.507812 77.414062 C 311.308594 77.148438 313.695312 77 316.230469 77 C 318.765625 77 321.152344 77.148438 322.957031 77.414062 C 325.308594 77.761719 326.226562 78.207031 326.226562 79.003906 C 326.226562 79.785156 325.277344 80.25 322.957031 80.589844 C 321.152344 80.859375 318.765625 81.007812 316.230469 81.007812 " fill-opacity="1" fill-rule="nonzero"/><path fill="#0a21c0" d="M 316.226562 78.429688 C 314.75 78.429688 313.355469 78.480469 312.109375 78.570312 C 312.015625 80.257812 312.007812 82.085938 312.144531 84.039062 C 312.613281 90.855469 314.589844 96.300781 316.285156 99.925781 C 317.046875 98.441406 317.828125 96.675781 318.5 94.636719 C 319.429688 91.828125 319.890625 89.265625 320.117188 87.167969 C 320.027344 88.207031 320.027344 89.679688 320.445312 91.367188 C 320.695312 92.394531 321.042969 93.261719 321.382812 93.949219 C 321.976562 91.785156 322.523438 89.101562 322.742188 86 C 322.929688 83.320312 322.828125 80.894531 322.601562 78.800781 C 320.929688 78.570312 318.691406 78.429688 316.226562 78.429688 " fill-opacity="1" fill-rule="nonzero"/><path fill="#f4f5f8" d="M 346.152344 54.65625 L 350.679688 54.65625 C 354.34375 54.65625 357.480469 57.292969 358.101562 60.90625 L 361.234375 79.003906 L 342.46875 79.003906 L 342.46875 72.425781 L 346.152344 54.65625 " fill-opacity="1" fill-rule="nonzero"/><path fill="#141619" d="M 343.082031 78.390625 L 360.503906 78.390625 L 357.496094 61.015625 C 356.921875 57.6875 354.054688 55.273438 350.679688 55.273438 L 346.648438 55.273438 L 343.082031 72.488281 Z M 361.230469 79.617188 L 342.46875 79.617188 C 342.128906 79.617188 341.851562 79.34375 341.851562 79.003906 L 341.851562 72.429688 C 341.851562 72.386719 341.859375 72.34375 341.863281 72.300781 L 345.546875 54.535156 C 345.609375 54.25 345.855469 54.042969 346.148438 54.042969 L 350.679688 54.042969 C 354.65625 54.042969 358.03125 56.886719 358.710938 60.800781 L 361.835938 78.898438 C 361.867188 79.078125 361.816406 79.261719 361.699219 79.398438 C 361.585938 79.539062 361.414062 79.617188 361.230469 79.617188 " fill-opacity="1" fill-rule="nonzero"/><path fill="#e5e7fd" d="M 342.46875 79.003906 C 342.46875 79.769531 346.667969 80.390625 351.851562 80.390625 C 357.03125 80.390625 361.234375 79.769531 361.234375 79.003906 C 361.234375 78.234375 357.03125 77.613281 351.851562 77.613281 C 346.667969 77.613281 342.46875 78.234375 342.46875 79.003906 " fill-opacity="1" fill-rule="nonzero"/><path fill="#141619" d="M 343.511719 79 C 344.621094 79.351562 347.414062 79.777344 351.847656 79.777344 C 356.289062 79.777344 359.082031 79.351562 360.191406 79 C 359.082031 78.65625 356.289062 78.230469 351.847656 78.230469 C 347.414062 78.230469 344.621094 78.65625 343.511719 79 Z M 351.847656 81.007812 C 349.316406 81.007812 346.929688 80.859375 345.125 80.59375 C 342.800781 80.25 341.855469 79.789062 341.855469 79 C 341.855469 78.207031 342.773438 77.761719 345.125 77.414062 C 346.929688 77.148438 349.316406 77 351.847656 77 C 354.386719 77 356.773438 77.148438 358.574219 77.414062 C 360.929688 77.761719 361.847656 78.207031 361.847656 79 C 361.847656 79.789062 360.898438 80.25 358.574219 80.59375 C 356.773438 80.859375 354.386719 81.007812 351.847656 81.007812 " fill-opacity="1" fill-rule="nonzero"/><path fill="#0a21c0" d="M 351.847656 78.429688 C 353.328125 78.429688 354.726562 78.480469 355.96875 78.570312 C 356.0625 80.253906 356.070312 82.085938 355.9375 84.039062 C 355.464844 90.855469 353.492188 96.300781 351.792969 99.925781 C 351.03125 98.441406 350.25 96.675781 349.578125 94.636719 C 348.652344 91.824219 348.1875 89.269531 347.960938 87.164062 C 348.050781 88.207031 348.050781 89.679688 347.636719 91.367188 C 347.382812 92.394531 347.035156 93.261719 346.695312 93.945312 C 346.101562 91.785156 345.554688 89.101562 345.335938 86 C 345.152344 83.320312 345.246094 80.894531 345.476562 78.800781 C 347.152344 78.570312 349.386719 78.429688 351.847656 78.429688 " fill-opacity="1" fill-rule="nonzero"/><path fill="#f4f5f8" d="M 346.886719 27.386719 L 336.738281 7.691406 C 335.609375 5.5 332.476562 5.5 331.347656 7.691406 L 321.195312 27.386719 C 318.394531 32.824219 316.929688 38.855469 316.929688 44.972656 C 316.929688 49.058594 317.582031 53.121094 318.863281 57.003906 L 323.945312 73.28125 C 323.945312 74.105469 328.464844 74.777344 334.039062 74.777344 C 339.617188 74.777344 344.136719 74.105469 344.136719 73.28125 L 349.21875 57.003906 C 350.496094 53.121094 351.152344 49.058594 351.152344 44.972656 C 351.152344 38.855469 349.6875 32.824219 346.886719 27.386719 " fill-opacity="1" fill-rule="nonzero"/><path fill="#141619" d="M 324.535156 73.105469 C 325.078125 73.496094 328.257812 74.164062 334.039062 74.164062 C 339.824219 74.164062 343.003906 73.496094 343.546875 73.105469 C 343.550781 73.101562 343.550781 73.101562 343.554688 73.101562 L 348.632812 56.820312 C 349.898438 52.984375 350.539062 49.003906 350.539062 44.972656 C 350.539062 38.980469 349.085938 32.996094 346.339844 27.667969 L 336.191406 7.972656 C 335.769531 7.152344 334.964844 6.664062 334.039062 6.664062 C 333.117188 6.664062 332.3125 7.152344 331.890625 7.972656 L 321.742188 27.667969 C 318.996094 32.996094 317.542969 38.976562 317.542969 44.972656 C 317.542969 49 318.183594 52.984375 319.449219 56.808594 L 324.53125 73.101562 C 324.53125 73.101562 324.535156 73.101562 324.535156 73.105469 Z M 334.039062 75.390625 C 331.316406 75.390625 328.746094 75.234375 326.8125 74.945312 C 324.460938 74.597656 323.429688 74.144531 323.335938 73.398438 L 318.277344 57.183594 C 316.976562 53.242188 316.316406 49.128906 316.316406 44.972656 C 316.316406 38.78125 317.8125 32.605469 320.648438 27.105469 L 330.800781 7.410156 C 331.429688 6.191406 332.667969 5.433594 334.039062 5.433594 C 335.414062 5.433594 336.65625 6.191406 337.285156 7.410156 L 347.433594 27.105469 C 350.269531 32.605469 351.765625 38.785156 351.765625 44.972656 C 351.765625 49.132812 351.105469 53.246094 349.800781 57.195312 L 344.746094 73.398438 C 344.652344 74.144531 343.621094 74.597656 341.273438 74.945312 C 339.335938 75.234375 336.765625 75.390625 334.039062 75.390625 " fill-opacity="1" fill-rule="nonzero"/><path fill="#e5e7fd" d="M 343.421875 73.390625 C 343.421875 74.15625 339.21875 74.777344 334.039062 74.777344 C 328.855469 74.777344 324.65625 74.15625 324.65625 73.390625 C 324.65625 72.621094 328.855469 72 334.039062 72 C 339.21875 72 343.421875 72.621094 343.421875 73.390625 " fill-opacity="1" fill-rule="nonzero"/><path fill="#141619" d="M 342.886719 73.621094 L 342.890625 73.621094 Z M 325.699219 73.390625 C 326.808594 73.738281 329.601562 74.164062 334.039062 74.164062 C 338.476562 74.164062 341.273438 73.738281 342.378906 73.390625 C 341.273438 73.042969 338.476562 72.617188 334.039062 72.617188 C 329.601562 72.617188 326.808594 73.042969 325.699219 73.390625 Z M 334.039062 75.390625 C 331.503906 75.390625 329.117188 75.246094 327.316406 74.980469 C 324.960938 74.628906 324.042969 74.1875 324.042969 73.390625 C 324.042969 72.605469 324.988281 72.144531 327.316406 71.800781 C 329.117188 71.535156 331.503906 71.390625 334.039062 71.390625 C 336.574219 71.390625 338.960938 71.535156 340.765625 71.800781 C 343.085938 72.144531 344.035156 72.605469 344.035156 73.390625 C 344.035156 74.1875 343.117188 74.628906 340.761719 74.980469 C 338.960938 75.246094 336.574219 75.390625 334.039062 75.390625 " fill-opacity="1" fill-rule="nonzero"/><path fill="#0a21c0" d="M 339.894531 73.230469 C 338.265625 73.027344 336.171875 72.90625 333.882812 72.90625 C 331.550781 72.90625 329.417969 73.03125 327.777344 73.242188 C 327.355469 76.324219 327.128906 79.878906 327.351562 83.800781 C 327.980469 95.050781 331.941406 103.667969 334.769531 108.644531 C 334.800781 98.976562 335.253906 94.105469 336.117188 94.03125 C 336.679688 93.984375 337.410156 95.933594 338.316406 99.882812 C 339.480469 97.3125 340.703125 93.851562 341.289062 89.648438 C 342.230469 82.859375 341.097656 77.101562 339.894531 73.230469 " fill-opacity="1" fill-rule="nonzero"/><path fill="#141619" d="M 343.839844 23.671875 C 343.78125 23.671875 343.71875 23.667969 343.660156 23.648438 C 342.597656 23.324219 341.519531 23.050781 340.460938 22.832031 C 340.125 22.765625 339.914062 22.441406 339.980469 22.109375 C 340.046875 21.777344 340.371094 21.5625 340.703125 21.628906 C 341.804688 21.855469 342.921875 22.140625 344.019531 22.472656 C 344.34375 22.574219 344.527344 22.917969 344.425781 23.238281 C 344.347656 23.503906 344.105469 23.671875 343.839844 23.671875 " fill-opacity="1" fill-rule="nonzero"/><path fill="#141619" d="M 324.242188 23.675781 C 323.980469 23.675781 323.734375 23.503906 323.652344 23.242188 C 323.554688 22.917969 323.734375 22.574219 324.0625 22.476562 C 327.976562 21.28125 331.945312 20.789062 335.863281 21.003906 C 336.203125 21.023438 336.460938 21.3125 336.441406 21.648438 C 336.421875 21.988281 336.140625 22.238281 335.796875 22.230469 C 332.019531 22.019531 328.191406 22.496094 324.421875 23.648438 C 324.363281 23.667969 324.300781 23.675781 324.242188 23.675781 " fill-opacity="1" fill-rule="nonzero"/><path fill="#0a21c0" d="M 343.746094 43.285156 C 343.746094 48.648438 339.402344 52.996094 334.039062 52.996094 C 328.675781 52.996094 324.332031 48.648438 324.332031 43.285156 C 324.332031 37.921875 328.675781 33.578125 334.039062 33.578125 C 339.402344 33.578125 343.746094 37.921875 343.746094 43.285156 " fill-opacity="1" fill-rule="nonzero"/><path fill="#141619" d="M 334.039062 34.191406 C 329.023438 34.191406 324.945312 38.273438 324.945312 43.285156 C 324.945312 48.300781 329.023438 52.382812 334.039062 52.382812 C 339.054688 52.382812 343.136719 48.300781 343.136719 43.285156 C 343.136719 38.273438 339.054688 34.191406 334.039062 34.191406 Z M 334.039062 53.609375 C 328.347656 53.609375 323.714844 48.980469 323.714844 43.285156 C 323.714844 37.597656 328.347656 32.960938 334.039062 32.960938 C 339.730469 32.960938 344.363281 37.597656 344.363281 43.285156 C 344.363281 48.980469 339.730469 53.609375 334.039062 53.609375 " fill-opacity="1" fill-rule="nonzero"/><path fill="#141619" d="M 340.753906 33.910156 C 340.632812 33.910156 340.515625 33.878906 340.410156 33.808594 C 339.109375 32.929688 337.667969 32.339844 336.125 32.054688 C 335.792969 31.992188 335.574219 31.675781 335.636719 31.339844 C 335.699219 31.007812 336.019531 30.785156 336.351562 30.847656 C 338.058594 31.164062 339.65625 31.816406 341.097656 32.785156 C 341.378906 32.980469 341.449219 33.359375 341.261719 33.640625 C 341.144531 33.816406 340.949219 33.910156 340.753906 33.910156 Z M 326.929688 34.191406 C 326.738281 34.191406 326.554688 34.105469 326.433594 33.941406 C 326.230469 33.667969 326.289062 33.285156 326.566406 33.082031 C 327.96875 32.054688 329.535156 31.335938 331.226562 30.953125 C 331.5625 30.875 331.886719 31.085938 331.960938 31.417969 C 332.039062 31.746094 331.828125 32.074219 331.5 32.148438 C 329.972656 32.496094 328.554688 33.140625 327.292969 34.070312 C 327.183594 34.152344 327.054688 34.191406 326.929688 34.191406 Z M 345.914062 41.945312 C 345.621094 41.945312 345.359375 41.734375 345.308594 41.429688 C 345.058594 39.886719 344.5 38.433594 343.648438 37.113281 C 343.464844 36.828125 343.546875 36.449219 343.832031 36.265625 C 344.117188 36.082031 344.496094 36.164062 344.683594 36.449219 C 345.625 37.910156 346.242188 39.519531 346.519531 41.234375 C 346.574219 41.566406 346.347656 41.886719 346.011719 41.941406 C 345.980469 41.945312 345.945312 41.945312 345.914062 41.945312 Z M 322.09375 42.429688 C 322.070312 42.429688 322.042969 42.425781 322.019531 42.425781 C 321.683594 42.382812 321.445312 42.078125 321.484375 41.742188 C 321.695312 40.019531 322.25 38.382812 323.132812 36.882812 C 323.300781 36.59375 323.679688 36.496094 323.96875 36.667969 C 324.261719 36.839844 324.359375 37.214844 324.1875 37.507812 C 323.394531 38.859375 322.894531 40.332031 322.703125 41.890625 C 322.667969 42.199219 322.402344 42.429688 322.09375 42.429688 Z M 345.085938 48.675781 C 345.007812 48.675781 344.921875 48.660156 344.84375 48.625 C 344.53125 48.492188 344.390625 48.128906 344.527344 47.820312 C 345.144531 46.382812 345.460938 44.859375 345.460938 43.285156 C 345.460938 42.949219 345.734375 42.671875 346.074219 42.671875 C 346.414062 42.671875 346.6875 42.949219 346.6875 43.285156 C 346.6875 45.027344 346.339844 46.71875 345.652344 48.304688 C 345.550781 48.539062 345.324219 48.675781 345.085938 48.675781 Z M 324.785156 51.59375 C 324.609375 51.59375 324.4375 51.519531 324.3125 51.371094 C 323.199219 50.03125 322.386719 48.511719 321.902344 46.847656 C 321.804688 46.523438 321.992188 46.179688 322.316406 46.085938 C 322.640625 45.992188 322.984375 46.175781 323.078125 46.503906 C 323.519531 48.003906 324.25 49.375 325.257812 50.585938 C 325.476562 50.847656 325.4375 51.234375 325.179688 51.449219 C 325.0625 51.546875 324.925781 51.59375 324.785156 51.59375 Z M 338.128906 55.21875 C 337.878906 55.21875 337.644531 55.066406 337.554688 54.816406 C 337.4375 54.496094 337.601562 54.144531 337.917969 54.03125 C 339.390625 53.496094 340.71875 52.683594 341.867188 51.605469 C 342.109375 51.371094 342.5 51.382812 342.730469 51.632812 C 342.964844 51.878906 342.953125 52.265625 342.707031 52.5 C 341.4375 53.691406 339.96875 54.59375 338.339844 55.183594 C 338.269531 55.207031 338.199219 55.21875 338.128906 55.21875 Z M 333.300781 55.910156 C 333.292969 55.910156 333.277344 55.910156 333.265625 55.910156 C 331.527344 55.808594 329.863281 55.355469 328.316406 54.570312 C 328.015625 54.414062 327.894531 54.046875 328.050781 53.742188 C 328.203125 53.441406 328.574219 53.320312 328.875 53.472656 C 330.269531 54.183594 331.773438 54.589844 333.339844 54.683594 C 333.679688 54.707031 333.9375 54.996094 333.914062 55.335938 C 333.894531 55.660156 333.625 55.910156 333.300781 55.910156 " fill-opacity="1" fill-rule="nonzero"/><path fill="#f4f5f8" d="M 332.058594 95.03125 C 331.71875 95.03125 331.441406 94.757812 331.441406 94.417969 L 331.441406 76.359375 C 331.441406 76.019531 331.71875 75.746094 332.058594 75.746094 C 332.398438 75.746094 332.671875 76.019531 332.671875 76.359375 L 332.671875 94.417969 C 332.671875 94.757812 332.398438 95.03125 332.058594 95.03125 " fill-opacity="1" fill-rule="nonzero"/><path fill="#f4f5f8" d="M 334.039062 82.335938 C 333.699219 82.335938 333.425781 82.058594 333.425781 81.722656 L 333.425781 74.390625 C 333.425781 74.050781 333.699219 73.773438 334.039062 73.773438 C 334.378906 73.773438 334.652344 74.050781 334.652344 74.390625 L 334.652344 81.722656 C 334.652344 82.058594 334.378906 82.335938 334.039062 82.335938 " fill-opacity="1" fill-rule="nonzero"/><path fill="#f4f5f8" d="M 315.152344 90.960938 C 314.8125 90.960938 314.539062 90.683594 314.539062 90.34375 L 314.539062 79.753906 C 314.539062 79.414062 314.8125 79.140625 315.152344 79.140625 C 315.492188 79.140625 315.765625 79.414062 315.765625 79.753906 L 315.765625 90.34375 C 315.765625 90.683594 315.492188 90.960938 315.152344 90.960938 " fill-opacity="1" fill-rule="nonzero"/><path fill="#f4f5f8" d="M 316.929688 87.699219 C 316.589844 87.699219 316.316406 87.425781 316.316406 87.085938 L 316.316406 81.722656 C 316.316406 81.382812 316.589844 81.105469 316.929688 81.105469 C 317.269531 81.105469 317.542969 81.382812 317.542969 81.722656 L 317.542969 87.085938 C 317.542969 87.425781 317.269531 87.699219 316.929688 87.699219 " fill-opacity="1" fill-rule="nonzero"/><path fill="#f4f5f8" d="M 349.4375 84.035156 C 349.097656 84.035156 348.824219 83.757812 348.824219 83.417969 L 348.824219 80.363281 C 348.824219 80.023438 349.097656 79.75 349.4375 79.75 C 349.777344 79.75 350.050781 80.023438 350.050781 80.363281 L 350.050781 83.417969 C 350.050781 83.757812 349.777344 84.035156 349.4375 84.035156 " fill-opacity="1" fill-rule="nonzero"/><path fill="#f4f5f8" d="M 352.359375 93.402344 C 352.019531 93.402344 351.746094 93.125 351.746094 92.789062 L 351.746094 81.722656 C 351.746094 81.382812 352.019531 81.105469 352.359375 81.105469 C 352.695312 81.105469 352.972656 81.382812 352.972656 81.722656 L 352.972656 92.789062 C 352.972656 93.125 352.695312 93.402344 352.359375 93.402344 " fill-opacity="1" fill-rule="nonzero"/><path fill="#e5e7fd" d="M 328.398438 46.414062 C 328.242188 46.414062 328.085938 46.351562 327.964844 46.230469 C 327.722656 45.992188 327.722656 45.601562 327.964844 45.363281 L 336.714844 36.613281 C 336.957031 36.375 337.34375 36.375 337.582031 36.613281 C 337.824219 36.851562 337.824219 37.242188 337.582031 37.480469 L 328.832031 46.230469 C 328.714844 46.351562 328.558594 46.414062 328.398438 46.414062 " fill-opacity="1" fill-rule="nonzero"/><path fill="#e5e7fd" d="M 329.433594 50.296875 C 329.277344 50.296875 329.117188 50.234375 329 50.117188 C 328.757812 49.875 328.757812 49.488281 329 49.246094 L 335.394531 42.851562 C 335.636719 42.609375 336.023438 42.609375 336.265625 42.851562 C 336.503906 43.089844 336.503906 43.480469 336.265625 43.71875 L 329.867188 50.117188 C 329.75 50.234375 329.589844 50.296875 329.433594 50.296875 " fill-opacity="1" fill-rule="nonzero"/><path fill="#0a21c0" d="M 339.636719 119.324219 C 339.316406 119.324219 339.042969 119.070312 339.027344 118.742188 C 338.9375 117.132812 338.832031 115.484375 338.714844 113.851562 C 338.6875 113.511719 338.941406 113.21875 339.28125 113.195312 C 339.617188 113.167969 339.917969 113.421875 339.941406 113.761719 C 340.058594 115.40625 340.164062 117.058594 340.253906 118.671875 C 340.269531 119.011719 340.011719 119.304688 339.675781 119.320312 C 339.660156 119.324219 339.652344 119.324219 339.636719 119.324219 Z M 339.988281 129.140625 C 339.652344 129.140625 339.378906 128.875 339.375 128.535156 C 339.347656 126.914062 339.304688 125.265625 339.246094 123.636719 C 339.238281 123.300781 339.503906 123.011719 339.839844 123 C 340.195312 122.984375 340.460938 123.253906 340.476562 123.59375 C 340.53125 125.230469 340.578125 126.886719 340.601562 128.515625 C 340.605469 128.855469 340.335938 129.136719 340 129.140625 C 339.992188 129.140625 339.992188 129.140625 339.988281 129.140625 Z M 339.953125 138.964844 C 339.945312 138.964844 339.941406 138.964844 339.933594 138.964844 C 339.597656 138.953125 339.324219 138.675781 339.335938 138.335938 C 339.375 136.722656 339.394531 135.074219 339.402344 133.433594 C 339.40625 133.097656 339.679688 132.824219 340.015625 132.824219 C 340.019531 132.824219 340.019531 132.824219 340.023438 132.824219 C 340.359375 132.824219 340.632812 133.101562 340.628906 133.441406 C 340.625 135.085938 340.601562 136.742188 340.5625 138.363281 C 340.554688 138.699219 340.28125 138.964844 339.953125 138.964844 Z M 339.507812 148.773438 C 339.492188 148.773438 339.480469 148.773438 339.46875 148.773438 C 339.125 148.75 338.871094 148.457031 338.894531 148.121094 C 339 146.503906 339.09375 144.855469 339.164062 143.230469 C 339.179688 142.890625 339.46875 142.609375 339.808594 142.644531 C 340.144531 142.660156 340.40625 142.945312 340.390625 143.285156 C 340.320312 144.921875 340.226562 146.578125 340.117188 148.203125 C 340.097656 148.527344 339.828125 148.773438 339.507812 148.773438 Z M 338.640625 158.558594 C 338.621094 158.558594 338.597656 158.558594 338.574219 158.554688 C 338.238281 158.519531 337.996094 158.214844 338.03125 157.878906 C 338.210938 156.265625 338.375 154.628906 338.515625 153.003906 C 338.546875 152.664062 338.847656 152.417969 339.183594 152.445312 C 339.519531 152.476562 339.769531 152.777344 339.738281 153.113281 C 339.597656 154.742188 339.433594 156.394531 339.253906 158.015625 C 339.21875 158.328125 338.953125 158.558594 338.640625 158.558594 Z M 337.339844 168.296875 C 337.308594 168.296875 337.273438 168.292969 337.242188 168.289062 C 336.90625 168.234375 336.679688 167.921875 336.734375 167.589844 C 336.984375 165.984375 337.222656 164.355469 337.4375 162.738281 C 337.484375 162.402344 337.792969 162.164062 338.128906 162.214844 C 338.464844 162.257812 338.699219 162.566406 338.65625 162.90625 C 338.4375 164.527344 338.199219 166.167969 337.945312 167.78125 C 337.898438 168.082031 337.636719 168.296875 337.339844 168.296875 Z M 335.582031 177.960938 C 335.539062 177.960938 335.5 177.957031 335.457031 177.949219 C 335.125 177.878906 334.910156 177.554688 334.980469 177.222656 C 335.308594 175.644531 335.621094 174.027344 335.914062 172.414062 C 335.972656 172.082031 336.292969 171.859375 336.628906 171.921875 C 336.960938 171.980469 337.183594 172.300781 337.121094 172.632812 C 336.828125 174.253906 336.511719 175.882812 336.183594 177.472656 C 336.121094 177.761719 335.867188 177.960938 335.582031 177.960938 Z M 333.359375 187.527344 C 333.3125 187.527344 333.257812 187.523438 333.207031 187.507812 C 332.878906 187.425781 332.679688 187.089844 332.765625 186.761719 C 333.171875 185.183594 333.566406 183.582031 333.929688 182.003906 C 334.007812 181.675781 334.335938 181.46875 334.667969 181.546875 C 335 181.621094 335.207031 181.953125 335.128906 182.285156 C 334.757812 183.871094 334.363281 185.480469 333.957031 187.066406 C 333.882812 187.34375 333.632812 187.527344 333.359375 187.527344 Z M 320.746094 192.859375 C 320.683594 192.859375 320.617188 192.847656 320.546875 192.828125 C 318.96875 192.289062 317.429688 192.015625 315.976562 192.015625 L 315.933594 192.015625 C 315.59375 192.015625 315.320312 191.738281 315.320312 191.402344 C 315.320312 191.0625 315.59375 190.789062 315.933594 190.789062 L 315.960938 190.789062 C 315.960938 190.789062 315.960938 190.789062 315.964844 190.789062 C 317.570312 190.789062 319.238281 191.082031 320.945312 191.664062 C 321.265625 191.773438 321.4375 192.121094 321.332031 192.445312 C 321.242188 192.699219 321.003906 192.859375 320.746094 192.859375 Z M 306.910156 195.417969 C 306.734375 195.417969 306.558594 195.339844 306.4375 195.191406 C 306.222656 194.929688 306.257812 194.542969 306.523438 194.328125 C 307.824219 193.253906 309.308594 192.394531 310.925781 191.78125 C 311.238281 191.660156 311.597656 191.816406 311.714844 192.132812 C 311.839844 192.453125 311.679688 192.804688 311.359375 192.925781 C 309.867188 193.496094 308.503906 194.285156 307.300781 195.277344 C 307.1875 195.371094 307.046875 195.417969 306.910156 195.417969 Z M 330.464844 196.910156 C 330.390625 196.910156 330.320312 196.898438 330.246094 196.867188 C 329.929688 196.75 329.769531 196.394531 329.890625 196.078125 C 330.449219 194.617188 330.976562 193.066406 331.464844 191.472656 C 331.5625 191.144531 331.90625 190.960938 332.230469 191.0625 C 332.554688 191.160156 332.738281 191.503906 332.636719 191.828125 C 332.144531 193.453125 331.605469 195.027344 331.039062 196.515625 C 330.945312 196.757812 330.710938 196.910156 330.464844 196.910156 Z M 329.121094 197.886719 C 328.976562 197.886719 328.832031 197.839844 328.714844 197.738281 C 327.449219 196.648438 326.148438 195.6875 324.847656 194.886719 C 324.558594 194.710938 324.464844 194.332031 324.644531 194.042969 C 324.824219 193.753906 325.203125 193.664062 325.488281 193.839844 C 326.851562 194.675781 328.207031 195.675781 329.519531 196.808594 C 329.777344 197.03125 329.804688 197.417969 329.582031 197.675781 C 329.464844 197.816406 329.289062 197.886719 329.121094 197.886719 Z M 302.3125 203.792969 C 302.300781 203.792969 302.285156 203.792969 302.265625 203.792969 C 301.929688 203.765625 301.675781 203.46875 301.703125 203.132812 C 301.835938 201.425781 302.34375 199.773438 303.21875 198.226562 C 303.386719 197.929688 303.761719 197.828125 304.054688 197.992188 C 304.351562 198.160156 304.457031 198.535156 304.289062 198.828125 C 303.503906 200.21875 303.046875 201.699219 302.929688 203.226562 C 302.902344 203.546875 302.632812 203.792969 302.3125 203.792969 Z M 335.664062 205.1875 C 335.46875 205.1875 335.28125 205.097656 335.160156 204.925781 C 334.226562 203.597656 333.214844 202.316406 332.15625 201.132812 C 331.929688 200.878906 331.953125 200.492188 332.203125 200.265625 C 332.457031 200.039062 332.847656 200.0625 333.074219 200.3125 C 334.160156 201.535156 335.203125 202.851562 336.164062 204.222656 C 336.359375 204.5 336.292969 204.882812 336.015625 205.078125 C 335.910156 205.152344 335.785156 205.1875 335.664062 205.1875 Z M 326.171875 205.726562 C 326.058594 205.726562 325.945312 205.699219 325.847656 205.636719 C 325.558594 205.457031 325.46875 205.078125 325.648438 204.789062 C 326.460938 203.496094 327.242188 202.066406 327.976562 200.542969 C 328.125 200.234375 328.492188 200.109375 328.796875 200.253906 C 329.101562 200.402344 329.226562 200.769531 329.082031 201.074219 C 328.332031 202.640625 327.527344 204.109375 326.691406 205.441406 C 326.578125 205.625 326.375 205.726562 326.171875 205.726562 Z M 305.664062 212.679688 C 305.527344 212.679688 305.386719 212.632812 305.273438 212.53125 C 304.425781 211.820312 303.722656 210.921875 303.171875 209.871094 C 302.886719 209.328125 302.640625 208.769531 302.4375 208.214844 C 302.320312 207.898438 302.480469 207.542969 302.796875 207.425781 C 303.117188 207.308594 303.472656 207.472656 303.589844 207.792969 C 303.773438 208.296875 304 208.804688 304.257812 209.300781 C 304.734375 210.210938 305.34375 210.984375 306.0625 211.597656 C 306.324219 211.816406 306.355469 212.203125 306.136719 212.460938 C 306.015625 212.605469 305.84375 212.679688 305.664062 212.679688 Z M 319.609375 212.933594 C 319.40625 212.933594 319.207031 212.832031 319.09375 212.652344 C 318.910156 212.367188 318.988281 211.984375 319.277344 211.800781 C 320.457031 211.042969 321.644531 209.984375 322.804688 208.664062 C 323.03125 208.410156 323.414062 208.382812 323.671875 208.605469 C 323.925781 208.828125 323.949219 209.21875 323.726562 209.472656 C 322.492188 210.882812 321.21875 212.015625 319.9375 212.835938 C 319.835938 212.898438 319.722656 212.933594 319.609375 212.933594 Z M 340.324219 213.816406 C 340.082031 213.816406 339.847656 213.667969 339.753906 213.425781 C 339.175781 211.953125 338.488281 210.480469 337.707031 209.042969 C 337.546875 208.746094 337.65625 208.371094 337.957031 208.210938 C 338.253906 208.050781 338.625 208.160156 338.789062 208.457031 C 339.589844 209.9375 340.300781 211.457031 340.898438 212.976562 C 341.019531 213.292969 340.867188 213.648438 340.546875 213.773438 C 340.476562 213.800781 340.398438 213.816406 340.324219 213.816406 Z M 312.226562 214.738281 C 311.457031 214.738281 310.71875 214.6875 310.03125 214.582031 C 309.695312 214.53125 309.464844 214.21875 309.515625 213.882812 C 309.566406 213.546875 309.878906 213.320312 310.214844 213.367188 C 311.589844 213.578125 313.179688 213.558594 314.929688 213.308594 C 315.265625 213.261719 315.578125 213.492188 315.625 213.828125 C 315.671875 214.164062 315.441406 214.476562 315.105469 214.523438 C 314.09375 214.667969 313.125 214.738281 312.226562 214.738281 Z M 342.765625 223.308594 C 342.46875 223.308594 342.207031 223.09375 342.160156 222.792969 C 341.917969 221.226562 341.597656 219.621094 341.210938 218.023438 C 341.132812 217.695312 341.332031 217.363281 341.664062 217.285156 C 341.992188 217.203125 342.324219 217.40625 342.40625 217.738281 C 342.796875 219.367188 343.125 221.003906 343.375 222.601562 C 343.429688 222.9375 343.199219 223.25 342.859375 223.300781 C 342.828125 223.308594 342.796875 223.308594 342.765625 223.308594 Z M 343.378906 233.097656 C 343.371094 233.097656 343.363281 233.097656 343.359375 233.097656 C 343.019531 233.085938 342.753906 232.804688 342.765625 232.464844 C 342.785156 231.917969 342.796875 231.355469 342.796875 230.792969 C 342.796875 229.746094 342.761719 228.675781 342.691406 227.617188 C 342.671875 227.277344 342.925781 226.988281 343.265625 226.964844 C 343.621094 226.941406 343.894531 227.199219 343.917969 227.539062 C 343.988281 228.625 344.023438 229.71875 344.023438 230.792969 C 344.023438 231.371094 344.011719 231.945312 343.992188 232.507812 C 343.980469 232.839844 343.707031 233.097656 343.378906 233.097656 Z M 342.027344 242.800781 C 341.976562 242.800781 341.929688 242.792969 341.878906 242.78125 C 341.550781 242.695312 341.347656 242.367188 341.429688 242.035156 C 341.816406 240.476562 342.125 238.882812 342.347656 237.285156 C 342.398438 236.949219 342.707031 236.71875 343.042969 236.761719 C 343.375 236.808594 343.613281 237.117188 343.566406 237.453125 C 343.339844 239.09375 343.019531 240.734375 342.621094 242.332031 C 342.550781 242.613281 342.300781 242.800781 342.027344 242.800781 Z M 338.671875 252.003906 C 338.582031 252.003906 338.492188 251.984375 338.40625 251.945312 C 338.101562 251.796875 337.972656 251.429688 338.121094 251.121094 C 338.828125 249.664062 339.46875 248.164062 340.011719 246.664062 C 340.128906 246.34375 340.484375 246.179688 340.800781 246.296875 C 341.121094 246.414062 341.28125 246.765625 341.167969 247.085938 C 340.605469 248.625 339.953125 250.164062 339.226562 251.660156 C 339.121094 251.878906 338.902344 252.003906 338.671875 252.003906 Z M 333.578125 260.378906 C 333.453125 260.378906 333.324219 260.339844 333.214844 260.261719 C 332.941406 260.058594 332.882812 259.675781 333.085938 259.402344 C 334.058594 258.085938 334.96875 256.734375 335.796875 255.375 C 335.972656 255.085938 336.351562 254.996094 336.640625 255.171875 C 336.929688 255.347656 337.019531 255.726562 336.84375 256.015625 C 335.996094 257.402344 335.066406 258.785156 334.074219 260.128906 C 333.957031 260.292969 333.769531 260.378906 333.578125 260.378906 Z M 327.152344 267.789062 C 326.992188 267.789062 326.832031 267.726562 326.714844 267.609375 C 326.472656 267.367188 326.476562 266.980469 326.714844 266.738281 C 327.882812 265.578125 329.003906 264.386719 330.042969 263.1875 C 330.265625 262.933594 330.652344 262.90625 330.910156 263.128906 C 331.164062 263.351562 331.191406 263.738281 330.96875 263.996094 C 329.90625 265.214844 328.769531 266.429688 327.582031 267.609375 C 327.460938 267.730469 327.304688 267.789062 327.152344 267.789062 Z M 319.757812 274.25 C 319.574219 274.25 319.394531 274.167969 319.269531 274.015625 C 319.0625 273.746094 319.109375 273.359375 319.382812 273.152344 C 320.6875 272.140625 321.953125 271.101562 323.148438 270.058594 C 323.40625 269.832031 323.792969 269.859375 324.015625 270.117188 C 324.238281 270.371094 324.210938 270.761719 323.957031 270.980469 C 322.742188 272.042969 321.453125 273.097656 320.132812 274.125 C 320.019531 274.207031 319.890625 274.25 319.757812 274.25 Z M 311.691406 279.851562 C 311.488281 279.851562 311.289062 279.75 311.171875 279.5625 C 310.992188 279.277344 311.078125 278.898438 311.367188 278.71875 C 312.765625 277.84375 314.136719 276.9375 315.445312 276.035156 C 315.722656 275.839844 316.105469 275.910156 316.300781 276.1875 C 316.496094 276.464844 316.425781 276.851562 316.144531 277.042969 C 314.824219 277.960938 313.433594 278.875 312.015625 279.757812 C 311.917969 279.824219 311.804688 279.851562 311.691406 279.851562 Z M 303.144531 284.699219 C 302.921875 284.699219 302.710938 284.578125 302.601562 284.367188 C 302.445312 284.0625 302.5625 283.695312 302.863281 283.539062 C 304.328125 282.785156 305.777344 282.003906 307.167969 281.214844 C 307.460938 281.046875 307.835938 281.152344 308.003906 281.449219 C 308.171875 281.742188 308.066406 282.117188 307.773438 282.285156 C 306.367188 283.082031 304.90625 283.867188 303.425781 284.628906 C 303.335938 284.675781 303.242188 284.699219 303.144531 284.699219 Z M 294.246094 288.871094 C 294.007812 288.871094 293.78125 288.730469 293.679688 288.5 C 293.546875 288.1875 293.691406 287.824219 294.003906 287.691406 C 295.507812 287.050781 297.011719 286.382812 298.472656 285.695312 C 298.777344 285.550781 299.144531 285.683594 299.289062 285.992188 C 299.433594 286.300781 299.300781 286.664062 298.992188 286.808594 C 297.519531 287.496094 296.003906 288.175781 294.488281 288.824219 C 294.40625 288.855469 294.328125 288.871094 294.246094 288.871094 Z M 286.113281 292.0625 C 285.867188 292.0625 285.628906 291.910156 285.539062 291.65625 C 285.421875 291.335938 285.589844 290.988281 285.90625 290.871094 C 287.097656 290.441406 288.300781 289.996094 289.472656 289.539062 C 289.789062 289.414062 290.144531 289.574219 290.269531 289.890625 C 290.390625 290.203125 290.234375 290.5625 289.917969 290.683594 C 288.734375 291.144531 287.527344 291.59375 286.324219 292.027344 C 286.253906 292.050781 286.183594 292.0625 286.113281 292.0625 " fill-opacity="1" fill-rule="nonzero"/></svg>