<svg xmlns="http://www.w3.org/2000/svg" xmlns:xlink="http://www.w3.org/1999/xlink" width="500" zoomAndPan="magnify" viewBox="0 0 375 374.999991" height="500" preserveAspectRatio="xMidYMid meet" version="1.0"><path fill="#b3b4bd" d="M 90.414062 103.28125 C 126.90625 66.425781 116.457031 43.324219 141.425781 26.257812 C 179.847656 0 251.546875 22.589844 293.855469 58.707031 C 345.660156 102.945312 372.394531 183.71875 341.945312 256.789062 C 309.515625 334.609375 224.1875 375.003906 148.050781 362.828125 C 80.058594 351.957031 13.222656 298.175781 6.527344 233.675781 C 5.800781 226.6875 2.59375 188.894531 25.070312 156.308594 C 43.644531 129.378906 61.488281 132.5 90.414062 103.28125 " fill-opacity="1" fill-rule="nonzero"/><path fill="#f4f5f8" d="M 245.1875 119.476562 C 240.703125 120.707031 236.078125 118.066406 234.847656 113.582031 C 233.621094 109.097656 236.261719 104.464844 240.742188 103.238281 C 245.222656 102.007812 249.851562 104.652344 251.078125 109.132812 C 252.304688 113.621094 249.667969 118.25 245.1875 119.476562 Z M 259.703125 108.464844 L 258.839844 105.3125 L 255.273438 105.472656 C 254.941406 104.78125 254.5625 104.121094 254.128906 103.503906 L 256.015625 100.480469 L 253.691406 98.179688 L 250.683594 100.101562 C 250.058594 99.675781 249.394531 99.296875 248.707031 98.976562 L 248.832031 95.40625 L 245.671875 94.578125 L 244.027344 97.742188 C 243.277344 97.6875 242.515625 97.691406 241.75 97.761719 L 240.074219 94.609375 L 236.921875 95.46875 L 237.082031 99.039062 C 236.390625 99.371094 235.730469 99.753906 235.117188 100.1875 L 232.09375 98.296875 L 229.792969 100.621094 L 231.71875 103.632812 C 231.289062 104.257812 230.910156 104.917969 230.59375 105.609375 L 227.023438 105.488281 L 226.195312 108.648438 L 229.359375 110.292969 C 229.300781 111.042969 229.308594 111.804688 229.375 112.570312 L 226.226562 114.25 L 227.089844 117.40625 L 230.65625 117.242188 C 230.984375 117.9375 231.367188 118.59375 231.800781 119.210938 L 229.910156 122.238281 L 232.238281 124.535156 L 235.246094 122.613281 C 235.871094 123.042969 236.53125 123.417969 237.21875 123.738281 L 237.097656 127.308594 L 240.257812 128.140625 L 241.898438 124.96875 C 242.648438 125.03125 243.410156 125.023438 244.175781 124.957031 L 245.851562 128.109375 L 249.003906 127.242188 L 248.84375 123.675781 C 249.535156 123.347656 250.195312 122.960938 250.8125 122.527344 L 253.835938 124.417969 L 256.132812 122.09375 L 254.210938 119.085938 C 254.640625 118.457031 255.015625 117.792969 255.335938 117.105469 L 258.90625 117.230469 L 259.734375 114.066406 L 256.566406 112.421875 C 256.625 111.671875 256.621094 110.910156 256.550781 110.144531 L 259.703125 108.464844 " fill-opacity="1" fill-rule="nonzero"/><path fill="#000000" d="M 50.136719 79.863281 C 50.066406 79.863281 49.992188 79.847656 49.917969 79.820312 C 49.589844 79.699219 49.421875 79.335938 49.542969 79.007812 L 50.683594 75.9375 C 50.808594 75.609375 51.171875 75.445312 51.5 75.566406 C 51.828125 75.6875 51.996094 76.050781 51.875 76.378906 L 50.734375 79.445312 C 50.636719 79.703125 50.394531 79.863281 50.136719 79.863281 " fill-opacity="1" fill-rule="nonzero"/><path fill="#000000" d="M 47.480469 87.007812 C 47.410156 87.007812 47.332031 86.996094 47.261719 86.96875 C 46.933594 86.84375 46.765625 86.480469 46.886719 86.152344 L 48.027344 83.085938 C 48.148438 82.757812 48.515625 82.589844 48.84375 82.710938 C 49.171875 82.835938 49.335938 83.199219 49.214844 83.527344 L 48.074219 86.59375 C 47.980469 86.847656 47.738281 87.007812 47.480469 87.007812 " fill-opacity="1" fill-rule="nonzero"/><path fill="#000000" d="M 47.339844 81.144531 C 47.269531 81.144531 47.191406 81.128906 47.121094 81.105469 L 44.054688 79.964844 C 43.726562 79.839844 43.558594 79.476562 43.679688 79.148438 C 43.800781 78.820312 44.167969 78.652344 44.496094 78.773438 L 47.5625 79.914062 C 47.890625 80.035156 48.058594 80.402344 47.9375 80.730469 C 47.839844 80.984375 47.597656 81.144531 47.339844 81.144531 " fill-opacity="1" fill-rule="nonzero"/><path fill="#000000" d="M 54.484375 83.796875 C 54.414062 83.796875 54.339844 83.785156 54.265625 83.757812 L 51.199219 82.621094 C 50.871094 82.496094 50.703125 82.132812 50.824219 81.804688 C 50.945312 81.476562 51.3125 81.308594 51.640625 81.429688 L 54.707031 82.570312 C 55.035156 82.691406 55.203125 83.058594 55.082031 83.386719 C 54.984375 83.640625 54.742188 83.796875 54.484375 83.796875 " fill-opacity="1" fill-rule="nonzero"/><path fill="#000000" d="M 314.28125 60.320312 C 313.933594 60.320312 313.648438 60.035156 313.648438 59.6875 L 313.648438 56.414062 C 313.648438 56.0625 313.933594 55.78125 314.28125 55.78125 C 314.632812 55.78125 314.917969 56.0625 314.917969 56.414062 L 314.917969 59.6875 C 314.917969 60.035156 314.632812 60.320312 314.28125 60.320312 " fill-opacity="1" fill-rule="nonzero"/><path fill="#000000" d="M 314.28125 67.945312 C 313.929688 67.945312 313.648438 67.660156 313.648438 67.308594 L 313.648438 64.039062 C 313.648438 63.6875 313.929688 63.402344 314.28125 63.402344 C 314.628906 63.402344 314.917969 63.6875 314.917969 64.039062 L 314.917969 67.308594 C 314.917969 67.660156 314.628906 67.945312 314.28125 67.945312 " fill-opacity="1" fill-rule="nonzero"/><path fill="#000000" d="M 312.105469 62.496094 L 308.835938 62.496094 C 308.484375 62.496094 308.199219 62.210938 308.199219 61.863281 C 308.199219 61.511719 308.484375 61.230469 308.835938 61.230469 L 312.105469 61.230469 C 312.457031 61.230469 312.738281 61.511719 312.738281 61.863281 C 312.738281 62.210938 312.457031 62.496094 312.105469 62.496094 " fill-opacity="1" fill-rule="nonzero"/><path fill="#000000" d="M 319.730469 62.496094 L 316.457031 62.496094 C 316.105469 62.496094 315.824219 62.214844 315.824219 61.863281 C 315.824219 61.511719 316.105469 61.226562 316.457031 61.226562 L 319.730469 61.226562 C 320.082031 61.226562 320.363281 61.511719 320.363281 61.863281 C 320.363281 62.214844 320.082031 62.496094 319.730469 62.496094 " fill-opacity="1" fill-rule="nonzero"/><path fill="#000000" d="M 69.597656 350.15625 C 69.515625 350.15625 69.429688 350.140625 69.351562 350.105469 C 50.097656 341.894531 35.316406 329.507812 25.421875 313.300781 C 25.238281 313 25.335938 312.609375 25.632812 312.429688 C 25.933594 312.246094 26.324219 312.339844 26.503906 312.640625 C 36.257812 328.617188 50.84375 340.832031 69.847656 348.941406 C 70.171875 349.078125 70.320312 349.449219 70.183594 349.773438 C 70.078125 350.011719 69.84375 350.15625 69.597656 350.15625 " fill-opacity="1" fill-rule="nonzero"/><path fill="#000000" d="M 22.746094 307.691406 C 22.53125 307.691406 22.324219 307.582031 22.207031 307.390625 C 15.859375 297.214844 13.976562 289.375 13.902344 289.046875 C 13.820312 288.707031 14.03125 288.363281 14.375 288.285156 C 14.714844 288.203125 15.054688 288.414062 15.136719 288.753906 C 15.15625 288.832031 17.054688 296.734375 23.28125 306.71875 C 23.46875 307.015625 23.375 307.410156 23.078125 307.59375 C 22.976562 307.65625 22.859375 307.691406 22.746094 307.691406 " fill-opacity="1" fill-rule="nonzero"/><path fill="#000000" d="M 72.644531 359.453125 C 72.582031 359.453125 72.519531 359.445312 72.457031 359.425781 C 52.4375 353.132812 38.800781 341.210938 30.886719 332.320312 C 22.3125 322.679688 18.40625 314.402344 18.367188 314.320312 C 18.21875 314 18.359375 313.625 18.675781 313.476562 C 18.992188 313.328125 19.371094 313.464844 19.519531 313.78125 C 19.554688 313.863281 23.398438 322.007812 31.867188 331.511719 C 39.671875 340.269531 53.113281 352.011719 72.835938 358.214844 C 73.171875 358.320312 73.355469 358.679688 73.25 359.011719 C 73.164062 359.28125 72.917969 359.453125 72.644531 359.453125 " fill-opacity="1" fill-rule="nonzero"/><path fill="#000000" d="M 281.4375 125.691406 C 279.566406 125.570312 277.363281 126.15625 272.960938 127.324219 C 268.996094 128.378906 267.894531 129.085938 267.410156 130.308594 C 266.609375 132.300781 267.804688 134.761719 268.164062 135.496094 C 270.1875 139.671875 273.902344 140.21875 276.351562 142.125 C 284.269531 148.296875 280.230469 158.769531 286.796875 165.320312 C 293.050781 171.558594 298.898438 164.230469 310.140625 170.179688 C 318.996094 174.867188 318.171875 180.890625 325.390625 183.542969 C 334.207031 186.789062 348.027344 182.429688 353.628906 169.40625 C 357.21875 161.066406 358.554688 138.464844 346.242188 135.558594 C 342.050781 134.570312 338.417969 137.511719 334.335938 137.769531 C 330.253906 138.023438 326.027344 136.664062 323.03125 133.847656 C 320.476562 131.453125 318.8125 128.207031 316.117188 125.972656 C 310.320312 121.175781 303.207031 123.390625 297.503906 126.964844 C 296.652344 127.5 294.6875 129.578125 293.859375 129.640625 C 288.582031 130.054688 287.484375 126.078125 281.4375 125.691406 " fill-opacity="1" fill-rule="nonzero"/><path fill="#0a21c0" d="M 261.964844 186.230469 C 257.746094 212.074219 257.253906 212.457031 256.6875 215.160156 C 256.6875 215.160156 255.011719 222.769531 254.546875 230.105469 C 254.144531 236.464844 255.339844 274.671875 275.089844 283.085938 C 282.21875 286.121094 284.285156 280.535156 299.46875 281.144531 C 315.03125 281.765625 318.1875 287.300781 324.976562 285.363281 C 339.667969 281.164062 344.46875 249.636719 343.660156 230.152344 C 343 214.285156 335.105469 199.304688 319.3125 169.339844 C 316.902344 164.777344 313.054688 157.804688 306.855469 156.917969 C 304.007812 156.511719 302.871094 156.949219 291.457031 160.082031 C 279.039062 163.492188 275.886719 159.867188 270.558594 163.222656 C 265.046875 166.695312 264.078125 173.296875 261.964844 186.230469 " fill-opacity="1" fill-rule="nonzero"/><path fill="#e5e7fd" d="M 284.632812 335.871094 L 284.632812 348.367188 L 290.640625 348 L 291.828125 335.871094 L 284.632812 335.871094 " fill-opacity="1" fill-rule="nonzero"/><path fill="#000000" d="M 285.265625 336.503906 L 285.265625 347.695312 L 290.066406 347.402344 L 291.128906 336.503906 Z M 284.632812 349.003906 C 284.46875 349.003906 284.3125 348.941406 284.199219 348.832031 C 284.070312 348.710938 283.996094 348.542969 283.996094 348.367188 L 283.996094 335.867188 C 283.996094 335.519531 284.28125 335.234375 284.632812 335.234375 L 291.828125 335.234375 C 292.003906 335.234375 292.175781 335.3125 292.296875 335.445312 C 292.417969 335.578125 292.476562 335.753906 292.460938 335.933594 L 291.273438 348.0625 C 291.242188 348.375 290.992188 348.617188 290.683594 348.636719 L 284.667969 349 C 284.65625 349.003906 284.644531 349.003906 284.632812 349.003906 " fill-opacity="1" fill-rule="nonzero"/><path fill="#e5e7fd" d="M 291.546875 363.949219 C 289.101562 364.210938 285.09375 364.382812 280.421875 363.578125 C 278.890625 363.316406 277.921875 361.789062 278.339844 360.296875 C 279.511719 356.128906 281.828125 348.367188 283.667969 344.648438 L 284.777344 346.675781 L 285.667969 344.535156 C 285.816406 344.28125 286.082031 344.117188 286.375 344.089844 L 288.679688 343.875 C 289.164062 343.828125 289.742188 344.304688 289.820312 344.78125 L 291.34375 346.675781 L 292.21875 344.421875 L 293.859375 361.097656 C 294 362.519531 292.972656 363.796875 291.546875 363.949219 " fill-opacity="1" fill-rule="nonzero"/><path fill="#000000" d="M 283.714844 346.058594 C 281.90625 350.21875 279.820312 357.378906 278.949219 360.46875 C 278.796875 361.011719 278.878906 361.578125 279.183594 362.054688 C 279.484375 362.53125 279.972656 362.859375 280.527344 362.953125 C 285.082031 363.738281 288.996094 363.585938 291.480469 363.320312 C 292.546875 363.207031 293.332031 362.234375 293.226562 361.160156 L 291.839844 347.066406 C 291.742188 347.195312 291.601562 347.277344 291.4375 347.304688 C 291.210938 347.335938 290.988281 347.25 290.847656 347.074219 L 289.328125 345.175781 C 289.257812 345.09375 289.214844 344.996094 289.195312 344.890625 C 289.167969 344.722656 288.851562 344.5 288.738281 344.507812 L 286.433594 344.722656 C 286.351562 344.730469 286.277344 344.769531 286.226562 344.832031 L 285.359375 346.921875 C 285.269531 347.144531 285.054688 347.296875 284.8125 347.3125 C 284.558594 347.316406 284.335938 347.195312 284.21875 346.980469 Z M 291.546875 363.949219 L 291.550781 363.949219 Z M 287.367188 364.800781 C 285.308594 364.800781 282.914062 364.652344 280.3125 364.207031 C 279.402344 364.046875 278.601562 363.511719 278.109375 362.734375 C 277.617188 361.957031 277.484375 361.007812 277.730469 360.125 C 278.691406 356.699219 281.144531 348.3125 283.101562 344.367188 C 283.203125 344.15625 283.417969 344.019531 283.65625 344.015625 C 283.894531 344.011719 284.109375 344.140625 284.222656 344.347656 L 284.699219 345.210938 L 285.078125 344.292969 C 285.089844 344.265625 285.101562 344.238281 285.121094 344.210938 C 285.375 343.785156 285.820312 343.503906 286.316406 343.457031 L 288.621094 343.242188 C 289.367188 343.175781 290.171875 343.761719 290.402344 344.488281 L 291.148438 345.421875 L 291.625 344.191406 C 291.730469 343.917969 292.015625 343.757812 292.304688 343.796875 C 292.59375 343.835938 292.820312 344.070312 292.847656 344.363281 L 294.488281 361.035156 C 294.664062 362.800781 293.375 364.394531 291.613281 364.582031 C 290.46875 364.707031 289.027344 364.800781 287.367188 364.800781 " fill-opacity="1" fill-rule="nonzero"/><path fill="#000000" d="M 285.730469 361.972656 C 283.910156 361.972656 281.871094 361.792969 279.855469 361.265625 C 279.511719 361.171875 279.3125 360.828125 279.398438 360.488281 C 279.488281 360.148438 279.839844 359.949219 280.175781 360.035156 C 285.792969 361.515625 291.769531 360.050781 291.828125 360.035156 C 292.171875 359.949219 292.511719 360.15625 292.597656 360.496094 C 292.683594 360.835938 292.476562 361.183594 292.136719 361.265625 C 291.96875 361.308594 289.257812 361.972656 285.730469 361.972656 " fill-opacity="1" fill-rule="nonzero"/><path fill="#000000" d="M 289.15625 355.480469 L 283.667969 355.480469 C 283.316406 355.480469 283.035156 355.195312 283.035156 354.84375 C 283.035156 354.496094 283.316406 354.210938 283.667969 354.210938 L 289.15625 354.210938 C 289.503906 354.210938 289.789062 354.496094 289.789062 354.84375 C 289.789062 355.195312 289.503906 355.480469 289.15625 355.480469 " fill-opacity="1" fill-rule="nonzero"/><path fill="#e5e7fd" d="M 328.863281 329.257812 L 330.640625 344.324219 L 336.277344 344.128906 L 336.277344 329.257812 L 328.863281 329.257812 " fill-opacity="1" fill-rule="nonzero"/><path fill="#000000" d="M 329.574219 329.890625 L 331.203125 343.671875 L 335.644531 343.515625 L 335.644531 329.890625 Z M 330.640625 344.960938 C 330.320312 344.960938 330.046875 344.722656 330.011719 344.398438 L 328.230469 329.332031 C 328.214844 329.152344 328.269531 328.972656 328.390625 328.835938 C 328.511719 328.703125 328.683594 328.621094 328.863281 328.621094 L 336.277344 328.621094 C 336.628906 328.621094 336.910156 328.910156 336.910156 329.257812 L 336.910156 344.128906 C 336.910156 344.472656 336.640625 344.75 336.296875 344.761719 L 330.660156 344.957031 C 330.65625 344.960938 330.648438 344.960938 330.640625 344.960938 " fill-opacity="1" fill-rule="nonzero"/><path fill="#e5e7fd" d="M 329.300781 340.730469 C 329.300781 340.730469 328.574219 347.421875 328.800781 350.113281 C 328.960938 352.039062 331.605469 357.855469 333.089844 361.011719 C 333.707031 362.308594 334.875 363.140625 336.171875 363.195312 C 337.75 363.265625 339.953125 363.34375 341.722656 363.347656 C 344.164062 363.347656 345.84375 360.574219 344.972656 357.988281 C 344.167969 355.601562 342.890625 352.609375 340.886719 349.425781 C 339.371094 347.027344 337.164062 340.511719 337.164062 340.511719 L 332.570312 340.511719 L 331.667969 344.324219 L 329.300781 340.730469 " fill-opacity="1" fill-rule="nonzero"/><path fill="#000000" d="M 329.753906 342.574219 C 329.558594 344.734375 329.285156 348.304688 329.429688 350.0625 C 329.542969 351.386719 331.085938 355.277344 333.664062 360.738281 C 334.175781 361.820312 335.144531 362.515625 336.199219 362.5625 C 337.738281 362.628906 339.949219 362.707031 341.726562 362.710938 C 342.582031 362.710938 343.351562 362.292969 343.902344 361.53125 C 344.582031 360.585938 344.757812 359.335938 344.371094 358.191406 C 343.386719 355.277344 342.035156 352.441406 340.347656 349.765625 C 339.023438 347.664062 337.234375 342.65625 336.707031 341.144531 L 333.070312 341.144531 L 332.285156 344.46875 C 332.226562 344.71875 332.027344 344.90625 331.78125 344.949219 C 331.53125 344.992188 331.277344 344.882812 331.136719 344.675781 Z M 341.726562 363.980469 C 341.726562 363.980469 341.726562 363.980469 341.722656 363.980469 C 339.925781 363.976562 337.695312 363.898438 336.144531 363.832031 C 334.621094 363.761719 333.230469 362.785156 332.519531 361.28125 C 330.621094 357.265625 328.328125 352.082031 328.167969 350.167969 C 327.941406 347.445312 328.640625 340.9375 328.667969 340.660156 C 328.695312 340.394531 328.890625 340.175781 329.152344 340.113281 C 329.410156 340.050781 329.679688 340.15625 329.828125 340.378906 L 331.386719 342.746094 L 331.953125 340.367188 C 332.019531 340.078125 332.277344 339.878906 332.570312 339.878906 L 337.164062 339.878906 C 337.433594 339.878906 337.675781 340.050781 337.761719 340.308594 C 337.785156 340.371094 339.964844 346.78125 341.417969 349.085938 C 343.160156 351.851562 344.558594 354.777344 345.574219 357.785156 C 346.089844 359.320312 345.847656 360.992188 344.929688 362.269531 C 344.148438 363.355469 342.984375 363.980469 341.726562 363.980469 " fill-opacity="1" fill-rule="nonzero"/><path fill="#000000" d="M 330.890625 353.171875 Z M 338.222656 361.109375 C 336.15625 361.109375 334.28125 359.917969 333.328125 357.996094 C 331.375 354.058594 330.925781 353.253906 330.820312 353.101562 C 330.617188 352.871094 330.605469 352.523438 330.800781 352.28125 C 331.023438 352.007812 331.421875 351.96875 331.695312 352.1875 C 331.847656 352.3125 331.980469 352.417969 334.464844 357.429688 C 335.203125 358.917969 336.640625 359.84375 338.222656 359.84375 C 338.222656 359.84375 338.222656 359.84375 338.226562 359.84375 L 343.457031 359.835938 C 343.804688 359.835938 344.089844 360.121094 344.09375 360.472656 C 344.09375 360.820312 343.808594 361.105469 343.457031 361.105469 L 338.226562 361.109375 C 338.226562 361.109375 338.222656 361.109375 338.222656 361.109375 " fill-opacity="1" fill-rule="nonzero"/><path fill="#000000" d="M 341.042969 355.667969 L 336.011719 355.667969 C 335.664062 355.667969 335.378906 355.382812 335.378906 355.03125 C 335.378906 354.679688 335.664062 354.398438 336.011719 354.398438 L 341.042969 354.398438 C 341.394531 354.398438 341.675781 354.679688 341.675781 355.03125 C 341.675781 355.382812 341.394531 355.667969 341.042969 355.667969 " fill-opacity="1" fill-rule="nonzero"/><path fill="#000000" d="M 274.96875 210.925781 C 274.96875 210.925781 275.566406 256.914062 277.5 286.847656 C 279.433594 316.785156 283.246094 339.679688 283.246094 339.679688 C 283.246094 339.679688 289.804688 342.035156 294.109375 340.800781 C 294.109375 340.800781 297.675781 314.539062 298.484375 305.660156 C 299.292969 296.785156 297.144531 292.378906 296.964844 285.113281 C 296.78125 277.851562 300.09375 245.777344 300.09375 245.777344 C 300.09375 245.777344 324.816406 318.289062 327.644531 334.304688 C 327.644531 334.304688 333.632812 335.320312 337.851562 333.015625 C 337.851562 333.015625 337.984375 304.496094 337.386719 300.089844 C 336.277344 291.929688 329.902344 283.890625 328.753906 275.21875 C 327.609375 266.550781 326.945312 244.789062 323.792969 231.738281 C 320.636719 218.6875 314.449219 204.019531 314.449219 204.019531 L 274.96875 210.925781 " fill-opacity="1" fill-rule="nonzero"/><path fill="#e5e7fd" d="M 317.089844 228.179688 C 317.007812 228.179688 316.925781 228.164062 316.847656 228.132812 C 308.351562 224.652344 305.90625 216.570312 305.808594 216.226562 C 305.710938 215.890625 305.90625 215.542969 306.238281 215.441406 C 306.578125 215.34375 306.925781 215.539062 307.027344 215.871094 C 307.050781 215.949219 309.414062 223.714844 317.332031 226.960938 C 317.652344 227.09375 317.808594 227.464844 317.675781 227.785156 C 317.578125 228.035156 317.339844 228.179688 317.089844 228.179688 " fill-opacity="1" fill-rule="nonzero"/><path fill="#e5e7fd" d="M 324.558594 249.609375 C 324.242188 249.609375 323.972656 249.375 323.929688 249.054688 C 321.113281 227.40625 312.675781 212.953125 312.59375 212.808594 C 312.414062 212.507812 312.515625 212.117188 312.816406 211.941406 C 313.113281 211.761719 313.503906 211.863281 313.683594 212.164062 C 313.769531 212.308594 322.332031 226.972656 325.1875 248.894531 C 325.234375 249.242188 324.988281 249.558594 324.640625 249.605469 C 324.613281 249.609375 324.585938 249.609375 324.558594 249.609375 " fill-opacity="1" fill-rule="nonzero"/><path fill="#e5e7fd" d="M 198.265625 162.871094 L 209.042969 167.351562 L 212.976562 175.816406 C 215.332031 177.386719 217.683594 178.664062 220.011719 179.691406 C 219.585938 180.597656 219.167969 181.503906 218.769531 182.421875 C 218.121094 183.914062 217.496094 185.414062 216.878906 186.914062 C 212.167969 182.230469 210.359375 177.84375 210.359375 177.84375 C 203.710938 177.453125 203.542969 172.328125 203.875 171 C 204.199219 169.671875 203.597656 168.164062 200.542969 166.152344 C 197.199219 163.957031 198.265625 162.871094 198.265625 162.871094 " fill-opacity="1" fill-rule="nonzero"/><path fill="#000000" d="M 198.894531 163.820312 C 199.128906 164.222656 199.683594 164.832031 200.890625 165.625 C 203.804688 167.539062 204.949219 169.296875 204.488281 171.152344 C 204.363281 171.65625 204.257812 173.449219 205.375 174.964844 C 206.371094 176.320312 208.0625 177.074219 210.394531 177.207031 C 210.636719 177.222656 210.851562 177.375 210.945312 177.597656 C 210.960938 177.640625 212.59375 181.515625 216.660156 185.785156 C 217.128906 184.648438 217.648438 183.402344 218.1875 182.171875 C 218.511719 181.425781 218.84375 180.699219 219.167969 180.003906 C 216.933594 178.980469 214.738281 177.753906 212.625 176.34375 C 212.527344 176.277344 212.449219 176.1875 212.398438 176.082031 L 208.570312 167.839844 Z M 216.878906 187.550781 C 216.710938 187.550781 216.550781 187.484375 216.433594 187.367188 C 212.410156 183.367188 210.476562 179.609375 209.933594 178.445312 C 207.402344 178.226562 205.527344 177.308594 204.355469 175.71875 C 203.089844 174.003906 203.003906 171.867188 203.257812 170.847656 C 203.453125 170.054688 203.347656 168.757812 200.195312 166.683594 C 198.496094 165.570312 197.582031 164.515625 197.480469 163.546875 C 197.40625 162.878906 197.746094 162.496094 197.8125 162.425781 C 197.992188 162.242188 198.269531 162.183594 198.507812 162.285156 L 209.285156 166.765625 C 209.429688 166.824219 209.550781 166.941406 209.617188 167.085938 L 213.476562 175.386719 C 215.667969 176.835938 217.953125 178.089844 220.269531 179.109375 C 220.425781 179.179688 220.546875 179.308594 220.605469 179.46875 C 220.667969 179.628906 220.660156 179.804688 220.585938 179.960938 C 220.1875 180.816406 219.757812 181.734375 219.351562 182.675781 C 218.675781 184.230469 218.023438 185.804688 217.464844 187.15625 C 217.382812 187.351562 217.210938 187.496094 217.003906 187.539062 C 216.964844 187.546875 216.921875 187.550781 216.878906 187.550781 " fill-opacity="1" fill-rule="nonzero"/><path fill="#e5e7fd" d="M 270.472656 160.105469 C 270.472656 160.105469 285.226562 157.996094 299.75 157.574219 C 299.75 157.574219 317.96875 205.09375 317.964844 208.300781 C 317.964844 211.507812 310.1875 215.609375 299.75 212.992188 C 289.316406 210.375 276.054688 210.113281 268.597656 211.855469 C 257.425781 214.46875 270.472656 160.105469 270.472656 160.105469 " fill-opacity="1" fill-rule="nonzero"/><path fill="#000000" d="M 280.324219 210.117188 C 286.828125 210.117188 293.984375 210.894531 299.90625 212.378906 C 307.011719 214.15625 313.023438 212.746094 315.832031 210.558594 C 316.785156 209.816406 317.328125 208.992188 317.332031 208.300781 C 317.332031 206.050781 306.621094 177.285156 299.320312 158.222656 C 286.503906 158.628906 273.484375 160.335938 270.988281 160.675781 C 267.980469 173.332031 261.589844 205.78125 266.527344 210.75 C 267.046875 211.269531 267.65625 211.425781 268.453125 211.242188 C 271.6875 210.484375 275.851562 210.117188 280.324219 210.117188 Z M 306.308594 214.46875 C 304.269531 214.46875 302.019531 214.214844 299.59375 213.609375 C 289.78125 211.148438 276.511719 210.660156 268.742188 212.476562 C 267.527344 212.757812 266.449219 212.472656 265.625 211.640625 C 259.117188 205.089844 269.414062 161.800781 269.855469 159.960938 C 269.914062 159.707031 270.125 159.515625 270.382812 159.480469 C 270.53125 159.460938 285.339844 157.359375 299.734375 156.941406 C 299.996094 156.925781 300.246094 157.097656 300.34375 157.347656 C 302.214844 162.222656 318.601562 205.070312 318.597656 208.300781 C 318.597656 209.402344 317.894531 210.558594 316.613281 211.558594 C 314.636719 213.097656 311.035156 214.46875 306.308594 214.46875 " fill-opacity="1" fill-rule="nonzero"/><path fill="#0a21c0" d="M 215.859375 176.015625 L 209.058594 180.328125 C 209.058594 180.328125 216.234375 196.914062 231.839844 201.980469 C 247.449219 207.046875 262.199219 192.6875 262.199219 192.6875 L 260.855469 223.472656 C 260.855469 223.472656 268.398438 227.941406 268.398438 227.546875 C 268.398438 227.152344 271.691406 158.875 271.691406 158.875 C 271.691406 158.875 265.605469 158.972656 262.894531 162.832031 C 260.179688 166.695312 249.902344 182.660156 238.097656 182.855469 C 226.285156 183.046875 215.859375 176.015625 215.859375 176.015625 " fill-opacity="1" fill-rule="nonzero"/><path fill="#000000" d="M 253.375 172.890625 L 280.195312 170.128906 C 281.09375 170.128906 281.945312 170.882812 282.097656 171.816406 L 288.574219 211.792969 C 288.722656 212.722656 288.117188 213.476562 287.214844 213.476562 L 258.777344 212.082031 C 257.878906 212.082031 256.933594 212.722656 256.78125 211.792969 L 250.304688 171.816406 C 250.152344 170.882812 252.472656 172.890625 253.375 172.890625 " fill-opacity="1" fill-rule="nonzero"/><path fill="#000000" d="M 258.777344 211.449219 L 287.25 212.84375 C 287.449219 212.84375 287.648438 212.761719 287.78125 212.601562 C 287.933594 212.421875 287.992188 212.171875 287.949219 211.890625 L 281.472656 171.917969 C 281.371094 171.300781 280.804688 170.78125 280.222656 170.761719 L 253.441406 173.527344 C 253.417969 173.527344 253.394531 173.527344 253.375 173.527344 C 252.847656 173.527344 252.242188 173.199219 251.371094 172.695312 C 251.277344 172.640625 251.171875 172.578125 251.0625 172.515625 L 257.402344 211.65625 C 257.519531 211.644531 257.691406 211.609375 257.816406 211.582031 C 258.101562 211.519531 258.429688 211.449219 258.777344 211.449219 Z M 287.21875 214.113281 L 258.746094 212.714844 C 258.566406 212.71875 258.320312 212.769531 258.085938 212.820312 C 257.621094 212.921875 257.089844 213.035156 256.648438 212.734375 C 256.382812 212.554688 256.21875 212.273438 256.15625 211.890625 L 249.679688 171.917969 C 249.597656 171.410156 249.875 171.15625 249.996094 171.074219 C 250.503906 170.722656 251.105469 171.074219 252.011719 171.601562 C 252.394531 171.824219 253.101562 172.234375 253.355469 172.257812 L 280.128906 169.5 C 280.152344 169.496094 280.171875 169.496094 280.195312 169.496094 C 281.410156 169.496094 282.523438 170.46875 282.722656 171.714844 L 289.199219 211.691406 C 289.304688 212.332031 289.140625 212.964844 288.75 213.421875 C 288.371094 213.867188 287.828125 214.113281 287.21875 214.113281 " fill-opacity="1" fill-rule="nonzero"/><path fill="#e5e7fd" d="M 250.773438 170.128906 L 279.308594 170.128906 C 280.210938 170.128906 281.0625 170.882812 281.210938 171.816406 L 287.6875 211.789062 C 287.835938 212.722656 287.230469 213.476562 286.332031 213.476562 L 257.796875 213.476562 C 256.898438 213.476562 256.046875 212.722656 255.894531 211.789062 L 249.417969 171.816406 C 249.269531 170.882812 249.878906 170.128906 250.773438 170.128906 " fill-opacity="1" fill-rule="nonzero"/><path fill="#000000" d="M 250.777344 170.761719 C 250.539062 170.761719 250.34375 170.84375 250.210938 171.003906 C 250.058594 171.183594 250 171.433594 250.046875 171.714844 L 256.523438 211.6875 C 256.621094 212.3125 257.207031 212.84375 257.800781 212.84375 L 286.332031 212.84375 C 286.566406 212.84375 286.761719 212.757812 286.898438 212.597656 C 287.046875 212.421875 287.109375 212.171875 287.0625 211.890625 L 280.585938 171.914062 C 280.484375 171.289062 279.898438 170.761719 279.308594 170.761719 Z M 286.332031 214.113281 L 257.800781 214.113281 C 256.582031 214.113281 255.46875 213.136719 255.269531 211.890625 L 248.792969 171.914062 C 248.691406 171.273438 248.855469 170.640625 249.242188 170.183594 C 249.621094 169.738281 250.167969 169.496094 250.777344 169.496094 L 279.308594 169.496094 C 280.523438 169.496094 281.632812 170.46875 281.835938 171.714844 L 288.3125 211.6875 C 288.417969 212.332031 288.253906 212.964844 287.863281 213.421875 C 287.484375 213.863281 286.941406 214.113281 286.332031 214.113281 " fill-opacity="1" fill-rule="nonzero"/><path fill="#e5e7fd" d="M 285.65625 188.226562 L 285.34375 191.988281 L 273.921875 189.910156 C 273.921875 189.910156 273.65625 190.289062 273.496094 190.898438 C 273.285156 191.714844 273.261719 192.949219 274.308594 194.257812 C 274.808594 194.875 276.78125 194.894531 276.628906 196.125 C 276.492188 197.203125 280.960938 198.042969 284.824219 198.761719 C 289.148438 199.5625 288.777344 193.398438 287.710938 190.242188 C 286.875 187.78125 285.65625 188.226562 285.65625 188.226562 " fill-opacity="1" fill-rule="nonzero"/><path fill="#000000" d="M 277.265625 196.113281 C 277.875 196.824219 282.453125 197.675781 284.9375 198.136719 C 285.839844 198.300781 286.5 198.128906 286.960938 197.597656 C 288.101562 196.28125 287.925781 192.859375 287.105469 190.445312 C 286.816406 189.589844 286.492188 189.15625 286.230469 188.964844 L 285.976562 192.039062 C 285.964844 192.21875 285.875 192.382812 285.734375 192.492188 C 285.589844 192.601562 285.410156 192.644531 285.234375 192.613281 L 274.261719 190.621094 C 274.210938 190.742188 274.15625 190.890625 274.109375 191.058594 C 273.859375 192.03125 274.089844 192.976562 274.800781 193.859375 C 274.882812 193.953125 275.265625 194.105469 275.496094 194.191406 C 276.199219 194.460938 277.355469 194.910156 277.265625 196.113281 Z M 285.550781 199.464844 C 285.292969 199.464844 285.011719 199.441406 284.707031 199.382812 C 278.503906 198.230469 275.808594 197.566406 275.996094 196.046875 C 276.023438 195.820312 275.820312 195.675781 275.042969 195.375 C 274.582031 195.199219 274.101562 195.011719 273.8125 194.652344 C 272.597656 193.140625 272.636719 191.691406 272.882812 190.742188 C 273.066406 190.042969 273.363281 189.597656 273.398438 189.550781 C 273.542969 189.347656 273.785156 189.246094 274.03125 189.289062 L 284.769531 191.242188 L 285.019531 188.175781 C 285.042969 187.929688 285.203125 187.714844 285.4375 187.628906 C 285.53125 187.59375 286.023438 187.445312 286.644531 187.742188 C 287.347656 188.078125 287.90625 188.851562 288.308594 190.042969 C 289.085938 192.332031 289.625 196.460938 287.917969 198.429688 C 287.484375 198.929688 286.742188 199.464844 285.550781 199.464844 " fill-opacity="1" fill-rule="nonzero"/><path fill="#0a21c0" d="M 287.082031 198.613281 L 289.375 195.128906 C 289.375 195.128906 300.738281 197.433594 305.984375 195.128906 C 315.148438 191.101562 313.414062 177.039062 311.855469 170.039062 C 310.296875 163.035156 306.851562 156.917969 306.851562 156.917969 C 306.851562 156.917969 315.269531 161.675781 320.976562 172.132812 C 326.6875 182.589844 328.542969 205.992188 309.453125 210.21875 C 296.960938 212.988281 287.082031 198.613281 287.082031 198.613281 " fill-opacity="1" fill-rule="nonzero"/><path fill="#e5e7fd" d="M 319.214844 205.835938 C 319.039062 205.835938 318.859375 205.761719 318.730469 205.609375 C 318.507812 205.339844 318.542969 204.941406 318.808594 204.71875 C 324.535156 199.902344 324.152344 189.308594 324.144531 189.207031 C 324.128906 188.855469 324.40625 188.558594 324.753906 188.542969 C 325.109375 188.53125 325.398438 188.800781 325.414062 189.148438 C 325.433594 189.609375 325.828125 200.46875 319.625 205.6875 C 319.507812 205.785156 319.363281 205.835938 319.214844 205.835938 " fill-opacity="1" fill-rule="nonzero"/><path fill="#e5e7fd" d="M 283.980469 140.015625 C 283.699219 140.1875 283.335938 140.066406 283.210938 139.757812 C 282.617188 138.304688 281.667969 135.484375 279.726562 135.035156 C 277.238281 134.460938 273.207031 133.71875 272.863281 135.6875 C 272.554688 137.414062 272.914062 140.390625 271.097656 142.550781 C 270.925781 142.757812 271.078125 143.089844 271.289062 143.25 L 272.433594 144.214844 C 272.671875 144.398438 272.882812 145.011719 272.910156 145.316406 C 273 146.25 273.121094 148.242188 273.445312 148.5 C 274.070312 149 277.222656 148.808594 277.222656 148.808594 L 279.746094 157.488281 C 279.84375 157.816406 279.648438 158.164062 279.320312 158.246094 L 276.3125 159.269531 C 276.3125 159.269531 278.726562 162.648438 286.265625 162.136719 C 291.082031 161.8125 294.605469 158.417969 294.605469 158.417969 C 294.605469 158.417969 285.242188 157.089844 283.972656 146.015625 C 283.949219 145.769531 284.054688 145.53125 284.246094 145.382812 C 284.996094 144.820312 287.007812 143.167969 286.65625 141.492188 C 286.28125 139.710938 284.949219 139.4375 283.980469 140.015625 " fill-opacity="1" fill-rule="nonzero"/><path fill="#000000" d="M 283.984375 140.015625 L 283.988281 140.015625 Z M 273.921875 148.09375 Z M 277.5 159.53125 C 278.617188 160.40625 281.246094 161.839844 286.222656 161.503906 C 289.339844 161.292969 291.921875 159.703125 293.234375 158.722656 C 290.519531 157.875 284.367188 154.988281 283.347656 146.085938 C 283.292969 145.621094 283.496094 145.15625 283.871094 144.875 C 284.445312 144.441406 286.3125 142.921875 286.039062 141.617188 C 285.910156 141.011719 285.652344 140.609375 285.292969 140.449219 C 285 140.320312 284.640625 140.363281 284.308594 140.558594 C 284.015625 140.734375 283.660156 140.773438 283.335938 140.664062 C 283.015625 140.554688 282.757812 140.3125 282.625 139.996094 C 282.574219 139.867188 282.519531 139.726562 282.460938 139.582031 C 281.925781 138.238281 281.035156 135.988281 279.585938 135.652344 C 276.511719 134.941406 274.558594 134.847656 273.78125 135.363281 C 273.609375 135.476562 273.519531 135.609375 273.488281 135.796875 C 273.417969 136.195312 273.386719 136.699219 273.347656 137.230469 C 273.234375 138.933594 273.089844 141.039062 271.722656 142.785156 L 272.84375 143.726562 C 273.285156 144.058594 273.511719 144.914062 273.542969 145.25 C 273.558594 145.398438 273.570312 145.570312 273.589844 145.757812 C 273.636719 146.332031 273.75 147.632812 273.894531 148.03125 C 274.292969 148.1875 275.773438 148.257812 277.183594 148.171875 C 277.472656 148.152344 277.75 148.34375 277.832031 148.625 L 280.359375 157.308594 C 280.453125 157.632812 280.410156 157.984375 280.242188 158.277344 C 280.082031 158.558594 279.820312 158.761719 279.503906 158.851562 Z M 284.75 162.824219 C 278.15625 162.824219 275.898438 159.773438 275.800781 159.632812 C 275.683594 159.46875 275.648438 159.261719 275.710938 159.070312 C 275.773438 158.882812 275.921875 158.730469 276.109375 158.664062 L 279.117188 157.644531 C 279.132812 157.640625 279.148438 157.632812 279.164062 157.628906 L 276.757812 149.464844 C 275.472656 149.519531 273.679688 149.492188 273.050781 148.992188 C 272.632812 148.664062 272.503906 147.921875 272.328125 145.867188 C 272.308594 145.683594 272.292969 145.515625 272.28125 145.375 C 272.261719 145.179688 272.121094 144.796875 272.035156 144.699219 L 270.882812 143.730469 C 270.625 143.539062 270.4375 143.210938 270.398438 142.882812 C 270.367188 142.609375 270.445312 142.34375 270.617188 142.140625 C 271.84375 140.679688 271.976562 138.71875 272.082031 137.144531 C 272.121094 136.578125 272.15625 136.042969 272.238281 135.578125 C 272.332031 135.046875 272.621094 134.609375 273.078125 134.304688 C 274.207031 133.558594 276.300781 133.59375 279.871094 134.417969 C 281.972656 134.898438 282.976562 137.433594 283.640625 139.113281 L 283.761719 139.414062 C 284.425781 139.054688 285.164062 139.007812 285.800781 139.289062 C 286.542969 139.613281 287.066406 140.347656 287.277344 141.359375 C 287.679688 143.269531 285.792969 145.019531 284.632812 145.890625 C 284.617188 145.898438 284.605469 145.921875 284.609375 145.941406 C 285.796875 156.375 294.335938 157.734375 294.703125 157.789062 C 294.941406 157.824219 295.140625 157.992188 295.214844 158.222656 C 295.289062 158.453125 295.226562 158.703125 295.050781 158.871094 C 294.898438 159.015625 291.300781 162.433594 286.308594 162.769531 C 285.765625 162.808594 285.242188 162.824219 284.75 162.824219 " fill-opacity="1" fill-rule="nonzero"/><path fill="#e5e7fd" d="M 291.515625 35.605469 C 293.570312 35.605469 295.398438 37.460938 295.601562 39.753906 L 298.121094 68.304688 C 298.320312 70.59375 296.820312 72.453125 294.765625 72.453125 L 226.597656 72.453125 L 211.28125 87.171875 L 214.191406 72.453125 L 202.773438 72.453125 C 200.71875 72.453125 198.890625 70.59375 198.6875 68.304688 L 196.171875 39.753906 C 195.96875 37.460938 197.472656 35.605469 199.523438 35.605469 L 291.515625 35.605469 " fill-opacity="1" fill-rule="nonzero"/><path fill="#000000" d="M 211.261719 88.546875 C 211.105469 88.546875 210.949219 88.507812 210.804688 88.429688 C 210.429688 88.226562 210.238281 87.808594 210.328125 87.390625 L 213.410156 73.085938 L 202.777344 73.085938 C 200.40625 73.085938 198.285156 70.964844 198.058594 68.359375 L 195.542969 39.808594 C 195.421875 38.449219 195.835938 37.144531 196.675781 36.226562 C 197.417969 35.414062 198.433594 34.96875 199.527344 34.96875 L 231.246094 34.792969 C 231.246094 34.792969 231.246094 34.792969 231.25 34.792969 C 231.597656 34.792969 231.878906 35.074219 231.882812 35.425781 C 231.886719 35.773438 231.601562 36.058594 231.253906 36.0625 L 199.527344 36.234375 C 198.789062 36.234375 198.113281 36.539062 197.609375 37.085938 C 197.007812 37.742188 196.714844 38.691406 196.804688 39.699219 L 199.320312 68.246094 C 199.496094 70.21875 201.046875 71.816406 202.777344 71.816406 L 214.980469 71.816406 L 211.789062 86.625 L 226.304688 72.238281 L 294.761719 71.816406 C 295.5 71.816406 296.183594 71.515625 296.683594 70.96875 C 297.28125 70.316406 297.578125 69.363281 297.488281 68.359375 L 294.972656 39.808594 C 294.796875 37.839844 293.25 36.234375 291.515625 36.234375 L 239.125 36.34375 C 238.773438 36.34375 238.488281 36.058594 238.488281 35.710938 C 238.488281 35.359375 238.773438 35.074219 239.121094 35.074219 L 291.515625 34.96875 C 293.890625 34.96875 296.003906 37.089844 296.234375 39.699219 L 298.753906 68.246094 C 298.871094 69.605469 298.457031 70.910156 297.617188 71.828125 C 296.875 72.640625 295.863281 73.085938 294.765625 73.085938 L 226.828125 73.5 L 211.929688 88.269531 C 211.746094 88.453125 211.507812 88.546875 211.261719 88.546875 " fill-opacity="1" fill-rule="nonzero"/><path fill="#f4f5f8" d="M 284.652344 47.972656 L 209.851562 47.972656 C 208.777344 47.972656 207.8125 47.101562 207.695312 46.03125 C 207.582031 44.960938 208.359375 44.089844 209.433594 44.089844 L 284.234375 44.089844 C 285.308594 44.089844 286.277344 44.960938 286.390625 46.03125 C 286.503906 47.101562 285.726562 47.972656 284.652344 47.972656 " fill-opacity="1" fill-rule="nonzero"/><path fill="#b3b4bd" d="M 285.550781 56.339844 L 210.746094 56.339844 C 209.671875 56.339844 208.707031 55.472656 208.59375 54.398438 C 208.480469 53.328125 209.253906 52.457031 210.332031 52.457031 L 285.132812 52.457031 C 286.207031 52.457031 287.171875 53.328125 287.285156 54.398438 C 287.402344 55.472656 286.625 56.339844 285.550781 56.339844 " fill-opacity="1" fill-rule="nonzero"/><path fill="#b3b4bd" d="M 286.445312 64.703125 L 211.648438 64.703125 C 210.574219 64.703125 209.605469 63.835938 209.488281 62.761719 C 209.375 61.6875 210.15625 60.820312 211.230469 60.820312 L 286.03125 60.820312 C 287.105469 60.820312 288.070312 61.6875 288.1875 62.761719 C 288.300781 63.835938 287.523438 64.703125 286.445312 64.703125 " fill-opacity="1" fill-rule="nonzero"/><path fill="#e5e7fd" d="M 345.378906 110.304688 C 347.226562 110.332031 348.640625 108.863281 348.535156 107.027344 L 347.222656 84.152344 C 347.117188 82.316406 345.535156 80.808594 343.6875 80.78125 L 283.765625 79.578125 C 281.917969 79.550781 278.175781 80.90625 278.285156 82.742188 L 278.335938 106.046875 C 278.441406 107.882812 280.027344 109.394531 281.875 109.417969 L 289.25 109.316406 L 292.832031 121.335938 L 299.585938 109.527344 L 345.378906 110.304688 " fill-opacity="1" fill-rule="nonzero"/><path fill="#000000" d="M 290.382812 108.671875 L 293.070312 119.640625 L 299.222656 108.886719 L 299.597656 108.890625 L 342.832031 109.734375 C 342.847656 109.734375 342.863281 109.734375 342.878906 109.734375 C 343.992188 109.734375 345.371094 109.171875 346.097656 108.410156 C 346.464844 108.027344 346.640625 107.632812 346.617188 107.242188 L 346.589844 84.152344 C 346.503906 82.679688 345.199219 81.4375 343.679688 81.417969 L 282.492188 80.421875 C 282.476562 80.421875 282.457031 80.421875 282.4375 80.421875 C 281.3125 80.421875 280.035156 80.90625 279.386719 81.585938 C 279.050781 81.933594 278.894531 82.308594 278.917969 82.707031 L 278.972656 106.042969 C 279.054688 107.519531 280.363281 108.761719 281.882812 108.78125 Z M 292.601562 123.03125 L 289.390625 109.953125 L 281.882812 110.050781 C 279.695312 110.019531 277.828125 108.238281 277.703125 106.082031 L 277.648438 82.742188 C 277.609375 82.027344 277.890625 81.3125 278.46875 80.707031 C 279.519531 79.609375 281.269531 79.132812 282.511719 79.152344 L 343.695312 80.148438 C 345.867188 80.179688 347.734375 81.957031 347.855469 84.113281 L 347.882812 107.207031 C 347.925781 107.917969 347.625 108.652344 347.015625 109.289062 C 346.027344 110.316406 344.316406 111.019531 342.8125 111.003906 L 299.949219 110.164062 L 292.601562 123.03125 " fill-opacity="1" fill-rule="nonzero"/><path fill="#e5e7fd" d="M 288.363281 98.628906 L 338.832031 99.335938 L 288.363281 98.628906 " fill-opacity="1" fill-rule="nonzero"/><path fill="#000000" d="M 338.832031 99.96875 C 338.828125 99.96875 338.828125 99.96875 338.824219 99.96875 L 288.355469 99.265625 C 288.003906 99.261719 287.722656 98.972656 287.726562 98.621094 C 287.734375 98.273438 288.015625 97.996094 288.363281 97.996094 C 288.367188 97.996094 288.367188 97.996094 288.371094 97.996094 L 338.839844 98.699219 C 339.191406 98.703125 339.472656 98.992188 339.46875 99.34375 C 339.460938 99.691406 339.179688 99.96875 338.832031 99.96875 " fill-opacity="1" fill-rule="nonzero"/><path fill="#e5e7fd" d="M 327.894531 92.488281 L 338.449219 92.636719 L 327.894531 92.488281 " fill-opacity="1" fill-rule="nonzero"/><path fill="#000000" d="M 338.449219 93.269531 C 338.449219 93.269531 338.441406 93.269531 338.441406 93.269531 L 327.886719 93.125 C 327.535156 93.117188 327.257812 92.832031 327.261719 92.480469 C 327.269531 92.132812 327.550781 91.855469 327.894531 91.855469 C 327.902344 91.855469 327.902344 91.855469 327.90625 91.855469 L 338.460938 92.003906 C 338.808594 92.007812 339.089844 92.296875 339.082031 92.644531 C 339.078125 92.992188 338.796875 93.269531 338.449219 93.269531 " fill-opacity="1" fill-rule="nonzero"/><path fill="#e5e7fd" d="M 287.976562 91.933594 L 321.152344 92.394531 L 287.976562 91.933594 " fill-opacity="1" fill-rule="nonzero"/><path fill="#000000" d="M 321.152344 93.03125 C 321.148438 93.03125 321.144531 93.03125 321.144531 93.03125 L 287.96875 92.566406 C 287.621094 92.5625 287.339844 92.273438 287.34375 91.921875 C 287.351562 91.578125 287.628906 91.296875 287.976562 91.296875 C 287.984375 91.296875 287.984375 91.296875 287.988281 91.296875 L 321.160156 91.761719 C 321.507812 91.765625 321.789062 92.054688 321.785156 92.402344 C 321.78125 92.75 321.496094 93.03125 321.152344 93.03125 " fill-opacity="1" fill-rule="nonzero"/><path fill="#0a21c0" d="M 54.894531 331.574219 L 201.894531 331.574219 C 208.230469 331.574219 212.714844 326.453125 211.917969 320.140625 L 175.722656 34.195312 C 174.921875 27.878906 169.140625 22.757812 162.804688 22.757812 L 23.183594 21.128906 C 7.15625 21.128906 4.980469 27.878906 5.78125 34.195312 L 41.976562 320.140625 C 42.777344 326.453125 48.558594 331.574219 54.894531 331.574219 " fill-opacity="1" fill-rule="nonzero"/><path fill="#e5e7fd" d="M 63.742188 331.574219 L 210.742188 331.574219 C 217.074219 331.574219 221.5625 326.4375 220.761719 320.105469 L 184.570312 33.242188 C 183.769531 26.910156 177.984375 21.773438 171.652344 21.773438 L 24.648438 21.773438 C 18.316406 21.773438 13.828125 26.910156 14.628906 33.242188 L 50.824219 320.105469 C 51.621094 326.4375 57.40625 331.574219 63.742188 331.574219 " fill-opacity="1" fill-rule="nonzero"/><path fill="#000000" d="M 29.742188 159.160156 C 29.425781 159.160156 29.152344 158.921875 29.113281 158.601562 L 13.996094 33.324219 C 13.585938 30.0625 14.480469 26.992188 16.515625 24.683594 C 18.527344 22.398438 21.417969 21.140625 24.648438 21.140625 L 41.710938 21.140625 C 42.058594 21.140625 42.34375 21.425781 42.34375 21.773438 C 42.34375 22.125 42.058594 22.410156 41.710938 22.410156 L 24.648438 22.410156 C 21.789062 22.410156 19.238281 23.515625 17.46875 25.523438 C 15.675781 27.554688 14.890625 30.269531 15.257812 33.167969 L 30.371094 158.449219 C 30.414062 158.796875 30.164062 159.113281 29.816406 159.15625 C 29.792969 159.160156 29.765625 159.160156 29.742188 159.160156 " fill-opacity="1" fill-rule="nonzero"/><path fill="#000000" d="M 149.003906 22.625 L 52.167969 22.410156 C 51.820312 22.410156 51.535156 22.125 51.539062 21.773438 C 51.539062 21.425781 51.820312 21.140625 52.171875 21.140625 L 149.007812 21.355469 C 149.355469 21.355469 149.640625 21.640625 149.640625 21.992188 C 149.636719 22.339844 149.355469 22.625 149.003906 22.625 " fill-opacity="1" fill-rule="nonzero"/><path fill="#000000" d="M 214.519531 269.691406 C 214.203125 269.691406 213.929688 269.457031 213.890625 269.136719 L 207.914062 220.308594 C 207.875 219.957031 208.121094 219.644531 208.46875 219.597656 C 208.816406 219.5625 209.132812 219.804688 209.175781 220.152344 L 215.148438 268.980469 C 215.191406 269.328125 214.945312 269.644531 214.597656 269.6875 C 214.570312 269.691406 214.542969 269.691406 214.519531 269.691406 " fill-opacity="1" fill-rule="nonzero"/><path fill="#000000" d="M 154.332031 332.207031 L 103.78125 332.207031 C 103.429688 332.207031 103.144531 331.925781 103.144531 331.574219 C 103.144531 331.222656 103.429688 330.941406 103.78125 330.941406 L 154.332031 330.941406 C 154.679688 330.941406 154.964844 331.222656 154.964844 331.574219 C 154.964844 331.925781 154.679688 332.207031 154.332031 332.207031 " fill-opacity="1" fill-rule="nonzero"/><path fill="#000000" d="M 78.640625 332.207031 L 63.742188 332.207031 C 57.105469 332.207031 51.03125 326.8125 50.195312 320.183594 L 44.65625 276.289062 C 44.609375 275.941406 44.855469 275.621094 45.203125 275.578125 C 45.554688 275.535156 45.871094 275.78125 45.914062 276.128906 L 51.453125 320.027344 C 52.210938 326.042969 57.722656 330.941406 63.742188 330.941406 L 78.640625 330.941406 C 78.992188 330.941406 79.277344 331.222656 79.277344 331.574219 C 79.277344 331.925781 78.992188 332.207031 78.640625 332.207031 " fill-opacity="1" fill-rule="nonzero"/><path fill="#f4f5f8" d="M 212.386719 320.5 L 177.824219 46.597656 C 177.640625 45.132812 176.304688 43.949219 174.84375 43.949219 L 27.050781 43.949219 C 25.589844 43.949219 24.554688 45.132812 24.738281 46.597656 L 59.300781 320.5 C 59.484375 321.960938 60.820312 323.148438 62.28125 323.148438 L 210.074219 323.148438 C 211.535156 323.148438 212.570312 321.960938 212.386719 320.5 " fill-opacity="1" fill-rule="nonzero"/><path fill="#b3b4bd" d="M 99.992188 36.363281 C 102.363281 36.363281 104.042969 34.441406 103.746094 32.066406 C 103.445312 29.695312 101.28125 27.769531 98.90625 27.769531 C 96.535156 27.769531 94.851562 29.695312 95.152344 32.066406 C 95.453125 34.441406 97.617188 36.363281 99.992188 36.363281 " fill-opacity="1" fill-rule="nonzero"/><path fill="#000000" d="M 182.863281 230.300781 C 182.839844 230.300781 182.816406 230.300781 182.792969 230.300781 C 175.714844 230.28125 168.429688 226.019531 161.144531 217.632812 C 156.035156 211.753906 152.785156 205.941406 152.652344 205.699219 C 151.566406 203.746094 152.269531 201.289062 154.21875 200.207031 C 156.167969 199.125 158.628906 199.824219 159.710938 201.773438 C 162.878906 207.453125 173.199219 222.195312 182.820312 222.222656 C 182.832031 222.222656 182.847656 222.222656 182.863281 222.222656 C 185.910156 222.222656 188.269531 221.28125 190.070312 219.347656 C 194.378906 214.710938 194.691406 205.449219 194.449219 202.273438 C 194.28125 200.046875 195.945312 198.105469 198.171875 197.9375 C 200.390625 197.769531 202.335938 199.433594 202.503906 201.65625 C 202.550781 202.269531 203.554688 216.699219 195.988281 224.84375 C 192.621094 228.464844 188.207031 230.300781 182.863281 230.300781 " fill-opacity="1" fill-rule="nonzero"/><path fill="#000000" d="M 211.222656 201.203125 L 187.300781 201.203125 C 185.070312 201.203125 183.261719 199.394531 183.261719 197.160156 C 183.261719 194.933594 185.070312 193.121094 187.300781 193.121094 L 211.222656 193.121094 C 213.453125 193.121094 215.261719 194.933594 215.261719 197.160156 C 215.261719 199.394531 213.453125 201.203125 211.222656 201.203125 " fill-opacity="1" fill-rule="nonzero"/><path fill="#e5e7fd" d="M 178.671875 145.632812 L 178.347656 145.632812 L 178.347656 121.75 L 178.671875 121.75 C 185.261719 121.75 190.601562 127.089844 190.601562 133.683594 L 190.601562 133.699219 C 190.601562 140.289062 185.261719 145.632812 178.671875 145.632812 " fill-opacity="1" fill-rule="nonzero"/><path fill="#000000" d="M 178.984375 122.390625 L 178.984375 144.996094 C 185.070312 144.828125 189.96875 139.828125 189.96875 133.699219 C 189.96875 127.558594 185.070312 122.554688 178.984375 122.390625 Z M 178.671875 146.269531 L 178.347656 146.269531 C 178 146.269531 177.714844 145.984375 177.714844 145.632812 L 177.714844 121.75 C 177.714844 121.398438 178 121.117188 178.347656 121.117188 L 178.671875 121.117188 C 185.601562 121.117188 191.234375 126.753906 191.234375 133.683594 C 191.234375 140.632812 185.601562 146.269531 178.671875 146.269531 " fill-opacity="1" fill-rule="nonzero"/><path fill="#e5e7fd" d="M 70.191406 145.632812 L 70.515625 145.632812 L 70.515625 121.75 L 70.191406 121.75 C 63.601562 121.75 58.261719 127.089844 58.261719 133.683594 L 58.261719 133.699219 C 58.261719 140.289062 63.601562 145.632812 70.191406 145.632812 " fill-opacity="1" fill-rule="nonzero"/><path fill="#000000" d="M 69.878906 122.390625 C 63.792969 122.554688 58.894531 127.558594 58.894531 133.683594 C 58.894531 139.824219 63.792969 144.828125 69.878906 144.996094 Z M 70.515625 146.269531 L 70.191406 146.269531 C 63.261719 146.269531 57.625 140.632812 57.625 133.699219 C 57.625 126.753906 63.261719 121.117188 70.191406 121.117188 L 70.515625 121.117188 C 70.863281 121.117188 71.148438 121.398438 71.148438 121.75 L 71.148438 145.632812 C 71.148438 145.984375 70.863281 146.269531 70.515625 146.269531 " fill-opacity="1" fill-rule="nonzero"/><path fill="#e5e7fd" d="M 66.652344 132.707031 C 66.652344 107.042969 92.519531 80.496094 124.429688 80.496094 C 156.339844 80.496094 182.210938 107.042969 182.210938 132.707031 C 182.210938 158.371094 156.339844 173.433594 124.429688 173.433594 C 92.519531 173.433594 66.652344 158.371094 66.652344 132.707031 " fill-opacity="1" fill-rule="nonzero"/><path fill="#000000" d="M 124.433594 81.128906 C 91.726562 81.128906 67.289062 108.359375 67.289062 132.703125 C 67.289062 144.71875 73.042969 154.902344 83.929688 162.164062 C 94.207031 169.019531 108.59375 172.796875 124.433594 172.796875 C 140.269531 172.796875 154.65625 169.019531 164.933594 162.164062 C 175.820312 154.902344 181.574219 144.71875 181.574219 132.703125 C 181.574219 108.359375 157.140625 81.128906 124.433594 81.128906 Z M 124.433594 174.0625 C 108.347656 174.0625 93.710938 170.210938 83.226562 163.21875 C 71.96875 155.710938 66.019531 145.160156 66.019531 132.703125 C 66.019531 119.953125 72.261719 106.757812 83.140625 96.511719 C 94.546875 85.777344 109.210938 79.859375 124.433594 79.859375 C 139.652344 79.859375 154.316406 85.777344 165.722656 96.511719 C 176.601562 106.757812 182.84375 119.953125 182.84375 132.703125 C 182.84375 145.160156 176.894531 155.710938 165.640625 163.21875 C 155.152344 170.210938 140.519531 174.0625 124.433594 174.0625 " fill-opacity="1" fill-rule="nonzero"/><path fill="#e5e7fd" d="M 138.902344 181.140625 L 109.960938 181.140625 C 97.273438 181.140625 86.988281 191.425781 86.988281 204.109375 C 86.988281 212.492188 87.808594 220.855469 89.429688 229.078125 L 93.59375 250.152344 C 96.5 264.882812 109.417969 275.496094 124.429688 275.496094 C 139.445312 275.496094 152.363281 264.882812 155.269531 250.152344 L 159.433594 229.078125 C 161.058594 220.855469 161.875 212.492188 161.875 204.109375 C 161.875 191.425781 151.589844 181.140625 138.902344 181.140625 " fill-opacity="1" fill-rule="nonzero"/><path fill="#000000" d="M 109.960938 181.773438 C 97.644531 181.773438 87.625 191.796875 87.625 204.109375 C 87.625 212.433594 88.441406 220.792969 90.050781 228.953125 L 94.214844 250.027344 C 97.054688 264.417969 109.761719 274.863281 124.429688 274.863281 C 139.101562 274.863281 151.808594 264.417969 154.648438 250.027344 L 158.808594 228.953125 C 160.421875 220.792969 161.242188 212.433594 161.242188 204.109375 C 161.242188 191.796875 151.21875 181.773438 138.902344 181.773438 Z M 124.433594 276.132812 C 109.160156 276.132812 95.925781 265.257812 92.96875 250.277344 L 88.808594 229.199219 C 87.179688 220.957031 86.355469 212.515625 86.355469 204.109375 C 86.355469 191.097656 96.945312 180.507812 109.960938 180.507812 L 138.902344 180.507812 C 151.917969 180.507812 162.507812 191.097656 162.507812 204.109375 C 162.507812 212.515625 161.683594 220.957031 160.054688 229.199219 L 155.894531 250.277344 C 152.9375 265.257812 139.703125 276.132812 124.433594 276.132812 " fill-opacity="1" fill-rule="nonzero"/><path fill="#0a21c0" d="M 124.445312 232.035156 L 124.417969 232.035156 C 115.726562 232.035156 108.675781 224.984375 108.675781 216.292969 L 108.675781 181.140625 L 140.1875 181.140625 L 140.1875 216.292969 C 140.1875 224.984375 133.140625 232.035156 124.445312 232.035156 " fill-opacity="1" fill-rule="nonzero"/><path fill="#000000" d="M 140.1875 181.773438 L 108.675781 181.773438 C 108.328125 181.773438 108.042969 181.492188 108.042969 181.140625 C 108.042969 180.789062 108.328125 180.507812 108.675781 180.507812 L 140.1875 180.507812 C 140.539062 180.507812 140.820312 180.789062 140.820312 181.140625 C 140.820312 181.492188 140.539062 181.773438 140.1875 181.773438 " fill-opacity="1" fill-rule="nonzero"/><path fill="#000000" d="M 163.277344 125.003906 L 107.636719 125.003906 C 101.859375 125.003906 97.171875 130.054688 97.171875 136.28125 L 97.171875 143.636719 C 97.171875 148.390625 99.707031 153.421875 104.082031 154.246094 C 119.5 157.140625 151.414062 157.140625 166.832031 154.246094 C 171.207031 153.421875 173.742188 148.390625 173.742188 143.636719 L 173.742188 136.28125 C 173.742188 130.054688 169.054688 125.003906 163.277344 125.003906 " fill-opacity="1" fill-rule="nonzero"/><path fill="#0a21c0" d="M 122.382812 139.808594 C 122.382812 141.894531 120.8125 143.589844 118.878906 143.589844 C 116.941406 143.589844 115.371094 141.894531 115.371094 139.808594 C 115.371094 137.722656 116.941406 136.03125 118.878906 136.03125 C 120.8125 136.03125 122.382812 137.722656 122.382812 139.808594 " fill-opacity="1" fill-rule="nonzero"/><path fill="#0a21c0" d="M 159.6875 139.808594 C 159.6875 141.894531 158.117188 143.589844 156.179688 143.589844 C 154.246094 143.589844 152.675781 141.894531 152.675781 139.808594 C 152.675781 137.722656 154.246094 136.03125 156.179688 136.03125 C 158.117188 136.03125 159.6875 137.722656 159.6875 139.808594 " fill-opacity="1" fill-rule="nonzero"/><path fill="#000000" d="M 87.476562 248.660156 C 79.5625 248.660156 68.855469 247.53125 61.992188 242.273438 C 58.039062 239.238281 55.726562 235.234375 55.125 230.371094 C 52.425781 208.535156 78.777344 196.039062 79.898438 195.515625 C 81.921875 194.578125 84.324219 195.457031 85.261719 197.480469 C 86.203125 199.5 85.324219 201.902344 83.304688 202.839844 C 83.082031 202.945312 61.164062 213.390625 63.144531 229.382812 C 63.472656 232.050781 64.707031 234.171875 66.910156 235.863281 C 74.453125 241.644531 90.90625 240.832031 96.609375 240.03125 C 98.820312 239.722656 100.863281 241.261719 101.171875 243.46875 C 101.484375 245.679688 99.941406 247.71875 97.734375 248.03125 C 97.328125 248.089844 93.109375 248.660156 87.476562 248.660156 " fill-opacity="1" fill-rule="nonzero"/><path fill="#000000" d="M 115.363281 252.957031 L 107.609375 252.957031 C 103.371094 252.957031 99.855469 249.777344 99.433594 245.558594 L 99.164062 242.859375 C 98.933594 240.554688 99.695312 238.25 101.246094 236.53125 C 102.800781 234.816406 105.023438 233.828125 107.339844 233.828125 L 119.710938 233.828125 C 121.941406 233.828125 123.75 235.636719 123.75 237.867188 C 123.75 240.097656 121.941406 241.90625 119.710938 241.90625 L 107.339844 241.90625 C 107.316406 241.90625 107.277344 241.90625 107.238281 241.953125 C 107.195312 241.996094 107.199219 242.035156 107.203125 242.054688 L 107.472656 244.757812 C 107.480469 244.824219 107.539062 244.878906 107.609375 244.878906 L 115.363281 244.878906 C 117.59375 244.878906 119.402344 246.6875 119.402344 248.917969 C 119.402344 251.144531 117.59375 252.957031 115.363281 252.957031 " fill-opacity="1" fill-rule="nonzero"/><path fill="#e5e7fd" d="M 248.964844 319.171875 C 248.964844 342.933594 229.703125 362.195312 205.941406 362.195312 C 182.175781 362.195312 162.914062 342.933594 162.914062 319.171875 C 162.914062 295.410156 182.175781 276.144531 205.941406 276.144531 C 229.703125 276.144531 248.964844 295.410156 248.964844 319.171875 " fill-opacity="1" fill-rule="nonzero"/><path fill="#000000" d="M 205.941406 276.78125 C 182.566406 276.78125 163.550781 295.796875 163.550781 319.171875 C 163.550781 342.546875 182.566406 361.5625 205.941406 361.5625 C 229.3125 361.5625 248.332031 342.546875 248.332031 319.171875 C 248.332031 295.796875 229.3125 276.78125 205.941406 276.78125 Z M 205.941406 362.832031 C 181.867188 362.832031 162.28125 343.246094 162.28125 319.171875 C 162.28125 295.097656 181.867188 275.511719 205.941406 275.511719 C 230.015625 275.511719 249.601562 295.097656 249.601562 319.171875 C 249.601562 343.246094 230.015625 362.832031 205.941406 362.832031 " fill-opacity="1" fill-rule="nonzero"/><path fill="#0a21c0" d="M 244.914062 319.328125 C 244.914062 340.59375 227.671875 357.832031 206.40625 357.832031 C 185.140625 357.832031 167.902344 340.59375 167.902344 319.328125 C 167.902344 298.0625 185.140625 280.820312 206.40625 280.820312 C 227.671875 280.820312 244.914062 298.0625 244.914062 319.328125 " fill-opacity="1" fill-rule="nonzero"/></svg>