<svg xmlns="http://www.w3.org/2000/svg" xmlns:xlink="http://www.w3.org/1999/xlink" width="500" zoomAndPan="magnify" viewBox="0 0 375 374.999991" height="500" preserveAspectRatio="xMidYMid meet" version="1.0"><path fill="#b3b4bd" d="M 276.898438 328.382812 C 365.390625 273.078125 366.582031 173.683594 366.554688 169.128906 C 366.238281 119.324219 343.378906 47.375 281.585938 19.816406 C 252.304688 6.753906 206.015625 -0.0078125 173.011719 21.988281 C 142.195312 42.527344 155.550781 66.425781 121.554688 107.449219 C 82.398438 154.695312 50.902344 148.3125 24.648438 189.574219 C 7.308594 216.828125 14.960938 249.816406 17.152344 259.277344 C 33.238281 328.640625 117.664062 352.484375 127.132812 355.003906 C 202.300781 374.996094 264.175781 336.332031 276.898438 328.382812 " fill-opacity="1" fill-rule="nonzero"/><path fill="#f4f5f8" d="M 103.871094 44.769531 L 337.371094 44.089844 C 342.066406 44.089844 345.75 48.117188 345.335938 52.792969 L 328.992188 236.953125 C 328.625 241.078125 325.167969 244.238281 321.027344 244.238281 L 33.402344 244.199219 C 28.707031 244.199219 24.972656 239.75 25.390625 235.074219 L 41.738281 52.054688 C 42.105469 47.929688 45.425781 44.320312 49.570312 44.320312 L 103.871094 44.769531 " fill-opacity="1" fill-rule="nonzero"/><path fill="#e5e7fd" d="M 92.734375 44.769531 L 326.199219 44.769531 C 330.894531 44.769531 334.578125 48.796875 334.160156 53.472656 L 317.894531 236.320312 C 317.527344 240.445312 314.070312 243.609375 309.929688 243.609375 L 22.296875 243.609375 C 17.601562 243.609375 13.917969 239.582031 14.332031 234.902344 L 30.601562 52.058594 C 30.96875 47.929688 34.425781 44.769531 38.566406 44.769531 L 92.734375 44.769531 " fill-opacity="1" fill-rule="nonzero"/><path fill="#141619" d="M 59.300781 244.246094 L 22.296875 244.246094 C 19.882812 244.246094 17.558594 243.226562 15.925781 241.441406 C 14.292969 239.660156 13.480469 237.253906 13.695312 234.847656 L 29.964844 52 C 30.363281 47.511719 34.0625 44.128906 38.566406 44.128906 L 92.734375 44.128906 C 93.089844 44.128906 93.375 44.417969 93.375 44.769531 C 93.375 45.125 93.089844 45.410156 92.734375 45.410156 L 38.566406 45.410156 C 34.730469 45.410156 31.582031 48.292969 31.242188 52.113281 L 14.972656 234.960938 C 14.789062 237.011719 15.480469 239.058594 16.871094 240.578125 C 18.261719 242.097656 20.238281 242.96875 22.296875 242.96875 L 59.300781 242.96875 C 59.65625 242.96875 59.941406 243.253906 59.941406 243.609375 C 59.941406 243.960938 59.65625 244.246094 59.300781 244.246094 " fill-opacity="1" fill-rule="nonzero"/><path fill="#141619" d="M 327.328125 129.121094 C 327.308594 129.121094 327.285156 129.121094 327.265625 129.121094 C 326.914062 129.089844 326.65625 128.777344 326.6875 128.425781 L 333.527344 53.414062 C 333.707031 51.367188 333.015625 49.320312 331.625 47.800781 C 330.238281 46.277344 328.257812 45.410156 326.199219 45.410156 L 92.734375 45.410156 C 92.382812 45.410156 92.09375 45.121094 92.09375 44.769531 C 92.09375 44.414062 92.382812 44.128906 92.734375 44.128906 L 326.199219 44.128906 C 328.613281 44.128906 330.9375 45.152344 332.570312 46.933594 C 334.203125 48.71875 335.015625 51.121094 334.800781 53.53125 L 327.964844 128.542969 C 327.933594 128.871094 327.652344 129.121094 327.328125 129.121094 " fill-opacity="1" fill-rule="nonzero"/><path fill="#b3b4bd" d="M 97.929688 52.21875 L 318.355469 52.21875 C 322.789062 52.21875 326.269531 55.933594 325.878906 60.25 L 310.515625 229.019531 C 310.167969 232.828125 306.902344 235.746094 302.996094 235.746094 L 31.421875 235.746094 C 26.988281 235.746094 23.511719 232.027344 23.902344 227.710938 L 39.265625 58.941406 C 39.613281 55.132812 42.875 52.21875 46.785156 52.21875 L 97.929688 52.21875 " fill-opacity="1" fill-rule="nonzero"/><path fill="#f4f5f8" d="M 324.863281 71.507812 L 325.878906 60.332031 C 326.269531 56.015625 322.789062 52.273438 318.355469 52.273438 L 46.785156 52.273438 C 42.875 52.273438 39.613281 55.214844 39.265625 59.023438 L 38.132812 71.507812 L 324.863281 71.507812 " fill-opacity="1" fill-rule="nonzero"/><path fill="#f4f5f8" d="M 105.515625 126.359375 L 43.328125 126.359375 L 47.847656 79.359375 L 110.035156 79.359375 L 105.515625 126.359375 " fill-opacity="1" fill-rule="nonzero"/><path fill="#f4f5f8" d="M 173.675781 126.679688 L 111.488281 126.679688 L 116.007812 79.679688 L 178.195312 79.679688 L 173.675781 126.679688 " fill-opacity="1" fill-rule="nonzero"/><path fill="#f4f5f8" d="M 242.25 126.359375 L 180.066406 126.359375 L 184.585938 79.359375 L 246.769531 79.359375 L 242.25 126.359375 " fill-opacity="1" fill-rule="nonzero"/><path fill="#f4f5f8" d="M 232.667969 229.703125 L 33.742188 229.703125 L 41.359375 150.507812 L 240.285156 150.507812 L 232.667969 229.703125 " fill-opacity="1" fill-rule="nonzero"/><path fill="#f4f5f8" d="M 240.367188 145.996094 L 41.4375 145.996094 L 42.832031 131.511719 L 241.757812 131.511719 L 240.367188 145.996094 " fill-opacity="1" fill-rule="nonzero"/><path fill="#f4f5f8" d="M 301.140625 230.089844 L 239.902344 230.089844 L 253.9375 78.574219 L 315.179688 78.574219 L 301.140625 230.089844 " fill-opacity="1" fill-rule="nonzero"/><path fill="#0a21c0" d="M 242.082031 309.597656 C 236.628906 305.140625 230.90625 300.988281 225.042969 297.027344 C 213.144531 288.988281 200.605469 281.796875 187.933594 274.835938 C 181.265625 271.171875 174.34375 267.855469 167.511719 264.449219 C 160.636719 261.019531 153.746094 257.617188 146.851562 254.222656 C 140.550781 251.117188 134.25 248.011719 127.960938 244.894531 C 113.667969 196.570312 98.144531 141.785156 101.226562 141.785156 L 335.601562 135.167969 C 341.117188 135.167969 344.820312 139.65625 343.851562 145.171875 L 315.449219 307.117188 C 314.480469 312.636719 309.207031 317.121094 303.6875 317.121094 L 251.53125 317.121094 C 248.457031 314.53125 245.195312 312.140625 242.082031 309.597656 " fill-opacity="1" fill-rule="nonzero"/><path fill="#f4f5f8" d="M 94.539062 135.734375 L 330.742188 135.734375 C 335.957031 135.734375 339.441406 139.960938 338.523438 145.171875 L 310.125 307.117188 C 309.210938 312.332031 304.242188 316.558594 299.03125 316.558594 L 62.824219 316.558594 C 57.613281 316.558594 54.125 312.332031 55.042969 307.117188 L 83.441406 145.171875 C 84.359375 139.960938 89.324219 135.734375 94.539062 135.734375 " fill-opacity="1" fill-rule="nonzero"/><path fill="#141619" d="M 330.867188 188.9375 C 330.832031 188.9375 330.792969 188.933594 330.753906 188.925781 C 330.40625 188.863281 330.175781 188.53125 330.238281 188.183594 L 337.894531 145.0625 C 338.308594 142.703125 337.777344 140.503906 336.398438 138.859375 C 335.054688 137.257812 333.046875 136.375 330.742188 136.375 L 311.304688 136.375 C 310.953125 136.375 310.664062 136.089844 310.664062 135.734375 C 310.664062 135.382812 310.953125 135.09375 311.304688 135.09375 L 330.742188 135.09375 C 333.429688 135.09375 335.785156 136.140625 337.378906 138.035156 C 339.003906 139.972656 339.636719 142.546875 339.15625 145.285156 L 331.5 188.410156 C 331.445312 188.71875 331.171875 188.9375 330.867188 188.9375 " fill-opacity="1" fill-rule="nonzero"/><path fill="#141619" d="M 56.570312 300.648438 C 56.53125 300.648438 56.496094 300.648438 56.460938 300.640625 C 56.109375 300.578125 55.878906 300.246094 55.9375 299.898438 L 82.8125 145.0625 C 83.777344 139.566406 89.035156 135.09375 94.539062 135.09375 L 157.640625 135.09375 C 157.996094 135.09375 158.28125 135.378906 158.28125 135.734375 C 158.28125 136.085938 157.996094 136.375 157.640625 136.375 L 94.539062 136.375 C 89.628906 136.375 84.9375 140.371094 84.074219 145.285156 L 57.199219 300.117188 C 57.144531 300.429688 56.875 300.648438 56.570312 300.648438 " fill-opacity="1" fill-rule="nonzero"/><path fill="#f4f5f8" d="M 25.546875 316.652344 L 300.246094 316.652344 C 303.90625 316.652344 306.882812 319.679688 306.882812 323.566406 C 306.882812 327.453125 303.90625 330.476562 300.246094 330.476562 L 25.546875 330.476562 C 21.882812 330.476562 18.910156 327.457031 18.910156 323.566406 C 18.910156 319.671875 21.882812 316.652344 25.546875 316.652344 " fill-opacity="1" fill-rule="nonzero"/><path fill="#141619" d="M 206.734375 331.117188 L 25.546875 331.117188 C 21.464844 331.117188 18.269531 327.800781 18.269531 323.566406 C 18.269531 319.332031 21.464844 316.011719 25.546875 316.011719 L 239.886719 316.011719 L 249.84375 316.292969 C 250.195312 316.304688 250.472656 316.597656 250.464844 316.949219 C 250.453125 317.296875 250.167969 317.574219 249.824219 317.574219 C 249.820312 317.574219 249.8125 317.574219 249.804688 317.574219 L 239.867188 317.292969 L 25.546875 317.292969 C 22.183594 317.292969 19.550781 320.046875 19.550781 323.566406 C 19.550781 327.082031 22.183594 329.835938 25.546875 329.835938 L 239.886719 329.835938 L 252.082031 329.617188 C 252.085938 329.617188 252.089844 329.617188 252.09375 329.617188 C 252.441406 329.617188 252.726562 329.894531 252.734375 330.246094 C 252.738281 330.597656 252.457031 330.890625 252.105469 330.898438 L 239.898438 331.117188 L 206.734375 331.117188 " fill-opacity="1" fill-rule="nonzero"/><path fill="#e5e7fd" d="M 100.359375 141.976562 L 323.59375 141.976562 C 328.519531 141.976562 331.8125 145.914062 330.949219 150.765625 L 304.109375 301.527344 C 303.246094 306.378906 298.550781 310.3125 293.621094 310.3125 L 70.390625 310.3125 C 65.460938 310.3125 62.167969 306.378906 63.03125 301.527344 L 89.875 150.765625 C 90.738281 145.914062 95.433594 141.976562 100.359375 141.976562 " fill-opacity="1" fill-rule="nonzero"/><path fill="#b3b4bd" d="M 329.785156 157.316406 L 330.949219 150.78125 C 331.8125 145.925781 328.519531 142.003906 323.59375 142.003906 L 100.359375 142.003906 C 95.433594 142.003906 90.738281 145.925781 89.875 150.78125 L 88.707031 157.316406 L 329.785156 157.316406 " fill-opacity="1" fill-rule="nonzero"/><path fill="#b3b4bd" d="M 226.011719 264.058594 L 80.851562 264.058594 L 99.433594 165.410156 L 244.378906 165.410156 L 226.011719 264.058594 " fill-opacity="1" fill-rule="nonzero"/><path fill="#b3b4bd" d="M 218.109375 302.757812 L 73.195312 302.757812 L 79.675781 271.285156 L 224.589844 271.285156 L 218.109375 302.757812 " fill-opacity="1" fill-rule="nonzero"/><path fill="#b3b4bd" d="M 316.488281 194.46875 L 244.996094 194.46875 L 250.535156 164.96875 L 322.027344 164.96875 L 316.488281 194.46875 " fill-opacity="1" fill-rule="nonzero"/><path fill="#b3b4bd" d="M 310.390625 231.246094 L 238.894531 231.246094 L 244.433594 201.742188 L 315.925781 201.742188 L 310.390625 231.246094 " fill-opacity="1" fill-rule="nonzero"/><path fill="#b3b4bd" d="M 303.839844 266.40625 L 232.34375 266.40625 L 237.878906 236.902344 L 309.375 236.902344 L 303.839844 266.40625 " fill-opacity="1" fill-rule="nonzero"/><path fill="#b3b4bd" d="M 296.886719 303.179688 L 225.390625 303.179688 L 230.929688 273.679688 L 302.421875 273.679688 L 296.886719 303.179688 " fill-opacity="1" fill-rule="nonzero"/><path fill="#141619" d="M 341.117188 361.003906 L 262.835938 361.003906 C 259.460938 361.003906 257.074219 358.277344 257.5 354.917969 L 276.773438 202.644531 C 277.203125 199.28125 280.28125 196.554688 283.652344 196.554688 L 358.003906 195.6875 C 366.539062 195.6875 367.695312 199.28125 367.273438 202.644531 L 347.996094 354.917969 C 347.570312 358.277344 344.488281 361.003906 341.117188 361.003906 " fill-opacity="1" fill-rule="nonzero"/><path fill="#f4f5f8" d="M 336.40625 361.003906 L 258.125 361.003906 C 254.753906 361.003906 252.363281 358.269531 252.789062 354.898438 L 272.066406 202.136719 C 272.492188 198.765625 275.570312 196.03125 278.945312 196.03125 L 357.226562 196.03125 C 360.597656 196.03125 362.988281 198.765625 362.5625 202.136719 L 343.289062 354.898438 C 342.863281 358.269531 339.785156 361.003906 336.40625 361.003906 " fill-opacity="1" fill-rule="nonzero"/><path fill="#b3b4bd" d="M 317.101562 203.800781 C 315.839844 203.800781 314.945312 202.773438 315.105469 201.511719 C 315.265625 200.25 316.417969 199.222656 317.679688 199.222656 C 318.945312 199.222656 319.839844 200.25 319.683594 201.511719 C 319.519531 202.773438 318.367188 203.800781 317.101562 203.800781 " fill-opacity="1" fill-rule="nonzero"/><path fill="#e5e7fd" d="M 257.25 355.109375 L 275.652344 209.25 C 275.753906 208.472656 276.460938 207.839844 277.242188 207.839844 L 355.941406 207.839844 C 356.722656 207.839844 357.273438 208.472656 357.175781 209.25 L 338.769531 355.109375 C 338.671875 355.886719 337.960938 356.515625 337.183594 356.515625 L 258.480469 356.515625 C 257.703125 356.515625 257.148438 355.886719 257.25 355.109375 " fill-opacity="1" fill-rule="nonzero"/><path fill="#0a21c0" d="M 356.109375 216.84375 L 357.175781 208.433594 C 357.273438 207.65625 356.722656 207.0625 355.941406 207.0625 L 277.242188 207.0625 C 276.460938 207.0625 275.753906 207.65625 275.652344 208.433594 L 274.589844 216.84375 L 356.109375 216.84375 " fill-opacity="1" fill-rule="nonzero"/><path fill="#b3b4bd" d="M 354.617188 209.117188 C 354.617188 209.667969 354.175781 210.113281 353.621094 210.113281 C 353.074219 210.113281 352.628906 209.667969 352.628906 209.117188 C 352.628906 208.570312 353.074219 208.125 353.621094 208.125 C 354.175781 208.125 354.617188 208.570312 354.617188 209.117188 " fill-opacity="1" fill-rule="nonzero"/><path fill="#b3b4bd" d="M 354.335938 212.054688 C 354.335938 212.601562 353.890625 213.046875 353.339844 213.046875 C 352.789062 213.046875 352.34375 212.601562 352.34375 212.054688 C 352.34375 211.503906 352.789062 211.058594 353.339844 211.058594 C 353.890625 211.058594 354.335938 211.503906 354.335938 212.054688 " fill-opacity="1" fill-rule="nonzero"/><path fill="#b3b4bd" d="M 354 214.941406 C 354 215.492188 353.554688 215.9375 353.011719 215.9375 C 352.457031 215.9375 352.011719 215.492188 352.011719 214.941406 C 352.011719 214.394531 352.457031 213.949219 353.011719 213.949219 C 353.554688 213.949219 354 214.394531 354 214.941406 " fill-opacity="1" fill-rule="nonzero"/><path fill="#b3b4bd" d="M 347.289062 262.761719 L 272.761719 262.761719 L 278.070312 221.027344 L 352.59375 221.027344 L 347.289062 262.761719 " fill-opacity="1" fill-rule="nonzero"/><path fill="#b3b4bd" d="M 341.160156 307.609375 L 266.632812 307.609375 L 271.941406 265.875 L 346.464844 265.875 L 341.160156 307.609375 " fill-opacity="1" fill-rule="nonzero"/><path fill="#b3b4bd" d="M 335.792969 353.144531 L 261.269531 353.144531 L 266.574219 311.410156 L 341.101562 311.410156 L 335.792969 353.144531 " fill-opacity="1" fill-rule="nonzero"/><path fill="#141619" d="M 261.671875 284.507812 L 262.304688 284.585938 L 253.425781 354.976562 C 253.242188 356.433594 253.632812 357.792969 254.527344 358.808594 C 255.414062 359.8125 256.691406 360.363281 258.128906 360.363281 L 336.40625 360.363281 C 339.464844 360.363281 342.265625 357.875 342.652344 354.816406 L 361.929688 202.058594 C 362.113281 200.601562 361.71875 199.242188 360.820312 198.226562 C 359.9375 197.222656 358.660156 196.671875 357.226562 196.671875 L 278.941406 196.671875 C 275.886719 196.671875 273.089844 199.160156 272.703125 202.21875 L 262.304688 284.585938 Z M 336.40625 361.644531 L 258.128906 361.644531 C 256.320312 361.644531 254.699219 360.9375 253.570312 359.65625 C 252.429688 358.359375 251.921875 356.640625 252.15625 354.816406 L 271.429688 202.058594 C 271.890625 198.382812 275.265625 195.390625 278.941406 195.390625 L 357.226562 195.390625 C 359.035156 195.390625 360.652344 196.097656 361.785156 197.378906 C 362.921875 198.671875 363.425781 200.394531 363.199219 202.21875 L 343.921875 354.976562 C 343.457031 358.652344 340.085938 361.644531 336.40625 361.644531 " fill-opacity="1" fill-rule="nonzero"/><path fill="#e5e7fd" d="M 150.851562 334.496094 L 152.785156 348.066406 L 156.96875 348.066406 L 157.203125 334.722656 L 150.851562 334.496094 " fill-opacity="1" fill-rule="nonzero"/><path fill="#141619" d="M 153.339844 347.429688 L 156.339844 347.429688 L 156.550781 335.339844 L 151.59375 335.167969 Z M 156.96875 348.707031 L 152.785156 348.707031 C 152.46875 348.707031 152.195312 348.472656 152.152344 348.160156 L 150.21875 334.589844 C 150.191406 334.402344 150.25 334.210938 150.378906 334.070312 C 150.503906 333.929688 150.6875 333.851562 150.875 333.859375 L 157.222656 334.082031 C 157.574219 334.09375 157.847656 334.382812 157.839844 334.734375 L 157.609375 348.078125 C 157.601562 348.429688 157.316406 348.707031 156.96875 348.707031 " fill-opacity="1" fill-rule="nonzero"/><path fill="#e5e7fd" d="M 152.617188 361.039062 C 154.617188 361.253906 157.894531 361.394531 161.714844 360.734375 C 162.964844 360.519531 163.757812 359.273438 163.414062 358.050781 C 162.457031 354.644531 160.390625 348.195312 157.792969 345.261719 L 157.226562 346.917969 L 156.320312 345.40625 C 156.195312 345.199219 155.980469 345.0625 155.738281 345.039062 L 153.855469 344.863281 C 153.460938 344.828125 153.105469 345.101562 153.039062 345.488281 L 152.785156 346.917969 L 152.070312 345.078125 L 150.730469 358.707031 C 150.613281 359.871094 151.453125 360.914062 152.617188 361.039062 " fill-opacity="1" fill-rule="nonzero"/><path fill="#141619" d="M 152.476562 347.480469 L 151.363281 358.769531 C 151.285156 359.582031 151.878906 360.316406 152.683594 360.402344 C 154.707031 360.617188 157.890625 360.742188 161.605469 360.105469 C 162.03125 360.03125 162.390625 359.789062 162.621094 359.425781 C 162.851562 359.0625 162.914062 358.636719 162.796875 358.226562 C 161.914062 355.085938 160.183594 349.675781 158.015625 346.585938 L 157.832031 347.125 C 157.753906 347.359375 157.542969 347.527344 157.292969 347.554688 C 157.046875 347.582031 156.804688 347.460938 156.679688 347.25 L 155.769531 345.734375 C 155.75 345.703125 155.71875 345.679688 155.679688 345.679688 L 153.796875 345.5 C 153.726562 345.496094 153.679688 345.539062 153.667969 345.601562 L 153.414062 347.03125 C 153.367188 347.3125 153.132812 347.527344 152.847656 347.554688 C 152.714844 347.570312 152.585938 347.539062 152.476562 347.480469 Z M 156.035156 361.859375 C 154.671875 361.859375 153.488281 361.777344 152.550781 361.675781 C 151.042969 361.515625 149.941406 360.15625 150.089844 358.644531 L 151.429688 345.011719 C 151.460938 344.71875 151.6875 344.480469 151.980469 344.441406 C 152.257812 344.40625 152.53125 344.550781 152.648438 344.804688 C 152.933594 344.414062 153.40625 344.179688 153.914062 344.226562 L 155.800781 344.402344 C 156.242188 344.445312 156.640625 344.695312 156.871094 345.078125 L 157.066406 345.40625 L 157.1875 345.054688 C 157.261719 344.839844 157.445312 344.679688 157.667969 344.636719 C 157.890625 344.589844 158.121094 344.664062 158.273438 344.835938 C 160.9375 347.847656 163.023438 354.300781 164.027344 357.878906 C 164.242188 358.632812 164.125 359.445312 163.703125 360.109375 C 163.285156 360.773438 162.597656 361.234375 161.820312 361.367188 C 159.6875 361.734375 157.722656 361.859375 156.035156 361.859375 " fill-opacity="1" fill-rule="nonzero"/><path fill="#141619" d="M 157.371094 359.542969 C 154.472656 359.542969 152.246094 358.996094 152.105469 358.960938 C 151.761719 358.875 151.554688 358.527344 151.640625 358.1875 C 151.726562 357.84375 152.074219 357.632812 152.417969 357.722656 C 152.464844 357.734375 157.332031 358.917969 161.882812 357.722656 C 162.226562 357.632812 162.574219 357.835938 162.664062 358.179688 C 162.753906 358.519531 162.550781 358.871094 162.207031 358.960938 C 160.546875 359.394531 158.867188 359.542969 157.371094 359.542969 " fill-opacity="1" fill-rule="nonzero"/><path fill="#141619" d="M 159.058594 354.234375 L 154.574219 354.234375 C 154.21875 354.234375 153.933594 353.949219 153.933594 353.597656 C 153.933594 353.242188 154.21875 352.953125 154.574219 352.953125 L 159.058594 352.953125 C 159.414062 352.953125 159.699219 353.242188 159.699219 353.597656 C 159.699219 353.949219 159.414062 354.234375 159.058594 354.234375 " fill-opacity="1" fill-rule="nonzero"/><path fill="#e5e7fd" d="M 115.359375 335.707031 L 113.617188 351.523438 L 106.964844 352.917969 L 107.371094 334.375 L 115.359375 335.707031 " fill-opacity="1" fill-rule="nonzero"/><path fill="#141619" d="M 107.996094 335.128906 L 107.625 352.125 L 113.035156 350.992188 L 114.65625 336.238281 Z M 106.964844 353.558594 C 106.820312 353.558594 106.671875 353.503906 106.558594 353.410156 C 106.40625 353.285156 106.320312 353.101562 106.328125 352.902344 L 106.730469 334.359375 C 106.734375 334.175781 106.820312 334 106.964844 333.882812 C 107.105469 333.761719 107.292969 333.710938 107.476562 333.742188 L 115.464844 335.078125 C 115.800781 335.132812 116.03125 335.441406 115.996094 335.78125 L 114.253906 351.59375 C 114.226562 351.871094 114.019531 352.09375 113.75 352.152344 L 107.097656 353.542969 C 107.054688 353.554688 107.011719 353.558594 106.964844 353.558594 " fill-opacity="1" fill-rule="nonzero"/><path fill="#e5e7fd" d="M 116.425781 359.816406 C 116.425781 359.816406 117.277344 352.207031 114.894531 348.730469 L 109.574219 350.625 L 109.574219 349.488281 C 109.574219 349.125 109.3125 348.820312 108.976562 348.800781 L 106.011719 348.632812 C 104.902344 348.566406 103.800781 348.796875 102.789062 349.292969 C 99.230469 351.042969 91.050781 355.546875 91.308594 359.867188 C 91.308594 359.867188 97.75 361.464844 116.425781 359.816406 " fill-opacity="1" fill-rule="nonzero"/><path fill="#141619" d="M 116.425781 359.816406 L 116.429688 359.816406 Z M 91.964844 359.34375 C 93.777344 359.652344 100.703125 360.527344 115.835938 359.222656 C 115.964844 357.570312 116.214844 352.363281 114.621094 349.507812 L 109.789062 351.230469 C 109.589844 351.300781 109.375 351.269531 109.203125 351.148438 C 109.035156 351.027344 108.933594 350.835938 108.933594 350.625 L 108.933594 349.488281 C 108.933594 349.457031 108.917969 349.4375 108.914062 349.433594 L 105.972656 349.269531 C 104.984375 349.214844 103.980469 349.421875 103.070312 349.871094 C 96.355469 353.167969 92.277344 356.664062 91.964844 359.34375 Z M 101.335938 361.207031 C 94.175781 361.207031 91.332031 360.53125 91.15625 360.488281 C 90.882812 360.417969 90.6875 360.183594 90.671875 359.90625 C 90.398438 355.371094 97.96875 350.953125 102.503906 348.71875 C 103.613281 348.175781 104.839844 347.921875 106.046875 347.992188 L 109.015625 348.164062 C 109.6875 348.199219 110.214844 348.785156 110.214844 349.488281 L 110.214844 349.71875 L 114.679688 348.128906 C 114.953125 348.03125 115.257812 348.128906 115.421875 348.367188 C 117.910156 352 117.097656 359.566406 117.0625 359.886719 C 117.027344 360.191406 116.785156 360.425781 116.484375 360.453125 C 110.078125 361.019531 105.105469 361.207031 101.335938 361.207031 " fill-opacity="1" fill-rule="nonzero"/><path fill="#141619" d="M 107.363281 358.859375 C 99.410156 358.859375 93.316406 357.652344 93.238281 357.636719 C 92.890625 357.566406 92.667969 357.226562 92.738281 356.878906 C 92.808594 356.535156 93.144531 356.308594 93.492188 356.378906 C 93.59375 356.402344 103.949219 358.453125 115.21875 357.148438 C 115.570312 357.105469 115.886719 357.359375 115.929688 357.710938 C 115.96875 358.0625 115.71875 358.378906 115.367188 358.417969 C 112.601562 358.738281 109.886719 358.859375 107.363281 358.859375 " fill-opacity="1" fill-rule="nonzero"/><path fill="#141619" d="M 101.039062 354.847656 C 100.839844 354.847656 100.644531 354.753906 100.519531 354.578125 C 100.3125 354.292969 100.378906 353.890625 100.664062 353.683594 L 105.789062 350 C 106.074219 349.792969 106.472656 349.859375 106.679688 350.144531 C 106.886719 350.433594 106.820312 350.835938 106.535156 351.039062 L 101.410156 354.722656 C 101.296875 354.804688 101.167969 354.847656 101.039062 354.847656 " fill-opacity="1" fill-rule="nonzero"/><path fill="#0a21c0" d="M 113.285156 233.097656 C 113.285156 233.097656 103.738281 293.757812 105.769531 337.421875 L 116.382812 337.695312 C 116.382812 337.695312 127.761719 276.125 133.441406 265.109375 C 133.441406 265.109375 148.863281 321.246094 149.460938 337.222656 C 149.460938 337.222656 156.324219 337.914062 159.058594 336.929688 C 160.527344 321.507812 160.972656 308.390625 161.042969 298.371094 C 161.253906 269.691406 158.511719 256.664062 157.011719 250.484375 C 155.632812 244.808594 154.152344 240.195312 153.070312 237.078125 L 149.460938 226.777344 L 113.285156 233.097656 " fill-opacity="1" fill-rule="nonzero"/><path fill="#e5e7fd" d="M 132.878906 264.480469 C 132.59375 264.480469 132.332031 264.285156 132.257812 264 L 130.722656 258.0625 L 127.058594 257.308594 C 126.710938 257.234375 126.488281 256.894531 126.5625 256.550781 C 126.632812 256.203125 126.96875 255.980469 127.316406 256.054688 L 131.371094 256.890625 C 131.609375 256.941406 131.800781 257.121094 131.863281 257.355469 L 133.5 263.679688 C 133.585938 264.019531 133.382812 264.371094 133.039062 264.457031 C 132.984375 264.472656 132.933594 264.480469 132.878906 264.480469 " fill-opacity="1" fill-rule="nonzero"/><path fill="#141619" d="M 114.21875 179.292969 C 120.425781 178.59375 133.5625 177.34375 142.804688 178.113281 C 145.644531 178.351562 148.339844 179.460938 150.519531 181.296875 C 157.082031 186.839844 171.300781 200.730469 171.488281 217.167969 L 156.917969 215.054688 C 156.917969 215.054688 162.0625 233.484375 161.714844 236.445312 C 161.363281 239.410156 152.34375 244.449219 141.066406 240.3125 C 129.789062 236.179688 113.5625 236.6875 108.304688 240.3125 L 107.800781 217.574219 L 85.636719 217.574219 C 85.636719 217.574219 92.964844 193.726562 107.183594 182.210938 C 109.199219 180.582031 111.644531 179.582031 114.21875 179.292969 " fill-opacity="1" fill-rule="nonzero"/><path fill="#e5e7fd" d="M 85.636719 217.574219 C 85.636719 217.574219 83.902344 225.503906 91.785156 227.886719 C 99.667969 230.265625 107.15625 215.917969 107.15625 215.917969 L 101.667969 212.734375 L 85.636719 217.574219 " fill-opacity="1" fill-rule="nonzero"/><path fill="#141619" d="M 86.199219 218.074219 C 85.980469 219.597656 85.601562 225.347656 91.972656 227.273438 C 98.425781 229.222656 104.855469 218.6875 106.292969 216.15625 L 101.585938 213.429688 Z M 93.597656 228.796875 C 92.9375 228.796875 92.273438 228.703125 91.601562 228.5 C 83.25 225.976562 84.992188 217.523438 85.011719 217.4375 C 85.0625 217.210938 85.230469 217.03125 85.453125 216.964844 L 101.484375 212.125 C 101.652344 212.070312 101.835938 212.09375 101.988281 212.179688 L 107.476562 215.363281 C 107.773438 215.535156 107.882812 215.910156 107.722656 216.214844 C 107.433594 216.769531 101.066406 228.796875 93.597656 228.796875 " fill-opacity="1" fill-rule="nonzero"/><path fill="#f4f5f8" d="M 136.765625 235.648438 L 98.023438 235.648438 C 97.039062 235.648438 96.183594 234.976562 95.949219 234.023438 L 88.128906 202.488281 C 87.792969 201.140625 88.8125 199.835938 90.199219 199.835938 L 128.945312 199.835938 C 129.925781 199.835938 130.78125 200.507812 131.019531 201.460938 L 138.839844 232.996094 C 139.175781 234.34375 138.15625 235.648438 136.765625 235.648438 " fill-opacity="1" fill-rule="nonzero"/><path fill="#141619" d="M 90.199219 200.480469 C 89.738281 200.480469 89.308594 200.6875 89.023438 201.050781 C 88.738281 201.417969 88.636719 201.886719 88.75 202.335938 L 96.570312 233.871094 C 96.734375 234.539062 97.332031 235.003906 98.023438 235.003906 L 136.765625 235.003906 C 137.230469 235.003906 137.660156 234.796875 137.945312 234.429688 C 138.230469 234.066406 138.332031 233.597656 138.21875 233.148438 L 130.398438 201.613281 C 130.230469 200.945312 129.632812 200.480469 128.945312 200.480469 Z M 136.765625 236.285156 L 98.023438 236.285156 C 96.742188 236.285156 95.636719 235.417969 95.328125 234.179688 L 87.507812 202.640625 C 87.300781 201.808594 87.484375 200.941406 88.015625 200.265625 C 88.542969 199.585938 89.339844 199.199219 90.199219 199.199219 L 128.945312 199.199219 C 130.222656 199.199219 131.332031 200.066406 131.640625 201.304688 L 139.460938 232.839844 C 139.667969 233.675781 139.484375 234.542969 138.953125 235.21875 C 138.425781 235.898438 137.625 236.285156 136.765625 236.285156 " fill-opacity="1" fill-rule="nonzero"/><path fill="#e5e7fd" d="M 91.003906 215.515625 L 92.140625 218.667969 L 101.457031 214.234375 C 101.457031 214.234375 106.578125 218.667969 94.164062 224.351562 C 88.988281 226.722656 91.003906 215.515625 91.003906 215.515625 " fill-opacity="1" fill-rule="nonzero"/><path fill="#141619" d="M 91.3125 218.257812 C 91.148438 220.59375 91.292969 223.105469 92.238281 223.839844 C 92.378906 223.945312 92.800781 224.273438 93.894531 223.769531 C 100.066406 220.945312 101.621094 218.558594 101.835938 217.050781 C 101.972656 216.097656 101.585938 215.390625 101.304688 215.015625 L 92.414062 219.246094 C 92.253906 219.324219 92.0625 219.328125 91.898438 219.261719 C 91.730469 219.191406 91.601562 219.058594 91.539062 218.886719 Z M 92.867188 225.320312 C 92.234375 225.320312 91.773438 225.09375 91.453125 224.847656 C 89.082031 223.011719 90.234375 216.175781 90.371094 215.398438 C 90.421875 215.117188 90.660156 214.898438 90.949219 214.878906 C 91.238281 214.859375 91.507812 215.027344 91.605469 215.296875 L 92.503906 217.789062 L 101.179688 213.65625 C 101.410156 213.546875 101.683594 213.582031 101.875 213.75 C 101.9375 213.800781 103.40625 215.101562 103.101562 217.230469 C 102.722656 219.882812 99.804688 222.476562 94.429688 224.933594 C 93.820312 225.210938 93.304688 225.320312 92.867188 225.320312 " fill-opacity="1" fill-rule="nonzero"/><path fill="#e5e7fd" d="M 145.800781 199.460938 C 145.800781 199.460938 163.214844 209.234375 166.808594 212.304688 C 170.402344 215.378906 174.296875 217.703125 169.234375 224.417969 C 164.171875 231.128906 142.578125 204.246094 142.578125 204.246094 C 142.578125 204.246094 138.429688 204.933594 136.984375 199.28125 C 136.984375 199.28125 129.980469 199.535156 129.726562 197.335938 L 139.601562 195.570312 C 140.878906 195.339844 142.1875 195.757812 143.09375 196.6875 L 145.800781 199.460938 " fill-opacity="1" fill-rule="nonzero"/><path fill="#141619" d="M 142.574219 203.605469 C 142.765625 203.605469 142.953125 203.691406 143.078125 203.84375 C 147.78125 209.699219 161.214844 224.851562 166.988281 224.855469 C 167.003906 224.855469 167.019531 224.851562 167.039062 224.851562 C 167.761719 224.84375 168.3125 224.574219 168.722656 224.03125 C 173.027344 218.328125 170.597656 216.300781 167.234375 213.5 C 166.953125 213.265625 166.671875 213.03125 166.390625 212.792969 C 162.890625 209.796875 145.660156 200.117188 145.488281 200.015625 C 145.433594 199.988281 145.386719 199.949219 145.34375 199.90625 L 142.636719 197.132812 C 141.875 196.355469 140.785156 196.007812 139.714844 196.199219 L 130.816406 197.792969 C 131.867188 198.40625 134.546875 198.730469 136.960938 198.644531 C 137.253906 198.632812 137.527344 198.832031 137.601562 199.125 C 138.878906 204.101562 142.332031 203.636719 142.476562 203.613281 C 142.511719 203.609375 142.542969 203.605469 142.574219 203.605469 Z M 166.992188 226.132812 C 159.785156 226.132812 144.359375 207.453125 142.289062 204.90625 C 141.160156 204.929688 137.894531 204.558594 136.5 199.9375 C 134.316406 199.964844 129.363281 199.785156 129.089844 197.410156 C 129.050781 197.074219 129.28125 196.765625 129.613281 196.707031 L 139.488281 194.9375 C 140.976562 194.671875 142.496094 195.160156 143.550781 196.238281 L 146.195312 198.945312 C 147.636719 199.757812 163.710938 208.816406 167.222656 211.820312 C 167.5 212.054688 167.777344 212.285156 168.054688 212.515625 C 171.363281 215.273438 174.785156 218.121094 169.746094 224.804688 C 169.089844 225.671875 168.1875 226.117188 167.058594 226.132812 C 167.035156 226.132812 167.015625 226.132812 166.992188 226.132812 " fill-opacity="1" fill-rule="nonzero"/><path fill="#141619" d="M 121.226562 167.921875 C 120.910156 168.46875 121.5625 169.527344 121.566406 169.523438 C 121.578125 169.519531 121.253906 166.425781 119.53125 165.640625 C 118.527344 165.1875 118.011719 165.945312 116.519531 165.738281 C 114.9375 165.519531 113.191406 164.347656 112.539062 162.632812 C 111.75 160.558594 112.886719 158.585938 113.605469 157.339844 C 114.320312 156.101562 115.226562 154.722656 116.804688 154.128906 C 118.859375 153.351562 119.714844 154.542969 122.066406 153.8125 C 123.980469 153.214844 123.839844 152.296875 125.542969 151.808594 C 126.960938 151.410156 131.050781 151.636719 131.964844 153.8125 C 132.546875 155.191406 131.296875 156.03125 131.917969 158.074219 C 132.292969 159.300781 132.882812 159.453125 133.3125 160.398438 C 134.378906 162.75 133.042969 166.878906 130.5 168.261719 C 127.042969 170.140625 121.972656 166.632812 121.226562 167.921875 " fill-opacity="1" fill-rule="nonzero"/><path fill="#e5e7fd" d="M 122.703125 169.585938 L 121.902344 176.179688 C 121.75 177.433594 120.84375 178.46875 119.617188 178.789062 L 116.226562 179.671875 L 126.683594 187.636719 L 138.429688 178.722656 L 134.21875 177.78125 C 133.007812 177.511719 132.074219 176.539062 131.855469 175.320312 L 130.105469 165.605469 L 122.703125 169.585938 " fill-opacity="1" fill-rule="nonzero"/><path fill="#141619" d="M 117.664062 179.960938 L 126.683594 186.828125 L 136.945312 179.046875 L 134.078125 178.40625 C 132.613281 178.078125 131.492188 176.914062 131.226562 175.433594 L 129.632812 166.585938 L 123.300781 169.992188 L 122.539062 176.257812 C 122.351562 177.785156 121.269531 179.019531 119.78125 179.410156 Z M 126.683594 188.273438 C 126.546875 188.273438 126.410156 188.230469 126.292969 188.144531 L 115.839844 180.183594 C 115.644531 180.03125 115.550781 179.789062 115.601562 179.546875 C 115.648438 179.308594 115.828125 179.117188 116.066406 179.054688 L 119.457031 178.171875 C 120.433594 177.917969 121.144531 177.105469 121.265625 176.101562 L 122.070312 169.507812 C 122.09375 169.300781 122.21875 169.121094 122.402344 169.019531 L 129.800781 165.042969 C 129.980469 164.941406 130.199219 164.9375 130.382812 165.027344 C 130.566406 165.117188 130.699219 165.289062 130.734375 165.492188 L 132.488281 175.207031 C 132.660156 176.175781 133.394531 176.941406 134.355469 177.15625 L 138.570312 178.097656 C 138.8125 178.152344 139.003906 178.34375 139.054688 178.585938 C 139.109375 178.828125 139.015625 179.082031 138.816406 179.234375 L 127.070312 188.144531 C 126.953125 188.230469 126.820312 188.273438 126.683594 188.273438 " fill-opacity="1" fill-rule="nonzero"/><path fill="#e5e7fd" d="M 129.261719 166.945312 C 129.261719 166.945312 131.867188 165.964844 130.886719 163.8125 C 129.910156 161.660156 128.320312 163.25 128.320312 163.25 C 128.320312 163.25 126.839844 157.949219 123.734375 160.039062 C 120.625 162.128906 117.679688 162.890625 117.679688 162.890625 C 117.679688 162.890625 118.777344 168.222656 120.742188 171.773438 C 121.925781 173.910156 123.429688 175.402344 125.199219 174.683594 C 130.046875 172.714844 129.261719 166.945312 129.261719 166.945312 " fill-opacity="1" fill-rule="nonzero"/><path fill="#141619" d="M 118.4375 163.335938 C 118.773438 164.789062 119.777344 168.710938 121.300781 171.460938 C 122.535156 173.691406 123.765625 174.574219 124.957031 174.089844 C 129.277344 172.335938 128.65625 167.246094 128.628906 167.03125 C 128.589844 166.734375 128.757812 166.453125 129.035156 166.347656 C 129.324219 166.234375 130.125 165.8125 130.382812 165.179688 C 130.515625 164.847656 130.492188 164.488281 130.304688 164.078125 C 130.164062 163.769531 129.933594 163.390625 129.636719 163.335938 C 129.308594 163.273438 128.886719 163.589844 128.769531 163.703125 C 128.605469 163.863281 128.371094 163.921875 128.15625 163.867188 C 127.9375 163.808594 127.765625 163.640625 127.703125 163.421875 C 127.496094 162.6875 126.710938 160.691406 125.566406 160.269531 C 125.117188 160.105469 124.636719 160.203125 124.089844 160.570312 C 121.726562 162.160156 119.476562 162.996094 118.4375 163.335938 Z M 124.308594 175.507812 C 123.121094 175.507812 121.65625 174.746094 120.179688 172.082031 C 118.191406 168.488281 117.097656 163.242188 117.054688 163.019531 C 116.984375 162.683594 117.191406 162.355469 117.519531 162.269531 C 117.550781 162.265625 120.402344 161.507812 123.375 159.507812 C 124.496094 158.753906 125.425781 158.855469 126.007812 159.066406 C 127.40625 159.585938 128.25 161.230469 128.65625 162.253906 C 128.992188 162.097656 129.410156 161.988281 129.863281 162.074219 C 130.542969 162.195312 131.082031 162.691406 131.472656 163.546875 C 131.804688 164.28125 131.835938 165.015625 131.5625 165.671875 C 131.207031 166.535156 130.433594 167.070312 129.933594 167.335938 C 130 168.84375 129.832031 173.492188 125.441406 175.277344 C 125.105469 175.414062 124.722656 175.507812 124.308594 175.507812 " fill-opacity="1" fill-rule="nonzero"/><path fill="#e5e7fd" d="M 78.085938 75.917969 C 77.585938 85.855469 69.125 93.507812 59.183594 93.007812 C 49.246094 92.507812 41.59375 84.046875 42.09375 74.109375 C 42.59375 64.171875 51.054688 56.519531 60.992188 57.019531 C 70.933594 57.519531 78.582031 65.980469 78.085938 75.917969 " fill-opacity="1" fill-rule="nonzero"/><path fill="#141619" d="M 60.074219 56.992188 C 50.539062 56.992188 42.578125 64.476562 42.09375 74.109375 C 41.59375 84.046875 49.246094 92.507812 59.183594 93.007812 C 59.496094 93.023438 59.800781 93.03125 60.105469 93.03125 C 69.640625 93.03125 77.601562 85.546875 78.085938 75.917969 C 78.582031 65.976562 70.933594 57.515625 60.992188 57.015625 C 60.6875 57 60.378906 56.992188 60.074219 56.992188 Z M 60.074219 56.992188 L 60.074219 58.273438 C 60.359375 58.273438 60.644531 58.28125 60.929688 58.296875 C 70.148438 58.757812 77.269531 66.632812 76.804688 75.851562 C 76.359375 84.765625 69.023438 91.75 60.105469 91.75 C 59.820312 91.75 59.535156 91.742188 59.25 91.730469 C 50.03125 91.265625 42.910156 83.390625 43.375 74.171875 C 43.820312 65.257812 51.15625 58.273438 60.074219 58.273438 L 60.074219 56.992188 " fill-opacity="1" fill-rule="nonzero"/><path fill="#0a21c0" d="M 58.089844 87.382812 C 57.300781 87.34375 56.585938 86.886719 56.21875 86.183594 L 49.351562 73.082031 C 48.777344 71.984375 49.199219 70.628906 50.296875 70.054688 C 51.394531 69.480469 52.75 69.902344 53.324219 71 L 58.359375 80.609375 L 67.523438 65.710938 C 68.171875 64.65625 69.554688 64.328125 70.609375 64.976562 C 71.660156 65.625 71.992188 67.003906 71.34375 68.0625 L 60.113281 86.316406 C 59.691406 87.003906 58.933594 87.410156 58.125 87.382812 C 58.113281 87.382812 58.101562 87.382812 58.089844 87.382812 " fill-opacity="1" fill-rule="nonzero"/><path fill="#e5e7fd" d="M 330.539062 242.496094 C 329.980469 252.429688 321.46875 260.03125 311.53125 259.46875 C 301.597656 258.90625 294 250.394531 294.5625 240.460938 C 295.125 230.527344 303.632812 222.929688 313.566406 223.488281 C 323.503906 224.050781 331.101562 232.558594 330.539062 242.496094 " fill-opacity="1" fill-rule="nonzero"/><path fill="#141619" d="M 312.535156 223.460938 C 303.050781 223.460938 295.105469 230.871094 294.5625 240.460938 C 294 250.394531 301.597656 258.90625 311.53125 259.46875 C 311.878906 259.488281 312.222656 259.496094 312.570312 259.496094 C 322.050781 259.496094 329.996094 252.082031 330.539062 242.496094 C 331.101562 232.558594 323.503906 224.050781 313.566406 223.488281 C 313.222656 223.46875 312.875 223.460938 312.535156 223.460938 Z M 312.535156 223.460938 L 312.535156 224.738281 C 312.855469 224.738281 313.175781 224.75 313.496094 224.765625 C 322.710938 225.289062 329.78125 233.210938 329.261719 242.421875 C 328.761719 251.277344 321.425781 258.214844 312.570312 258.214844 C 312.25 258.214844 311.921875 258.207031 311.605469 258.1875 C 307.140625 257.9375 303.042969 255.960938 300.066406 252.625 C 297.089844 249.289062 295.585938 244.996094 295.839844 240.53125 C 296.34375 231.675781 303.675781 224.738281 312.535156 224.738281 L 312.535156 223.460938 " fill-opacity="1" fill-rule="nonzero"/><path fill="#0a21c0" d="M 310.476562 253.832031 C 309.6875 253.789062 308.972656 253.328125 308.613281 252.625 L 301.828125 239.476562 C 301.261719 238.378906 301.691406 237.023438 302.792969 236.457031 C 303.890625 235.890625 305.246094 236.324219 305.8125 237.421875 L 310.789062 247.0625 L 320.046875 232.222656 C 320.699219 231.171875 322.085938 230.851562 323.136719 231.507812 C 324.183594 232.164062 324.503906 233.546875 323.851562 234.59375 L 312.503906 252.78125 C 312.078125 253.464844 311.316406 253.867188 310.511719 253.835938 C 310.5 253.835938 310.488281 253.835938 310.476562 253.832031 " fill-opacity="1" fill-rule="nonzero"/><path fill="#e5e7fd" d="M 218.910156 208.449219 C 218.5 218.394531 210.109375 226.121094 200.167969 225.710938 C 190.226562 225.300781 182.496094 216.910156 182.90625 206.96875 C 183.316406 197.023438 191.707031 189.296875 201.652344 189.707031 C 211.59375 190.117188 219.320312 198.507812 218.910156 208.449219 " fill-opacity="1" fill-rule="nonzero"/><path fill="#141619" d="M 200.894531 189.691406 C 191.285156 189.691406 183.304688 197.277344 182.90625 206.96875 C 182.496094 216.910156 190.226562 225.300781 200.167969 225.710938 C 200.421875 225.722656 200.671875 225.726562 200.921875 225.726562 C 210.53125 225.726562 218.511719 218.140625 218.910156 208.449219 C 219.320312 198.507812 211.59375 190.117188 201.652344 189.707031 C 201.398438 189.695312 201.148438 189.691406 200.894531 189.691406 Z M 200.898438 189.691406 L 200.898438 190.972656 C 201.128906 190.972656 201.367188 190.976562 201.597656 190.984375 C 206.066406 191.171875 210.191406 193.082031 213.222656 196.371094 C 216.25 199.660156 217.816406 203.929688 217.632812 208.398438 C 217.261719 217.394531 209.921875 224.445312 200.921875 224.445312 C 200.6875 224.445312 200.453125 224.441406 200.21875 224.433594 C 191 224.050781 183.804688 216.242188 184.1875 207.019531 C 184.554688 198.019531 191.898438 190.972656 200.894531 190.972656 L 200.898438 189.691406 " fill-opacity="1" fill-rule="nonzero"/><path fill="#0a21c0" d="M 199.019531 220.09375 C 198.230469 220.0625 197.511719 219.613281 197.136719 218.914062 L 190.15625 205.875 C 189.570312 204.78125 189.980469 203.425781 191.070312 202.839844 C 192.164062 202.253906 193.523438 202.664062 194.105469 203.757812 L 199.230469 213.324219 L 208.261719 198.34375 C 208.898438 197.28125 210.277344 196.9375 211.335938 197.578125 C 212.394531 198.21875 212.738281 199.59375 212.097656 200.65625 L 201.035156 219.011719 C 200.617188 219.703125 199.863281 220.117188 199.058594 220.097656 C 199.046875 220.097656 199.035156 220.097656 199.019531 220.09375 " fill-opacity="1" fill-rule="nonzero"/><path fill="#0a21c0" d="M 197.632812 160.007812 C 192.75 165.898438 183.835938 166.683594 177.726562 161.761719 C 171.617188 156.84375 170.621094 148.078125 175.507812 142.191406 C 180.390625 136.300781 189.304688 135.515625 195.414062 140.433594 C 201.523438 145.355469 202.519531 154.117188 197.632812 160.007812 Z M 206.765625 162.246094 C 207.386719 161.144531 207.902344 160.003906 208.308594 158.835938 L 214.296875 158.546875 L 215.121094 153.226562 L 209.527344 150.960938 C 209.488281 149.707031 209.347656 148.457031 209.101562 147.222656 L 214.078125 144.023438 L 212.074219 138.957031 L 206.140625 139.714844 C 205.476562 138.640625 204.714844 137.617188 203.863281 136.644531 L 206.488281 131.398438 L 202.195312 127.9375 L 197.5 131.519531 C 196.363281 130.890625 195.191406 130.359375 193.992188 129.929688 L 193.566406 124.050781 L 188.125 123.125 L 185.9375 128.570312 C 184.660156 128.578125 183.386719 128.691406 182.132812 128.90625 L 178.765625 123.949219 L 173.640625 125.808594 L 174.542969 131.648438 C 173.464844 132.273438 172.433594 133 171.460938 133.816406 L 166.054688 131.125 L 162.621094 135.265625 L 166.375 139.949219 C 165.757812 141.054688 165.242188 142.195312 164.832031 143.359375 L 158.84375 143.652344 L 158.019531 148.96875 L 163.617188 151.234375 C 163.652344 152.488281 163.792969 153.742188 164.042969 154.976562 L 159.0625 158.175781 L 161.066406 163.242188 L 167 162.480469 C 167.664062 163.554688 168.425781 164.578125 169.277344 165.554688 L 166.652344 170.800781 L 170.949219 174.257812 L 175.640625 170.675781 C 176.777344 171.308594 177.949219 171.839844 179.148438 172.265625 L 179.578125 178.144531 L 185.015625 179.070312 L 187.203125 173.625 C 188.480469 173.621094 189.753906 173.507812 191.007812 173.289062 L 194.375 178.246094 L 199.5 176.386719 L 198.597656 170.550781 C 199.675781 169.921875 200.707031 169.195312 201.679688 168.378906 L 207.085938 171.070312 L 210.519531 166.929688 L 206.765625 162.246094 " fill-opacity="1" fill-rule="nonzero"/><path fill="#141619" d="M 186.277344 137.847656 C 182.40625 137.847656 178.601562 139.464844 176 142.597656 C 173.792969 145.265625 172.765625 148.640625 173.113281 152.101562 C 173.472656 155.695312 175.253906 158.949219 178.128906 161.265625 C 183.957031 165.960938 192.488281 165.210938 197.140625 159.597656 C 199.351562 156.933594 200.375 153.558594 200.027344 150.09375 C 199.667969 146.5 197.886719 143.246094 195.011719 140.933594 C 192.4375 138.859375 189.335938 137.847656 186.277344 137.847656 Z M 186.863281 165.625 C 183.519531 165.625 180.136719 164.523438 177.328125 162.261719 C 174.183594 159.730469 172.234375 156.167969 171.839844 152.230469 C 171.457031 148.421875 172.582031 144.710938 175.015625 141.78125 C 180.113281 135.632812 189.445312 134.804688 195.816406 139.933594 C 198.957031 142.464844 200.90625 146.027344 201.300781 149.96875 C 201.6875 153.773438 200.558594 157.484375 198.128906 160.414062 C 195.277344 163.851562 191.101562 165.625 186.863281 165.625 Z M 180.179688 177.597656 L 184.613281 178.355469 L 186.609375 173.386719 C 186.707031 173.148438 186.941406 172.988281 187.199219 172.988281 C 188.441406 172.976562 189.683594 172.867188 190.898438 172.660156 C 191.148438 172.617188 191.398438 172.722656 191.539062 172.933594 L 194.625 177.476562 L 198.789062 175.96875 L 197.964844 170.648438 C 197.925781 170.386719 198.046875 170.128906 198.277344 169.996094 C 199.316406 169.390625 200.320312 168.683594 201.269531 167.890625 C 201.464844 167.726562 201.738281 167.695312 201.964844 167.804688 L 206.914062 170.273438 L 209.695312 166.921875 L 206.269531 162.644531 C 206.105469 162.445312 206.082031 162.160156 206.207031 161.933594 C 206.808594 160.863281 207.3125 159.75 207.707031 158.625 C 207.792969 158.378906 208.019531 158.210938 208.28125 158.195312 L 213.746094 157.929688 L 214.414062 153.628906 L 209.285156 151.558594 C 209.046875 151.460938 208.890625 151.234375 208.882812 150.980469 C 208.851562 149.765625 208.710938 148.542969 208.472656 147.347656 C 208.421875 147.089844 208.53125 146.828125 208.753906 146.683594 L 213.292969 143.769531 L 211.664062 139.65625 L 206.222656 140.351562 C 205.972656 140.378906 205.730469 140.265625 205.597656 140.050781 C 204.957031 139.015625 204.210938 138.011719 203.382812 137.0625 C 203.210938 136.867188 203.175781 136.589844 203.292969 136.355469 L 205.6875 131.574219 L 202.183594 128.75 L 197.890625 132.027344 C 197.6875 132.183594 197.414062 132.203125 197.191406 132.078125 C 196.082031 131.46875 194.9375 130.949219 193.777344 130.535156 C 193.539062 130.449219 193.371094 130.230469 193.351562 129.976562 L 192.964844 124.597656 L 188.527344 123.84375 L 186.53125 128.808594 C 186.433594 129.050781 186.203125 129.210938 185.941406 129.210938 C 184.703125 129.21875 183.457031 129.328125 182.242188 129.539062 C 181.996094 129.578125 181.746094 129.472656 181.601562 129.265625 L 178.515625 124.722656 L 174.355469 126.230469 L 175.175781 131.550781 C 175.21875 131.808594 175.09375 132.066406 174.867188 132.203125 C 173.824219 132.804688 172.820312 133.515625 171.875 134.308594 C 171.675781 134.472656 171.402344 134.503906 171.175781 134.390625 L 166.226562 131.925781 L 163.449219 135.273438 L 166.871094 139.550781 C 167.039062 139.753906 167.0625 140.035156 166.933594 140.261719 C 166.332031 141.335938 165.828125 142.449219 165.4375 143.574219 C 165.347656 143.816406 165.121094 143.984375 164.863281 144 L 159.398438 144.265625 L 158.730469 148.566406 L 163.855469 150.640625 C 164.09375 150.734375 164.25 150.960938 164.257812 151.214844 C 164.292969 152.429688 164.429688 153.652344 164.667969 154.847656 C 164.722656 155.109375 164.609375 155.371094 164.386719 155.515625 L 159.851562 158.425781 L 161.480469 162.542969 L 166.917969 161.847656 C 167.167969 161.816406 167.414062 161.929688 167.546875 162.144531 C 168.183594 163.179688 168.929688 164.1875 169.757812 165.132812 C 169.929688 165.328125 169.964844 165.609375 169.851562 165.839844 L 167.453125 170.625 L 170.960938 173.445312 L 175.25 170.167969 C 175.453125 170.015625 175.730469 169.992188 175.953125 170.117188 C 177.058594 170.730469 178.207031 171.25 179.363281 171.664062 C 179.605469 171.746094 179.769531 171.964844 179.789062 172.21875 Z M 185.015625 179.710938 C 184.980469 179.710938 184.945312 179.707031 184.910156 179.703125 L 179.46875 178.777344 C 179.179688 178.730469 178.960938 178.484375 178.9375 178.191406 L 178.542969 172.726562 C 177.578125 172.363281 176.628906 171.929688 175.699219 171.4375 L 171.335938 174.769531 C 171.101562 174.949219 170.777344 174.945312 170.546875 174.757812 L 166.25 171.296875 C 166.011719 171.109375 165.945312 170.78125 166.078125 170.511719 L 168.515625 165.648438 C 167.84375 164.851562 167.226562 164.023438 166.675781 163.167969 L 161.148438 163.875 C 160.859375 163.914062 160.578125 163.75 160.472656 163.476562 L 158.46875 158.410156 C 158.355469 158.125 158.460938 157.796875 158.714844 157.636719 L 163.332031 154.667969 C 163.152344 153.679688 163.039062 152.675781 162.992188 151.671875 L 157.777344 149.5625 C 157.503906 149.453125 157.339844 149.164062 157.386719 148.871094 L 158.210938 143.554688 C 158.257812 143.253906 158.511719 143.027344 158.8125 143.011719 L 164.375 142.742188 C 164.71875 141.820312 165.132812 140.90625 165.609375 140.019531 L 162.121094 135.667969 C 161.929688 135.433594 161.933594 135.09375 162.128906 134.859375 L 165.5625 130.71875 C 165.753906 130.488281 166.074219 130.421875 166.339844 130.550781 L 171.375 133.058594 C 172.167969 132.421875 172.992188 131.835938 173.847656 131.316406 L 173.007812 125.90625 C 172.960938 125.605469 173.136719 125.308594 173.421875 125.207031 L 178.546875 123.347656 C 178.820312 123.25 179.128906 123.347656 179.296875 123.589844 L 182.433594 128.207031 C 183.445312 128.050781 184.476562 127.960938 185.503906 127.9375 L 187.53125 122.886719 C 187.644531 122.605469 187.9375 122.441406 188.234375 122.492188 L 193.671875 123.417969 C 193.960938 123.46875 194.183594 123.710938 194.203125 124.003906 L 194.601562 129.472656 C 195.5625 129.835938 196.515625 130.265625 197.441406 130.757812 L 201.804688 127.429688 C 202.039062 127.25 202.367188 127.253906 202.59375 127.4375 L 206.890625 130.898438 C 207.128906 131.089844 207.199219 131.414062 207.066406 131.6875 L 204.625 136.546875 C 205.300781 137.34375 205.917969 138.175781 206.464844 139.027344 L 211.996094 138.320312 C 212.28125 138.285156 212.5625 138.449219 212.671875 138.71875 L 214.675781 143.789062 C 214.789062 144.074219 214.683594 144.398438 214.425781 144.5625 L 209.808594 147.527344 C 209.988281 148.515625 210.101562 149.523438 210.148438 150.527344 L 215.363281 152.632812 C 215.636719 152.746094 215.800781 153.03125 215.753906 153.328125 L 214.929688 158.644531 C 214.882812 158.941406 214.632812 159.171875 214.328125 159.183594 L 208.765625 159.453125 C 208.421875 160.378906 208.007812 161.292969 207.535156 162.179688 L 211.019531 166.527344 C 211.210938 166.765625 211.207031 167.101562 211.011719 167.335938 L 207.578125 171.480469 C 207.386719 171.707031 207.066406 171.777344 206.800781 171.644531 L 201.765625 169.140625 C 200.976562 169.777344 200.148438 170.359375 199.296875 170.878906 L 200.132812 176.292969 C 200.179688 176.59375 200.003906 176.886719 199.71875 176.988281 L 194.59375 178.847656 C 194.320312 178.949219 194.011719 178.847656 193.847656 178.605469 L 190.710938 173.988281 C 189.695312 174.144531 188.667969 174.234375 187.640625 174.261719 L 185.609375 179.3125 C 185.511719 179.554688 185.273438 179.710938 185.015625 179.710938 " fill-opacity="1" fill-rule="nonzero"/><path fill="#0a21c0" d="M 283.902344 149.753906 C 280.257812 160.644531 268.207031 166.574219 256.992188 162.996094 C 245.773438 159.421875 239.632812 147.691406 243.28125 136.800781 C 246.925781 125.910156 258.976562 119.984375 270.195312 123.558594 C 281.414062 127.136719 287.550781 138.863281 283.902344 149.753906 Z M 297.898438 147.941406 C 298.167969 146.0625 298.273438 144.1875 298.214844 142.332031 L 306.4375 138.683594 L 304.714844 130.792969 L 295.648438 130.652344 C 294.921875 128.917969 294.042969 127.242188 293.03125 125.648438 L 298.265625 118.472656 L 292.714844 112.464844 L 284.820312 116.742188 C 283.3125 115.601562 281.6875 114.578125 279.96875 113.675781 L 280.804688 104.910156 L 272.914062 102.394531 L 268.285156 109.953125 C 266.351562 109.6875 264.421875 109.578125 262.511719 109.628906 L 258.730469 101.628906 L 250.613281 103.28125 L 250.503906 112.085938 C 248.714844 112.789062 246.996094 113.636719 245.359375 114.617188 L 237.960938 109.507812 L 231.792969 114.882812 L 236.222656 122.566406 C 235.050781 124.03125 234.003906 125.605469 233.082031 127.273438 L 224.058594 126.433594 L 221.492188 134.09375 L 229.285156 138.617188 C 229.019531 140.496094 228.910156 142.367188 228.96875 144.222656 L 220.75 147.875 L 222.472656 155.769531 L 231.535156 155.902344 C 232.265625 157.640625 233.144531 159.3125 234.15625 160.910156 L 228.921875 168.082031 L 234.472656 174.09375 L 242.367188 169.816406 C 243.875 170.957031 245.496094 171.980469 247.21875 172.878906 L 246.382812 181.644531 L 254.273438 184.164062 L 258.898438 176.605469 C 260.832031 176.871094 262.761719 176.980469 264.671875 176.925781 L 268.453125 184.929688 L 276.570312 183.277344 L 276.683594 174.46875 C 278.46875 173.765625 280.1875 172.917969 281.828125 171.9375 L 289.226562 177.046875 L 295.394531 171.675781 L 290.964844 163.992188 C 292.136719 162.527344 293.183594 160.953125 294.105469 159.28125 L 303.128906 160.125 L 305.691406 152.460938 L 297.898438 147.941406 " fill-opacity="1" fill-rule="nonzero"/><path fill="#141619" d="M 280.269531 151.542969 L 280.273438 151.542969 Z M 259.90625 124.949219 C 251.191406 124.949219 243.085938 130.332031 240.253906 138.792969 C 238.578125 143.804688 238.972656 149.171875 241.378906 153.90625 C 243.871094 158.820312 248.191406 162.46875 253.550781 164.175781 C 264.417969 167.640625 276.132812 161.882812 279.660156 151.339844 C 281.339844 146.328125 280.9375 140.960938 278.539062 136.226562 C 276.042969 131.3125 271.71875 127.664062 266.363281 125.957031 C 264.21875 125.273438 262.046875 124.949219 259.90625 124.949219 Z M 260.007812 166.464844 C 257.738281 166.464844 255.433594 166.121094 253.160156 165.394531 C 247.476562 163.582031 242.886719 159.710938 240.234375 154.484375 C 237.675781 149.441406 237.25 143.726562 239.039062 138.386719 C 242.789062 127.183594 255.222656 121.0625 266.75 124.738281 C 272.441406 126.550781 277.027344 130.425781 279.679688 135.644531 C 282.238281 140.6875 282.664062 146.40625 280.878906 151.746094 C 277.867188 160.742188 269.25 166.464844 260.007812 166.464844 Z M 261.035156 178.074219 C 261.285156 178.074219 261.511719 178.21875 261.613281 178.441406 L 265.183594 185.988281 L 272.300781 184.539062 L 272.40625 176.25 C 272.410156 175.992188 272.574219 175.757812 272.8125 175.664062 C 274.5625 174.972656 276.261719 174.136719 277.863281 173.175781 C 278.078125 173.050781 278.351562 173.054688 278.558594 173.199219 L 285.542969 178.027344 L 290.9375 173.324219 L 286.777344 166.097656 C 286.644531 165.871094 286.664062 165.585938 286.828125 165.378906 C 287.96875 163.953125 289.003906 162.402344 289.910156 160.761719 C 290.03125 160.539062 290.273438 160.410156 290.527344 160.433594 L 299.046875 161.226562 L 301.285156 154.542969 L 293.945312 150.28125 C 293.71875 150.152344 293.597656 149.898438 293.632812 149.640625 C 293.894531 147.796875 294 145.949219 293.941406 144.144531 C 293.933594 143.882812 294.082031 143.640625 294.320312 143.539062 L 302.066406 140.09375 L 300.558594 133.210938 L 292.003906 133.082031 C 291.75 133.078125 291.519531 132.925781 291.421875 132.6875 C 290.710938 130.988281 289.84375 129.335938 288.851562 127.777344 C 288.710938 127.554688 288.722656 127.269531 288.878906 127.054688 L 293.800781 120.308594 L 288.945312 115.050781 L 281.492188 119.09375 C 281.269531 119.214844 281 119.191406 280.800781 119.039062 C 279.328125 117.929688 277.726562 116.914062 276.035156 116.03125 C 275.804688 115.914062 275.671875 115.664062 275.695312 115.40625 L 276.480469 107.152344 L 269.5625 104.945312 L 265.195312 112.074219 C 265.0625 112.292969 264.8125 112.40625 264.5625 112.375 C 262.667969 112.113281 260.757812 112.007812 258.894531 112.058594 C 258.644531 112.082031 258.410156 111.921875 258.300781 111.691406 L 254.730469 104.144531 L 247.613281 105.59375 L 247.507812 113.882812 C 247.503906 114.144531 247.34375 114.375 247.101562 114.472656 C 245.355469 115.160156 243.652344 115.996094 242.050781 116.957031 C 241.835938 117.085938 241.566406 117.074219 241.359375 116.933594 L 234.371094 112.105469 L 228.976562 116.808594 L 233.140625 124.035156 C 233.273438 124.265625 233.25 124.550781 233.085938 124.757812 C 231.945312 126.179688 230.910156 127.734375 230.003906 129.371094 C 229.882812 129.59375 229.640625 129.722656 229.386719 129.699219 L 220.867188 128.90625 L 218.632812 135.59375 L 225.96875 139.847656 C 226.195312 139.980469 226.316406 140.234375 226.28125 140.492188 C 226.023438 142.335938 225.917969 144.1875 225.972656 145.988281 C 225.984375 146.25 225.832031 146.492188 225.59375 146.597656 L 217.851562 150.039062 L 219.355469 156.921875 L 227.910156 157.054688 C 228.164062 157.054688 228.394531 157.210938 228.492188 157.445312 C 229.203125 159.140625 230.070312 160.792969 231.0625 162.355469 C 231.203125 162.578125 231.195312 162.863281 231.039062 163.074219 L 226.113281 169.824219 L 230.96875 175.082031 L 238.425781 171.039062 C 238.644531 170.917969 238.914062 170.941406 239.117188 171.089844 C 240.589844 172.203125 242.191406 173.21875 243.878906 174.101562 C 244.109375 174.222656 244.242188 174.46875 244.21875 174.730469 L 243.433594 182.980469 L 250.351562 185.1875 L 254.71875 178.058594 C 254.851562 177.84375 255.101562 177.726562 255.355469 177.757812 C 257.25 178.019531 259.160156 178.125 261.019531 178.074219 C 261.027344 178.074219 261.03125 178.074219 261.035156 178.074219 Z M 264.820312 187.359375 C 264.574219 187.359375 264.351562 187.21875 264.242188 186.988281 L 260.636719 179.363281 C 258.976562 179.386719 257.28125 179.292969 255.59375 179.082031 L 251.183594 186.285156 C 251.03125 186.535156 250.722656 186.652344 250.441406 186.5625 L 242.550781 184.046875 C 242.265625 183.953125 242.082031 183.675781 242.109375 183.375 L 242.902344 175.035156 C 241.417969 174.234375 240 173.335938 238.671875 172.363281 L 231.140625 176.445312 C 230.882812 176.582031 230.566406 176.53125 230.363281 176.316406 L 224.816406 170.308594 C 224.609375 170.082031 224.589844 169.742188 224.765625 169.496094 L 229.75 162.671875 C 228.886719 161.277344 228.125 159.820312 227.476562 158.328125 L 218.828125 158.195312 C 218.53125 158.191406 218.277344 157.980469 218.210938 157.691406 L 216.488281 149.800781 C 216.421875 149.503906 216.574219 149.199219 216.851562 149.078125 L 224.683594 145.601562 C 224.65625 144 224.746094 142.371094 224.957031 140.742188 L 217.535156 136.4375 C 217.273438 136.285156 217.152344 135.96875 217.25 135.679688 L 219.8125 128.019531 C 219.910156 127.738281 220.183594 127.554688 220.480469 127.585938 L 229.089844 128.386719 C 229.90625 126.949219 230.820312 125.578125 231.8125 124.300781 L 227.605469 116.992188 C 227.453125 116.726562 227.503906 116.390625 227.738281 116.1875 L 233.902344 110.816406 C 234.125 110.621094 234.449219 110.601562 234.6875 110.769531 L 241.75 115.648438 C 243.183594 114.8125 244.6875 114.070312 246.230469 113.441406 L 246.339844 105.058594 C 246.34375 104.757812 246.554688 104.503906 246.851562 104.441406 L 254.964844 102.789062 C 255.253906 102.730469 255.546875 102.878906 255.671875 103.144531 L 259.277344 110.769531 C 260.941406 110.746094 262.632812 110.839844 264.320312 111.050781 L 268.730469 103.851562 C 268.886719 103.597656 269.191406 103.484375 269.472656 103.574219 L 277.363281 106.089844 C 277.648438 106.179688 277.835938 106.460938 277.804688 106.761719 L 277.007812 115.101562 C 278.496094 115.902344 279.917969 116.796875 281.238281 117.773438 L 288.773438 113.691406 C 289.03125 113.550781 289.347656 113.605469 289.550781 113.820312 L 295.101562 119.828125 C 295.308594 120.050781 295.328125 120.390625 295.144531 120.636719 L 290.164062 127.460938 C 291.023438 128.855469 291.789062 130.3125 292.4375 131.804688 L 301.085938 131.9375 C 301.382812 131.941406 301.636719 132.152344 301.703125 132.441406 L 303.425781 140.335938 C 303.492188 140.628906 303.339844 140.929688 303.0625 141.054688 L 295.230469 144.535156 C 295.261719 146.132812 295.167969 147.765625 294.957031 149.390625 L 302.378906 153.695312 C 302.640625 153.847656 302.757812 154.164062 302.664062 154.453125 L 300.097656 162.113281 C 300.003906 162.398438 299.726562 162.574219 299.433594 162.550781 L 290.824219 161.746094 C 290.007812 163.183594 289.09375 164.554688 288.101562 165.835938 L 292.3125 173.140625 C 292.464844 173.410156 292.40625 173.742188 292.175781 173.945312 L 286.011719 179.320312 C 285.789062 179.515625 285.46875 179.535156 285.226562 179.363281 L 278.164062 174.484375 C 276.730469 175.324219 275.226562 176.0625 273.679688 176.691406 L 273.578125 185.074219 C 273.574219 185.375 273.359375 185.632812 273.0625 185.691406 L 264.949219 187.34375 C 264.90625 187.351562 264.863281 187.359375 264.820312 187.359375 " fill-opacity="1" fill-rule="nonzero"/><path fill="#e5e7fd" d="M 218.3125 104.46875 C 212.011719 106.191406 205.507812 102.484375 203.78125 96.183594 C 202.054688 89.882812 205.761719 83.375 212.066406 81.648438 C 218.367188 79.925781 224.871094 83.632812 226.597656 89.933594 C 228.324219 96.234375 224.613281 102.742188 218.3125 104.46875 Z M 238.722656 88.996094 L 237.507812 84.566406 L 232.496094 84.792969 C 232.03125 83.816406 231.492188 82.890625 230.882812 82.027344 L 233.539062 77.773438 L 230.273438 74.542969 L 226.042969 77.25 C 225.160156 76.644531 224.234375 76.113281 223.265625 75.664062 L 223.441406 70.648438 L 218.992188 69.484375 L 216.6875 73.933594 C 215.632812 73.851562 214.5625 73.855469 213.484375 73.957031 L 211.128906 69.527344 L 206.695312 70.742188 L 206.921875 75.753906 C 205.945312 76.21875 205.023438 76.753906 204.15625 77.363281 L 199.90625 74.710938 L 196.671875 77.976562 L 199.378906 82.207031 C 198.773438 83.085938 198.246094 84.015625 197.796875 84.984375 L 192.777344 84.8125 L 191.613281 89.253906 L 196.0625 91.558594 C 195.980469 92.617188 195.988281 93.683594 196.085938 94.761719 L 191.65625 97.121094 L 192.871094 101.550781 L 197.882812 101.324219 C 198.347656 102.300781 198.886719 103.226562 199.496094 104.089844 L 196.839844 108.34375 L 200.105469 111.574219 L 204.335938 108.867188 C 205.214844 109.472656 206.144531 110.003906 207.113281 110.453125 L 206.9375 115.46875 L 211.386719 116.636719 L 213.691406 112.1875 C 214.746094 112.265625 215.820312 112.261719 216.894531 112.160156 L 219.25 116.59375 L 223.683594 115.378906 L 223.457031 110.363281 C 224.433594 109.902344 225.355469 109.363281 226.222656 108.753906 L 230.472656 111.40625 L 233.703125 108.140625 L 231 103.914062 C 231.605469 103.03125 232.132812 102.105469 232.582031 101.136719 L 237.601562 101.308594 L 238.765625 96.863281 L 234.3125 94.558594 C 234.398438 93.5 234.390625 92.433594 234.292969 91.355469 L 238.722656 88.996094 " fill-opacity="1" fill-rule="nonzero"/><path fill="#141619" d="M 213.246094 80.746094 C 212.25 80.746094 211.253906 80.878906 210.273438 81.148438 C 207.390625 81.9375 204.984375 83.800781 203.503906 86.394531 C 202.027344 88.996094 201.644531 92.011719 202.433594 94.894531 C 203.222656 97.777344 205.089844 100.179688 207.683594 101.65625 C 210.28125 103.140625 213.300781 103.519531 216.179688 102.730469 C 219.0625 101.941406 221.464844 100.078125 222.945312 97.480469 C 224.425781 94.882812 224.804688 91.867188 224.019531 88.984375 C 223.230469 86.101562 221.363281 83.699219 218.769531 82.21875 C 217.054688 81.246094 215.160156 80.746094 213.246094 80.746094 Z M 213.230469 104.410156 C 207.75 104.410156 202.714844 100.765625 201.199219 95.234375 C 200.320312 92.019531 200.746094 88.65625 202.394531 85.765625 C 204.042969 82.871094 206.71875 80.792969 209.933594 79.914062 C 213.144531 79.03125 216.507812 79.457031 219.402344 81.105469 C 222.296875 82.753906 224.371094 85.433594 225.253906 88.644531 C 226.132812 91.855469 225.707031 95.222656 224.058594 98.113281 C 222.410156 101.007812 219.730469 103.085938 216.519531 103.964844 C 215.421875 104.265625 214.316406 104.410156 213.230469 104.410156 Z M 205.636719 113.859375 L 209.089844 114.765625 L 211.160156 110.769531 C 211.277344 110.542969 211.519531 110.40625 211.777344 110.425781 C 212.789062 110.503906 213.832031 110.496094 214.875 110.402344 C 215.128906 110.382812 215.375 110.511719 215.496094 110.738281 L 217.613281 114.71875 L 221.054688 113.777344 L 220.851562 109.273438 C 220.839844 109.015625 220.984375 108.777344 221.214844 108.667969 C 222.160156 108.21875 223.058594 107.695312 223.890625 107.109375 C 224.101562 106.960938 224.378906 106.957031 224.597656 107.09375 L 228.414062 109.472656 L 230.925781 106.9375 L 228.496094 103.136719 C 228.359375 102.921875 228.363281 102.640625 228.507812 102.429688 C 229.089844 101.582031 229.605469 100.675781 230.039062 99.742188 C 230.148438 99.511719 230.386719 99.359375 230.644531 99.375 L 235.148438 99.53125 L 236.050781 96.078125 L 232.058594 94.003906 C 231.828125 93.886719 231.691406 93.640625 231.714844 93.386719 C 231.792969 92.375 231.785156 91.332031 231.691406 90.292969 C 231.667969 90.035156 231.800781 89.792969 232.027344 89.671875 L 236.007812 87.550781 L 235.0625 84.109375 L 230.5625 84.3125 C 230.3125 84.324219 230.066406 84.179688 229.953125 83.949219 C 229.503906 83.003906 228.980469 82.105469 228.398438 81.273438 C 228.25 81.0625 228.242188 80.785156 228.378906 80.566406 L 230.761719 76.75 L 228.222656 74.238281 L 224.425781 76.667969 C 224.207031 76.804688 223.929688 76.800781 223.71875 76.65625 C 222.867188 76.074219 221.96875 75.558594 221.03125 75.125 C 220.800781 75.019531 220.652344 74.78125 220.664062 74.523438 L 220.820312 70.019531 L 217.363281 69.109375 L 215.292969 73.105469 C 215.175781 73.335938 214.929688 73.46875 214.671875 73.449219 C 213.664062 73.371094 212.621094 73.378906 211.578125 73.472656 C 211.320312 73.496094 211.078125 73.363281 210.957031 73.136719 L 208.839844 69.160156 L 205.394531 70.101562 L 205.601562 74.605469 C 205.609375 74.863281 205.46875 75.097656 205.234375 75.210938 C 204.292969 75.660156 203.394531 76.183594 202.5625 76.769531 C 202.347656 76.914062 202.074219 76.921875 201.855469 76.785156 L 198.035156 74.402344 L 195.527344 76.941406 L 197.953125 80.742188 C 198.09375 80.957031 198.089844 81.234375 197.945312 81.445312 C 197.359375 82.292969 196.847656 83.199219 196.410156 84.132812 C 196.304688 84.367188 196.0625 84.515625 195.808594 84.503906 L 191.304688 84.347656 L 190.398438 87.800781 L 194.394531 89.875 C 194.625 89.988281 194.757812 90.234375 194.738281 90.492188 C 194.660156 91.503906 194.667969 92.542969 194.761719 93.585938 C 194.785156 93.839844 194.652344 94.085938 194.421875 94.207031 L 190.445312 96.324219 L 191.390625 99.769531 L 195.890625 99.566406 C 196.144531 99.554688 196.386719 99.695312 196.5 99.929688 C 196.945312 100.875 197.46875 101.773438 198.054688 102.601562 C 198.203125 102.8125 198.210938 103.089844 198.074219 103.308594 L 195.691406 107.125 L 198.230469 109.640625 L 202.027344 107.210938 C 202.242188 107.070312 202.523438 107.074219 202.734375 107.222656 C 203.582031 107.800781 204.484375 108.316406 205.421875 108.753906 C 205.652344 108.863281 205.800781 109.101562 205.789062 109.355469 Z M 209.421875 116.15625 C 209.367188 116.15625 209.3125 116.148438 209.257812 116.132812 L 204.8125 114.96875 C 204.523438 114.894531 204.328125 114.625 204.335938 114.328125 L 204.496094 109.730469 C 203.761719 109.371094 203.046875 108.964844 202.367188 108.511719 L 198.488281 110.992188 C 198.234375 111.15625 197.90625 111.121094 197.691406 110.910156 L 194.425781 107.675781 C 194.214844 107.46875 194.175781 107.136719 194.332031 106.882812 L 196.765625 102.988281 C 196.316406 102.3125 195.902344 101.601562 195.527344 100.863281 L 190.933594 101.070312 C 190.636719 101.085938 190.367188 100.890625 190.289062 100.601562 L 189.074219 96.171875 C 188.996094 95.878906 189.128906 95.574219 189.390625 95.433594 L 193.453125 93.273438 C 193.394531 92.449219 193.386719 91.625 193.433594 90.816406 L 189.355469 88.703125 C 189.089844 88.566406 188.953125 88.261719 189.03125 87.972656 L 190.195312 83.527344 C 190.269531 83.238281 190.546875 83.035156 190.835938 83.050781 L 195.433594 83.207031 C 195.796875 82.476562 196.203125 81.761719 196.648438 81.078125 L 194.167969 77.203125 C 194.011719 76.949219 194.042969 76.617188 194.257812 76.40625 L 197.484375 73.140625 C 197.695312 72.925781 198.027344 72.886719 198.28125 73.046875 L 202.175781 75.476562 C 202.851562 75.027344 203.5625 74.613281 204.300781 74.242188 L 204.09375 69.648438 C 204.082031 69.347656 204.273438 69.078125 204.566406 69.003906 L 208.996094 67.789062 C 209.28125 67.710938 209.589844 67.839844 209.730469 68.105469 L 211.890625 72.164062 C 212.714844 72.105469 213.535156 72.101562 214.347656 72.144531 L 216.460938 68.066406 C 216.601562 67.800781 216.902344 67.667969 217.195312 67.742188 L 221.636719 68.90625 C 221.925781 68.984375 222.125 69.25 222.113281 69.546875 L 221.957031 74.148438 C 222.691406 74.507812 223.402344 74.914062 224.089844 75.363281 L 227.964844 72.882812 C 228.214844 72.722656 228.546875 72.757812 228.761719 72.96875 L 232.027344 76.199219 C 232.238281 76.410156 232.277344 76.738281 232.117188 76.992188 L 229.6875 80.890625 C 230.136719 81.5625 230.554688 82.273438 230.921875 83.015625 L 235.519531 82.804688 C 235.820312 82.789062 236.082031 82.988281 236.164062 83.277344 L 237.375 87.707031 C 237.457031 87.996094 237.324219 88.300781 237.0625 88.441406 L 233 90.601562 C 233.058594 91.425781 233.0625 92.25 233.019531 93.0625 L 237.097656 95.175781 C 237.363281 95.3125 237.496094 95.617188 237.421875 95.902344 L 236.257812 100.351562 C 236.179688 100.640625 235.914062 100.84375 235.617188 100.828125 L 231.019531 100.667969 C 230.65625 101.402344 230.25 102.117188 229.800781 102.800781 L 232.28125 106.675781 C 232.441406 106.929688 232.40625 107.257812 232.195312 107.472656 L 228.964844 110.738281 C 228.757812 110.949219 228.425781 110.992188 228.171875 110.832031 L 224.277344 108.398438 C 223.601562 108.851562 222.886719 109.265625 222.152344 109.636719 L 222.359375 114.230469 C 222.375 114.53125 222.175781 114.796875 221.890625 114.875 L 217.457031 116.089844 C 217.167969 116.167969 216.863281 116.039062 216.722656 115.773438 L 214.5625 111.714844 C 213.738281 111.769531 212.914062 111.773438 212.105469 111.730469 L 209.992188 115.808594 C 209.878906 116.027344 209.65625 116.15625 209.421875 116.15625 " fill-opacity="1" fill-rule="nonzero"/><path fill="#141619" d="M 204.835938 343.710938 C 204.152344 343.710938 203.480469 343.90625 202.886719 344.273438 C 202.046875 344.792969 201.460938 345.613281 201.234375 346.578125 C 201.011719 347.542969 201.171875 348.535156 201.699219 349.375 C 202.21875 350.214844 203.039062 350.804688 204.003906 351.027344 C 204.964844 351.253906 205.957031 351.089844 206.800781 350.566406 C 207.640625 350.042969 208.226562 349.226562 208.453125 348.261719 C 208.917969 346.273438 207.675781 344.277344 205.6875 343.8125 C 205.40625 343.746094 205.117188 343.710938 204.835938 343.710938 Z M 204.855469 352.40625 C 204.472656 352.40625 204.089844 352.363281 203.710938 352.273438 C 202.414062 351.972656 201.3125 351.183594 200.609375 350.050781 C 199.90625 348.921875 199.6875 347.582031 199.988281 346.285156 C 200.289062 344.992188 201.082031 343.886719 202.210938 343.1875 C 203.34375 342.484375 204.679688 342.261719 205.976562 342.566406 C 208.65625 343.191406 210.324219 345.878906 209.699219 348.550781 C 209.394531 349.851562 208.605469 350.953125 207.476562 351.65625 C 206.675781 352.152344 205.773438 352.40625 204.855469 352.40625 " fill-opacity="1" fill-rule="nonzero"/><path fill="#141619" d="M 216.621094 342.675781 C 215.648438 342.675781 214.765625 343.34375 214.535156 344.328125 C 214.265625 345.480469 214.984375 346.632812 216.132812 346.902344 C 217.28125 347.171875 218.4375 346.453125 218.707031 345.300781 C 218.972656 344.152344 218.257812 343 217.105469 342.730469 C 216.945312 342.691406 216.78125 342.675781 216.621094 342.675781 Z M 216.621094 348.238281 C 216.363281 348.238281 216.105469 348.207031 215.84375 348.148438 C 214.953125 347.941406 214.195312 347.398438 213.714844 346.621094 C 213.230469 345.847656 213.082031 344.929688 213.289062 344.039062 C 213.71875 342.203125 215.558594 341.054688 217.398438 341.484375 C 219.234375 341.910156 220.382812 343.757812 219.953125 345.59375 C 219.585938 347.171875 218.175781 348.238281 216.621094 348.238281 " fill-opacity="1" fill-rule="nonzero"/><path fill="#141619" d="M 184.949219 350.773438 C 184.898438 350.773438 184.851562 350.769531 184.804688 350.757812 L 181.585938 350.007812 C 181.242188 349.925781 181.027344 349.582031 181.109375 349.238281 C 181.191406 348.894531 181.535156 348.683594 181.878906 348.761719 L 185.09375 349.511719 C 185.4375 349.589844 185.652344 349.933594 185.570312 350.28125 C 185.503906 350.574219 185.238281 350.773438 184.949219 350.773438 " fill-opacity="1" fill-rule="nonzero"/><path fill="#141619" d="M 192.441406 352.523438 C 192.390625 352.523438 192.339844 352.515625 192.292969 352.503906 L 189.078125 351.753906 C 188.734375 351.675781 188.519531 351.328125 188.597656 350.988281 C 188.679688 350.640625 189.027344 350.429688 189.367188 350.507812 L 192.585938 351.257812 C 192.929688 351.339844 193.144531 351.683594 193.0625 352.027344 C 192.992188 352.324219 192.730469 352.523438 192.441406 352.523438 " fill-opacity="1" fill-rule="nonzero"/><path fill="#141619" d="M 185.835938 356.625 C 185.789062 356.625 185.738281 356.621094 185.691406 356.609375 C 185.347656 356.527344 185.132812 356.183594 185.214844 355.839844 L 185.960938 352.625 C 186.042969 352.28125 186.390625 352.066406 186.734375 352.148438 C 187.078125 352.226562 187.292969 352.574219 187.210938 352.917969 L 186.457031 356.132812 C 186.390625 356.425781 186.125 356.625 185.835938 356.625 " fill-opacity="1" fill-rule="nonzero"/><path fill="#141619" d="M 187.585938 349.136719 C 187.535156 349.136719 187.488281 349.128906 187.4375 349.117188 C 187.09375 349.039062 186.878906 348.691406 186.960938 348.347656 L 187.710938 345.136719 C 187.792969 344.789062 188.136719 344.578125 188.480469 344.65625 C 188.824219 344.738281 189.039062 345.082031 188.957031 345.425781 L 188.207031 348.640625 C 188.140625 348.9375 187.875 349.136719 187.585938 349.136719 " fill-opacity="1" fill-rule="nonzero"/><path fill="#141619" d="M 353.910156 174.402344 C 353.554688 174.402344 353.269531 174.113281 353.269531 173.761719 L 353.269531 170.449219 C 353.269531 170.097656 353.554688 169.808594 353.910156 169.808594 C 354.261719 169.808594 354.550781 170.097656 354.550781 170.449219 L 354.550781 173.761719 C 354.550781 174.113281 354.261719 174.402344 353.910156 174.402344 " fill-opacity="1" fill-rule="nonzero"/><path fill="#141619" d="M 353.910156 182.113281 C 353.554688 182.113281 353.269531 181.828125 353.269531 181.472656 L 353.269531 178.164062 C 353.269531 177.808594 353.554688 177.523438 353.910156 177.523438 C 354.261719 177.523438 354.550781 177.808594 354.550781 178.164062 L 354.550781 181.472656 C 354.550781 181.828125 354.261719 182.113281 353.910156 182.113281 " fill-opacity="1" fill-rule="nonzero"/><path fill="#141619" d="M 351.710938 176.601562 L 348.398438 176.601562 C 348.042969 176.601562 347.757812 176.316406 347.757812 175.964844 C 347.757812 175.609375 348.042969 175.324219 348.398438 175.324219 L 351.710938 175.324219 C 352.0625 175.324219 352.347656 175.609375 352.347656 175.964844 C 352.347656 176.316406 352.0625 176.601562 351.710938 176.601562 " fill-opacity="1" fill-rule="nonzero"/><path fill="#141619" d="M 359.421875 176.601562 L 356.109375 176.601562 C 355.757812 176.601562 355.472656 176.316406 355.472656 175.960938 C 355.472656 175.609375 355.757812 175.320312 356.109375 175.320312 L 359.421875 175.320312 C 359.777344 175.320312 360.0625 175.609375 360.0625 175.960938 C 360.0625 176.316406 359.777344 176.601562 359.421875 176.601562 " fill-opacity="1" fill-rule="nonzero"/><path fill="#141619" d="M 198.777344 19.902344 C 198.488281 19.902344 198.222656 19.703125 198.15625 19.414062 C 198.070312 19.070312 198.28125 18.722656 198.625 18.640625 C 214.546875 14.796875 231.113281 13.855469 247.867188 15.839844 C 248.21875 15.882812 248.46875 16.199219 248.425781 16.550781 C 248.386719 16.902344 248.0625 17.15625 247.714844 17.113281 C 231.113281 15.148438 214.699219 16.078125 198.925781 19.882812 C 198.878906 19.898438 198.824219 19.902344 198.777344 19.902344 " fill-opacity="1" fill-rule="nonzero"/><path fill="#141619" d="M 261.976562 19.496094 C 261.929688 19.496094 261.882812 19.492188 261.839844 19.484375 C 259.644531 19.007812 257.421875 18.574219 255.230469 18.203125 C 254.882812 18.140625 254.648438 17.808594 254.707031 17.460938 C 254.765625 17.113281 255.09375 16.878906 255.445312 16.941406 C 257.65625 17.316406 259.898438 17.75 262.109375 18.230469 C 262.453125 18.304688 262.675781 18.648438 262.601562 18.992188 C 262.53125 19.292969 262.269531 19.496094 261.976562 19.496094 " fill-opacity="1" fill-rule="nonzero"/><path fill="#141619" d="M 270.546875 31.226562 C 270.480469 31.226562 270.417969 31.214844 270.351562 31.195312 C 250.636719 24.914062 230.730469 23.207031 211.1875 26.125 C 210.835938 26.179688 210.507812 25.933594 210.457031 25.585938 C 210.40625 25.234375 210.648438 24.910156 210.996094 24.859375 C 230.734375 21.910156 250.835938 23.632812 270.738281 29.972656 C 271.078125 30.082031 271.265625 30.441406 271.15625 30.777344 C 271.070312 31.050781 270.816406 31.226562 270.546875 31.226562 " fill-opacity="1" fill-rule="nonzero"/><path fill="#141619" d="M 188.566406 18.980469 L 188.570312 18.980469 Z M 191.246094 17.8125 C 190.355469 17.8125 189.511719 18.34375 189.160156 19.21875 C 188.9375 19.777344 188.945312 20.386719 189.179688 20.9375 C 189.414062 21.488281 189.847656 21.914062 190.40625 22.136719 C 190.960938 22.363281 191.570312 22.355469 192.121094 22.121094 C 192.671875 21.886719 193.097656 21.449219 193.324219 20.894531 C 193.785156 19.746094 193.226562 18.4375 192.078125 17.976562 C 191.804688 17.867188 191.523438 17.8125 191.246094 17.8125 Z M 191.242188 23.582031 C 190.796875 23.582031 190.351562 23.496094 189.929688 23.324219 C 189.054688 22.972656 188.367188 22.304688 188 21.4375 C 187.628906 20.574219 187.621094 19.613281 187.972656 18.742188 C 188.695312 16.941406 190.753906 16.0625 192.558594 16.789062 C 194.359375 17.515625 195.234375 19.570312 194.511719 21.371094 C 194.160156 22.242188 193.488281 22.929688 192.621094 23.300781 C 192.179688 23.488281 191.710938 23.582031 191.242188 23.582031 " fill-opacity="1" fill-rule="nonzero"/><path fill="#141619" d="M 355.800781 153.625 C 355.40625 153.625 355.019531 153.734375 354.675781 153.949219 C 354.191406 154.25 353.851562 154.722656 353.722656 155.277344 C 353.589844 155.835938 353.683594 156.410156 353.988281 156.898438 C 354.289062 157.382812 354.761719 157.722656 355.320312 157.851562 C 355.875 157.980469 356.453125 157.886719 356.933594 157.585938 C 357.421875 157.285156 357.761719 156.8125 357.890625 156.253906 C 358.019531 155.695312 357.925781 155.121094 357.625 154.636719 C 357.324219 154.148438 356.851562 153.808594 356.292969 153.679688 C 356.128906 153.640625 355.964844 153.625 355.800781 153.625 Z M 355.8125 159.191406 C 355.550781 159.191406 355.289062 159.160156 355.027344 159.097656 C 354.140625 158.890625 353.382812 158.347656 352.902344 157.574219 C 352.417969 156.796875 352.265625 155.878906 352.472656 154.988281 C 352.683594 154.097656 353.222656 153.34375 354 152.859375 C 354.777344 152.378906 355.695312 152.226562 356.585938 152.433594 C 357.472656 152.640625 358.230469 153.1875 358.710938 153.960938 C 359.195312 154.738281 359.34375 155.652344 359.140625 156.546875 C 358.929688 157.433594 358.386719 158.191406 357.613281 158.671875 C 357.0625 159.011719 356.445312 159.191406 355.8125 159.191406 " fill-opacity="1" fill-rule="nonzero"/></svg>