<svg xmlns="http://www.w3.org/2000/svg" xmlns:xlink="http://www.w3.org/1999/xlink" width="500" zoomAndPan="magnify" viewBox="0 0 375 374.999991" height="500" preserveAspectRatio="xMidYMid meet" version="1.0"><path fill="#b3b4bd" d="M 90.078125 103.289062 C 126.695312 66.429688 116.210938 43.328125 141.265625 26.261719 C 179.820312 0.00390625 251.769531 22.59375 294.21875 58.714844 C 346.210938 102.953125 373.035156 183.722656 342.476562 256.796875 C 309.933594 334.613281 224.3125 375.011719 147.914062 362.835938 C 79.683594 351.964844 12.617188 298.183594 5.898438 233.683594 C 5.167969 226.691406 1.953125 188.898438 24.503906 156.316406 C 43.144531 129.382812 61.050781 132.503906 90.078125 103.289062 " fill-opacity="1" fill-rule="nonzero"/><path fill="#f4f5f8" d="M 300.53125 304.765625 C 299.351562 304.910156 298.277344 304.074219 298.128906 302.894531 C 297.984375 301.714844 298.820312 300.640625 300 300.492188 C 301.179688 300.34375 302.253906 301.183594 302.402344 302.363281 C 302.546875 303.542969 301.710938 304.617188 300.53125 304.765625 " fill-opacity="1" fill-rule="nonzero"/><path fill="#141619" d="M 304.449219 33.664062 C 304.363281 33.6875 304.277344 33.71875 304.195312 33.75 C 303.667969 33.960938 303.253906 34.363281 303.03125 34.886719 C 302.808594 35.410156 302.796875 35.988281 303.007812 36.515625 C 303.222656 37.039062 303.625 37.457031 304.148438 37.679688 C 304.667969 37.902344 305.246094 37.910156 305.773438 37.699219 C 306.863281 37.261719 307.390625 36.023438 306.957031 34.933594 C 306.746094 34.40625 306.339844 33.992188 305.820312 33.769531 C 305.382812 33.582031 304.902344 33.546875 304.449219 33.664062 Z M 305.746094 38.640625 C 305.101562 38.8125 304.421875 38.761719 303.800781 38.496094 C 303.058594 38.179688 302.488281 37.589844 302.1875 36.847656 C 301.886719 36.097656 301.898438 35.277344 302.214844 34.539062 C 302.535156 33.796875 303.117188 33.226562 303.867188 32.925781 C 304.613281 32.628906 305.429688 32.636719 306.171875 32.957031 C 306.910156 33.273438 307.484375 33.855469 307.78125 34.605469 C 308.402344 36.148438 307.648438 37.90625 306.105469 38.523438 C 305.984375 38.570312 305.867188 38.609375 305.746094 38.640625 " fill-opacity="1" fill-rule="nonzero"/><path fill="#141619" d="M 286.265625 26.074219 C 286.265625 26.074219 286.265625 26.074219 286.261719 26.074219 C 285.949219 26.226562 285.570312 26.089844 285.417969 25.777344 L 284.527344 23.902344 C 284.375 23.589844 284.507812 23.214844 284.824219 23.0625 C 284.824219 23.0625 284.824219 23.0625 284.828125 23.0625 C 285.140625 22.910156 285.519531 23.042969 285.667969 23.359375 L 286.5625 25.230469 C 286.710938 25.542969 286.578125 25.921875 286.265625 26.074219 " fill-opacity="1" fill-rule="nonzero"/><path fill="#141619" d="M 289.390625 32.625 C 289.390625 32.625 289.386719 32.628906 289.386719 32.628906 C 289.070312 32.777344 288.691406 32.644531 288.542969 32.328125 L 287.648438 30.457031 C 287.5 30.140625 287.632812 29.765625 287.945312 29.617188 C 287.945312 29.613281 287.949219 29.613281 287.949219 29.613281 C 288.265625 29.464844 288.644531 29.597656 288.792969 29.910156 L 289.6875 31.785156 C 289.835938 32.097656 289.703125 32.472656 289.390625 32.625 " fill-opacity="1" fill-rule="nonzero"/><path fill="#141619" d="M 285.046875 29.542969 L 283.179688 30.445312 C 282.867188 30.597656 282.488281 30.46875 282.335938 30.152344 C 282.183594 29.839844 282.316406 29.460938 282.628906 29.308594 C 282.628906 29.304688 282.628906 29.304688 282.628906 29.304688 L 284.496094 28.402344 C 284.8125 28.25 285.191406 28.382812 285.339844 28.699219 C 285.496094 29.011719 285.363281 29.390625 285.046875 29.542969 " fill-opacity="1" fill-rule="nonzero"/><path fill="#141619" d="M 291.585938 26.382812 C 291.582031 26.382812 291.582031 26.382812 291.582031 26.382812 L 289.714844 27.285156 C 289.402344 27.4375 289.023438 27.304688 288.871094 26.992188 C 288.71875 26.675781 288.851562 26.296875 289.164062 26.144531 L 291.03125 25.242188 C 291.34375 25.089844 291.722656 25.222656 291.875 25.535156 C 292.027344 25.851562 291.898438 26.226562 291.585938 26.382812 " fill-opacity="1" fill-rule="nonzero"/><path fill="#141619" d="M 37.710938 107.890625 C 37.546875 107.890625 37.382812 107.824219 37.257812 107.699219 C 37.011719 107.453125 37.015625 107.050781 37.265625 106.804688 L 38.925781 105.167969 C 39.175781 104.921875 39.574219 104.925781 39.820312 105.175781 C 40.066406 105.421875 40.0625 105.824219 39.8125 106.070312 L 38.152344 107.707031 C 38.03125 107.828125 37.871094 107.890625 37.710938 107.890625 " fill-opacity="1" fill-rule="nonzero"/><path fill="#141619" d="M 31.894531 113.621094 C 31.730469 113.621094 31.566406 113.558594 31.445312 113.429688 C 31.199219 113.183594 31.203125 112.78125 31.449219 112.535156 L 33.113281 110.898438 C 33.359375 110.652344 33.761719 110.65625 34.007812 110.90625 C 34.253906 111.15625 34.25 111.554688 34 111.800781 L 32.339844 113.4375 C 32.214844 113.558594 32.054688 113.621094 31.894531 113.621094 " fill-opacity="1" fill-rule="nonzero"/><path fill="#141619" d="M 33.574219 107.871094 C 33.410156 107.871094 33.25 107.808594 33.125 107.683594 L 31.480469 106.03125 C 31.234375 105.785156 31.234375 105.386719 31.480469 105.136719 C 31.726562 104.890625 32.128906 104.890625 32.375 105.140625 L 34.023438 106.789062 C 34.269531 107.039062 34.269531 107.4375 34.019531 107.6875 C 33.898438 107.808594 33.734375 107.871094 33.574219 107.871094 " fill-opacity="1" fill-rule="nonzero"/><path fill="#141619" d="M 39.335938 113.652344 C 39.175781 113.652344 39.011719 113.589844 38.890625 113.464844 L 37.242188 111.816406 C 36.996094 111.570312 36.996094 111.167969 37.246094 110.917969 C 37.492188 110.671875 37.890625 110.671875 38.140625 110.921875 L 39.785156 112.574219 C 40.03125 112.820312 40.03125 113.222656 39.785156 113.46875 C 39.660156 113.59375 39.5 113.652344 39.335938 113.652344 " fill-opacity="1" fill-rule="nonzero"/><path fill="#0a21c0" d="M 294.5625 311.5 C 293.40625 312.988281 291.265625 313.253906 289.78125 312.097656 C 288.296875 310.941406 288.027344 308.800781 289.183594 307.3125 C 290.339844 305.828125 292.480469 305.558594 293.96875 306.714844 C 295.453125 307.871094 295.71875 310.015625 294.5625 311.5 " fill-opacity="1" fill-rule="nonzero"/><path fill="#141619" d="M 21.089844 124.011719 C 20.996094 124.011719 20.898438 124.015625 20.800781 124.027344 C 20.1875 124.105469 19.644531 124.414062 19.265625 124.902344 C 18.886719 125.390625 18.71875 125.992188 18.796875 126.605469 C 18.871094 127.214844 19.183594 127.761719 19.667969 128.140625 C 20.15625 128.519531 20.761719 128.6875 21.371094 128.609375 C 21.984375 128.535156 22.527344 128.222656 22.90625 127.738281 C 23.285156 127.25 23.453125 126.644531 23.375 126.035156 C 23.300781 125.421875 22.992188 124.875 22.503906 124.496094 C 22.09375 124.179688 21.601562 124.011719 21.089844 124.011719 Z M 21.078125 129.890625 C 20.289062 129.890625 19.523438 129.632812 18.890625 129.140625 C 18.136719 128.554688 17.660156 127.707031 17.539062 126.761719 C 17.421875 125.8125 17.679688 124.878906 18.265625 124.125 C 18.851562 123.371094 19.699219 122.890625 20.644531 122.773438 C 21.59375 122.652344 22.527344 122.914062 23.28125 123.5 C 24.035156 124.085938 24.511719 124.929688 24.632812 125.878906 C 24.75 126.824219 24.492188 127.761719 23.90625 128.515625 C 23.320312 129.265625 22.476562 129.746094 21.527344 129.867188 C 21.378906 129.886719 21.226562 129.890625 21.078125 129.890625 " fill-opacity="1" fill-rule="nonzero"/><path fill="#141619" d="M 203.4375 80.488281 C 203.273438 80.488281 203.109375 80.425781 202.984375 80.300781 C 202.738281 80.054688 202.742188 79.652344 202.992188 79.40625 L 204.652344 77.769531 C 204.902344 77.523438 205.300781 77.523438 205.546875 77.773438 C 205.792969 78.023438 205.789062 78.425781 205.539062 78.667969 L 203.878906 80.308594 C 203.757812 80.429688 203.597656 80.488281 203.4375 80.488281 " fill-opacity="1" fill-rule="nonzero"/><path fill="#141619" d="M 197.621094 86.21875 C 197.457031 86.21875 197.296875 86.15625 197.171875 86.03125 C 196.925781 85.78125 196.929688 85.382812 197.175781 85.136719 L 198.839844 83.5 C 199.085938 83.253906 199.488281 83.257812 199.734375 83.507812 C 199.980469 83.753906 199.976562 84.15625 199.726562 84.402344 L 198.066406 86.039062 C 197.941406 86.160156 197.78125 86.21875 197.621094 86.21875 " fill-opacity="1" fill-rule="nonzero"/><path fill="#141619" d="M 199.300781 80.472656 C 199.140625 80.472656 198.976562 80.410156 198.851562 80.285156 L 197.207031 78.632812 C 196.957031 78.386719 196.960938 77.984375 197.207031 77.738281 C 197.453125 77.492188 197.855469 77.492188 198.101562 77.738281 L 199.75 79.394531 C 199.996094 79.640625 199.996094 80.039062 199.75 80.285156 C 199.625 80.410156 199.464844 80.472656 199.300781 80.472656 " fill-opacity="1" fill-rule="nonzero"/><path fill="#141619" d="M 205.066406 86.253906 C 204.902344 86.253906 204.738281 86.191406 204.617188 86.066406 L 202.96875 84.414062 C 202.722656 84.167969 202.722656 83.769531 202.972656 83.519531 C 203.21875 83.273438 203.621094 83.273438 203.867188 83.523438 L 205.511719 85.175781 C 205.757812 85.421875 205.757812 85.824219 205.511719 86.070312 C 205.386719 86.191406 205.226562 86.253906 205.066406 86.253906 " fill-opacity="1" fill-rule="nonzero"/><path fill="#f4f5f8" d="M 326.625 244.203125 L 62.210938 244.203125 C 56.375 244.203125 51.644531 239.566406 51.644531 233.847656 L 51.644531 56.234375 C 51.644531 50.515625 56.375 45.878906 62.210938 45.878906 L 326.625 45.878906 C 332.460938 45.878906 337.191406 50.515625 337.191406 56.234375 L 337.191406 233.847656 C 337.191406 239.566406 332.460938 244.203125 326.625 244.203125 " fill-opacity="1" fill-rule="nonzero"/><path fill="#141619" d="M 62.210938 46.511719 C 56.734375 46.511719 52.277344 50.875 52.277344 56.234375 L 52.277344 233.847656 C 52.277344 239.207031 56.734375 243.570312 62.210938 243.570312 L 326.625 243.570312 C 332.101562 243.570312 336.558594 239.207031 336.558594 233.847656 L 336.558594 56.234375 C 336.558594 50.875 332.101562 46.511719 326.625 46.511719 Z M 326.625 244.835938 L 62.210938 244.835938 C 56.035156 244.835938 51.011719 239.90625 51.011719 233.847656 L 51.011719 56.234375 C 51.011719 50.175781 56.035156 45.246094 62.210938 45.246094 L 326.625 45.246094 C 332.800781 45.246094 337.824219 50.175781 337.824219 56.234375 L 337.824219 233.847656 C 337.824219 239.90625 332.800781 244.835938 326.625 244.835938 " fill-opacity="1" fill-rule="nonzero"/><path fill="#b3b4bd" d="M 62.210938 49.929688 C 58.664062 49.929688 55.777344 52.753906 55.777344 56.234375 L 55.777344 233.847656 C 55.777344 237.324219 58.664062 240.152344 62.210938 240.152344 L 326.625 240.152344 C 330.175781 240.152344 333.0625 237.324219 333.0625 233.847656 L 333.0625 56.234375 C 333.0625 52.753906 330.175781 49.929688 326.625 49.929688 L 62.210938 49.929688 " fill-opacity="1" fill-rule="nonzero"/><path fill="#141619" d="M 61.039062 115.261719 C 60.6875 115.261719 60.402344 114.980469 60.402344 114.628906 L 60.402344 60.230469 C 60.402344 57.042969 63.046875 54.449219 66.292969 54.449219 L 76.359375 54.449219 C 76.710938 54.449219 76.992188 54.734375 76.992188 55.082031 C 76.992188 55.433594 76.710938 55.714844 76.359375 55.714844 L 66.292969 55.714844 C 63.742188 55.714844 61.671875 57.742188 61.671875 60.230469 L 61.671875 114.628906 C 61.671875 114.980469 61.386719 115.261719 61.039062 115.261719 " fill-opacity="1" fill-rule="nonzero"/><path fill="#141619" d="M 61.039062 193.996094 C 60.6875 193.996094 60.402344 193.710938 60.402344 193.363281 L 60.402344 167.902344 C 60.402344 167.554688 60.6875 167.269531 61.039062 167.269531 C 61.386719 167.269531 61.671875 167.554688 61.671875 167.902344 L 61.671875 193.363281 C 61.671875 193.710938 61.386719 193.996094 61.039062 193.996094 " fill-opacity="1" fill-rule="nonzero"/><path fill="#141619" d="M 61.039062 221.820312 C 60.6875 221.820312 60.402344 221.535156 60.402344 221.183594 L 60.402344 210.265625 C 60.402344 209.914062 60.6875 209.632812 61.039062 209.632812 C 61.386719 209.632812 61.671875 209.914062 61.671875 210.265625 L 61.671875 221.183594 C 61.671875 221.535156 61.386719 221.820312 61.039062 221.820312 " fill-opacity="1" fill-rule="nonzero"/><path fill="#141619" d="M 81.53125 235.632812 L 66.292969 235.632812 C 63.046875 235.632812 60.402344 233.039062 60.402344 229.851562 C 60.402344 229.5 60.6875 229.214844 61.039062 229.214844 C 61.386719 229.214844 61.671875 229.5 61.671875 229.851562 C 61.671875 232.339844 63.742188 234.363281 66.292969 234.363281 L 81.53125 234.363281 C 81.882812 234.363281 82.164062 234.648438 82.164062 235 C 82.164062 235.347656 81.882812 235.632812 81.53125 235.632812 " fill-opacity="1" fill-rule="nonzero"/><path fill="#141619" d="M 323.640625 235.632812 L 312.4375 235.632812 C 312.089844 235.632812 311.804688 235.347656 311.804688 235 C 311.804688 234.648438 312.089844 234.363281 312.4375 234.363281 L 323.640625 234.363281 C 325.585938 234.363281 327.164062 232.785156 327.164062 230.839844 L 327.164062 60.230469 C 327.164062 57.742188 325.09375 55.714844 322.542969 55.714844 L 299.539062 55.714844 C 299.1875 55.714844 298.902344 55.433594 298.902344 55.082031 C 298.902344 54.734375 299.1875 54.449219 299.539062 54.449219 L 322.542969 54.449219 C 325.792969 54.449219 328.429688 57.042969 328.429688 60.230469 L 328.429688 230.839844 C 328.429688 233.484375 326.28125 235.632812 323.640625 235.632812 " fill-opacity="1" fill-rule="nonzero"/><path fill="#141619" d="M 229.652344 55.714844 L 204.988281 55.714844 C 204.636719 55.714844 204.351562 55.433594 204.351562 55.082031 C 204.351562 54.734375 204.636719 54.449219 204.988281 54.449219 L 229.652344 54.449219 C 230 54.449219 230.285156 54.734375 230.285156 55.082031 C 230.285156 55.433594 230 55.714844 229.652344 55.714844 " fill-opacity="1" fill-rule="nonzero"/><path fill="#0a21c0" d="M 189.128906 22.375 C 189.128906 19.097656 186.472656 16.441406 183.195312 16.441406 L 90.859375 16.441406 C 87.582031 16.441406 84.925781 19.097656 84.925781 22.375 L 84.925781 83.496094 C 84.925781 86.777344 87.582031 89.429688 90.859375 89.429688 L 183.195312 89.429688 C 186.472656 89.429688 189.128906 86.777344 189.128906 83.496094 L 189.128906 22.375 " fill-opacity="1" fill-rule="nonzero"/><path fill="#f4f5f8" d="M 178.117188 56.492188 C 178.117188 57.644531 177.183594 58.578125 176.03125 58.578125 L 98.023438 58.578125 C 96.871094 58.578125 95.9375 57.644531 95.9375 56.492188 L 95.9375 26.164062 C 95.9375 25.011719 96.871094 24.078125 98.023438 24.078125 L 176.03125 24.078125 C 177.183594 24.078125 178.117188 25.011719 178.117188 26.164062 L 178.117188 56.492188 " fill-opacity="1" fill-rule="nonzero"/><path fill="#141619" d="M 104.234375 44.132812 C 104.09375 44.132812 103.957031 44.082031 103.851562 43.976562 L 100.558594 40.683594 C 100.34375 40.472656 100.34375 40.128906 100.558594 39.917969 L 103.851562 36.625 C 104.0625 36.410156 104.402344 36.410156 104.617188 36.625 C 104.828125 36.832031 104.828125 37.175781 104.617188 37.390625 L 101.703125 40.300781 L 104.617188 43.210938 C 104.828125 43.421875 104.828125 43.765625 104.617188 43.976562 C 104.507812 44.082031 104.371094 44.132812 104.234375 44.132812 " fill-opacity="1" fill-rule="nonzero"/><path fill="#141619" d="M 169.824219 44.132812 C 169.683594 44.132812 169.546875 44.082031 169.441406 43.976562 C 169.226562 43.765625 169.226562 43.421875 169.441406 43.210938 L 172.351562 40.300781 L 169.441406 37.390625 C 169.226562 37.175781 169.226562 36.832031 169.441406 36.625 C 169.652344 36.410156 169.992188 36.410156 170.203125 36.625 L 173.496094 39.917969 C 173.710938 40.128906 173.710938 40.472656 173.496094 40.683594 L 170.203125 43.976562 C 170.097656 44.082031 169.960938 44.132812 169.824219 44.132812 " fill-opacity="1" fill-rule="nonzero"/><path fill="#141619" d="M 129.789062 65.269531 C 129.789062 66.054688 129.15625 66.6875 128.371094 66.6875 C 127.589844 66.6875 126.953125 66.054688 126.953125 65.269531 C 126.953125 64.488281 127.589844 63.855469 128.371094 63.855469 C 129.15625 63.855469 129.789062 64.488281 129.789062 65.269531 " fill-opacity="1" fill-rule="nonzero"/><path fill="#141619" d="M 138.445312 65.269531 C 138.445312 66.054688 137.8125 66.6875 137.027344 66.6875 C 136.242188 66.6875 135.609375 66.054688 135.609375 65.269531 C 135.609375 64.488281 136.242188 63.855469 137.027344 63.855469 C 137.8125 63.855469 138.445312 64.488281 138.445312 65.269531 " fill-opacity="1" fill-rule="nonzero"/><path fill="#141619" d="M 147.101562 65.269531 C 147.101562 66.054688 146.464844 66.6875 145.683594 66.6875 C 144.902344 66.6875 144.265625 66.054688 144.265625 65.269531 C 144.265625 64.488281 144.902344 63.855469 145.683594 63.855469 C 146.464844 63.855469 147.101562 64.488281 147.101562 65.269531 " fill-opacity="1" fill-rule="nonzero"/><path fill="#b3b4bd" d="M 132.703125 79.210938 C 132.703125 80.363281 131.773438 81.296875 130.621094 81.296875 L 98.023438 81.296875 C 96.871094 81.296875 95.9375 80.363281 95.9375 79.210938 L 95.9375 74.265625 C 95.9375 73.113281 96.871094 72.179688 98.023438 72.179688 L 130.621094 72.179688 C 131.773438 72.179688 132.703125 73.113281 132.703125 74.265625 L 132.703125 79.210938 " fill-opacity="1" fill-rule="nonzero"/><path fill="#b3b4bd" d="M 178.117188 79.210938 C 178.117188 80.363281 177.183594 81.296875 176.03125 81.296875 L 143.433594 81.296875 C 142.28125 81.296875 141.347656 80.363281 141.347656 79.210938 L 141.347656 74.265625 C 141.347656 73.113281 142.28125 72.179688 143.433594 72.179688 L 176.03125 72.179688 C 177.183594 72.179688 178.117188 73.113281 178.117188 74.265625 L 178.117188 79.210938 " fill-opacity="1" fill-rule="nonzero"/><path fill="#0a21c0" d="M 188.382812 119.585938 C 188.382812 116.308594 185.726562 113.652344 182.449219 113.652344 L 90.113281 113.652344 C 86.835938 113.652344 84.179688 116.308594 84.179688 119.585938 L 84.179688 180.710938 C 84.179688 183.988281 86.835938 186.644531 90.113281 186.644531 L 182.449219 186.644531 C 185.726562 186.644531 188.382812 183.988281 188.382812 180.710938 L 188.382812 119.585938 " fill-opacity="1" fill-rule="nonzero"/><path fill="#b3b4bd" d="M 120.132812 144.296875 C 120.132812 145.449219 119.199219 146.382812 118.050781 146.382812 L 97.277344 146.382812 C 96.125 146.382812 95.191406 145.449219 95.191406 144.296875 L 95.191406 123.746094 C 95.191406 122.597656 96.125 121.660156 97.277344 121.660156 L 118.050781 121.660156 C 119.199219 121.660156 120.132812 122.597656 120.132812 123.746094 L 120.132812 144.296875 " fill-opacity="1" fill-rule="nonzero"/><path fill="#f4f5f8" d="M 148.753906 144.296875 C 148.753906 145.449219 147.820312 146.382812 146.667969 146.382812 L 125.894531 146.382812 C 124.746094 146.382812 123.8125 145.449219 123.8125 144.296875 L 123.8125 123.746094 C 123.8125 122.597656 124.746094 121.660156 125.894531 121.660156 L 146.667969 121.660156 C 147.820312 121.660156 148.753906 122.597656 148.753906 123.746094 L 148.753906 144.296875 " fill-opacity="1" fill-rule="nonzero"/><path fill="#b3b4bd" d="M 177.371094 144.296875 C 177.371094 145.449219 176.4375 146.382812 175.285156 146.382812 L 154.515625 146.382812 C 153.363281 146.382812 152.429688 145.449219 152.429688 144.296875 L 152.429688 123.746094 C 152.429688 122.597656 153.363281 121.660156 154.515625 121.660156 L 175.285156 121.660156 C 176.4375 121.660156 177.371094 122.597656 177.371094 123.746094 L 177.371094 144.296875 " fill-opacity="1" fill-rule="nonzero"/><path fill="#b3b4bd" d="M 120.132812 154.121094 C 120.132812 155.273438 119.199219 156.207031 118.050781 156.207031 L 97.277344 156.207031 C 96.125 156.207031 95.191406 155.273438 95.191406 154.121094 L 95.191406 153.929688 C 95.191406 152.777344 96.125 151.84375 97.277344 151.84375 L 118.050781 151.84375 C 119.199219 151.84375 120.132812 152.777344 120.132812 153.929688 L 120.132812 154.121094 " fill-opacity="1" fill-rule="nonzero"/><path fill="#f4f5f8" d="M 146.667969 156.207031 L 125.894531 156.207031 C 124.746094 156.207031 123.8125 155.273438 123.8125 154.121094 L 123.8125 153.929688 C 123.8125 152.777344 124.746094 151.84375 125.894531 151.84375 L 146.667969 151.84375 C 147.820312 151.84375 148.753906 152.777344 148.753906 153.929688 L 148.753906 154.121094 C 148.753906 155.273438 147.820312 156.207031 146.667969 156.207031 " fill-opacity="1" fill-rule="nonzero"/><path fill="#b3b4bd" d="M 177.371094 154.121094 C 177.371094 155.273438 176.4375 156.207031 175.285156 156.207031 L 154.515625 156.207031 C 153.363281 156.207031 152.429688 155.273438 152.429688 154.121094 L 152.429688 153.929688 C 152.429688 152.777344 153.363281 151.84375 154.515625 151.84375 L 175.285156 151.84375 C 176.4375 151.84375 177.371094 152.777344 177.371094 153.929688 L 177.371094 154.121094 " fill-opacity="1" fill-rule="nonzero"/><path fill="#b3b4bd" d="M 117.523438 162.15625 L 112.316406 162.15625 C 112.015625 162.15625 111.773438 161.914062 111.773438 161.613281 C 111.773438 161.316406 112.015625 161.070312 112.316406 161.070312 L 117.523438 161.070312 C 117.824219 161.070312 118.066406 161.316406 118.066406 161.613281 C 118.066406 161.914062 117.824219 162.15625 117.523438 162.15625 " fill-opacity="1" fill-rule="nonzero"/><path fill="#b3b4bd" d="M 109.460938 162.15625 L 97.800781 162.15625 C 97.503906 162.15625 97.261719 161.914062 97.261719 161.613281 C 97.261719 161.316406 97.503906 161.070312 97.800781 161.070312 L 109.460938 161.070312 C 109.761719 161.070312 110.003906 161.316406 110.003906 161.613281 C 110.003906 161.914062 109.761719 162.15625 109.460938 162.15625 " fill-opacity="1" fill-rule="nonzero"/><path fill="#b3b4bd" d="M 117.523438 165.257812 L 104.980469 165.257812 C 104.683594 165.257812 104.441406 165.015625 104.441406 164.714844 C 104.441406 164.417969 104.683594 164.175781 104.980469 164.175781 L 117.523438 164.175781 C 117.824219 164.175781 118.066406 164.417969 118.066406 164.714844 C 118.066406 165.015625 117.824219 165.257812 117.523438 165.257812 " fill-opacity="1" fill-rule="nonzero"/><path fill="#b3b4bd" d="M 102.070312 165.257812 L 97.800781 165.257812 C 97.503906 165.257812 97.261719 165.015625 97.261719 164.714844 C 97.261719 164.417969 97.503906 164.175781 97.800781 164.175781 L 102.070312 164.175781 C 102.371094 164.175781 102.613281 164.417969 102.613281 164.714844 C 102.613281 165.015625 102.371094 165.257812 102.070312 165.257812 " fill-opacity="1" fill-rule="nonzero"/><path fill="#b3b4bd" d="M 117.523438 168.359375 L 97.800781 168.359375 C 97.503906 168.359375 97.261719 168.117188 97.261719 167.820312 C 97.261719 167.519531 97.503906 167.277344 97.800781 167.277344 L 117.523438 167.277344 C 117.824219 167.277344 118.066406 167.519531 118.066406 167.820312 C 118.066406 168.117188 117.824219 168.359375 117.523438 168.359375 " fill-opacity="1" fill-rule="nonzero"/><path fill="#b3b4bd" d="M 146.144531 162.15625 L 134.921875 162.15625 C 134.621094 162.15625 134.378906 161.914062 134.378906 161.613281 C 134.378906 161.316406 134.621094 161.070312 134.921875 161.070312 L 146.144531 161.070312 C 146.445312 161.070312 146.683594 161.316406 146.683594 161.613281 C 146.683594 161.914062 146.445312 162.15625 146.144531 162.15625 " fill-opacity="1" fill-rule="nonzero"/><path fill="#b3b4bd" d="M 131.960938 162.15625 L 126.421875 162.15625 C 126.121094 162.15625 125.878906 161.914062 125.878906 161.613281 C 125.878906 161.316406 126.121094 161.070312 126.421875 161.070312 L 131.960938 161.070312 C 132.257812 161.070312 132.5 161.316406 132.5 161.613281 C 132.5 161.914062 132.257812 162.15625 131.960938 162.15625 " fill-opacity="1" fill-rule="nonzero"/><path fill="#b3b4bd" d="M 146.144531 165.257812 L 126.421875 165.257812 C 126.121094 165.257812 125.878906 165.015625 125.878906 164.714844 C 125.878906 164.417969 126.121094 164.175781 126.421875 164.175781 L 146.144531 164.175781 C 146.445312 164.175781 146.683594 164.417969 146.683594 164.714844 C 146.683594 165.015625 146.445312 165.257812 146.144531 165.257812 " fill-opacity="1" fill-rule="nonzero"/><path fill="#b3b4bd" d="M 146.144531 168.359375 L 142.53125 168.359375 C 142.230469 168.359375 141.988281 168.117188 141.988281 167.820312 C 141.988281 167.519531 142.230469 167.277344 142.53125 167.277344 L 146.144531 167.277344 C 146.445312 167.277344 146.683594 167.519531 146.683594 167.820312 C 146.683594 168.117188 146.445312 168.359375 146.144531 168.359375 " fill-opacity="1" fill-rule="nonzero"/><path fill="#b3b4bd" d="M 139.65625 168.359375 L 126.421875 168.359375 C 126.121094 168.359375 125.878906 168.117188 125.878906 167.820312 C 125.878906 167.519531 126.121094 167.277344 126.421875 167.277344 L 139.65625 167.277344 C 139.957031 167.277344 140.199219 167.519531 140.199219 167.820312 C 140.199219 168.117188 139.957031 168.359375 139.65625 168.359375 " fill-opacity="1" fill-rule="nonzero"/><path fill="#b3b4bd" d="M 174.761719 162.15625 L 162.816406 162.15625 C 162.515625 162.15625 162.273438 161.914062 162.273438 161.613281 C 162.273438 161.316406 162.515625 161.070312 162.816406 161.070312 L 174.761719 161.070312 C 175.058594 161.070312 175.304688 161.316406 175.304688 161.613281 C 175.304688 161.914062 175.058594 162.15625 174.761719 162.15625 " fill-opacity="1" fill-rule="nonzero"/><path fill="#b3b4bd" d="M 159.640625 162.15625 L 155.039062 162.15625 C 154.742188 162.15625 154.496094 161.914062 154.496094 161.613281 C 154.496094 161.316406 154.742188 161.070312 155.039062 161.070312 L 159.640625 161.070312 C 159.941406 161.070312 160.183594 161.316406 160.183594 161.613281 C 160.183594 161.914062 159.941406 162.15625 159.640625 162.15625 " fill-opacity="1" fill-rule="nonzero"/><path fill="#b3b4bd" d="M 174.761719 165.257812 L 171.039062 165.257812 C 170.742188 165.257812 170.496094 165.015625 170.496094 164.714844 C 170.496094 164.417969 170.742188 164.175781 171.039062 164.175781 L 174.761719 164.175781 C 175.058594 164.175781 175.304688 164.417969 175.304688 164.714844 C 175.304688 165.015625 175.058594 165.257812 174.761719 165.257812 " fill-opacity="1" fill-rule="nonzero"/><path fill="#b3b4bd" d="M 167.9375 165.257812 L 155.039062 165.257812 C 154.742188 165.257812 154.496094 165.015625 154.496094 164.714844 C 154.496094 164.417969 154.742188 164.175781 155.039062 164.175781 L 167.9375 164.175781 C 168.238281 164.175781 168.480469 164.417969 168.480469 164.714844 C 168.480469 165.015625 168.238281 165.257812 167.9375 165.257812 " fill-opacity="1" fill-rule="nonzero"/><path fill="#b3b4bd" d="M 174.761719 168.359375 L 164.476562 168.359375 C 164.175781 168.359375 163.933594 168.117188 163.933594 167.820312 C 163.933594 167.519531 164.175781 167.277344 164.476562 167.277344 L 174.761719 167.277344 C 175.058594 167.277344 175.304688 167.519531 175.304688 167.820312 C 175.304688 168.117188 175.058594 168.359375 174.761719 168.359375 " fill-opacity="1" fill-rule="nonzero"/><path fill="#b3b4bd" d="M 161.488281 168.359375 L 155.039062 168.359375 C 154.742188 168.359375 154.496094 168.117188 154.496094 167.820312 C 154.496094 167.519531 154.742188 167.277344 155.039062 167.277344 L 161.488281 167.277344 C 161.785156 167.277344 162.03125 167.519531 162.03125 167.820312 C 162.03125 168.117188 161.785156 168.359375 161.488281 168.359375 " fill-opacity="1" fill-rule="nonzero"/><path fill="#141619" d="M 129.042969 176.707031 C 129.042969 177.488281 128.410156 178.125 127.625 178.125 C 126.84375 178.125 126.207031 177.488281 126.207031 176.707031 C 126.207031 175.921875 126.84375 175.289062 127.625 175.289062 C 128.410156 175.289062 129.042969 175.921875 129.042969 176.707031 " fill-opacity="1" fill-rule="nonzero"/><path fill="#141619" d="M 137.699219 176.707031 C 137.699219 177.488281 137.066406 178.125 136.28125 178.125 C 135.5 178.125 134.863281 177.488281 134.863281 176.707031 C 134.863281 175.921875 135.5 175.289062 136.28125 175.289062 C 137.066406 175.289062 137.699219 175.921875 137.699219 176.707031 " fill-opacity="1" fill-rule="nonzero"/><path fill="#141619" d="M 146.355469 176.707031 C 146.355469 177.488281 145.71875 178.125 144.9375 178.125 C 144.15625 178.125 143.519531 177.488281 143.519531 176.707031 C 143.519531 175.921875 144.15625 175.289062 144.9375 175.289062 C 145.71875 175.289062 146.355469 175.921875 146.355469 176.707031 " fill-opacity="1" fill-rule="nonzero"/><path fill="#0a21c0" d="M 308 119.585938 C 308 116.308594 305.34375 113.652344 302.066406 113.652344 L 209.730469 113.652344 C 206.453125 113.652344 203.796875 116.308594 203.796875 119.585938 L 203.796875 180.710938 C 203.796875 183.988281 206.453125 186.644531 209.730469 186.644531 L 302.066406 186.644531 C 305.34375 186.644531 308 183.988281 308 180.710938 L 308 119.585938 " fill-opacity="1" fill-rule="nonzero"/><path fill="#b3b4bd" d="M 261.378906 165.734375 C 261.378906 166.886719 260.445312 167.820312 259.292969 167.820312 L 216.894531 167.820312 C 215.742188 167.820312 214.808594 166.886719 214.808594 165.734375 L 214.808594 123.746094 C 214.808594 122.597656 215.742188 121.660156 216.894531 121.660156 L 259.292969 121.660156 C 260.445312 121.660156 261.378906 122.597656 261.378906 123.746094 L 261.378906 165.734375 " fill-opacity="1" fill-rule="nonzero"/><path fill="#141619" d="M 294.902344 121.660156 L 274.128906 121.660156 C 272.980469 121.660156 272.042969 122.597656 272.042969 123.746094 L 272.042969 144.296875 C 272.042969 145.449219 272.980469 146.382812 274.128906 146.382812 L 294.902344 146.382812 C 296.054688 146.382812 296.988281 145.449219 296.988281 144.296875 L 296.988281 123.746094 C 296.988281 122.597656 296.054688 121.660156 294.902344 121.660156 Z M 294.902344 122.746094 C 295.453125 122.746094 295.902344 123.195312 295.902344 123.746094 L 295.902344 144.296875 C 295.902344 144.851562 295.453125 145.300781 294.902344 145.300781 L 274.128906 145.300781 C 273.578125 145.300781 273.128906 144.851562 273.128906 144.296875 L 273.128906 123.746094 C 273.128906 123.195312 273.578125 122.746094 274.128906 122.746094 L 294.902344 122.746094 " fill-opacity="1" fill-rule="nonzero"/><path fill="#f4f5f8" d="M 294.378906 153.644531 L 289.167969 153.644531 C 288.871094 153.644531 288.628906 153.402344 288.628906 153.101562 C 288.628906 152.804688 288.871094 152.5625 289.167969 152.5625 L 294.378906 152.5625 C 294.675781 152.5625 294.917969 152.804688 294.917969 153.101562 C 294.917969 153.402344 294.675781 153.644531 294.378906 153.644531 " fill-opacity="1" fill-rule="nonzero"/><path fill="#f4f5f8" d="M 286.316406 153.644531 L 274.652344 153.644531 C 274.355469 153.644531 274.113281 153.402344 274.113281 153.101562 C 274.113281 152.804688 274.355469 152.5625 274.652344 152.5625 L 286.316406 152.5625 C 286.613281 152.5625 286.855469 152.804688 286.855469 153.101562 C 286.855469 153.402344 286.613281 153.644531 286.316406 153.644531 " fill-opacity="1" fill-rule="nonzero"/><path fill="#f4f5f8" d="M 294.378906 156.746094 L 281.835938 156.746094 C 281.535156 156.746094 281.292969 156.503906 281.292969 156.207031 C 281.292969 155.90625 281.535156 155.664062 281.835938 155.664062 L 294.378906 155.664062 C 294.675781 155.664062 294.917969 155.90625 294.917969 156.207031 C 294.917969 156.503906 294.675781 156.746094 294.378906 156.746094 " fill-opacity="1" fill-rule="nonzero"/><path fill="#f4f5f8" d="M 278.925781 156.746094 L 274.652344 156.746094 C 274.355469 156.746094 274.113281 156.503906 274.113281 156.207031 C 274.113281 155.90625 274.355469 155.664062 274.652344 155.664062 L 278.925781 155.664062 C 279.222656 155.664062 279.464844 155.90625 279.464844 156.207031 C 279.464844 156.503906 279.222656 156.746094 278.925781 156.746094 " fill-opacity="1" fill-rule="nonzero"/><path fill="#f4f5f8" d="M 294.378906 162.851562 L 289.167969 162.851562 C 288.871094 162.851562 288.628906 162.609375 288.628906 162.3125 C 288.628906 162.011719 288.871094 161.769531 289.167969 161.769531 L 294.378906 161.769531 C 294.675781 161.769531 294.917969 162.011719 294.917969 162.3125 C 294.917969 162.609375 294.675781 162.851562 294.378906 162.851562 " fill-opacity="1" fill-rule="nonzero"/><path fill="#f4f5f8" d="M 286.316406 162.851562 L 274.652344 162.851562 C 274.355469 162.851562 274.113281 162.609375 274.113281 162.3125 C 274.113281 162.011719 274.355469 161.769531 274.652344 161.769531 L 286.316406 161.769531 C 286.613281 161.769531 286.855469 162.011719 286.855469 162.3125 C 286.855469 162.609375 286.613281 162.851562 286.316406 162.851562 " fill-opacity="1" fill-rule="nonzero"/><path fill="#f4f5f8" d="M 294.378906 165.957031 L 281.835938 165.957031 C 281.535156 165.957031 281.292969 165.710938 281.292969 165.414062 C 281.292969 165.113281 281.535156 164.871094 281.835938 164.871094 L 294.378906 164.871094 C 294.675781 164.871094 294.917969 165.113281 294.917969 165.414062 C 294.917969 165.710938 294.675781 165.957031 294.378906 165.957031 " fill-opacity="1" fill-rule="nonzero"/><path fill="#f4f5f8" d="M 278.925781 165.957031 L 274.652344 165.957031 C 274.355469 165.957031 274.113281 165.710938 274.113281 165.414062 C 274.113281 165.113281 274.355469 164.871094 274.652344 164.871094 L 278.925781 164.871094 C 279.222656 164.871094 279.464844 165.113281 279.464844 165.414062 C 279.464844 165.710938 279.222656 165.957031 278.925781 165.957031 " fill-opacity="1" fill-rule="nonzero"/><path fill="#f4f5f8" d="M 294.378906 159.851562 L 274.652344 159.851562 C 274.355469 159.851562 274.113281 159.609375 274.113281 159.308594 C 274.113281 159.011719 274.355469 158.769531 274.652344 158.769531 L 294.378906 158.769531 C 294.675781 158.769531 294.917969 159.011719 294.917969 159.308594 C 294.917969 159.609375 294.675781 159.851562 294.378906 159.851562 " fill-opacity="1" fill-rule="nonzero"/><path fill="#141619" d="M 248.660156 176.707031 C 248.660156 177.488281 248.023438 178.125 247.242188 178.125 C 246.457031 178.125 245.824219 177.488281 245.824219 176.707031 C 245.824219 175.921875 246.457031 175.289062 247.242188 175.289062 C 248.023438 175.289062 248.660156 175.921875 248.660156 176.707031 " fill-opacity="1" fill-rule="nonzero"/><path fill="#141619" d="M 257.316406 176.707031 C 257.316406 177.488281 256.679688 178.125 255.898438 178.125 C 255.113281 178.125 254.480469 177.488281 254.480469 176.707031 C 254.480469 175.921875 255.113281 175.289062 255.898438 175.289062 C 256.679688 175.289062 257.316406 175.921875 257.316406 176.707031 " fill-opacity="1" fill-rule="nonzero"/><path fill="#141619" d="M 265.96875 176.707031 C 265.96875 177.488281 265.335938 178.125 264.550781 178.125 C 263.769531 178.125 263.136719 177.488281 263.136719 176.707031 C 263.136719 175.921875 263.769531 175.289062 264.550781 175.289062 C 265.335938 175.289062 265.96875 175.921875 265.96875 176.707031 " fill-opacity="1" fill-rule="nonzero"/><path fill="#0a21c0" d="M 308 208.628906 C 308 205.351562 305.34375 202.695312 302.066406 202.695312 L 209.730469 202.695312 C 206.453125 202.695312 203.796875 205.351562 203.796875 208.628906 L 203.796875 269.75 C 203.796875 273.027344 206.453125 275.683594 209.730469 275.683594 L 302.066406 275.683594 C 305.34375 275.683594 308 273.027344 308 269.75 L 308 208.628906 " fill-opacity="1" fill-rule="nonzero"/><path fill="#f4f5f8" d="M 271.667969 239.632812 C 271.667969 241.015625 270.542969 242.140625 269.160156 242.140625 L 244.171875 242.140625 C 242.785156 242.140625 241.664062 241.015625 241.664062 239.632812 L 241.664062 214.914062 C 241.664062 213.527344 242.785156 212.40625 244.171875 212.40625 L 269.160156 212.40625 C 270.542969 212.40625 271.667969 213.527344 271.667969 214.914062 L 271.667969 239.632812 " fill-opacity="1" fill-rule="nonzero"/><path fill="#f4f5f8" d="M 268.527344 250.878906 L 262.261719 250.878906 C 261.902344 250.878906 261.613281 250.585938 261.613281 250.226562 C 261.613281 249.867188 261.902344 249.578125 262.261719 249.578125 L 268.527344 249.578125 C 268.886719 249.578125 269.179688 249.867188 269.179688 250.226562 C 269.179688 250.585938 268.886719 250.878906 268.527344 250.878906 " fill-opacity="1" fill-rule="nonzero"/><path fill="#f4f5f8" d="M 258.832031 250.878906 L 244.804688 250.878906 C 244.441406 250.878906 244.152344 250.585938 244.152344 250.226562 C 244.152344 249.867188 244.441406 249.578125 244.804688 249.578125 L 258.832031 249.578125 C 259.191406 249.578125 259.480469 249.867188 259.480469 250.226562 C 259.480469 250.585938 259.191406 250.878906 258.832031 250.878906 " fill-opacity="1" fill-rule="nonzero"/><path fill="#b3b4bd" d="M 268.640625 263.21875 C 268.640625 264.738281 267.40625 265.972656 265.882812 265.972656 L 249.160156 265.972656 C 247.636719 265.972656 246.402344 264.738281 246.402344 263.21875 C 246.402344 261.695312 247.636719 260.460938 249.160156 260.460938 L 265.882812 260.460938 C 267.40625 260.460938 268.640625 261.695312 268.640625 263.21875 " fill-opacity="1" fill-rule="nonzero"/><path fill="#0a21c0" d="M 250.789062 263.21875 C 250.789062 263.769531 250.34375 264.214844 249.792969 264.214844 C 249.242188 264.214844 248.796875 263.769531 248.796875 263.21875 C 248.796875 262.667969 249.242188 262.222656 249.792969 262.222656 C 250.34375 262.222656 250.789062 262.667969 250.789062 263.21875 " fill-opacity="1" fill-rule="nonzero"/><path fill="#0a21c0" d="M 254.5 263.21875 C 254.5 263.769531 254.054688 264.214844 253.503906 264.214844 C 252.953125 264.214844 252.507812 263.769531 252.507812 263.21875 C 252.507812 262.667969 252.953125 262.222656 253.503906 262.222656 C 254.054688 262.222656 254.5 262.667969 254.5 263.21875 " fill-opacity="1" fill-rule="nonzero"/><path fill="#0a21c0" d="M 258.207031 263.21875 C 258.207031 263.769531 257.761719 264.214844 257.214844 264.214844 C 256.664062 264.214844 256.21875 263.769531 256.21875 263.21875 C 256.21875 262.667969 256.664062 262.222656 257.214844 262.222656 C 257.761719 262.222656 258.207031 262.667969 258.207031 263.21875 " fill-opacity="1" fill-rule="nonzero"/><path fill="#141619" d="M 261.917969 263.21875 C 261.917969 263.769531 261.472656 264.214844 260.921875 264.214844 C 260.375 264.214844 259.929688 263.769531 259.929688 263.21875 C 259.929688 262.667969 260.375 262.222656 260.921875 262.222656 C 261.472656 262.222656 261.917969 262.667969 261.917969 263.21875 " fill-opacity="1" fill-rule="nonzero"/><path fill="#0a21c0" d="M 265.628906 263.21875 C 265.628906 263.769531 265.183594 264.214844 264.632812 264.214844 C 264.082031 264.214844 263.636719 263.769531 263.636719 263.21875 C 263.636719 262.667969 264.082031 262.222656 264.632812 262.222656 C 265.183594 262.222656 265.628906 262.667969 265.628906 263.21875 " fill-opacity="1" fill-rule="nonzero"/><path fill="#141619" d="M 297.851562 218.699219 L 288.160156 218.699219 C 287.863281 218.699219 287.621094 218.457031 287.621094 218.160156 C 287.621094 217.859375 287.863281 217.617188 288.160156 217.617188 L 297.851562 217.617188 C 298.148438 217.617188 298.390625 217.859375 298.390625 218.160156 C 298.390625 218.457031 298.148438 218.699219 297.851562 218.699219 " fill-opacity="1" fill-rule="nonzero"/><path fill="#141619" d="M 285.304688 218.699219 L 278.128906 218.699219 C 277.828125 218.699219 277.585938 218.457031 277.585938 218.160156 C 277.585938 217.859375 277.828125 217.617188 278.128906 217.617188 L 285.304688 217.617188 C 285.605469 217.617188 285.847656 217.859375 285.847656 218.160156 C 285.847656 218.457031 285.605469 218.699219 285.304688 218.699219 " fill-opacity="1" fill-rule="nonzero"/><path fill="#141619" d="M 297.851562 221.804688 L 293.035156 221.804688 C 292.734375 221.804688 292.492188 221.558594 292.492188 221.261719 C 292.492188 220.960938 292.734375 220.71875 293.035156 220.71875 L 297.851562 220.71875 C 298.148438 220.71875 298.390625 220.960938 298.390625 221.261719 C 298.390625 221.558594 298.148438 221.804688 297.851562 221.804688 " fill-opacity="1" fill-rule="nonzero"/><path fill="#141619" d="M 290.125 221.804688 L 278.128906 221.804688 C 277.828125 221.804688 277.585938 221.558594 277.585938 221.261719 C 277.585938 220.960938 277.828125 220.71875 278.128906 220.71875 L 290.125 220.71875 C 290.421875 220.71875 290.664062 220.960938 290.664062 221.261719 C 290.664062 221.558594 290.421875 221.804688 290.125 221.804688 " fill-opacity="1" fill-rule="nonzero"/><path fill="#141619" d="M 297.851562 224.902344 L 278.128906 224.902344 C 277.828125 224.902344 277.585938 224.664062 277.585938 224.363281 C 277.585938 224.0625 277.828125 223.820312 278.128906 223.820312 L 297.851562 223.820312 C 298.148438 223.820312 298.390625 224.0625 298.390625 224.363281 C 298.390625 224.664062 298.148438 224.902344 297.851562 224.902344 " fill-opacity="1" fill-rule="nonzero"/><path fill="#141619" d="M 235.972656 218.699219 L 226.285156 218.699219 C 225.988281 218.699219 225.746094 218.457031 225.746094 218.160156 C 225.746094 217.859375 225.988281 217.617188 226.285156 217.617188 L 235.972656 217.617188 C 236.273438 217.617188 236.515625 217.859375 236.515625 218.160156 C 236.515625 218.457031 236.273438 218.699219 235.972656 218.699219 " fill-opacity="1" fill-rule="nonzero"/><path fill="#141619" d="M 223.429688 218.699219 L 216.25 218.699219 C 215.953125 218.699219 215.710938 218.457031 215.710938 218.160156 C 215.710938 217.859375 215.953125 217.617188 216.25 217.617188 L 223.429688 217.617188 C 223.730469 217.617188 223.972656 217.859375 223.972656 218.160156 C 223.972656 218.457031 223.730469 218.699219 223.429688 218.699219 " fill-opacity="1" fill-rule="nonzero"/><path fill="#141619" d="M 235.972656 221.804688 L 230.074219 221.804688 C 229.777344 221.804688 229.535156 221.558594 229.535156 221.261719 C 229.535156 220.960938 229.777344 220.71875 230.074219 220.71875 L 235.972656 220.71875 C 236.273438 220.71875 236.515625 220.960938 236.515625 221.261719 C 236.515625 221.558594 236.273438 221.804688 235.972656 221.804688 " fill-opacity="1" fill-rule="nonzero"/><path fill="#141619" d="M 227.164062 221.804688 L 216.25 221.804688 C 215.953125 221.804688 215.710938 221.558594 215.710938 221.261719 C 215.710938 220.960938 215.953125 220.71875 216.25 220.71875 L 227.164062 220.71875 C 227.464844 220.71875 227.707031 220.960938 227.707031 221.261719 C 227.707031 221.558594 227.464844 221.804688 227.164062 221.804688 " fill-opacity="1" fill-rule="nonzero"/><path fill="#141619" d="M 136.316406 114.195312 C 136.015625 114.195312 135.773438 113.953125 135.773438 113.652344 L 135.773438 89.429688 C 135.773438 89.132812 136.015625 88.890625 136.316406 88.890625 C 136.613281 88.890625 136.855469 89.132812 136.855469 89.429688 L 136.855469 113.652344 C 136.855469 113.953125 136.613281 114.195312 136.316406 114.195312 " fill-opacity="1" fill-rule="nonzero"/><path fill="#141619" d="M 137.503906 89.429688 C 137.503906 90.089844 136.972656 90.621094 136.316406 90.621094 C 135.65625 90.621094 135.125 90.089844 135.125 89.429688 C 135.125 88.773438 135.65625 88.242188 136.316406 88.242188 C 136.972656 88.242188 137.503906 88.773438 137.503906 89.429688 " fill-opacity="1" fill-rule="nonzero"/><path fill="#141619" d="M 137.503906 113.652344 C 137.503906 114.308594 136.972656 114.84375 136.316406 114.84375 C 135.65625 114.84375 135.125 114.308594 135.125 113.652344 C 135.125 112.996094 135.65625 112.464844 136.316406 112.464844 C 136.972656 112.464844 137.503906 112.996094 137.503906 113.652344 " fill-opacity="1" fill-rule="nonzero"/><path fill="#141619" d="M 203.796875 150.691406 L 187.585938 150.691406 C 187.289062 150.691406 187.046875 150.449219 187.046875 150.148438 C 187.046875 149.847656 187.289062 149.609375 187.585938 149.609375 L 203.796875 149.609375 C 204.09375 149.609375 204.335938 149.847656 204.335938 150.148438 C 204.335938 150.449219 204.09375 150.691406 203.796875 150.691406 " fill-opacity="1" fill-rule="nonzero"/><path fill="#141619" d="M 187.585938 148.957031 C 188.242188 148.957031 188.777344 149.492188 188.777344 150.148438 C 188.777344 150.804688 188.242188 151.339844 187.585938 151.339844 C 186.929688 151.339844 186.394531 150.804688 186.394531 150.148438 C 186.394531 149.492188 186.929688 148.957031 187.585938 148.957031 " fill-opacity="1" fill-rule="nonzero"/><path fill="#141619" d="M 203.796875 148.957031 C 204.453125 148.957031 204.988281 149.492188 204.988281 150.148438 C 204.988281 150.804688 204.453125 151.339844 203.796875 151.339844 C 203.140625 151.339844 202.605469 150.804688 202.605469 150.148438 C 202.605469 149.492188 203.140625 148.957031 203.796875 148.957031 " fill-opacity="1" fill-rule="nonzero"/><path fill="#141619" d="M 256.125 203.140625 C 255.824219 203.140625 255.582031 202.898438 255.582031 202.601562 L 255.582031 186.386719 C 255.582031 186.089844 255.824219 185.847656 256.125 185.847656 C 256.421875 185.847656 256.667969 186.089844 256.667969 186.386719 L 256.667969 202.601562 C 256.667969 202.898438 256.421875 203.140625 256.125 203.140625 " fill-opacity="1" fill-rule="nonzero"/><path fill="#141619" d="M 254.933594 202.601562 C 254.933594 201.941406 255.46875 201.410156 256.125 201.410156 C 256.78125 201.410156 257.316406 201.941406 257.316406 202.601562 C 257.316406 203.257812 256.78125 203.789062 256.125 203.789062 C 255.46875 203.789062 254.933594 203.257812 254.933594 202.601562 " fill-opacity="1" fill-rule="nonzero"/><path fill="#141619" d="M 254.933594 186.386719 C 254.933594 185.730469 255.46875 185.199219 256.125 185.199219 C 256.78125 185.199219 257.316406 185.730469 257.316406 186.386719 C 257.316406 187.046875 256.78125 187.578125 256.125 187.578125 C 255.46875 187.578125 254.933594 187.046875 254.933594 186.386719 " fill-opacity="1" fill-rule="nonzero"/><path fill="#141619" d="M 57.589844 291.667969 C 50.03125 302.144531 40.464844 333.859375 36.15625 354.882812 C 70.960938 365.328125 101.691406 363.273438 129.308594 361.113281 C 131.589844 360.933594 133.285156 358.925781 133.074219 356.652344 C 130.613281 330.234375 126.179688 306.082031 126.179688 306.082031 L 57.589844 291.667969 " fill-opacity="1" fill-rule="nonzero"/><path fill="#f4f5f8" d="M 135.65625 215.910156 C 135.65625 215.910156 152.546875 227.28125 160.441406 225.140625 C 171.554688 222.128906 176.445312 193.820312 176.921875 191.304688 C 177.398438 188.792969 179.542969 176.050781 181.761719 171.296875 C 183.847656 166.828125 185.121094 162.253906 185.789062 159.441406 C 186.191406 157.746094 187.347656 156.925781 188.492188 157.097656 C 189.496094 157.253906 190.164062 158.042969 189.597656 160.570312 C 188.945312 163.492188 188.363281 166.433594 187.828125 168.933594 C 187.660156 169.722656 187.339844 170.464844 187.894531 169.90625 C 189.183594 168.601562 190.871094 167.324219 192.1875 167.800781 C 194.667969 168.699219 197.308594 177.058594 194.644531 183.679688 C 191.980469 190.300781 187.726562 189.558594 186.992188 192.675781 C 186.253906 195.792969 182.417969 235.335938 179.34375 242.574219 C 174.925781 252.984375 132.558594 245.386719 132.558594 245.386719 L 135.65625 215.910156 " fill-opacity="1" fill-rule="nonzero"/><path fill="#141619" d="M 133.246094 244.867188 C 145.3125 246.96875 175.355469 250.351562 178.761719 242.328125 C 180.910156 237.261719 183.496094 215.660156 185.042969 202.75 C 185.6875 197.359375 186.15625 193.464844 186.375 192.53125 C 186.742188 190.964844 187.828125 190.242188 189.085938 189.410156 C 190.652344 188.367188 192.597656 187.074219 194.058594 183.445312 C 195.816406 179.074219 195.148438 173.792969 193.78125 170.738281 C 193.222656 169.480469 192.542969 168.601562 191.972656 168.398438 C 191.179688 168.109375 189.855469 168.820312 188.34375 170.351562 C 188.1875 170.507812 187.777344 170.921875 187.292969 170.644531 C 186.808594 170.367188 186.941406 169.847656 187.085938 169.304688 C 187.125 169.148438 187.171875 168.976562 187.207031 168.800781 C 187.40625 167.878906 187.609375 166.894531 187.820312 165.875 C 188.1875 164.105469 188.566406 162.277344 188.980469 160.429688 C 189.328125 158.871094 189.121094 158.257812 188.96875 158.03125 C 188.890625 157.917969 188.753906 157.78125 188.394531 157.726562 C 187.503906 157.597656 186.703125 158.339844 186.402344 159.589844 C 185.679688 162.625 184.386719 167.167969 182.335938 171.5625 C 180.398438 175.707031 178.488281 186.238281 177.769531 190.199219 C 177.671875 190.722656 177.597656 191.140625 177.542969 191.421875 L 177.484375 191.753906 C 175.753906 201.066406 170.652344 223.027344 160.609375 225.75 C 153.484375 227.6875 139.796875 219.335938 136.175781 217.007812 Z M 160.308594 248.691406 C 147.640625 248.691406 133.457031 246.191406 132.445312 246.011719 L 131.867188 245.90625 L 135.136719 214.796875 L 136.007812 215.386719 C 136.160156 215.488281 150.070312 224.78125 158.195312 224.78125 C 158.945312 224.78125 159.640625 224.703125 160.277344 224.53125 C 169.890625 221.925781 174.925781 198.605469 176.238281 191.523438 L 176.300781 191.1875 C 176.355469 190.902344 176.429688 190.492188 176.523438 189.972656 C 177.25 185.964844 179.1875 175.320312 181.1875 171.027344 C 183.195312 166.730469 184.464844 162.273438 185.171875 159.292969 C 185.625 157.398438 187.027344 156.242188 188.585938 156.472656 C 189.214844 156.570312 189.695312 156.855469 190.011719 157.320312 C 190.5 158.03125 190.566406 159.140625 190.214844 160.707031 C 189.804688 162.542969 189.425781 164.367188 189.0625 166.128906 C 188.898438 166.917969 188.738281 167.683594 188.585938 168.421875 C 190.054688 167.226562 191.339844 166.820312 192.402344 167.207031 C 193.578125 167.632812 194.429688 169.078125 194.9375 170.21875 C 196.460938 173.625 197.140625 179.179688 195.234375 183.917969 C 193.625 187.914062 191.40625 189.386719 189.785156 190.464844 C 188.625 191.234375 187.863281 191.742188 187.605469 192.820312 C 187.402344 193.683594 186.914062 197.753906 186.296875 202.902344 C 184.746094 215.875 182.148438 237.589844 179.925781 242.820312 C 178 247.355469 169.554688 248.6875 160.308594 248.691406 " fill-opacity="1" fill-rule="nonzero"/><path fill="#f4f5f8" d="M 35.808594 229.359375 L 23.753906 257.476562 C 23.578125 257.890625 23.375 258.289062 23.175781 258.6875 C 19.320312 266.445312 23.414062 275.910156 31.847656 278.324219 L 68.214844 288.742188 L 69.175781 273.316406 L 49.695312 267.222656 C 45.929688 266.042969 44.238281 261.667969 46.234375 258.261719 L 49.609375 252.5 L 35.808594 229.359375 " fill-opacity="1" fill-rule="nonzero"/><path fill="#141619" d="M 35.902344 230.746094 L 24.335938 257.726562 C 24.167969 258.121094 23.976562 258.5 23.792969 258.867188 L 23.742188 258.96875 C 21.980469 262.515625 21.886719 266.636719 23.492188 270.277344 C 25.09375 273.910156 28.203125 276.625 32.023438 277.71875 L 67.628906 287.917969 L 68.511719 273.773438 L 49.507812 267.828125 C 47.527344 267.207031 45.960938 265.742188 45.214844 263.804688 C 44.464844 261.871094 44.640625 259.734375 45.6875 257.941406 L 48.875 252.503906 Z M 68.796875 289.566406 L 31.675781 278.933594 C 27.492188 277.738281 24.089844 274.765625 22.335938 270.789062 C 20.578125 266.804688 20.679688 262.292969 22.609375 258.40625 L 22.660156 258.304688 C 22.84375 257.9375 23.019531 257.589844 23.171875 257.230469 L 35.71875 227.96875 L 50.34375 252.496094 L 46.78125 258.582031 C 45.925781 260.039062 45.785156 261.773438 46.394531 263.347656 C 47.003906 264.921875 48.277344 266.117188 49.886719 266.617188 L 69.835938 272.859375 L 68.796875 289.566406 " fill-opacity="1" fill-rule="nonzero"/><path fill="#0a21c0" d="M 64.558594 200.523438 C 84.921875 191.4375 124.277344 193.320312 151.886719 222.957031 C 155.132812 226.441406 145.753906 252.722656 137.394531 250.914062 C 131.195312 249.574219 125.960938 248.058594 124.097656 250.128906 C 123.585938 250.695312 123.472656 251.367188 123.414062 251.75 C 121.078125 266.617188 125.632812 285.234375 125.632812 285.234375 C 128.359375 296.371094 131.304688 308.414062 127.105469 317.566406 C 115.753906 342.285156 57.710938 334.53125 44.136719 327.066406 C 38.550781 323.996094 44.417969 315.539062 48.523438 287.957031 C 51.585938 267.410156 53.367188 250.382812 49.578125 256.953125 C 47.71875 260.175781 28.261719 240.792969 30.292969 235.003906 C 34.746094 222.308594 42.582031 210.328125 64.558594 200.523438 " fill-opacity="1" fill-rule="nonzero"/><path fill="#141619" d="M 50.90625 254.886719 C 51.011719 254.886719 51.121094 254.90625 51.234375 254.941406 C 52.179688 255.273438 53.941406 255.886719 49.152344 288.046875 C 47.582031 298.574219 45.75 306.355469 44.414062 312.042969 C 42.285156 321.09375 41.402344 324.839844 44.441406 326.511719 C 54.59375 332.09375 88.351562 337.449219 109.734375 330.386719 C 118.171875 327.601562 123.820312 323.199219 126.527344 317.300781 C 130.636719 308.351562 127.78125 296.675781 125.019531 285.386719 C 124.972656 285.199219 120.460938 266.472656 122.789062 251.648438 C 122.851562 251.25 122.984375 250.421875 123.628906 249.703125 C 125.511719 247.613281 129.835938 248.578125 135.316406 249.808594 C 136.035156 249.96875 136.773438 250.132812 137.527344 250.296875 C 140.105469 250.855469 143.320312 248.125 146.34375 242.808594 C 150.78125 234.996094 153.003906 225.085938 151.421875 223.386719 C 135.753906 206.570312 117.738281 200.210938 105.386719 197.839844 C 90.824219 195.046875 75.65625 196.265625 64.816406 201.101562 C 41.875 211.339844 34.792969 224.089844 30.890625 235.210938 C 29.398438 239.460938 42.335938 253.847656 47.847656 256.378906 C 48.652344 256.746094 48.996094 256.695312 49.03125 256.636719 C 49.511719 255.800781 50.148438 254.886719 50.90625 254.886719 Z M 85.003906 335.007812 C 67.847656 335.007812 50.636719 331.363281 43.832031 327.621094 C 39.949219 325.488281 40.964844 321.183594 43.183594 311.753906 C 44.515625 306.089844 46.339844 298.335938 47.898438 287.863281 C 51.644531 262.707031 51.296875 257.328125 50.835938 256.261719 C 50.699219 256.398438 50.464844 256.679688 50.125 257.269531 C 49.804688 257.828125 49.054688 258.324219 47.316406 257.527344 C 42.230469 255.191406 27.730469 240.402344 29.695312 234.792969 C 33.6875 223.414062 40.921875 210.378906 64.300781 199.945312 C 75.367188 195.007812 90.816406 193.757812 105.625 196.597656 C 118.164062 199.003906 136.445312 205.457031 152.351562 222.523438 C 154.683594 225.027344 151.601562 236.117188 147.445312 243.433594 C 144.082031 249.347656 140.460938 252.226562 137.261719 251.535156 C 136.503906 251.371094 135.761719 251.203125 135.039062 251.042969 C 130.164062 249.949219 125.957031 249.007812 124.570312 250.550781 C 124.175781 250.988281 124.089844 251.523438 124.039062 251.84375 C 121.75 266.421875 126.203125 284.898438 126.25 285.085938 C 128.929688 296.050781 131.972656 308.480469 127.679688 317.832031 C 124.820312 324.058594 118.914062 328.691406 110.132812 331.589844 C 102.738281 334.03125 93.878906 335.007812 85.003906 335.007812 " fill-opacity="1" fill-rule="nonzero"/><path fill="#141619" d="M 84.664062 177.105469 C 84.664062 177.105469 70.136719 170.578125 68.429688 158.683594 C 67.230469 150.328125 72.21875 142.507812 80.113281 139.519531 C 84.113281 138.003906 90.375 137.363281 94.488281 139.003906 C 103.253906 142.5 104.808594 149.292969 104.808594 149.292969 C 104.808594 149.292969 97.507812 184.960938 84.664062 177.105469 " fill-opacity="1" fill-rule="nonzero"/><path fill="#141619" d="M 89.101562 138.414062 C 90.195312 136.726562 93.207031 128.195312 85.398438 124.710938 C 77.589844 121.226562 66.464844 121.507812 60.992188 127.867188 C 55.523438 134.226562 50.308594 145.042969 56.710938 151.84375 C 64.71875 160.351562 82.261719 146.363281 82.261719 146.363281 L 89.101562 138.414062 " fill-opacity="1" fill-rule="nonzero"/><path fill="#f4f5f8" d="M 104.324219 149.914062 C 104.324219 149.914062 105.285156 152.378906 105.722656 153.460938 C 106.140625 154.480469 107.074219 157.925781 110.402344 161.214844 C 110.722656 161.53125 110.75 162.046875 110.480469 162.402344 L 108.417969 165.160156 C 108.273438 165.351562 108.214844 165.59375 108.257812 165.828125 C 108.523438 167.285156 109.488281 172.640625 109.503906 173.667969 C 109.523438 174.863281 108.808594 176.058594 108.40625 176.394531 C 107.339844 177.285156 102.058594 177.605469 102.058594 177.605469 C 102.058594 177.605469 100.699219 178.003906 99.410156 186 C 98.5 191.628906 106.71875 199.523438 106.71875 199.523438 C 106.71875 199.523438 88.921875 205.449219 73.054688 199.648438 C 72.074219 199.289062 71.949219 197.894531 72.753906 197.21875 C 75.925781 194.550781 83.023438 185.769531 85.472656 177.679688 C 85.621094 177.195312 85.949219 176.792969 86.402344 176.570312 C 88.242188 175.667969 93 176.269531 91.648438 167.558594 C 91.613281 167.332031 91.519531 167.117188 91.382812 166.945312 C 90.21875 165.46875 84.867188 158.171875 93.460938 158.816406 C 99.136719 159.242188 100.648438 154.980469 101.039062 153.042969 C 101.167969 152.410156 101.542969 151.851562 102.074219 151.484375 L 104.324219 149.914062 " fill-opacity="1" fill-rule="nonzero"/><path fill="#141619" d="M 92.457031 159.410156 C 91.195312 159.410156 89.914062 159.628906 89.476562 160.445312 C 88.761719 161.796875 90.320312 164.582031 91.878906 166.550781 C 92.085938 166.816406 92.222656 167.128906 92.273438 167.460938 C 93.476562 175.222656 89.886719 176.203125 87.738281 176.792969 C 87.332031 176.902344 86.945312 177.007812 86.679688 177.136719 C 86.394531 177.277344 86.175781 177.542969 86.078125 177.859375 C 83.535156 186.265625 76.292969 195.070312 73.160156 197.703125 C 72.929688 197.898438 72.816406 198.226562 72.871094 198.535156 C 72.898438 198.683594 72.984375 198.945312 73.273438 199.050781 C 86.644531 203.941406 101.59375 200.332031 105.53125 199.21875 C 103.46875 197.0625 97.996094 190.796875 98.785156 185.902344 C 100.007812 178.328125 101.355469 177.152344 101.878906 177 C 101.925781 176.988281 101.972656 176.976562 102.019531 176.976562 C 104.125 176.847656 107.375 176.429688 108 175.910156 C 108.269531 175.6875 108.886719 174.660156 108.871094 173.679688 C 108.859375 172.90625 108.226562 169.175781 107.636719 165.941406 C 107.5625 165.535156 107.664062 165.113281 107.910156 164.78125 L 109.972656 162.023438 C 110.054688 161.914062 110.046875 161.757812 109.957031 161.667969 C 106.960938 158.699219 105.851562 155.652344 105.320312 154.1875 C 105.25 153.988281 105.191406 153.824219 105.136719 153.699219 C 104.855469 153 104.347656 151.710938 104.027344 150.894531 L 102.4375 152 C 102.03125 152.285156 101.753906 152.699219 101.660156 153.167969 C 101.246094 155.210938 99.617188 159.910156 93.414062 159.445312 C 93.105469 159.425781 92.78125 159.410156 92.457031 159.410156 Z M 88.574219 202.808594 C 83.578125 202.808594 78.09375 202.164062 72.839844 200.238281 C 72.203125 200.007812 71.75 199.453125 71.625 198.753906 C 71.492188 197.996094 71.769531 197.222656 72.347656 196.734375 C 75.570312 194.023438 82.515625 185.269531 84.867188 177.496094 C 85.066406 176.839844 85.523438 176.292969 86.125 176 C 86.496094 175.820312 86.9375 175.699219 87.40625 175.570312 C 89.476562 175.003906 92.054688 174.300781 91.023438 167.65625 C 91.003906 167.539062 90.957031 167.425781 90.882812 167.335938 C 89.71875 165.855469 87.132812 162.164062 88.359375 159.851562 C 89.058594 158.542969 90.789062 157.980469 93.507812 158.183594 C 98.523438 158.566406 99.988281 155.046875 100.417969 152.917969 C 100.578125 152.128906 101.039062 151.433594 101.714844 150.960938 L 103.960938 149.398438 C 104.121094 149.285156 104.324219 149.253906 104.507812 149.3125 C 104.691406 149.367188 104.84375 149.507812 104.914062 149.6875 C 104.921875 149.710938 105.875 152.160156 106.308594 153.21875 C 106.367188 153.359375 106.433594 153.535156 106.511719 153.753906 C 107.011719 155.132812 108.050781 158 110.847656 160.765625 C 111.386719 161.300781 111.445312 162.167969 110.988281 162.78125 L 108.921875 165.539062 C 108.886719 165.589844 108.871094 165.652344 108.882812 165.714844 C 109.253906 167.753906 110.117188 172.617188 110.136719 173.660156 C 110.160156 175.023438 109.378906 176.40625 108.808594 176.882812 C 107.710938 177.796875 103.523438 178.144531 102.285156 178.226562 C 102.023438 178.511719 101.023438 179.964844 100.035156 186.101562 C 99.1875 191.34375 107.078125 198.992188 107.160156 199.070312 C 107.316406 199.222656 107.386719 199.449219 107.335938 199.664062 C 107.289062 199.878906 107.128906 200.054688 106.921875 200.125 C 106.800781 200.164062 98.691406 202.808594 88.574219 202.808594 " fill-opacity="1" fill-rule="nonzero"/><path fill="#141619" d="M 94.742188 165.667969 Z M 94.71875 165.738281 Z M 92.96875 167.765625 C 92.09375 167.765625 90.890625 167.414062 89.832031 165.890625 C 89.632812 165.601562 89.707031 165.210938 89.992188 165.011719 C 90.28125 164.8125 90.675781 164.882812 90.875 165.167969 C 91.515625 166.09375 92.257812 166.546875 93.070312 166.496094 C 93.929688 166.449219 94.609375 165.882812 94.734375 165.683594 C 94.828125 165.371094 95.140625 165.179688 95.464844 165.246094 C 95.808594 165.316406 96.03125 165.648438 95.960938 165.992188 C 95.835938 166.597656 94.816406 167.453125 93.640625 167.695312 C 93.453125 167.734375 93.226562 167.765625 92.96875 167.765625 " fill-opacity="1" fill-rule="nonzero"/><path fill="#141619" d="M 109.742188 160.828125 C 109.445312 160.828125 109.179688 160.621094 109.121094 160.316406 C 109.054688 159.976562 109.277344 159.640625 109.621094 159.574219 C 110.660156 159.371094 111.363281 158.882812 111.773438 158.085938 C 112.761719 156.171875 111.8125 152.824219 111.160156 151.164062 L 93.546875 157.492188 C 93.214844 157.609375 92.855469 157.4375 92.734375 157.113281 C 92.617188 156.78125 92.789062 156.417969 93.117188 156.300781 L 111.300781 149.769531 C 111.609375 149.65625 111.953125 149.800781 112.089844 150.101562 C 112.191406 150.324219 114.511719 155.53125 112.898438 158.664062 C 112.308594 159.8125 111.289062 160.535156 109.863281 160.816406 C 109.824219 160.824219 109.78125 160.828125 109.742188 160.828125 " fill-opacity="1" fill-rule="nonzero"/><path fill="#f4f5f8" d="M 189.84375 299.433594 C 195.867188 298.664062 201.375 302.921875 202.144531 308.945312 C 202.917969 314.96875 198.660156 320.480469 192.636719 321.25 C 186.613281 322.023438 181.105469 317.765625 180.332031 311.742188 C 179.5625 305.71875 183.820312 300.207031 189.84375 299.433594 Z M 169.050781 311.035156 L 169.59375 315.269531 L 174.238281 315.710938 C 174.539062 316.667969 174.914062 317.589844 175.363281 318.464844 L 172.367188 322.035156 L 174.957031 325.433594 L 179.199219 323.492188 C 179.929688 324.164062 180.71875 324.769531 181.550781 325.3125 L 180.742188 329.90625 L 184.683594 331.554688 L 187.382812 327.757812 C 188.34375 327.96875 189.328125 328.101562 190.332031 328.148438 L 191.929688 332.535156 L 196.164062 331.992188 L 196.605469 327.347656 C 197.5625 327.046875 198.484375 326.667969 199.359375 326.222656 L 202.929688 329.21875 L 206.328125 326.628906 L 204.386719 322.382812 C 205.054688 321.652344 205.664062 320.863281 206.203125 320.03125 L 210.796875 320.84375 L 212.449219 316.902344 L 208.648438 314.203125 C 208.863281 313.242188 208.996094 312.253906 209.042969 311.25 L 213.425781 309.652344 L 212.882812 305.417969 L 208.242188 304.976562 C 207.9375 304.015625 207.5625 303.09375 207.117188 302.222656 L 210.109375 298.652344 L 207.519531 295.25 L 203.277344 297.195312 C 202.546875 296.523438 201.757812 295.914062 200.925781 295.375 L 201.734375 290.78125 L 197.792969 289.132812 L 195.09375 292.929688 C 194.132812 292.714844 193.148438 292.585938 192.148438 292.535156 L 190.550781 288.152344 L 186.3125 288.695312 L 185.875 293.339844 C 184.914062 293.640625 183.992188 294.015625 183.117188 294.464844 L 179.546875 291.46875 L 176.152344 294.058594 L 178.09375 298.300781 C 177.421875 299.035156 176.816406 299.820312 176.277344 300.65625 L 171.679688 299.84375 L 170.03125 303.785156 L 173.828125 306.484375 C 173.617188 307.445312 173.484375 308.433594 173.433594 309.4375 L 169.050781 311.035156 " fill-opacity="1" fill-rule="nonzero"/><path fill="#0a21c0" d="M 189.84375 299.433594 Z M 191.261719 299.980469 C 190.816406 299.980469 190.371094 300.003906 189.921875 300.0625 C 187.175781 300.414062 184.734375 301.816406 183.039062 304.007812 C 181.347656 306.195312 180.609375 308.914062 180.960938 311.660156 C 181.3125 314.40625 182.714844 316.851562 184.902344 318.542969 C 187.09375 320.234375 189.8125 320.976562 192.554688 320.621094 C 198.222656 319.898438 202.242188 314.695312 201.519531 309.027344 C 201.164062 306.28125 199.765625 303.835938 197.578125 302.140625 C 195.742188 300.726562 193.539062 299.980469 191.261719 299.980469 Z M 191.214844 321.976562 C 188.65625 321.976562 186.1875 321.136719 184.128906 319.542969 C 181.671875 317.648438 180.101562 314.902344 179.707031 311.820312 C 179.308594 308.738281 180.136719 305.691406 182.039062 303.230469 C 183.9375 300.773438 186.679688 299.203125 189.761719 298.808594 C 192.84375 298.410156 195.894531 299.242188 198.347656 301.140625 C 200.808594 303.039062 202.378906 305.785156 202.773438 308.867188 C 203.585938 315.226562 199.078125 321.0625 192.71875 321.878906 C 192.214844 321.945312 191.714844 321.976562 191.214844 321.976562 Z M 187.382812 327.125 C 187.425781 327.125 187.472656 327.128906 187.519531 327.136719 C 188.4375 327.34375 189.394531 327.46875 190.363281 327.519531 C 190.617188 327.53125 190.839844 327.695312 190.925781 327.933594 L 192.351562 331.84375 L 195.582031 331.425781 L 195.976562 327.289062 C 196 327.03125 196.171875 326.820312 196.414062 326.742188 C 197.339844 326.453125 198.234375 326.085938 199.070312 325.660156 C 199.296875 325.539062 199.570312 325.574219 199.765625 325.738281 L 202.949219 328.40625 L 205.539062 326.433594 L 203.808594 322.648438 C 203.703125 322.417969 203.746094 322.144531 203.917969 321.957031 C 204.5625 321.25 205.152344 320.488281 205.671875 319.6875 C 205.8125 319.472656 206.0625 319.367188 206.3125 319.410156 L 210.410156 320.128906 L 211.667969 317.121094 L 208.28125 314.714844 C 208.074219 314.570312 207.976562 314.3125 208.03125 314.0625 C 208.234375 313.144531 208.363281 312.1875 208.410156 311.21875 C 208.425781 310.964844 208.585938 310.742188 208.828125 310.65625 L 212.734375 309.230469 L 212.320312 306 L 208.179688 305.609375 C 207.925781 305.582031 207.710938 305.410156 207.636719 305.164062 C 207.34375 304.242188 206.980469 303.347656 206.550781 302.511719 C 206.4375 302.28125 206.46875 302.007812 206.628906 301.8125 L 209.296875 298.632812 L 207.324219 296.039062 L 203.542969 297.769531 C 203.308594 297.875 203.039062 297.832031 202.851562 297.664062 C 202.144531 297.015625 201.382812 296.425781 200.582031 295.90625 C 200.367188 295.769531 200.257812 295.515625 200.304688 295.265625 L 201.023438 291.167969 L 198.019531 289.910156 L 195.613281 293.296875 C 195.464844 293.503906 195.207031 293.601562 194.960938 293.546875 C 194.039062 293.34375 193.082031 293.214844 192.113281 293.167969 C 191.859375 293.15625 191.636719 292.992188 191.550781 292.753906 L 190.128906 288.84375 L 186.894531 289.257812 L 186.503906 293.398438 C 186.480469 293.652344 186.304688 293.867188 186.0625 293.941406 C 185.140625 294.234375 184.242188 294.597656 183.40625 295.027344 C 183.179688 295.144531 182.90625 295.113281 182.710938 294.949219 L 179.53125 292.28125 L 176.9375 294.257812 L 178.667969 298.039062 C 178.773438 298.269531 178.730469 298.542969 178.558594 298.730469 C 177.914062 299.433594 177.324219 300.195312 176.804688 301 C 176.667969 301.210938 176.414062 301.320312 176.164062 301.277344 L 172.066406 300.554688 L 170.8125 303.5625 L 174.195312 305.96875 C 174.402344 306.117188 174.503906 306.375 174.445312 306.625 C 174.242188 307.542969 174.117188 308.5 174.066406 309.46875 C 174.054688 309.722656 173.890625 309.945312 173.652344 310.03125 L 169.742188 311.453125 L 170.15625 314.6875 L 174.296875 315.078125 C 174.550781 315.105469 174.765625 315.277344 174.84375 315.519531 C 175.132812 316.445312 175.5 317.339844 175.925781 318.175781 C 176.042969 318.402344 176.011719 318.679688 175.847656 318.875 L 173.179688 322.054688 L 175.15625 324.648438 L 178.9375 322.914062 C 179.167969 322.8125 179.441406 322.851562 179.628906 323.023438 C 180.332031 323.671875 181.09375 324.257812 181.894531 324.777344 C 182.109375 324.917969 182.21875 325.167969 182.175781 325.421875 L 181.453125 329.519531 L 184.460938 330.773438 L 186.867188 327.390625 C 186.988281 327.21875 187.179688 327.125 187.382812 327.125 Z M 191.929688 333.167969 C 191.664062 333.167969 191.425781 333.003906 191.335938 332.75 L 189.878906 328.757812 C 189.128906 328.703125 188.382812 328.605469 187.660156 328.460938 L 185.199219 331.921875 C 185.027344 332.164062 184.710938 332.253906 184.4375 332.140625 L 180.496094 330.488281 C 180.222656 330.378906 180.066406 330.089844 180.117188 329.796875 L 180.855469 325.609375 C 180.238281 325.1875 179.648438 324.730469 179.085938 324.242188 L 175.222656 326.011719 C 174.953125 326.132812 174.632812 326.054688 174.453125 325.816406 L 171.863281 322.421875 C 171.683594 322.183594 171.695312 321.855469 171.882812 321.628906 L 174.609375 318.375 C 174.292969 317.710938 174.007812 317.015625 173.765625 316.300781 L 169.53125 315.898438 C 169.238281 315.875 169.003906 315.644531 168.964844 315.351562 L 168.425781 311.113281 C 168.386719 310.820312 168.554688 310.539062 168.835938 310.4375 L 172.828125 308.980469 C 172.882812 308.230469 172.980469 307.488281 173.121094 306.761719 L 169.664062 304.304688 C 169.421875 304.128906 169.332031 303.816406 169.445312 303.542969 L 171.09375 299.601562 C 171.210938 299.328125 171.496094 299.171875 171.789062 299.222656 L 175.976562 299.957031 C 176.394531 299.34375 176.851562 298.75 177.34375 298.1875 L 175.574219 294.320312 C 175.453125 294.050781 175.53125 293.734375 175.765625 293.554688 L 179.164062 290.964844 C 179.398438 290.785156 179.730469 290.792969 179.953125 290.984375 L 183.207031 293.714844 C 183.871094 293.390625 184.570312 293.109375 185.28125 292.867188 L 185.683594 288.636719 C 185.710938 288.339844 185.9375 288.105469 186.230469 288.066406 L 190.46875 287.523438 C 190.765625 287.488281 191.042969 287.65625 191.144531 287.9375 L 192.597656 291.929688 C 193.351562 291.984375 194.09375 292.082031 194.820312 292.222656 L 197.28125 288.761719 C 197.449219 288.523438 197.765625 288.433594 198.039062 288.546875 L 201.980469 290.195312 C 202.253906 290.308594 202.410156 290.597656 202.359375 290.890625 L 201.621094 295.078125 C 202.238281 295.496094 202.832031 295.957031 203.390625 296.445312 L 207.257812 294.675781 C 207.527344 294.554688 207.847656 294.632812 208.023438 294.867188 L 210.613281 298.265625 C 210.792969 298.503906 210.785156 298.832031 210.597656 299.054688 L 207.867188 302.3125 C 208.1875 302.976562 208.46875 303.671875 208.714844 304.386719 L 212.941406 304.785156 C 213.238281 304.8125 213.476562 305.042969 213.511719 305.335938 L 214.054688 309.574219 C 214.09375 309.867188 213.921875 310.148438 213.644531 310.25 L 209.652344 311.703125 C 209.59375 312.457031 209.496094 313.199219 209.355469 313.925781 L 212.816406 316.382812 C 213.054688 316.558594 213.144531 316.871094 213.03125 317.144531 L 211.382812 321.085938 C 211.269531 321.359375 210.980469 321.511719 210.6875 321.464844 L 206.5 320.730469 C 206.082031 321.34375 205.625 321.9375 205.132812 322.496094 L 206.902344 326.367188 C 207.027344 326.632812 206.949219 326.953125 206.710938 327.132812 L 203.3125 329.722656 C 203.078125 329.902344 202.75 329.894531 202.523438 329.703125 L 199.269531 326.972656 C 198.605469 327.296875 197.910156 327.578125 197.195312 327.820312 L 196.796875 332.054688 C 196.765625 332.347656 196.539062 332.582031 196.246094 332.621094 L 192.007812 333.164062 C 191.980469 333.167969 191.957031 333.167969 191.929688 333.167969 " fill-opacity="1" fill-rule="nonzero"/><path fill="#f4f5f8" d="M 219.90625 269.121094 C 225.128906 268.453125 229.90625 272.144531 230.578125 277.371094 C 231.246094 282.597656 227.554688 287.375 222.328125 288.042969 C 217.101562 288.714844 212.324219 285.019531 211.65625 279.792969 C 210.984375 274.566406 214.679688 269.789062 219.90625 269.121094 Z M 201.871094 279.179688 L 202.339844 282.855469 L 206.371094 283.238281 C 206.628906 284.070312 206.953125 284.867188 207.34375 285.628906 L 204.746094 288.726562 L 206.992188 291.671875 L 210.671875 289.988281 C 211.308594 290.570312 211.992188 291.097656 212.714844 291.566406 L 212.011719 295.554688 L 215.429688 296.984375 L 217.769531 293.6875 C 218.605469 293.871094 219.460938 293.988281 220.328125 294.03125 L 221.714844 297.832031 L 225.390625 297.363281 L 225.769531 293.332031 C 226.601562 293.070312 227.402344 292.746094 228.160156 292.355469 L 231.257812 294.957031 L 234.203125 292.707031 L 232.519531 289.027344 C 233.101562 288.394531 233.628906 287.710938 234.097656 286.988281 L 238.085938 287.691406 L 239.511719 284.273438 L 236.21875 281.929688 C 236.402344 281.097656 236.515625 280.242188 236.5625 279.371094 L 240.363281 277.984375 L 239.890625 274.308594 L 235.863281 273.925781 C 235.601562 273.09375 235.277344 272.296875 234.890625 271.535156 L 237.484375 268.441406 L 235.242188 265.492188 L 231.558594 267.175781 C 230.925781 266.59375 230.242188 266.066406 229.519531 265.597656 L 230.222656 261.613281 L 226.804688 260.183594 L 224.460938 263.476562 C 223.628906 263.292969 222.773438 263.179688 221.902344 263.136719 L 220.515625 259.332031 L 216.84375 259.800781 L 216.460938 263.832031 C 215.628906 264.09375 214.832031 264.417969 214.070312 264.808594 L 210.976562 262.210938 L 208.027344 264.457031 L 209.710938 268.136719 C 209.128906 268.773438 208.605469 269.453125 208.136719 270.175781 L 204.148438 269.476562 L 202.71875 272.894531 L 206.015625 275.234375 C 205.828125 276.070312 205.714844 276.925781 205.671875 277.796875 L 201.871094 279.179688 " fill-opacity="1" fill-rule="nonzero"/><path fill="#0a21c0" d="M 219.90625 269.121094 L 219.910156 269.121094 Z M 221.136719 269.675781 C 220.753906 269.675781 220.371094 269.699219 219.984375 269.75 C 217.625 270.050781 215.527344 271.253906 214.070312 273.136719 C 212.617188 275.019531 211.980469 277.355469 212.285156 279.714844 C 212.910156 284.585938 217.378906 288.042969 222.25 287.417969 C 227.117188 286.792969 230.574219 282.324219 229.949219 277.453125 C 229.648438 275.089844 228.445312 272.988281 226.5625 271.535156 C 224.988281 270.320312 223.09375 269.675781 221.136719 269.675781 Z M 221.109375 288.757812 C 216.070312 288.757812 211.683594 285.003906 211.027344 279.875 C 210.683594 277.179688 211.40625 274.511719 213.066406 272.363281 C 214.730469 270.210938 217.128906 268.839844 219.824219 268.492188 C 222.519531 268.148438 225.1875 268.871094 227.335938 270.535156 C 229.484375 272.195312 230.859375 274.59375 231.203125 277.289062 C 231.917969 282.855469 227.972656 287.960938 222.410156 288.675781 C 221.972656 288.730469 221.539062 288.757812 221.109375 288.757812 Z M 217.769531 293.054688 C 217.816406 293.054688 217.863281 293.058594 217.90625 293.070312 C 218.703125 293.246094 219.527344 293.355469 220.359375 293.398438 C 220.613281 293.410156 220.835938 293.574219 220.925781 293.8125 L 222.136719 297.140625 L 224.804688 296.800781 L 225.140625 293.273438 C 225.164062 293.019531 225.339844 292.804688 225.582031 292.726562 C 226.378906 292.476562 227.148438 292.164062 227.871094 291.792969 C 228.097656 291.675781 228.371094 291.707031 228.566406 291.871094 L 231.277344 294.144531 L 233.417969 292.511719 L 231.945312 289.292969 C 231.839844 289.058594 231.882812 288.789062 232.054688 288.601562 C 232.609375 287.992188 233.121094 287.332031 233.566406 286.644531 C 233.703125 286.429688 233.957031 286.320312 234.207031 286.363281 L 237.695312 286.980469 L 238.734375 284.492188 L 235.851562 282.445312 C 235.644531 282.296875 235.546875 282.039062 235.601562 281.792969 C 235.777344 281 235.886719 280.171875 235.929688 279.335938 C 235.941406 279.082031 236.105469 278.863281 236.34375 278.777344 L 239.671875 277.5625 L 239.328125 274.890625 L 235.804688 274.558594 C 235.550781 274.535156 235.335938 274.359375 235.261719 274.117188 C 235.007812 273.320312 234.695312 272.546875 234.324219 271.824219 C 234.207031 271.597656 234.238281 271.324219 234.402344 271.128906 L 236.675781 268.421875 L 235.042969 266.277344 L 231.824219 267.75 C 231.589844 267.855469 231.320312 267.8125 231.132812 267.640625 C 230.523438 267.089844 229.867188 266.578125 229.175781 266.132812 C 228.960938 265.992188 228.851562 265.738281 228.898438 265.492188 L 229.511719 262 L 227.027344 260.960938 L 224.980469 263.84375 C 224.828125 264.050781 224.574219 264.148438 224.324219 264.097656 C 223.53125 263.917969 222.707031 263.808594 221.871094 263.769531 C 221.617188 263.753906 221.394531 263.59375 221.308594 263.351562 L 220.097656 260.023438 L 217.425781 260.367188 L 217.09375 263.890625 C 217.066406 264.144531 216.894531 264.359375 216.652344 264.4375 C 215.851562 264.6875 215.082031 265.003906 214.359375 265.371094 C 214.132812 265.488281 213.859375 265.457031 213.664062 265.292969 L 210.957031 263.019531 L 208.8125 264.652344 L 210.289062 267.875 C 210.394531 268.105469 210.351562 268.378906 210.179688 268.566406 C 209.625 269.171875 209.113281 269.832031 208.667969 270.523438 C 208.527344 270.738281 208.277344 270.84375 208.023438 270.800781 L 204.539062 270.1875 L 203.496094 272.671875 L 206.378906 274.71875 C 206.589844 274.867188 206.6875 275.125 206.632812 275.375 C 206.457031 276.164062 206.347656 276.992188 206.304688 277.828125 C 206.292969 278.082031 206.128906 278.304688 205.886719 278.390625 L 202.5625 279.601562 L 202.90625 282.273438 L 206.429688 282.605469 C 206.679688 282.632812 206.894531 282.804688 206.972656 283.046875 C 207.226562 283.847656 207.539062 284.617188 207.90625 285.339844 C 208.023438 285.566406 207.992188 285.839844 207.828125 286.035156 L 205.558594 288.746094 L 207.1875 290.886719 L 210.410156 289.414062 C 210.640625 289.308594 210.914062 289.347656 211.101562 289.519531 C 211.707031 290.078125 212.367188 290.585938 213.058594 291.035156 C 213.269531 291.171875 213.382812 291.425781 213.335938 291.675781 L 212.722656 295.164062 L 215.207031 296.203125 L 217.253906 293.320312 C 217.375 293.152344 217.570312 293.054688 217.769531 293.054688 Z M 221.714844 298.46875 C 221.449219 298.46875 221.210938 298.304688 221.121094 298.050781 L 219.875 294.636719 C 219.257812 294.589844 218.644531 294.507812 218.046875 294.390625 L 215.945312 297.351562 C 215.773438 297.589844 215.457031 297.679688 215.183594 297.566406 L 211.765625 296.136719 C 211.492188 296.023438 211.335938 295.734375 211.386719 295.441406 L 212.015625 291.863281 C 211.511719 291.515625 211.023438 291.140625 210.5625 290.738281 L 207.253906 292.25 C 206.988281 292.371094 206.667969 292.292969 206.488281 292.058594 L 204.246094 289.109375 C 204.0625 288.875 204.070312 288.546875 204.261719 288.316406 L 206.59375 285.539062 C 206.332031 284.988281 206.097656 284.417969 205.898438 283.828125 L 202.28125 283.488281 C 201.988281 283.460938 201.75 283.230469 201.710938 282.9375 L 201.238281 279.261719 C 201.203125 278.96875 201.375 278.6875 201.652344 278.585938 L 205.066406 277.34375 C 205.113281 276.722656 205.191406 276.109375 205.308594 275.511719 L 202.351562 273.410156 C 202.109375 273.238281 202.019531 272.921875 202.136719 272.648438 L 203.566406 269.230469 C 203.679688 268.957031 203.964844 268.800781 204.257812 268.851562 L 207.835938 269.484375 C 208.183594 268.976562 208.5625 268.488281 208.964844 268.023438 L 207.453125 264.71875 C 207.328125 264.449219 207.410156 264.132812 207.644531 263.953125 L 210.589844 261.707031 C 210.824219 261.527344 211.152344 261.535156 211.382812 261.726562 L 214.164062 264.058594 C 214.710938 263.796875 215.285156 263.5625 215.871094 263.359375 L 216.210938 259.742188 C 216.242188 259.449219 216.46875 259.214844 216.761719 259.175781 L 220.4375 258.703125 C 220.730469 258.664062 221.011719 258.835938 221.113281 259.117188 L 222.355469 262.527344 C 222.972656 262.578125 223.585938 262.65625 224.183594 262.773438 L 226.289062 259.816406 C 226.460938 259.574219 226.777344 259.484375 227.050781 259.597656 L 230.464844 261.027344 C 230.738281 261.140625 230.894531 261.429688 230.84375 261.722656 L 230.214844 265.300781 C 230.722656 265.648438 231.210938 266.027344 231.671875 266.425781 L 234.976562 264.917969 C 235.246094 264.792969 235.5625 264.871094 235.746094 265.109375 L 237.988281 268.054688 C 238.167969 268.292969 238.160156 268.621094 237.972656 268.847656 L 235.640625 271.628906 C 235.902344 272.175781 236.132812 272.75 236.335938 273.335938 L 239.949219 273.679688 C 240.246094 273.707031 240.484375 273.933594 240.519531 274.226562 L 240.992188 277.90625 C 241.027344 278.199219 240.859375 278.480469 240.582031 278.582031 L 237.167969 279.820312 C 237.121094 280.441406 237.039062 281.054688 236.921875 281.652344 L 239.882812 283.753906 C 240.121094 283.925781 240.210938 284.242188 240.097656 284.515625 L 238.667969 287.933594 C 238.554688 288.207031 238.265625 288.359375 237.972656 288.316406 L 234.394531 287.683594 C 234.046875 288.1875 233.671875 288.675781 233.269531 289.140625 L 234.78125 292.445312 C 234.90625 292.714844 234.824219 293.035156 234.589844 293.210938 L 231.640625 295.457031 C 231.40625 295.636719 231.078125 295.628906 230.851562 295.441406 L 228.070312 293.109375 C 227.523438 293.371094 226.949219 293.605469 226.363281 293.804688 L 226.019531 297.421875 C 225.992188 297.71875 225.761719 297.953125 225.472656 297.992188 L 221.796875 298.460938 C 221.769531 298.464844 221.738281 298.46875 221.714844 298.46875 " fill-opacity="1" fill-rule="nonzero"/><path fill="#f4f5f8" d="M 242.40625 310.550781 C 250.820312 308.492188 259.308594 313.644531 261.363281 322.058594 C 263.425781 330.472656 258.273438 338.964844 249.859375 341.019531 C 241.445312 343.078125 232.957031 337.925781 230.898438 329.511719 C 228.839844 321.097656 233.992188 312.609375 242.40625 310.550781 Z M 214.796875 330.3125 L 216.242188 336.230469 L 222.898438 336.113281 C 223.476562 337.421875 224.15625 338.667969 224.929688 339.835938 L 221.257812 345.378906 L 225.472656 349.78125 L 231.171875 346.347656 C 232.320312 347.179688 233.53125 347.917969 234.796875 348.546875 L 234.386719 355.191406 L 240.234375 356.898438 L 243.453125 351.082031 C 244.847656 351.230469 246.265625 351.257812 247.695312 351.167969 L 250.660156 357.128906 L 256.578125 355.679688 L 256.457031 349.023438 C 257.769531 348.445312 259.015625 347.765625 260.183594 346.992188 L 265.722656 350.664062 L 270.125 346.449219 L 266.691406 340.746094 C 267.523438 339.601562 268.261719 338.390625 268.890625 337.125 L 275.535156 337.535156 L 277.242188 331.683594 L 271.425781 328.464844 C 271.574219 327.070312 271.601562 325.652344 271.511719 324.222656 L 277.46875 321.257812 L 276.023438 315.339844 L 269.367188 315.457031 C 268.789062 314.148438 268.109375 312.898438 267.335938 311.730469 L 271.003906 306.191406 L 266.796875 301.789062 L 261.089844 305.222656 C 259.945312 304.390625 258.734375 303.652344 257.46875 303.019531 L 257.878906 296.378906 L 252.03125 294.671875 L 248.8125 300.488281 C 247.417969 300.339844 246 300.3125 244.570312 300.402344 L 241.605469 294.445312 L 235.6875 295.890625 L 235.808594 302.542969 C 234.496094 303.125 233.25 303.804688 232.082031 304.582031 L 226.542969 300.90625 L 222.140625 305.121094 L 225.574219 310.824219 C 224.742188 311.96875 224.003906 313.183594 223.375 314.449219 L 216.730469 314.035156 L 215.023438 319.886719 L 220.839844 323.105469 C 220.691406 324.5 220.664062 325.917969 220.753906 327.347656 L 214.796875 330.3125 " fill-opacity="1" fill-rule="nonzero"/><path fill="#0a21c0" d="M 242.40625 310.550781 L 242.558594 311.164062 C 234.496094 313.136719 229.542969 321.300781 231.515625 329.363281 C 232.46875 333.265625 234.886719 336.566406 238.324219 338.652344 C 241.761719 340.738281 245.804688 341.359375 249.707031 340.40625 C 257.769531 338.433594 262.722656 330.273438 260.75 322.210938 C 259.796875 318.304688 257.378906 315.003906 253.941406 312.917969 C 250.503906 310.832031 246.460938 310.207031 242.558594 311.164062 Z M 246.101562 342.109375 C 243.152344 342.109375 240.25 341.304688 237.667969 339.734375 C 233.941406 337.472656 231.320312 333.894531 230.285156 329.660156 C 228.148438 320.921875 233.515625 312.070312 242.257812 309.933594 C 246.492188 308.898438 250.875 309.574219 254.597656 311.835938 C 258.324219 314.097656 260.945312 317.675781 261.980469 321.90625 C 264.117188 330.648438 258.746094 339.5 250.007812 341.636719 C 248.714844 341.953125 247.402344 342.109375 246.101562 342.109375 Z M 247.699219 350.535156 C 247.9375 350.535156 248.15625 350.671875 248.265625 350.886719 L 251 356.390625 L 255.9375 355.183594 L 255.824219 349.035156 C 255.820312 348.78125 255.96875 348.550781 256.203125 348.445312 C 257.480469 347.878906 258.703125 347.210938 259.832031 346.460938 C 260.046875 346.320312 260.320312 346.320312 260.535156 346.460938 L 265.652344 349.855469 L 269.320312 346.34375 L 266.148438 341.074219 C 266.019531 340.855469 266.03125 340.578125 266.179688 340.375 C 266.992188 339.261719 267.710938 338.070312 268.324219 336.839844 C 268.4375 336.613281 268.679688 336.476562 268.933594 336.488281 L 275.066406 336.871094 L 276.492188 331.992188 L 271.117188 329.019531 C 270.898438 328.898438 270.769531 328.652344 270.796875 328.398438 C 270.9375 327.050781 270.96875 325.65625 270.878906 324.261719 C 270.863281 324.007812 271.003906 323.765625 271.230469 323.652344 L 276.734375 320.914062 L 275.527344 315.980469 L 269.378906 316.089844 C 269.132812 316.105469 268.894531 315.945312 268.789062 315.714844 C 268.222656 314.433594 267.558594 313.210938 266.804688 312.082031 C 266.664062 311.871094 266.664062 311.59375 266.804688 311.382812 L 270.199219 306.265625 L 266.6875 302.59375 L 261.417969 305.765625 C 261.199219 305.894531 260.925781 305.882812 260.71875 305.734375 C 259.605469 304.925781 258.417969 304.203125 257.183594 303.589844 C 256.957031 303.472656 256.820312 303.238281 256.835938 302.980469 L 257.214844 296.84375 L 252.339844 295.421875 L 249.367188 300.792969 C 249.242188 301.019531 248.996094 301.148438 248.746094 301.117188 C 247.394531 300.972656 246.003906 300.945312 244.609375 301.035156 C 244.355469 301.042969 244.113281 300.914062 244 300.683594 L 241.265625 295.179688 L 236.328125 296.386719 L 236.441406 302.535156 C 236.445312 302.789062 236.296875 303.019531 236.0625 303.125 C 234.785156 303.691406 233.5625 304.359375 232.433594 305.109375 C 232.21875 305.25 231.945312 305.25 231.734375 305.109375 L 226.613281 301.714844 L 222.945312 305.226562 L 226.113281 310.496094 C 226.246094 310.714844 226.234375 310.992188 226.085938 311.195312 C 225.277344 312.308594 224.554688 313.496094 223.941406 314.730469 C 223.828125 314.960938 223.585938 315.089844 223.332031 315.078125 L 217.199219 314.699219 L 215.773438 319.578125 L 221.148438 322.550781 C 221.367188 322.675781 221.496094 322.917969 221.46875 323.171875 C 221.328125 324.519531 221.296875 325.910156 221.386719 327.308594 C 221.402344 327.5625 221.261719 327.804688 221.035156 327.917969 L 215.53125 330.65625 L 216.738281 335.589844 L 222.886719 335.480469 C 223.144531 335.496094 223.371094 335.621094 223.476562 335.855469 C 224.042969 337.132812 224.710938 338.355469 225.457031 339.488281 C 225.597656 339.699219 225.597656 339.976562 225.457031 340.1875 L 222.066406 345.304688 L 225.578125 348.976562 L 230.847656 345.804688 C 231.066406 345.675781 231.339844 345.6875 231.546875 345.835938 C 232.664062 346.648438 233.851562 347.367188 235.082031 347.980469 C 235.308594 348.09375 235.445312 348.335938 235.429688 348.585938 L 235.050781 354.726562 L 239.925781 356.148438 L 242.898438 350.777344 C 243.023438 350.554688 243.265625 350.425781 243.519531 350.453125 C 244.867188 350.59375 246.261719 350.625 247.65625 350.535156 C 247.671875 350.535156 247.683594 350.535156 247.699219 350.535156 Z M 250.660156 357.761719 C 250.425781 357.761719 250.203125 357.625 250.09375 357.410156 L 247.316406 351.824219 C 246.132812 351.878906 244.957031 351.855469 243.804688 351.753906 L 240.789062 357.203125 C 240.644531 357.464844 240.34375 357.589844 240.054688 357.507812 L 234.207031 355.800781 C 233.925781 355.71875 233.734375 355.449219 233.753906 355.152344 L 234.140625 348.921875 C 233.105469 348.386719 232.101562 347.777344 231.144531 347.105469 L 225.796875 350.320312 C 225.542969 350.476562 225.21875 350.429688 225.011719 350.214844 L 220.800781 345.816406 C 220.597656 345.601562 220.566406 345.273438 220.730469 345.027344 L 224.171875 339.832031 C 223.550781 338.859375 222.988281 337.828125 222.492188 336.753906 L 216.253906 336.867188 C 215.976562 336.859375 215.699219 336.667969 215.628906 336.382812 L 214.179688 330.464844 C 214.113281 330.175781 214.25 329.878906 214.515625 329.746094 L 220.097656 326.96875 C 220.042969 325.785156 220.066406 324.609375 220.167969 323.457031 L 214.71875 320.441406 C 214.460938 320.296875 214.335938 319.992188 214.417969 319.707031 L 216.125 313.859375 C 216.207031 313.574219 216.476562 313.382812 216.769531 313.402344 L 222.996094 313.789062 C 223.535156 312.753906 224.144531 311.75 224.816406 310.792969 L 221.601562 305.445312 C 221.445312 305.191406 221.492188 304.867188 221.703125 304.664062 L 226.105469 300.449219 C 226.316406 300.246094 226.648438 300.214844 226.894531 300.378906 L 232.085938 303.824219 C 233.058594 303.199219 234.09375 302.636719 235.167969 302.136719 L 235.054688 295.902344 C 235.046875 295.609375 235.25 295.347656 235.535156 295.277344 L 241.453125 293.828125 C 241.742188 293.757812 242.039062 293.898438 242.171875 294.160156 L 244.949219 299.746094 C 246.128906 299.691406 247.308594 299.714844 248.460938 299.816406 L 251.476562 294.367188 C 251.621094 294.105469 251.925781 293.984375 252.207031 294.066406 L 258.054688 295.769531 C 258.339844 295.851562 258.53125 296.121094 258.511719 296.417969 L 258.125 302.644531 C 259.160156 303.183594 260.164062 303.792969 261.121094 304.464844 L 266.46875 301.246094 C 266.722656 301.09375 267.046875 301.136719 267.253906 301.351562 L 271.464844 305.753906 C 271.671875 305.96875 271.699219 306.296875 271.535156 306.542969 L 268.09375 311.734375 C 268.714844 312.707031 269.277344 313.742188 269.773438 314.816406 L 276.011719 314.703125 C 276.015625 314.703125 276.019531 314.703125 276.023438 314.703125 C 276.3125 314.703125 276.566406 314.902344 276.636719 315.1875 L 278.085938 321.105469 C 278.152344 321.394531 278.015625 321.691406 277.75 321.824219 L 272.167969 324.601562 C 272.222656 325.785156 272.199219 326.960938 272.097656 328.113281 L 277.546875 331.132812 C 277.804688 331.273438 277.929688 331.578125 277.847656 331.863281 L 276.144531 337.710938 C 276.0625 337.996094 275.789062 338.1875 275.496094 338.164062 L 269.269531 337.78125 C 268.730469 338.816406 268.121094 339.820312 267.449219 340.777344 L 270.664062 346.125 C 270.816406 346.375 270.773438 346.703125 270.5625 346.910156 L 266.160156 351.121094 C 265.949219 351.324219 265.617188 351.355469 265.371094 351.191406 L 260.179688 347.75 C 259.207031 348.371094 258.171875 348.933594 257.097656 349.429688 L 257.210938 355.667969 C 257.21875 355.964844 257.015625 356.222656 256.730469 356.292969 L 250.8125 357.742188 C 250.761719 357.753906 250.710938 357.761719 250.660156 357.761719 " fill-opacity="1" fill-rule="nonzero"/><path fill="#f4f5f8" d="M 295.410156 64.210938 C 295.410156 80.242188 282.417969 93.234375 266.394531 93.234375 C 250.363281 93.234375 237.371094 80.242188 237.371094 64.210938 C 237.371094 48.179688 250.363281 35.183594 266.394531 35.183594 C 282.417969 35.183594 295.410156 48.179688 295.410156 64.210938 " fill-opacity="1" fill-rule="nonzero"/><path fill="#141619" d="M 266.394531 35.816406 C 250.738281 35.816406 238.003906 48.554688 238.003906 64.210938 C 238.003906 79.863281 250.738281 92.601562 266.394531 92.601562 C 282.042969 92.601562 294.777344 79.863281 294.777344 64.210938 C 294.777344 48.554688 282.042969 35.816406 266.394531 35.816406 Z M 266.394531 93.867188 C 250.042969 93.867188 236.738281 80.5625 236.738281 64.210938 C 236.738281 47.855469 250.042969 34.550781 266.394531 34.550781 C 282.742188 34.550781 296.046875 47.855469 296.046875 64.210938 C 296.046875 80.5625 282.742188 93.867188 266.394531 93.867188 " fill-opacity="1" fill-rule="nonzero"/><path fill="#0a21c0" d="M 247.863281 64.164062 L 257.746094 67.914062 L 257.746094 71.988281 L 243.722656 65.738281 L 243.722656 62.503906 L 257.746094 56.269531 L 257.746094 60.34375 L 247.863281 64.164062 " fill-opacity="1" fill-rule="nonzero"/><path fill="#0a21c0" d="M 263.34375 76.832031 L 260.140625 76.832031 L 269.742188 50.339844 L 272.941406 50.339844 L 263.34375 76.832031 " fill-opacity="1" fill-rule="nonzero"/><path fill="#0a21c0" d="M 286.175781 64.078125 L 275.824219 60.277344 L 275.824219 56.269531 L 290.296875 62.503906 L 290.296875 65.738281 L 275.824219 71.972656 L 275.824219 67.96875 L 286.175781 64.078125 " fill-opacity="1" fill-rule="nonzero"/></svg>