<svg xmlns="http://www.w3.org/2000/svg" xmlns:xlink="http://www.w3.org/1999/xlink" width="300" zoomAndPan="magnify" viewBox="0 0 224.87999 225" height="300" preserveAspectRatio="xMidYMid meet" version="1.0"><path fill="#b3b4bd" d="M 86.820312 18.511719 C 75.269531 22.972656 25.992188 42.003906 13.886719 87.886719 C 0.0820312 140.210938 41.371094 201.8125 98.445312 213.164062 C 157.648438 224.9375 224.527344 197.261719 219.273438 154.378906 C 216.878906 134.816406 190.226562 128.898438 191.460938 105.855469 C 192.664062 83.371094 220.996094 72.351562 218.027344 45.589844 C 217.84375 43.910156 217.242188 38.875 214.714844 33.839844 C 200.359375 5.253906 135.335938 -0.222656 86.820312 18.511719 " fill-opacity="1" fill-rule="nonzero"/><path fill="#e5e7fd" d="M 156.320312 24.898438 C 159.488281 22.757812 163.792969 23.59375 165.929688 26.765625 C 168.070312 29.933594 167.234375 34.234375 164.066406 36.371094 C 160.898438 38.511719 156.59375 37.675781 154.453125 34.507812 C 152.316406 31.339844 153.152344 27.035156 156.320312 24.898438 Z M 147.910156 37.300781 L 149.414062 39.527344 L 152.148438 38.464844 C 152.589844 38.917969 153.0625 39.328125 153.5625 39.695312 L 152.890625 42.546875 L 155.304688 43.726562 L 157.140625 41.433594 C 157.746094 41.601562 158.359375 41.722656 158.980469 41.792969 L 159.824219 44.605469 L 162.507812 44.417969 L 162.953125 41.515625 C 163.550781 41.363281 164.144531 41.160156 164.71875 40.902344 L 166.859375 42.917969 L 169.089844 41.414062 L 168.023438 38.675781 C 168.476562 38.234375 168.886719 37.765625 169.253906 37.265625 L 172.109375 37.9375 L 173.285156 35.519531 L 170.992188 33.683594 C 171.164062 33.085938 171.285156 32.46875 171.351562 31.847656 L 174.164062 31.003906 L 173.976562 28.320312 L 171.078125 27.878906 C 170.925781 27.277344 170.71875 26.6875 170.460938 26.109375 L 172.476562 23.96875 L 170.972656 21.742188 L 168.234375 22.808594 C 167.796875 22.355469 167.324219 21.941406 166.824219 21.578125 L 167.496094 18.722656 L 165.078125 17.546875 L 163.242188 19.835938 C 162.640625 19.667969 162.027344 19.546875 161.40625 19.480469 L 160.558594 16.667969 L 157.878906 16.855469 L 157.433594 19.753906 C 156.835938 19.90625 156.242188 20.109375 155.664062 20.367188 L 153.527344 18.355469 L 151.296875 19.859375 L 152.363281 22.59375 C 151.910156 23.035156 151.496094 23.507812 151.132812 24.003906 L 148.277344 23.332031 L 147.097656 25.75 L 149.390625 27.585938 C 149.222656 28.1875 149.101562 28.800781 149.035156 29.421875 L 146.222656 30.265625 L 146.410156 32.949219 L 149.308594 33.394531 C 149.460938 33.992188 149.664062 34.585938 149.921875 35.164062 L 147.910156 37.300781 " fill-opacity="1" fill-rule="nonzero"/><path fill="#0a21c0" d="M 47.480469 135.289062 L 202.839844 135.636719 C 204.195312 135.636719 205.34375 134.589844 205.515625 133.191406 L 217.890625 32.957031 C 218.195312 30.515625 216.476562 28.214844 214.113281 28.214844 L 60.761719 28.359375 L 47.480469 135.289062 " fill-opacity="1" fill-rule="nonzero"/><path fill="#f4f5f8" d="M 44.296875 135.160156 L 196.550781 135.160156 C 197.910156 135.160156 199.054688 134.109375 199.230469 132.707031 L 211.527344 33.375 C 211.867188 30.613281 209.804688 28.167969 207.136719 28.167969 L 56.84375 28.167969 C 55.488281 28.167969 54.339844 29.21875 54.167969 30.625 L 41.617188 131.984375 C 41.410156 133.667969 42.667969 135.160156 44.296875 135.160156 " fill-opacity="1" fill-rule="nonzero"/><path fill="#141619" d="M 196.597656 135.582031 L 83.363281 135.582031 C 83.15625 135.582031 82.988281 135.414062 82.988281 135.207031 C 82.988281 134.996094 83.15625 134.828125 83.363281 134.828125 L 196.597656 134.828125 C 197.757812 134.828125 198.75 133.917969 198.898438 132.714844 L 211.195312 33.683594 C 211.351562 32.441406 210.972656 31.199219 210.15625 30.28125 C 209.382812 29.402344 208.328125 28.917969 207.179688 28.917969 L 188.800781 28.917969 C 188.589844 28.917969 188.421875 28.75 188.421875 28.539062 C 188.421875 28.332031 188.589844 28.164062 188.800781 28.164062 L 207.179688 28.164062 C 208.527344 28.164062 209.816406 28.753906 210.722656 29.78125 C 211.679688 30.863281 212.125 32.320312 211.945312 33.773438 L 199.648438 132.804688 C 199.453125 134.390625 198.140625 135.582031 196.597656 135.582031 " fill-opacity="1" fill-rule="nonzero"/><path fill="#141619" d="M 44.726562 107.753906 C 44.710938 107.753906 44.695312 107.753906 44.679688 107.753906 C 44.472656 107.726562 44.324219 107.539062 44.351562 107.332031 L 53.835938 30.941406 C 54.035156 29.359375 55.34375 28.164062 56.886719 28.164062 L 116.011719 28.164062 C 116.222656 28.164062 116.390625 28.332031 116.390625 28.539062 C 116.390625 28.75 116.222656 28.917969 116.011719 28.917969 L 56.886719 28.917969 C 55.726562 28.917969 54.734375 29.828125 54.585938 31.03125 L 45.097656 107.425781 C 45.074219 107.617188 44.914062 107.753906 44.726562 107.753906 " fill-opacity="1" fill-rule="nonzero"/><path fill="#b3b4bd" d="M 62.238281 126.027344 L 65.632812 99.25 L 56.03125 99.25 L 52.640625 126.027344 L 62.238281 126.027344 " fill-opacity="1" fill-rule="nonzero"/><path fill="#b3b4bd" d="M 73.75 126.027344 L 78.660156 89.046875 L 69.0625 89.046875 L 64.148438 126.027344 L 73.75 126.027344 " fill-opacity="1" fill-rule="nonzero"/><path fill="#b3b4bd" d="M 85.257812 126.027344 L 89.738281 91.867188 L 80.136719 91.867188 L 75.660156 126.027344 L 85.257812 126.027344 " fill-opacity="1" fill-rule="nonzero"/><path fill="#e5e7fd" d="M 96.769531 126.027344 L 102.984375 79.273438 L 93.382812 79.273438 L 87.167969 126.027344 L 96.769531 126.027344 " fill-opacity="1" fill-rule="nonzero"/><path fill="#b3b4bd" d="M 108.277344 126.027344 L 116.011719 67.871094 L 106.410156 67.871094 L 98.679688 126.027344 L 108.277344 126.027344 " fill-opacity="1" fill-rule="nonzero"/><path fill="#b3b4bd" d="M 119.789062 126.027344 L 127.054688 72.3125 L 117.453125 72.3125 L 110.1875 126.027344 L 119.789062 126.027344 " fill-opacity="1" fill-rule="nonzero"/><path fill="#e5e7fd" d="M 131.515625 126.027344 L 139.832031 65.199219 L 130.234375 65.199219 L 121.917969 126.027344 L 131.515625 126.027344 " fill-opacity="1" fill-rule="nonzero"/><path fill="#b3b4bd" d="M 143.242188 126 L 152.214844 60.984375 L 142.613281 60.984375 L 133.644531 126 L 143.242188 126 " fill-opacity="1" fill-rule="nonzero"/><path fill="#e5e7fd" d="M 154.96875 126 L 164.496094 58.613281 L 154.894531 58.613281 L 145.367188 126 L 154.96875 126 " fill-opacity="1" fill-rule="nonzero"/><path fill="#e5e7fd" d="M 166.695312 126.023438 L 177.921875 46.484375 L 168.320312 46.484375 L 157.097656 126.023438 L 166.695312 126.023438 " fill-opacity="1" fill-rule="nonzero"/><path fill="#b3b4bd" d="M 178.421875 126.027344 L 188.273438 56 L 178.675781 56 L 168.820312 126.027344 L 178.421875 126.027344 " fill-opacity="1" fill-rule="nonzero"/><path fill="#b3b4bd" d="M 190.148438 126.027344 L 200.832031 49.792969 L 191.230469 49.792969 L 180.550781 126.027344 L 190.148438 126.027344 " fill-opacity="1" fill-rule="nonzero"/><path fill="#141619" d="M 123.050781 65.402344 C 122.953125 65.402344 122.855469 65.367188 122.78125 65.292969 L 116.421875 58.933594 C 116.277344 58.789062 116.277344 58.546875 116.421875 58.402344 C 116.570312 58.253906 116.808594 58.253906 116.957031 58.402344 L 123.050781 64.492188 L 142.195312 45.351562 C 142.339844 45.203125 142.578125 45.203125 142.726562 45.351562 L 152.546875 55.167969 L 168.554688 38.992188 C 168.703125 38.847656 168.941406 38.84375 169.089844 38.992188 C 169.238281 39.136719 169.238281 39.375 169.089844 39.523438 L 152.816406 55.96875 C 152.746094 56.039062 152.648438 56.078125 152.546875 56.078125 C 152.445312 56.078125 152.351562 56.039062 152.28125 55.96875 L 142.460938 46.152344 L 123.316406 65.292969 C 123.242188 65.367188 123.144531 65.402344 123.050781 65.402344 " fill-opacity="1" fill-rule="nonzero"/><path fill="#141619" d="M 57.667969 93.953125 C 57.570312 93.953125 57.472656 93.914062 57.402344 93.839844 C 57.253906 93.695312 57.253906 93.457031 57.402344 93.308594 L 73.988281 76.726562 C 74.136719 76.578125 74.375 76.578125 74.519531 76.726562 L 83.214844 85.417969 L 110.015625 58.621094 C 110.164062 58.472656 110.402344 58.472656 110.550781 58.621094 C 110.699219 58.769531 110.699219 59.007812 110.550781 59.152344 L 83.480469 86.21875 C 83.335938 86.363281 83.097656 86.363281 82.949219 86.21875 L 74.253906 77.523438 L 57.933594 93.839844 C 57.859375 93.914062 57.765625 93.953125 57.667969 93.953125 " fill-opacity="1" fill-rule="nonzero"/><path fill="#e5e7fd" d="M 72.636719 76.992188 C 72.636719 76.097656 73.363281 75.375 74.253906 75.375 C 75.148438 75.375 75.871094 76.097656 75.871094 76.992188 C 75.871094 77.882812 75.148438 78.609375 74.253906 78.609375 C 73.363281 78.609375 72.636719 77.882812 72.636719 76.992188 " fill-opacity="1" fill-rule="nonzero"/><path fill="#141619" d="M 74.253906 74.621094 C 72.949219 74.621094 71.882812 75.683594 71.882812 76.992188 C 71.882812 78.300781 72.949219 79.363281 74.253906 79.363281 C 75.5625 79.363281 76.625 78.300781 76.625 76.992188 C 76.625 75.683594 75.5625 74.621094 74.253906 74.621094 Z M 74.253906 75.375 C 75.148438 75.375 75.871094 76.097656 75.871094 76.992188 C 75.871094 77.882812 75.148438 78.609375 74.253906 78.609375 C 73.363281 78.609375 72.636719 77.882812 72.636719 76.992188 C 72.636719 76.097656 73.363281 75.375 74.253906 75.375 " fill-opacity="1" fill-rule="nonzero"/><path fill="#b3b4bd" d="M 121.480469 64.960938 C 121.480469 64.066406 122.207031 63.34375 123.097656 63.34375 C 123.992188 63.34375 124.714844 64.066406 124.714844 64.960938 C 124.714844 65.855469 123.992188 66.578125 123.097656 66.578125 C 122.207031 66.578125 121.480469 65.855469 121.480469 64.960938 " fill-opacity="1" fill-rule="nonzero"/><path fill="#141619" d="M 123.097656 63.722656 C 122.414062 63.722656 121.859375 64.277344 121.859375 64.960938 C 121.859375 65.644531 122.414062 66.199219 123.097656 66.199219 C 123.78125 66.199219 124.335938 65.644531 124.335938 64.960938 C 124.335938 64.277344 123.78125 63.722656 123.097656 63.722656 Z M 123.097656 66.953125 C 122 66.953125 121.105469 66.058594 121.105469 64.960938 C 121.105469 63.863281 122 62.96875 123.097656 62.96875 C 124.199219 62.96875 125.089844 63.863281 125.089844 64.960938 C 125.089844 66.058594 124.199219 66.953125 123.097656 66.953125 " fill-opacity="1" fill-rule="nonzero"/><path fill="#e5e7fd" d="M 141.011719 45.433594 C 141.011719 44.542969 141.734375 43.820312 142.628906 43.820312 C 143.519531 43.820312 144.246094 44.542969 144.246094 45.433594 C 144.246094 46.328125 143.519531 47.050781 142.628906 47.050781 C 141.734375 47.050781 141.011719 46.328125 141.011719 45.433594 " fill-opacity="1" fill-rule="nonzero"/><path fill="#141619" d="M 142.628906 43.066406 C 141.320312 43.066406 140.257812 44.128906 140.257812 45.4375 C 140.257812 46.742188 141.320312 47.804688 142.628906 47.804688 C 143.933594 47.804688 144.996094 46.742188 144.996094 45.4375 C 144.996094 44.128906 143.933594 43.066406 142.628906 43.066406 Z M 142.628906 43.820312 C 143.519531 43.820312 144.242188 44.542969 144.242188 45.4375 C 144.242188 46.328125 143.519531 47.050781 142.628906 47.050781 C 141.734375 47.050781 141.011719 46.328125 141.011719 45.4375 C 141.011719 44.542969 141.734375 43.820312 142.628906 43.820312 " fill-opacity="1" fill-rule="nonzero"/><path fill="#b3b4bd" d="M 151.128906 55.714844 C 151.128906 54.824219 151.851562 54.101562 152.746094 54.101562 C 153.640625 54.101562 154.363281 54.824219 154.363281 55.714844 C 154.363281 56.609375 153.640625 57.335938 152.746094 57.335938 C 151.851562 57.335938 151.128906 56.609375 151.128906 55.714844 " fill-opacity="1" fill-rule="nonzero"/><path fill="#141619" d="M 152.746094 54.476562 C 152.0625 54.476562 151.507812 55.035156 151.507812 55.71875 C 151.507812 56.402344 152.0625 56.957031 152.746094 56.957031 C 153.429688 56.957031 153.984375 56.402344 153.984375 55.71875 C 153.984375 55.035156 153.429688 54.476562 152.746094 54.476562 Z M 152.746094 57.710938 C 151.648438 57.710938 150.753906 56.816406 150.753906 55.71875 C 150.753906 54.617188 151.648438 53.722656 152.746094 53.722656 C 153.84375 53.722656 154.738281 54.617188 154.738281 55.71875 C 154.738281 56.816406 153.84375 57.710938 152.746094 57.710938 " fill-opacity="1" fill-rule="nonzero"/><path fill="#0a21c0" d="M 168.695312 37.125 C 168.695312 35.949219 169.648438 34.992188 170.828125 34.992188 C 172.007812 34.992188 172.960938 35.949219 172.960938 37.125 C 172.960938 38.304688 172.007812 39.257812 170.828125 39.257812 C 169.648438 39.257812 168.695312 38.304688 168.695312 37.125 " fill-opacity="1" fill-rule="nonzero"/><path fill="#141619" d="M 170.828125 34.238281 C 169.234375 34.238281 167.9375 35.535156 167.9375 37.125 C 167.9375 38.71875 169.234375 40.015625 170.828125 40.015625 C 172.417969 40.015625 173.714844 38.71875 173.714844 37.125 C 173.714844 35.535156 172.417969 34.238281 170.828125 34.238281 Z M 170.828125 34.992188 C 172.003906 34.992188 172.960938 35.949219 172.960938 37.125 C 172.960938 38.304688 172.003906 39.261719 170.828125 39.261719 C 169.648438 39.261719 168.691406 38.304688 168.691406 37.125 C 168.691406 35.949219 169.648438 34.992188 170.828125 34.992188 " fill-opacity="1" fill-rule="nonzero"/><path fill="#b3b4bd" d="M 81.746094 85.765625 C 81.746094 84.871094 82.472656 84.148438 83.363281 84.148438 C 84.257812 84.148438 84.980469 84.871094 84.980469 85.765625 C 84.980469 86.65625 84.257812 87.378906 83.363281 87.378906 C 82.472656 87.378906 81.746094 86.65625 81.746094 85.765625 " fill-opacity="1" fill-rule="nonzero"/><path fill="#141619" d="M 83.363281 84.523438 C 82.679688 84.523438 82.125 85.078125 82.125 85.765625 C 82.125 86.445312 82.679688 87.003906 83.363281 87.003906 C 84.046875 87.003906 84.605469 86.445312 84.605469 85.765625 C 84.605469 85.078125 84.046875 84.523438 83.363281 84.523438 Z M 83.363281 87.757812 C 82.265625 87.757812 81.371094 86.863281 81.371094 85.765625 C 81.371094 84.664062 82.265625 83.769531 83.363281 83.769531 C 84.464844 83.769531 85.359375 84.664062 85.359375 85.765625 C 85.359375 86.863281 84.464844 87.757812 83.363281 87.757812 " fill-opacity="1" fill-rule="nonzero"/><path fill="#e5e7fd" d="M 111.976562 55.703125 C 111.976562 54.808594 112.699219 54.085938 113.59375 54.085938 C 114.488281 54.085938 115.210938 54.808594 115.210938 55.703125 C 115.210938 56.59375 114.488281 57.320312 113.59375 57.320312 C 112.699219 57.320312 111.976562 56.59375 111.976562 55.703125 " fill-opacity="1" fill-rule="nonzero"/><path fill="#141619" d="M 113.59375 53.332031 C 112.285156 53.332031 111.222656 54.394531 111.222656 55.703125 C 111.222656 57.007812 112.285156 58.074219 113.59375 58.074219 C 114.902344 58.074219 115.964844 57.007812 115.964844 55.703125 C 115.964844 54.394531 114.902344 53.332031 113.59375 53.332031 Z M 113.59375 54.085938 C 114.488281 54.085938 115.210938 54.808594 115.210938 55.703125 C 115.210938 56.59375 114.488281 57.316406 113.59375 57.316406 C 112.699219 57.316406 111.976562 56.59375 111.976562 55.703125 C 111.976562 54.808594 112.699219 54.085938 113.59375 54.085938 " fill-opacity="1" fill-rule="nonzero"/><path fill="#b3b4bd" d="M 55.6875 93.703125 C 55.6875 92.808594 56.410156 92.085938 57.300781 92.085938 C 58.195312 92.085938 58.917969 92.808594 58.917969 93.703125 C 58.917969 94.59375 58.195312 95.316406 57.300781 95.316406 C 56.410156 95.316406 55.6875 94.59375 55.6875 93.703125 " fill-opacity="1" fill-rule="nonzero"/><path fill="#141619" d="M 57.300781 92.460938 C 56.617188 92.460938 56.0625 93.019531 56.0625 93.699219 C 56.0625 94.386719 56.617188 94.941406 57.300781 94.941406 C 57.984375 94.941406 58.542969 94.386719 58.542969 93.699219 C 58.542969 93.019531 57.984375 92.460938 57.300781 92.460938 Z M 57.300781 95.695312 C 56.203125 95.695312 55.308594 94.800781 55.308594 93.699219 C 55.308594 92.601562 56.203125 91.707031 57.300781 91.707031 C 58.402344 91.707031 59.296875 92.601562 59.296875 93.699219 C 59.296875 94.800781 58.402344 95.695312 57.300781 95.695312 " fill-opacity="1" fill-rule="nonzero"/><path fill="#141619" d="M 99.773438 156.816406 L 185.535156 157.003906 C 186.285156 157.003906 186.917969 156.445312 187.011719 155.703125 L 193.84375 102.28125 C 194.007812 100.980469 193.0625 99.753906 191.753906 99.753906 L 107.105469 99.832031 L 99.773438 156.816406 " fill-opacity="1" fill-rule="nonzero"/><path fill="#f4f5f8" d="M 98.367188 156.730469 L 182.414062 156.730469 C 183.164062 156.730469 183.796875 156.175781 183.890625 155.429688 L 190.679688 102.695312 C 190.871094 101.230469 189.730469 99.933594 188.257812 99.933594 L 105.292969 99.933594 C 104.542969 99.933594 103.910156 100.492188 103.816406 101.234375 L 96.890625 155.046875 C 96.773438 155.941406 97.46875 156.730469 98.367188 156.730469 " fill-opacity="1" fill-rule="nonzero"/><path fill="#141619" d="M 105.292969 100.3125 C 104.734375 100.3125 104.261719 100.730469 104.191406 101.285156 L 97.261719 155.097656 C 97.222656 155.414062 97.320312 155.738281 97.53125 155.976562 C 97.742188 156.21875 98.046875 156.355469 98.367188 156.355469 L 182.414062 156.355469 C 182.96875 156.355469 183.445312 155.9375 183.515625 155.382812 L 190.304688 102.648438 C 190.382812 102.054688 190.199219 101.460938 189.804688 101.011719 C 189.414062 100.566406 188.847656 100.3125 188.253906 100.3125 Z M 182.414062 157.109375 L 98.367188 157.109375 C 97.832031 157.109375 97.320312 156.878906 96.964844 156.476562 C 96.609375 156.074219 96.445312 155.535156 96.515625 155 L 103.441406 101.1875 C 103.5625 100.257812 104.355469 99.554688 105.292969 99.554688 L 188.253906 99.554688 C 189.066406 99.554688 189.835938 99.90625 190.371094 100.515625 C 190.910156 101.125 191.15625 101.9375 191.050781 102.746094 L 184.265625 155.480469 C 184.144531 156.410156 183.347656 157.109375 182.414062 157.109375 " fill-opacity="1" fill-rule="nonzero"/><path fill="#b3b4bd" d="M 156.328125 112.335938 L 184.429688 112.335938 C 184.5 112.335938 184.558594 112.285156 184.574219 112.214844 L 184.84375 110.582031 C 184.859375 110.496094 184.789062 110.414062 184.703125 110.414062 L 156.597656 110.414062 C 156.527344 110.414062 156.46875 110.464844 156.457031 110.535156 L 156.183594 112.167969 C 156.167969 112.253906 156.238281 112.335938 156.328125 112.335938 " fill-opacity="1" fill-rule="nonzero"/><path fill="#0a21c0" d="M 152.386719 112.335938 L 154.898438 112.335938 C 154.980469 112.335938 155.054688 112.273438 155.070312 112.1875 L 155.332031 110.621094 C 155.351562 110.511719 155.265625 110.414062 155.160156 110.414062 L 152.648438 110.414062 C 152.5625 110.414062 152.488281 110.476562 152.472656 110.5625 L 152.210938 112.132812 C 152.195312 112.238281 152.277344 112.335938 152.386719 112.335938 " fill-opacity="1" fill-rule="nonzero"/><path fill="#0a21c0" d="M 111.507812 117.476562 L 114.019531 117.476562 C 114.105469 117.476562 114.179688 117.414062 114.191406 117.328125 L 114.453125 115.761719 C 114.472656 115.652344 114.390625 115.554688 114.28125 115.554688 L 111.769531 115.554688 C 111.683594 115.554688 111.609375 115.617188 111.597656 115.703125 L 111.335938 117.273438 C 111.316406 117.378906 111.398438 117.476562 111.507812 117.476562 " fill-opacity="1" fill-rule="nonzero"/><path fill="#0a21c0" d="M 104.777344 122.929688 L 107.285156 122.929688 C 107.371094 122.929688 107.445312 122.863281 107.460938 122.78125 L 107.722656 121.210938 C 107.742188 121.105469 107.65625 121.007812 107.546875 121.007812 L 105.039062 121.007812 C 104.953125 121.007812 104.878906 121.070312 104.863281 121.15625 L 104.601562 122.722656 C 104.582031 122.828125 104.667969 122.929688 104.777344 122.929688 " fill-opacity="1" fill-rule="nonzero"/><path fill="#b3b4bd" d="M 115.464844 117.511719 L 183.628906 117.511719 C 183.699219 117.511719 183.761719 117.460938 183.769531 117.386719 L 184.042969 115.757812 C 184.058594 115.671875 183.988281 115.589844 183.902344 115.589844 L 115.734375 115.589844 C 115.664062 115.589844 115.605469 115.640625 115.59375 115.710938 L 115.320312 117.34375 C 115.308594 117.429688 115.375 117.511719 115.464844 117.511719 " fill-opacity="1" fill-rule="nonzero"/><path fill="#b3b4bd" d="M 108.957031 122.949219 L 182.773438 122.949219 C 182.847656 122.949219 182.90625 122.898438 182.917969 122.828125 L 183.191406 121.199219 C 183.203125 121.109375 183.136719 121.03125 183.046875 121.03125 L 109.230469 121.03125 C 109.15625 121.03125 109.097656 121.082031 109.085938 121.152344 L 108.816406 122.78125 C 108.800781 122.871094 108.867188 122.949219 108.957031 122.949219 " fill-opacity="1" fill-rule="nonzero"/><path fill="#141619" d="M 109.175781 150.859375 L 105.898438 150.859375 C 105.691406 150.859375 105.523438 150.691406 105.523438 150.484375 C 105.523438 150.277344 105.691406 150.105469 105.898438 150.105469 L 109.175781 150.105469 C 109.449219 150.105469 109.699219 149.976562 109.855469 149.753906 L 111.4375 147.464844 C 111.730469 147.046875 112.1875 146.796875 112.699219 146.785156 C 113.214844 146.777344 113.679688 147 113.988281 147.402344 C 114.15625 147.625 114.414062 147.738281 114.691406 147.722656 C 114.96875 147.707031 115.207031 147.5625 115.351562 147.324219 L 118.09375 142.683594 C 118.375 142.210938 118.871094 141.921875 119.421875 141.910156 C 119.976562 141.902344 120.480469 142.171875 120.777344 142.632812 L 121.519531 143.785156 C 121.675781 144.03125 121.945312 144.167969 122.238281 144.164062 C 122.53125 144.152344 122.792969 143.992188 122.933594 143.738281 L 130.421875 130.121094 C 130.699219 129.617188 131.230469 129.304688 131.804688 129.304688 L 157.25 129.304688 C 157.457031 129.304688 157.625 129.472656 157.625 129.679688 C 157.625 129.886719 157.457031 130.058594 157.25 130.058594 L 131.804688 130.058594 C 131.503906 130.058594 131.226562 130.21875 131.082031 130.484375 L 123.59375 144.101562 C 123.324219 144.589844 122.828125 144.898438 122.265625 144.914062 C 121.703125 144.9375 121.1875 144.664062 120.886719 144.191406 L 120.144531 143.039062 C 119.988281 142.800781 119.722656 142.660156 119.4375 142.664062 C 119.148438 142.667969 118.890625 142.820312 118.746094 143.066406 L 116 147.707031 C 115.730469 148.15625 115.257812 148.445312 114.734375 148.476562 C 114.210938 148.507812 113.707031 148.277344 113.390625 147.859375 C 113.226562 147.648438 112.980469 147.523438 112.714844 147.539062 C 112.449219 147.546875 112.210938 147.675781 112.058594 147.890625 L 110.472656 150.183594 C 110.179688 150.605469 109.695312 150.859375 109.175781 150.859375 " fill-opacity="1" fill-rule="nonzero"/><path fill="#0a21c0" d="M 111.699219 147.117188 C 111.699219 146.675781 112.054688 146.320312 112.496094 146.320312 C 112.941406 146.320312 113.296875 146.675781 113.296875 147.117188 C 113.296875 147.5625 112.941406 147.917969 112.496094 147.917969 C 112.054688 147.917969 111.699219 147.5625 111.699219 147.117188 " fill-opacity="1" fill-rule="nonzero"/><path fill="#141619" d="M 112.496094 145.566406 C 111.640625 145.566406 110.941406 146.261719 110.941406 147.117188 C 110.941406 147.976562 111.640625 148.675781 112.496094 148.675781 C 113.355469 148.675781 114.050781 147.976562 114.050781 147.117188 C 114.050781 146.261719 113.355469 145.566406 112.496094 145.566406 Z M 112.496094 146.320312 C 112.941406 146.320312 113.296875 146.675781 113.296875 147.117188 C 113.296875 147.5625 112.941406 147.917969 112.496094 147.917969 C 112.054688 147.917969 111.699219 147.5625 111.699219 147.117188 C 111.699219 146.675781 112.054688 146.320312 112.496094 146.320312 " fill-opacity="1" fill-rule="nonzero"/><path fill="#e5e7fd" d="M 118.59375 142.238281 C 118.59375 141.796875 118.953125 141.4375 119.394531 141.4375 C 119.835938 141.4375 120.195312 141.796875 120.195312 142.238281 C 120.195312 142.679688 119.835938 143.039062 119.394531 143.039062 C 118.953125 143.039062 118.59375 142.679688 118.59375 142.238281 " fill-opacity="1" fill-rule="nonzero"/><path fill="#141619" d="M 119.394531 140.683594 C 118.539062 140.683594 117.839844 141.382812 117.839844 142.238281 C 117.839844 143.09375 118.539062 143.792969 119.394531 143.792969 C 120.25 143.792969 120.949219 143.09375 120.949219 142.238281 C 120.949219 141.382812 120.25 140.683594 119.394531 140.683594 Z M 119.394531 141.4375 C 119.835938 141.4375 120.195312 141.796875 120.195312 142.238281 C 120.195312 142.679688 119.835938 143.039062 119.394531 143.039062 C 118.953125 143.039062 118.59375 142.679688 118.59375 142.238281 C 118.59375 141.796875 118.953125 141.4375 119.394531 141.4375 " fill-opacity="1" fill-rule="nonzero"/><path fill="#0a21c0" d="M 152.035156 129.554688 C 152.035156 129.113281 152.390625 128.753906 152.835938 128.753906 C 153.277344 128.753906 153.636719 129.113281 153.636719 129.554688 C 153.636719 130 153.277344 130.355469 152.835938 130.355469 C 152.390625 130.355469 152.035156 130 152.035156 129.554688 " fill-opacity="1" fill-rule="nonzero"/><path fill="#141619" d="M 152.835938 128 C 151.976562 128 151.28125 128.699219 151.28125 129.554688 C 151.28125 130.414062 151.976562 131.109375 152.835938 131.109375 C 153.691406 131.109375 154.390625 130.414062 154.390625 129.554688 C 154.390625 128.699219 153.691406 128 152.835938 128 Z M 152.835938 128.753906 C 153.277344 128.753906 153.636719 129.113281 153.636719 129.554688 C 153.636719 130 153.277344 130.355469 152.835938 130.355469 C 152.390625 130.355469 152.035156 130 152.035156 129.554688 C 152.035156 129.113281 152.390625 128.753906 152.835938 128.753906 " fill-opacity="1" fill-rule="nonzero"/><path fill="#141619" d="M 165.359375 178.511719 L 163.6875 178.5 C 163.6875 178.5 159.683594 173.4375 156.976562 173.15625 L 156.726562 158.882812 C 167.09375 158.917969 176.238281 164.757812 180.40625 173.386719 L 165.359375 178.511719 " fill-opacity="1" fill-rule="nonzero"/><path fill="#141619" d="M 145.363281 184.835938 C 146.214844 189.527344 150.484375 193.214844 155.71875 193.375 C 157.007812 193.414062 158.511719 192.644531 158.511719 192.644531 C 158.511719 192.644531 159.890625 192.71875 160.125 192.628906 L 168.296875 205.277344 C 164.5 206.988281 160.207031 207.832031 155.71875 207.570312 C 142.667969 206.820312 132.40625 197 131.265625 185.175781 L 145.363281 184.835938 " fill-opacity="1" fill-rule="nonzero"/><path fill="#141619" d="M 170.855469 203.945312 L 169.21875 204 L 162.609375 191.257812 C 165.074219 189.433594 166.660156 186.59375 166.660156 183.367188 C 166.660156 182.589844 166.566406 181.832031 166.390625 181.101562 L 179.855469 176.019531 L 181.496094 176.039062 C 182.304688 178.417969 182.746094 180.945312 182.746094 183.566406 C 182.746094 192.242188 177.980469 199.714844 170.855469 203.945312 " fill-opacity="1" fill-rule="nonzero"/><path fill="#0a21c0" d="M 154.121094 173.21875 C 149.351562 173.929688 145.6875 177.621094 145.25 182.1875 L 122.203125 182.851562 C 122.203125 182.847656 122.203125 182.84375 122.203125 182.839844 C 122.203125 182.839844 122.203125 182.832031 122.203125 182.824219 C 122.203125 182.808594 118.726562 182.265625 118.726562 182.261719 C 118.730469 182.105469 150.214844 149.015625 150.214844 149.015625 L 153.707031 149.589844 C 153.707031 149.589844 153.980469 165.34375 154.121094 173.21875 " fill-opacity="1" fill-rule="nonzero"/><path fill="#141619" d="M 119.46875 182 C 119.960938 182.078125 120.636719 182.183594 121.195312 182.273438 C 121.496094 182.320312 121.761719 182.363281 121.953125 182.394531 C 122.097656 182.421875 122.21875 182.441406 122.316406 182.472656 L 144.914062 181.820312 C 145.492188 177.335938 149.054688 173.730469 153.734375 172.898438 L 153.335938 149.910156 L 150.351562 149.421875 C 140.460938 159.816406 122.507812 178.707031 119.46875 182 Z M 122.203125 183.230469 C 122.128906 183.230469 122.054688 183.207031 121.996094 183.167969 C 121.542969 183.089844 119.980469 182.84375 119.269531 182.730469 C 118.4375 182.601562 118.351562 182.585938 118.351562 182.261719 C 118.351562 182.058594 118.351562 182.058594 123.375 176.742188 C 125.984375 173.976562 129.628906 170.136719 134.199219 165.320312 C 142.070312 157.027344 149.941406 148.757812 149.941406 148.757812 C 150.027344 148.667969 150.152344 148.625 150.273438 148.644531 L 153.765625 149.21875 C 153.945312 149.246094 154.078125 149.402344 154.082031 149.582031 L 154.496094 173.210938 C 154.5 173.402344 154.363281 173.5625 154.175781 173.589844 C 149.5625 174.277344 146.046875 177.828125 145.628906 182.222656 C 145.609375 182.410156 145.453125 182.558594 145.261719 182.5625 L 122.214844 183.230469 C 122.210938 183.230469 122.207031 183.230469 122.203125 183.230469 " fill-opacity="1" fill-rule="nonzero"/><path fill="#0a21c0" d="M 163.710938 178.511719 C 162.042969 175.589844 158.9375 173.527344 155.328125 173.15625 L 155.078125 158.882812 C 165.441406 158.917969 174.59375 164.757812 178.757812 173.386719 L 163.710938 178.511719 " fill-opacity="1" fill-rule="nonzero"/><path fill="#141619" d="M 164.417969 163.140625 C 164.375 163.140625 164.324219 163.132812 164.277344 163.113281 C 161.996094 162.191406 159.589844 161.613281 157.128906 161.402344 C 156.921875 161.382812 156.765625 161.199219 156.785156 160.992188 C 156.804688 160.785156 156.984375 160.632812 157.195312 160.648438 C 159.730469 160.871094 162.210938 161.464844 164.558594 162.414062 C 164.753906 162.492188 164.847656 162.710938 164.769531 162.90625 C 164.710938 163.050781 164.566406 163.140625 164.417969 163.140625 " fill-opacity="1" fill-rule="nonzero"/><path fill="#0a21c0" d="M 143.710938 184.835938 C 144.5625 189.527344 148.835938 193.214844 154.070312 193.375 C 155.632812 193.425781 157.121094 193.15625 158.476562 192.628906 L 166.644531 205.277344 C 162.847656 206.992188 158.558594 207.832031 154.070312 207.570312 C 141.019531 206.820312 130.757812 197 129.617188 185.175781 L 143.710938 184.835938 " fill-opacity="1" fill-rule="nonzero"/><path fill="#141619" d="M 155.664062 205.949219 C 155.167969 205.949219 154.664062 205.933594 154.164062 205.90625 C 153.960938 205.894531 153.800781 205.714844 153.8125 205.507812 C 153.824219 205.300781 154 205.140625 154.210938 205.152344 C 154.691406 205.179688 155.179688 205.195312 155.664062 205.195312 C 158.347656 205.195312 160.96875 204.769531 163.453125 203.933594 C 163.648438 203.863281 163.863281 203.96875 163.929688 204.167969 C 163.996094 204.367188 163.890625 204.578125 163.695312 204.644531 C 161.132812 205.511719 158.429688 205.949219 155.664062 205.949219 " fill-opacity="1" fill-rule="nonzero"/><path fill="#141619" d="M 149.027344 205.066406 C 148.996094 205.066406 148.960938 205.0625 148.929688 205.050781 C 140.132812 202.652344 133.335938 195.660156 131.613281 187.242188 C 131.574219 187.035156 131.703125 186.835938 131.910156 186.796875 C 132.109375 186.753906 132.3125 186.886719 132.351562 187.089844 C 134.015625 195.234375 140.601562 202 149.125 204.324219 C 149.328125 204.378906 149.445312 204.585938 149.390625 204.785156 C 149.347656 204.953125 149.195312 205.066406 149.027344 205.066406 " fill-opacity="1" fill-rule="nonzero"/><path fill="#0a21c0" d="M 169.207031 203.945312 L 160.960938 191.257812 C 163.425781 189.433594 165.011719 186.59375 165.011719 183.367188 C 165.011719 182.589844 164.917969 181.832031 164.742188 181.101562 L 179.847656 176.039062 C 180.65625 178.417969 181.09375 180.945312 181.09375 183.566406 C 181.09375 192.242188 176.332031 199.714844 169.207031 203.945312 " fill-opacity="1" fill-rule="nonzero"/><path fill="#f4f5f8" d="M 150.644531 172.617188 C 145.878906 173.324219 142.210938 177.019531 141.777344 181.585938 L 118.726562 182.253906 C 118.726562 182.242188 118.726562 182.230469 118.726562 182.222656 C 118.726562 165.316406 132.199219 150.851562 150.230469 148.988281 L 150.644531 172.617188 " fill-opacity="1" fill-rule="nonzero"/><path fill="#141619" d="M 149.863281 149.40625 C 132.421875 151.402344 119.292969 165.253906 119.105469 181.863281 L 141.4375 181.214844 C 142.019531 176.734375 145.582031 173.128906 150.261719 172.296875 Z M 118.726562 182.628906 C 118.628906 182.628906 118.535156 182.589844 118.464844 182.523438 C 118.390625 182.453125 118.351562 182.351562 118.351562 182.253906 L 118.351562 182.222656 C 118.351562 173.921875 121.582031 165.925781 127.445312 159.707031 C 133.332031 153.460938 141.414062 149.519531 150.191406 148.613281 C 150.300781 148.601562 150.402344 148.636719 150.480469 148.707031 C 150.5625 148.777344 150.605469 148.875 150.609375 148.980469 L 151.023438 172.609375 C 151.023438 172.800781 150.886719 172.960938 150.699219 172.988281 C 146.085938 173.675781 142.570312 177.222656 142.152344 181.621094 C 142.132812 181.808594 141.976562 181.957031 141.789062 181.960938 L 118.738281 182.628906 C 118.734375 182.628906 118.730469 182.628906 118.726562 182.628906 " fill-opacity="1" fill-rule="nonzero"/><path fill="#e5e7fd" d="M 105.449219 42.734375 L 66.15625 42.734375 C 65.355469 42.734375 64.617188 43.378906 64.515625 44.175781 L 63.914062 48.792969 C 63.8125 49.589844 64.378906 50.234375 65.183594 50.234375 L 104.476562 50.234375 C 105.277344 50.234375 106.015625 49.589844 106.117188 48.792969 L 106.714844 44.175781 C 106.820312 43.378906 106.253906 42.734375 105.449219 42.734375 " fill-opacity="1" fill-rule="nonzero"/><path fill="#141619" d="M 66.15625 43.113281 C 65.546875 43.113281 64.96875 43.621094 64.886719 44.226562 L 64.289062 48.84375 C 64.253906 49.117188 64.324219 49.375 64.492188 49.5625 C 64.660156 49.753906 64.902344 49.859375 65.183594 49.859375 L 104.476562 49.859375 C 105.082031 49.859375 105.664062 49.351562 105.742188 48.746094 L 106.34375 44.128906 C 106.378906 43.851562 106.304688 43.597656 106.140625 43.40625 C 105.972656 43.21875 105.726562 43.113281 105.449219 43.113281 Z M 104.476562 50.613281 L 65.183594 50.613281 C 64.683594 50.613281 64.238281 50.417969 63.925781 50.0625 C 63.613281 49.707031 63.476562 49.238281 63.539062 48.746094 L 64.140625 44.128906 C 64.269531 43.152344 65.171875 42.359375 66.15625 42.359375 L 105.449219 42.359375 C 105.949219 42.359375 106.394531 42.554688 106.707031 42.910156 C 107.019531 43.265625 107.15625 43.730469 107.089844 44.226562 L 106.488281 48.84375 C 106.363281 49.816406 105.460938 50.613281 104.476562 50.613281 " fill-opacity="1" fill-rule="nonzero"/><path fill="#e5e7fd" d="M 105.449219 42.734375 L 66.15625 42.734375 C 65.355469 42.734375 64.617188 43.378906 64.515625 44.175781 L 63.914062 48.792969 C 63.8125 49.589844 64.378906 50.234375 65.183594 50.234375 L 104.476562 50.234375 C 105.277344 50.234375 106.015625 49.589844 106.117188 48.792969 L 106.714844 44.175781 C 106.820312 43.378906 106.253906 42.734375 105.449219 42.734375 " fill-opacity="1" fill-rule="nonzero"/><path fill="#141619" d="M 66.15625 43.113281 C 65.546875 43.113281 64.96875 43.621094 64.886719 44.226562 L 64.289062 48.84375 C 64.253906 49.117188 64.324219 49.375 64.492188 49.5625 C 64.660156 49.753906 64.902344 49.859375 65.183594 49.859375 L 104.476562 49.859375 C 105.082031 49.859375 105.664062 49.351562 105.742188 48.746094 L 106.34375 44.128906 C 106.378906 43.851562 106.304688 43.597656 106.140625 43.40625 C 105.972656 43.21875 105.726562 43.113281 105.449219 43.113281 Z M 104.476562 50.613281 L 65.183594 50.613281 C 64.683594 50.613281 64.238281 50.417969 63.925781 50.0625 C 63.613281 49.707031 63.476562 49.238281 63.539062 48.746094 L 64.140625 44.128906 C 64.269531 43.152344 65.171875 42.359375 66.15625 42.359375 L 105.449219 42.359375 C 105.949219 42.359375 106.394531 42.554688 106.707031 42.910156 C 107.019531 43.265625 107.15625 43.730469 107.089844 44.226562 L 106.488281 48.84375 C 106.363281 49.816406 105.460938 50.613281 104.476562 50.613281 " fill-opacity="1" fill-rule="nonzero"/><path fill="#f4f5f8" d="M 175.539062 196.621094 C 175.441406 196.621094 175.347656 196.582031 175.273438 196.507812 C 175.125 196.363281 175.125 196.125 175.273438 195.976562 L 197.003906 174.25 C 197.152344 174.101562 197.390625 174.101562 197.539062 174.25 C 197.683594 174.394531 197.683594 174.632812 197.539062 174.78125 L 175.804688 196.507812 C 175.734375 196.582031 175.636719 196.621094 175.539062 196.621094 " fill-opacity="1" fill-rule="nonzero"/><path fill="#f4f5f8" d="M 179.273438 181.488281 C 179.179688 181.488281 179.082031 181.453125 179.011719 181.378906 C 178.863281 181.230469 178.863281 180.992188 179.011719 180.84375 L 196.386719 163.46875 C 196.535156 163.324219 196.773438 163.324219 196.921875 163.46875 C 197.066406 163.617188 197.066406 163.855469 196.921875 164.003906 L 179.542969 181.378906 C 179.46875 181.453125 179.371094 181.488281 179.273438 181.488281 " fill-opacity="1" fill-rule="nonzero"/><path fill="#141619" d="M 16.058594 107.753906 C 15.960938 107.753906 15.863281 107.71875 15.792969 107.644531 C 15.644531 107.5 15.644531 107.257812 15.792969 107.109375 L 20.351562 102.550781 C 21.605469 101.296875 23.644531 101.296875 24.898438 102.550781 C 25.859375 103.511719 27.421875 103.511719 28.378906 102.550781 L 41.699219 89.234375 C 41.847656 89.089844 42.085938 89.089844 42.230469 89.234375 C 42.378906 89.382812 42.378906 89.621094 42.230469 89.769531 L 28.914062 103.085938 C 27.660156 104.335938 25.621094 104.335938 24.367188 103.085938 C 23.40625 102.125 21.84375 102.125 20.886719 103.085938 L 16.324219 107.644531 C 16.25 107.71875 16.152344 107.753906 16.058594 107.753906 " fill-opacity="1" fill-rule="nonzero"/><path fill="#141619" d="M 23.484375 89.222656 C 23.289062 89.222656 23.097656 89.261719 22.914062 89.34375 C 22.195312 89.667969 21.867188 90.53125 22.1875 91.269531 C 22.339844 91.632812 22.621094 91.90625 22.980469 92.046875 C 23.332031 92.179688 23.710938 92.171875 24.054688 92.015625 C 24.773438 91.691406 25.101562 90.828125 24.785156 90.089844 C 24.628906 89.730469 24.34375 89.457031 23.988281 89.316406 C 23.824219 89.253906 23.652344 89.222656 23.484375 89.222656 Z M 23.484375 92.894531 C 23.222656 92.894531 22.960938 92.84375 22.707031 92.746094 C 22.160156 92.535156 21.726562 92.117188 21.492188 91.570312 C 21.011719 90.453125 21.511719 89.148438 22.605469 88.65625 C 23.132812 88.417969 23.722656 88.402344 24.261719 88.613281 C 24.808594 88.828125 25.238281 89.246094 25.476562 89.792969 C 25.957031 90.90625 25.457031 92.214844 24.363281 92.707031 C 24.082031 92.832031 23.785156 92.894531 23.484375 92.894531 " fill-opacity="1" fill-rule="nonzero"/><path fill="#141619" d="M 27.933594 87.296875 C 27.835938 87.296875 27.738281 87.257812 27.667969 87.1875 C 27.519531 87.039062 27.519531 86.800781 27.667969 86.652344 L 41.261719 73.0625 C 41.410156 72.914062 41.648438 72.914062 41.792969 73.0625 C 41.941406 73.210938 41.941406 73.445312 41.792969 73.59375 L 28.199219 87.1875 C 28.125 87.257812 28.03125 87.296875 27.933594 87.296875 " fill-opacity="1" fill-rule="nonzero"/><path fill="#141619" d="M 122.617188 25.53125 C 122.519531 25.53125 122.421875 25.492188 122.347656 25.417969 C 122.203125 25.273438 122.203125 25.035156 122.347656 24.886719 L 129.128906 18.109375 C 129.273438 17.964844 129.511719 17.964844 129.660156 18.109375 C 129.808594 18.257812 129.808594 18.496094 129.660156 18.644531 L 122.882812 25.417969 C 122.808594 25.492188 122.710938 25.53125 122.617188 25.53125 " fill-opacity="1" fill-rule="nonzero"/><path fill="#f4f5f8" d="M 125.023438 39.230469 C 125.003906 40.550781 123.917969 41.605469 122.59375 41.589844 C 121.269531 41.570312 120.214844 40.484375 120.230469 39.164062 C 120.25 37.84375 121.335938 36.789062 122.660156 36.804688 L 125.023438 39.230469 " fill-opacity="1" fill-rule="nonzero"/><path fill="#0a21c0" d="M 122.628906 41.964844 C 122.613281 41.964844 122.601562 41.964844 122.589844 41.964844 C 121.847656 41.953125 121.15625 41.65625 120.640625 41.125 C 120.125 40.597656 119.84375 39.898438 119.855469 39.160156 C 119.875 37.644531 121.113281 36.429688 122.628906 36.429688 C 122.640625 36.429688 122.652344 36.429688 122.664062 36.429688 C 122.871094 36.429688 123.039062 36.601562 123.035156 36.8125 C 123.03125 37.019531 122.863281 37.179688 122.652344 37.183594 C 122.644531 37.183594 122.636719 37.183594 122.628906 37.183594 C 121.527344 37.183594 120.621094 38.066406 120.609375 39.167969 C 120.601562 39.707031 120.804688 40.214844 121.179688 40.601562 C 121.554688 40.988281 122.058594 41.203125 122.597656 41.210938 C 123.703125 41.226562 124.628906 40.335938 124.644531 39.222656 C 124.648438 39.015625 124.816406 38.851562 125.023438 38.851562 C 125.023438 38.851562 125.027344 38.851562 125.027344 38.851562 C 125.234375 38.855469 125.402344 39.023438 125.398438 39.234375 C 125.378906 40.746094 124.140625 41.964844 122.628906 41.964844 " fill-opacity="1" fill-rule="nonzero"/><path fill="#f4f5f8" d="M 129.003906 33.050781 L 147.054688 14.839844 L 129.003906 33.050781 " fill-opacity="1" fill-rule="nonzero"/><path fill="#0a21c0" d="M 129.007812 33.429688 C 128.910156 33.429688 128.816406 33.390625 128.738281 33.320312 C 128.59375 33.171875 128.589844 32.933594 128.738281 32.785156 L 146.789062 14.574219 C 146.933594 14.429688 147.171875 14.425781 147.320312 14.574219 C 147.46875 14.71875 147.46875 14.957031 147.324219 15.105469 L 129.273438 33.316406 C 129.199219 33.390625 129.101562 33.429688 129.007812 33.429688 " fill-opacity="1" fill-rule="nonzero"/><path fill="#141619" d="M 206.542969 155.871094 C 206.535156 155.871094 206.53125 155.871094 206.523438 155.871094 L 205.191406 155.808594 C 204.984375 155.796875 204.824219 155.617188 204.832031 155.410156 C 204.84375 155.203125 205.019531 155.042969 205.226562 155.054688 L 206.5625 155.117188 C 206.769531 155.128906 206.929688 155.304688 206.917969 155.515625 C 206.910156 155.714844 206.742188 155.871094 206.542969 155.871094 " fill-opacity="1" fill-rule="nonzero"/><path fill="#141619" d="M 201.878906 155.644531 C 201.871094 155.644531 201.867188 155.644531 201.859375 155.644531 L 200.527344 155.578125 C 200.320312 155.566406 200.160156 155.390625 200.167969 155.183594 C 200.179688 154.976562 200.355469 154.8125 200.5625 154.824219 L 201.894531 154.890625 C 202.105469 154.898438 202.265625 155.078125 202.253906 155.285156 C 202.246094 155.488281 202.078125 155.644531 201.878906 155.644531 " fill-opacity="1" fill-rule="nonzero"/><path fill="#141619" d="M 203.640625 154.085938 C 203.636719 154.085938 203.628906 154.085938 203.621094 154.085938 C 203.410156 154.074219 203.253906 153.894531 203.265625 153.6875 L 203.347656 152.375 C 203.359375 152.167969 203.535156 152.011719 203.746094 152.019531 C 203.953125 152.03125 204.113281 152.210938 204.097656 152.417969 L 204.019531 153.730469 C 204.007812 153.933594 203.839844 154.085938 203.640625 154.085938 " fill-opacity="1" fill-rule="nonzero"/><path fill="#141619" d="M 203.363281 158.675781 C 203.355469 158.675781 203.347656 158.675781 203.339844 158.675781 C 203.132812 158.664062 202.972656 158.484375 202.988281 158.277344 L 203.066406 156.964844 C 203.078125 156.757812 203.253906 156.597656 203.464844 156.613281 C 203.671875 156.625 203.832031 156.804688 203.820312 157.011719 L 203.738281 158.324219 C 203.726562 158.523438 203.5625 158.675781 203.363281 158.675781 " fill-opacity="1" fill-rule="nonzero"/><path fill="#141619" d="M 76.203125 184.761719 C 76.195312 184.761719 76.183594 184.761719 76.171875 184.761719 C 72.652344 184.75 69.027344 182.628906 65.402344 178.460938 C 62.863281 175.539062 61.246094 172.648438 61.179688 172.523438 C 60.640625 171.554688 60.988281 170.332031 61.960938 169.792969 C 62.929688 169.253906 64.152344 169.605469 64.691406 170.574219 C 66.265625 173.398438 71.398438 180.730469 76.183594 180.746094 C 76.191406 180.746094 76.199219 180.746094 76.203125 180.746094 C 77.722656 180.746094 78.894531 180.277344 79.789062 179.3125 C 81.933594 177.007812 82.089844 172.402344 81.96875 170.820312 C 81.882812 169.714844 82.710938 168.75 83.820312 168.664062 C 84.921875 168.582031 85.890625 169.410156 85.972656 170.515625 C 85.996094 170.820312 86.496094 177.996094 82.730469 182.046875 C 81.058594 183.847656 78.863281 184.761719 76.203125 184.761719 " fill-opacity="1" fill-rule="nonzero"/><path fill="#141619" d="M 90.308594 170.289062 L 78.414062 170.289062 C 77.304688 170.289062 76.402344 169.390625 76.402344 168.28125 C 76.402344 167.171875 77.304688 166.273438 78.414062 166.273438 L 90.308594 166.273438 C 91.417969 166.273438 92.316406 167.171875 92.316406 168.28125 C 92.316406 169.390625 91.417969 170.289062 90.308594 170.289062 " fill-opacity="1" fill-rule="nonzero"/><path fill="#f4f5f8" d="M 75.609375 142.652344 L 73.960938 142.652344 L 73.960938 130.773438 L 75.609375 130.773438 C 78.0625 130.773438 80.054688 132.765625 80.054688 135.21875 L 80.054688 138.207031 C 80.054688 140.660156 78.0625 142.652344 75.609375 142.652344 " fill-opacity="1" fill-rule="nonzero"/><path fill="#141619" d="M 74.335938 142.273438 L 75.609375 142.273438 C 77.851562 142.273438 79.675781 140.449219 79.675781 138.207031 L 79.675781 135.21875 C 79.675781 132.976562 77.851562 131.152344 75.609375 131.152344 L 74.335938 131.152344 Z M 75.609375 143.027344 L 73.960938 143.027344 C 73.75 143.027344 73.582031 142.859375 73.582031 142.652344 L 73.582031 130.773438 C 73.582031 130.566406 73.75 130.398438 73.960938 130.398438 L 75.609375 130.398438 C 78.265625 130.398438 80.429688 132.5625 80.429688 135.21875 L 80.429688 138.207031 C 80.429688 140.863281 78.265625 143.027344 75.609375 143.027344 " fill-opacity="1" fill-rule="nonzero"/><path fill="#f4f5f8" d="M 18.679688 142.652344 L 20.328125 142.652344 L 20.328125 130.773438 L 18.679688 130.773438 C 16.222656 130.773438 14.234375 132.765625 14.234375 135.21875 L 14.234375 138.207031 C 14.234375 140.660156 16.222656 142.652344 18.679688 142.652344 " fill-opacity="1" fill-rule="nonzero"/><path fill="#141619" d="M 18.679688 131.152344 C 16.4375 131.152344 14.609375 132.976562 14.609375 135.21875 L 14.609375 138.207031 C 14.609375 140.449219 16.4375 142.273438 18.679688 142.273438 L 19.949219 142.273438 L 19.949219 131.152344 Z M 20.328125 143.027344 L 18.679688 143.027344 C 16.019531 143.027344 13.855469 140.863281 13.855469 138.207031 L 13.855469 135.21875 C 13.855469 132.5625 16.019531 130.398438 18.679688 130.398438 L 20.328125 130.398438 C 20.535156 130.398438 20.707031 130.566406 20.707031 130.773438 L 20.707031 142.652344 C 20.707031 142.859375 20.535156 143.027344 20.328125 143.027344 " fill-opacity="1" fill-rule="nonzero"/><path fill="#f4f5f8" d="M 18.40625 136.222656 C 18.40625 123.457031 31.273438 110.253906 47.144531 110.253906 C 63.015625 110.253906 75.878906 123.457031 75.878906 136.222656 C 75.878906 148.984375 63.015625 156.476562 47.144531 156.476562 C 31.273438 156.476562 18.40625 148.984375 18.40625 136.222656 " fill-opacity="1" fill-rule="nonzero"/><path fill="#141619" d="M 47.144531 110.632812 C 30.914062 110.632812 18.785156 124.140625 18.785156 136.222656 C 18.785156 142.171875 21.636719 147.222656 27.035156 150.824219 C 32.136719 154.226562 39.277344 156.097656 47.144531 156.097656 C 55.007812 156.097656 62.152344 154.226562 67.253906 150.824219 C 72.652344 147.222656 75.503906 142.171875 75.503906 136.222656 C 75.503906 124.140625 63.375 110.632812 47.144531 110.632812 Z M 47.144531 156.855469 C 39.132812 156.855469 31.839844 154.933594 26.617188 151.449219 C 21 147.703125 18.03125 142.4375 18.03125 136.222656 C 18.03125 129.863281 21.140625 123.285156 26.566406 118.175781 C 32.25 112.824219 39.558594 109.878906 47.144531 109.878906 C 54.730469 109.878906 62.039062 112.824219 67.722656 118.175781 C 73.144531 123.285156 76.257812 129.863281 76.257812 136.222656 C 76.257812 142.4375 73.289062 147.703125 67.671875 151.449219 C 62.445312 154.933594 55.15625 156.855469 47.144531 156.855469 " fill-opacity="1" fill-rule="nonzero"/><path fill="#f4f5f8" d="M 54.339844 160.3125 L 39.945312 160.3125 C 33.636719 160.3125 28.523438 165.425781 28.523438 171.734375 C 28.523438 175.90625 28.929688 180.0625 29.734375 184.152344 L 31.804688 194.632812 C 33.253906 201.960938 39.675781 207.242188 47.144531 207.242188 C 54.609375 207.242188 61.035156 201.960938 62.480469 194.632812 L 64.550781 184.152344 C 65.359375 180.0625 65.765625 175.90625 65.765625 171.734375 C 65.765625 165.425781 60.652344 160.3125 54.339844 160.3125 " fill-opacity="1" fill-rule="nonzero"/><path fill="#141619" d="M 39.945312 160.6875 C 33.855469 160.6875 28.898438 165.644531 28.898438 171.734375 C 28.898438 175.871094 29.304688 180.023438 30.105469 184.078125 L 32.175781 194.5625 C 33.582031 201.6875 39.878906 206.863281 47.144531 206.863281 C 54.410156 206.863281 60.703125 201.6875 62.113281 194.5625 L 64.183594 184.078125 C 64.984375 180.023438 65.390625 175.871094 65.390625 171.734375 C 65.390625 165.644531 60.433594 160.6875 54.339844 160.6875 Z M 47.144531 207.617188 C 39.519531 207.617188 32.914062 202.1875 31.4375 194.707031 L 29.367188 184.226562 C 28.554688 180.121094 28.144531 175.917969 28.144531 171.734375 C 28.144531 165.226562 33.4375 159.933594 39.945312 159.933594 L 54.339844 159.933594 C 60.847656 159.933594 66.144531 165.226562 66.144531 171.734375 C 66.144531 175.917969 65.730469 180.121094 64.921875 184.226562 L 62.851562 194.707031 C 61.375 202.1875 54.769531 207.617188 47.144531 207.617188 " fill-opacity="1" fill-rule="nonzero"/><path fill="#0a21c0" d="M 49.113281 185.625 L 45.175781 185.625 C 41.933594 185.625 39.308594 182.996094 39.308594 179.757812 L 39.308594 160.3125 L 54.980469 160.3125 L 54.980469 179.757812 C 54.980469 182.996094 52.351562 185.625 49.113281 185.625 " fill-opacity="1" fill-rule="nonzero"/><path fill="#141619" d="M 54.980469 160.6875 L 39.308594 160.6875 C 39.101562 160.6875 38.929688 160.519531 38.929688 160.3125 C 38.929688 160.105469 39.101562 159.933594 39.308594 159.933594 L 54.980469 159.933594 C 55.1875 159.933594 55.355469 160.105469 55.355469 160.3125 C 55.355469 160.519531 55.1875 160.6875 54.980469 160.6875 " fill-opacity="1" fill-rule="nonzero"/><path fill="#141619" d="M 66.464844 132.390625 L 38.792969 132.390625 C 35.917969 132.390625 33.585938 134.902344 33.585938 138 L 33.585938 141.660156 C 33.585938 144.023438 34.847656 146.527344 37.023438 146.933594 C 44.691406 148.375 60.5625 148.375 68.234375 146.933594 C 70.40625 146.527344 71.667969 144.023438 71.667969 141.660156 L 71.667969 138 C 71.667969 134.902344 69.339844 132.390625 66.464844 132.390625 " fill-opacity="1" fill-rule="nonzero"/><path fill="#0a21c0" d="M 46.125 139.753906 C 46.125 140.792969 45.34375 141.632812 44.382812 141.632812 C 43.417969 141.632812 42.636719 140.792969 42.636719 139.753906 C 42.636719 138.71875 43.417969 137.875 44.382812 137.875 C 45.34375 137.875 46.125 138.71875 46.125 139.753906 " fill-opacity="1" fill-rule="nonzero"/><path fill="#0a21c0" d="M 64.679688 139.753906 C 64.679688 140.792969 63.898438 141.632812 62.933594 141.632812 C 61.972656 141.632812 61.191406 140.792969 61.191406 139.753906 C 61.191406 138.71875 61.972656 137.875 62.933594 137.875 C 63.898438 137.875 64.679688 138.71875 64.679688 139.753906 " fill-opacity="1" fill-rule="nonzero"/><path fill="#141619" d="M 28.765625 193.890625 C 24.828125 193.890625 19.503906 193.332031 16.089844 190.714844 C 14.125 189.207031 12.972656 187.214844 12.675781 184.796875 C 11.332031 173.9375 24.4375 167.71875 24.996094 167.460938 C 26 166.992188 27.195312 167.429688 27.664062 168.4375 C 28.128906 169.441406 27.695312 170.636719 26.691406 171.105469 C 26.578125 171.15625 15.679688 176.351562 16.660156 184.304688 C 16.828125 185.632812 17.4375 186.6875 18.535156 187.527344 C 22.289062 190.40625 30.46875 190 33.308594 189.601562 C 34.40625 189.445312 35.421875 190.210938 35.574219 191.3125 C 35.730469 192.410156 34.964844 193.425781 33.867188 193.578125 C 33.664062 193.609375 31.566406 193.890625 28.765625 193.890625 " fill-opacity="1" fill-rule="nonzero"/><path fill="#141619" d="M 42.632812 196.027344 L 38.777344 196.027344 C 36.667969 196.027344 34.921875 194.445312 34.710938 192.351562 L 34.578125 191.007812 C 34.460938 189.863281 34.839844 188.714844 35.613281 187.859375 C 36.386719 187.007812 37.492188 186.515625 38.640625 186.515625 L 44.796875 186.515625 C 45.90625 186.515625 46.804688 187.414062 46.804688 188.523438 C 46.804688 189.632812 45.90625 190.535156 44.796875 190.535156 L 38.640625 190.535156 C 38.632812 190.535156 38.613281 190.535156 38.59375 190.554688 C 38.570312 190.578125 38.574219 190.597656 38.574219 190.609375 L 38.710938 191.949219 C 38.710938 191.984375 38.742188 192.011719 38.777344 192.011719 L 42.632812 192.011719 C 43.742188 192.011719 44.644531 192.910156 44.644531 194.019531 C 44.644531 195.128906 43.742188 196.027344 42.632812 196.027344 " fill-opacity="1" fill-rule="nonzero"/></svg>