<svg xmlns="http://www.w3.org/2000/svg" xmlns:xlink="http://www.w3.org/1999/xlink" width="500" zoomAndPan="magnify" viewBox="0 0 375 374.999991" height="500" preserveAspectRatio="xMidYMid meet" version="1.0"><defs><clipPath id="ac72ceb0f3"><path d="M 0.703125 252 L 66 252 L 66 351 L 0.703125 351 Z M 0.703125 252 " clip-rule="nonzero"/></clipPath></defs><path fill="#e5e7fd" d="M 48.363281 64.625 C 85.589844 26.160156 99.816406 21.59375 134.117188 12.125 C 180.175781 -0.585938 254.789062 16.261719 297.945312 53.957031 C 350.800781 100.121094 374.296875 174.207031 343.230469 250.464844 C 310.148438 331.679688 222.804688 375.582031 145.421875 361.128906 C 16.582031 337.066406 1.359375 281.097656 1.042969 226.347656 C 1 219.011719 17.625 180.851562 40.550781 146.847656 C 59.5 118.742188 18.855469 95.117188 48.363281 64.625 " fill-opacity="1" fill-rule="nonzero"/><path fill="#b3b4bd" d="M 347.203125 311.5625 L 338.496094 317.238281 C 337.027344 318.101562 19.160156 279.398438 19.160156 275.847656 L 14.417969 44.835938 L 23.058594 40.304688 C 23.058594 40.304688 26.691406 38.253906 28.824219 38.488281 L 345.226562 73.585938 C 348.714844 73.972656 351.246094 76.863281 351.246094 80.453125 L 351.246094 304.601562 C 351.246094 307.414062 349.683594 310.105469 347.203125 311.5625 " fill-opacity="1" fill-rule="nonzero"/><path fill="#f4f5f8" d="M 333.492188 317.703125 L 17.09375 282.609375 C 13.605469 282.21875 11.074219 279.332031 11.074219 275.738281 L 11.074219 51.851562 C 11.074219 47.195312 15.25 43.359375 19.773438 43.863281 L 336.171875 78.957031 C 339.664062 79.34375 342.191406 82.230469 342.191406 85.824219 L 342.191406 309.710938 C 342.191406 314.367188 338.019531 318.207031 333.492188 317.703125 " fill-opacity="1" fill-rule="nonzero"/><path fill="#141619" d="M 10.667969 196.949219 C 10.3125 196.949219 10.023438 196.664062 10.019531 196.304688 L 9.871094 52.320312 C 9.871094 49.875 10.945312 47.511719 12.820312 45.832031 C 14.628906 44.210938 16.988281 43.433594 19.285156 43.683594 L 240.347656 67.875 C 240.699219 67.914062 240.957031 68.234375 240.914062 68.589844 C 240.878906 68.941406 240.5625 69.195312 240.203125 69.160156 L 19.144531 44.96875 C 17.210938 44.75 15.21875 45.417969 13.679688 46.792969 C 12.078125 48.226562 11.164062 50.242188 11.164062 52.320312 L 11.3125 196.304688 C 11.3125 196.660156 11.023438 196.949219 10.667969 196.949219 " fill-opacity="1" fill-rule="nonzero"/><path fill="#141619" d="M 341.636719 189.636719 C 341.277344 189.636719 340.992188 189.347656 340.992188 188.988281 L 340.992188 86.289062 C 340.992188 83.035156 338.699219 80.414062 335.542969 80.066406 L 311.808594 76.972656 C 311.457031 76.925781 311.207031 76.601562 311.25 76.246094 C 311.300781 75.894531 311.625 75.644531 311.976562 75.691406 L 335.699219 78.78125 C 339.507812 79.203125 342.28125 82.363281 342.28125 86.289062 L 342.28125 188.988281 C 342.28125 189.347656 341.992188 189.636719 341.636719 189.636719 " fill-opacity="1" fill-rule="nonzero"/><path fill="#b3b4bd" d="M 321.28125 302.515625 L 26.238281 271.421875 C 22.984375 271.078125 20.625 268.519531 20.625 265.335938 L 20.625 66.992188 C 20.625 62.863281 24.515625 59.46875 28.734375 59.914062 L 323.777344 91.003906 C 327.03125 91.347656 329.390625 93.90625 329.390625 97.089844 L 329.390625 295.433594 C 329.390625 299.5625 325.5 302.957031 321.28125 302.515625 " fill-opacity="1" fill-rule="nonzero"/><path fill="#e5e7fd" d="M 280.886719 271.179688 L 267.757812 269.398438 C 266.425781 269.222656 265.457031 267.839844 265.457031 266.121094 L 265.457031 171.390625 C 265.457031 169.167969 267.042969 167.339844 268.765625 167.574219 L 281.894531 169.351562 C 283.226562 169.535156 284.195312 170.914062 284.195312 172.632812 L 284.195312 267.367188 C 284.195312 269.585938 282.609375 271.414062 280.886719 271.179688 " fill-opacity="1" fill-rule="nonzero"/><path fill="#e5e7fd" d="M 307.144531 271.824219 L 294.019531 269.472656 C 292.683594 269.230469 291.714844 267.40625 291.714844 265.132812 L 291.714844 139.851562 C 291.714844 136.917969 293.304688 134.5 295.027344 134.808594 L 308.15625 137.164062 C 309.484375 137.402344 310.453125 139.226562 310.453125 141.496094 L 310.453125 266.78125 C 310.453125 269.714844 308.867188 272.132812 307.144531 271.824219 " fill-opacity="1" fill-rule="nonzero"/><path fill="#e5e7fd" d="M 255.402344 268.023438 L 242.277344 266.316406 C 240.941406 266.140625 239.972656 264.820312 239.972656 263.171875 L 239.972656 197.558594 C 239.972656 195.429688 241.558594 193.675781 243.28125 193.902344 L 256.410156 195.609375 C 257.742188 195.78125 258.710938 197.105469 258.710938 198.75 L 258.710938 264.367188 C 258.710938 266.492188 257.125 268.246094 255.402344 268.023438 " fill-opacity="1" fill-rule="nonzero"/><path fill="#e5e7fd" d="M 229.921875 264.855469 L 216.792969 262.449219 C 215.460938 262.207031 214.492188 260.339844 214.492188 258.019531 L 214.492188 215.871094 C 214.492188 212.871094 216.078125 210.402344 217.800781 210.71875 L 230.929688 213.121094 C 232.261719 213.367188 233.230469 215.230469 233.230469 217.550781 L 233.230469 259.699219 C 233.230469 262.699219 231.644531 265.171875 229.921875 264.855469 " fill-opacity="1" fill-rule="nonzero"/><path fill="#e5e7fd" d="M 204.4375 261.699219 L 191.308594 259.753906 C 189.976562 259.558594 189.007812 258.050781 189.007812 256.175781 L 189.007812 234.359375 C 189.007812 231.9375 190.59375 229.941406 192.316406 230.195312 L 205.445312 232.140625 C 206.777344 232.335938 207.746094 233.84375 207.746094 235.71875 L 207.746094 257.535156 C 207.746094 259.957031 206.160156 261.953125 204.4375 261.699219 " fill-opacity="1" fill-rule="nonzero"/><path fill="#e5e7fd" d="M 178.953125 258.550781 L 165.824219 257.566406 C 164.492188 257.46875 163.523438 256.703125 163.523438 255.757812 L 163.523438 232.996094 C 163.523438 231.769531 165.109375 230.757812 166.832031 230.886719 L 179.960938 231.871094 C 181.292969 231.96875 182.261719 232.730469 182.261719 233.679688 L 182.261719 256.445312 C 182.261719 257.667969 180.675781 258.679688 178.953125 258.550781 " fill-opacity="1" fill-rule="nonzero"/><path fill="#e5e7fd" d="M 153.46875 255.382812 L 140.34375 253.960938 C 139.007812 253.820312 138.039062 252.714844 138.039062 251.34375 L 138.039062 243.039062 C 138.039062 241.265625 139.628906 239.804688 141.351562 239.988281 L 154.476562 241.414062 C 155.8125 241.558594 156.777344 242.660156 156.777344 244.035156 L 156.777344 252.335938 C 156.777344 254.109375 155.191406 255.570312 153.46875 255.382812 " fill-opacity="1" fill-rule="nonzero"/><path fill="#e5e7fd" d="M 127.984375 252.226562 L 114.859375 250.804688 C 113.523438 250.65625 112.554688 249.554688 112.554688 248.183594 L 112.554688 239.511719 C 112.554688 237.738281 114.144531 236.277344 115.867188 236.464844 L 128.992188 237.886719 C 130.328125 238.035156 131.292969 239.136719 131.292969 240.507812 L 131.292969 249.179688 C 131.292969 250.949219 129.707031 252.414062 127.984375 252.226562 " fill-opacity="1" fill-rule="nonzero"/><path fill="#0a21c0" d="M 280.792969 9.121094 L 250.761719 52.195312 C 249.292969 54.300781 250.59375 57.195312 253.160156 57.539062 L 301.933594 64.113281 C 304.523438 64.460938 306.554688 61.984375 305.675781 59.558594 L 287.621094 10 C 286.554688 7.074219 282.578125 6.5625 280.792969 9.121094 " fill-opacity="1" fill-rule="nonzero"/><path fill="#0a21c0" d="M 85.457031 185.613281 C 257.386719 196.5625 265.945312 58.175781 265.945312 58.175781 L 289.8125 60.75 C 289.8125 60.75 290.5 207.367188 87.734375 212.203125 L 86.574219 200.144531 C 86.574219 200.144531 85.453125 185.613281 85.457031 185.613281 " fill-opacity="1" fill-rule="nonzero"/><path fill="#e5e7fd" d="M 52.121094 110.832031 C 57.902344 111.085938 62.382812 116.035156 62.125 121.894531 C 61.871094 127.75 56.976562 132.292969 51.195312 132.039062 C 45.414062 131.785156 40.933594 126.835938 41.191406 120.976562 C 41.445312 115.121094 46.339844 110.578125 52.121094 110.832031 Z M 24.789062 116.207031 L 28.019531 118.09375 C 28.539062 118.398438 28.851562 118.976562 28.800781 119.582031 C 28.746094 120.226562 28.71875 120.867188 28.71875 121.503906 C 28.71875 122.109375 28.367188 122.664062 27.824219 122.921875 L 24.460938 124.546875 C 23.800781 124.867188 23.445312 125.609375 23.605469 126.332031 L 24.261719 129.28125 C 24.425781 130.007812 25.058594 130.523438 25.792969 130.519531 L 29.527344 130.515625 C 30.132812 130.515625 30.683594 130.863281 30.941406 131.417969 C 31.210938 131.988281 31.5 132.546875 31.8125 133.09375 C 32.113281 133.625 32.085938 134.28125 31.746094 134.785156 L 29.625 137.902344 C 29.210938 138.515625 29.269531 139.335938 29.765625 139.882812 L 31.789062 142.101562 C 32.289062 142.644531 33.09375 142.769531 33.726562 142.398438 L 36.953125 140.507812 C 37.476562 140.199219 38.125 140.222656 38.625 140.570312 C 39.136719 140.925781 39.664062 141.261719 40.210938 141.578125 C 40.738281 141.882812 41.039062 142.46875 40.992188 143.082031 L 40.695312 146.847656 C 40.636719 147.585938 41.09375 148.269531 41.792969 148.488281 L 44.644531 149.382812 C 45.34375 149.605469 46.101562 149.300781 46.46875 148.660156 L 48.332031 145.386719 C 48.632812 144.855469 49.207031 144.542969 49.804688 144.589844 C 50.4375 144.644531 51.070312 144.671875 51.699219 144.671875 C 52.296875 144.667969 52.84375 145.027344 53.101562 145.574219 L 54.699219 148.980469 C 55.015625 149.652344 55.746094 150.011719 56.460938 149.847656 L 59.375 149.175781 C 60.089844 149.011719 60.597656 148.367188 60.597656 147.625 L 60.597656 143.84375 C 60.597656 143.234375 60.9375 142.675781 61.480469 142.410156 C 62.050781 142.140625 62.609375 141.839844 63.152344 141.519531 C 63.671875 141.214844 64.324219 141.25 64.816406 141.59375 L 67.890625 143.734375 C 68.496094 144.152344 69.308594 144.09375 69.84375 143.589844 L 72.039062 141.539062 C 72.578125 141.035156 72.699219 140.214844 72.332031 139.574219 L 70.46875 136.308594 C 70.167969 135.78125 70.191406 135.121094 70.53125 134.617188 C 70.886719 134.097656 71.21875 133.558594 71.53125 133.007812 C 71.832031 132.476562 72.410156 132.167969 73.015625 132.21875 L 76.730469 132.511719 C 77.464844 132.570312 78.136719 132.109375 78.355469 131.398438 L 79.242188 128.511719 C 79.460938 127.800781 79.164062 127.035156 78.527344 126.664062 L 75.296875 124.777344 C 74.777344 124.476562 74.46875 123.894531 74.515625 123.285156 C 74.570312 122.644531 74.597656 122.003906 74.597656 121.367188 C 74.597656 120.761719 74.949219 120.210938 75.492188 119.949219 L 78.855469 118.324219 C 79.515625 118.003906 79.875 117.261719 79.710938 116.535156 L 79.054688 113.585938 C 78.890625 112.863281 78.257812 112.351562 77.523438 112.351562 L 73.789062 112.355469 C 73.191406 112.359375 72.636719 112.011719 72.378906 111.464844 C 72.109375 110.886719 71.816406 110.320312 71.5 109.769531 C 71.199219 109.242188 71.230469 108.585938 71.574219 108.085938 L 73.691406 104.96875 C 74.105469 104.355469 74.050781 103.535156 73.550781 102.988281 L 71.523438 100.769531 C 71.027344 100.226562 70.222656 100.101562 69.589844 100.476562 L 66.363281 102.367188 C 65.839844 102.671875 65.191406 102.648438 64.695312 102.300781 C 64.179688 101.945312 63.648438 101.609375 63.105469 101.292969 C 62.578125 100.988281 62.277344 100.402344 62.324219 99.792969 L 62.621094 96.027344 C 62.679688 95.285156 62.226562 94.605469 61.523438 94.382812 L 58.675781 93.488281 C 57.972656 93.269531 57.214844 93.570312 56.847656 94.210938 L 54.984375 97.484375 C 54.683594 98.015625 54.113281 98.328125 53.511719 98.28125 C 52.878906 98.226562 52.246094 98.203125 51.617188 98.203125 C 51.019531 98.203125 50.472656 97.84375 50.214844 97.296875 L 48.617188 93.890625 C 48.300781 93.21875 47.570312 92.859375 46.855469 93.027344 L 43.941406 93.695312 C 43.226562 93.859375 42.71875 94.503906 42.71875 95.246094 L 42.71875 99.027344 C 42.71875 99.640625 42.375 100.199219 41.828125 100.460938 C 41.265625 100.734375 40.710938 101.027344 40.171875 101.347656 C 39.648438 101.652344 38.996094 101.625 38.5 101.277344 L 35.425781 99.136719 C 34.820312 98.714844 34.011719 98.777344 33.472656 99.28125 L 31.277344 101.335938 C 30.738281 101.839844 30.617188 102.65625 30.984375 103.296875 L 32.847656 106.5625 C 33.148438 107.09375 33.125 107.75 32.785156 108.253906 C 32.429688 108.773438 32.097656 109.3125 31.785156 109.863281 C 31.484375 110.398438 30.90625 110.703125 30.300781 110.65625 L 26.585938 110.359375 C 25.855469 110.300781 25.179688 110.761719 24.960938 111.472656 L 24.074219 114.359375 C 23.855469 115.070312 24.152344 115.839844 24.789062 116.207031 " fill-opacity="1" fill-rule="nonzero"/><path fill="#e5e7fd" d="M 95.304688 88.085938 C 99.1875 88.253906 102.195312 91.578125 102.023438 95.511719 C 101.851562 99.445312 98.5625 102.496094 94.683594 102.324219 C 90.800781 102.15625 87.792969 98.828125 87.964844 94.898438 C 88.136719 90.964844 91.421875 87.914062 95.304688 88.085938 Z M 76.949219 91.695312 L 79.117188 92.960938 C 79.46875 93.164062 79.675781 93.554688 79.644531 93.960938 C 79.605469 94.390625 79.589844 94.820312 79.589844 95.25 C 79.589844 95.65625 79.351562 96.027344 78.988281 96.203125 L 76.730469 97.292969 C 76.285156 97.507812 76.046875 98.007812 76.15625 98.492188 L 76.597656 100.476562 C 76.703125 100.960938 77.132812 101.304688 77.625 101.304688 L 80.132812 101.300781 C 80.539062 101.300781 80.90625 101.535156 81.082031 101.90625 C 81.261719 102.289062 81.457031 102.667969 81.667969 103.03125 C 81.871094 103.390625 81.851562 103.832031 81.621094 104.171875 L 80.199219 106.261719 C 79.917969 106.675781 79.957031 107.226562 80.292969 107.59375 L 81.652344 109.082031 C 81.988281 109.449219 82.527344 109.53125 82.953125 109.28125 L 85.117188 108.011719 C 85.46875 107.804688 85.90625 107.820312 86.238281 108.054688 C 86.585938 108.292969 86.941406 108.519531 87.304688 108.730469 C 87.660156 108.9375 87.863281 109.328125 87.828125 109.738281 L 87.628906 112.269531 C 87.589844 112.765625 87.898438 113.222656 88.367188 113.371094 L 90.28125 113.972656 C 90.753906 114.121094 91.261719 113.917969 91.507812 113.488281 L 92.757812 111.285156 C 92.960938 110.933594 93.34375 110.722656 93.75 110.753906 C 94.171875 110.789062 94.597656 110.808594 95.019531 110.804688 C 95.421875 110.804688 95.789062 111.046875 95.960938 111.414062 L 97.035156 113.699219 C 97.246094 114.152344 97.738281 114.394531 98.21875 114.28125 L 100.175781 113.832031 C 100.65625 113.722656 100.996094 113.289062 100.996094 112.792969 L 100.996094 110.253906 C 100.996094 109.84375 101.222656 109.46875 101.589844 109.292969 C 101.972656 109.109375 102.347656 108.90625 102.710938 108.691406 C 103.0625 108.484375 103.496094 108.507812 103.828125 108.742188 L 105.894531 110.179688 C 106.300781 110.460938 106.84375 110.421875 107.207031 110.082031 L 108.679688 108.703125 C 109.039062 108.367188 109.121094 107.816406 108.875 107.382812 L 107.625 105.191406 C 107.421875 104.835938 107.4375 104.394531 107.667969 104.058594 C 107.90625 103.707031 108.128906 103.347656 108.339844 102.972656 C 108.539062 102.617188 108.929688 102.414062 109.335938 102.445312 L 111.832031 102.644531 C 112.320312 102.683594 112.773438 102.371094 112.921875 101.894531 L 113.515625 99.957031 C 113.660156 99.480469 113.460938 98.964844 113.035156 98.714844 L 110.867188 97.449219 C 110.515625 97.246094 110.308594 96.855469 110.34375 96.449219 C 110.378906 96.019531 110.398438 95.589844 110.398438 95.160156 C 110.398438 94.753906 110.632812 94.382812 110.996094 94.207031 L 113.257812 93.113281 C 113.699219 92.898438 113.941406 92.402344 113.832031 91.917969 L 113.390625 89.933594 C 113.28125 89.449219 112.855469 89.105469 112.363281 89.105469 L 109.855469 89.109375 C 109.453125 89.109375 109.082031 88.878906 108.90625 88.507812 C 108.726562 88.121094 108.527344 87.742188 108.316406 87.371094 C 108.113281 87.015625 108.136719 86.574219 108.367188 86.238281 L 109.789062 84.148438 C 110.066406 83.734375 110.027344 83.183594 109.695312 82.816406 L 108.335938 81.328125 C 108 80.960938 107.460938 80.878906 107.035156 81.128906 L 104.867188 82.398438 C 104.515625 82.605469 104.082031 82.589844 103.746094 82.359375 C 103.402344 82.117188 103.046875 81.890625 102.679688 81.679688 C 102.328125 81.476562 102.125 81.082031 102.15625 80.671875 L 102.355469 78.140625 C 102.394531 77.644531 102.089844 77.1875 101.617188 77.039062 L 99.703125 76.4375 C 99.234375 76.289062 98.726562 76.492188 98.480469 76.925781 L 97.226562 79.121094 C 97.027344 79.476562 96.640625 79.6875 96.238281 79.65625 C 95.8125 79.617188 95.386719 79.601562 94.964844 79.601562 C 94.5625 79.601562 94.199219 79.363281 94.023438 78.996094 L 92.949219 76.707031 C 92.738281 76.257812 92.246094 76.015625 91.765625 76.128906 L 89.8125 76.578125 C 89.332031 76.6875 88.988281 77.121094 88.988281 77.617188 L 88.992188 80.15625 C 88.992188 80.570312 88.757812 80.945312 88.390625 81.121094 C 88.015625 81.304688 87.640625 81.503906 87.277344 81.714844 C 86.929688 81.921875 86.492188 81.902344 86.15625 81.667969 L 84.09375 80.230469 C 83.6875 79.949219 83.140625 79.988281 82.78125 80.328125 L 81.308594 81.707031 C 80.945312 82.042969 80.863281 82.59375 81.109375 83.027344 L 82.359375 85.21875 C 82.5625 85.574219 82.546875 86.015625 82.320312 86.351562 C 82.082031 86.703125 81.859375 87.0625 81.648438 87.433594 C 81.445312 87.789062 81.058594 87.996094 80.652344 87.964844 L 78.15625 87.765625 C 77.664062 87.730469 77.210938 88.039062 77.066406 88.515625 L 76.472656 90.453125 C 76.324219 90.929688 76.523438 91.445312 76.949219 91.695312 " fill-opacity="1" fill-rule="nonzero"/><path fill="#0a21c0" d="M 161.710938 322.929688 C 163.933594 320.710938 165.195312 318.1875 165.195312 315.507812 C 165.195312 306.683594 151.523438 299.527344 134.660156 299.527344 C 117.792969 299.527344 104.121094 306.683594 104.121094 315.507812 C 104.121094 318.1875 105.382812 320.710938 107.609375 322.929688 C 105.382812 325.148438 104.121094 327.671875 104.121094 330.351562 C 104.121094 334.539062 107.199219 338.347656 112.234375 341.195312 C 112.125 341.671875 112.0625 342.15625 112.0625 342.648438 C 112.0625 349.175781 122.179688 354.472656 134.660156 354.472656 C 147.140625 354.472656 157.257812 349.175781 157.257812 342.648438 C 157.257812 342.15625 157.195312 341.671875 157.082031 341.195312 C 162.121094 338.347656 165.195312 334.539062 165.195312 330.351562 C 165.195312 327.671875 163.933594 325.148438 161.710938 322.929688 " fill-opacity="1" fill-rule="nonzero"/><path fill="#f4f5f8" d="M 216.605469 191.839844 C 216.605469 146.582031 179.917969 109.894531 134.660156 109.894531 C 89.488281 109.894531 53.015625 146.113281 52.714844 191.28125 C 52.5625 214.285156 61.886719 235.105469 77.015625 250.078125 C 87.929688 260.878906 95.882812 274.300781 99.746094 289.160156 L 99.933594 289.878906 C 103.683594 304.304688 116.703125 314.371094 131.605469 314.371094 L 137.714844 314.371094 C 152.617188 314.371094 165.636719 304.304688 169.386719 289.878906 L 169.496094 289.445312 C 173.335938 274.691406 180.96875 261.140625 191.882812 250.492188 C 207.132812 235.613281 216.605469 214.835938 216.605469 191.839844 " fill-opacity="1" fill-rule="nonzero"/><path fill="#141619" d="M 134.660156 110.539062 C 90.125 110.539062 53.65625 146.761719 53.359375 191.289062 C 53.210938 213.371094 61.773438 234.085938 77.46875 249.621094 C 88.621094 260.660156 96.542969 274.277344 100.371094 289 L 100.554688 289.71875 C 104.230469 303.855469 117 313.722656 131.601562 313.722656 L 137.710938 313.722656 C 152.320312 313.722656 165.085938 303.855469 168.757812 289.71875 L 168.875 289.28125 C 172.800781 274.167969 180.601562 260.59375 191.429688 250.03125 C 207.25 234.597656 215.957031 213.933594 215.957031 191.839844 C 215.957031 147.011719 179.488281 110.539062 134.660156 110.539062 Z M 137.710938 315.015625 L 131.601562 315.015625 C 116.410156 315.015625 103.128906 304.746094 99.308594 290.042969 L 99.121094 289.324219 C 95.351562 274.828125 87.550781 261.414062 76.558594 250.539062 C 60.617188 234.757812 51.917969 213.714844 52.070312 191.28125 C 52.214844 169.261719 60.859375 148.632812 76.40625 133.191406 C 91.949219 117.753906 112.636719 109.25 134.660156 109.25 C 180.199219 109.25 217.25 146.300781 217.25 191.839844 C 217.25 214.285156 208.402344 235.277344 192.332031 250.957031 C 181.671875 261.351562 173.992188 274.71875 170.121094 289.609375 L 170.007812 290.042969 C 166.1875 304.746094 152.90625 315.015625 137.710938 315.015625 " fill-opacity="1" fill-rule="nonzero"/><path fill="#e5e7fd" d="M 179.28125 200.589844 C 179.28125 224.8125 159.644531 287.328125 135.425781 287.328125 C 111.203125 287.328125 91.570312 224.8125 91.570312 200.589844 C 91.570312 176.367188 111.203125 156.734375 135.425781 156.734375 C 159.644531 156.734375 179.28125 176.367188 179.28125 200.589844 " fill-opacity="1" fill-rule="nonzero"/><path fill="#141619" d="M 140.355469 302.066406 C 140.027344 302.066406 139.746094 301.816406 139.714844 301.480469 C 135.59375 256.941406 156.984375 186.378906 157.203125 185.667969 C 157.308594 185.328125 157.667969 185.136719 158.007812 185.242188 C 158.347656 185.347656 158.542969 185.707031 158.4375 186.046875 C 158.21875 186.753906 136.902344 257.078125 141 301.363281 C 141.03125 301.714844 140.769531 302.03125 140.414062 302.0625 C 140.394531 302.066406 140.375 302.066406 140.355469 302.066406 " fill-opacity="1" fill-rule="nonzero"/><path fill="#141619" d="M 130.230469 300.175781 C 129.878906 300.175781 129.589844 299.890625 129.582031 299.539062 C 128.023438 213.914062 111.148438 189.667969 110.976562 189.433594 C 110.765625 189.144531 110.832031 188.742188 111.121094 188.53125 C 111.410156 188.320312 111.8125 188.386719 112.019531 188.675781 C 112.199219 188.917969 116.429688 194.878906 120.894531 211.566406 C 124.996094 226.898438 130.054688 254.601562 130.875 299.515625 C 130.878906 299.871094 130.597656 300.167969 130.242188 300.175781 C 130.234375 300.175781 130.234375 300.175781 130.230469 300.175781 " fill-opacity="1" fill-rule="nonzero"/><path fill="#141619" d="M 141.625 176.3125 C 141.574219 176.3125 141.425781 176.367188 141.199219 176.585938 C 140.09375 177.652344 138.589844 181.316406 138.757812 185.15625 C 138.863281 187.527344 139.6875 190.472656 141.007812 192.667969 C 142.238281 190.339844 143.078125 187.65625 143.332031 185.378906 C 143.738281 181.792969 142.925781 177.761719 141.933594 176.558594 C 141.78125 176.371094 141.667969 176.316406 141.632812 176.3125 C 141.628906 176.3125 141.628906 176.3125 141.625 176.3125 Z M 128.585938 178.953125 C 128.570312 178.953125 128.554688 178.953125 128.542969 178.953125 C 128.363281 178.972656 128.148438 179.132812 127.933594 179.402344 C 126.925781 180.660156 126.09375 184.199219 126.464844 187.464844 C 126.734375 189.855469 127.648438 192.410156 128.957031 194.429688 C 130.972656 192.121094 132.191406 188.425781 131.933594 185.382812 C 131.710938 182.78125 130.386719 180.195312 129.28125 179.289062 C 129.015625 179.070312 128.773438 178.953125 128.585938 178.953125 Z M 134.402344 199.523438 C 134.3125 199.523438 134.226562 199.523438 134.136719 199.515625 C 132.050781 199.421875 130.238281 198.167969 128.796875 196.390625 C 127.390625 197.5625 125.78125 198.191406 124.082031 198.222656 C 119.96875 198.296875 115.996094 195 114.425781 190.183594 C 114.316406 189.84375 114.503906 189.476562 114.839844 189.367188 C 115.179688 189.257812 115.542969 189.441406 115.65625 189.78125 C 117.027344 193.996094 120.558594 197.007812 124.054688 196.933594 C 125.734375 196.902344 127.0625 196.164062 128.027344 195.347656 C 126.460938 192.996094 125.457031 190.050781 125.179688 187.609375 C 124.800781 184.25 125.566406 180.289062 126.925781 178.59375 C 127.367188 178.039062 127.867188 177.730469 128.402344 177.671875 C 128.953125 177.613281 129.527344 177.820312 130.101562 178.289062 C 131.648438 179.5625 132.988281 182.5625 133.21875 185.273438 C 133.511719 188.746094 132.148438 192.8125 129.824219 195.398438 C 129.792969 195.433594 129.761719 195.464844 129.730469 195.5 C 131.007812 197.082031 132.550781 198.152344 134.195312 198.226562 C 136.515625 198.339844 138.648438 196.484375 140.269531 193.933594 C 138.582031 191.457031 137.59375 187.988281 137.472656 185.210938 C 137.296875 181.296875 138.792969 177.113281 140.300781 175.65625 C 140.777344 175.199219 141.261719 174.988281 141.734375 175.023438 C 142.171875 175.0625 142.570312 175.300781 142.929688 175.734375 C 144.261719 177.347656 145.03125 181.832031 144.613281 185.523438 C 144.320312 188.140625 143.34375 191.25 141.847656 193.875 C 142.828125 195.078125 143.988281 195.847656 145.308594 195.832031 C 147.628906 195.796875 150.132812 193.175781 151.542969 189.3125 C 151.664062 188.972656 152.035156 188.800781 152.371094 188.925781 C 152.707031 189.046875 152.878906 189.417969 152.757812 189.753906 C 151.140625 194.1875 148.222656 197.078125 145.328125 197.125 C 143.714844 197.144531 142.289062 196.324219 141.128906 195.035156 C 139.378906 197.636719 137.070312 199.523438 134.402344 199.523438 " fill-opacity="1" fill-rule="nonzero"/><path fill="#e5e7fd" d="M 169.070312 149.554688 C 171.609375 152.128906 174.496094 154.347656 176.925781 157.03125 C 179.542969 159.921875 181.777344 163.296875 183.84375 166.59375 C 185.847656 169.785156 187.722656 173.167969 189.070312 176.695312 C 189.691406 178.328125 190.011719 180.070312 190.449219 181.753906 C 191.117188 184.320312 192.183594 190.109375 195.628906 190.398438 C 197.539062 190.558594 198.960938 188.636719 199.871094 187.234375 C 201.488281 184.738281 202.253906 181.78125 202.542969 178.851562 C 203.148438 172.695312 201.683594 166.472656 199.375 160.800781 C 196.984375 154.917969 193.558594 149.402344 189.226562 144.75 C 187.433594 142.828125 185.421875 140.96875 183.210938 139.394531 C 183.144531 139.34375 183.082031 139.289062 183.015625 139.234375 C 180.46875 137.230469 177.664062 135.148438 174.34375 134.8125 C 171.824219 134.558594 169.089844 135.214844 167.089844 136.796875 C 162.199219 140.671875 165.648438 146.089844 169.070312 149.554688 " fill-opacity="1" fill-rule="nonzero"/><path fill="#141619" d="M 159.09375 251.050781 C 158.84375 251.050781 158.609375 250.90625 158.503906 250.664062 C 158.359375 250.335938 158.511719 249.957031 158.835938 249.8125 C 174.898438 242.855469 187.597656 229.460938 193.675781 213.066406 C 193.800781 212.734375 194.171875 212.5625 194.503906 212.6875 C 194.839844 212.8125 195.011719 213.179688 194.886719 213.515625 C 188.683594 230.238281 175.734375 243.898438 159.351562 251 C 159.269531 251.035156 159.179688 251.050781 159.09375 251.050781 " fill-opacity="1" fill-rule="nonzero"/><path fill="#b3b4bd" d="M 109.285156 123.070312 L 109.46875 125.050781 C 109.652344 127.078125 111.828125 128.402344 113.917969 127.75 C 127.675781 123.476562 142.972656 124.390625 159.386719 129.070312 C 161.425781 129.652344 163.546875 128.371094 163.800781 126.402344 L 164.050781 124.464844 C 164.25 122.945312 163.246094 121.515625 161.664062 121.082031 C 141.925781 115.679688 125.507812 115.625 111.691406 119.761719 C 110.15625 120.222656 109.148438 121.589844 109.285156 123.070312 " fill-opacity="1" fill-rule="nonzero"/><path fill="#0a21c0" d="M 161.664062 121.082031 C 141.925781 115.679688 125.507812 115.625 111.691406 119.761719 C 110.15625 120.222656 109.148438 121.589844 109.285156 123.070312 L 109.394531 124.253906 C 109.8125 123.777344 110.378906 123.402344 111.042969 123.207031 C 124.863281 119.066406 141.28125 119.121094 161.019531 124.527344 C 162.457031 124.917969 163.417969 126.140625 163.429688 127.503906 C 163.617188 127.171875 163.75 126.800781 163.800781 126.402344 L 164.050781 124.464844 C 164.25 122.945312 163.246094 121.515625 161.664062 121.082031 " fill-opacity="1" fill-rule="nonzero"/><path fill="#0a21c0" d="M 132.867188 124.335938 C 141.085938 124.335938 149.9375 125.707031 159.566406 128.449219 C 160.40625 128.6875 161.300781 128.554688 162.023438 128.082031 C 162.664062 127.660156 163.070312 127.035156 163.160156 126.320312 L 163.414062 124.382812 C 163.570312 123.179688 162.761719 122.054688 161.492188 121.707031 C 142.761719 116.574219 126.066406 116.128906 111.875 120.382812 C 110.621094 120.757812 109.820312 121.839844 109.929688 123.011719 L 110.109375 124.992188 C 110.175781 125.71875 110.566406 126.355469 111.210938 126.789062 C 111.945312 127.277344 112.859375 127.402344 113.726562 127.136719 C 119.726562 125.269531 126.082031 124.335938 132.867188 124.335938 Z M 160.394531 129.859375 C 160 129.859375 159.601562 129.804688 159.210938 129.695312 C 141.886719 124.753906 127.136719 124.320312 114.109375 128.367188 C 112.871094 128.753906 111.554688 128.566406 110.496094 127.863281 C 109.535156 127.21875 108.925781 126.214844 108.824219 125.109375 L 108.644531 123.128906 C 108.480469 121.335938 109.65625 119.699219 111.503906 119.144531 C 125.933594 114.824219 142.863281 115.265625 161.835938 120.460938 C 163.730469 120.980469 164.933594 122.699219 164.691406 124.546875 L 164.441406 126.488281 C 164.304688 127.5625 163.679688 128.535156 162.730469 129.160156 C 162.035156 129.621094 161.21875 129.859375 160.394531 129.859375 " fill-opacity="1" fill-rule="nonzero"/><path fill="#f4f5f8" d="M 123.152344 327.621094 C 115.410156 327.621094 110.152344 326.808594 110.035156 326.789062 C 109.683594 326.734375 109.441406 326.402344 109.5 326.050781 C 109.554688 325.699219 109.886719 325.460938 110.238281 325.515625 C 110.503906 325.558594 137.054688 329.648438 158.902344 319.128906 C 159.226562 318.976562 159.609375 319.109375 159.765625 319.429688 C 159.917969 319.753906 159.785156 320.136719 159.460938 320.292969 C 147 326.292969 133.046875 327.621094 123.152344 327.621094 " fill-opacity="1" fill-rule="nonzero"/><path fill="#f4f5f8" d="M 126.289062 341.960938 C 120.644531 341.960938 116.8125 341.371094 116.726562 341.355469 C 116.371094 341.296875 116.132812 340.96875 116.1875 340.617188 C 116.246094 340.265625 116.578125 340.023438 116.929688 340.078125 C 117.121094 340.113281 136.375 343.078125 152.210938 335.453125 C 152.53125 335.300781 152.921875 335.433594 153.074219 335.753906 C 153.226562 336.074219 153.09375 336.460938 152.773438 336.617188 C 143.679688 340.992188 133.503906 341.960938 126.289062 341.960938 " fill-opacity="1" fill-rule="nonzero"/><path fill="#f4f5f8" d="M 101.367188 187.96875 C 100.707031 188.113281 100.175781 188.734375 99.757812 189.148438 C 99.335938 189.558594 97.769531 191.746094 97.769531 191.746094 C 97.769531 191.746094 96.671875 191.761719 95.339844 192.023438 C 95.757812 190.730469 94.75 188.929688 94.75 188.929688 L 91.371094 193.929688 C 89.585938 196.042969 91.746094 198.378906 91.746094 198.378906 L 100.128906 193.84375 L 102.800781 188.179688 C 102.800781 188.179688 102.03125 187.824219 101.367188 187.96875 " fill-opacity="1" fill-rule="nonzero"/><path fill="#141619" d="M 97.769531 191.746094 L 97.773438 191.746094 Z M 94.617188 190.28125 L 91.90625 194.289062 C 91.894531 194.308594 91.882812 194.328125 91.867188 194.34375 C 90.839844 195.5625 91.484375 196.902344 91.921875 197.550781 L 99.632812 193.375 L 101.890625 188.59375 C 101.757812 188.578125 101.621094 188.574219 101.503906 188.601562 C 101.121094 188.683594 100.722656 189.089844 100.398438 189.417969 C 100.332031 189.484375 100.269531 189.546875 100.207031 189.605469 C 99.929688 189.878906 98.886719 191.292969 98.296875 192.121094 C 98.175781 192.289062 97.984375 192.386719 97.78125 192.390625 C 97.769531 192.390625 96.71875 192.410156 95.464844 192.65625 C 95.242188 192.703125 95.011719 192.625 94.859375 192.453125 C 94.707031 192.28125 94.65625 192.042969 94.726562 191.824219 C 94.871094 191.378906 94.773438 190.792969 94.617188 190.28125 Z M 91.746094 199.023438 C 91.570312 199.023438 91.398438 198.953125 91.273438 198.816406 C 90.394531 197.867188 89.1875 195.550781 90.855469 193.539062 L 94.214844 188.570312 C 94.34375 188.382812 94.550781 188.273438 94.777344 188.285156 C 95.003906 188.292969 95.207031 188.421875 95.316406 188.617188 C 95.40625 188.78125 96.058594 189.992188 96.085938 191.246094 C 96.65625 191.164062 97.132812 191.128906 97.429688 191.113281 C 97.894531 190.46875 98.933594 189.050781 99.304688 188.6875 L 99.480469 188.511719 C 99.898438 188.085938 100.472656 187.503906 101.230469 187.339844 C 102.078125 187.15625 102.96875 187.546875 103.070312 187.59375 C 103.226562 187.664062 103.347656 187.792969 103.40625 187.957031 C 103.464844 188.121094 103.457031 188.296875 103.382812 188.453125 L 100.710938 194.121094 C 100.652344 194.246094 100.554688 194.347656 100.433594 194.414062 L 92.054688 198.945312 C 91.957031 199 91.851562 199.023438 91.746094 199.023438 " fill-opacity="1" fill-rule="nonzero"/><path fill="#0a21c0" d="M 23.191406 262.277344 C 20.402344 260.988281 10.335938 256.011719 9.566406 248.074219 C 8.394531 235.992188 29.667969 226.398438 31.953125 225.371094 C 48.03125 218.117188 55.9375 222.089844 69.972656 216.367188 C 75.800781 213.988281 83.34375 208.800781 90.015625 196.210938 C 91.171875 196.648438 92.328125 197.085938 93.484375 197.523438 C 94.960938 210.3125 91.804688 217.324219 88.648438 221.367188 C 83.574219 227.863281 77.261719 228.273438 72.945312 235.414062 C 69.191406 241.628906 69.511719 248.699219 70.304688 253.550781 C 70.367188 254.117188 70.363281 254.964844 69.84375 255.589844 C 68.023438 257.78125 62.882812 253.441406 56.199219 253.648438 C 46.859375 253.933594 40.03125 262.808594 37.289062 260.554688 C 36.8125 260.160156 36.445312 259.308594 38.457031 250.882812 C 40.046875 244.226562 42.320312 240.300781 40.957031 238.710938 C 38.375 235.6875 23.265625 239.320312 21.789062 248.238281 C 20.992188 253.035156 24.496094 257.191406 25.503906 258.3125 C 24.734375 259.632812 23.960938 260.957031 23.191406 262.277344 " fill-opacity="1" fill-rule="nonzero"/><path fill="#141619" d="M 43.859375 200.894531 C 47.769531 201.117188 50.195312 202.347656 52.808594 200.769531 C 54.6875 199.636719 54.578125 198.308594 56.644531 197.445312 C 58.617188 196.621094 61.699219 196.582031 63.109375 198.375 C 64.503906 200.152344 63.699219 203.019531 63.492188 203.757812 C 63.335938 204.308594 63.179688 204.703125 63.03125 204.996094 C 62.230469 206.59375 60.832031 207.480469 58.265625 211.121094 C 56.585938 213.5 56.976562 213.414062 55.253906 215.863281 C 54.476562 216.96875 51.417969 220.578125 48.820312 222.5 C 43.960938 226.101562 41.570312 223.15625 32.351562 226.597656 C 28.09375 228.183594 25.730469 229.882812 22.507812 228.898438 C 20.589844 228.3125 19.558594 227.140625 18.382812 226.015625 C 11.09375 219.042969 5.121094 220.535156 3.757812 216.664062 C 2.054688 211.832031 8.933594 202.542969 16.785156 201.0625 C 22.574219 199.972656 24.1875 204.015625 32.605469 203.070312 C 38.070312 202.457031 38.714844 200.605469 43.859375 200.894531 " fill-opacity="1" fill-rule="nonzero"/><path fill="#f4f5f8" d="M 58.441406 203.351562 C 59.015625 203.757812 59.339844 203.859375 59.8125 204.253906 C 60.773438 205.050781 61.746094 207.550781 63.292969 207.964844 C 63.515625 208.789062 62.855469 208.933594 62.636719 209.421875 C 62.855469 209.816406 63.3125 211.710938 63.726562 212.855469 C 63.875 213.261719 63.695312 213.710938 63.308594 213.898438 C 62.667969 214.21875 61.933594 214.449219 61.101562 214.574219 C 60.714844 215.011719 60.082031 215.859375 59.753906 217.09375 C 59.296875 218.824219 60.847656 219.625 61.046875 220.183594 C 65.824219 224.742188 50.445312 222.144531 52.203125 220.371094 C 54.285156 218.269531 55.003906 215.511719 55.25 213.257812 C 55.117188 213.21875 53.390625 212.707031 53.109375 211.332031 C 53.003906 210.828125 53.054688 210.007812 53.5 209.800781 C 53.9375 209.597656 54.71875 209.992188 55.265625 210.914062 C 55.351562 210.679688 55.421875 210.378906 55.488281 210.035156 C 55.582031 209.5625 55.632812 209.027344 55.484375 208.769531 C 59.578125 207.320312 55.511719 203.542969 58.441406 203.351562 " fill-opacity="1" fill-rule="nonzero"/><path fill="#141619" d="M 52.808594 220.675781 C 53.648438 221.320312 57.730469 222.355469 60.28125 222.027344 C 61.078125 221.925781 61.308594 221.71875 61.324219 221.675781 C 61.324219 221.671875 61.359375 221.375 60.601562 220.648438 C 60.527344 220.582031 60.472656 220.496094 60.4375 220.402344 C 60.410156 220.351562 60.265625 220.191406 60.15625 220.074219 C 59.617188 219.492188 58.710938 218.511719 59.128906 216.929688 C 59.398438 215.910156 59.914062 214.949219 60.613281 214.148438 C 60.714844 214.035156 60.851562 213.960938 61.003906 213.9375 C 61.742188 213.824219 62.421875 213.617188 63.023438 213.320312 C 63.113281 213.277344 63.15625 213.171875 63.121094 213.074219 C 62.914062 212.511719 62.707031 211.78125 62.519531 211.140625 C 62.367188 210.609375 62.15625 209.882812 62.074219 209.730469 C 61.976562 209.554688 61.96875 209.339844 62.050781 209.15625 C 62.171875 208.890625 62.351562 208.707031 62.496094 208.558594 C 62.5625 208.488281 62.609375 208.445312 62.640625 208.402344 C 61.683594 207.925781 60.988281 206.902344 60.363281 205.984375 C 60.011719 205.46875 59.679688 204.980469 59.398438 204.75 C 59.171875 204.558594 58.988281 204.453125 58.753906 204.316406 C 58.613281 204.230469 58.453125 204.136719 58.273438 204.019531 C 58.109375 204.046875 58.015625 204.09375 57.984375 204.132812 C 57.875 204.265625 57.945312 204.796875 57.996094 205.1875 C 58.148438 206.308594 58.394531 208.136719 56.222656 209.164062 C 56.230469 209.441406 56.199219 209.769531 56.121094 210.15625 C 56.058594 210.476562 55.980469 210.839844 55.871094 211.140625 C 55.785156 211.371094 55.574219 211.535156 55.324219 211.558594 C 55.078125 211.578125 54.835938 211.457031 54.710938 211.242188 C 54.363281 210.65625 53.949219 210.421875 53.785156 210.398438 C 53.722656 210.527344 53.675781 210.882812 53.742188 211.203125 C 53.949219 212.207031 55.410156 212.632812 55.425781 212.636719 C 55.726562 212.722656 55.925781 213.015625 55.890625 213.328125 C 55.554688 216.402344 54.519531 218.871094 52.808594 220.675781 Z M 59.285156 223.375 C 56.808594 223.375 52.125 222.53125 51.503906 221.066406 C 51.332031 220.671875 51.425781 220.242188 51.746094 219.914062 C 53.238281 218.40625 54.179688 216.3125 54.546875 213.6875 C 53.855469 213.386719 52.734375 212.71875 52.476562 211.460938 C 52.355469 210.863281 52.351562 209.625 53.230469 209.214844 C 53.738281 208.980469 54.355469 209.117188 54.914062 209.539062 C 54.953125 209.195312 54.917969 209.078125 54.914062 209.074219 C 54.816406 208.910156 54.804688 208.71875 54.871094 208.539062 C 54.933594 208.359375 55.085938 208.226562 55.265625 208.160156 C 57.011719 207.542969 56.882812 206.582031 56.71875 205.359375 C 56.621094 204.632812 56.519531 203.878906 56.984375 203.3125 C 57.285156 202.949219 57.746094 202.75 58.398438 202.707031 C 58.546875 202.695312 58.691406 202.738281 58.8125 202.824219 C 59.042969 202.984375 59.230469 203.097656 59.410156 203.199219 C 59.660156 203.347656 59.917969 203.5 60.226562 203.753906 C 60.644531 204.105469 61.027344 204.664062 61.429688 205.257812 C 62.03125 206.140625 62.710938 207.140625 63.460938 207.339844 C 63.683594 207.398438 63.855469 207.574219 63.917969 207.792969 C 64.160156 208.703125 63.675781 209.195312 63.414062 209.464844 C 63.402344 209.476562 63.386719 209.492188 63.371094 209.507812 C 63.472656 209.800781 63.59375 210.214844 63.757812 210.78125 C 63.9375 211.40625 64.144531 212.113281 64.332031 212.636719 C 64.59375 213.351562 64.277344 214.140625 63.597656 214.480469 C 62.941406 214.800781 62.21875 215.035156 61.441406 215.171875 C 60.941406 215.789062 60.578125 216.503906 60.378906 217.257812 C 60.15625 218.089844 60.539062 218.589844 61.105469 219.199219 C 61.296875 219.40625 61.46875 219.59375 61.582031 219.800781 C 62 220.207031 62.910156 221.171875 62.527344 222.148438 C 62.210938 222.949219 61.199219 223.347656 59.433594 223.375 C 59.386719 223.375 59.335938 223.375 59.285156 223.375 " fill-opacity="1" fill-rule="nonzero"/><path fill="#f4f5f8" d="M 57.617188 214.328125 C 57.617188 214.328125 59.113281 215.105469 60.964844 214.601562 L 57.617188 214.328125 " fill-opacity="1" fill-rule="nonzero"/><path fill="#141619" d="M 59.6875 215.414062 C 58.332031 215.414062 57.371094 214.925781 57.316406 214.898438 C 57 214.734375 56.878906 214.34375 57.042969 214.03125 C 57.207031 213.714844 57.59375 213.589844 57.910156 213.753906 C 57.9375 213.765625 59.234375 214.402344 60.796875 213.976562 C 61.140625 213.882812 61.496094 214.085938 61.585938 214.429688 C 61.683594 214.773438 61.480469 215.128906 61.132812 215.222656 C 60.621094 215.363281 60.132812 215.414062 59.6875 215.414062 " fill-opacity="1" fill-rule="nonzero"/><path fill="#f4f5f8" d="M 22.492188 260.964844 L 28.042969 256.699219 L 32.644531 256.601562 C 32.644531 256.601562 32.652344 257.226562 32.355469 257.628906 C 32.0625 258.027344 31.488281 258.195312 31.085938 258.355469 C 30.683594 258.511719 28.746094 258.910156 28.746094 258.910156 C 28.746094 258.910156 28.1875 261.894531 26.230469 262.457031 C 24.277344 263.019531 22.492188 260.964844 22.492188 260.964844 " fill-opacity="1" fill-rule="nonzero"/><path fill="#141619" d="M 22.492188 260.964844 L 22.496094 260.964844 Z M 23.484375 261.019531 C 24.0625 261.496094 25.058594 262.125 26.050781 261.835938 C 27.582031 261.394531 28.109375 258.816406 28.113281 258.789062 C 28.160156 258.53125 28.359375 258.332031 28.617188 258.277344 C 29.542969 258.089844 30.628906 257.839844 30.847656 257.753906 L 31.035156 257.683594 C 31.320312 257.578125 31.671875 257.445312 31.820312 257.265625 L 28.269531 257.339844 Z M 25.53125 263.199219 C 23.605469 263.199219 22.078125 261.472656 22.007812 261.386719 C 21.890625 261.253906 21.832031 261.078125 21.851562 260.902344 C 21.867188 260.726562 21.960938 260.5625 22.101562 260.453125 L 27.652344 256.1875 C 27.761719 256.101562 27.894531 256.058594 28.03125 256.054688 L 32.632812 255.957031 C 32.808594 255.964844 32.972656 256.015625 33.09375 256.136719 C 33.21875 256.257812 33.289062 256.421875 33.292969 256.597656 C 33.292969 256.679688 33.289062 257.449219 32.878906 258.007812 C 32.511719 258.507812 31.921875 258.730469 31.488281 258.890625 L 31.324219 258.957031 C 30.988281 259.085938 29.90625 259.324219 29.277344 259.457031 C 29.023438 260.390625 28.246094 262.546875 26.410156 263.078125 C 26.113281 263.164062 25.816406 263.199219 25.53125 263.199219 " fill-opacity="1" fill-rule="nonzero"/><path fill="#0a21c0" d="M 70.355469 355.15625 C 70.121094 354.554688 69.71875 353.894531 69.042969 353.273438 C 67.085938 351.476562 57.441406 345.394531 57.441406 345.394531 C 57.441406 345.394531 51.28125 345.25 53.605469 348.5 C 53.605469 348.5 49.945312 348.273438 48.730469 348.585938 C 47.839844 348.820312 47.917969 353.367188 48.023438 355.765625 C 48.058594 356.582031 48.730469 357.222656 49.546875 357.222656 L 68.929688 357.222656 C 69.996094 357.222656 70.746094 356.152344 70.355469 355.15625 " fill-opacity="1" fill-rule="nonzero"/><path fill="#141619" d="M 48.996094 349.1875 C 48.769531 349.585938 48.476562 351.339844 48.667969 355.738281 C 48.691406 356.207031 49.074219 356.578125 49.546875 356.578125 L 68.929688 356.578125 C 69.226562 356.578125 69.496094 356.433594 69.664062 356.1875 C 69.824219 355.949219 69.859375 355.660156 69.753906 355.394531 C 69.515625 354.78125 69.128906 354.230469 68.605469 353.75 C 66.847656 352.136719 58.496094 346.828125 57.253906 346.039062 C 55.988281 346.039062 54.125 346.320312 53.78125 346.972656 C 53.613281 347.289062 53.878906 347.773438 54.128906 348.125 C 54.273438 348.328125 54.289062 348.59375 54.167969 348.8125 C 54.046875 349.03125 53.8125 349.164062 53.5625 349.144531 C 52.609375 349.085938 49.996094 348.980469 48.996094 349.1875 Z M 68.929688 357.867188 L 49.546875 357.867188 C 48.382812 357.867188 47.429688 356.957031 47.378906 355.796875 C 47.054688 348.359375 48 348.109375 48.566406 347.964844 C 49.4375 347.738281 51.304688 347.757812 52.527344 347.800781 C 52.371094 347.285156 52.410156 346.804688 52.636719 346.371094 C 53.5 344.742188 56.800781 344.730469 57.457031 344.75 C 57.574219 344.75 57.6875 344.785156 57.789062 344.847656 C 58.183594 345.097656 67.5 350.984375 69.476562 352.796875 C 70.148438 353.410156 70.644531 354.125 70.957031 354.921875 C 71.214844 355.582031 71.128906 356.328125 70.730469 356.917969 C 70.324219 357.511719 69.648438 357.867188 68.929688 357.867188 " fill-opacity="1" fill-rule="nonzero"/><path fill="#141619" d="M 48.023438 355.742188 C 48.023438 355.75 48.023438 355.757812 48.023438 355.765625 C 48.058594 356.582031 48.730469 357.222656 49.546875 357.222656 L 68.929688 357.222656 C 69.789062 357.222656 70.4375 356.53125 70.457031 355.742188 L 48.023438 355.742188 " fill-opacity="1" fill-rule="nonzero"/><path fill="#141619" d="M 65.078125 354.136719 C 64.988281 354.136719 64.902344 354.121094 64.816406 354.082031 L 55.488281 349.929688 C 55.164062 349.785156 55.019531 349.402344 55.164062 349.078125 C 55.308594 348.753906 55.691406 348.605469 56.015625 348.75 L 65.339844 352.902344 C 65.667969 353.046875 65.8125 353.429688 65.667969 353.753906 C 65.5625 353.996094 65.324219 354.136719 65.078125 354.136719 " fill-opacity="1" fill-rule="nonzero"/><path fill="#0a21c0" d="M 8.808594 341.308594 L 10.023438 338.492188 C 14.578125 337.289062 13.683594 340.582031 13.472656 342.320312 C 13.261719 344.054688 15.582031 351.113281 17.054688 352.574219 C 18.53125 354.039062 17.496094 356.082031 17.496094 356.082031 C 17.496094 356.082031 11.992188 357.636719 8.230469 354.5 C 4.464844 351.367188 2.4375 339.300781 2.4375 339.300781 C 4.917969 335.695312 9.5 335.070312 9.5 335.070312 C 9.5 335.070312 7.101562 337.71875 8.808594 341.308594 " fill-opacity="1" fill-rule="nonzero"/><path fill="#141619" d="M 3.121094 339.453125 C 3.441406 341.210938 5.402344 351.304688 8.640625 354.003906 C 11.617188 356.480469 15.875 355.777344 17.023438 355.527344 C 17.203125 355.023438 17.460938 353.886719 16.601562 353.035156 C 14.960938 351.40625 12.59375 344.191406 12.832031 342.238281 C 12.851562 342.085938 12.875 341.917969 12.902344 341.738281 C 13.03125 340.839844 13.207031 339.609375 12.6875 339.148438 C 12.332031 338.828125 11.574219 338.792969 10.492188 339.042969 L 9.402344 341.566406 C 9.304688 341.796875 9.074219 341.949219 8.824219 341.953125 C 8.5625 341.945312 8.335938 341.816406 8.226562 341.585938 C 7.125 339.273438 7.554688 337.316406 8.121094 336.074219 C 6.703125 336.53125 4.5625 337.503906 3.121094 339.453125 Z M 14.289062 357.117188 C 12.328125 357.117188 9.855469 356.695312 7.816406 354.996094 C 3.914062 351.746094 1.886719 339.910156 1.800781 339.40625 C 1.773438 339.242188 1.8125 339.074219 1.90625 338.933594 C 4.515625 335.136719 9.210938 334.457031 9.410156 334.429688 C 9.679688 334.394531 9.945312 334.53125 10.070312 334.769531 C 10.195312 335.007812 10.160156 335.300781 9.976562 335.503906 C 9.90625 335.582031 8.535156 337.15625 8.898438 339.46875 L 9.433594 338.238281 C 9.511719 338.054688 9.667969 337.917969 9.859375 337.867188 C 11.589844 337.410156 12.796875 337.515625 13.546875 338.183594 C 14.585938 339.109375 14.351562 340.734375 14.179688 341.921875 C 14.152344 342.089844 14.132812 342.25 14.113281 342.394531 C 13.925781 343.933594 16.183594 350.796875 17.511719 352.117188 C 19.296875 353.890625 18.121094 356.269531 18.070312 356.371094 C 17.988281 356.53125 17.84375 356.652344 17.671875 356.699219 C 17.554688 356.734375 16.152344 357.117188 14.289062 357.117188 " fill-opacity="1" fill-rule="nonzero"/><path fill="#141619" d="M 6.320312 348.277344 C 4.585938 344.429688 4.253906 340.019531 4.230469 337.390625 C 3.582031 337.910156 2.960938 338.535156 2.4375 339.300781 C 2.4375 339.300781 4.464844 351.367188 8.230469 354.5 C 11.992188 357.636719 17.496094 356.082031 17.496094 356.082031 C 17.496094 356.082031 17.878906 355.3125 17.84375 354.382812 C 10.222656 355.425781 8.882812 353.957031 6.320312 348.277344 " fill-opacity="1" fill-rule="nonzero"/><path fill="#0a21c0" d="M 17.84375 354.382812 C 17.820312 353.796875 17.628906 353.144531 17.054688 352.574219 C 15.582031 351.113281 13.261719 344.054688 13.472656 342.320312 C 13.683594 340.582031 14.578125 337.289062 10.023438 338.492188 L 8.808594 341.308594 C 7.101562 337.71875 9.5 335.070312 9.5 335.070312 C 9.5 335.070312 6.652344 335.460938 4.230469 337.390625 C 4.253906 340.019531 4.585938 344.429688 6.320312 348.277344 C 8.882812 353.957031 10.222656 355.425781 17.84375 354.382812 " fill-opacity="1" fill-rule="nonzero"/><path fill="#141619" d="M 4.882812 337.703125 C 4.925781 340.105469 5.261719 344.355469 6.910156 348.011719 C 9.214844 353.128906 10.242188 354.671875 17.097656 353.828125 C 17.003906 353.53125 16.839844 353.269531 16.601562 353.035156 C 14.960938 351.40625 12.59375 344.191406 12.832031 342.238281 C 12.851562 342.085938 12.875 341.917969 12.902344 341.738281 C 13.03125 340.839844 13.207031 339.609375 12.6875 339.148438 C 12.332031 338.828125 11.574219 338.792969 10.492188 339.042969 L 9.402344 341.566406 C 9.304688 341.796875 9.074219 341.949219 8.824219 341.953125 C 8.5625 341.945312 8.335938 341.816406 8.226562 341.585938 C 7.125 339.273438 7.558594 337.316406 8.121094 336.074219 C 7.210938 336.367188 6.007812 336.867188 4.882812 337.703125 Z M 14.09375 355.332031 C 9.269531 355.332031 7.867188 353.273438 5.734375 348.542969 C 4.003906 344.703125 3.609375 340.363281 3.585938 337.394531 C 3.585938 337.195312 3.675781 337.011719 3.828125 336.886719 C 6.359375 334.871094 9.289062 334.445312 9.410156 334.429688 C 9.679688 334.394531 9.941406 334.53125 10.070312 334.769531 C 10.195312 335.007812 10.160156 335.300781 9.976562 335.503906 C 9.90625 335.582031 8.535156 337.15625 8.898438 339.46875 L 9.433594 338.238281 C 9.511719 338.054688 9.667969 337.917969 9.859375 337.867188 C 11.589844 337.410156 12.796875 337.515625 13.546875 338.183594 C 14.585938 339.109375 14.351562 340.734375 14.179688 341.925781 C 14.152344 342.089844 14.132812 342.25 14.113281 342.394531 C 13.925781 343.933594 16.183594 350.796875 17.511719 352.117188 C 18.125 352.726562 18.453125 353.480469 18.488281 354.359375 C 18.503906 354.691406 18.261719 354.980469 17.929688 355.023438 C 16.445312 355.226562 15.179688 355.332031 14.09375 355.332031 " fill-opacity="1" fill-rule="nonzero"/><path fill="#141619" d="M 10.136719 350.085938 C 9.84375 350.085938 9.578125 349.882812 9.507812 349.582031 C 9.472656 349.429688 8.636719 345.75 8.332031 342.007812 C 8.304688 341.652344 8.570312 341.34375 8.921875 341.3125 C 9.277344 341.289062 9.589844 341.550781 9.621094 341.90625 C 9.914062 345.554688 10.757812 349.257812 10.765625 349.292969 C 10.847656 349.644531 10.628906 349.988281 10.28125 350.070312 C 10.234375 350.078125 10.183594 350.085938 10.136719 350.085938 " fill-opacity="1" fill-rule="nonzero"/><g clip-path="url(#ac72ceb0f3)"><path fill="#141619" d="M 48.316406 282.46875 C 48.316406 282.46875 19.910156 328.019531 18.589844 346.007812 C 18.589844 346.007812 14.476562 342.425781 10.222656 341.480469 C 5.96875 340.53125 0.699219 335.367188 0.699219 335.367188 C 0.699219 335.367188 2.496094 314.421875 8.339844 308.273438 C 14.183594 302.128906 22.648438 294.554688 27.6875 286.058594 C 32.722656 277.558594 33.691406 270.773438 38.628906 264.484375 C 43.5625 258.195312 49.417969 252.3125 49.417969 252.3125 C 49.417969 252.3125 62.246094 250.675781 65.933594 255.894531 C 65.761719 260.195312 65.472656 269.386719 64.996094 277.128906 C 64.179688 290.386719 63.347656 298.847656 63.015625 303.054688 C 62.222656 313.132812 62.019531 327.800781 64.832031 347.328125 C 64.832031 347.328125 62.09375 349.628906 56.871094 349.917969 C 51.648438 350.207031 46.664062 350.269531 46.664062 350.269531 C 43.339844 340.097656 43.191406 332.015625 43.683594 326.492188 C 44.628906 315.882812 48.3125 310.296875 48.976562 297.171875 C 49.292969 290.9375 48.785156 285.800781 48.316406 282.46875 " fill-opacity="1" fill-rule="nonzero"/></g><path fill="#e5e7fd" d="M 48.894531 281.839844 C 48.796875 281.839844 48.695312 281.816406 48.601562 281.769531 C 48.285156 281.605469 48.160156 281.214844 48.324219 280.898438 L 54.050781 269.78125 C 54.121094 269.648438 54.234375 269.542969 54.375 269.480469 L 58.863281 267.59375 C 59.1875 267.457031 59.570312 267.609375 59.707031 267.9375 C 59.84375 268.265625 59.691406 268.648438 59.363281 268.785156 L 55.09375 270.582031 L 49.46875 281.488281 C 49.355469 281.710938 49.128906 281.839844 48.894531 281.839844 " fill-opacity="1" fill-rule="nonzero"/><path fill="#141619" d="M 121.363281 159.808594 C 121.363281 178.046875 106.578125 192.835938 88.335938 192.835938 C 70.09375 192.835938 55.304688 178.046875 55.304688 159.808594 C 55.304688 141.566406 70.09375 126.777344 88.335938 126.777344 C 106.578125 126.777344 121.363281 141.566406 121.363281 159.808594 " fill-opacity="1" fill-rule="nonzero"/><path fill="#b3b4bd" d="M 121.796875 158.828125 C 121.796875 176.527344 107.449219 190.875 89.746094 190.875 C 72.046875 190.875 57.699219 176.527344 57.699219 158.828125 C 57.699219 141.125 72.046875 126.777344 89.746094 126.777344 C 107.449219 126.777344 121.796875 141.125 121.796875 158.828125 " fill-opacity="1" fill-rule="nonzero"/><path fill="#141619" d="M 89.75 127.421875 C 72.433594 127.421875 58.34375 141.511719 58.34375 158.828125 C 58.34375 176.144531 72.433594 190.230469 89.75 190.230469 C 107.0625 190.230469 121.152344 176.144531 121.152344 158.828125 C 121.152344 141.511719 107.0625 127.421875 89.75 127.421875 Z M 89.75 191.519531 C 71.71875 191.519531 57.054688 176.851562 57.054688 158.828125 C 57.054688 140.800781 71.71875 126.132812 89.75 126.132812 C 107.773438 126.132812 122.441406 140.800781 122.441406 158.828125 C 122.441406 176.851562 107.773438 191.519531 89.75 191.519531 " fill-opacity="1" fill-rule="nonzero"/><path fill="#f4f5f8" d="M 116.644531 158.828125 C 116.644531 173.679688 104.601562 185.722656 89.746094 185.722656 C 74.894531 185.722656 62.851562 173.679688 62.851562 158.828125 C 62.851562 143.972656 74.894531 131.933594 89.746094 131.933594 C 104.601562 131.933594 116.644531 143.972656 116.644531 158.828125 " fill-opacity="1" fill-rule="nonzero"/><path fill="#141619" d="M 112.359375 174.039062 C 112.238281 174.039062 112.117188 174.007812 112.007812 173.9375 C 111.710938 173.746094 111.625 173.34375 111.816406 173.046875 C 113.179688 170.9375 114.226562 168.648438 114.933594 166.25 C 115.035156 165.90625 115.394531 165.714844 115.734375 165.8125 C 116.078125 165.914062 116.273438 166.273438 116.171875 166.613281 C 115.429688 169.132812 114.332031 171.53125 112.902344 173.746094 C 112.777344 173.9375 112.570312 174.039062 112.359375 174.039062 " fill-opacity="1" fill-rule="nonzero"/><path fill="#141619" d="M 113.957031 147.742188 C 113.714844 147.742188 113.488281 147.605469 113.375 147.375 C 108.941406 138.25 99.890625 132.578125 89.75 132.578125 C 81.417969 132.578125 73.496094 136.59375 68.5625 143.320312 C 68.355469 143.609375 67.949219 143.671875 67.660156 143.460938 C 67.375 143.25 67.3125 142.847656 67.523438 142.558594 C 72.699219 135.5 81.007812 131.285156 89.75 131.285156 C 100.226562 131.285156 109.957031 137.378906 114.539062 146.8125 C 114.691406 147.132812 114.558594 147.519531 114.238281 147.675781 C 114.148438 147.71875 114.050781 147.742188 113.957031 147.742188 " fill-opacity="1" fill-rule="nonzero"/><path fill="#141619" d="M 89.75 186.367188 C 74.5625 186.367188 62.207031 174.011719 62.207031 158.828125 C 62.207031 154.109375 63.421875 149.453125 65.714844 145.367188 C 65.890625 145.054688 66.28125 144.945312 66.59375 145.121094 C 66.90625 145.292969 67.015625 145.6875 66.839844 145.996094 C 64.652344 149.894531 63.5 154.332031 63.5 158.828125 C 63.5 173.300781 75.273438 185.074219 89.75 185.074219 C 90.105469 185.074219 90.394531 185.363281 90.394531 185.722656 C 90.394531 186.078125 90.105469 186.367188 89.75 186.367188 " fill-opacity="1" fill-rule="nonzero"/><path fill="#0a21c0" d="M 87.28125 177.816406 L 87.28125 173.394531 C 84.164062 173.253906 81.136719 172.417969 79.371094 171.394531 L 80.765625 165.945312 C 82.71875 167.019531 85.464844 167.996094 88.492188 167.996094 C 91.144531 167.996094 92.960938 166.96875 92.960938 165.109375 C 92.960938 163.339844 91.46875 162.222656 88.027344 161.0625 C 83.046875 159.386719 79.648438 157.058594 79.648438 152.542969 C 79.648438 148.449219 82.535156 145.234375 87.515625 144.257812 L 87.515625 139.839844 L 92.074219 139.839844 L 92.074219 143.933594 C 95.191406 144.070312 97.289062 144.722656 98.824219 145.46875 L 97.472656 150.730469 C 96.261719 150.21875 94.121094 149.144531 90.773438 149.144531 C 87.746094 149.144531 86.769531 150.449219 86.769531 151.753906 C 86.769531 153.289062 88.398438 154.265625 92.355469 155.753906 C 97.890625 157.710938 100.125 160.269531 100.125 164.457031 C 100.125 168.601562 97.195312 172.136719 91.84375 173.070312 L 91.84375 177.816406 L 87.28125 177.816406 " fill-opacity="1" fill-rule="nonzero"/><path fill="#0a21c0" d="M 301.023438 330.226562 L 301.03125 340.109375 C 301.035156 343.105469 297.570312 346.105469 290.601562 348.429688 C 276.667969 353.074219 253.933594 353.269531 239.371094 348.925781 C 239.128906 348.855469 238.894531 348.78125 238.660156 348.707031 C 231.277344 346.386719 227.574219 343.304688 227.570312 340.210938 L 227.5625 330.332031 C 227.5625 333.421875 231.273438 336.507812 238.648438 338.828125 C 238.886719 338.902344 239.121094 338.972656 239.359375 339.042969 C 253.925781 343.390625 276.664062 343.191406 290.59375 338.546875 C 297.558594 336.226562 301.027344 333.222656 301.023438 330.226562 " fill-opacity="1" fill-rule="nonzero"/><path fill="#b3b4bd" d="M 289.214844 321.515625 C 289.460938 321.585938 289.695312 321.65625 289.929688 321.734375 C 304.457031 326.296875 304.753906 333.828125 290.589844 338.546875 C 276.660156 343.191406 253.925781 343.390625 239.359375 339.042969 C 239.121094 338.972656 238.886719 338.902344 238.648438 338.828125 C 224.125 334.261719 223.828125 326.734375 237.988281 322.011719 C 251.917969 317.371094 274.652344 317.171875 289.214844 321.515625 " fill-opacity="1" fill-rule="nonzero"/><path fill="#0a21c0" d="M 303.058594 316.523438 L 303.0625 326.40625 C 303.066406 329.402344 299.601562 332.402344 292.632812 334.726562 C 278.703125 339.367188 255.964844 339.566406 241.402344 335.21875 C 241.160156 335.152344 240.925781 335.078125 240.691406 335.003906 C 233.3125 332.683594 229.605469 329.601562 229.601562 326.507812 L 229.59375 316.628906 C 229.597656 319.71875 233.304688 322.804688 240.683594 325.125 C 240.921875 325.195312 241.15625 325.269531 241.394531 325.339844 C 255.957031 329.683594 278.695312 329.488281 292.625 324.84375 C 299.59375 322.523438 303.0625 319.519531 303.058594 316.523438 " fill-opacity="1" fill-rule="nonzero"/><path fill="#e5e7fd" d="M 291.25 307.808594 C 291.492188 307.882812 291.726562 307.953125 291.964844 308.027344 C 306.492188 312.59375 306.785156 320.121094 292.625 324.84375 C 278.695312 329.488281 255.957031 329.683594 241.394531 325.339844 C 241.15625 325.269531 240.917969 325.195312 240.683594 325.125 C 226.15625 320.558594 225.863281 313.027344 240.023438 308.308594 C 253.953125 303.664062 276.6875 303.46875 291.25 307.808594 " fill-opacity="1" fill-rule="nonzero"/><path fill="#0a21c0" d="M 297.234375 302.714844 L 297.238281 312.59375 C 297.246094 315.589844 293.777344 318.59375 286.8125 320.914062 C 272.878906 325.558594 250.140625 325.753906 235.578125 321.414062 C 235.339844 321.339844 235.101562 321.269531 234.867188 321.195312 C 227.488281 318.875 223.78125 315.792969 223.777344 312.699219 L 223.773438 302.816406 C 223.773438 305.910156 227.480469 308.996094 234.863281 311.3125 C 235.09375 311.386719 235.332031 311.460938 235.570312 311.53125 C 250.136719 315.875 272.871094 315.679688 286.804688 311.035156 C 293.769531 308.710938 297.238281 305.710938 297.234375 302.714844 " fill-opacity="1" fill-rule="nonzero"/><path fill="#b3b4bd" d="M 285.429688 294 C 285.671875 294.070312 285.90625 294.144531 286.140625 294.21875 C 300.667969 298.785156 300.964844 306.3125 286.804688 311.035156 C 272.871094 315.679688 250.136719 315.871094 235.570312 311.53125 C 235.332031 311.460938 235.09375 311.386719 234.863281 311.3125 C 220.335938 306.746094 220.039062 299.21875 234.203125 294.5 C 248.132812 289.855469 270.867188 289.65625 285.429688 294 " fill-opacity="1" fill-rule="nonzero"/><path fill="#0a21c0" d="M 304.449219 291.339844 L 304.457031 301.21875 C 304.460938 304.214844 300.992188 307.214844 294.027344 309.539062 C 280.09375 314.179688 257.359375 314.378906 242.792969 310.035156 C 242.554688 309.964844 242.316406 309.890625 242.085938 309.816406 C 234.707031 307.5 231 304.414062 230.992188 301.324219 L 230.984375 291.441406 C 230.992188 294.535156 234.699219 297.617188 242.078125 299.9375 C 242.3125 300.011719 242.546875 300.082031 242.789062 300.15625 C 257.351562 304.496094 280.089844 304.300781 294.019531 299.65625 C 300.988281 297.335938 304.453125 294.332031 304.449219 291.339844 " fill-opacity="1" fill-rule="nonzero"/><path fill="#e5e7fd" d="M 292.648438 282.625 C 292.886719 282.695312 293.121094 282.769531 293.359375 282.84375 C 307.886719 287.40625 308.183594 294.9375 294.023438 299.65625 C 280.089844 304.300781 257.351562 304.496094 242.789062 300.15625 C 242.550781 300.082031 242.316406 300.011719 242.078125 299.9375 C 227.554688 295.371094 227.257812 287.84375 241.417969 283.121094 C 255.347656 278.476562 278.085938 278.28125 292.648438 282.625 " fill-opacity="1" fill-rule="nonzero"/><path fill="#0a21c0" d="M 295.914062 280.070312 L 295.921875 289.953125 C 295.925781 292.945312 292.457031 295.945312 285.492188 298.269531 C 271.558594 302.914062 248.824219 303.109375 234.257812 298.765625 C 234.019531 298.695312 233.785156 298.625 233.546875 298.550781 C 226.171875 296.230469 222.464844 293.144531 222.460938 290.054688 L 222.449219 280.171875 C 222.457031 283.265625 226.160156 286.347656 233.539062 288.667969 C 233.773438 288.742188 234.011719 288.816406 234.25 288.882812 C 248.816406 293.230469 271.554688 293.03125 285.484375 288.390625 C 292.449219 286.066406 295.917969 283.066406 295.914062 280.070312 " fill-opacity="1" fill-rule="nonzero"/><path fill="#b3b4bd" d="M 284.109375 271.355469 C 284.351562 271.425781 284.585938 271.5 284.820312 271.570312 C 299.347656 276.136719 299.644531 283.667969 285.484375 288.386719 C 271.550781 293.03125 248.816406 293.230469 234.25 288.882812 C 234.011719 288.816406 233.777344 288.742188 233.539062 288.667969 C 219.019531 284.101562 218.71875 276.574219 232.882812 271.851562 C 246.8125 267.210938 269.546875 267.011719 284.109375 271.355469 " fill-opacity="1" fill-rule="nonzero"/><path fill="#0a21c0" d="M 302.128906 267.367188 L 302.136719 277.25 C 302.140625 280.242188 298.675781 283.246094 291.707031 285.566406 C 277.777344 290.210938 255.039062 290.410156 240.476562 286.066406 C 240.234375 285.992188 240 285.921875 239.765625 285.847656 C 232.386719 283.527344 228.679688 280.445312 228.671875 277.351562 L 228.667969 267.472656 C 228.671875 270.5625 232.378906 273.648438 239.757812 275.96875 C 239.992188 276.042969 240.230469 276.113281 240.46875 276.183594 C 255.03125 280.527344 277.769531 280.332031 291.699219 275.6875 C 298.667969 273.363281 302.132812 270.363281 302.128906 267.367188 " fill-opacity="1" fill-rule="nonzero"/><path fill="#141619" d="M 229.316406 270.828125 L 229.320312 277.351562 C 229.328125 280.234375 233.203125 283.105469 239.957031 285.234375 C 240.191406 285.304688 240.425781 285.375 240.660156 285.445312 C 255.03125 289.730469 277.839844 289.511719 291.503906 284.953125 C 297.855469 282.835938 301.496094 280.03125 301.492188 277.25 L 301.488281 270.722656 C 299.816406 272.832031 296.554688 274.75 291.90625 276.296875 C 277.792969 281.003906 255.113281 281.226562 240.285156 276.800781 C 240.042969 276.730469 239.804688 276.65625 239.566406 276.582031 C 234.5625 275.007812 231.066406 273.03125 229.316406 270.828125 Z M 265.265625 289.859375 C 256.34375 289.859375 247.414062 288.804688 240.292969 286.683594 C 240.050781 286.609375 239.8125 286.539062 239.570312 286.460938 C 232.132812 284.125 228.039062 280.890625 228.03125 277.351562 L 228.023438 267.46875 C 228.023438 267.113281 228.308594 266.824219 228.667969 266.824219 C 229.023438 266.824219 229.3125 267.113281 229.3125 267.46875 C 229.316406 270.351562 233.195312 273.226562 239.953125 275.351562 C 240.183594 275.425781 240.414062 275.492188 240.65625 275.566406 C 255.023438 279.847656 277.828125 279.628906 291.496094 275.074219 C 297.847656 272.957031 301.488281 270.148438 301.484375 267.367188 C 301.484375 267.011719 301.773438 266.722656 302.128906 266.722656 C 302.488281 266.722656 302.773438 267.011719 302.777344 267.367188 C 302.777344 267.367188 302.777344 267.371094 302.777344 267.371094 L 302.785156 277.246094 C 302.789062 280.667969 298.929688 283.839844 291.914062 286.179688 C 284.578125 288.625 274.921875 289.859375 265.265625 289.859375 " fill-opacity="1" fill-rule="nonzero"/><path fill="#f4f5f8" d="M 290.324219 258.652344 C 290.5625 258.726562 290.800781 258.796875 291.035156 258.871094 C 305.5625 263.4375 305.859375 270.964844 291.699219 275.6875 C 277.769531 280.332031 255.03125 280.527344 240.464844 276.183594 C 240.230469 276.113281 239.992188 276.042969 239.753906 275.96875 C 225.230469 271.402344 224.9375 263.871094 239.09375 259.152344 C 253.027344 254.507812 275.761719 254.3125 290.324219 258.652344 " fill-opacity="1" fill-rule="nonzero"/><path fill="#141619" d="M 265.570312 256.199219 C 255.988281 256.199219 246.40625 257.394531 239.300781 259.765625 C 232.929688 261.890625 229.289062 264.707031 229.3125 267.492188 C 229.335938 270.371094 233.214844 273.234375 239.953125 275.351562 C 240.179688 275.425781 240.414062 275.496094 240.652344 275.566406 C 255.019531 279.847656 277.828125 279.628906 291.496094 275.074219 C 297.867188 272.953125 301.507812 270.132812 301.480469 267.347656 C 301.460938 264.46875 297.582031 261.605469 290.84375 259.488281 C 290.609375 259.414062 290.378906 259.34375 290.140625 259.273438 C 283.246094 257.21875 274.410156 256.199219 265.570312 256.199219 Z M 265.257812 279.980469 C 256.332031 279.980469 247.40625 278.925781 240.28125 276.804688 C 240.042969 276.730469 239.800781 276.65625 239.5625 276.582031 C 232.152344 274.253906 228.050781 271.03125 228.019531 267.503906 C 227.992188 264.070312 231.851562 260.886719 238.890625 258.539062 C 253.007812 253.835938 275.675781 253.613281 290.511719 258.035156 C 290.753906 258.109375 290.992188 258.179688 291.230469 258.257812 C 298.644531 260.585938 302.742188 263.808594 302.773438 267.335938 C 302.804688 270.769531 298.945312 273.949219 291.902344 276.300781 C 284.566406 278.746094 274.914062 279.980469 265.257812 279.980469 " fill-opacity="1" fill-rule="nonzero"/><path fill="#0a21c0" d="M 274.410156 260.421875 L 272.648438 261.960938 C 274.242188 262.167969 275.445312 262.40625 276.375 262.65625 C 277.019531 262.832031 277.535156 263.007812 277.960938 263.179688 L 274.503906 265.03125 C 274.058594 264.871094 273.457031 264.628906 272.5625 264.386719 C 271.738281 264.167969 270.671875 263.949219 269.253906 263.796875 C 266.574219 263.507812 265.152344 263.90625 264.589844 264.394531 C 263.929688 264.972656 264.949219 265.496094 267.808594 266.433594 C 271.871094 267.695312 272.746094 268.871094 270.941406 270.445312 C 269.160156 272.003906 265.042969 273.050781 259.90625 272.894531 L 257.859375 274.675781 L 253.828125 274.242188 L 255.726562 272.578125 C 254.210938 272.382812 252.808594 272.105469 251.675781 271.800781 C 250.796875 271.566406 250.078125 271.316406 249.585938 271.074219 L 253.167969 269.160156 C 253.804688 269.457031 254.625 269.757812 255.621094 270.023438 C 256.617188 270.292969 257.785156 270.523438 259.125 270.664062 C 261.472656 270.917969 263.515625 270.707031 264.320312 270.003906 C 265.078125 269.339844 264.242188 268.777344 261.695312 268.015625 C 258.011719 266.910156 256.003906 265.710938 257.949219 264.015625 C 259.710938 262.476562 263.644531 261.542969 268.472656 261.648438 L 270.375 259.988281 L 274.410156 260.421875 " fill-opacity="1" fill-rule="nonzero"/><path fill="#f4f5f8" d="M 346.050781 345.71875 L 345.355469 352.390625 L 340.871094 352.917969 L 340.871094 345.007812 L 346.050781 345.71875 " fill-opacity="1" fill-rule="nonzero"/><path fill="#141619" d="M 341.519531 345.75 L 341.519531 352.191406 L 344.765625 351.808594 L 345.34375 346.273438 Z M 340.871094 353.5625 C 340.714844 353.5625 340.5625 353.507812 340.445312 353.402344 C 340.304688 353.277344 340.226562 353.105469 340.226562 352.917969 L 340.226562 345.007812 C 340.226562 344.820312 340.308594 344.644531 340.449219 344.523438 C 340.589844 344.398438 340.773438 344.34375 340.960938 344.367188 L 346.136719 345.078125 C 346.484375 345.125 346.730469 345.4375 346.691406 345.785156 L 345.996094 352.457031 C 345.964844 352.757812 345.730469 352.996094 345.429688 353.03125 L 340.949219 353.558594 C 340.921875 353.5625 340.898438 353.5625 340.871094 353.5625 " fill-opacity="1" fill-rule="nonzero"/><path fill="#0a21c0" d="M 340.171875 364.53125 C 342.039062 364.796875 345.101562 365.03125 348.699219 364.527344 C 349.871094 364.363281 350.652344 363.214844 350.371094 362.054688 C 349.578125 358.8125 348.214844 352.667969 345.871094 349.820312 L 345.292969 351.363281 L 344.488281 349.910156 C 344.378906 349.714844 344.179688 349.578125 343.957031 349.550781 L 342.195312 349.324219 C 341.832031 349.277344 341.488281 349.523438 341.410156 349.886719 L 341.128906 351.226562 L 340.058594 349.472656 L 339.582031 356.03125 C 339.480469 357.4375 339.269531 358.832031 338.949219 360.203125 L 338.472656 362.273438 C 338.328125 363.367188 339.082031 364.378906 340.171875 364.53125 " fill-opacity="1" fill-rule="nonzero"/><path fill="#141619" d="M 339.109375 362.386719 C 339.027344 363.117188 339.539062 363.789062 340.257812 363.894531 C 342.140625 364.160156 345.117188 364.375 348.605469 363.890625 C 348.992188 363.835938 349.324219 363.625 349.542969 363.304688 C 349.765625 362.976562 349.835938 362.589844 349.742188 362.207031 L 349.574219 361.503906 C 348.871094 358.605469 347.75 353.96875 346.046875 351.1875 L 345.894531 351.59375 C 345.804688 351.828125 345.589844 351.992188 345.335938 352.011719 C 345.089844 352.03125 344.847656 351.898438 344.726562 351.679688 L 343.921875 350.226562 C 343.910156 350.207031 343.894531 350.191406 343.871094 350.191406 L 342.117188 349.964844 C 342.074219 349.960938 342.050781 349.984375 342.042969 350.019531 L 341.761719 351.359375 C 341.707031 351.617188 341.5 351.820312 341.242188 351.863281 C 340.976562 351.910156 340.714844 351.789062 340.578125 351.5625 L 340.554688 351.527344 L 340.222656 356.078125 C 340.121094 357.515625 339.902344 358.953125 339.578125 360.351562 Z M 344.40625 365.46875 C 342.667969 365.46875 341.191406 365.328125 340.074219 365.171875 C 338.652344 364.96875 337.640625 363.632812 337.828125 362.191406 C 337.832031 362.167969 337.835938 362.148438 337.84375 362.128906 L 338.320312 360.058594 C 338.628906 358.726562 338.835938 357.351562 338.9375 355.984375 L 339.414062 349.425781 C 339.433594 349.144531 339.632812 348.910156 339.90625 348.84375 C 340.179688 348.777344 340.460938 348.894531 340.609375 349.136719 L 340.847656 349.527344 C 341.074219 348.964844 341.664062 348.605469 342.277344 348.6875 L 344.035156 348.910156 C 344.460938 348.964844 344.84375 349.222656 345.050781 349.601562 L 345.175781 349.828125 L 345.269531 349.59375 C 345.351562 349.378906 345.539062 349.222656 345.765625 349.183594 C 345.996094 349.148438 346.222656 349.234375 346.371094 349.410156 C 348.648438 352.179688 350.011719 357.828125 350.828125 361.199219 L 350.996094 361.898438 C 351.175781 362.628906 351.035156 363.40625 350.613281 364.03125 C 350.191406 364.648438 349.523438 365.066406 348.785156 365.167969 C 347.210938 365.386719 345.730469 365.46875 344.40625 365.46875 " fill-opacity="1" fill-rule="nonzero"/><path fill="#141619" d="M 344.269531 363.488281 C 341.917969 363.488281 340.480469 362.980469 340.390625 362.949219 C 340.054688 362.828125 339.878906 362.457031 340.003906 362.121094 C 340.125 361.785156 340.492188 361.613281 340.824219 361.734375 C 340.859375 361.746094 343.730469 362.738281 347.976562 361.765625 C 348.320312 361.683594 348.667969 361.902344 348.746094 362.25 C 348.828125 362.59375 348.609375 362.941406 348.261719 363.019531 C 346.753906 363.367188 345.40625 363.488281 344.269531 363.488281 " fill-opacity="1" fill-rule="nonzero"/><path fill="#141619" d="M 346.429688 358.363281 C 346.421875 358.363281 346.414062 358.363281 346.410156 358.359375 L 342.207031 358.222656 C 341.851562 358.210938 341.574219 357.910156 341.582031 357.554688 C 341.597656 357.199219 341.914062 356.925781 342.25 356.933594 L 346.449219 357.074219 C 346.808594 357.085938 347.085938 357.382812 347.074219 357.738281 C 347.066406 358.085938 346.777344 358.363281 346.429688 358.363281 " fill-opacity="1" fill-rule="nonzero"/><path fill="#f4f5f8" d="M 325.0625 342.167969 L 324.390625 351.902344 L 318.996094 351.902344 L 318.746094 342.167969 L 325.0625 342.167969 " fill-opacity="1" fill-rule="nonzero"/><path fill="#141619" d="M 319.628906 351.257812 L 323.785156 351.257812 L 324.367188 342.808594 L 319.410156 342.808594 Z M 324.390625 352.546875 L 319 352.546875 C 318.648438 352.546875 318.363281 352.269531 318.351562 351.917969 L 318.101562 342.179688 C 318.097656 342.007812 318.164062 341.839844 318.285156 341.714844 C 318.40625 341.589844 318.574219 341.519531 318.746094 341.519531 L 325.0625 341.519531 C 325.242188 341.519531 325.410156 341.59375 325.535156 341.726562 C 325.65625 341.855469 325.71875 342.03125 325.703125 342.210938 L 325.035156 351.945312 C 325.011719 352.285156 324.730469 352.546875 324.390625 352.546875 " fill-opacity="1" fill-rule="nonzero"/><path fill="#0a21c0" d="M 325.796875 357.398438 C 325.808594 358.320312 325.1875 359.125 324.296875 359.335938 C 321.195312 360.0625 314.210938 361.679688 312.21875 361.976562 C 309.632812 362.363281 306.457031 361.566406 305.089844 360.046875 C 303.722656 358.523438 308.152344 354.886719 310.25 353.566406 C 313.367188 351.601562 316.367188 347.71875 317.625 347.542969 C 318.878906 347.371094 321.226562 351.039062 321.226562 351.039062 L 325.0625 349.417969 C 325.0625 349.417969 325.730469 352.726562 325.796875 357.398438 " fill-opacity="1" fill-rule="nonzero"/><path fill="#141619" d="M 317.726562 348.183594 C 317.71875 348.183594 317.714844 348.183594 317.710938 348.183594 C 317.289062 348.242188 316.058594 349.417969 315.070312 350.359375 C 313.726562 351.644531 312.207031 353.097656 310.59375 354.113281 C 308.628906 355.351562 305.675781 357.894531 305.488281 359.253906 C 305.457031 359.457031 305.511719 359.550781 305.570312 359.613281 C 306.753906 360.929688 309.691406 361.703125 312.125 361.339844 C 314.113281 361.042969 321.195312 359.398438 324.148438 358.707031 C 324.738281 358.570312 325.160156 358.023438 325.152344 357.40625 C 325.105469 354.164062 324.761719 351.566406 324.5625 350.332031 L 321.480469 351.632812 C 321.1875 351.757812 320.851562 351.652344 320.683594 351.390625 C 319.621094 349.726562 318.191406 348.183594 317.726562 348.183594 Z M 310.835938 362.722656 C 308.351562 362.722656 305.847656 361.855469 304.609375 360.476562 C 304.269531 360.097656 304.132812 359.613281 304.207031 359.074219 C 304.515625 356.867188 308.523438 353.890625 309.90625 353.019531 C 311.40625 352.074219 312.878906 350.667969 314.179688 349.425781 C 315.835938 347.847656 316.734375 347.015625 317.535156 346.90625 C 318.863281 346.71875 320.566406 348.898438 321.472656 350.238281 L 324.808594 348.824219 C 324.984375 348.75 325.191406 348.757812 325.359375 348.847656 C 325.53125 348.9375 325.65625 349.101562 325.695312 349.289062 C 325.722656 349.429688 326.375 352.710938 326.445312 357.386719 C 326.460938 358.605469 325.621094 359.6875 324.441406 359.964844 C 321.472656 360.660156 314.347656 362.308594 312.316406 362.617188 C 311.828125 362.6875 311.332031 362.722656 310.835938 362.722656 " fill-opacity="1" fill-rule="nonzero"/><path fill="#141619" d="M 310.902344 360.324219 C 309.148438 360.324219 307.570312 360.035156 306.425781 359.285156 C 306.128906 359.089844 306.042969 358.6875 306.242188 358.390625 C 306.4375 358.09375 306.835938 358.007812 307.132812 358.203125 C 310.113281 360.160156 317.570312 358.402344 323.554688 356.105469 C 323.886719 355.976562 324.261719 356.144531 324.386719 356.480469 C 324.515625 356.8125 324.347656 357.1875 324.015625 357.3125 C 321.785156 358.167969 315.683594 360.324219 310.902344 360.324219 " fill-opacity="1" fill-rule="nonzero"/><path fill="#141619" d="M 316.898438 355.035156 C 316.734375 355.035156 316.570312 354.976562 316.445312 354.851562 L 314.214844 352.667969 C 313.960938 352.417969 313.953125 352.007812 314.203125 351.753906 C 314.453125 351.496094 314.863281 351.492188 315.117188 351.742188 L 317.351562 353.929688 C 317.605469 354.179688 317.609375 354.589844 317.359375 354.84375 C 317.234375 354.972656 317.066406 355.035156 316.898438 355.035156 " fill-opacity="1" fill-rule="nonzero"/><path fill="#0a21c0" d="M 347.578125 278.699219 C 347.578125 278.699219 349.25 309.132812 350.121094 319.640625 C 351 330.144531 348.078125 347.035156 348.078125 347.035156 L 339.757812 346.59375 C 339.757812 346.59375 339.183594 326.058594 338.566406 320.359375 C 338.566406 320.359375 335.050781 312.625 334.007812 305.730469 C 332.96875 298.839844 329.417969 287.949219 329.417969 287.949219 C 329.417969 287.949219 326.535156 342.304688 326.257812 346.570312 C 326.257812 346.570312 319.730469 346.867188 317.386719 345.382812 C 317.386719 345.382812 313.242188 325.5625 313.839844 314.78125 C 314.433594 303.996094 313.78125 277.207031 313.78125 277.207031 L 347.578125 278.699219 " fill-opacity="1" fill-rule="nonzero"/><path fill="#f4f5f8" d="M 342.644531 321 L 340.097656 321 C 339.742188 321 339.457031 320.710938 339.457031 320.355469 C 339.457031 320 339.742188 319.710938 340.097656 319.710938 L 342.644531 319.710938 C 343.003906 319.710938 343.289062 320 343.289062 320.355469 C 343.289062 320.710938 343.003906 321 342.644531 321 " fill-opacity="1" fill-rule="nonzero"/><path fill="#f4f5f8" d="M 321.976562 336.808594 C 321.625 336.808594 321.335938 336.527344 321.332031 336.175781 C 321.242188 331.394531 315.714844 322.308594 315.660156 322.21875 C 315.472656 321.914062 315.570312 321.515625 315.875 321.332031 C 316.175781 321.144531 316.574219 321.238281 316.761719 321.542969 C 316.996094 321.929688 322.527344 331.023438 322.625 336.152344 C 322.628906 336.507812 322.34375 336.800781 321.988281 336.808594 C 321.984375 336.808594 321.980469 336.808594 321.976562 336.808594 " fill-opacity="1" fill-rule="nonzero"/><path fill="#f4f5f8" d="M 308.652344 230.550781 C 308.1875 230.515625 304.355469 237.101562 302.550781 240.242188 C 302.035156 241.140625 300.894531 241.429688 300.019531 240.890625 L 285.914062 232.183594 C 284.761719 231.472656 283.773438 230.519531 283.03125 229.386719 C 281.851562 227.589844 281.152344 225.765625 279.574219 224.492188 C 278.292969 223.457031 276.996094 222.300781 276.605469 222 C 276.359375 221.8125 275.230469 222.617188 276.082031 224.046875 C 276.34375 224.484375 277.324219 225.375 277.589844 225.78125 C 278.015625 226.425781 278.015625 227.285156 277.542969 227.894531 C 277.039062 228.542969 276.613281 229.585938 277.183594 231.035156 C 278.023438 233.183594 279.925781 233.714844 281.003906 233.835938 C 281.546875 233.898438 282.046875 234.164062 282.40625 234.574219 L 295.421875 249.488281 C 297.441406 251.804688 300.816406 252.324219 303.433594 250.730469 C 307.664062 248.140625 313.109375 242.933594 317.039062 236.351562 L 308.652344 230.550781 " fill-opacity="1" fill-rule="nonzero"/><path fill="#141619" d="M 276.496094 222.742188 C 276.472656 222.773438 276.457031 222.8125 276.441406 222.859375 C 276.371094 223.085938 276.441406 223.386719 276.636719 223.714844 C 276.742188 223.890625 277.089844 224.257812 277.371094 224.554688 C 277.695312 224.894531 277.972656 225.191406 278.132812 225.421875 C 278.722656 226.316406 278.695312 227.46875 278.054688 228.289062 C 277.503906 229 277.410156 229.84375 277.785156 230.800781 C 278.464844 232.542969 279.957031 233.066406 281.082031 233.195312 C 281.785156 233.277344 282.429688 233.617188 282.894531 234.148438 L 295.910156 249.0625 C 297.722656 251.144531 300.75 251.613281 303.097656 250.175781 C 306.765625 247.933594 312.078125 243.195312 316.171875 236.535156 L 308.714844 231.375 C 308.054688 232.234375 306.316406 234.984375 303.109375 240.5625 C 302.773438 241.148438 302.230469 241.566406 301.578125 241.730469 C 300.925781 241.894531 300.253906 241.792969 299.679688 241.4375 L 285.574219 232.730469 C 284.34375 231.96875 283.277344 230.9375 282.492188 229.738281 C 282.136719 229.199219 281.824219 228.660156 281.527344 228.136719 C 280.839844 226.945312 280.191406 225.820312 279.171875 224.992188 C 278.417969 224.382812 277.648438 223.726562 277.085938 223.246094 C 276.855469 223.050781 276.652344 222.875 276.496094 222.742188 Z M 300.164062 252.296875 C 298.214844 252.296875 296.296875 251.476562 294.9375 249.914062 L 281.917969 235 C 281.667969 234.707031 281.316406 234.523438 280.933594 234.480469 C 279.722656 234.339844 277.550781 233.734375 276.582031 231.273438 C 275.898438 229.515625 276.449219 228.25 277.035156 227.496094 C 277.328125 227.121094 277.335938 226.5625 277.054688 226.136719 C 276.960938 225.996094 276.679688 225.703125 276.4375 225.441406 C 276.0625 225.046875 275.707031 224.675781 275.53125 224.375 C 274.796875 223.148438 275.175781 222.148438 275.726562 221.664062 C 276.144531 221.292969 276.660156 221.222656 277 221.488281 C 277.167969 221.621094 277.5 221.902344 277.925781 222.265625 C 278.511719 222.765625 279.246094 223.390625 279.980469 223.988281 C 281.191406 224.964844 281.898438 226.191406 282.644531 227.492188 C 282.9375 227.996094 283.234375 228.519531 283.570312 229.03125 C 284.253906 230.070312 285.179688 230.96875 286.253906 231.632812 L 300.359375 240.339844 C 300.632812 240.507812 300.953125 240.554688 301.261719 240.476562 C 301.570312 240.398438 301.832031 240.203125 301.992188 239.921875 C 307.78125 229.832031 308.167969 229.859375 308.703125 229.90625 C 308.820312 229.914062 308.925781 229.953125 309.019531 230.019531 L 317.40625 235.820312 C 317.683594 236.011719 317.765625 236.390625 317.589844 236.679688 C 313.339844 243.816406 307.664062 248.902344 303.773438 251.277344 C 302.648438 251.964844 301.398438 252.296875 300.164062 252.296875 " fill-opacity="1" fill-rule="nonzero"/><path fill="#141619" d="M 357.058594 242.800781 C 357.058594 242.800781 357.996094 225.460938 344.886719 220.589844 C 334.738281 216.816406 321.78125 218.445312 317.714844 219.855469 C 307.714844 223.324219 302.792969 236.539062 302.792969 236.539062 L 314.515625 238.191406 C 314.515625 238.191406 310.980469 276.15625 312.511719 284.625 C 312.511719 284.625 321.945312 285.730469 325.945312 284.144531 C 329.949219 282.558594 343.101562 280.339844 349.390625 283.242188 L 348.246094 242.636719 L 357.058594 242.800781 " fill-opacity="1" fill-rule="nonzero"/><path fill="#f4f5f8" d="M 340.722656 275.519531 C 340.683594 275.519531 340.648438 275.515625 340.609375 275.511719 C 325.113281 272.753906 320.695312 262.183594 320.515625 261.734375 C 320.378906 261.402344 320.542969 261.027344 320.875 260.894531 C 321.203125 260.761719 321.578125 260.921875 321.710938 261.253906 C 321.765625 261.382812 326.09375 271.617188 340.835938 274.242188 C 341.1875 274.304688 341.421875 274.636719 341.359375 274.988281 C 341.300781 275.300781 341.03125 275.519531 340.722656 275.519531 " fill-opacity="1" fill-rule="nonzero"/><path fill="#b3b4bd" d="M 312.753906 256.765625 L 331.960938 256.765625 L 325.945312 235.171875 L 306.742188 235.171875 L 312.753906 256.765625 " fill-opacity="1" fill-rule="nonzero"/><path fill="#141619" d="M 313.246094 256.121094 L 331.109375 256.121094 L 325.453125 235.820312 L 307.589844 235.820312 Z M 331.960938 257.410156 L 312.753906 257.410156 C 312.46875 257.410156 312.210938 257.21875 312.132812 256.9375 L 306.121094 235.347656 C 306.066406 235.152344 306.105469 234.941406 306.230469 234.785156 C 306.347656 234.621094 306.542969 234.527344 306.742188 234.527344 L 325.945312 234.527344 C 326.234375 234.527344 326.488281 234.722656 326.566406 235 L 332.582031 256.59375 C 332.636719 256.785156 332.597656 256.996094 332.476562 257.15625 C 332.351562 257.316406 332.160156 257.410156 331.960938 257.410156 " fill-opacity="1" fill-rule="nonzero"/><path fill="#f4f5f8" d="M 354.78125 242.816406 L 346.335938 242.433594 C 346.335938 242.433594 346.273438 249.589844 345.511719 249.71875 C 342.796875 250.171875 337.113281 250.195312 333.414062 249.746094 C 332.125 249.589844 331.105469 248.597656 330.863281 247.3125 C 330.679688 246.34375 330.160156 245.207031 328.835938 244.386719 C 327.554688 243.59375 328.816406 246.085938 327.621094 247.691406 C 326.980469 248.554688 324.945312 248.171875 322.171875 247.523438 C 319.398438 246.878906 318.695312 249.859375 321.804688 251.660156 C 325.171875 253.617188 327.3125 253.398438 328.386719 253.625 C 330.527344 254.082031 349.449219 257.066406 352.371094 255.46875 C 354.625 254.234375 354.78125 242.816406 354.78125 242.816406 " fill-opacity="1" fill-rule="nonzero"/><path fill="#141619" d="M 321.445312 248.082031 C 320.957031 248.082031 320.601562 248.257812 320.472656 248.589844 C 320.222656 249.21875 320.710938 250.28125 322.128906 251.105469 C 324.660156 252.570312 326.4375 252.753906 327.617188 252.871094 C 327.960938 252.910156 328.257812 252.9375 328.523438 252.996094 C 331.464844 253.621094 349.496094 256.304688 352.0625 254.902344 C 353.203125 254.277344 354 248.589844 354.125 243.433594 L 346.972656 243.105469 C 346.867188 250.144531 346.117188 250.269531 345.617188 250.355469 C 342.8125 250.824219 337.070312 250.839844 333.335938 250.386719 C 331.773438 250.199219 330.527344 249.011719 330.230469 247.433594 C 330.050781 246.5 329.585938 245.742188 328.84375 245.175781 C 328.847656 245.949219 328.855469 247.113281 328.140625 248.078125 C 327.253906 249.269531 325.144531 248.878906 322.027344 248.152344 C 321.816406 248.105469 321.621094 248.082031 321.445312 248.082031 Z M 348.652344 256.582031 C 341.511719 256.582031 328.410156 254.292969 328.25 254.257812 C 328.058594 254.214844 327.792969 254.1875 327.488281 254.15625 C 326.277344 254.035156 324.25 253.828125 321.480469 252.222656 C 319.335938 250.976562 318.832031 249.21875 319.269531 248.113281 C 319.695312 247.042969 320.890625 246.5625 322.320312 246.894531 C 323.835938 247.25 326.65625 247.90625 327.105469 247.304688 C 327.566406 246.6875 327.558594 245.847656 327.550781 245.175781 C 327.546875 244.558594 327.542969 243.972656 328.039062 243.695312 C 328.515625 243.429688 329.011719 243.734375 329.175781 243.835938 C 330.425781 244.613281 331.230469 245.773438 331.496094 247.191406 C 331.691406 248.21875 332.492188 248.984375 333.492188 249.105469 C 336.960938 249.527344 342.429688 249.527344 345.175781 249.117188 C 345.46875 248.304688 345.667969 245.125 345.691406 242.425781 C 345.695312 242.25 345.765625 242.082031 345.894531 241.960938 C 346.019531 241.84375 346.1875 241.78125 346.367188 241.789062 L 354.8125 242.171875 C 355.160156 242.1875 355.433594 242.476562 355.425781 242.824219 C 355.402344 244.792969 355.140625 254.6875 352.679688 256.035156 C 351.960938 256.425781 350.507812 256.582031 348.652344 256.582031 " fill-opacity="1" fill-rule="nonzero"/><path fill="#f4f5f8" d="M 325.703125 220.164062 C 325.703125 220.164062 327.890625 218.820312 327.867188 218.03125 L 328.492188 213.992188 C 328.5 213.625 328.273438 213.292969 327.925781 213.167969 L 325.34375 212.28125 C 325.011719 212.167969 324.796875 211.84375 324.820312 211.488281 L 325.023438 208.277344 L 324.011719 207.382812 C 323.929688 207.3125 323.917969 207.191406 323.988281 207.109375 L 325.589844 205.15625 C 326.113281 204.421875 326.636719 202.65625 327.066406 202.777344 C 327.066406 202.777344 336.1875 201.722656 336.632812 206.320312 C 336.695312 206.988281 336.496094 207.652344 336.109375 208.199219 L 335.304688 209.335938 C 334.492188 210.480469 334.0625 211.882812 334.207031 213.285156 C 334.238281 213.574219 334.617188 215.449219 334.871094 216.6875 C 335.015625 217.394531 335.40625 218.019531 335.972656 218.453125 C 336.683594 219.003906 337.554688 219.703125 337.410156 219.75 C 337.410156 219.75 336.402344 220.492188 334.804688 221.148438 C 331.976562 222.316406 328.753906 222.023438 326.136719 220.429688 L 325.703125 220.164062 " fill-opacity="1" fill-rule="nonzero"/><path fill="#141619" d="M 326.910156 220.128906 C 329.28125 221.398438 332.105469 221.566406 334.558594 220.550781 C 335.339844 220.230469 335.980469 219.882812 336.40625 219.625 C 336.21875 219.46875 335.953125 219.253906 335.578125 218.964844 C 334.886719 218.433594 334.414062 217.671875 334.238281 216.820312 C 333.601562 213.722656 333.574219 213.441406 333.5625 213.347656 C 333.410156 211.839844 333.839844 210.285156 334.777344 208.964844 L 335.582031 207.824219 C 335.890625 207.390625 336.039062 206.878906 335.992188 206.382812 C 335.925781 205.695312 335.617188 205.140625 335.050781 204.683594 C 332.882812 202.929688 327.925781 203.339844 327.222656 203.410156 C 327.09375 203.597656 326.902344 204.015625 326.761719 204.308594 C 326.558594 204.746094 326.347656 205.203125 326.113281 205.53125 C 326.105469 205.542969 326.09375 205.554688 326.085938 205.566406 L 324.757812 207.183594 L 325.449219 207.796875 C 325.601562 207.929688 325.679688 208.121094 325.664062 208.320312 L 325.464844 211.527344 C 325.460938 211.59375 325.496094 211.652344 325.558594 211.675781 L 328.136719 212.5625 C 328.75 212.777344 329.148438 213.355469 329.136719 214.003906 C 329.136719 214.035156 329.132812 214.0625 329.128906 214.09375 L 328.511719 218.089844 C 328.476562 218.796875 327.691406 219.550781 326.910156 220.128906 Z M 331.207031 222.5 C 329.332031 222.5 327.453125 221.988281 325.800781 220.980469 L 325.363281 220.714844 C 325.175781 220.597656 325.058594 220.390625 325.054688 220.164062 C 325.054688 219.941406 325.171875 219.730469 325.363281 219.613281 C 326.261719 219.058594 327.148438 218.296875 327.222656 218.011719 C 327.222656 217.972656 327.222656 217.972656 327.230469 217.933594 L 327.847656 213.953125 C 327.835938 213.871094 327.785156 213.804688 327.710938 213.777344 L 325.128906 212.894531 C 324.527344 212.679688 324.136719 212.085938 324.175781 211.449219 L 324.355469 208.554688 L 323.582031 207.867188 C 323.242188 207.5625 323.199219 207.050781 323.488281 206.699219 L 325.074219 204.765625 C 325.234375 204.535156 325.417969 204.140625 325.59375 203.761719 C 326.019531 202.84375 326.382812 202.042969 327.089844 202.125 C 327.90625 202.042969 333.273438 201.585938 335.863281 203.675781 C 336.699219 204.355469 337.175781 205.222656 337.273438 206.257812 C 337.351562 207.0625 337.125 207.882812 336.636719 208.570312 L 335.828125 209.710938 C 335.074219 210.773438 334.726562 212.019531 334.851562 213.21875 C 334.859375 213.289062 334.925781 213.742188 335.503906 216.5625 C 335.613281 217.113281 335.921875 217.601562 336.367188 217.945312 C 338 219.203125 338.136719 219.414062 338.058594 219.84375 C 338.03125 220.011719 337.929688 220.167969 337.792969 220.269531 C 337.75 220.300781 336.699219 221.066406 335.050781 221.746094 C 333.824219 222.25 332.515625 222.5 331.207031 222.5 " fill-opacity="1" fill-rule="nonzero"/><path fill="#141619" d="M 326.765625 195.773438 C 328.84375 195.667969 326.214844 197.8125 333.914062 195.597656 C 336.980469 194.714844 335.40625 198.3125 336.203125 198.085938 C 339.140625 197.25 339.042969 197.273438 340.472656 197.667969 C 341.417969 197.925781 342.019531 199.695312 341.832031 201.011719 C 341.582031 202.753906 339.632812 205.515625 337.882812 208.433594 C 336.980469 209.949219 335.375 210.082031 333.4375 207.832031 C 333.230469 207.59375 334.285156 206.183594 333.734375 205.574219 C 332.308594 203.992188 331.667969 206.382812 330.515625 205.644531 C 329.40625 204.9375 328.949219 204.480469 327.777344 203.410156 C 326.359375 202.113281 323.980469 204.128906 323.15625 201.214844 C 322.730469 199.691406 323.917969 195.921875 326.765625 195.773438 " fill-opacity="1" fill-rule="nonzero"/><path fill="#141619" d="M 170.480469 358.621094 C 166.246094 358.621094 161.996094 358.460938 157.738281 358.136719 C 157.382812 358.109375 157.113281 357.796875 157.140625 357.441406 C 157.167969 357.089844 157.472656 356.816406 157.835938 356.847656 C 181.21875 358.636719 204.503906 355.445312 225.179688 347.625 C 225.507812 347.5 225.882812 347.667969 226.011719 348.003906 C 226.136719 348.335938 225.96875 348.707031 225.632812 348.832031 C 208.550781 355.296875 189.699219 358.621094 170.480469 358.621094 " fill-opacity="1" fill-rule="nonzero"/><path fill="#141619" d="M 172.558594 350.546875 C 169.667969 350.546875 166.765625 350.46875 163.84375 350.308594 C 163.484375 350.285156 163.214844 349.984375 163.234375 349.628906 C 163.253906 349.269531 163.554688 349.007812 163.914062 349.019531 C 183.867188 350.117188 203.019531 347.429688 220.835938 341.03125 C 221.171875 340.910156 221.539062 341.085938 221.660156 341.421875 C 221.78125 341.753906 221.605469 342.125 221.273438 342.246094 C 205.90625 347.765625 189.554688 350.546875 172.558594 350.546875 " fill-opacity="1" fill-rule="nonzero"/><path fill="#141619" d="M 208.769531 23.945312 C 208.695312 23.945312 208.621094 23.933594 208.546875 23.902344 C 193.125 18.28125 176.714844 15.46875 159.804688 15.558594 L 159.800781 15.558594 C 159.445312 15.558594 159.160156 15.269531 159.15625 14.917969 C 159.15625 14.558594 159.441406 14.269531 159.800781 14.269531 C 176.882812 14.1875 193.421875 17.015625 208.992188 22.691406 C 209.324219 22.8125 209.496094 23.183594 209.375 23.519531 C 209.28125 23.78125 209.03125 23.945312 208.769531 23.945312 " fill-opacity="1" fill-rule="nonzero"/><path fill="#141619" d="M 145.269531 16.335938 C 144.945312 16.335938 144.664062 16.085938 144.628906 15.757812 C 144.59375 15.402344 144.851562 15.082031 145.207031 15.046875 C 147.480469 14.820312 149.785156 14.636719 152.054688 14.503906 C 152.40625 14.492188 152.714844 14.757812 152.734375 15.113281 C 152.753906 15.472656 152.484375 15.777344 152.128906 15.796875 C 149.878906 15.925781 147.59375 16.101562 145.335938 16.332031 C 145.316406 16.335938 145.292969 16.335938 145.269531 16.335938 " fill-opacity="1" fill-rule="nonzero"/><path fill="#141619" d="M 195.675781 28.800781 C 195.621094 28.800781 195.566406 28.796875 195.511719 28.78125 C 176.191406 23.621094 155.980469 23.070312 135.441406 27.140625 C 135.09375 27.210938 134.75 26.984375 134.683594 26.632812 C 134.613281 26.28125 134.839844 25.941406 135.191406 25.875 C 155.925781 21.765625 176.335938 22.324219 195.84375 27.53125 C 196.1875 27.625 196.394531 27.976562 196.300781 28.320312 C 196.222656 28.609375 195.960938 28.800781 195.675781 28.800781 " fill-opacity="1" fill-rule="nonzero"/><path fill="#141619" d="M 216.257812 22.679688 C 216.054688 22.679688 215.851562 22.707031 215.648438 22.765625 C 215.0625 22.925781 214.578125 23.304688 214.277344 23.832031 C 213.976562 24.359375 213.902344 24.972656 214.0625 25.558594 C 214.398438 26.765625 215.65625 27.476562 216.859375 27.144531 C 218.066406 26.808594 218.777344 25.554688 218.445312 24.347656 C 218.28125 23.761719 217.902344 23.277344 217.375 22.976562 C 217.03125 22.78125 216.644531 22.679688 216.257812 22.679688 Z M 216.253906 28.515625 C 214.691406 28.515625 213.253906 27.480469 212.820312 25.902344 C 212.566406 24.984375 212.6875 24.023438 213.15625 23.195312 C 213.625 22.367188 214.390625 21.773438 215.308594 21.519531 C 217.199219 20.996094 219.164062 22.109375 219.691406 24.003906 C 220.210938 25.894531 219.097656 27.863281 217.203125 28.386719 C 216.886719 28.476562 216.566406 28.515625 216.253906 28.515625 " fill-opacity="1" fill-rule="nonzero"/><path fill="#141619" d="M 33.125 165.265625 L 33.128906 165.265625 Z M 36.527344 163.28125 C 35.253906 163.28125 34.085938 164.136719 33.75 165.429688 C 33.347656 166.960938 34.269531 168.53125 35.800781 168.933594 C 37.332031 169.332031 38.902344 168.414062 39.304688 166.878906 C 39.5 166.136719 39.390625 165.363281 39.003906 164.703125 C 38.617188 164.039062 37.996094 163.570312 37.253906 163.375 C 37.011719 163.3125 36.765625 163.28125 36.527344 163.28125 Z M 36.527344 170.316406 C 36.179688 170.316406 35.824219 170.273438 35.476562 170.179688 C 33.253906 169.601562 31.917969 167.324219 32.5 165.101562 C 33.078125 162.882812 35.359375 161.546875 37.578125 162.128906 C 38.65625 162.410156 39.554688 163.089844 40.117188 164.050781 C 40.679688 165.011719 40.835938 166.132812 40.554688 167.207031 C 40.066406 169.074219 38.375 170.316406 36.527344 170.316406 " fill-opacity="1" fill-rule="nonzero"/><path fill="#141619" d="M 318.78125 31.566406 C 318.425781 31.566406 318.136719 31.277344 318.136719 30.921875 L 318.136719 27.585938 C 318.136719 27.230469 318.425781 26.941406 318.78125 26.941406 C 319.140625 26.941406 319.429688 27.230469 319.429688 27.585938 L 319.429688 30.921875 C 319.429688 31.277344 319.140625 31.566406 318.78125 31.566406 " fill-opacity="1" fill-rule="nonzero"/><path fill="#141619" d="M 318.78125 39.34375 C 318.425781 39.34375 318.136719 39.058594 318.136719 38.699219 L 318.136719 35.359375 C 318.136719 35.003906 318.425781 34.714844 318.78125 34.714844 C 319.140625 34.714844 319.429688 35.003906 319.429688 35.359375 L 319.429688 38.699219 C 319.429688 39.058594 319.140625 39.34375 318.78125 39.34375 " fill-opacity="1" fill-rule="nonzero"/><path fill="#141619" d="M 316.5625 33.789062 L 313.222656 33.789062 C 312.867188 33.789062 312.582031 33.5 312.582031 33.144531 C 312.582031 32.789062 312.867188 32.5 313.222656 32.5 L 316.5625 32.5 C 316.917969 32.5 317.207031 32.789062 317.207031 33.144531 C 317.207031 33.5 316.917969 33.789062 316.5625 33.789062 " fill-opacity="1" fill-rule="nonzero"/><path fill="#141619" d="M 324.339844 33.789062 L 321.003906 33.789062 C 320.648438 33.789062 320.355469 33.5 320.355469 33.144531 C 320.355469 32.789062 320.648438 32.5 321.003906 32.5 L 324.339844 32.5 C 324.695312 32.5 324.984375 32.789062 324.984375 33.144531 C 324.984375 33.5 324.695312 33.789062 324.339844 33.789062 " fill-opacity="1" fill-rule="nonzero"/><path fill="#0a21c0" d="M 225.746094 130.597656 C 225.574219 130.597656 225.410156 130.535156 225.28125 130.40625 C 225.03125 130.152344 225.039062 129.742188 225.292969 129.492188 C 238.203125 116.816406 246.53125 104.355469 250.75 91.394531 C 250.859375 91.054688 251.222656 90.867188 251.5625 90.980469 C 251.902344 91.089844 252.085938 91.457031 251.976562 91.792969 C 247.691406 104.957031 239.257812 117.589844 226.195312 130.414062 C 226.070312 130.539062 225.910156 130.597656 225.746094 130.597656 " fill-opacity="1" fill-rule="nonzero"/><path fill="#0a21c0" d="M 210.339844 142.296875 C 210.117188 142.296875 209.898438 142.183594 209.777344 141.972656 C 209.601562 141.664062 209.710938 141.269531 210.019531 141.09375 C 213.339844 139.207031 216.570312 137.003906 219.621094 134.542969 C 219.898438 134.320312 220.304688 134.363281 220.53125 134.640625 C 220.753906 134.917969 220.710938 135.324219 220.433594 135.550781 C 217.328125 138.050781 214.039062 140.292969 210.660156 142.214844 C 210.558594 142.273438 210.449219 142.296875 210.339844 142.296875 " fill-opacity="1" fill-rule="nonzero"/></svg>