<svg xmlns="http://www.w3.org/2000/svg" xmlns:xlink="http://www.w3.org/1999/xlink" width="300" zoomAndPan="magnify" viewBox="0 0 224.87999 225" height="300" preserveAspectRatio="xMidYMid meet" version="1.0"><path fill="#caddff" d="M 212.730469 48.179688 C 205.800781 34.175781 191.953125 26.605469 183.371094 21.914062 C 146.253906 1.625 95.691406 7.027344 62.085938 25.941406 C 28.914062 44.613281 0.00390625 88.820312 12.121094 136.851562 C 24.285156 185.070312 71.632812 209.859375 107.445312 215.117188 C 164.308594 223.464844 212.089844 185.492188 214.703125 172.3125 C 215.511719 168.25 215.300781 164.644531 215.300781 164.644531 C 214.292969 155.132812 206.480469 149.480469 204.660156 127.796875 C 201.308594 87.902344 224.882812 72.742188 212.730469 48.179688 " fill-opacity="1" fill-rule="nonzero"/><path fill="#000000" d="M 183.003906 30.695312 C 182.914062 30.695312 182.820312 30.664062 182.746094 30.59375 C 182.597656 30.449219 182.59375 30.214844 182.734375 30.0625 L 183.652344 29.105469 C 183.796875 28.957031 184.03125 28.949219 184.179688 29.09375 C 184.332031 29.234375 184.335938 29.472656 184.191406 29.621094 L 183.277344 30.582031 C 183.203125 30.660156 183.101562 30.695312 183.003906 30.695312 " fill-opacity="1" fill-rule="nonzero"/><path fill="#000000" d="M 179.796875 34.054688 C 179.699219 34.054688 179.609375 34.019531 179.535156 33.953125 C 179.386719 33.808594 179.378906 33.570312 179.523438 33.421875 L 180.441406 32.460938 C 180.582031 32.3125 180.820312 32.308594 180.972656 32.449219 C 181.121094 32.59375 181.125 32.832031 180.980469 32.980469 L 180.0625 33.941406 C 179.992188 34.015625 179.894531 34.054688 179.796875 34.054688 " fill-opacity="1" fill-rule="nonzero"/><path fill="#000000" d="M 180.695312 30.75 C 180.601562 30.75 180.507812 30.714844 180.433594 30.640625 L 179.5 29.722656 C 179.355469 29.578125 179.351562 29.339844 179.496094 29.191406 C 179.640625 29.046875 179.878906 29.042969 180.027344 29.1875 L 180.957031 30.105469 C 181.105469 30.25 181.105469 30.488281 180.960938 30.636719 C 180.886719 30.710938 180.792969 30.75 180.695312 30.75 " fill-opacity="1" fill-rule="nonzero"/><path fill="#000000" d="M 183.953125 33.964844 C 183.859375 33.964844 183.765625 33.925781 183.691406 33.855469 L 182.757812 32.9375 C 182.613281 32.792969 182.609375 32.554688 182.753906 32.40625 C 182.902344 32.257812 183.136719 32.257812 183.285156 32.402344 L 184.214844 33.320312 C 184.363281 33.464844 184.367188 33.703125 184.21875 33.851562 C 184.148438 33.925781 184.050781 33.964844 183.953125 33.964844 " fill-opacity="1" fill-rule="nonzero"/><path fill="#000000" d="M 164.210938 200.753906 C 163.613281 201.191406 163.484375 202.050781 163.921875 202.664062 C 164.136719 202.960938 164.449219 203.160156 164.804688 203.214844 C 165.152344 203.269531 165.5 203.1875 165.78125 202.976562 C 166.378906 202.539062 166.507812 201.679688 166.070312 201.066406 C 165.855469 200.765625 165.542969 200.570312 165.1875 200.515625 C 164.84375 200.460938 164.492188 200.542969 164.210938 200.753906 Z M 165.015625 203.980469 C 164.90625 203.980469 164.796875 203.972656 164.6875 203.957031 C 164.128906 203.867188 163.644531 203.5625 163.3125 203.097656 C 162.640625 202.152344 162.84375 200.832031 163.765625 200.148438 C 164.210938 199.820312 164.761719 199.6875 165.304688 199.773438 C 165.859375 199.863281 166.347656 200.167969 166.679688 200.632812 C 167.351562 201.578125 167.148438 202.902344 166.222656 203.582031 C 165.867188 203.84375 165.445312 203.980469 165.015625 203.980469 " fill-opacity="1" fill-rule="nonzero"/><path fill="#000000" d="M 124.335938 210.695312 C 121.582031 210.695312 118.714844 210.632812 115.742188 210.5 L 115.773438 209.75 C 135.378906 210.621094 150.207031 208.609375 159.855469 203.765625 L 160.191406 204.4375 C 151.898438 208.597656 139.859375 210.695312 124.335938 210.695312 " fill-opacity="1" fill-rule="nonzero"/><path fill="#000000" d="M 137.316406 206.546875 L 137.246094 205.800781 C 144.742188 205.070312 150.640625 203.585938 155.28125 201.257812 L 155.613281 201.929688 C 150.894531 204.296875 144.910156 205.808594 137.316406 206.546875 " fill-opacity="1" fill-rule="nonzero"/><path fill="#000000" d="M 124.597656 207.089844 C 119.984375 207.089844 115.367188 206.921875 110.9375 206.726562 L 110.972656 205.980469 C 117.925781 206.289062 125.34375 206.523438 132.480469 206.152344 L 132.519531 206.898438 C 129.90625 207.035156 127.25 207.089844 124.597656 207.089844 " fill-opacity="1" fill-rule="nonzero"/><path fill="#000000" d="M 86.886719 20.082031 L 86.546875 19.414062 C 96.269531 14.433594 111.210938 12.269531 130.945312 12.984375 L 130.917969 13.734375 C 111.308594 13.023438 96.496094 15.160156 86.886719 20.082031 " fill-opacity="1" fill-rule="nonzero"/><path fill="#000000" d="M 91.484375 22.550781 L 91.144531 21.882812 C 95.847656 19.476562 101.820312 17.914062 109.40625 17.113281 L 109.484375 17.859375 C 101.992188 18.648438 96.101562 20.183594 91.484375 22.550781 " fill-opacity="1" fill-rule="nonzero"/><path fill="#000000" d="M 113.121094 17.628906 L 113.078125 16.878906 C 120.933594 16.40625 126.816406 16.308594 133.390625 16.546875 L 133.363281 17.292969 C 126.816406 17.058594 120.949219 17.15625 113.121094 17.628906 " fill-opacity="1" fill-rule="nonzero"/><path fill="#5479f7" d="M 212.890625 192.796875 L 211.082031 194.457031 C 209.707031 195.722656 207.859375 196.308594 206.085938 196.039062 L 14.742188 167.148438 C 12.195312 166.765625 10.964844 164.113281 10.9375 161.503906 L 9.660156 29.390625 C 9.644531 27.832031 10.582031 21.617188 10.582031 21.617188 C 10.582031 21.617188 15.238281 18.257812 18.015625 16.964844 C 19.285156 16.375 20.675781 16.171875 22.015625 16.367188 L 211.5 44.449219 C 213.4375 44.734375 214.828125 46.363281 214.832031 48.347656 L 215.261719 187.449219 C 215.265625 189.449219 214.398438 191.402344 212.890625 192.796875 " fill-opacity="1" fill-rule="nonzero"/><path fill="#caddff" d="M 207.089844 195.710938 L 15.355469 167.296875 C 12.382812 166.855469 10.242188 164.351562 10.234375 161.296875 L 9.808594 24.003906 C 9.804688 22.394531 11.277344 21.097656 12.847656 21.328125 L 205.089844 49.816406 C 207.023438 50.105469 208.414062 51.734375 208.421875 53.71875 L 208.851562 194.15625 C 208.855469 195.09375 208 195.84375 207.089844 195.710938 " fill-opacity="1" fill-rule="nonzero"/><path fill="#000000" d="M 37.953125 171.019531 C 37.933594 171.019531 37.914062 171.019531 37.898438 171.015625 L 15.300781 167.667969 C 12.15625 167.203125 9.867188 164.523438 9.859375 161.300781 L 9.4375 24.007812 C 9.433594 23.121094 9.824219 22.269531 10.507812 21.675781 C 11.179688 21.09375 12.054688 20.832031 12.902344 20.960938 L 111.777344 35.613281 C 111.980469 35.640625 112.121094 35.832031 112.09375 36.035156 C 112.0625 36.242188 111.871094 36.382812 111.667969 36.351562 L 12.792969 21.699219 C 12.160156 21.605469 11.507812 21.804688 11 22.242188 C 10.480469 22.695312 10.183594 23.335938 10.183594 24.003906 L 10.605469 161.296875 C 10.617188 164.148438 12.636719 166.515625 15.410156 166.925781 L 38.007812 170.277344 C 38.210938 170.304688 38.351562 170.496094 38.320312 170.699219 C 38.292969 170.886719 38.132812 171.019531 37.953125 171.019531 " fill-opacity="1" fill-rule="nonzero"/><path fill="#000000" d="M 207.300781 196.101562 C 207.214844 196.101562 207.121094 196.09375 207.035156 196.082031 L 93.214844 179.214844 C 93.011719 179.183594 92.871094 178.992188 92.902344 178.789062 C 92.933594 178.585938 93.121094 178.441406 93.328125 178.472656 L 207.144531 195.339844 C 207.464844 195.386719 207.800781 195.285156 208.058594 195.058594 C 208.328125 194.828125 208.480469 194.5 208.480469 194.15625 L 208.046875 53.722656 C 208.042969 51.929688 206.773438 50.445312 205.035156 50.1875 L 176.070312 45.898438 C 175.863281 45.867188 175.722656 45.675781 175.753906 45.472656 C 175.785156 45.265625 175.976562 45.125 176.179688 45.15625 L 205.144531 49.449219 C 207.253906 49.761719 208.789062 51.554688 208.792969 53.71875 L 209.226562 194.15625 C 209.230469 194.714844 208.980469 195.253906 208.546875 195.628906 C 208.195312 195.933594 207.75 196.101562 207.300781 196.101562 " fill-opacity="1" fill-rule="nonzero"/><path fill="#ffffff" d="M 106.46875 131.242188 L 18.824219 117.429688 C 16.679688 117.09375 15.152344 115.277344 15.152344 113.074219 L 15.152344 32.984375 C 15.152344 30.007812 17.882812 27.628906 20.777344 28.085938 L 108.421875 41.898438 C 110.5625 42.234375 112.09375 44.050781 112.09375 46.253906 L 112.09375 126.34375 C 112.09375 129.320312 109.363281 131.695312 106.46875 131.242188 " fill-opacity="1" fill-rule="nonzero"/><path fill="#caddff" d="M 24.457031 110.117188 L 21.964844 109.667969 C 20.871094 109.46875 19.996094 108.351562 20 107.15625 L 20.023438 94.085938 C 20.023438 92.863281 20.945312 92.019531 22.066406 92.21875 L 24.53125 92.652344 C 25.628906 92.84375 26.507812 93.957031 26.507812 95.160156 C 26.507812 98.492188 26.507812 104.859375 26.507812 108.246094 C 26.507812 109.476562 25.582031 110.320312 24.457031 110.117188 " fill-opacity="1" fill-rule="nonzero"/><path fill="#caddff" d="M 33.277344 111.507812 L 30.785156 111.058594 C 29.691406 110.859375 28.820312 109.742188 28.820312 108.546875 L 28.847656 87.226562 C 28.847656 86 29.765625 85.160156 30.890625 85.355469 L 33.355469 85.789062 C 34.453125 85.980469 35.332031 87.097656 35.332031 88.296875 C 35.332031 93.121094 35.332031 104.734375 35.332031 109.636719 C 35.332031 110.867188 34.40625 111.710938 33.277344 111.507812 " fill-opacity="1" fill-rule="nonzero"/><path fill="#caddff" d="M 42.101562 112.898438 L 39.609375 112.449219 C 38.515625 112.25 37.640625 111.132812 37.644531 109.9375 L 37.667969 93.015625 C 37.667969 91.789062 38.589844 90.945312 39.710938 91.140625 L 42.179688 91.574219 C 43.273438 91.769531 44.152344 92.882812 44.152344 94.082031 C 44.152344 98.148438 44.152344 106.898438 44.152344 111.023438 C 44.152344 112.257812 43.226562 113.101562 42.101562 112.898438 " fill-opacity="1" fill-rule="nonzero"/><path fill="#caddff" d="M 50.925781 114.289062 L 48.429688 113.839844 C 47.335938 113.640625 46.464844 112.523438 46.464844 111.328125 L 46.492188 78.035156 C 46.492188 76.808594 47.414062 75.964844 48.535156 76.164062 L 51 76.597656 C 52.097656 76.789062 52.976562 77.90625 52.976562 79.105469 C 52.976562 85.726562 52.976562 105.6875 52.976562 112.417969 C 52.976562 113.648438 52.050781 114.492188 50.925781 114.289062 " fill-opacity="1" fill-rule="nonzero"/><path fill="#caddff" d="M 59.746094 115.679688 L 57.253906 115.226562 C 56.160156 115.03125 55.285156 113.914062 55.285156 112.71875 L 55.3125 70.851562 C 55.316406 69.625 56.234375 68.785156 57.355469 68.980469 L 59.820312 69.414062 C 60.917969 69.605469 61.796875 70.71875 61.796875 71.921875 C 61.796875 79.65625 61.796875 105.9375 61.796875 113.804688 C 61.796875 115.039062 60.871094 115.882812 59.746094 115.679688 " fill-opacity="1" fill-rule="nonzero"/><path fill="#99b9ff" d="M 68.570312 117.070312 L 66.074219 116.617188 C 64.980469 116.417969 64.109375 115.304688 64.109375 114.109375 L 64.136719 65.867188 C 64.136719 64.640625 65.058594 63.796875 66.179688 63.996094 L 68.644531 64.429688 C 69.742188 64.621094 70.621094 65.734375 70.621094 66.933594 C 70.621094 75.433594 70.621094 106.546875 70.621094 115.195312 C 70.621094 116.425781 69.695312 117.273438 68.570312 117.070312 " fill-opacity="1" fill-rule="nonzero"/><path fill="#caddff" d="M 77.390625 118.457031 L 74.898438 118.007812 C 73.804688 117.808594 72.929688 116.695312 72.933594 115.5 L 72.960938 81.230469 C 72.960938 80.003906 73.878906 79.160156 75.003906 79.359375 L 77.46875 79.792969 C 78.566406 79.984375 79.445312 81.101562 79.445312 82.300781 C 79.445312 89.054688 79.445312 109.722656 79.445312 116.585938 C 79.445312 117.820312 78.519531 118.664062 77.390625 118.457031 " fill-opacity="1" fill-rule="nonzero"/><path fill="#caddff" d="M 86.214844 119.847656 L 83.722656 119.398438 C 82.628906 119.203125 81.753906 118.085938 81.753906 116.890625 L 81.78125 71.417969 C 81.78125 70.1875 82.703125 69.347656 83.824219 69.542969 L 86.289062 69.976562 C 87.386719 70.171875 88.265625 71.285156 88.265625 72.484375 C 88.265625 80.660156 88.265625 109.664062 88.265625 117.976562 C 88.265625 119.210938 87.339844 120.054688 86.214844 119.847656 " fill-opacity="1" fill-rule="nonzero"/><path fill="#caddff" d="M 95.039062 121.238281 L 92.542969 120.789062 C 91.449219 120.589844 90.574219 119.476562 90.578125 118.28125 L 90.605469 59.148438 C 90.605469 57.921875 91.527344 57.078125 92.648438 57.273438 L 95.113281 57.710938 C 96.210938 57.902344 97.089844 59.015625 97.089844 60.21875 C 97.089844 69.925781 97.089844 109.492188 97.089844 119.367188 C 97.089844 120.601562 96.164062 121.441406 95.039062 121.238281 " fill-opacity="1" fill-rule="nonzero"/><path fill="#99b9ff" d="M 103.980469 122.648438 L 101.484375 122.199219 C 100.390625 122 99.519531 120.886719 99.519531 119.691406 L 99.546875 51.382812 C 99.546875 50.15625 100.46875 49.308594 101.589844 49.507812 L 104.054688 49.941406 C 105.152344 50.132812 106.03125 51.25 106.03125 52.445312 C 106.03125 63.097656 106.03125 109.941406 106.03125 120.777344 C 106.03125 122.007812 105.105469 122.851562 103.980469 122.648438 " fill-opacity="1" fill-rule="nonzero"/><path fill="#ffffff" d="M 112.082031 175.429688 L 76.96875 169.808594 C 75.851562 169.625 74.945312 168.519531 74.945312 167.332031 L 74.945312 132.351562 C 74.945312 131.167969 75.851562 130.347656 76.96875 130.527344 L 112.082031 136.152344 C 113.199219 136.328125 114.109375 137.4375 114.109375 138.625 L 114.109375 173.605469 C 114.109375 174.792969 113.199219 175.609375 112.082031 175.429688 " fill-opacity="1" fill-rule="nonzero"/><path fill="#99b9ff" d="M 84.277344 168 L 80.765625 167.4375 L 80.765625 142.179688 L 84.277344 142.742188 L 84.277344 168 " fill-opacity="1" fill-rule="nonzero"/><path fill="#caddff" d="M 84.277344 168 L 80.765625 167.4375 L 80.765625 151.144531 L 84.277344 151.703125 L 84.277344 168 " fill-opacity="1" fill-rule="nonzero"/><path fill="#99b9ff" d="M 90.855469 169.054688 L 87.347656 168.492188 L 87.347656 146.960938 L 90.855469 147.523438 L 90.855469 169.054688 " fill-opacity="1" fill-rule="nonzero"/><path fill="#caddff" d="M 90.855469 169.054688 L 87.347656 168.492188 L 87.347656 156.15625 L 90.855469 156.714844 L 90.855469 169.054688 " fill-opacity="1" fill-rule="nonzero"/><path fill="#99b9ff" d="M 97 170.152344 L 93.488281 169.589844 L 93.488281 150.039062 L 97 150.601562 L 97 170.152344 " fill-opacity="1" fill-rule="nonzero"/><path fill="#caddff" d="M 97 170.152344 L 93.488281 169.589844 L 93.488281 160.511719 L 97 161.074219 L 97 170.152344 " fill-opacity="1" fill-rule="nonzero"/><path fill="#99b9ff" d="M 103.304688 171.394531 L 99.792969 170.832031 L 99.792969 145.578125 L 103.304688 146.140625 L 103.304688 171.394531 " fill-opacity="1" fill-rule="nonzero"/><path fill="#caddff" d="M 103.304688 171.394531 L 99.792969 170.832031 L 99.792969 149.769531 L 103.304688 150.332031 L 103.304688 171.394531 " fill-opacity="1" fill-rule="nonzero"/><path fill="#99b9ff" d="M 109.664062 172.296875 L 106.15625 171.734375 L 106.15625 148.226562 L 109.664062 148.789062 L 109.664062 172.296875 " fill-opacity="1" fill-rule="nonzero"/><path fill="#caddff" d="M 109.664062 172.296875 L 106.15625 171.734375 L 106.15625 156.257812 L 109.664062 156.820312 L 109.664062 172.296875 " fill-opacity="1" fill-rule="nonzero"/><path fill="#5479f7" d="M 111.859375 172.996094 C 111.839844 172.996094 111.820312 172.992188 111.800781 172.988281 L 77.789062 167.542969 C 77.097656 167.433594 76.554688 166.773438 76.558594 166.046875 L 76.691406 136.203125 C 76.691406 135.996094 76.859375 135.832031 77.066406 135.832031 C 77.273438 135.832031 77.441406 136 77.441406 136.207031 L 77.304688 166.050781 C 77.304688 166.40625 77.582031 166.75 77.910156 166.804688 L 111.917969 172.25 C 112.121094 172.285156 112.261719 172.476562 112.230469 172.679688 C 112.199219 172.863281 112.039062 172.996094 111.859375 172.996094 " fill-opacity="1" fill-rule="nonzero"/><path fill="#99b9ff" d="M 91.203125 137.335938 L 80.65625 135.644531 L 80.65625 133.667969 L 91.203125 135.355469 L 91.203125 137.335938 " fill-opacity="1" fill-rule="nonzero"/><path fill="#99b9ff" d="M 91.242188 140.367188 L 80.695312 138.679688 L 80.695312 136.699219 L 91.242188 138.386719 L 91.242188 140.367188 " fill-opacity="1" fill-rule="nonzero"/><path fill="#ffffff" d="M 168.214844 115.394531 L 120.109375 106.949219 C 118.953125 106.746094 118.113281 105.742188 118.113281 104.566406 L 118.113281 27.484375 C 118.113281 25.980469 119.464844 24.84375 120.945312 25.101562 L 169.046875 33.546875 C 170.203125 33.75 171.042969 34.753906 171.042969 35.929688 L 171.042969 113.011719 C 171.042969 114.515625 169.691406 115.652344 168.214844 115.394531 " fill-opacity="1" fill-rule="nonzero"/><path fill="#caddff" d="M 165.058594 61.019531 C 166.667969 72.972656 158.457031 82.644531 146.722656 82.617188 C 134.988281 82.59375 124.171875 72.882812 122.5625 60.929688 C 120.953125 48.976562 129.164062 39.308594 140.898438 39.332031 C 152.632812 39.359375 163.449219 49.066406 165.058594 61.019531 " fill-opacity="1" fill-rule="nonzero"/><path fill="#99b9ff" d="M 144.195312 61.0625 L 157.871094 79.054688 C 163.085938 75.191406 165.980469 68.558594 164.964844 61.019531 C 164.320312 56.242188 162.207031 51.824219 159.148438 48.238281 L 144.195312 61.0625 " fill-opacity="1" fill-rule="nonzero"/><path fill="#5479f7" d="M 145.5 39.863281 L 144.195312 61.0625 L 159.148438 48.242188 C 155.597656 44.070312 150.769531 41.03125 145.5 39.863281 " fill-opacity="1" fill-rule="nonzero"/><path fill="#ffffff" d="M 150.285156 60.988281 C 150.773438 64.632812 148.273438 67.578125 144.699219 67.570312 C 141.121094 67.5625 137.824219 64.605469 137.335938 60.960938 C 136.84375 57.320312 139.347656 54.375 142.921875 54.378906 C 146.496094 54.386719 149.792969 57.347656 150.285156 60.988281 " fill-opacity="1" fill-rule="nonzero"/><path fill="#caddff" d="M 165.222656 95.160156 L 123.449219 89.390625 L 123.449219 84.808594 L 165.222656 90.578125 L 165.222656 95.160156 " fill-opacity="1" fill-rule="nonzero"/><path fill="#caddff" d="M 165.316406 103.683594 L 123.546875 97.914062 L 123.546875 93.332031 L 165.316406 99.101562 L 165.316406 103.683594 " fill-opacity="1" fill-rule="nonzero"/><path fill="#000000" d="M 171.042969 59.933594 C 170.839844 59.933594 170.671875 59.765625 170.671875 59.558594 L 170.671875 35.929688 C 170.671875 34.933594 169.960938 34.089844 168.984375 33.917969 L 120.878906 25.472656 C 120.285156 25.367188 119.675781 25.527344 119.214844 25.917969 C 118.75 26.308594 118.484375 26.878906 118.484375 27.484375 L 118.484375 58.8125 C 118.484375 59.019531 118.320312 59.1875 118.113281 59.1875 C 117.90625 59.1875 117.738281 59.019531 117.738281 58.8125 L 117.738281 27.484375 C 117.738281 26.65625 118.101562 25.875 118.734375 25.34375 C 119.367188 24.8125 120.195312 24.589844 121.007812 24.730469 L 169.113281 33.179688 C 170.449219 33.414062 171.417969 34.570312 171.417969 35.929688 L 171.417969 59.558594 C 171.417969 59.765625 171.25 59.933594 171.042969 59.933594 " fill-opacity="1" fill-rule="nonzero"/><path fill="#5479f7" d="M 171.632812 128.277344 C 168.960938 127.746094 166.164062 127.367188 163.285156 127.164062 C 157.132812 126.730469 151.363281 127.15625 146.378906 128.261719 C 146.339844 128.269531 146.328125 128.320312 146.359375 128.351562 L 163.238281 144.21875 L 171.632812 128.277344 " fill-opacity="1" fill-rule="nonzero"/><path fill="#99b9ff" d="M 171.691406 146.664062 L 171.628906 128.277344 L 163.175781 144.304688 L 163.175781 162.878906 L 171.691406 146.664062 " fill-opacity="1" fill-rule="nonzero"/><path fill="#5479f7" d="M 163.203125 144.285156 L 146.167969 128.28125 L 146.167969 145.691406 L 163.257812 161.441406 L 163.203125 144.285156 " fill-opacity="1" fill-rule="nonzero"/><path fill="#000000" d="M 146.460938 128.625 Z M 163.238281 144.59375 C 163.144531 144.59375 163.050781 144.558594 162.980469 144.496094 L 146.105469 128.625 C 145.988281 128.515625 145.941406 128.351562 145.980469 128.195312 C 146.023438 128.042969 146.144531 127.929688 146.296875 127.894531 C 148.007812 127.515625 149.8125 127.21875 151.660156 127.007812 C 151.867188 126.980469 152.050781 127.132812 152.074219 127.335938 C 152.097656 127.542969 151.949219 127.726562 151.746094 127.75 C 150.136719 127.933594 148.566406 128.183594 147.0625 128.496094 L 163.136719 143.613281 L 171.066406 128.546875 C 168.742188 128.105469 166.347656 127.78125 163.945312 127.589844 C 163.738281 127.574219 163.585938 127.390625 163.601562 127.183594 C 163.617188 126.980469 163.800781 126.824219 164.003906 126.84375 C 166.609375 127.050781 169.199219 127.410156 171.707031 127.910156 C 171.820312 127.933594 171.917969 128.007812 171.96875 128.117188 C 172.019531 128.222656 172.019531 128.347656 171.960938 128.449219 L 163.566406 144.394531 C 163.511719 144.5 163.414062 144.570312 163.300781 144.589844 C 163.277344 144.59375 163.257812 144.59375 163.238281 144.59375 " fill-opacity="1" fill-rule="nonzero"/><path fill="#99b9ff" d="M 137.367188 159.539062 L 163.03125 149.894531 C 163.117188 149.859375 163.136719 149.746094 163.0625 149.675781 L 146.285156 133.820312 C 136.078125 136.105469 129.207031 141.242188 129.207031 147.679688 C 129.207031 151.988281 132.277344 156.144531 137.367188 159.539062 " fill-opacity="1" fill-rule="nonzero"/><path fill="#99b9ff" d="M 137.378906 159.539062 L 137.378906 173.113281 L 163.105469 162.140625 L 163.105469 149.796875 L 137.378906 159.539062 " fill-opacity="1" fill-rule="nonzero"/><path fill="#5479f7" d="M 137.40625 173.144531 C 132.476562 169.863281 129.425781 165.871094 129.21875 161.714844 L 129.207031 147.679688 C 129.207031 151.988281 132.277344 156.144531 137.367188 159.539062 L 137.40625 173.144531 " fill-opacity="1" fill-rule="nonzero"/><path fill="#000000" d="M 137.367188 159.914062 C 137.296875 159.914062 137.222656 159.890625 137.160156 159.851562 C 131.789062 156.269531 128.832031 151.945312 128.832031 147.679688 C 128.832031 145.4375 129.625 143.308594 131.1875 141.351562 C 131.320312 141.191406 131.554688 141.164062 131.714844 141.292969 C 131.878906 141.421875 131.902344 141.660156 131.773438 141.820312 C 130.320312 143.640625 129.582031 145.609375 129.582031 147.679688 C 129.582031 151.648438 132.359375 155.703125 137.417969 159.121094 L 162.523438 149.683594 L 146.171875 134.230469 C 144.539062 134.601562 142.976562 135.054688 141.527344 135.570312 C 141.332031 135.640625 141.117188 135.539062 141.050781 135.347656 C 140.980469 135.152344 141.082031 134.933594 141.277344 134.867188 C 142.8125 134.316406 144.472656 133.84375 146.203125 133.457031 C 146.324219 133.429688 146.449219 133.460938 146.542969 133.546875 L 163.320312 149.40625 C 163.449219 149.527344 163.507812 149.707031 163.472656 149.878906 C 163.4375 150.046875 163.324219 150.183594 163.160156 150.246094 L 137.5 159.886719 C 137.457031 159.90625 137.414062 159.914062 137.367188 159.914062 " fill-opacity="1" fill-rule="nonzero"/><path fill="#99b9ff" d="M 183.578125 169.148438 C 194.304688 166.996094 201.625 161.761719 201.675781 155.144531 L 201.667969 166.765625 C 201.375 173.230469 194.113281 178.328125 183.550781 180.441406 L 183.578125 169.148438 " fill-opacity="1" fill-rule="nonzero"/><path fill="#caddff" d="M 167.613281 152.496094 L 183.542969 169.050781 L 183.589844 180.5 L 167.621094 164.070312 L 167.613281 152.496094 " fill-opacity="1" fill-rule="nonzero"/><path fill="#ffffff" d="M 183.578125 169.148438 C 194.347656 166.988281 201.675781 161.722656 201.675781 155.074219 C 201.675781 146.945312 190.730469 139.347656 175.941406 136.410156 L 167.664062 152.511719 L 183.578125 169.148438 " fill-opacity="1" fill-rule="nonzero"/><path fill="#000000" d="M 168.117188 152.441406 L 183.707031 168.742188 C 194.566406 166.511719 201.300781 161.285156 201.300781 155.074219 C 201.300781 147.324219 190.972656 139.847656 176.144531 136.832031 Z M 183.578125 169.523438 C 183.476562 169.523438 183.378906 169.484375 183.308594 169.40625 L 167.394531 152.769531 C 167.285156 152.652344 167.257812 152.480469 167.332031 152.339844 L 175.609375 136.238281 C 175.6875 136.089844 175.851562 136.011719 176.015625 136.042969 C 191.34375 139.089844 202.050781 146.914062 202.050781 155.074219 C 202.050781 161.703125 195 167.238281 183.652344 169.515625 C 183.625 169.519531 183.601562 169.523438 183.578125 169.523438 " fill-opacity="1" fill-rule="nonzero"/><path fill="#caddff" d="M 137.371094 164.738281 C 143.621094 168.90625 152.914062 171.925781 163.289062 172.65625 C 169.0625 173.0625 174.5 172.710938 179.269531 171.753906 L 163.347656 155.09375 L 137.371094 164.738281 " fill-opacity="1" fill-rule="nonzero"/><path fill="#000000" d="M 167.949219 173.195312 C 166.398438 173.195312 164.832031 173.140625 163.261719 173.03125 C 153.214844 172.324219 143.703125 169.414062 137.160156 165.050781 C 137.042969 164.972656 136.980469 164.835938 136.996094 164.695312 C 137.011719 164.554688 137.105469 164.4375 137.238281 164.390625 L 148.605469 160.167969 C 148.796875 160.097656 149.011719 160.195312 149.085938 160.386719 C 149.15625 160.582031 149.058594 160.796875 148.867188 160.871094 L 138.199219 164.832031 C 144.609375 168.902344 153.710938 171.605469 163.3125 172.28125 C 168.59375 172.652344 173.835938 172.390625 178.523438 171.519531 L 163.25 155.527344 L 159.183594 157.039062 C 158.988281 157.113281 158.773438 157.011719 158.703125 156.820312 C 158.628906 156.625 158.730469 156.410156 158.921875 156.335938 L 163.21875 154.742188 C 163.359375 154.691406 163.515625 154.726562 163.617188 154.835938 L 179.539062 171.496094 C 179.632812 171.59375 179.664062 171.738281 179.625 171.867188 C 179.582031 172 179.472656 172.09375 179.339844 172.121094 C 175.804688 172.832031 171.929688 173.195312 167.949219 173.195312 " fill-opacity="1" fill-rule="nonzero"/><path fill="#99b9ff" d="M 179.246094 171.761719 L 179.242188 180.136719 C 174.480469 181.089844 169.050781 181.4375 163.285156 181.035156 C 152.929688 180.304688 143.65625 177.296875 137.40625 173.144531 C 137.40625 173.144531 137.382812 164.75 137.390625 164.753906 C 143.640625 168.914062 152.921875 171.925781 163.285156 172.65625 C 169.050781 173.0625 174.484375 172.714844 179.246094 171.761719 C 179.253906 171.757812 179.246094 171.761719 179.246094 171.761719 " fill-opacity="1" fill-rule="nonzero"/><path fill="#000000" d="M 179.238281 180.140625 L 179.242188 180.140625 Z M 137.78125 172.941406 C 144.210938 177.160156 153.5 179.96875 163.3125 180.660156 C 168.722656 181.039062 174.09375 180.753906 178.867188 179.832031 L 178.871094 172.214844 C 174.070312 173.128906 168.683594 173.414062 163.257812 173.03125 C 153.523438 172.34375 144.28125 169.589844 137.761719 165.445312 C 137.765625 166.960938 137.773438 170.667969 137.78125 172.941406 Z M 167.949219 181.574219 C 166.398438 181.574219 164.832031 181.519531 163.257812 181.40625 C 153.238281 180.703125 143.738281 177.804688 137.199219 173.457031 C 137.09375 173.386719 137.03125 173.269531 137.03125 173.144531 L 137.019531 168.953125 C 137.019531 167.902344 137.015625 166.855469 137.015625 166.066406 C 137.011719 164.535156 137.011719 164.535156 137.214844 164.425781 C 137.332031 164.359375 137.480469 164.367188 137.597656 164.441406 C 144.035156 168.726562 153.40625 171.585938 163.3125 172.28125 C 168.839844 172.671875 174.324219 172.363281 179.167969 171.394531 C 179.351562 171.355469 179.535156 171.457031 179.601562 171.632812 C 179.617188 171.6875 179.625 171.742188 179.617188 171.796875 L 179.613281 180.140625 C 179.613281 180.316406 179.488281 180.472656 179.3125 180.507812 C 175.78125 181.210938 171.917969 181.574219 167.949219 181.574219 " fill-opacity="1" fill-rule="nonzero"/><path fill="#99b9ff" d="M 68.652344 140.066406 L 14.53125 131.371094 L 14.53125 125.769531 L 68.652344 134.464844 L 68.652344 140.066406 " fill-opacity="1" fill-rule="nonzero"/><path fill="#99b9ff" d="M 68.90625 149.050781 L 14.785156 140.355469 L 14.785156 134.753906 L 68.90625 143.449219 L 68.90625 149.050781 " fill-opacity="1" fill-rule="nonzero"/><path fill="#99b9ff" d="M 68.992188 158.371094 L 14.871094 149.675781 L 14.871094 144.074219 L 68.992188 152.769531 L 68.992188 158.371094 " fill-opacity="1" fill-rule="nonzero"/><path fill="#99b9ff" d="M 68.992188 167.042969 L 14.871094 158.347656 L 14.871094 152.746094 L 68.992188 161.441406 L 68.992188 167.042969 " fill-opacity="1" fill-rule="nonzero"/><path fill="#99b9ff" d="M 200.136719 63.726562 L 179.988281 60.863281 L 179.988281 55.625 L 200.136719 58.484375 L 200.136719 63.726562 " fill-opacity="1" fill-rule="nonzero"/><path fill="#99b9ff" d="M 202.183594 78.347656 L 176.421875 74.691406 L 176.421875 69.449219 L 202.183594 73.109375 L 202.183594 78.347656 " fill-opacity="1" fill-rule="nonzero"/><path fill="#99b9ff" d="M 202.265625 86.851562 L 176.503906 83.195312 L 176.503906 77.953125 L 202.265625 81.613281 L 202.265625 86.851562 " fill-opacity="1" fill-rule="nonzero"/><path fill="#99b9ff" d="M 202.351562 104.027344 L 176.585938 100.371094 L 176.585938 95.132812 L 202.351562 98.789062 L 202.351562 104.027344 " fill-opacity="1" fill-rule="nonzero"/><path fill="#99b9ff" d="M 202.265625 112.601562 L 176.5 108.941406 L 176.5 103.703125 L 202.265625 107.359375 L 202.265625 112.601562 " fill-opacity="1" fill-rule="nonzero"/><path fill="#99b9ff" d="M 202.101562 121.070312 L 176.335938 117.410156 L 176.335938 111.921875 L 202.101562 115.582031 L 202.101562 121.070312 " fill-opacity="1" fill-rule="nonzero"/><path fill="#5479f7" d="M 94.054688 214.105469 C 93.859375 213.605469 93.523438 213.050781 92.960938 212.535156 C 91.332031 211.039062 83.316406 205.972656 83.316406 205.972656 C 83.316406 205.972656 78.195312 205.855469 80.125 208.558594 C 80.125 208.558594 77.082031 208.371094 76.074219 208.632812 C 75.332031 208.828125 75.398438 212.613281 75.488281 214.613281 C 75.515625 215.292969 76.074219 215.824219 76.753906 215.824219 L 92.867188 215.824219 C 93.753906 215.824219 94.375 214.933594 94.054688 214.105469 " fill-opacity="1" fill-rule="nonzero"/><path fill="#000000" d="M 76.195312 208.988281 C 75.984375 209.207031 75.6875 210.617188 75.859375 214.597656 C 75.882812 215.074219 76.273438 215.449219 76.753906 215.449219 L 92.867188 215.449219 C 93.167969 215.449219 93.441406 215.304688 93.609375 215.054688 C 93.777344 214.8125 93.8125 214.515625 93.703125 214.242188 C 93.496094 213.707031 93.160156 213.226562 92.707031 212.8125 C 91.214844 211.441406 84.085938 206.90625 83.207031 206.347656 C 82.144531 206.339844 80.472656 206.558594 80.128906 207.214844 C 79.984375 207.484375 80.085938 207.863281 80.429688 208.34375 C 80.515625 208.460938 80.523438 208.613281 80.453125 208.742188 C 80.382812 208.867188 80.253906 208.941406 80.101562 208.933594 C 79.28125 208.882812 77 208.796875 76.195312 208.988281 Z M 92.867188 216.199219 L 76.753906 216.199219 C 75.871094 216.199219 75.152344 215.507812 75.113281 214.628906 C 74.847656 208.566406 75.613281 208.367188 75.980469 208.269531 C 76.734375 208.074219 78.488281 208.113281 79.464844 208.152344 C 79.265625 207.675781 79.265625 207.242188 79.464844 206.863281 C 80.152344 205.566406 83.003906 205.589844 83.324219 205.597656 C 83.394531 205.601562 83.460938 205.621094 83.515625 205.65625 C 83.84375 205.863281 91.582031 210.761719 93.214844 212.261719 C 93.75 212.753906 94.152344 213.328125 94.402344 213.96875 C 94.597656 214.46875 94.53125 215.03125 94.226562 215.476562 C 93.921875 215.929688 93.410156 216.199219 92.867188 216.199219 " fill-opacity="1" fill-rule="nonzero"/><path fill="#000000" d="M 75.484375 214.59375 C 75.488281 214.597656 75.488281 214.605469 75.488281 214.613281 C 75.515625 215.292969 76.074219 215.824219 76.753906 215.824219 L 92.867188 215.824219 C 93.582031 215.824219 94.121094 215.246094 94.136719 214.59375 L 75.484375 214.59375 " fill-opacity="1" fill-rule="nonzero"/><path fill="#000000" d="M 89.664062 213.09375 C 89.613281 213.09375 89.5625 213.082031 89.511719 213.058594 L 81.757812 209.601562 C 81.570312 209.519531 81.488281 209.296875 81.570312 209.105469 C 81.652344 208.917969 81.875 208.832031 82.0625 208.917969 L 89.816406 212.375 C 90.007812 212.460938 90.089844 212.679688 90.007812 212.871094 C 89.945312 213.011719 89.808594 213.09375 89.664062 213.09375 " fill-opacity="1" fill-rule="nonzero"/><path fill="#5479f7" d="M 42.882812 202.570312 L 43.894531 200.226562 C 47.679688 199.222656 46.9375 201.96875 46.761719 203.414062 C 46.585938 204.859375 48.515625 210.734375 49.742188 211.953125 C 50.964844 213.171875 50.105469 214.871094 50.105469 214.871094 C 50.105469 214.871094 45.53125 216.167969 42.402344 213.558594 C 39.273438 210.945312 37.585938 200.898438 37.585938 200.898438 C 39.648438 197.894531 43.457031 197.375 43.457031 197.375 C 43.457031 197.375 41.460938 199.582031 42.882812 202.570312 " fill-opacity="1" fill-rule="nonzero"/><path fill="#000000" d="M 37.980469 200.988281 C 38.207031 202.242188 39.859375 210.945312 42.640625 213.269531 C 45.257812 215.453125 49.003906 214.746094 49.835938 214.554688 C 49.992188 214.15625 50.308594 213.046875 49.476562 212.21875 C 48.164062 210.914062 46.203125 204.910156 46.390625 203.367188 C 46.40625 203.238281 46.425781 203.101562 46.445312 202.953125 C 46.558594 202.167969 46.714844 201.09375 46.21875 200.652344 C 45.871094 200.339844 45.160156 200.304688 44.164062 200.542969 L 43.226562 202.722656 C 43.167969 202.855469 43.039062 202.945312 42.890625 202.945312 C 42.746094 202.957031 42.609375 202.867188 42.546875 202.734375 C 41.550781 200.636719 42.105469 198.910156 42.621094 197.949219 C 41.4375 198.28125 39.335938 199.109375 37.980469 200.988281 Z M 47.4375 215.574219 C 45.839844 215.574219 43.820312 215.230469 42.164062 213.84375 C 38.964844 211.175781 37.285156 201.378906 37.21875 200.960938 C 37.203125 200.867188 37.222656 200.765625 37.277344 200.6875 C 39.410156 197.585938 43.246094 197.027344 43.40625 197.003906 C 43.5625 196.984375 43.714844 197.0625 43.789062 197.203125 C 43.859375 197.339844 43.839844 197.511719 43.734375 197.628906 C 43.667969 197.699219 42.277344 199.296875 42.90625 201.574219 L 43.550781 200.078125 C 43.597656 199.972656 43.6875 199.894531 43.800781 199.863281 C 45.179688 199.5 46.132812 199.574219 46.714844 200.089844 C 47.511719 200.800781 47.324219 202.109375 47.1875 203.058594 C 47.167969 203.199219 47.148438 203.335938 47.132812 203.457031 C 46.96875 204.8125 48.851562 210.542969 50.003906 211.6875 C 51.40625 213.082031 50.480469 214.964844 50.4375 215.042969 C 50.390625 215.136719 50.308594 215.207031 50.207031 215.234375 C 50.113281 215.261719 48.964844 215.574219 47.4375 215.574219 " fill-opacity="1" fill-rule="nonzero"/><path fill="#000000" d="M 40.816406 208.375 C 39.375 205.171875 39.097656 201.496094 39.078125 199.308594 C 38.539062 199.742188 38.023438 200.261719 37.585938 200.898438 C 37.585938 200.898438 39.273438 210.945312 42.402344 213.558594 C 45.53125 216.167969 50.105469 214.871094 50.105469 214.871094 C 50.105469 214.871094 50.425781 214.234375 50.394531 213.460938 C 44.058594 214.328125 42.945312 213.105469 40.816406 208.375 " fill-opacity="1" fill-rule="nonzero"/><path fill="#5479f7" d="M 50.394531 213.460938 C 50.375 212.972656 50.214844 212.425781 49.742188 211.953125 C 48.515625 210.734375 46.585938 204.859375 46.761719 203.414062 C 46.9375 201.96875 47.679688 199.222656 43.894531 200.226562 L 42.882812 202.570312 C 41.460938 199.582031 43.457031 197.375 43.457031 197.375 C 43.457031 197.375 41.089844 197.699219 39.078125 199.308594 C 39.097656 201.496094 39.375 205.171875 40.816406 208.375 C 42.945312 213.105469 44.058594 214.328125 50.394531 213.460938 " fill-opacity="1" fill-rule="nonzero"/><path fill="#000000" d="M 39.453125 199.488281 C 39.484375 201.484375 39.753906 205.105469 41.15625 208.222656 C 43.132812 212.613281 44 213.902344 49.980469 213.136719 C 49.90625 212.789062 49.738281 212.480469 49.476562 212.21875 C 48.164062 210.914062 46.203125 204.910156 46.390625 203.367188 C 46.40625 203.238281 46.425781 203.101562 46.445312 202.953125 C 46.558594 202.167969 46.714844 201.09375 46.21875 200.652344 C 45.871094 200.339844 45.160156 200.304688 44.164062 200.542969 L 43.226562 202.722656 C 43.167969 202.855469 43.039062 202.945312 42.890625 202.945312 C 42.746094 202.957031 42.609375 202.867188 42.546875 202.734375 C 41.550781 200.636719 42.105469 198.910156 42.621094 197.949219 C 41.816406 198.175781 40.582031 198.628906 39.453125 199.488281 Z M 47.304688 214.085938 C 43.363281 214.085938 42.21875 212.402344 40.476562 208.527344 C 39.046875 205.355469 38.722656 201.765625 38.703125 199.3125 C 38.703125 199.195312 38.753906 199.085938 38.84375 199.015625 C 40.914062 197.363281 43.304688 197.019531 43.40625 197.003906 C 43.5625 196.984375 43.714844 197.0625 43.789062 197.203125 C 43.859375 197.339844 43.839844 197.511719 43.734375 197.628906 C 43.667969 197.699219 42.277344 199.296875 42.90625 201.574219 L 43.550781 200.078125 C 43.597656 199.972656 43.6875 199.894531 43.800781 199.863281 C 45.179688 199.5 46.132812 199.574219 46.714844 200.089844 C 47.511719 200.800781 47.324219 202.109375 47.1875 203.058594 C 47.167969 203.199219 47.148438 203.335938 47.132812 203.457031 C 46.96875 204.8125 48.851562 210.542969 50.003906 211.6875 C 50.484375 212.164062 50.742188 212.757812 50.769531 213.445312 C 50.777344 213.636719 50.636719 213.804688 50.445312 213.832031 C 49.230469 214 48.195312 214.085938 47.304688 214.085938 " fill-opacity="1" fill-rule="nonzero"/><path fill="#000000" d="M 43.988281 209.71875 C 43.816406 209.71875 43.664062 209.601562 43.625 209.425781 C 43.617188 209.394531 42.902344 206.246094 42.648438 203.140625 C 42.632812 202.933594 42.785156 202.753906 42.992188 202.738281 C 43.199219 202.71875 43.378906 202.875 43.394531 203.082031 C 43.640625 206.132812 44.34375 209.226562 44.351562 209.257812 C 44.398438 209.460938 44.273438 209.664062 44.070312 209.707031 C 44.042969 209.714844 44.015625 209.71875 43.988281 209.71875 " fill-opacity="1" fill-rule="nonzero"/><path fill="#000000" d="M 75.730469 153.570312 C 75.730469 153.570312 52.332031 189.722656 51.234375 204.703125 C 51.234375 204.703125 50.160156 205.738281 48.863281 204.894531 C 46.589844 203.414062 44.558594 202.867188 44.058594 202.714844 C 42.144531 202.117188 38.726562 200.265625 32.15625 194.609375 C 34.191406 191.964844 37.121094 188.109375 40.558594 183.386719 C 50.296875 170.015625 55.167969 163.328125 58.578125 156.558594 C 63.214844 147.351562 62.898438 144.691406 67.675781 138.59375 C 71.777344 133.355469 76.644531 128.457031 76.644531 128.457031 C 76.644531 128.457031 87.308594 127.09375 90.375 131.4375 C 90.230469 135.019531 89.992188 142.675781 89.597656 149.121094 C 88.917969 160.164062 88.226562 167.210938 87.949219 170.714844 C 87.289062 179.109375 87.121094 191.320312 89.460938 207.582031 C 89.460938 207.582031 87.183594 209.5 82.84375 209.742188 C 78.5 209.984375 74.355469 210.035156 74.355469 210.035156 C 71.589844 201.5625 71.46875 194.832031 71.878906 190.230469 C 72.664062 181.398438 75.726562 176.746094 76.277344 165.816406 C 76.542969 160.621094 76.121094 156.34375 75.730469 153.570312 " fill-opacity="1" fill-rule="nonzero"/><path fill="#5479f7" d="M 76.210938 152.882812 C 76.152344 152.882812 76.09375 152.871094 76.039062 152.84375 C 75.855469 152.746094 75.785156 152.519531 75.878906 152.335938 L 80.644531 143.078125 C 80.683594 143 80.75 142.941406 80.832031 142.90625 L 84.558594 141.332031 C 84.75 141.25 84.96875 141.339844 85.050781 141.53125 C 85.128906 141.722656 85.039062 141.941406 84.851562 142.023438 L 81.246094 143.542969 L 76.542969 152.679688 C 76.476562 152.808594 76.347656 152.882812 76.210938 152.882812 " fill-opacity="1" fill-rule="nonzero"/><path fill="#ffffff" d="M 125.445312 118.871094 C 124.941406 118.625 124.273438 118.753906 123.789062 118.804688 C 123.300781 118.855469 121.148438 119.46875 121.148438 119.46875 C 121.148438 119.46875 120.425781 118.914062 119.425781 118.394531 C 120.363281 117.765625 120.640625 116.070312 120.640625 116.070312 L 115.859375 117.578125 C 113.601562 118.03125 113.800781 120.671875 113.800781 120.671875 L 121.597656 122.0625 L 126.269531 119.75 C 126.269531 119.75 125.949219 119.121094 125.445312 118.871094 " fill-opacity="1" fill-rule="nonzero"/><path fill="#000000" d="M 114.171875 120.359375 L 121.542969 121.671875 L 125.726562 119.601562 C 125.609375 119.453125 125.453125 119.292969 125.28125 119.207031 C 124.945312 119.042969 124.46875 119.101562 124.046875 119.152344 C 123.96875 119.160156 123.898438 119.171875 123.828125 119.175781 C 123.492188 119.210938 122.105469 119.585938 121.25 119.832031 C 121.136719 119.863281 121.015625 119.839844 120.921875 119.765625 C 120.914062 119.761719 120.210938 119.222656 119.253906 118.726562 C 119.136719 118.664062 119.058594 118.546875 119.050781 118.414062 C 119.046875 118.28125 119.109375 118.15625 119.21875 118.082031 C 119.660156 117.785156 119.953125 117.144531 120.117188 116.628906 L 115.96875 117.9375 C 115.957031 117.9375 115.945312 117.941406 115.933594 117.945312 C 114.417969 118.25 114.195312 119.726562 114.171875 120.359375 Z M 121.597656 122.433594 C 121.578125 122.433594 121.554688 122.433594 121.535156 122.429688 L 113.734375 121.042969 C 113.566406 121.011719 113.4375 120.871094 113.425781 120.699219 C 113.347656 119.675781 113.742188 117.632812 115.765625 117.214844 L 120.527344 115.714844 C 120.652344 115.675781 120.789062 115.703125 120.886719 115.785156 C 120.984375 115.875 121.03125 116.003906 121.011719 116.132812 C 121 116.195312 120.78125 117.492188 120.066406 118.316406 C 120.601562 118.621094 121.011719 118.90625 121.226562 119.058594 C 121.777344 118.90625 123.3125 118.476562 123.75 118.433594 C 123.816406 118.425781 123.886719 118.417969 123.957031 118.40625 C 124.457031 118.347656 125.078125 118.273438 125.609375 118.535156 C 126.210938 118.832031 126.566406 119.507812 126.601562 119.582031 C 126.648438 119.671875 126.65625 119.773438 126.625 119.871094 C 126.59375 119.964844 126.523438 120.042969 126.433594 120.085938 L 121.765625 122.398438 C 121.710938 122.421875 121.65625 122.433594 121.597656 122.433594 " fill-opacity="1" fill-rule="nonzero"/><path fill="#5479f7" d="M 68.902344 103.867188 C 82.269531 97.832031 79.265625 99.785156 91.867188 100.003906 C 97.703125 100.105469 111.25 127.417969 117.242188 113.847656 C 120.140625 127.921875 101.5625 125.703125 97.003906 122.355469 C 94.039062 120.179688 93.152344 118.300781 93.152344 118.300781 C 91.378906 121.921875 93.351562 125.449219 94.011719 129.488281 C 94.0625 129.957031 93.234375 133.1875 92.804688 133.707031 C 91.289062 135.535156 86.449219 133.109375 80.890625 133.28125 C 73.125 133.519531 68.84375 137.195312 66.5625 135.316406 C 66.167969 134.992188 65.859375 134.28125 67.53125 127.265625 C 68.855469 121.722656 70.746094 118.453125 69.613281 117.125 C 67.464844 114.609375 67.003906 104.726562 68.902344 103.867188 " fill-opacity="1" fill-rule="nonzero"/><path fill="#000000" d="M 93.207031 145.175781 C 92.070312 144.277344 91.996094 142.5 93.035156 141.210938 L 124.523438 103.738281 L 128.632812 106.996094 L 97.144531 144.46875 C 96.105469 145.761719 94.339844 146.078125 93.207031 145.175781 " fill-opacity="1" fill-rule="nonzero"/><path fill="#000000" d="M 117.882812 89.527344 C 113.902344 74.742188 122.753906 59.492188 137.652344 55.464844 C 152.554688 51.441406 167.859375 60.160156 171.84375 74.945312 C 175.824219 89.730469 166.972656 104.980469 152.074219 109.007812 C 137.171875 113.035156 121.867188 104.3125 117.882812 89.527344 Z M 175.9375 73.839844 C 171.351562 56.808594 153.722656 46.765625 136.558594 51.402344 C 119.398438 56.039062 109.203125 73.605469 113.789062 90.632812 C 118.375 107.664062 136.003906 117.707031 153.167969 113.070312 C 170.328125 108.433594 180.523438 90.867188 175.9375 73.839844 " fill-opacity="1" fill-rule="nonzero"/><path fill="#ffffff" d="M 103.625 131.042969 L 105.214844 128.378906 L 112.066406 127.410156 C 112.066406 127.410156 112.070312 127.929688 111.824219 128.265625 C 111.578125 128.597656 111.101562 128.738281 110.769531 128.871094 C 110.433594 129.003906 108.824219 129.332031 108.824219 129.332031 C 108.824219 129.332031 108.355469 131.816406 106.730469 132.285156 C 105.105469 132.757812 103.625 131.042969 103.625 131.042969 " fill-opacity="1" fill-rule="nonzero"/><path fill="#000000" d="M 103.625 131.042969 Z M 104.09375 130.988281 C 104.507812 131.382812 105.558594 132.238281 106.628906 131.925781 C 108.015625 131.523438 108.453125 129.285156 108.457031 129.261719 C 108.484375 129.113281 108.601562 128.996094 108.75 128.964844 C 109.359375 128.839844 110.410156 128.609375 110.628906 128.523438 C 110.679688 128.503906 110.730469 128.484375 110.785156 128.460938 C 111.046875 128.363281 111.378906 128.238281 111.523438 128.042969 C 111.5625 127.988281 111.59375 127.921875 111.617188 127.851562 L 105.445312 128.726562 Z M 106.148438 132.742188 C 104.621094 132.742188 103.398438 131.355469 103.34375 131.289062 C 103.234375 131.167969 103.21875 130.992188 103.304688 130.851562 L 104.894531 128.1875 C 104.953125 128.089844 105.050781 128.023438 105.164062 128.007812 L 112.011719 127.039062 C 112.121094 127.023438 112.226562 127.054688 112.308594 127.125 C 112.390625 127.195312 112.4375 127.300781 112.4375 127.40625 C 112.441406 127.472656 112.4375 128.0625 112.125 128.484375 C 111.851562 128.859375 111.386719 129.035156 111.046875 129.164062 C 110.996094 129.183594 110.949219 129.199219 110.90625 129.21875 C 110.621094 129.332031 109.609375 129.550781 109.136719 129.652344 C 108.960938 130.335938 108.351562 132.207031 106.835938 132.644531 C 106.601562 132.714844 106.371094 132.742188 106.148438 132.742188 " fill-opacity="1" fill-rule="nonzero"/><path fill="#5479f7" d="M 68.335938 104.011719 C 70.851562 102.625 72.398438 110.335938 78.1875 119.246094 C 78.890625 119.972656 79.765625 120.503906 80.726562 120.789062 L 105.925781 128.023438 L 103.796875 131.71875 L 77.984375 130.03125 C 75.179688 129.839844 72.589844 128.472656 70.839844 126.269531 L 65.355469 119.355469 C 63.261719 113.277344 65.285156 105.289062 68.335938 104.011719 " fill-opacity="1" fill-rule="nonzero"/><path fill="#000000" d="M 91.742188 124.277344 C 91.703125 124.277344 91.664062 124.273438 91.625 124.257812 C 83.5625 121.679688 74.066406 117.886719 72.230469 111.429688 C 72.175781 111.230469 72.289062 111.023438 72.488281 110.96875 C 72.6875 110.910156 72.894531 111.027344 72.949219 111.226562 C 74.308594 115.996094 80.136719 119.796875 91.855469 123.546875 C 92.050781 123.609375 92.160156 123.820312 92.097656 124.015625 C 92.046875 124.175781 91.898438 124.277344 91.742188 124.277344 " fill-opacity="1" fill-rule="nonzero"/><path fill="#000000" d="M 68.695312 87.632812 C 68.226562 82.066406 73.273438 75.804688 78.820312 75.335938 C 84.367188 74.867188 89.246094 79 89.714844 84.566406 C 90.183594 90.132812 86.066406 95.023438 80.519531 95.492188 C 74.96875 95.960938 69.164062 93.203125 68.695312 87.632812 " fill-opacity="1" fill-rule="nonzero"/><path fill="#000000" d="M 66.929688 95.480469 C 66.242188 93.070312 67.632812 90.558594 70.035156 89.871094 C 72.4375 89.183594 74.941406 90.582031 75.628906 92.992188 C 76.316406 95.402344 74.925781 97.914062 72.523438 98.597656 C 70.121094 99.285156 67.617188 97.890625 66.929688 95.480469 " fill-opacity="1" fill-rule="nonzero"/><path fill="#000000" d="M 67.519531 101.46875 C 67.011719 99.683594 68.039062 97.824219 69.820312 97.316406 C 71.597656 96.804688 73.453125 97.839844 73.960938 99.625 C 74.46875 101.410156 73.441406 103.269531 71.660156 103.78125 C 69.882812 104.289062 68.027344 103.253906 67.519531 101.46875 " fill-opacity="1" fill-rule="nonzero"/><path fill="#000000" d="M 70.621094 108.863281 C 70.621094 108.863281 68.261719 110.84375 68.230469 114.109375 C 68.210938 116.539062 70.640625 117.652344 71.566406 119.800781 C 71.753906 120.242188 72.328125 120.339844 72.632812 119.972656 C 73.535156 118.882812 74.878906 116.796875 74.640625 114.203125 C 74.292969 110.355469 72.085938 108.261719 72.085938 108.261719 L 70.621094 108.863281 " fill-opacity="1" fill-rule="nonzero"/><path fill="#000000" d="M 68.695312 107.105469 C 68.238281 105.496094 69.164062 103.824219 70.765625 103.363281 C 72.367188 102.90625 74.035156 103.839844 74.496094 105.445312 C 74.953125 107.050781 74.027344 108.726562 72.425781 109.183594 C 70.824219 109.640625 69.152344 108.710938 68.695312 107.105469 " fill-opacity="1" fill-rule="nonzero"/><path fill="#ffffff" d="M 84.710938 79.675781 C 85.359375 80.128906 85.722656 80.238281 86.253906 80.671875 C 87.332031 81.558594 88.445312 84.339844 90.175781 84.789062 C 90.433594 85.707031 89.695312 85.878906 89.457031 86.425781 C 89.703125 86.867188 90.230469 88.976562 90.707031 90.253906 C 90.871094 90.703125 90.679688 91.207031 90.253906 91.425781 C 89.539062 91.789062 88.71875 92.054688 87.789062 92.203125 C 87.789062 92.203125 83.460938 98.070312 88.652344 101.417969 C 88.652344 101.417969 84.398438 105.570312 78.761719 100.515625 C 77.769531 99.628906 81.246094 90.785156 81.246094 90.785156 C 81.097656 90.746094 79.167969 90.1875 78.839844 88.652344 C 78.71875 88.089844 78.765625 87.171875 79.261719 86.9375 C 79.746094 86.707031 80.625 87.136719 81.242188 88.167969 C 81.335938 87.902344 81.410156 87.566406 81.480469 87.179688 C 81.582031 86.652344 81.636719 86.050781 81.464844 85.765625 C 86.023438 84.105469 81.445312 79.917969 84.710938 79.675781 " fill-opacity="1" fill-rule="nonzero"/><path fill="#000000" d="M 79.550781 87.25 C 79.5 87.25 79.457031 87.257812 79.421875 87.273438 C 79.195312 87.382812 79.085938 88.027344 79.203125 88.574219 C 79.488281 89.902344 81.269531 90.402344 81.34375 90.425781 C 81.445312 90.453125 81.53125 90.523438 81.578125 90.617188 C 81.625 90.714844 81.632812 90.824219 81.59375 90.921875 C 80.011719 94.949219 78.578125 99.65625 79.015625 100.242188 C 83.480469 104.242188 86.945312 102.273438 88.035156 101.445312 C 86.808594 100.539062 86.058594 99.398438 85.8125 98.046875 C 85.261719 95.039062 87.398438 92.101562 87.488281 91.980469 C 87.546875 91.902344 87.632812 91.847656 87.730469 91.832031 C 88.589844 91.695312 89.382812 91.445312 90.085938 91.089844 C 90.339844 90.960938 90.457031 90.65625 90.355469 90.386719 C 90.125 89.769531 89.882812 88.960938 89.671875 88.25 C 89.460938 87.539062 89.242188 86.804688 89.132812 86.609375 C 89.074219 86.503906 89.066406 86.382812 89.113281 86.273438 C 89.222656 86.03125 89.390625 85.855469 89.539062 85.703125 C 89.746094 85.488281 89.875 85.351562 89.851562 85.082031 C 88.734375 84.671875 87.90625 83.472656 87.167969 82.40625 C 86.757812 81.8125 86.371094 81.253906 86.015625 80.964844 C 85.738281 80.734375 85.511719 80.605469 85.246094 80.449219 C 85.0625 80.34375 84.855469 80.226562 84.613281 80.0625 C 84.28125 80.101562 84.054688 80.195312 83.941406 80.335938 C 83.726562 80.605469 83.808594 81.175781 83.894531 81.78125 C 84.074219 83.050781 84.34375 84.9375 81.925781 85.984375 C 81.976562 86.296875 81.949219 86.710938 81.851562 87.25 C 81.785156 87.589844 81.707031 87.976562 81.59375 88.292969 C 81.546875 88.429688 81.421875 88.523438 81.28125 88.539062 C 81.132812 88.550781 80.996094 88.484375 80.921875 88.359375 C 80.441406 87.5625 79.855469 87.25 79.550781 87.25 Z M 84.386719 103.386719 C 82.730469 103.386719 80.714844 102.769531 78.511719 100.796875 C 78.117188 100.441406 77.898438 99.5 79.277344 95.203125 C 79.835938 93.449219 80.476562 91.742188 80.753906 91.015625 C 80.074219 90.753906 78.761719 90.082031 78.472656 88.730469 C 78.328125 88.0625 78.378906 86.941406 79.101562 86.597656 C 79.667969 86.328125 80.441406 86.632812 81.074219 87.316406 C 81.089844 87.25 81.101562 87.179688 81.113281 87.109375 C 81.28125 86.21875 81.15625 85.984375 81.144531 85.960938 C 81.085938 85.863281 81.074219 85.746094 81.109375 85.640625 C 81.148438 85.535156 81.230469 85.453125 81.335938 85.414062 C 83.539062 84.609375 83.34375 83.226562 83.152344 81.890625 C 83.042969 81.117188 82.941406 80.390625 83.359375 79.867188 C 83.625 79.535156 84.058594 79.347656 84.6875 79.304688 C 84.769531 79.296875 84.855469 79.320312 84.925781 79.371094 C 85.195312 79.554688 85.410156 79.679688 85.621094 79.800781 C 85.902344 79.964844 86.167969 80.117188 86.488281 80.382812 C 86.925781 80.738281 87.339844 81.34375 87.785156 81.980469 C 88.496094 83.011719 89.304688 84.175781 90.269531 84.425781 C 90.398438 84.460938 90.5 84.558594 90.535156 84.6875 C 90.765625 85.507812 90.367188 85.921875 90.078125 86.222656 C 90 86.300781 89.933594 86.371094 89.878906 86.445312 C 90.007812 86.757812 90.164062 87.285156 90.386719 88.035156 C 90.597656 88.734375 90.835938 89.527344 91.054688 90.125 C 91.289062 90.753906 91.019531 91.457031 90.421875 91.757812 C 89.695312 92.125 88.882812 92.390625 88.007812 92.546875 C 87.628906 93.109375 86.113281 95.550781 86.550781 97.917969 C 86.785156 99.195312 87.5625 100.265625 88.851562 101.101562 C 88.949219 101.164062 89.011719 101.265625 89.023438 101.378906 C 89.035156 101.492188 88.992188 101.605469 88.914062 101.683594 C 88.882812 101.710938 87.121094 103.386719 84.386719 103.386719 " fill-opacity="1" fill-rule="nonzero"/><path fill="#ffffff" d="M 83.898438 91.957031 C 83.898438 91.957031 85.578125 92.8125 87.636719 92.230469 L 83.898438 91.957031 " fill-opacity="1" fill-rule="nonzero"/><path fill="#000000" d="M 86.160156 92.8125 C 84.765625 92.8125 83.78125 92.320312 83.726562 92.292969 C 83.542969 92.199219 83.472656 91.972656 83.5625 91.789062 C 83.65625 91.605469 83.882812 91.53125 84.066406 91.625 C 84.089844 91.636719 85.65625 92.402344 87.539062 91.871094 C 87.738281 91.816406 87.941406 91.929688 88 92.128906 C 88.054688 92.328125 87.9375 92.535156 87.742188 92.59375 C 87.179688 92.75 86.644531 92.8125 86.160156 92.8125 " fill-opacity="1" fill-rule="nonzero"/><path fill="#ffffff" d="M 59.25 76.140625 C 58.777344 81.269531 54.242188 85.039062 49.125 84.5625 C 44.007812 84.089844 40.246094 79.550781 40.71875 74.421875 C 41.191406 69.296875 45.726562 65.527344 50.84375 66 C 55.960938 66.476562 59.722656 71.015625 59.25 76.140625 " fill-opacity="1" fill-rule="nonzero"/><path fill="#000000" d="M 49.976562 66.335938 C 45.421875 66.335938 41.519531 69.824219 41.089844 74.460938 C 40.871094 76.839844 41.589844 79.160156 43.113281 81 C 44.636719 82.835938 46.785156 83.96875 49.160156 84.191406 C 54.066406 84.648438 58.421875 81.019531 58.878906 76.109375 L 59.25 76.140625 L 58.878906 76.109375 C 59.097656 73.730469 58.378906 71.40625 56.855469 69.566406 C 55.332031 67.730469 53.183594 66.59375 50.808594 66.375 C 50.527344 66.347656 50.253906 66.335938 49.976562 66.335938 Z M 49.992188 84.980469 C 49.695312 84.980469 49.394531 84.964844 49.09375 84.9375 C 46.519531 84.699219 44.191406 83.46875 42.539062 81.476562 C 40.886719 79.484375 40.109375 76.96875 40.347656 74.390625 C 40.839844 69.066406 45.558594 65.136719 50.875 65.628906 C 53.449219 65.867188 55.777344 67.097656 57.429688 69.089844 C 59.082031 71.082031 59.859375 73.597656 59.621094 76.175781 C 59.160156 81.199219 54.929688 84.980469 49.992188 84.980469 " fill-opacity="1" fill-rule="nonzero"/><path fill="#5479f7" d="M 44.984375 73.921875 L 48.953125 80.804688 C 49.132812 81.113281 49.636719 81.097656 49.773438 80.777344 L 53.992188 70.988281 C 54.078125 70.792969 53.777344 70.644531 53.632812 70.8125 C 50.785156 74.171875 49.570312 77.210938 49.226562 78.203125 C 49.191406 78.300781 49.03125 78.300781 48.988281 78.203125 C 48.238281 76.367188 44.984375 73.921875 44.984375 73.921875 " fill-opacity="1" fill-rule="nonzero"/><path fill="#ffffff" d="M 99.542969 51.671875 C 99.730469 56.875 95.726562 61.367188 90.59375 61.707031 C 85.464844 62.046875 81.152344 58.101562 80.964844 52.898438 C 80.777344 47.695312 84.785156 43.203125 89.917969 42.863281 C 95.046875 42.527344 99.355469 46.46875 99.542969 51.671875 " fill-opacity="1" fill-rule="nonzero"/><path fill="#000000" d="M 89.96875 62.402344 C 87.570312 62.402344 85.296875 61.53125 83.515625 59.917969 C 81.539062 58.132812 80.398438 55.648438 80.296875 52.929688 C 80.097656 47.371094 84.398438 42.554688 89.882812 42.191406 C 93.199219 41.972656 96.347656 43.433594 98.308594 46.105469 C 98.429688 46.269531 98.394531 46.503906 98.230469 46.625 C 98.0625 46.75 97.828125 46.714844 97.707031 46.546875 C 95.898438 44.085938 92.992188 42.734375 89.929688 42.9375 C 84.847656 43.273438 80.859375 47.746094 81.046875 52.90625 C 81.136719 55.417969 82.191406 57.710938 84.015625 59.363281 C 85.8125 60.988281 88.140625 61.789062 90.582031 61.628906 C 95.664062 61.292969 99.652344 56.824219 99.464844 51.664062 C 99.457031 51.457031 99.621094 51.285156 99.828125 51.277344 C 100.019531 51.269531 100.207031 51.429688 100.214844 51.636719 C 100.414062 57.199219 96.113281 62.015625 90.628906 62.378906 C 90.410156 62.394531 90.1875 62.402344 89.96875 62.402344 " fill-opacity="1" fill-rule="nonzero"/><path fill="#5479f7" d="M 89.699219 58.011719 L 89.667969 57.164062 C 89.664062 57.015625 89.546875 56.90625 89.398438 56.902344 C 88.640625 56.890625 87.914062 56.742188 87.402344 56.535156 C 87.28125 56.484375 87.207031 56.355469 87.238281 56.226562 L 87.492188 55.023438 C 87.527344 54.859375 87.699219 54.769531 87.855469 54.828125 C 88.4375 55.066406 89.179688 55.238281 89.972656 55.1875 C 90.792969 55.128906 91.34375 54.773438 91.320312 54.191406 C 91.300781 53.636719 90.828125 53.316406 89.75 53.019531 C 88.191406 52.597656 87.117188 51.9375 87.066406 50.523438 C 87.019531 49.292969 87.800781 48.265625 89.203125 47.820312 C 89.320312 47.785156 89.398438 47.675781 89.394531 47.554688 L 89.363281 46.636719 C 89.359375 46.492188 89.46875 46.371094 89.613281 46.359375 L 90.484375 46.300781 C 90.636719 46.292969 90.769531 46.410156 90.773438 46.5625 L 90.800781 47.304688 C 90.804688 47.453125 90.925781 47.566406 91.070312 47.566406 C 91.761719 47.578125 92.28125 47.683594 92.691406 47.828125 C 92.820312 47.871094 92.894531 48.003906 92.863281 48.140625 L 92.621094 49.285156 C 92.585938 49.445312 92.421875 49.539062 92.269531 49.484375 C 91.867188 49.34375 91.277344 49.175781 90.464844 49.230469 C 89.53125 49.289062 89.242188 49.71875 89.257812 50.128906 C 89.273438 50.609375 89.789062 50.882812 91.027344 51.269531 C 92.761719 51.769531 93.484375 52.527344 93.53125 53.839844 C 93.574219 55.082031 92.78125 56.207031 91.273438 56.652344 C 91.152344 56.6875 91.070312 56.796875 91.074219 56.921875 L 91.109375 57.933594 C 91.117188 58.082031 91.003906 58.203125 90.859375 58.214844 L 89.988281 58.269531 C 89.835938 58.28125 89.707031 58.164062 89.699219 58.011719 " fill-opacity="1" fill-rule="nonzero"/><path fill="#ffffff" d="M 52.890625 49.480469 C 53.925781 43.796875 59.367188 40.003906 65.050781 41.007812 C 70.730469 42.011719 74.496094 47.433594 73.460938 53.117188 C 72.429688 58.800781 66.984375 62.59375 61.304688 61.59375 C 55.621094 60.585938 51.855469 55.167969 52.890625 49.480469 " fill-opacity="1" fill-rule="nonzero"/><path fill="#000000" d="M 63.226562 41.222656 C 58.429688 41.222656 54.148438 44.664062 53.257812 49.546875 C 52.777344 52.199219 53.355469 54.871094 54.886719 57.078125 C 56.417969 59.28125 58.71875 60.753906 61.367188 61.222656 C 66.839844 62.191406 72.097656 58.523438 73.09375 53.050781 C 73.578125 50.398438 73 47.726562 71.46875 45.519531 C 69.9375 43.316406 67.632812 41.84375 64.984375 41.375 C 64.394531 41.273438 63.808594 41.222656 63.226562 41.222656 Z M 63.125 62.125 C 62.503906 62.125 61.871094 62.074219 61.238281 61.960938 C 58.390625 61.457031 55.917969 59.875 54.269531 57.503906 C 52.625 55.136719 52.003906 52.261719 52.523438 49.414062 C 53.59375 43.539062 59.242188 39.601562 65.113281 40.636719 C 67.960938 41.140625 70.4375 42.722656 72.082031 45.09375 C 73.726562 47.464844 74.347656 50.335938 73.832031 53.183594 C 72.875 58.425781 68.277344 62.125 63.125 62.125 " fill-opacity="1" fill-rule="nonzero"/><path fill="#5479f7" d="M 69.539062 47.273438 L 65.910156 48.609375 C 65.71875 48.679688 65.671875 48.921875 65.816406 49.058594 L 66.246094 49.460938 C 66.355469 49.558594 66.359375 49.730469 66.261719 49.839844 L 64.308594 51.941406 C 64.207031 52.050781 64.039062 52.058594 63.929688 51.957031 L 61.433594 49.628906 C 61.324219 49.527344 61.152344 49.535156 61.050781 49.644531 L 56.703125 54.300781 C 56.601562 54.410156 56.605469 54.582031 56.714844 54.683594 L 57.628906 55.53125 C 57.738281 55.632812 57.90625 55.628906 58.007812 55.519531 L 61.144531 52.171875 C 61.246094 52.0625 61.414062 52.054688 61.523438 52.15625 L 64.019531 54.480469 C 64.128906 54.582031 64.296875 54.578125 64.398438 54.46875 L 67.5625 51.058594 C 67.664062 50.953125 67.835938 50.945312 67.945312 51.046875 L 68.40625 51.476562 C 68.554688 51.617188 68.796875 51.550781 68.847656 51.355469 L 69.890625 47.597656 C 69.949219 47.386719 69.746094 47.195312 69.539062 47.273438 " fill-opacity="1" fill-rule="nonzero"/></svg>