<svg xmlns="http://www.w3.org/2000/svg" xmlns:xlink="http://www.w3.org/1999/xlink" width="300" zoomAndPan="magnify" viewBox="0 0 224.87999 225" height="300" preserveAspectRatio="xMidYMid meet" version="1.0"><path fill="#b3b4bd" d="M 212.730469 48.101562 C 205.800781 34.121094 191.953125 26.5625 183.371094 21.878906 C 146.253906 1.625 95.691406 7.019531 62.085938 25.902344 C 28.914062 44.539062 0.00390625 88.675781 12.121094 136.625 C 24.285156 184.757812 71.632812 209.507812 107.445312 214.757812 C 164.308594 223.089844 212.089844 185.179688 214.703125 172.023438 C 215.511719 167.964844 215.300781 164.371094 215.300781 164.371094 C 214.292969 154.875 206.480469 149.230469 204.660156 127.585938 C 201.308594 87.757812 224.882812 72.621094 212.730469 48.101562 " fill-opacity="1" fill-rule="nonzero"/><path fill="#141619" d="M 183.003906 30.648438 C 182.914062 30.648438 182.820312 30.613281 182.746094 30.542969 C 182.597656 30.402344 182.59375 30.164062 182.734375 30.015625 L 183.652344 29.058594 C 183.796875 28.910156 184.03125 28.902344 184.179688 29.046875 C 184.332031 29.1875 184.335938 29.425781 184.191406 29.574219 L 183.277344 30.535156 C 183.203125 30.609375 183.101562 30.648438 183.003906 30.648438 " fill-opacity="1" fill-rule="nonzero"/><path fill="#141619" d="M 179.796875 34 C 179.699219 34 179.609375 33.964844 179.535156 33.898438 C 179.386719 33.753906 179.378906 33.519531 179.523438 33.367188 L 180.441406 32.410156 C 180.582031 32.261719 180.820312 32.257812 180.972656 32.398438 C 181.121094 32.542969 181.125 32.777344 180.980469 32.929688 L 180.0625 33.886719 C 179.992188 33.960938 179.894531 34 179.796875 34 " fill-opacity="1" fill-rule="nonzero"/><path fill="#141619" d="M 180.695312 30.699219 C 180.601562 30.699219 180.507812 30.664062 180.433594 30.59375 L 179.5 29.675781 C 179.355469 29.53125 179.351562 29.292969 179.496094 29.144531 C 179.640625 29 179.878906 28.996094 180.027344 29.140625 L 180.957031 30.058594 C 181.105469 30.203125 181.105469 30.441406 180.960938 30.589844 C 180.886719 30.664062 180.792969 30.699219 180.695312 30.699219 " fill-opacity="1" fill-rule="nonzero"/><path fill="#141619" d="M 183.953125 33.910156 C 183.859375 33.910156 183.765625 33.871094 183.691406 33.800781 L 182.757812 32.882812 C 182.613281 32.738281 182.609375 32.503906 182.753906 32.355469 C 182.902344 32.207031 183.136719 32.207031 183.285156 32.351562 L 184.214844 33.265625 C 184.363281 33.414062 184.367188 33.648438 184.21875 33.796875 C 184.148438 33.871094 184.050781 33.910156 183.953125 33.910156 " fill-opacity="1" fill-rule="nonzero"/><path fill="#141619" d="M 164.210938 200.414062 C 163.613281 200.855469 163.484375 201.710938 163.921875 202.324219 C 164.136719 202.621094 164.449219 202.816406 164.804688 202.875 C 165.152344 202.929688 165.5 202.847656 165.78125 202.636719 C 166.378906 202.199219 166.507812 201.34375 166.070312 200.730469 C 165.855469 200.429688 165.542969 200.234375 165.1875 200.179688 C 164.84375 200.125 164.492188 200.207031 164.210938 200.414062 Z M 165.015625 203.640625 C 164.90625 203.640625 164.796875 203.632812 164.6875 203.613281 C 164.128906 203.527344 163.644531 203.222656 163.3125 202.757812 C 162.640625 201.816406 162.84375 200.492188 163.765625 199.8125 C 164.210938 199.484375 164.761719 199.351562 165.304688 199.441406 C 165.859375 199.527344 166.347656 199.832031 166.679688 200.296875 C 167.351562 201.238281 167.148438 202.5625 166.222656 203.238281 C 165.867188 203.503906 165.445312 203.640625 165.015625 203.640625 " fill-opacity="1" fill-rule="nonzero"/><path fill="#141619" d="M 124.335938 210.34375 C 121.582031 210.34375 118.714844 210.277344 115.742188 210.144531 L 115.773438 209.398438 C 135.378906 210.269531 150.207031 208.257812 159.855469 203.425781 L 160.191406 204.09375 C 151.898438 208.25 139.859375 210.34375 124.335938 210.34375 " fill-opacity="1" fill-rule="nonzero"/><path fill="#141619" d="M 137.316406 206.199219 L 137.246094 205.457031 C 144.742188 204.726562 150.640625 203.246094 155.28125 200.921875 L 155.613281 201.589844 C 150.894531 203.957031 144.910156 205.464844 137.316406 206.199219 " fill-opacity="1" fill-rule="nonzero"/><path fill="#141619" d="M 124.597656 206.746094 C 119.984375 206.746094 115.367188 206.578125 110.9375 206.378906 L 110.972656 205.632812 C 117.925781 205.941406 125.34375 206.175781 132.480469 205.804688 L 132.519531 206.554688 C 129.90625 206.6875 127.25 206.746094 124.597656 206.746094 " fill-opacity="1" fill-rule="nonzero"/><path fill="#141619" d="M 86.886719 20.050781 L 86.546875 19.386719 C 96.269531 14.410156 111.210938 12.253906 130.945312 12.964844 L 130.917969 13.710938 C 111.308594 13.003906 96.496094 15.136719 86.886719 20.050781 " fill-opacity="1" fill-rule="nonzero"/><path fill="#141619" d="M 91.484375 22.515625 L 91.144531 21.847656 C 95.847656 19.445312 101.820312 17.886719 109.40625 17.085938 L 109.484375 17.832031 C 101.992188 18.621094 96.101562 20.152344 91.484375 22.515625 " fill-opacity="1" fill-rule="nonzero"/><path fill="#141619" d="M 113.121094 17.601562 L 113.078125 16.855469 C 120.933594 16.378906 126.816406 16.285156 133.390625 16.523438 L 133.363281 17.269531 C 126.816406 17.03125 120.949219 17.128906 113.121094 17.601562 " fill-opacity="1" fill-rule="nonzero"/><path fill="#0a21c0" d="M 212.890625 192.472656 L 211.082031 194.132812 C 209.707031 195.394531 207.859375 195.976562 206.085938 195.710938 L 14.742188 166.871094 C 12.195312 166.484375 10.964844 163.839844 10.9375 161.234375 L 9.660156 29.34375 C 9.644531 27.789062 10.582031 21.582031 10.582031 21.582031 C 10.582031 21.582031 15.238281 18.230469 18.015625 16.941406 C 19.285156 16.351562 20.675781 16.144531 22.015625 16.34375 L 211.5 44.375 C 213.4375 44.664062 214.828125 46.289062 214.832031 48.269531 L 215.261719 187.136719 C 215.265625 189.132812 214.398438 191.082031 212.890625 192.472656 " fill-opacity="1" fill-rule="nonzero"/><path fill="#b3b4bd" d="M 207.089844 195.382812 L 15.355469 167.015625 C 12.382812 166.578125 10.242188 164.078125 10.234375 161.027344 L 9.808594 23.96875 C 9.804688 22.359375 11.277344 21.0625 12.847656 21.296875 L 205.089844 49.738281 C 207.023438 50.023438 208.414062 51.648438 208.421875 53.628906 L 208.851562 193.832031 C 208.855469 194.765625 208 195.515625 207.089844 195.382812 " fill-opacity="1" fill-rule="nonzero"/><path fill="#141619" d="M 37.953125 170.734375 C 37.933594 170.734375 37.914062 170.734375 37.898438 170.730469 L 15.300781 167.386719 C 12.15625 166.921875 9.867188 164.25 9.859375 161.03125 L 9.4375 23.96875 C 9.433594 23.082031 9.824219 22.234375 10.507812 21.644531 C 11.179688 21.0625 12.054688 20.800781 12.902344 20.925781 L 111.777344 35.554688 C 111.980469 35.585938 112.121094 35.773438 112.09375 35.980469 C 112.0625 36.183594 111.871094 36.324219 111.667969 36.292969 L 12.792969 21.667969 C 12.160156 21.574219 11.507812 21.769531 11 22.210938 C 10.480469 22.660156 10.183594 23.300781 10.183594 23.964844 L 10.605469 161.027344 C 10.617188 163.875 12.636719 166.238281 15.410156 166.648438 L 38.007812 169.992188 C 38.210938 170.019531 38.351562 170.210938 38.320312 170.414062 C 38.292969 170.601562 38.132812 170.734375 37.953125 170.734375 " fill-opacity="1" fill-rule="nonzero"/><path fill="#141619" d="M 207.300781 195.773438 C 207.214844 195.773438 207.121094 195.765625 207.035156 195.753906 L 93.214844 178.914062 C 93.011719 178.882812 92.871094 178.695312 92.902344 178.488281 C 92.933594 178.285156 93.121094 178.144531 93.328125 178.175781 L 207.144531 195.011719 C 207.464844 195.0625 207.800781 194.957031 208.058594 194.734375 C 208.328125 194.5 208.480469 194.171875 208.480469 193.832031 L 208.046875 53.632812 C 208.042969 51.847656 206.773438 50.363281 205.035156 50.105469 L 176.070312 45.820312 C 175.863281 45.792969 175.722656 45.601562 175.753906 45.398438 C 175.785156 45.195312 175.976562 45.050781 176.179688 45.082031 L 205.144531 49.367188 C 207.253906 49.679688 208.789062 51.472656 208.792969 53.628906 L 209.226562 193.832031 C 209.230469 194.390625 208.980469 194.925781 208.546875 195.300781 C 208.195312 195.605469 207.75 195.773438 207.300781 195.773438 " fill-opacity="1" fill-rule="nonzero"/><path fill="#f4f5f8" d="M 106.46875 131.023438 L 18.824219 117.234375 C 16.679688 116.898438 15.152344 115.085938 15.152344 112.886719 L 15.152344 32.929688 C 15.152344 29.960938 17.882812 27.585938 20.777344 28.042969 L 108.421875 41.828125 C 110.5625 42.167969 112.09375 43.976562 112.09375 46.179688 L 112.09375 126.132812 C 112.09375 129.105469 109.363281 131.476562 106.46875 131.023438 " fill-opacity="1" fill-rule="nonzero"/><path fill="#b3b4bd" d="M 24.457031 109.933594 L 21.964844 109.484375 C 20.871094 109.289062 19.996094 108.171875 20 106.976562 L 20.023438 93.929688 C 20.023438 92.707031 20.945312 91.867188 22.066406 92.066406 L 24.53125 92.496094 C 25.628906 92.691406 26.507812 93.800781 26.507812 95 C 26.507812 98.328125 26.507812 104.6875 26.507812 108.066406 C 26.507812 109.292969 25.582031 110.136719 24.457031 109.933594 " fill-opacity="1" fill-rule="nonzero"/><path fill="#b3b4bd" d="M 33.277344 111.320312 L 30.785156 110.871094 C 29.691406 110.675781 28.820312 109.5625 28.820312 108.367188 L 28.847656 87.082031 C 28.847656 85.859375 29.765625 85.015625 30.890625 85.214844 L 33.355469 85.648438 C 34.453125 85.839844 35.332031 86.953125 35.332031 88.148438 C 35.332031 92.964844 35.332031 104.5625 35.332031 109.453125 C 35.332031 110.683594 34.40625 111.523438 33.277344 111.320312 " fill-opacity="1" fill-rule="nonzero"/><path fill="#b3b4bd" d="M 42.101562 112.710938 L 39.609375 112.261719 C 38.515625 112.0625 37.640625 110.949219 37.644531 109.753906 L 37.667969 92.859375 C 37.667969 91.636719 38.589844 90.792969 39.710938 90.992188 L 42.179688 91.425781 C 43.273438 91.617188 44.152344 92.730469 44.152344 93.925781 C 44.152344 97.984375 44.152344 106.71875 44.152344 110.839844 C 44.152344 112.070312 43.226562 112.914062 42.101562 112.710938 " fill-opacity="1" fill-rule="nonzero"/><path fill="#b3b4bd" d="M 50.925781 114.097656 L 48.429688 113.648438 C 47.335938 113.449219 46.464844 112.335938 46.464844 111.144531 L 46.492188 77.90625 C 46.492188 76.683594 47.414062 75.839844 48.535156 76.039062 L 51 76.46875 C 52.097656 76.660156 52.976562 77.777344 52.976562 78.972656 C 52.976562 85.582031 52.976562 105.511719 52.976562 112.230469 C 52.976562 113.457031 52.050781 114.300781 50.925781 114.097656 " fill-opacity="1" fill-rule="nonzero"/><path fill="#b3b4bd" d="M 59.746094 115.488281 L 57.253906 115.035156 C 56.160156 114.839844 55.285156 113.726562 55.285156 112.53125 L 55.3125 70.738281 C 55.316406 69.511719 56.234375 68.671875 57.355469 68.867188 L 59.820312 69.300781 C 60.917969 69.492188 61.796875 70.605469 61.796875 71.800781 C 61.796875 79.523438 61.796875 105.761719 61.796875 113.617188 C 61.796875 114.84375 60.871094 115.691406 59.746094 115.488281 " fill-opacity="1" fill-rule="nonzero"/><path fill="#e5e7fd" d="M 68.570312 116.875 L 66.074219 116.425781 C 64.980469 116.226562 64.109375 115.113281 64.109375 113.917969 L 64.136719 65.761719 C 64.136719 64.535156 65.058594 63.691406 66.179688 63.890625 L 68.644531 64.320312 C 69.742188 64.515625 70.621094 65.628906 70.621094 66.824219 C 70.621094 75.3125 70.621094 106.371094 70.621094 115.003906 C 70.621094 116.234375 69.695312 117.078125 68.570312 116.875 " fill-opacity="1" fill-rule="nonzero"/><path fill="#b3b4bd" d="M 77.390625 118.261719 L 74.898438 117.8125 C 73.804688 117.613281 72.929688 116.5 72.933594 115.308594 L 72.960938 81.097656 C 72.960938 79.871094 73.878906 79.03125 75.003906 79.226562 L 77.46875 79.660156 C 78.566406 79.851562 79.445312 80.964844 79.445312 82.164062 C 79.445312 88.90625 79.445312 109.539062 79.445312 116.394531 C 79.445312 117.621094 78.519531 118.464844 77.390625 118.261719 " fill-opacity="1" fill-rule="nonzero"/><path fill="#b3b4bd" d="M 86.214844 119.648438 L 83.722656 119.199219 C 82.628906 119.003906 81.753906 117.890625 81.753906 116.695312 L 81.78125 71.300781 C 81.78125 70.074219 82.703125 69.230469 83.824219 69.429688 L 86.289062 69.859375 C 87.386719 70.054688 88.265625 71.167969 88.265625 72.363281 C 88.265625 80.527344 88.265625 109.480469 88.265625 117.78125 C 88.265625 119.011719 87.339844 119.851562 86.214844 119.648438 " fill-opacity="1" fill-rule="nonzero"/><path fill="#b3b4bd" d="M 95.039062 121.035156 L 92.542969 120.585938 C 91.449219 120.390625 90.574219 119.277344 90.578125 118.082031 L 90.605469 59.050781 C 90.605469 57.828125 91.527344 56.984375 92.648438 57.179688 L 95.113281 57.613281 C 96.210938 57.804688 97.089844 58.921875 97.089844 60.117188 C 97.089844 69.8125 97.089844 109.308594 97.089844 119.167969 C 97.089844 120.398438 96.164062 121.238281 95.039062 121.035156 " fill-opacity="1" fill-rule="nonzero"/><path fill="#e5e7fd" d="M 103.980469 122.445312 L 101.484375 121.996094 C 100.390625 121.796875 99.519531 120.683594 99.519531 119.492188 L 99.546875 51.296875 C 99.546875 50.074219 100.46875 49.230469 101.589844 49.425781 L 104.054688 49.859375 C 105.152344 50.050781 106.03125 51.164062 106.03125 52.359375 C 106.03125 62.992188 106.03125 109.757812 106.03125 120.574219 C 106.03125 121.804688 105.105469 122.644531 103.980469 122.445312 " fill-opacity="1" fill-rule="nonzero"/><path fill="#f4f5f8" d="M 112.082031 175.136719 L 76.96875 169.523438 C 75.851562 169.34375 74.945312 168.238281 74.945312 167.050781 L 74.945312 132.132812 C 74.945312 130.949219 75.851562 130.132812 76.96875 130.308594 L 112.082031 135.925781 C 113.199219 136.101562 114.109375 137.210938 114.109375 138.394531 L 114.109375 173.316406 C 114.109375 174.5 113.199219 175.316406 112.082031 175.136719 " fill-opacity="1" fill-rule="nonzero"/><path fill="#e5e7fd" d="M 84.277344 167.71875 L 80.765625 167.15625 L 80.765625 141.945312 L 84.277344 142.503906 L 84.277344 167.71875 " fill-opacity="1" fill-rule="nonzero"/><path fill="#b3b4bd" d="M 84.277344 167.71875 L 80.765625 167.15625 L 80.765625 150.890625 L 84.277344 151.449219 L 84.277344 167.71875 " fill-opacity="1" fill-rule="nonzero"/><path fill="#e5e7fd" d="M 90.855469 168.769531 L 87.347656 168.210938 L 87.347656 146.714844 L 90.855469 147.273438 L 90.855469 168.769531 " fill-opacity="1" fill-rule="nonzero"/><path fill="#b3b4bd" d="M 90.855469 168.769531 L 87.347656 168.210938 L 87.347656 155.894531 L 90.855469 156.453125 L 90.855469 168.769531 " fill-opacity="1" fill-rule="nonzero"/><path fill="#e5e7fd" d="M 97 169.867188 L 93.488281 169.308594 L 93.488281 149.789062 L 97 150.347656 L 97 169.867188 " fill-opacity="1" fill-rule="nonzero"/><path fill="#b3b4bd" d="M 97 169.867188 L 93.488281 169.308594 L 93.488281 160.246094 L 97 160.804688 L 97 169.867188 " fill-opacity="1" fill-rule="nonzero"/><path fill="#e5e7fd" d="M 103.304688 171.109375 L 99.792969 170.546875 L 99.792969 145.335938 L 103.304688 145.894531 L 103.304688 171.109375 " fill-opacity="1" fill-rule="nonzero"/><path fill="#b3b4bd" d="M 103.304688 171.109375 L 99.792969 170.546875 L 99.792969 149.515625 L 103.304688 150.078125 L 103.304688 171.109375 " fill-opacity="1" fill-rule="nonzero"/><path fill="#e5e7fd" d="M 109.664062 172.011719 L 106.15625 171.449219 L 106.15625 147.976562 L 109.664062 148.539062 L 109.664062 172.011719 " fill-opacity="1" fill-rule="nonzero"/><path fill="#b3b4bd" d="M 109.664062 172.011719 L 106.15625 171.449219 L 106.15625 155.996094 L 109.664062 156.554688 L 109.664062 172.011719 " fill-opacity="1" fill-rule="nonzero"/><path fill="#0a21c0" d="M 111.859375 172.707031 C 111.839844 172.707031 111.820312 172.703125 111.800781 172.699219 L 77.789062 167.261719 C 77.097656 167.152344 76.554688 166.496094 76.558594 165.769531 L 76.691406 135.976562 C 76.691406 135.769531 76.859375 135.605469 77.066406 135.605469 C 77.273438 135.605469 77.441406 135.773438 77.441406 135.980469 L 77.304688 165.773438 C 77.304688 166.128906 77.582031 166.472656 77.910156 166.523438 L 111.917969 171.960938 C 112.121094 171.996094 112.261719 172.1875 112.230469 172.390625 C 112.199219 172.574219 112.039062 172.707031 111.859375 172.707031 " fill-opacity="1" fill-rule="nonzero"/><path fill="#e5e7fd" d="M 91.203125 137.105469 L 80.65625 135.417969 L 80.65625 133.445312 L 91.203125 135.128906 L 91.203125 137.105469 " fill-opacity="1" fill-rule="nonzero"/><path fill="#e5e7fd" d="M 91.242188 140.132812 L 80.695312 138.445312 L 80.695312 136.472656 L 91.242188 138.15625 L 91.242188 140.132812 " fill-opacity="1" fill-rule="nonzero"/><path fill="#f4f5f8" d="M 168.214844 115.203125 L 120.109375 106.769531 C 118.953125 106.566406 118.113281 105.566406 118.113281 104.394531 L 118.113281 27.441406 C 118.113281 25.941406 119.464844 24.804688 120.945312 25.0625 L 169.046875 33.492188 C 170.203125 33.699219 171.042969 34.699219 171.042969 35.871094 L 171.042969 112.824219 C 171.042969 114.324219 169.691406 115.460938 168.214844 115.203125 " fill-opacity="1" fill-rule="nonzero"/><path fill="#b3b4bd" d="M 165.058594 60.921875 C 166.667969 72.851562 158.457031 82.507812 146.722656 82.480469 C 134.988281 82.457031 124.171875 72.765625 122.5625 60.832031 C 120.953125 48.898438 129.164062 39.246094 140.898438 39.269531 C 152.632812 39.292969 163.449219 48.988281 165.058594 60.921875 " fill-opacity="1" fill-rule="nonzero"/><path fill="#e5e7fd" d="M 144.195312 60.960938 L 157.871094 78.921875 C 163.085938 75.066406 165.980469 68.449219 164.964844 60.921875 C 164.320312 56.152344 162.207031 51.738281 159.148438 48.15625 L 144.195312 60.960938 " fill-opacity="1" fill-rule="nonzero"/><path fill="#0a21c0" d="M 145.5 39.796875 L 144.195312 60.960938 L 159.148438 48.164062 C 155.597656 44 150.769531 40.964844 145.5 39.796875 " fill-opacity="1" fill-rule="nonzero"/><path fill="#f4f5f8" d="M 150.285156 60.890625 C 150.773438 64.523438 148.273438 67.46875 144.699219 67.460938 C 141.121094 67.453125 137.824219 64.5 137.335938 60.863281 C 136.84375 57.226562 139.347656 54.285156 142.921875 54.292969 C 146.496094 54.296875 149.792969 57.253906 150.285156 60.890625 " fill-opacity="1" fill-rule="nonzero"/><path fill="#b3b4bd" d="M 165.222656 95.003906 L 123.449219 89.246094 L 123.449219 84.667969 L 165.222656 90.425781 L 165.222656 95.003906 " fill-opacity="1" fill-rule="nonzero"/><path fill="#b3b4bd" d="M 165.316406 103.511719 L 123.546875 97.753906 L 123.546875 93.175781 L 165.316406 98.9375 L 165.316406 103.511719 " fill-opacity="1" fill-rule="nonzero"/><path fill="#141619" d="M 171.042969 59.835938 C 170.839844 59.835938 170.671875 59.667969 170.671875 59.460938 L 170.671875 35.871094 C 170.671875 34.878906 169.960938 34.035156 168.984375 33.863281 L 120.878906 25.429688 C 120.285156 25.324219 119.675781 25.488281 119.214844 25.878906 C 118.75 26.265625 118.484375 26.835938 118.484375 27.441406 L 118.484375 58.714844 C 118.484375 58.921875 118.320312 59.089844 118.113281 59.089844 C 117.90625 59.089844 117.738281 58.921875 117.738281 58.714844 L 117.738281 27.441406 C 117.738281 26.613281 118.101562 25.835938 118.734375 25.304688 C 119.367188 24.773438 120.195312 24.550781 121.007812 24.691406 L 169.113281 33.125 C 170.449219 33.359375 171.417969 34.515625 171.417969 35.871094 L 171.417969 59.460938 C 171.417969 59.667969 171.25 59.835938 171.042969 59.835938 " fill-opacity="1" fill-rule="nonzero"/><path fill="#0a21c0" d="M 171.632812 128.0625 C 168.960938 127.53125 166.164062 127.15625 163.285156 126.953125 C 157.132812 126.519531 151.363281 126.945312 146.378906 128.046875 C 146.339844 128.054688 146.328125 128.109375 146.359375 128.136719 L 163.238281 143.980469 L 171.632812 128.0625 " fill-opacity="1" fill-rule="nonzero"/><path fill="#e5e7fd" d="M 171.691406 146.417969 L 171.628906 128.0625 L 163.175781 144.0625 L 163.175781 162.605469 L 171.691406 146.417969 " fill-opacity="1" fill-rule="nonzero"/><path fill="#0a21c0" d="M 163.203125 144.042969 L 146.167969 128.066406 L 146.167969 145.449219 L 163.257812 161.171875 L 163.203125 144.042969 " fill-opacity="1" fill-rule="nonzero"/><path fill="#141619" d="M 146.460938 128.410156 Z M 163.238281 144.355469 C 163.144531 144.355469 163.050781 144.320312 162.980469 144.253906 L 146.105469 128.410156 C 145.988281 128.300781 145.941406 128.136719 145.980469 127.980469 C 146.023438 127.832031 146.144531 127.714844 146.296875 127.679688 C 148.007812 127.304688 149.8125 127.003906 151.660156 126.796875 C 151.867188 126.769531 152.050781 126.917969 152.074219 127.125 C 152.097656 127.328125 151.949219 127.515625 151.746094 127.539062 C 150.136719 127.722656 148.566406 127.972656 147.0625 128.28125 L 163.136719 143.371094 L 171.066406 128.332031 C 168.742188 127.890625 166.347656 127.570312 163.945312 127.375 C 163.738281 127.359375 163.585938 127.179688 163.601562 126.972656 C 163.617188 126.769531 163.800781 126.613281 164.003906 126.632812 C 166.609375 126.839844 169.199219 127.199219 171.707031 127.695312 C 171.820312 127.71875 171.917969 127.792969 171.96875 127.902344 C 172.019531 128.007812 172.019531 128.132812 171.960938 128.238281 L 163.566406 144.15625 C 163.511719 144.257812 163.414062 144.332031 163.300781 144.347656 C 163.277344 144.351562 163.257812 144.355469 163.238281 144.355469 " fill-opacity="1" fill-rule="nonzero"/><path fill="#e5e7fd" d="M 137.367188 159.269531 L 163.03125 149.644531 C 163.117188 149.609375 163.136719 149.496094 163.0625 149.425781 L 146.285156 133.597656 C 136.078125 135.878906 129.207031 141.007812 129.207031 147.433594 C 129.207031 151.734375 132.277344 155.882812 137.367188 159.269531 " fill-opacity="1" fill-rule="nonzero"/><path fill="#e5e7fd" d="M 137.378906 159.269531 L 137.378906 172.824219 L 163.105469 161.871094 L 163.105469 149.546875 L 137.378906 159.269531 " fill-opacity="1" fill-rule="nonzero"/><path fill="#0a21c0" d="M 137.40625 172.851562 C 132.476562 169.582031 129.425781 165.59375 129.21875 161.445312 L 129.207031 147.433594 C 129.207031 151.734375 132.277344 155.882812 137.367188 159.269531 L 137.40625 172.851562 " fill-opacity="1" fill-rule="nonzero"/><path fill="#141619" d="M 137.367188 159.644531 C 137.296875 159.644531 137.222656 159.625 137.160156 159.582031 C 131.789062 156.007812 128.832031 151.691406 128.832031 147.433594 C 128.832031 145.195312 129.625 143.070312 131.1875 141.117188 C 131.320312 140.953125 131.554688 140.929688 131.714844 141.058594 C 131.878906 141.1875 131.902344 141.421875 131.773438 141.582031 C 130.320312 143.398438 129.582031 145.367188 129.582031 147.433594 C 129.582031 151.394531 132.359375 155.445312 137.417969 158.855469 L 162.523438 149.433594 L 146.171875 134.003906 C 144.539062 134.378906 142.976562 134.828125 141.527344 135.347656 C 141.332031 135.414062 141.117188 135.3125 141.050781 135.121094 C 140.980469 134.925781 141.082031 134.710938 141.277344 134.640625 C 142.8125 134.09375 144.472656 133.621094 146.203125 133.234375 C 146.324219 133.207031 146.449219 133.238281 146.542969 133.324219 L 163.320312 149.15625 C 163.449219 149.277344 163.507812 149.457031 163.472656 149.628906 C 163.4375 149.796875 163.324219 149.933594 163.160156 149.992188 L 137.5 159.621094 C 137.457031 159.636719 137.414062 159.644531 137.367188 159.644531 " fill-opacity="1" fill-rule="nonzero"/><path fill="#e5e7fd" d="M 183.578125 168.867188 C 194.304688 166.714844 201.625 161.492188 201.675781 154.882812 L 201.667969 166.484375 C 201.375 172.941406 194.113281 178.027344 183.550781 180.140625 L 183.578125 168.867188 " fill-opacity="1" fill-rule="nonzero"/><path fill="#b3b4bd" d="M 167.613281 152.242188 L 183.542969 168.765625 L 183.589844 180.199219 L 167.621094 163.796875 L 167.613281 152.242188 " fill-opacity="1" fill-rule="nonzero"/><path fill="#f4f5f8" d="M 183.578125 168.867188 C 194.347656 166.707031 201.675781 161.453125 201.675781 154.8125 C 201.675781 146.699219 190.730469 139.117188 175.941406 136.183594 L 167.664062 152.253906 L 183.578125 168.867188 " fill-opacity="1" fill-rule="nonzero"/><path fill="#141619" d="M 168.117188 152.1875 L 183.707031 168.457031 C 194.566406 166.234375 201.300781 161.015625 201.300781 154.8125 C 201.300781 147.078125 190.972656 139.613281 176.144531 136.605469 Z M 183.578125 169.238281 C 183.476562 169.238281 183.378906 169.199219 183.308594 169.125 L 167.394531 152.515625 C 167.285156 152.398438 167.257812 152.226562 167.332031 152.082031 L 175.609375 136.011719 C 175.6875 135.863281 175.851562 135.785156 176.015625 135.816406 C 191.34375 138.855469 202.050781 146.667969 202.050781 154.8125 C 202.050781 161.433594 195 166.957031 183.652344 169.234375 C 183.625 169.238281 183.601562 169.238281 183.578125 169.238281 " fill-opacity="1" fill-rule="nonzero"/><path fill="#b3b4bd" d="M 137.371094 164.464844 C 143.621094 168.625 152.914062 171.636719 163.289062 172.367188 C 169.0625 172.773438 174.5 172.421875 179.269531 171.46875 L 163.347656 154.832031 L 137.371094 164.464844 " fill-opacity="1" fill-rule="nonzero"/><path fill="#141619" d="M 167.949219 172.90625 C 166.398438 172.90625 164.832031 172.851562 163.261719 172.738281 C 153.214844 172.035156 143.703125 169.132812 137.160156 164.773438 C 137.042969 164.695312 136.980469 164.5625 136.996094 164.421875 C 137.011719 164.28125 137.105469 164.164062 137.238281 164.113281 L 148.605469 159.898438 C 148.796875 159.828125 149.011719 159.925781 149.085938 160.121094 C 149.15625 160.316406 149.058594 160.53125 148.867188 160.601562 L 138.199219 164.554688 C 144.609375 168.617188 153.710938 171.320312 163.3125 171.992188 C 168.59375 172.363281 173.835938 172.101562 178.523438 171.230469 L 163.25 155.269531 L 159.183594 156.777344 C 158.988281 156.847656 158.773438 156.75 158.703125 156.554688 C 158.628906 156.363281 158.730469 156.148438 158.921875 156.074219 L 163.21875 154.484375 C 163.359375 154.433594 163.515625 154.46875 163.617188 154.574219 L 179.539062 171.210938 C 179.632812 171.308594 179.664062 171.449219 179.625 171.582031 C 179.582031 171.710938 179.472656 171.808594 179.339844 171.835938 C 175.804688 172.542969 171.929688 172.90625 167.949219 172.90625 " fill-opacity="1" fill-rule="nonzero"/><path fill="#e5e7fd" d="M 179.246094 171.472656 L 179.242188 179.835938 C 174.480469 180.789062 169.050781 181.136719 163.285156 180.730469 C 152.929688 180.003906 143.65625 177 137.40625 172.851562 C 137.40625 172.851562 137.382812 164.476562 137.390625 164.480469 C 143.640625 168.632812 152.921875 171.640625 163.285156 172.367188 C 169.050781 172.773438 174.484375 172.425781 179.246094 171.472656 C 179.253906 171.472656 179.246094 171.472656 179.246094 171.472656 " fill-opacity="1" fill-rule="nonzero"/><path fill="#141619" d="M 179.238281 179.835938 L 179.242188 179.835938 Z M 137.78125 172.652344 C 144.210938 176.863281 153.5 179.667969 163.3125 180.359375 C 168.722656 180.738281 174.09375 180.453125 178.867188 179.53125 L 178.871094 171.925781 C 174.070312 172.839844 168.683594 173.121094 163.257812 172.742188 C 153.523438 172.054688 144.28125 169.304688 137.761719 165.167969 C 137.765625 166.679688 137.773438 170.382812 137.78125 172.652344 Z M 167.949219 181.269531 C 166.398438 181.269531 164.832031 181.214844 163.257812 181.105469 C 153.238281 180.398438 143.738281 177.507812 137.199219 173.164062 C 137.09375 173.09375 137.03125 172.980469 137.03125 172.855469 L 137.019531 168.667969 C 137.019531 167.621094 137.015625 166.574219 137.015625 165.789062 C 137.011719 164.257812 137.011719 164.257812 137.214844 164.152344 C 137.332031 164.085938 137.480469 164.09375 137.597656 164.167969 C 144.035156 168.445312 153.40625 171.296875 163.3125 171.996094 C 168.839844 172.382812 174.324219 172.074219 179.167969 171.105469 C 179.351562 171.070312 179.535156 171.171875 179.601562 171.347656 C 179.617188 171.398438 179.625 171.457031 179.617188 171.507812 L 179.613281 179.839844 C 179.613281 180.015625 179.488281 180.167969 179.3125 180.203125 C 175.78125 180.910156 171.917969 181.269531 167.949219 181.269531 " fill-opacity="1" fill-rule="nonzero"/><path fill="#e5e7fd" d="M 68.652344 139.832031 L 14.53125 131.152344 L 14.53125 125.558594 L 68.652344 134.238281 L 68.652344 139.832031 " fill-opacity="1" fill-rule="nonzero"/><path fill="#e5e7fd" d="M 68.90625 148.800781 L 14.785156 140.121094 L 14.785156 134.527344 L 68.90625 143.210938 L 68.90625 148.800781 " fill-opacity="1" fill-rule="nonzero"/><path fill="#e5e7fd" d="M 68.992188 158.105469 L 14.871094 149.421875 L 14.871094 143.832031 L 68.992188 152.511719 L 68.992188 158.105469 " fill-opacity="1" fill-rule="nonzero"/><path fill="#e5e7fd" d="M 68.992188 166.765625 L 14.871094 158.082031 L 14.871094 152.492188 L 68.992188 161.171875 L 68.992188 166.765625 " fill-opacity="1" fill-rule="nonzero"/><path fill="#e5e7fd" d="M 200.136719 63.621094 L 179.988281 60.765625 L 179.988281 55.535156 L 200.136719 58.390625 L 200.136719 63.621094 " fill-opacity="1" fill-rule="nonzero"/><path fill="#e5e7fd" d="M 202.183594 78.21875 L 176.421875 74.566406 L 176.421875 69.335938 L 202.183594 72.988281 L 202.183594 78.21875 " fill-opacity="1" fill-rule="nonzero"/><path fill="#e5e7fd" d="M 202.265625 86.710938 L 176.503906 83.058594 L 176.503906 77.824219 L 202.265625 81.476562 L 202.265625 86.710938 " fill-opacity="1" fill-rule="nonzero"/><path fill="#e5e7fd" d="M 202.351562 103.855469 L 176.585938 100.203125 L 176.585938 94.972656 L 202.351562 98.625 L 202.351562 103.855469 " fill-opacity="1" fill-rule="nonzero"/><path fill="#e5e7fd" d="M 202.265625 112.414062 L 176.5 108.761719 L 176.5 103.53125 L 202.265625 107.183594 L 202.265625 112.414062 " fill-opacity="1" fill-rule="nonzero"/><path fill="#e5e7fd" d="M 202.101562 120.867188 L 176.335938 117.214844 L 176.335938 111.734375 L 202.101562 115.386719 L 202.101562 120.867188 " fill-opacity="1" fill-rule="nonzero"/><path fill="#0a21c0" d="M 94.054688 213.746094 C 93.859375 213.246094 93.523438 212.695312 92.960938 212.179688 C 91.332031 210.6875 83.316406 205.628906 83.316406 205.628906 C 83.316406 205.628906 78.195312 205.511719 80.125 208.210938 C 80.125 208.210938 77.082031 208.019531 76.074219 208.285156 C 75.332031 208.476562 75.398438 212.257812 75.488281 214.253906 C 75.515625 214.929688 76.074219 215.460938 76.753906 215.460938 L 92.867188 215.460938 C 93.753906 215.460938 94.375 214.570312 94.054688 213.746094 " fill-opacity="1" fill-rule="nonzero"/><path fill="#141619" d="M 76.195312 208.640625 C 75.984375 208.855469 75.6875 210.261719 75.859375 214.238281 C 75.882812 214.714844 76.273438 215.089844 76.753906 215.089844 L 92.867188 215.089844 C 93.167969 215.089844 93.441406 214.945312 93.609375 214.695312 C 93.777344 214.449219 93.8125 214.15625 93.703125 213.882812 C 93.496094 213.351562 93.160156 212.871094 92.707031 212.457031 C 91.214844 211.085938 84.085938 206.558594 83.207031 206 C 82.144531 205.992188 80.472656 206.214844 80.128906 206.867188 C 79.984375 207.136719 80.085938 207.511719 80.429688 207.992188 C 80.515625 208.109375 80.523438 208.265625 80.453125 208.390625 C 80.382812 208.515625 80.253906 208.59375 80.101562 208.582031 C 79.28125 208.53125 77 208.445312 76.195312 208.640625 Z M 92.867188 215.835938 L 76.753906 215.835938 C 75.871094 215.835938 75.152344 215.148438 75.113281 214.269531 C 74.847656 208.21875 75.613281 208.019531 75.980469 207.921875 C 76.734375 207.726562 78.488281 207.761719 79.464844 207.804688 C 79.265625 207.328125 79.265625 206.894531 79.464844 206.515625 C 80.152344 205.21875 83.003906 205.246094 83.324219 205.253906 C 83.394531 205.257812 83.460938 205.277344 83.515625 205.3125 C 83.84375 205.519531 91.582031 210.40625 93.214844 211.902344 C 93.75 212.398438 94.152344 212.972656 94.402344 213.609375 C 94.597656 214.109375 94.53125 214.671875 94.226562 215.117188 C 93.921875 215.566406 93.410156 215.835938 92.867188 215.835938 " fill-opacity="1" fill-rule="nonzero"/><path fill="#141619" d="M 75.484375 214.230469 C 75.488281 214.238281 75.488281 214.246094 75.488281 214.253906 C 75.515625 214.929688 76.074219 215.460938 76.753906 215.460938 L 92.867188 215.460938 C 93.582031 215.460938 94.121094 214.886719 94.136719 214.230469 L 75.484375 214.230469 " fill-opacity="1" fill-rule="nonzero"/><path fill="#141619" d="M 89.664062 212.734375 C 89.613281 212.734375 89.5625 212.726562 89.511719 212.703125 L 81.757812 209.25 C 81.570312 209.167969 81.488281 208.945312 81.570312 208.757812 C 81.652344 208.566406 81.875 208.484375 82.0625 208.566406 L 89.816406 212.019531 C 90.007812 212.105469 90.089844 212.324219 90.007812 212.511719 C 89.945312 212.652344 89.808594 212.734375 89.664062 212.734375 " fill-opacity="1" fill-rule="nonzero"/><path fill="#0a21c0" d="M 42.882812 202.230469 L 43.894531 199.890625 C 47.679688 198.890625 46.9375 201.628906 46.761719 203.070312 C 46.585938 204.515625 48.515625 210.382812 49.742188 211.597656 C 50.964844 212.816406 50.105469 214.511719 50.105469 214.511719 C 50.105469 214.511719 45.53125 215.804688 42.402344 213.199219 C 39.273438 210.59375 37.585938 200.5625 37.585938 200.5625 C 39.648438 197.566406 43.457031 197.046875 43.457031 197.046875 C 43.457031 197.046875 41.460938 199.25 42.882812 202.230469 " fill-opacity="1" fill-rule="nonzero"/><path fill="#141619" d="M 37.980469 200.648438 C 38.207031 201.90625 39.859375 210.59375 42.640625 212.914062 C 45.257812 215.089844 49.003906 214.386719 49.835938 214.195312 C 49.992188 213.796875 50.308594 212.691406 49.476562 211.863281 C 48.164062 210.558594 46.203125 204.566406 46.390625 203.027344 C 46.40625 202.898438 46.425781 202.761719 46.445312 202.613281 C 46.558594 201.832031 46.714844 200.757812 46.21875 200.3125 C 45.871094 200.003906 45.160156 199.96875 44.164062 200.207031 L 43.226562 202.382812 C 43.167969 202.515625 43.039062 202.605469 42.890625 202.605469 C 42.746094 202.617188 42.609375 202.527344 42.546875 202.394531 C 41.550781 200.300781 42.105469 198.578125 42.621094 197.617188 C 41.4375 197.949219 39.335938 198.777344 37.980469 200.648438 Z M 47.4375 215.214844 C 45.839844 215.214844 43.820312 214.867188 42.164062 213.484375 C 38.964844 210.824219 37.285156 201.039062 37.21875 200.625 C 37.203125 200.527344 37.222656 200.429688 37.277344 200.351562 C 39.410156 197.253906 43.246094 196.695312 43.40625 196.675781 C 43.5625 196.652344 43.714844 196.730469 43.789062 196.871094 C 43.859375 197.011719 43.839844 197.179688 43.734375 197.296875 C 43.667969 197.371094 42.277344 198.960938 42.90625 201.234375 L 43.550781 199.742188 C 43.597656 199.636719 43.6875 199.558594 43.800781 199.53125 C 45.179688 199.164062 46.132812 199.238281 46.714844 199.757812 C 47.511719 200.464844 47.324219 201.769531 47.1875 202.71875 C 47.167969 202.859375 47.148438 202.992188 47.132812 203.117188 C 46.96875 204.46875 48.851562 210.191406 50.003906 211.332031 C 51.40625 212.726562 50.480469 214.601562 50.4375 214.683594 C 50.390625 214.773438 50.308594 214.84375 50.207031 214.871094 C 50.113281 214.898438 48.964844 215.214844 47.4375 215.214844 " fill-opacity="1" fill-rule="nonzero"/><path fill="#141619" d="M 40.816406 208.027344 C 39.375 204.828125 39.097656 201.160156 39.078125 198.972656 C 38.539062 199.40625 38.023438 199.929688 37.585938 200.5625 C 37.585938 200.5625 39.273438 210.59375 42.402344 213.199219 C 45.53125 215.804688 50.105469 214.511719 50.105469 214.511719 C 50.105469 214.511719 50.425781 213.875 50.394531 213.101562 C 44.058594 213.96875 42.945312 212.75 40.816406 208.027344 " fill-opacity="1" fill-rule="nonzero"/><path fill="#0a21c0" d="M 50.394531 213.101562 C 50.375 212.613281 50.214844 212.070312 49.742188 211.597656 C 48.515625 210.382812 46.585938 204.515625 46.761719 203.070312 C 46.9375 201.628906 47.679688 198.890625 43.894531 199.890625 L 42.882812 202.230469 C 41.460938 199.25 43.457031 197.046875 43.457031 197.046875 C 43.457031 197.046875 41.089844 197.371094 39.078125 198.972656 C 39.097656 201.160156 39.375 204.828125 40.816406 208.027344 C 42.945312 212.75 44.058594 213.96875 50.394531 213.101562 " fill-opacity="1" fill-rule="nonzero"/><path fill="#141619" d="M 39.453125 199.15625 C 39.484375 201.148438 39.753906 204.761719 41.15625 207.871094 C 43.132812 212.257812 44 213.542969 49.980469 212.78125 C 49.90625 212.429688 49.738281 212.125 49.476562 211.863281 C 48.164062 210.558594 46.203125 204.566406 46.390625 203.027344 C 46.40625 202.898438 46.425781 202.761719 46.445312 202.613281 C 46.558594 201.832031 46.714844 200.757812 46.21875 200.3125 C 45.871094 200.003906 45.160156 199.96875 44.164062 200.207031 L 43.226562 202.382812 C 43.167969 202.515625 43.039062 202.605469 42.890625 202.605469 C 42.746094 202.617188 42.609375 202.527344 42.546875 202.394531 C 41.550781 200.300781 42.105469 198.574219 42.621094 197.617188 C 41.816406 197.84375 40.582031 198.296875 39.453125 199.15625 Z M 47.304688 213.726562 C 43.363281 213.726562 42.21875 212.046875 40.476562 208.179688 C 39.046875 205.011719 38.722656 201.425781 38.703125 198.976562 C 38.703125 198.863281 38.753906 198.753906 38.84375 198.679688 C 40.914062 197.03125 43.304688 196.6875 43.40625 196.675781 C 43.5625 196.652344 43.714844 196.730469 43.789062 196.871094 C 43.859375 197.011719 43.839844 197.179688 43.734375 197.296875 C 43.667969 197.371094 42.277344 198.960938 42.90625 201.234375 L 43.550781 199.742188 C 43.597656 199.636719 43.6875 199.558594 43.800781 199.53125 C 45.179688 199.164062 46.132812 199.238281 46.714844 199.757812 C 47.511719 200.464844 47.324219 201.769531 47.1875 202.71875 C 47.167969 202.859375 47.148438 202.992188 47.132812 203.117188 C 46.96875 204.46875 48.851562 210.191406 50.003906 211.332031 C 50.484375 211.808594 50.742188 212.398438 50.769531 213.089844 C 50.777344 213.28125 50.636719 213.449219 50.445312 213.472656 C 49.230469 213.640625 48.195312 213.726562 47.304688 213.726562 " fill-opacity="1" fill-rule="nonzero"/><path fill="#141619" d="M 43.988281 209.367188 C 43.816406 209.367188 43.664062 209.25 43.625 209.074219 C 43.617188 209.042969 42.902344 205.902344 42.648438 202.800781 C 42.632812 202.59375 42.785156 202.414062 42.992188 202.398438 C 43.199219 202.378906 43.378906 202.535156 43.394531 202.742188 C 43.640625 205.789062 44.34375 208.878906 44.351562 208.90625 C 44.398438 209.109375 44.273438 209.3125 44.070312 209.355469 C 44.042969 209.363281 44.015625 209.367188 43.988281 209.367188 " fill-opacity="1" fill-rule="nonzero"/><path fill="#141619" d="M 75.730469 153.3125 C 75.730469 153.3125 52.332031 189.402344 51.234375 204.359375 C 51.234375 204.359375 50.160156 205.394531 48.863281 204.550781 C 46.589844 203.074219 44.558594 202.527344 44.058594 202.375 C 42.144531 201.78125 38.726562 199.929688 32.15625 194.285156 C 34.191406 191.644531 37.121094 187.792969 40.558594 183.078125 C 50.296875 169.730469 55.167969 163.054688 58.578125 156.296875 C 63.214844 147.105469 62.898438 144.449219 67.675781 138.363281 C 71.777344 133.132812 76.644531 128.242188 76.644531 128.242188 C 76.644531 128.242188 87.308594 126.878906 90.375 131.21875 C 90.230469 134.792969 89.992188 142.4375 89.597656 148.875 C 88.917969 159.894531 88.226562 166.929688 87.949219 170.429688 C 87.289062 178.808594 87.121094 191 89.460938 207.234375 C 89.460938 207.234375 87.183594 209.148438 82.84375 209.390625 C 78.5 209.632812 74.355469 209.679688 74.355469 209.679688 C 71.589844 201.226562 71.46875 194.503906 71.878906 189.914062 C 72.664062 181.09375 75.726562 176.449219 76.277344 165.539062 C 76.542969 160.351562 76.121094 156.085938 75.730469 153.3125 " fill-opacity="1" fill-rule="nonzero"/><path fill="#0a21c0" d="M 76.210938 152.628906 C 76.152344 152.628906 76.09375 152.613281 76.039062 152.585938 C 75.855469 152.492188 75.785156 152.265625 75.878906 152.082031 L 80.644531 142.839844 C 80.683594 142.761719 80.75 142.699219 80.832031 142.667969 L 84.558594 141.097656 C 84.75 141.015625 84.96875 141.105469 85.050781 141.296875 C 85.128906 141.484375 85.039062 141.707031 84.851562 141.785156 L 81.246094 143.304688 L 76.542969 152.425781 C 76.476562 152.554688 76.347656 152.628906 76.210938 152.628906 " fill-opacity="1" fill-rule="nonzero"/><path fill="#f4f5f8" d="M 125.445312 118.675781 C 124.941406 118.425781 124.273438 118.554688 123.789062 118.605469 C 123.300781 118.65625 121.148438 119.269531 121.148438 119.269531 C 121.148438 119.269531 120.425781 118.714844 119.425781 118.195312 C 120.363281 117.570312 120.640625 115.875 120.640625 115.875 L 115.859375 117.382812 C 113.601562 117.835938 113.800781 120.472656 113.800781 120.472656 L 121.597656 121.855469 L 126.269531 119.550781 C 126.269531 119.550781 125.949219 118.921875 125.445312 118.675781 " fill-opacity="1" fill-rule="nonzero"/><path fill="#141619" d="M 114.171875 120.15625 L 121.542969 121.46875 L 125.726562 119.402344 C 125.609375 119.253906 125.453125 119.09375 125.28125 119.007812 C 124.945312 118.847656 124.46875 118.902344 124.046875 118.953125 C 123.96875 118.964844 123.898438 118.972656 123.828125 118.980469 C 123.492188 119.015625 122.105469 119.386719 121.25 119.632812 C 121.136719 119.664062 121.015625 119.640625 120.921875 119.566406 C 120.914062 119.5625 120.210938 119.023438 119.253906 118.527344 C 119.136719 118.46875 119.058594 118.347656 119.050781 118.214844 C 119.046875 118.082031 119.109375 117.957031 119.21875 117.886719 C 119.660156 117.589844 119.953125 116.949219 120.117188 116.433594 L 115.96875 117.738281 C 115.957031 117.742188 115.945312 117.746094 115.933594 117.75 C 114.417969 118.054688 114.195312 119.527344 114.171875 120.15625 Z M 121.597656 122.230469 C 121.578125 122.230469 121.554688 122.230469 121.535156 122.226562 L 113.734375 120.839844 C 113.566406 120.808594 113.4375 120.671875 113.425781 120.5 C 113.347656 119.476562 113.742188 117.4375 115.765625 117.019531 L 120.527344 115.519531 C 120.652344 115.480469 120.789062 115.507812 120.886719 115.59375 C 120.984375 115.679688 121.03125 115.808594 121.011719 115.9375 C 121 116.003906 120.78125 117.296875 120.066406 118.121094 C 120.601562 118.425781 121.011719 118.707031 121.226562 118.859375 C 121.777344 118.707031 123.3125 118.28125 123.75 118.234375 C 123.816406 118.230469 123.886719 118.21875 123.957031 118.210938 C 124.457031 118.152344 125.078125 118.074219 125.609375 118.339844 C 126.210938 118.632812 126.566406 119.308594 126.601562 119.382812 C 126.648438 119.472656 126.65625 119.574219 126.625 119.671875 C 126.59375 119.765625 126.523438 119.84375 126.433594 119.886719 L 121.765625 122.191406 C 121.710938 122.21875 121.65625 122.230469 121.597656 122.230469 " fill-opacity="1" fill-rule="nonzero"/><path fill="#0a21c0" d="M 68.902344 103.695312 C 82.269531 97.667969 79.265625 99.621094 91.867188 99.835938 C 97.703125 99.9375 111.25 127.207031 117.242188 113.660156 C 120.140625 127.710938 101.5625 125.496094 97.003906 122.152344 C 94.039062 119.980469 93.152344 118.101562 93.152344 118.101562 C 91.378906 121.71875 93.351562 125.238281 94.011719 129.269531 C 94.0625 129.742188 93.234375 132.964844 92.804688 133.484375 C 91.289062 135.308594 86.449219 132.886719 80.890625 133.058594 C 73.125 133.296875 68.84375 136.964844 66.5625 135.09375 C 66.167969 134.765625 65.859375 134.058594 67.53125 127.050781 C 68.855469 121.519531 70.746094 118.257812 69.613281 116.929688 C 67.464844 114.417969 67.003906 104.550781 68.902344 103.695312 " fill-opacity="1" fill-rule="nonzero"/><path fill="#141619" d="M 93.207031 144.933594 C 92.070312 144.035156 91.996094 142.261719 93.035156 140.972656 L 124.523438 103.5625 L 128.632812 106.820312 L 97.144531 144.230469 C 96.105469 145.515625 94.339844 145.832031 93.207031 144.933594 " fill-opacity="1" fill-rule="nonzero"/><path fill="#141619" d="M 117.882812 89.378906 C 113.902344 74.617188 122.753906 59.394531 137.652344 55.375 C 152.554688 51.355469 167.859375 60.0625 171.84375 74.824219 C 175.824219 89.582031 166.972656 104.804688 152.074219 108.828125 C 137.171875 112.847656 121.867188 104.136719 117.882812 89.378906 Z M 175.9375 73.71875 C 171.351562 56.714844 153.722656 46.6875 136.558594 51.316406 C 119.398438 55.945312 109.203125 73.480469 113.789062 90.484375 C 118.375 107.484375 136.003906 117.511719 153.167969 112.882812 C 170.328125 108.253906 180.523438 90.71875 175.9375 73.71875 " fill-opacity="1" fill-rule="nonzero"/><path fill="#f4f5f8" d="M 103.625 130.824219 L 105.214844 128.164062 L 112.066406 127.199219 C 112.066406 127.199219 112.070312 127.714844 111.824219 128.050781 C 111.578125 128.382812 111.101562 128.523438 110.769531 128.65625 C 110.433594 128.789062 108.824219 129.117188 108.824219 129.117188 C 108.824219 129.117188 108.355469 131.597656 106.730469 132.066406 C 105.105469 132.535156 103.625 130.824219 103.625 130.824219 " fill-opacity="1" fill-rule="nonzero"/><path fill="#141619" d="M 103.625 130.824219 Z M 104.09375 130.769531 C 104.507812 131.164062 105.558594 132.015625 106.628906 131.707031 C 108.015625 131.304688 108.453125 129.070312 108.457031 129.046875 C 108.484375 128.898438 108.601562 128.78125 108.75 128.75 C 109.359375 128.625 110.410156 128.394531 110.628906 128.308594 C 110.679688 128.289062 110.730469 128.269531 110.785156 128.25 C 111.046875 128.148438 111.378906 128.023438 111.523438 127.828125 C 111.5625 127.773438 111.59375 127.707031 111.617188 127.636719 L 105.445312 128.511719 Z M 106.148438 132.523438 C 104.621094 132.523438 103.398438 131.136719 103.34375 131.070312 C 103.234375 130.949219 103.21875 130.773438 103.304688 130.632812 L 104.894531 127.972656 C 104.953125 127.875 105.050781 127.808594 105.164062 127.792969 L 112.011719 126.828125 C 112.121094 126.8125 112.226562 126.84375 112.308594 126.914062 C 112.390625 126.984375 112.4375 127.085938 112.4375 127.195312 C 112.441406 127.261719 112.4375 127.847656 112.125 128.273438 C 111.851562 128.644531 111.386719 128.820312 111.046875 128.949219 C 110.996094 128.96875 110.949219 128.984375 110.90625 129.003906 C 110.621094 129.117188 109.609375 129.332031 109.136719 129.433594 C 108.960938 130.117188 108.351562 131.988281 106.835938 132.425781 C 106.601562 132.492188 106.371094 132.523438 106.148438 132.523438 " fill-opacity="1" fill-rule="nonzero"/><path fill="#0a21c0" d="M 68.335938 103.835938 C 70.851562 102.453125 72.398438 110.152344 78.1875 119.046875 C 78.890625 119.769531 79.765625 120.300781 80.726562 120.589844 L 105.925781 127.808594 L 103.796875 131.496094 L 77.984375 129.816406 C 75.179688 129.621094 72.589844 128.257812 70.839844 126.058594 L 65.355469 119.15625 C 63.261719 113.089844 65.285156 105.113281 68.335938 103.835938 " fill-opacity="1" fill-rule="nonzero"/><path fill="#141619" d="M 91.742188 124.070312 C 91.703125 124.070312 91.664062 124.0625 91.625 124.050781 C 83.5625 121.476562 74.066406 117.691406 72.230469 111.246094 C 72.175781 111.046875 72.289062 110.839844 72.488281 110.78125 C 72.6875 110.726562 72.894531 110.839844 72.949219 111.039062 C 74.308594 115.800781 80.136719 119.597656 91.855469 123.339844 C 92.050781 123.402344 92.160156 123.613281 92.097656 123.808594 C 92.046875 123.96875 91.898438 124.070312 91.742188 124.070312 " fill-opacity="1" fill-rule="nonzero"/><path fill="#141619" d="M 68.695312 87.488281 C 68.226562 81.933594 73.273438 75.679688 78.820312 75.210938 C 84.367188 74.746094 89.246094 78.867188 89.714844 84.425781 C 90.183594 89.984375 86.066406 94.867188 80.519531 95.332031 C 74.96875 95.800781 69.164062 93.046875 68.695312 87.488281 " fill-opacity="1" fill-rule="nonzero"/><path fill="#141619" d="M 66.929688 95.320312 C 66.242188 92.914062 67.632812 90.410156 70.035156 89.722656 C 72.4375 89.039062 74.941406 90.429688 75.628906 92.835938 C 76.316406 95.242188 74.925781 97.75 72.523438 98.4375 C 70.121094 99.121094 67.617188 97.726562 66.929688 95.320312 " fill-opacity="1" fill-rule="nonzero"/><path fill="#141619" d="M 67.519531 101.300781 C 67.011719 99.519531 68.039062 97.660156 69.820312 97.152344 C 71.597656 96.644531 73.453125 97.679688 73.960938 99.460938 C 74.46875 101.242188 73.441406 103.101562 71.660156 103.605469 C 69.882812 104.113281 68.027344 103.082031 67.519531 101.300781 " fill-opacity="1" fill-rule="nonzero"/><path fill="#141619" d="M 70.621094 108.683594 C 70.621094 108.683594 68.261719 110.65625 68.230469 113.917969 C 68.210938 116.34375 70.640625 117.457031 71.566406 119.601562 C 71.753906 120.039062 72.328125 120.140625 72.632812 119.773438 C 73.535156 118.6875 74.878906 116.601562 74.640625 114.015625 C 74.292969 110.171875 72.085938 108.082031 72.085938 108.082031 L 70.621094 108.683594 " fill-opacity="1" fill-rule="nonzero"/><path fill="#141619" d="M 68.695312 106.925781 C 68.238281 105.320312 69.164062 103.652344 70.765625 103.191406 C 72.367188 102.738281 74.035156 103.667969 74.496094 105.269531 C 74.953125 106.875 74.027344 108.546875 72.425781 109.003906 C 70.824219 109.460938 69.152344 108.527344 68.695312 106.925781 " fill-opacity="1" fill-rule="nonzero"/><path fill="#f4f5f8" d="M 84.710938 79.546875 C 85.359375 79.996094 85.722656 80.105469 86.253906 80.539062 C 87.332031 81.421875 88.445312 84.203125 90.175781 84.648438 C 90.433594 85.566406 89.695312 85.738281 89.457031 86.28125 C 89.703125 86.722656 90.230469 88.828125 90.707031 90.105469 C 90.871094 90.550781 90.679688 91.058594 90.253906 91.273438 C 89.539062 91.636719 88.71875 91.902344 87.789062 92.046875 C 87.789062 92.046875 83.460938 97.90625 88.652344 101.246094 C 88.652344 101.246094 84.398438 105.394531 78.761719 100.347656 C 77.769531 99.460938 81.246094 90.636719 81.246094 90.636719 C 81.097656 90.59375 79.167969 90.035156 78.839844 88.507812 C 78.71875 87.941406 78.765625 87.027344 79.261719 86.792969 C 79.746094 86.5625 80.625 86.992188 81.242188 88.019531 C 81.335938 87.753906 81.410156 87.421875 81.480469 87.035156 C 81.582031 86.507812 81.636719 85.90625 81.464844 85.625 C 86.023438 83.964844 81.445312 79.785156 84.710938 79.546875 " fill-opacity="1" fill-rule="nonzero"/><path fill="#141619" d="M 79.550781 87.105469 C 79.5 87.105469 79.457031 87.113281 79.421875 87.128906 C 79.195312 87.238281 79.085938 87.882812 79.203125 88.425781 C 79.488281 89.75 81.269531 90.253906 81.34375 90.273438 C 81.445312 90.300781 81.53125 90.371094 81.578125 90.46875 C 81.625 90.5625 81.632812 90.671875 81.59375 90.773438 C 80.011719 94.789062 78.578125 99.488281 79.015625 100.078125 C 83.480469 104.070312 86.945312 102.101562 88.035156 101.277344 C 86.808594 100.371094 86.058594 99.230469 85.8125 97.886719 C 85.261719 94.882812 87.398438 91.949219 87.488281 91.828125 C 87.546875 91.746094 87.632812 91.695312 87.730469 91.679688 C 88.589844 91.542969 89.382812 91.292969 90.085938 90.9375 C 90.339844 90.808594 90.457031 90.507812 90.355469 90.234375 C 90.125 89.617188 89.882812 88.8125 89.671875 88.101562 C 89.460938 87.394531 89.242188 86.660156 89.132812 86.464844 C 89.074219 86.363281 89.066406 86.238281 89.113281 86.128906 C 89.222656 85.890625 89.390625 85.714844 89.539062 85.558594 C 89.746094 85.34375 89.875 85.207031 89.851562 84.9375 C 88.734375 84.53125 87.90625 83.335938 87.167969 82.269531 C 86.757812 81.679688 86.371094 81.117188 86.015625 80.828125 C 85.738281 80.601562 85.511719 80.46875 85.246094 80.316406 C 85.0625 80.210938 84.855469 80.09375 84.613281 79.929688 C 84.28125 79.96875 84.054688 80.0625 83.941406 80.203125 C 83.726562 80.472656 83.808594 81.042969 83.894531 81.648438 C 84.074219 82.914062 84.34375 84.796875 81.925781 85.84375 C 81.976562 86.15625 81.949219 86.566406 81.851562 87.105469 C 81.785156 87.441406 81.707031 87.832031 81.59375 88.144531 C 81.546875 88.28125 81.421875 88.378906 81.28125 88.390625 C 81.132812 88.40625 80.996094 88.335938 80.921875 88.210938 C 80.441406 87.414062 79.855469 87.105469 79.550781 87.105469 Z M 84.386719 103.214844 C 82.730469 103.214844 80.714844 102.597656 78.511719 100.628906 C 78.117188 100.273438 77.898438 99.335938 79.277344 95.046875 C 79.835938 93.296875 80.476562 91.589844 80.753906 90.863281 C 80.074219 90.601562 78.761719 89.929688 78.472656 88.582031 C 78.328125 87.914062 78.378906 86.796875 79.101562 86.453125 C 79.667969 86.183594 80.441406 86.488281 81.074219 87.171875 C 81.089844 87.105469 81.101562 87.035156 81.113281 86.96875 C 81.28125 86.078125 81.15625 85.839844 81.144531 85.816406 C 81.085938 85.722656 81.074219 85.605469 81.109375 85.5 C 81.148438 85.394531 81.230469 85.308594 81.335938 85.273438 C 83.539062 84.46875 83.34375 83.089844 83.152344 81.753906 C 83.042969 80.984375 82.941406 80.257812 83.359375 79.734375 C 83.625 79.402344 84.058594 79.21875 84.6875 79.171875 C 84.769531 79.167969 84.855469 79.1875 84.925781 79.238281 C 85.195312 79.421875 85.410156 79.550781 85.621094 79.667969 C 85.902344 79.832031 86.167969 79.984375 86.488281 80.25 C 86.925781 80.605469 87.339844 81.207031 87.785156 81.84375 C 88.496094 82.871094 89.304688 84.039062 90.269531 84.289062 C 90.398438 84.320312 90.5 84.417969 90.535156 84.546875 C 90.765625 85.367188 90.367188 85.777344 90.078125 86.078125 C 90 86.15625 89.933594 86.230469 89.878906 86.300781 C 90.007812 86.613281 90.164062 87.140625 90.386719 87.886719 C 90.597656 88.585938 90.835938 89.378906 91.054688 89.972656 C 91.289062 90.601562 91.019531 91.304688 90.421875 91.605469 C 89.695312 91.972656 88.882812 92.238281 88.007812 92.390625 C 87.628906 92.953125 86.113281 95.390625 86.550781 97.753906 C 86.785156 99.03125 87.5625 100.101562 88.851562 100.933594 C 88.949219 100.992188 89.011719 101.097656 89.023438 101.210938 C 89.035156 101.324219 88.992188 101.433594 88.914062 101.515625 C 88.882812 101.542969 87.121094 103.214844 84.386719 103.214844 " fill-opacity="1" fill-rule="nonzero"/><path fill="#f4f5f8" d="M 83.898438 91.804688 C 83.898438 91.804688 85.578125 92.660156 87.636719 92.078125 L 83.898438 91.804688 " fill-opacity="1" fill-rule="nonzero"/><path fill="#141619" d="M 86.160156 92.65625 C 84.765625 92.65625 83.78125 92.167969 83.726562 92.140625 C 83.542969 92.046875 83.472656 91.820312 83.5625 91.636719 C 83.65625 91.453125 83.882812 91.378906 84.066406 91.472656 C 84.089844 91.484375 85.65625 92.25 87.539062 91.71875 C 87.738281 91.664062 87.941406 91.777344 88 91.976562 C 88.054688 92.175781 87.9375 92.382812 87.742188 92.4375 C 87.179688 92.597656 86.644531 92.65625 86.160156 92.65625 " fill-opacity="1" fill-rule="nonzero"/><path fill="#f4f5f8" d="M 59.25 76.015625 C 58.777344 81.132812 54.242188 84.898438 49.125 84.421875 C 44.007812 83.949219 40.246094 79.417969 40.71875 74.300781 C 41.191406 69.183594 45.726562 65.417969 50.84375 65.890625 C 55.960938 66.367188 59.722656 70.898438 59.25 76.015625 " fill-opacity="1" fill-rule="nonzero"/><path fill="#141619" d="M 49.976562 66.226562 C 45.421875 66.226562 41.519531 69.710938 41.089844 74.335938 C 40.871094 76.710938 41.589844 79.03125 43.113281 80.863281 C 44.636719 82.699219 46.785156 83.832031 49.160156 84.050781 C 54.066406 84.507812 58.421875 80.886719 58.878906 75.984375 L 59.25 76.015625 L 58.878906 75.984375 C 59.097656 73.605469 58.378906 71.289062 56.855469 69.453125 C 55.332031 67.617188 53.183594 66.484375 50.808594 66.265625 C 50.527344 66.238281 50.253906 66.226562 49.976562 66.226562 Z M 49.992188 84.839844 C 49.695312 84.839844 49.394531 84.824219 49.09375 84.796875 C 46.519531 84.558594 44.191406 83.332031 42.539062 81.34375 C 40.886719 79.355469 40.109375 76.839844 40.347656 74.265625 C 40.839844 68.953125 45.558594 65.027344 50.875 65.519531 C 53.449219 65.757812 55.777344 66.984375 57.429688 68.972656 C 59.082031 70.964844 59.859375 73.476562 59.621094 76.050781 C 59.160156 81.0625 54.929688 84.839844 49.992188 84.839844 " fill-opacity="1" fill-rule="nonzero"/><path fill="#0a21c0" d="M 44.984375 73.796875 L 48.953125 80.667969 C 49.132812 80.976562 49.636719 80.964844 49.773438 80.644531 L 53.992188 70.871094 C 54.078125 70.675781 53.777344 70.527344 53.632812 70.695312 C 50.785156 74.050781 49.570312 77.082031 49.226562 78.070312 C 49.191406 78.171875 49.03125 78.171875 48.988281 78.070312 C 48.238281 76.242188 44.984375 73.796875 44.984375 73.796875 " fill-opacity="1" fill-rule="nonzero"/><path fill="#f4f5f8" d="M 99.542969 51.589844 C 99.730469 56.78125 95.726562 61.265625 90.59375 61.605469 C 85.464844 61.945312 81.152344 58.007812 80.964844 52.8125 C 80.777344 47.617188 84.785156 43.132812 89.917969 42.796875 C 95.046875 42.457031 99.355469 46.394531 99.542969 51.589844 " fill-opacity="1" fill-rule="nonzero"/><path fill="#141619" d="M 89.96875 62.296875 C 87.570312 62.296875 85.296875 61.429688 83.515625 59.820312 C 81.539062 58.035156 80.398438 55.558594 80.296875 52.84375 C 80.097656 47.292969 84.398438 42.484375 89.882812 42.121094 C 93.199219 41.90625 96.347656 43.363281 98.308594 46.027344 C 98.429688 46.195312 98.394531 46.429688 98.230469 46.550781 C 98.0625 46.675781 97.828125 46.636719 97.707031 46.472656 C 95.898438 44.015625 92.992188 42.667969 89.929688 42.871094 C 84.847656 43.203125 80.859375 47.667969 81.046875 52.816406 C 81.136719 55.328125 82.191406 57.617188 84.015625 59.265625 C 85.8125 60.886719 88.140625 61.6875 90.582031 61.527344 C 95.664062 61.195312 99.652344 56.730469 99.464844 51.582031 C 99.457031 51.375 99.621094 51.203125 99.828125 51.195312 C 100.019531 51.1875 100.207031 51.347656 100.214844 51.554688 C 100.414062 57.105469 96.113281 61.914062 90.628906 62.277344 C 90.410156 62.289062 90.1875 62.296875 89.96875 62.296875 " fill-opacity="1" fill-rule="nonzero"/><path fill="#0a21c0" d="M 89.699219 57.917969 L 89.667969 57.070312 C 89.664062 56.925781 89.546875 56.8125 89.398438 56.808594 C 88.640625 56.796875 87.914062 56.648438 87.402344 56.441406 C 87.28125 56.390625 87.207031 56.261719 87.238281 56.132812 L 87.492188 54.933594 C 87.527344 54.769531 87.699219 54.679688 87.855469 54.738281 C 88.4375 54.972656 89.179688 55.148438 89.972656 55.09375 C 90.792969 55.039062 91.34375 54.683594 91.320312 54.101562 C 91.300781 53.546875 90.828125 53.226562 89.75 52.933594 C 88.191406 52.511719 87.117188 51.851562 87.066406 50.4375 C 87.019531 49.214844 87.800781 48.1875 89.203125 47.742188 C 89.320312 47.707031 89.398438 47.601562 89.394531 47.476562 L 89.363281 46.5625 C 89.359375 46.417969 89.46875 46.292969 89.613281 46.285156 L 90.484375 46.226562 C 90.636719 46.214844 90.769531 46.332031 90.773438 46.484375 L 90.800781 47.230469 C 90.804688 47.375 90.925781 47.488281 91.070312 47.488281 C 91.761719 47.5 92.28125 47.605469 92.691406 47.75 C 92.820312 47.792969 92.894531 47.925781 92.863281 48.058594 L 92.621094 49.203125 C 92.585938 49.363281 92.421875 49.457031 92.269531 49.402344 C 91.867188 49.261719 91.277344 49.09375 90.464844 49.148438 C 89.53125 49.210938 89.242188 49.636719 89.257812 50.046875 C 89.273438 50.527344 89.789062 50.800781 91.027344 51.183594 C 92.761719 51.683594 93.484375 52.4375 93.53125 53.75 C 93.574219 54.992188 92.78125 56.113281 91.273438 56.558594 C 91.152344 56.59375 91.070312 56.703125 91.074219 56.828125 L 91.109375 57.839844 C 91.117188 57.984375 91.003906 58.109375 90.859375 58.117188 L 89.988281 58.175781 C 89.835938 58.183594 89.707031 58.066406 89.699219 57.917969 " fill-opacity="1" fill-rule="nonzero"/><path fill="#f4f5f8" d="M 52.890625 49.402344 C 53.925781 43.726562 59.367188 39.9375 65.050781 40.941406 C 70.730469 41.945312 74.496094 47.355469 73.460938 53.03125 C 72.429688 58.703125 66.984375 62.492188 61.304688 61.492188 C 55.621094 60.488281 51.855469 55.074219 52.890625 49.402344 " fill-opacity="1" fill-rule="nonzero"/><path fill="#141619" d="M 63.226562 41.15625 C 58.429688 41.15625 54.148438 44.59375 53.257812 49.46875 C 52.777344 52.113281 53.355469 54.78125 54.886719 56.984375 C 56.417969 59.183594 58.71875 60.652344 61.367188 61.121094 C 66.839844 62.085938 72.097656 58.425781 73.09375 52.964844 C 73.578125 50.316406 73 47.648438 71.46875 45.445312 C 69.9375 43.246094 67.632812 41.777344 64.984375 41.308594 C 64.394531 41.207031 63.808594 41.15625 63.226562 41.15625 Z M 63.125 62.023438 C 62.503906 62.023438 61.871094 61.96875 61.238281 61.859375 C 58.390625 61.355469 55.917969 59.777344 54.269531 57.410156 C 52.625 55.042969 52.003906 52.175781 52.523438 49.332031 C 53.59375 43.46875 59.242188 39.535156 65.113281 40.570312 C 67.960938 41.074219 70.4375 42.652344 72.082031 45.019531 C 73.726562 47.386719 74.347656 50.253906 73.832031 53.097656 C 72.875 58.332031 68.277344 62.023438 63.125 62.023438 " fill-opacity="1" fill-rule="nonzero"/><path fill="#0a21c0" d="M 69.539062 47.195312 L 65.910156 48.53125 C 65.71875 48.597656 65.671875 48.84375 65.816406 48.980469 L 66.246094 49.378906 C 66.355469 49.480469 66.359375 49.652344 66.261719 49.757812 L 64.308594 51.855469 C 64.207031 51.964844 64.039062 51.972656 63.929688 51.871094 L 61.433594 49.546875 C 61.324219 49.445312 61.152344 49.453125 61.050781 49.5625 L 56.703125 54.214844 C 56.601562 54.320312 56.605469 54.492188 56.714844 54.59375 L 57.628906 55.441406 C 57.738281 55.542969 57.90625 55.535156 58.007812 55.429688 L 61.144531 52.085938 C 61.246094 51.976562 61.414062 51.96875 61.523438 52.070312 L 64.019531 54.390625 C 64.128906 54.492188 64.296875 54.488281 64.398438 54.378906 L 67.5625 50.976562 C 67.664062 50.867188 67.835938 50.863281 67.945312 50.964844 L 68.40625 51.394531 C 68.554688 51.53125 68.796875 51.464844 68.847656 51.269531 L 69.890625 47.519531 C 69.949219 47.308594 69.746094 47.117188 69.539062 47.195312 " fill-opacity="1" fill-rule="nonzero"/></svg>