<svg xmlns="http://www.w3.org/2000/svg" xmlns:xlink="http://www.w3.org/1999/xlink" width="300" zoomAndPan="magnify" viewBox="0 0 224.87999 225" height="300" preserveAspectRatio="xMidYMid meet" version="1.0"><path fill="#b3b4bd" d="M 137.453125 206.1875 C 148.980469 201.734375 198.164062 182.738281 210.25 136.925781 C 224.03125 84.6875 182.816406 23.1875 125.847656 11.855469 C 66.753906 0.101562 0 27.730469 5.242188 70.542969 C 7.632812 90.074219 34.234375 95.984375 33.003906 118.988281 C 31.804688 141.4375 3.523438 152.441406 6.488281 179.152344 C 6.671875 180.832031 7.269531 185.859375 9.792969 190.882812 C 24.125 219.425781 89.023438 224.894531 137.453125 206.1875 " fill-opacity="1" fill-rule="nonzero"/><path fill="#141619" d="M 21.695312 176.503906 L 188.445312 176.867188 L 191.339844 176.871094 L 196.722656 176.882812 C 198.253906 176.882812 199.507812 175.695312 199.703125 174.179688 L 213.644531 65.691406 C 213.984375 63.050781 212.050781 60.5625 209.386719 60.5625 L 36.625 60.71875 L 21.695312 176.503906 " fill-opacity="1" fill-rule="nonzero"/><path fill="#e5e7fd" d="M 202.902344 60.03125 C 205.910156 60.03125 208.355469 63.0625 207.972656 66.050781 L 193.929688 174.171875 C 193.734375 175.691406 192.441406 176.832031 190.914062 176.832031 L 189.597656 176.882812 L 19.386719 176.832031 C 17.550781 176.832031 16.132812 175.214844 16.367188 173.394531 L 30.695312 63.070312 C 30.890625 61.550781 32.058594 60.03125 33.589844 60.03125 L 202.902344 60.03125 " fill-opacity="1" fill-rule="nonzero"/><path fill="#141619" d="M 24.226562 112.683594 C 24.210938 112.683594 24.191406 112.683594 24.175781 112.679688 C 23.96875 112.652344 23.824219 112.464844 23.851562 112.257812 L 26.742188 90.253906 C 26.769531 90.046875 26.960938 89.902344 27.164062 89.929688 C 27.371094 89.957031 27.515625 90.144531 27.488281 90.351562 L 24.597656 112.355469 C 24.574219 112.542969 24.410156 112.683594 24.226562 112.683594 " fill-opacity="1" fill-rule="nonzero"/><path fill="#141619" d="M 19.386719 177.207031 C 18.40625 177.207031 17.46875 176.785156 16.820312 176.050781 C 16.171875 175.308594 15.871094 174.324219 15.996094 173.34375 L 16.316406 169.710938 C 16.332031 169.503906 16.515625 169.347656 16.722656 169.367188 C 16.929688 169.386719 17.082031 169.570312 17.066406 169.777344 L 16.746094 173.425781 C 16.644531 174.203125 16.878906 174.972656 17.386719 175.550781 C 17.890625 176.125 18.621094 176.453125 19.386719 176.453125 L 75.96875 176.398438 C 76.175781 176.398438 76.34375 176.566406 76.34375 176.773438 C 76.34375 176.984375 76.175781 177.152344 75.96875 177.152344 L 19.386719 177.207031 " fill-opacity="1" fill-rule="nonzero"/><path fill="#141619" d="M 190.96875 176.898438 L 188.28125 176.898438 C 188.074219 176.898438 187.90625 176.730469 187.90625 176.519531 C 187.90625 176.3125 188.074219 176.144531 188.28125 176.144531 L 190.96875 176.144531 C 192.300781 176.144531 193.570312 175.003906 193.742188 173.652344 L 207.597656 66.003906 C 207.769531 64.683594 207.363281 63.351562 206.484375 62.351562 C 205.609375 61.359375 204.347656 60.789062 203.027344 60.789062 L 183.664062 60.789062 C 183.457031 60.789062 183.285156 60.621094 183.285156 60.414062 C 183.285156 60.203125 183.457031 60.035156 183.664062 60.035156 L 203.027344 60.035156 C 204.566406 60.035156 206.03125 60.699219 207.050781 61.855469 C 208.070312 63.015625 208.542969 64.5625 208.34375 66.097656 L 194.492188 173.746094 C 194.265625 175.484375 192.6875 176.898438 190.96875 176.898438 " fill-opacity="1" fill-rule="nonzero"/><path fill="#f4f5f8" d="M 53.347656 87.152344 L 9.496094 87.152344 C 7.011719 87.152344 5.085938 84.976562 5.394531 82.507812 L 13.222656 18.777344 C 13.480469 16.707031 15.238281 15.152344 17.324219 15.152344 L 61.179688 15.152344 C 63.664062 15.152344 65.589844 17.332031 65.28125 19.800781 L 57.453125 83.53125 C 57.195312 85.601562 55.433594 87.152344 53.347656 87.152344 " fill-opacity="1" fill-rule="nonzero"/><path fill="#141619" d="M 17.324219 15.53125 C 15.433594 15.53125 13.832031 16.945312 13.597656 18.824219 L 5.765625 82.554688 C 5.632812 83.625 5.96875 84.699219 6.679688 85.507812 C 7.394531 86.3125 8.417969 86.777344 9.496094 86.777344 L 53.347656 86.777344 C 55.242188 86.777344 56.84375 85.363281 57.078125 83.484375 L 64.910156 19.753906 C 65.039062 18.683594 64.707031 17.605469 63.996094 16.800781 C 63.28125 15.992188 62.253906 15.53125 61.179688 15.53125 Z M 53.347656 87.53125 L 9.496094 87.53125 C 8.203125 87.53125 6.972656 86.976562 6.113281 86.007812 C 5.257812 85.035156 4.859375 83.746094 5.019531 82.464844 L 12.847656 18.734375 C 13.128906 16.476562 15.054688 14.777344 17.324219 14.777344 L 61.179688 14.777344 C 62.472656 14.777344 63.703125 15.332031 64.558594 16.300781 C 65.417969 17.269531 65.816406 18.5625 65.65625 19.847656 L 57.828125 83.574219 C 57.546875 85.832031 55.621094 87.53125 53.347656 87.53125 " fill-opacity="1" fill-rule="nonzero"/><path fill="#b3b4bd" d="M 49.203125 58.339844 C 49.3125 57.507812 48.664062 56.773438 47.824219 56.773438 L 18.933594 56.773438 C 18.234375 56.773438 17.644531 57.292969 17.554688 57.988281 C 17.449219 58.820312 18.097656 59.554688 18.933594 59.554688 L 47.824219 59.554688 C 48.523438 59.554688 49.117188 59.035156 49.203125 58.339844 " fill-opacity="1" fill-rule="nonzero"/><path fill="#b3b4bd" d="M 35.835938 65.351562 C 35.941406 64.519531 35.296875 63.785156 34.457031 63.785156 L 18.039062 63.785156 C 17.339844 63.785156 16.75 64.304688 16.660156 65 C 16.554688 65.832031 17.203125 66.566406 18.039062 66.566406 L 34.457031 66.566406 C 35.15625 66.566406 35.746094 66.046875 35.835938 65.351562 " fill-opacity="1" fill-rule="nonzero"/><path fill="#b3b4bd" d="M 39.078125 72.363281 C 39.183594 71.53125 38.535156 70.796875 37.699219 70.796875 L 17.144531 70.796875 C 16.445312 70.796875 15.855469 71.316406 15.765625 72.011719 C 15.660156 72.839844 16.308594 73.578125 17.144531 73.578125 L 37.699219 73.578125 C 38.398438 73.578125 38.988281 73.058594 39.078125 72.363281 " fill-opacity="1" fill-rule="nonzero"/><path fill="#f4f5f8" d="M 47.726562 48.367188 L 23.285156 48.367188 C 21.273438 48.367188 19.714844 46.597656 19.972656 44.601562 L 22.148438 27.710938 C 22.363281 26.042969 23.78125 24.796875 25.460938 24.796875 L 49.902344 24.796875 C 51.917969 24.796875 53.472656 26.566406 53.214844 28.5625 L 51.042969 45.453125 C 50.828125 47.121094 49.40625 48.367188 47.726562 48.367188 " fill-opacity="1" fill-rule="nonzero"/><path fill="#0a21c0" d="M 20.121094 45.183594 L 20.507812 41.847656 C 20.550781 41.464844 20.722656 41.113281 20.992188 40.84375 L 29.980469 31.910156 C 30.640625 31.253906 31.707031 31.257812 32.363281 31.914062 L 36.71875 36.261719 C 37.351562 36.894531 38.367188 36.921875 39.03125 36.324219 L 39.351562 36.042969 C 40.039062 35.425781 41.097656 35.480469 41.71875 36.164062 L 50.402344 45.667969 C 50.714844 46.011719 50.875 46.46875 50.839844 46.933594 C 50.773438 47.820312 48.257812 48.5 47.371094 48.496094 L 22.828125 48.253906 C 21.195312 48.238281 19.933594 46.808594 20.121094 45.183594 " fill-opacity="1" fill-rule="nonzero"/><path fill="#e5e7fd" d="M 49.21875 31.449219 C 49.21875 32.863281 48.074219 34.003906 46.664062 34.003906 C 45.253906 34.003906 44.109375 32.863281 44.109375 31.449219 C 44.109375 30.039062 45.253906 28.894531 46.664062 28.894531 C 48.074219 28.894531 49.21875 30.039062 49.21875 31.449219 " fill-opacity="1" fill-rule="nonzero"/><path fill="#141619" d="M 25.285156 25.171875 C 23.898438 25.171875 22.71875 26.207031 22.542969 27.582031 L 20.316406 44.875 C 20.214844 45.664062 20.457031 46.457031 20.984375 47.054688 C 21.507812 47.648438 22.265625 47.992188 23.058594 47.992188 L 47.902344 47.992188 C 49.289062 47.992188 50.46875 46.953125 50.644531 45.582031 L 52.871094 28.289062 C 52.972656 27.5 52.730469 26.707031 52.207031 26.109375 C 51.679688 25.515625 50.925781 25.171875 50.128906 25.171875 Z M 47.902344 48.746094 L 23.058594 48.746094 C 22.046875 48.746094 21.085938 48.3125 20.417969 47.550781 C 19.75 46.792969 19.441406 45.78125 19.570312 44.777344 L 21.796875 27.488281 C 22.019531 25.738281 23.523438 24.417969 25.285156 24.417969 L 50.128906 24.417969 C 51.140625 24.417969 52.105469 24.855469 52.773438 25.613281 C 53.441406 26.371094 53.75 27.382812 53.621094 28.386719 L 51.394531 45.675781 C 51.167969 47.425781 49.667969 48.746094 47.902344 48.746094 " fill-opacity="1" fill-rule="nonzero"/><path fill="#f4f5f8" d="M 11.246094 117.523438 C 11.308594 117.054688 11.703125 116.707031 12.171875 116.707031 L 94.175781 116.707031 C 95.101562 116.707031 95.8125 117.519531 95.695312 118.4375 L 89.1875 167.203125 C 89.128906 167.667969 88.734375 168.019531 88.261719 168.019531 L 5.472656 168.019531 C 4.960938 168.019531 4.566406 167.570312 4.636719 167.0625 L 11.246094 117.523438 " fill-opacity="1" fill-rule="nonzero"/><path fill="#b3b4bd" d="M 82.066406 133.363281 L 21.199219 133.363281 C 20.316406 133.363281 19.636719 132.585938 19.753906 131.714844 L 21.675781 116.859375 L 85.484375 116.859375 L 83.511719 132.097656 C 83.414062 132.820312 82.796875 133.363281 82.066406 133.363281 " fill-opacity="1" fill-rule="nonzero"/><path fill="#0a21c0" d="M 94.175781 116.707031 C 95.101562 116.707031 95.8125 117.519531 95.695312 118.4375 L 94.988281 122.53125 L 10.457031 122.519531 L 11.246094 117.523438 C 11.308594 117.054688 11.703125 116.707031 12.171875 116.707031 L 94.175781 116.707031 " fill-opacity="1" fill-rule="nonzero"/><path fill="#e5e7fd" d="M 32.140625 138.253906 L 24.746094 138.253906 C 24.023438 138.253906 23.464844 137.617188 23.558594 136.898438 L 24.542969 129.484375 C 24.621094 128.886719 25.128906 128.441406 25.726562 128.441406 L 33.125 128.441406 C 33.847656 128.441406 34.40625 129.078125 34.308594 129.796875 L 33.328125 137.214844 C 33.25 137.808594 32.742188 138.253906 32.140625 138.253906 " fill-opacity="1" fill-rule="nonzero"/><path fill="#b3b4bd" d="M 48.644531 149.328125 C 48.71875 148.746094 48.265625 148.230469 47.679688 148.230469 L 17.367188 148.230469 C 16.875 148.230469 16.460938 148.59375 16.398438 149.082031 C 16.324219 149.664062 16.777344 150.179688 17.367188 150.179688 L 47.679688 150.179688 C 48.171875 150.179688 48.585938 149.816406 48.644531 149.328125 " fill-opacity="1" fill-rule="nonzero"/><path fill="#b3b4bd" d="M 52.851562 119.878906 C 52.929688 119.292969 52.472656 118.78125 51.886719 118.78125 L 21.574219 118.78125 C 21.082031 118.78125 20.667969 119.144531 20.605469 119.628906 C 20.53125 120.210938 20.984375 120.730469 21.574219 120.730469 L 51.886719 120.730469 C 52.378906 120.730469 52.792969 120.363281 52.851562 119.878906 " fill-opacity="1" fill-rule="nonzero"/><path fill="#b3b4bd" d="M 83.824219 119.878906 C 83.898438 119.292969 83.445312 118.78125 82.859375 118.78125 L 80.089844 118.78125 C 79.601562 118.78125 79.1875 119.144531 79.125 119.628906 C 79.050781 120.210938 79.503906 120.730469 80.089844 120.730469 L 82.859375 120.730469 C 83.351562 120.730469 83.761719 120.363281 83.824219 119.878906 " fill-opacity="1" fill-rule="nonzero"/><path fill="#b3b4bd" d="M 47.253906 160.46875 C 47.328125 159.886719 46.875 159.371094 46.285156 159.371094 L 15.972656 159.371094 C 15.480469 159.371094 15.066406 159.738281 15.007812 160.222656 C 14.933594 160.804688 15.386719 161.320312 15.972656 161.320312 L 46.285156 161.320312 C 46.777344 161.320312 47.191406 160.957031 47.253906 160.46875 " fill-opacity="1" fill-rule="nonzero"/><path fill="#b3b4bd" d="M 54.621094 153.800781 L 16.667969 153.800781 C 16.179688 153.800781 15.765625 154.164062 15.703125 154.652344 C 15.628906 155.234375 16.082031 155.75 16.667969 155.75 L 54.621094 155.75 C 55.109375 155.75 55.523438 155.386719 55.585938 154.90625 C 55.664062 154.320312 55.210938 153.800781 54.621094 153.800781 " fill-opacity="1" fill-rule="nonzero"/><path fill="#b3b4bd" d="M 56.097656 142.660156 L 18.0625 142.660156 C 17.570312 142.660156 17.15625 143.023438 17.09375 143.511719 C 17.019531 144.09375 17.476562 144.609375 18.0625 144.609375 L 56.097656 144.609375 C 56.585938 144.609375 57 144.246094 57.066406 143.761719 C 57.140625 143.179688 56.6875 142.660156 56.097656 142.660156 " fill-opacity="1" fill-rule="nonzero"/><path fill="#141619" d="M 77.644531 168.394531 L 5.472656 168.394531 C 5.121094 168.394531 4.785156 168.242188 4.554688 167.976562 C 4.320312 167.710938 4.214844 167.359375 4.261719 167.011719 L 10.875 117.472656 C 10.957031 116.820312 11.515625 116.328125 12.171875 116.328125 L 67.597656 116.328125 C 67.804688 116.328125 67.972656 116.496094 67.972656 116.707031 C 67.972656 116.914062 67.804688 117.082031 67.597656 117.082031 L 12.171875 117.082031 C 11.894531 117.082031 11.65625 117.292969 11.621094 117.570312 L 5.007812 167.113281 C 4.988281 167.246094 5.03125 167.378906 5.121094 167.480469 C 5.210938 167.585938 5.335938 167.640625 5.472656 167.640625 L 77.644531 167.640625 C 77.851562 167.640625 78.019531 167.808594 78.019531 168.019531 C 78.019531 168.226562 77.851562 168.394531 77.644531 168.394531 " fill-opacity="1" fill-rule="nonzero"/><path fill="#141619" d="M 64.707031 159.238281 L 64.136719 159.238281 C 63.757812 159.238281 63.398438 159.074219 63.152344 158.789062 C 62.902344 158.503906 62.789062 158.125 62.84375 157.75 L 65.171875 140.835938 C 65.261719 140.191406 65.816406 139.707031 66.46875 139.707031 L 79.480469 139.707031 C 79.859375 139.707031 80.21875 139.871094 80.46875 140.15625 C 80.714844 140.4375 80.828125 140.816406 80.777344 141.191406 L 80.726562 141.570312 C 80.695312 141.777344 80.503906 141.917969 80.300781 141.890625 C 80.09375 141.863281 79.949219 141.671875 79.976562 141.46875 L 80.03125 141.089844 C 80.050781 140.929688 80.007812 140.773438 79.898438 140.648438 C 79.792969 140.527344 79.644531 140.460938 79.480469 140.460938 L 66.46875 140.460938 C 66.191406 140.460938 65.957031 140.664062 65.917969 140.9375 L 63.589844 157.855469 C 63.566406 158.015625 63.613281 158.171875 63.71875 158.292969 C 63.828125 158.417969 63.972656 158.484375 64.136719 158.484375 L 64.707031 158.484375 C 64.914062 158.484375 65.085938 158.652344 65.085938 158.859375 C 65.085938 159.070312 64.914062 159.238281 64.707031 159.238281 " fill-opacity="1" fill-rule="nonzero"/><path fill="#b3b4bd" d="M 79.429688 161.226562 L 66.300781 161.226562 C 65.769531 161.226562 65.363281 160.761719 65.433594 160.238281 L 67.78125 143.203125 C 67.839844 142.773438 68.210938 142.449219 68.644531 142.449219 L 81.777344 142.449219 C 82.304688 142.449219 82.714844 142.917969 82.640625 143.441406 L 80.292969 160.472656 C 80.234375 160.90625 79.867188 161.226562 79.429688 161.226562 " fill-opacity="1" fill-rule="nonzero"/><path fill="#0a21c0" d="M 176.828125 163.605469 C 176.625 163.605469 176.457031 163.441406 176.449219 163.238281 C 176.445312 163.03125 176.609375 162.855469 176.816406 162.851562 L 194.96875 162.386719 L 205.183594 157.976562 C 205.375 157.894531 205.59375 157.980469 205.675781 158.171875 C 205.761719 158.363281 205.671875 158.585938 205.480469 158.667969 L 195.203125 163.105469 C 195.15625 163.125 195.109375 163.136719 195.0625 163.136719 L 176.835938 163.605469 C 176.832031 163.605469 176.832031 163.605469 176.828125 163.605469 " fill-opacity="1" fill-rule="nonzero"/><path fill="#0a21c0" d="M 177.527344 171.3125 C 177.324219 171.3125 177.152344 171.148438 177.152344 170.941406 C 177.148438 170.734375 177.316406 170.5625 177.523438 170.558594 L 195.515625 170.328125 C 195.730469 170.324219 195.894531 170.492188 195.894531 170.699219 C 195.898438 170.90625 195.734375 171.078125 195.523438 171.082031 L 177.535156 171.3125 C 177.53125 171.3125 177.53125 171.3125 177.527344 171.3125 " fill-opacity="1" fill-rule="nonzero"/><path fill="#0a21c0" d="M 198.558594 185.566406 C 198.476562 185.566406 198.402344 185.542969 198.339844 185.496094 L 191.898438 180.894531 L 178.003906 181.125 C 177.792969 181.132812 177.625 180.964844 177.617188 180.757812 C 177.617188 180.546875 177.78125 180.375 177.988281 180.371094 L 192.011719 180.140625 C 192.09375 180.140625 192.167969 180.164062 192.234375 180.210938 L 198.671875 184.808594 L 207.894531 184.578125 C 208.105469 184.582031 208.273438 184.738281 208.28125 184.945312 C 208.285156 185.15625 208.121094 185.328125 207.910156 185.332031 L 198.566406 185.566406 C 198.5625 185.566406 198.558594 185.566406 198.558594 185.566406 " fill-opacity="1" fill-rule="nonzero"/><path fill="#0a21c0" d="M 186.875 193.511719 C 186.871094 193.511719 186.867188 193.511719 186.863281 193.507812 L 177.984375 193.277344 C 177.777344 193.269531 177.613281 193.097656 177.621094 192.890625 C 177.625 192.683594 177.800781 192.511719 178.003906 192.523438 L 186.828125 192.757812 L 195.65625 190.433594 C 195.691406 190.421875 195.726562 190.417969 195.761719 190.421875 L 203.707031 190.652344 C 203.914062 190.660156 204.078125 190.832031 204.074219 191.042969 C 204.066406 191.25 203.890625 191.425781 203.683594 191.40625 L 195.796875 191.175781 L 186.96875 193.5 C 186.9375 193.507812 186.90625 193.511719 186.875 193.511719 " fill-opacity="1" fill-rule="nonzero"/><path fill="#0a21c0" d="M 122.625 167.109375 C 122.507812 167.109375 122.394531 167.054688 122.320312 166.957031 C 122.195312 166.789062 122.234375 166.550781 122.402344 166.429688 L 130.34375 160.585938 C 130.414062 160.535156 130.5 160.511719 130.589844 160.515625 L 143.4375 161.214844 C 143.644531 161.226562 143.804688 161.40625 143.792969 161.613281 C 143.785156 161.820312 143.605469 161.976562 143.398438 161.96875 L 130.683594 161.273438 L 122.847656 167.035156 C 122.777344 167.085938 122.703125 167.109375 122.625 167.109375 " fill-opacity="1" fill-rule="nonzero"/><path fill="#0a21c0" d="M 129.632812 169.210938 C 129.429688 169.210938 129.265625 169.050781 129.257812 168.847656 C 129.25 168.640625 129.410156 168.464844 129.621094 168.457031 L 142.46875 167.992188 C 142.671875 167.976562 142.851562 168.144531 142.859375 168.355469 C 142.867188 168.5625 142.703125 168.738281 142.496094 168.742188 L 129.648438 169.210938 C 129.644531 169.210938 129.636719 169.210938 129.632812 169.210938 " fill-opacity="1" fill-rule="nonzero"/><path fill="#0a21c0" d="M 141.78125 176.6875 C 141.78125 176.6875 141.777344 176.6875 141.777344 176.6875 L 126.589844 176.453125 C 126.382812 176.453125 126.214844 176.28125 126.21875 176.070312 C 126.222656 175.863281 126.382812 175.691406 126.601562 175.703125 L 141.789062 175.933594 C 141.996094 175.9375 142.164062 176.109375 142.160156 176.316406 C 142.15625 176.523438 141.988281 176.6875 141.78125 176.6875 " fill-opacity="1" fill-rule="nonzero"/><path fill="#0a21c0" d="M 122.15625 190.003906 C 121.957031 190.003906 121.789062 189.851562 121.78125 189.648438 C 121.769531 189.441406 121.929688 189.261719 122.136719 189.253906 L 126.464844 189.023438 L 130.8125 185.820312 C 130.882812 185.769531 130.96875 185.742188 131.058594 185.75 L 142.039062 186.449219 C 142.246094 186.460938 142.40625 186.640625 142.390625 186.847656 C 142.378906 187.058594 142.203125 187.210938 141.992188 187.199219 L 131.148438 186.507812 L 126.820312 189.699219 C 126.757812 189.742188 126.691406 189.765625 126.613281 189.769531 L 122.175781 190.003906 C 122.167969 190.003906 122.164062 190.003906 122.15625 190.003906 " fill-opacity="1" fill-rule="nonzero"/><path fill="#0a21c0" d="M 142.949219 195.378906 C 142.949219 195.378906 142.945312 195.378906 142.941406 195.378906 L 131.492188 195.144531 C 131.285156 195.140625 131.121094 194.96875 131.125 194.761719 C 131.128906 194.554688 131.296875 194.390625 131.503906 194.390625 C 131.503906 194.390625 131.507812 194.390625 131.511719 194.390625 L 142.957031 194.625 C 143.167969 194.628906 143.332031 194.800781 143.328125 195.011719 C 143.324219 195.214844 143.15625 195.378906 142.949219 195.378906 " fill-opacity="1" fill-rule="nonzero"/><path fill="#0a21c0" d="M 207.199219 156.59375 C 206.378906 156.59375 205.710938 157.265625 205.710938 158.085938 C 205.710938 158.910156 206.378906 159.582031 207.199219 159.582031 C 208.023438 159.582031 208.695312 158.910156 208.695312 158.085938 C 208.695312 157.265625 208.023438 156.59375 207.199219 156.59375 Z M 207.199219 160.332031 C 205.960938 160.332031 204.957031 159.324219 204.957031 158.085938 C 204.957031 156.847656 205.960938 155.839844 207.199219 155.839844 C 208.441406 155.839844 209.449219 156.847656 209.449219 158.085938 C 209.449219 159.324219 208.441406 160.332031 207.199219 160.332031 " fill-opacity="1" fill-rule="nonzero"/><path fill="#0a21c0" d="M 204.710938 175.449219 C 203.890625 175.449219 203.21875 176.121094 203.21875 176.941406 C 203.21875 177.765625 203.890625 178.4375 204.710938 178.4375 C 205.535156 178.4375 206.207031 177.765625 206.207031 176.941406 C 206.207031 176.121094 205.535156 175.449219 204.710938 175.449219 Z M 204.710938 179.191406 C 203.476562 179.191406 202.46875 178.183594 202.46875 176.941406 C 202.46875 175.703125 203.476562 174.699219 204.710938 174.699219 C 205.953125 174.699219 206.957031 175.703125 206.957031 176.941406 C 206.957031 178.183594 205.953125 179.191406 204.710938 179.191406 " fill-opacity="1" fill-rule="nonzero"/><path fill="#0a21c0" d="M 197.390625 168.976562 C 196.566406 168.976562 195.898438 169.648438 195.898438 170.46875 C 195.898438 171.292969 196.566406 171.960938 197.390625 171.960938 C 198.210938 171.960938 198.882812 171.292969 198.882812 170.46875 C 198.882812 169.648438 198.210938 168.976562 197.390625 168.976562 Z M 197.390625 172.714844 C 196.148438 172.714844 195.140625 171.707031 195.140625 170.46875 C 195.140625 169.230469 196.148438 168.226562 197.390625 168.226562 C 198.625 168.226562 199.632812 169.230469 199.632812 170.46875 C 199.632812 171.707031 198.625 172.714844 197.390625 172.714844 " fill-opacity="1" fill-rule="nonzero"/><path fill="#0a21c0" d="M 209.539062 183.464844 C 208.714844 183.464844 208.046875 184.132812 208.046875 184.957031 C 208.046875 185.78125 208.714844 186.449219 209.539062 186.449219 C 210.359375 186.449219 211.03125 185.78125 211.03125 184.957031 C 211.03125 184.132812 210.359375 183.464844 209.539062 183.464844 Z M 209.539062 187.203125 C 208.300781 187.203125 207.292969 186.195312 207.292969 184.957031 C 207.292969 183.71875 208.300781 182.710938 209.539062 182.710938 C 210.777344 182.710938 211.78125 183.71875 211.78125 184.957031 C 211.78125 186.195312 210.777344 187.203125 209.539062 187.203125 " fill-opacity="1" fill-rule="nonzero"/><path fill="#0a21c0" d="M 205.332031 189.304688 C 204.507812 189.304688 203.839844 189.972656 203.839844 190.796875 C 203.839844 191.621094 204.507812 192.289062 205.332031 192.289062 C 206.15625 192.289062 206.824219 191.621094 206.824219 190.796875 C 206.824219 189.972656 206.15625 189.304688 205.332031 189.304688 Z M 205.332031 193.042969 C 204.09375 193.042969 203.085938 192.035156 203.085938 190.796875 C 203.085938 189.558594 204.09375 188.550781 205.332031 188.550781 C 206.570312 188.550781 207.578125 189.558594 207.578125 190.796875 C 207.578125 192.035156 206.570312 193.042969 205.332031 193.042969 " fill-opacity="1" fill-rule="nonzero"/><path fill="#0a21c0" d="M 129.632812 193.277344 C 128.808594 193.277344 128.140625 193.945312 128.140625 194.769531 C 128.140625 195.59375 128.808594 196.261719 129.632812 196.261719 C 130.457031 196.261719 131.125 195.59375 131.125 194.769531 C 131.125 193.945312 130.457031 193.277344 129.632812 193.277344 Z M 129.632812 197.015625 C 128.394531 197.015625 127.386719 196.007812 127.386719 194.769531 C 127.386719 193.53125 128.394531 192.523438 129.632812 192.523438 C 130.871094 192.523438 131.878906 193.53125 131.878906 194.769531 C 131.878906 196.007812 130.871094 197.015625 129.632812 197.015625 " fill-opacity="1" fill-rule="nonzero"/><path fill="#0a21c0" d="M 124.726562 174.351562 C 123.902344 174.351562 123.234375 175.019531 123.234375 175.84375 C 123.234375 176.667969 123.902344 177.335938 124.726562 177.335938 C 125.550781 177.335938 126.21875 176.667969 126.21875 175.84375 C 126.21875 175.019531 125.550781 174.351562 124.726562 174.351562 Z M 124.726562 178.089844 C 123.488281 178.089844 122.480469 177.082031 122.480469 175.84375 C 122.480469 174.605469 123.488281 173.597656 124.726562 173.597656 C 125.964844 173.597656 126.972656 174.605469 126.972656 175.84375 C 126.972656 177.082031 125.964844 178.089844 124.726562 178.089844 " fill-opacity="1" fill-rule="nonzero"/><path fill="#0a21c0" d="M 127.761719 167.578125 C 126.941406 167.578125 126.269531 168.246094 126.269531 169.070312 C 126.269531 169.890625 126.941406 170.558594 127.761719 170.558594 C 128.585938 170.558594 129.257812 169.890625 129.257812 169.070312 C 129.257812 168.246094 128.585938 167.578125 127.761719 167.578125 Z M 127.761719 171.3125 C 126.527344 171.3125 125.519531 170.304688 125.519531 169.070312 C 125.519531 167.832031 126.527344 166.824219 127.761719 166.824219 C 129.003906 166.824219 130.011719 167.832031 130.011719 169.070312 C 130.011719 170.304688 129.003906 171.3125 127.761719 171.3125 " fill-opacity="1" fill-rule="nonzero"/><path fill="#0a21c0" d="M 120.988281 166.40625 C 120.167969 166.40625 119.496094 167.078125 119.496094 167.898438 C 119.496094 168.722656 120.167969 169.394531 120.988281 169.394531 C 121.8125 169.394531 122.480469 168.722656 122.480469 167.898438 C 122.480469 167.078125 121.8125 166.40625 120.988281 166.40625 Z M 120.988281 170.144531 C 119.75 170.144531 118.742188 169.140625 118.742188 167.898438 C 118.742188 166.660156 119.75 165.652344 120.988281 165.652344 C 122.226562 165.652344 123.234375 166.660156 123.234375 167.898438 C 123.234375 169.140625 122.226562 170.144531 120.988281 170.144531 " fill-opacity="1" fill-rule="nonzero"/><path fill="#0a21c0" d="M 120.289062 187.902344 C 119.464844 187.902344 118.792969 188.570312 118.792969 189.394531 C 118.792969 190.21875 119.464844 190.886719 120.289062 190.886719 C 121.109375 190.886719 121.78125 190.21875 121.78125 189.394531 C 121.78125 188.570312 121.109375 187.902344 120.289062 187.902344 Z M 120.289062 191.640625 C 119.046875 191.640625 118.039062 190.632812 118.039062 189.394531 C 118.039062 188.15625 119.046875 187.148438 120.289062 187.148438 C 121.527344 187.148438 122.535156 188.15625 122.535156 189.394531 C 122.535156 190.632812 121.527344 191.640625 120.289062 191.640625 " fill-opacity="1" fill-rule="nonzero"/><path fill="#0a21c0" d="M 203.316406 177.570312 C 203.316406 177.570312 203.3125 177.570312 203.308594 177.570312 L 179.449219 177.070312 C 179.238281 177.066406 179.074219 176.894531 179.078125 176.683594 C 179.082031 176.476562 179.257812 176.320312 179.464844 176.316406 L 203.324219 176.816406 C 203.535156 176.820312 203.699219 176.996094 203.695312 177.203125 C 203.691406 177.40625 203.523438 177.570312 203.316406 177.570312 " fill-opacity="1" fill-rule="nonzero"/><path fill="#0a21c0" d="M 178.148438 198 L 145.671875 198 C 142.898438 198 140.648438 195.75 140.648438 192.976562 L 140.648438 161.25 C 140.648438 158.476562 142.898438 156.230469 145.671875 156.230469 L 178.148438 156.230469 C 180.921875 156.230469 183.171875 158.476562 183.171875 161.25 L 183.171875 192.976562 C 183.171875 195.75 180.921875 198 178.148438 198 " fill-opacity="1" fill-rule="nonzero"/><path fill="#141619" d="M 145.671875 156.605469 C 143.109375 156.605469 141.027344 158.691406 141.027344 161.25 L 141.027344 192.976562 C 141.027344 195.539062 143.109375 197.625 145.671875 197.625 L 178.148438 197.625 C 180.710938 197.625 182.796875 195.539062 182.796875 192.976562 L 182.796875 161.25 C 182.796875 158.691406 180.710938 156.605469 178.148438 156.605469 Z M 178.148438 198.378906 L 145.671875 198.378906 C 142.695312 198.378906 140.273438 195.953125 140.273438 192.976562 L 140.273438 161.25 C 140.273438 158.273438 142.695312 155.851562 145.671875 155.851562 L 178.148438 155.851562 C 181.128906 155.851562 183.550781 158.273438 183.550781 161.25 L 183.550781 192.976562 C 183.550781 195.953125 181.128906 198.378906 178.148438 198.378906 " fill-opacity="1" fill-rule="nonzero"/><path fill="#e5e7fd" d="M 173.15625 193.378906 L 150.296875 193.378906 C 147.519531 193.378906 145.273438 191.128906 145.273438 188.355469 L 145.273438 166.519531 C 145.273438 163.746094 147.519531 161.496094 150.296875 161.496094 L 173.15625 161.496094 C 175.933594 161.496094 178.179688 163.746094 178.179688 166.519531 L 178.179688 188.355469 C 178.179688 191.128906 175.933594 193.378906 173.15625 193.378906 " fill-opacity="1" fill-rule="nonzero"/><path fill="#141619" d="M 150.292969 161.875 C 147.734375 161.875 145.648438 163.960938 145.648438 166.519531 L 145.648438 188.355469 C 145.648438 190.917969 147.734375 193.003906 150.292969 193.003906 L 173.15625 193.003906 C 175.71875 193.003906 177.804688 190.917969 177.804688 188.355469 L 177.804688 166.519531 C 177.804688 163.960938 175.71875 161.875 173.15625 161.875 Z M 173.15625 193.757812 L 150.292969 193.757812 C 147.316406 193.757812 144.894531 191.335938 144.894531 188.355469 L 144.894531 166.519531 C 144.894531 163.542969 147.316406 161.121094 150.292969 161.121094 L 173.15625 161.121094 C 176.132812 161.121094 178.558594 163.542969 178.558594 166.519531 L 178.558594 188.355469 C 178.558594 191.335938 176.132812 193.757812 173.15625 193.757812 " fill-opacity="1" fill-rule="nonzero"/><path fill="#f4f5f8" d="M 155.195312 179.785156 L 159.144531 179.785156 L 157.164062 173.417969 Z M 160.203125 183.203125 L 154.136719 183.203125 L 153.078125 186.636719 L 148.347656 186.636719 L 155.082031 168.269531 L 159.246094 168.269531 L 166.03125 186.636719 L 161.273438 186.636719 L 160.203125 183.203125 " fill-opacity="1" fill-rule="nonzero"/><path fill="#f4f5f8" d="M 172.082031 186.636719 L 167.667969 186.636719 L 167.667969 168.269531 L 172.082031 168.269531 L 172.082031 186.636719 " fill-opacity="1" fill-rule="nonzero"/><path fill="#0a21c0" d="M 140.925781 139.113281 C 138.679688 139.726562 136.363281 138.40625 135.75 136.160156 C 135.132812 133.910156 136.457031 131.59375 138.699219 130.976562 C 140.945312 130.363281 143.261719 131.683594 143.878906 133.933594 C 144.492188 136.175781 143.167969 138.496094 140.925781 139.113281 Z M 148.195312 133.597656 L 147.765625 132.015625 L 145.976562 132.097656 C 145.8125 131.75 145.621094 131.421875 145.402344 131.113281 L 146.347656 129.597656 L 145.1875 128.445312 L 143.679688 129.410156 C 143.367188 129.195312 143.035156 129.003906 142.691406 128.84375 L 142.75 127.054688 L 141.167969 126.640625 L 140.347656 128.226562 C 139.96875 128.195312 139.589844 128.199219 139.207031 128.234375 L 138.367188 126.65625 L 136.785156 127.089844 L 136.867188 128.875 C 136.519531 129.042969 136.191406 129.234375 135.882812 129.449219 L 134.367188 128.503906 L 133.214844 129.667969 L 134.179688 131.175781 C 133.964844 131.488281 133.777344 131.820312 133.617188 132.164062 L 131.828125 132.105469 L 131.414062 133.6875 L 133 134.511719 C 132.96875 134.886719 132.972656 135.269531 133.007812 135.652344 L 131.429688 136.492188 L 131.859375 138.074219 L 133.648438 137.992188 C 133.8125 138.339844 134.003906 138.671875 134.21875 138.976562 L 133.277344 140.492188 L 134.4375 141.644531 L 135.945312 140.683594 C 136.261719 140.898438 136.589844 141.085938 136.9375 141.246094 L 136.875 143.035156 L 138.457031 143.449219 L 139.277344 141.863281 C 139.65625 141.894531 140.035156 141.890625 140.417969 141.855469 L 141.261719 143.433594 L 142.839844 143.003906 L 142.757812 141.214844 C 143.105469 141.050781 143.433594 140.859375 143.742188 140.640625 L 145.257812 141.585938 L 146.410156 140.421875 L 145.445312 138.914062 C 145.660156 138.601562 145.847656 138.269531 146.011719 137.925781 L 147.796875 137.984375 L 148.210938 136.402344 L 146.625 135.578125 C 146.65625 135.203125 146.652344 134.820312 146.617188 134.4375 L 148.195312 133.597656 " fill-opacity="1" fill-rule="nonzero"/><path fill="#f4f5f8" d="M 131.726562 68.683594 C 131.726562 74.648438 126.894531 79.488281 120.925781 79.488281 C 114.960938 79.488281 110.128906 74.648438 110.128906 68.683594 C 110.128906 62.71875 114.960938 57.882812 120.925781 57.882812 C 126.894531 57.882812 131.726562 62.71875 131.726562 68.683594 " fill-opacity="1" fill-rule="nonzero"/><path fill="#f4f5f8" d="M 117.664062 18.574219 C 89.617188 18.574219 66.800781 41.390625 66.800781 69.4375 C 66.800781 97.484375 89.617188 120.300781 117.664062 120.300781 C 145.710938 120.300781 168.527344 97.484375 168.527344 69.4375 C 168.527344 41.390625 145.710938 18.574219 117.664062 18.574219 Z M 117.664062 121.054688 C 89.203125 121.054688 66.046875 97.898438 66.046875 69.4375 C 66.046875 40.976562 89.203125 17.820312 117.664062 17.820312 C 146.125 17.820312 169.28125 40.976562 169.28125 69.4375 C 169.28125 97.898438 146.125 121.054688 117.664062 121.054688 " fill-opacity="1" fill-rule="nonzero"/><path fill="#f4f5f8" d="M 118.417969 33.390625 C 98.128906 33.390625 81.621094 49.898438 81.621094 70.1875 C 81.621094 90.476562 98.128906 106.984375 118.417969 106.984375 C 138.710938 106.984375 155.21875 90.476562 155.21875 70.1875 C 155.21875 49.898438 138.710938 33.390625 118.417969 33.390625 Z M 118.417969 107.738281 C 97.714844 107.738281 80.867188 90.894531 80.867188 70.1875 C 80.867188 49.480469 97.714844 32.636719 118.417969 32.636719 C 139.125 32.636719 155.972656 49.480469 155.972656 70.1875 C 155.972656 90.894531 139.125 107.738281 118.417969 107.738281 " fill-opacity="1" fill-rule="nonzero"/><path fill="#f4f5f8" d="M 120.554688 50.21875 C 110.304688 50.21875 101.96875 58.558594 101.96875 68.804688 C 101.96875 79.054688 110.304688 87.394531 120.554688 87.394531 C 130.804688 87.394531 139.140625 79.054688 139.140625 68.804688 C 139.140625 58.558594 130.804688 50.21875 120.554688 50.21875 Z M 120.554688 88.144531 C 109.890625 88.144531 101.214844 79.46875 101.214844 68.804688 C 101.214844 58.140625 109.890625 49.464844 120.554688 49.464844 C 131.21875 49.464844 139.894531 58.140625 139.894531 68.804688 C 139.894531 79.46875 131.21875 88.144531 120.554688 88.144531 " fill-opacity="1" fill-rule="nonzero"/><path fill="#0a21c0" d="M 160.730469 58.65625 C 156.367188 54.347656 156.304688 47.292969 160.585938 42.90625 C 164.871094 38.515625 171.882812 38.453125 176.246094 42.761719 C 180.613281 47.070312 180.675781 54.125 176.390625 58.511719 C 172.105469 62.902344 165.09375 62.964844 160.730469 58.65625 " fill-opacity="1" fill-rule="nonzero"/><path fill="#f4f5f8" d="M 175.992188 50.113281 L 168.472656 57.820312 C 168.070312 58.226562 167.421875 58.234375 167.015625 57.832031 L 161.722656 52.609375 C 161.316406 52.207031 161.3125 51.550781 161.710938 51.144531 L 169.234375 43.4375 C 169.632812 43.03125 170.28125 43.023438 170.6875 43.421875 L 175.980469 48.648438 C 176.386719 49.046875 176.390625 49.703125 175.992188 50.113281 " fill-opacity="1" fill-rule="nonzero"/><path fill="#141619" d="M 169.964844 43.503906 C 169.964844 43.503906 169.960938 43.503906 169.960938 43.503906 C 169.785156 43.503906 169.621094 43.578125 169.5 43.699219 L 161.980469 51.40625 C 161.726562 51.667969 161.730469 52.085938 161.988281 52.339844 L 167.277344 57.566406 C 167.402344 57.6875 167.5625 57.753906 167.734375 57.753906 C 167.738281 57.753906 167.738281 57.753906 167.742188 57.753906 C 167.914062 57.75 168.078125 57.683594 168.199219 57.554688 L 175.722656 49.851562 C 175.976562 49.589844 175.972656 49.171875 175.714844 48.917969 L 170.421875 43.691406 C 170.300781 43.570312 170.136719 43.503906 169.964844 43.503906 Z M 167.734375 58.507812 C 167.363281 58.507812 167.011719 58.363281 166.75 58.101562 L 161.457031 52.875 C 160.90625 52.332031 160.898438 51.4375 161.441406 50.882812 L 168.960938 43.175781 C 169.226562 42.90625 169.578125 42.753906 169.953125 42.75 C 169.957031 42.75 169.960938 42.75 169.964844 42.75 C 170.339844 42.75 170.6875 42.894531 170.953125 43.15625 L 176.246094 48.378906 C 176.796875 48.925781 176.804688 49.820312 176.261719 50.375 L 168.738281 58.082031 C 168.476562 58.351562 168.125 58.503906 167.75 58.507812 C 167.742188 58.507812 167.742188 58.507812 167.734375 58.507812 " fill-opacity="1" fill-rule="nonzero"/><path fill="#141619" d="M 164.382812 52.316406 C 164.210938 52.316406 164.054688 52.199219 164.015625 52.019531 C 163.972656 51.820312 164.101562 51.617188 164.304688 51.574219 L 169.105469 50.523438 C 169.308594 50.476562 169.511719 50.605469 169.554688 50.808594 C 169.597656 51.011719 169.46875 51.214844 169.265625 51.257812 L 164.464844 52.308594 C 164.4375 52.316406 164.410156 52.316406 164.382812 52.316406 " fill-opacity="1" fill-rule="nonzero"/><path fill="#141619" d="M 169.207031 51.246094 C 169.183594 51.246094 169.15625 51.242188 169.132812 51.238281 C 168.929688 51.199219 168.796875 51 168.835938 50.796875 L 169.792969 45.949219 C 169.832031 45.746094 170.03125 45.609375 170.234375 45.652344 C 170.441406 45.691406 170.570312 45.890625 170.53125 46.09375 L 169.578125 50.941406 C 169.539062 51.121094 169.382812 51.246094 169.207031 51.246094 " fill-opacity="1" fill-rule="nonzero"/><path fill="#f4f5f8" d="M 143.191406 34.480469 C 138.617188 30.457031 138.15625 23.464844 142.160156 18.863281 C 146.164062 14.265625 153.113281 13.800781 157.6875 17.824219 C 162.261719 21.851562 162.722656 28.84375 158.71875 33.441406 C 154.71875 38.042969 147.765625 38.507812 143.191406 34.480469 " fill-opacity="1" fill-rule="nonzero"/><path fill="#141619" d="M 150.453125 15.460938 C 150.214844 15.460938 149.980469 15.46875 149.738281 15.484375 C 146.902344 15.675781 144.3125 16.960938 142.441406 19.109375 C 138.582031 23.546875 139.03125 30.316406 143.441406 34.199219 C 145.574219 36.078125 148.308594 37.007812 151.140625 36.820312 C 153.972656 36.632812 156.566406 35.34375 158.433594 33.195312 C 162.296875 28.757812 161.847656 21.992188 157.4375 18.109375 C 155.484375 16.386719 153.027344 15.460938 150.453125 15.460938 Z M 150.421875 37.597656 C 147.667969 37.597656 145.035156 36.605469 142.941406 34.765625 C 138.222656 30.609375 137.742188 23.363281 141.875 18.617188 C 143.878906 16.316406 146.652344 14.9375 149.6875 14.734375 C 152.722656 14.53125 155.648438 15.527344 157.9375 17.542969 C 162.65625 21.699219 163.136719 28.941406 159.003906 33.691406 C 157 35.992188 154.226562 37.371094 151.191406 37.574219 C 150.933594 37.589844 150.679688 37.597656 150.421875 37.597656 " fill-opacity="1" fill-rule="nonzero"/><path fill="#e5e7fd" d="M 156.746094 26.179688 L 154.445312 25.867188 C 154.140625 25.835938 153.679688 26.039062 153.367188 26.632812 C 153.074219 27.1875 152.597656 28.074219 150.050781 27.308594 C 147.503906 26.550781 147.496094 25.53125 147.644531 24.921875 C 147.667969 24.828125 147.75 24.011719 147.15625 23.6875 L 145.523438 22.90625 C 144.21875 22.335938 143.90625 23.703125 143.886719 23.78125 C 143.347656 25.96875 145.683594 28.421875 149.394531 29.53125 C 153.105469 30.640625 156.398438 29.871094 157.132812 27.742188 C 157.160156 27.667969 157.558594 26.324219 156.746094 26.179688 " fill-opacity="1" fill-rule="nonzero"/><path fill="#141619" d="M 144.9375 23.148438 C 144.847656 23.148438 144.765625 23.164062 144.695312 23.199219 C 144.394531 23.347656 144.277344 23.78125 144.253906 23.867188 C 143.765625 25.851562 146.019531 28.132812 149.503906 29.171875 C 152.984375 30.210938 156.109375 29.542969 156.777344 27.621094 C 156.851562 27.394531 156.941406 26.851562 156.808594 26.632812 C 156.789062 26.59375 156.757812 26.566406 156.6875 26.550781 L 154.394531 26.242188 C 154.25 26.226562 153.933594 26.363281 153.699219 26.808594 C 153.230469 27.699219 152.453125 28.421875 149.941406 27.671875 C 147.835938 27.042969 146.964844 26.113281 147.277344 24.832031 C 147.277344 24.832031 147.351562 24.226562 146.972656 24.019531 L 145.363281 23.246094 C 145.207031 23.179688 145.0625 23.148438 144.9375 23.148438 Z M 152.660156 30.417969 C 151.621094 30.417969 150.476562 30.25 149.289062 29.894531 C 145.351562 28.714844 142.925781 26.109375 143.523438 23.691406 C 143.585938 23.433594 143.789062 22.808594 144.359375 22.527344 C 144.738281 22.335938 145.183594 22.347656 145.675781 22.5625 L 147.316406 23.347656 C 148.121094 23.789062 148.0625 24.789062 148.007812 25.011719 C 147.929688 25.34375 147.710938 26.21875 150.160156 26.949219 C 152.417969 27.628906 152.773438 26.949219 153.03125 26.457031 C 153.445312 25.671875 154.074219 25.449219 154.484375 25.496094 L 156.8125 25.808594 C 157.097656 25.859375 157.320312 26.015625 157.460938 26.253906 C 157.824219 26.871094 157.492188 27.855469 157.488281 27.867188 C 156.921875 29.507812 155.066406 30.417969 152.660156 30.417969 " fill-opacity="1" fill-rule="nonzero"/><path fill="#f4f5f8" d="M 109.628906 28.46875 C 105.054688 24.441406 104.59375 17.449219 108.597656 12.847656 C 112.597656 8.25 119.550781 7.785156 124.125 11.8125 C 128.695312 15.835938 129.160156 22.828125 125.15625 27.429688 C 121.15625 32.027344 114.203125 32.492188 109.628906 28.46875 " fill-opacity="1" fill-rule="nonzero"/><path fill="#0a21c0" d="M 107.117188 24.980469 L 112.886719 19.792969 C 113.363281 19.363281 114.089844 19.375 114.554688 19.816406 L 118.921875 23.972656 L 121.515625 21.777344 C 121.917969 21.4375 122.488281 21.390625 122.941406 21.660156 L 126.960938 24.058594 C 124.449219 31.425781 113.144531 34.273438 107.117188 24.980469 " fill-opacity="1" fill-rule="nonzero"/><path fill="#141619" d="M 116.894531 9.445312 C 116.65625 9.445312 116.414062 9.453125 116.175781 9.46875 C 113.34375 9.65625 110.75 10.945312 108.882812 13.09375 C 105.019531 17.53125 105.46875 24.300781 109.878906 28.183594 C 112.011719 30.0625 114.746094 30.996094 117.578125 30.804688 C 120.414062 30.617188 123.003906 29.328125 124.871094 27.179688 C 128.734375 22.742188 128.289062 15.976562 123.875 12.09375 C 121.921875 10.371094 119.464844 9.445312 116.894531 9.445312 Z M 116.859375 31.582031 C 114.105469 31.582031 111.472656 30.589844 109.378906 28.75 C 104.660156 24.59375 104.179688 17.347656 108.3125 12.601562 C 110.316406 10.300781 113.089844 8.917969 116.125 8.71875 C 119.15625 8.515625 122.085938 9.511719 124.375 11.527344 C 129.09375 15.683594 129.574219 22.925781 125.441406 27.675781 C 123.4375 29.976562 120.664062 31.355469 117.628906 31.558594 C 117.371094 31.574219 117.117188 31.582031 116.859375 31.582031 " fill-opacity="1" fill-rule="nonzero"/><path fill="#e5e7fd" d="M 121.851562 17.359375 C 121.851562 18.328125 121.066406 19.117188 120.09375 19.117188 C 119.121094 19.117188 118.335938 18.328125 118.335938 17.359375 C 118.335938 16.386719 119.121094 15.601562 120.09375 15.601562 C 121.066406 15.601562 121.851562 16.386719 121.851562 17.359375 " fill-opacity="1" fill-rule="nonzero"/><path fill="#f4f5f8" d="M 146.976562 119.9375 C 142.402344 115.910156 141.941406 108.917969 145.945312 104.320312 C 149.949219 99.71875 156.898438 99.253906 161.472656 103.28125 C 166.046875 107.304688 166.507812 114.296875 162.507812 118.898438 C 158.5 123.496094 151.550781 123.960938 146.976562 119.9375 " fill-opacity="1" fill-rule="nonzero"/><path fill="#141619" d="M 154.238281 100.917969 C 154 100.917969 153.761719 100.925781 153.523438 100.941406 C 150.6875 101.128906 148.097656 102.417969 146.226562 104.566406 C 142.367188 109.003906 142.8125 115.769531 147.226562 119.652344 C 149.359375 121.53125 152.09375 122.464844 154.925781 122.277344 C 157.757812 122.085938 160.351562 120.800781 162.21875 118.652344 C 166.082031 114.214844 165.632812 107.445312 161.222656 103.5625 C 159.269531 101.84375 156.8125 100.917969 154.238281 100.917969 Z M 154.207031 123.054688 C 151.453125 123.054688 148.820312 122.0625 146.726562 120.21875 C 142.003906 116.0625 141.527344 108.820312 145.660156 104.070312 C 147.664062 101.769531 150.4375 100.390625 153.472656 100.1875 C 156.503906 99.988281 159.433594 100.984375 161.722656 102.996094 C 166.441406 107.152344 166.921875 114.398438 162.789062 119.144531 C 160.785156 121.449219 158.011719 122.824219 154.976562 123.027344 C 154.71875 123.042969 154.464844 123.054688 154.207031 123.054688 " fill-opacity="1" fill-rule="nonzero"/><path fill="#0a21c0" d="M 160.023438 109.425781 C 160.023438 112.144531 155.691406 118.671875 154.652344 120.199219 C 154.546875 120.355469 154.316406 120.355469 154.210938 120.199219 C 153.464844 119.105469 151.035156 115.449219 149.714844 112.460938 C 149.191406 111.277344 148.84375 110.199219 148.84375 109.425781 C 148.84375 106.339844 151.34375 103.835938 154.429688 103.835938 C 157.519531 103.835938 160.023438 106.339844 160.023438 109.425781 " fill-opacity="1" fill-rule="nonzero"/><path fill="#f4f5f8" d="M 156.988281 109.429688 C 156.988281 110.839844 155.84375 111.984375 154.429688 111.984375 C 153.019531 111.984375 151.875 110.839844 151.875 109.429688 C 151.875 108.015625 153.019531 106.871094 154.429688 106.871094 C 155.84375 106.871094 156.988281 108.015625 156.988281 109.429688 " fill-opacity="1" fill-rule="nonzero"/><path fill="#141619" d="M 154.925781 112.066406 C 154.277344 112.066406 153.652344 111.851562 153.132812 111.449219 C 152.515625 110.96875 152.121094 110.277344 152.023438 109.496094 C 151.996094 109.292969 152.144531 109.101562 152.347656 109.078125 C 152.558594 109.050781 152.742188 109.195312 152.769531 109.402344 C 152.84375 109.980469 153.136719 110.496094 153.597656 110.855469 C 154.054688 111.210938 154.625 111.367188 155.203125 111.292969 C 155.78125 111.222656 156.296875 110.925781 156.652344 110.46875 C 157.011719 110.007812 157.167969 109.4375 157.09375 108.859375 C 157.019531 108.28125 156.726562 107.769531 156.269531 107.410156 C 155.902344 107.125 155.46875 106.96875 155.007812 106.953125 C 154.800781 106.945312 154.636719 106.773438 154.640625 106.566406 C 154.648438 106.355469 154.824219 106.195312 155.03125 106.199219 C 155.648438 106.222656 156.238281 106.433594 156.730469 106.816406 C 157.347656 107.296875 157.742188 107.988281 157.839844 108.765625 C 157.941406 109.542969 157.730469 110.3125 157.25 110.929688 C 156.769531 111.546875 156.078125 111.941406 155.296875 112.042969 C 155.171875 112.058594 155.050781 112.066406 154.925781 112.066406 " fill-opacity="1" fill-rule="nonzero"/><path fill="#f4f5f8" d="M 164.859375 90.886719 C 160.285156 86.859375 159.824219 79.867188 163.828125 75.269531 C 167.828125 70.667969 174.78125 70.203125 179.355469 74.230469 C 183.925781 78.257812 184.390625 85.246094 180.386719 89.847656 C 176.382812 94.445312 169.429688 94.910156 164.859375 90.886719 " fill-opacity="1" fill-rule="nonzero"/><path fill="#141619" d="M 172.121094 71.867188 C 171.882812 71.867188 171.648438 71.875 171.40625 71.890625 C 168.570312 72.078125 165.980469 73.363281 164.109375 75.515625 C 160.25 79.949219 160.699219 86.71875 165.109375 90.601562 C 167.242188 92.480469 169.980469 93.414062 172.808594 93.226562 C 175.640625 93.035156 178.234375 91.75 180.105469 89.601562 C 183.964844 85.164062 183.519531 78.394531 179.105469 74.511719 C 177.152344 72.792969 174.695312 71.867188 172.121094 71.867188 Z M 172.089844 94.003906 C 169.335938 94.003906 166.703125 93.007812 164.609375 91.167969 C 159.890625 87.011719 159.410156 79.765625 163.542969 75.019531 C 165.546875 72.71875 168.320312 71.339844 171.355469 71.136719 C 174.390625 70.9375 177.316406 71.933594 179.605469 73.945312 C 184.324219 78.101562 184.804688 85.34375 180.671875 90.09375 C 178.667969 92.394531 175.894531 93.773438 172.859375 93.976562 C 172.601562 93.992188 172.34375 94.003906 172.089844 94.003906 " fill-opacity="1" fill-rule="nonzero"/><path fill="#e5e7fd" d="M 168.371094 87.96875 L 166 87.96875 L 166 77.578125 L 168.371094 77.578125 L 168.371094 87.96875 " fill-opacity="1" fill-rule="nonzero"/><path fill="#e5e7fd" d="M 171.652344 87.785156 L 169.28125 87.785156 L 169.28125 80.25 L 171.652344 80.25 L 171.652344 87.785156 " fill-opacity="1" fill-rule="nonzero"/><path fill="#e5e7fd" d="M 174.933594 87.605469 L 172.5625 87.605469 L 172.5625 82.5 L 174.933594 82.5 L 174.933594 87.605469 " fill-opacity="1" fill-rule="nonzero"/><path fill="#e5e7fd" d="M 178.398438 87.605469 L 176.027344 87.605469 L 176.027344 77.332031 L 178.398438 77.332031 L 178.398438 87.605469 " fill-opacity="1" fill-rule="nonzero"/><path fill="#f4f5f8" d="M 184.695312 53.953125 C 184.5625 53.953125 184.433594 53.882812 184.363281 53.757812 C 184.269531 53.582031 184.175781 53.417969 184.089844 53.261719 C 183.984375 53.082031 184.042969 52.851562 184.222656 52.746094 C 184.402344 52.644531 184.632812 52.703125 184.738281 52.882812 C 184.832031 53.042969 184.929688 53.214844 185.027344 53.394531 C 185.125 53.578125 185.058594 53.808594 184.875 53.90625 C 184.816406 53.9375 184.753906 53.953125 184.695312 53.953125 Z M 187.070312 59.488281 C 186.910156 59.488281 186.765625 59.390625 186.710938 59.238281 C 186.371094 58.257812 186.011719 57.316406 185.644531 56.445312 C 185.5625 56.253906 185.652344 56.03125 185.84375 55.949219 C 186.035156 55.871094 186.257812 55.960938 186.335938 56.152344 C 186.714844 57.039062 187.078125 57.992188 187.421875 58.988281 C 187.492188 59.1875 187.386719 59.402344 187.191406 59.46875 C 187.148438 59.484375 187.109375 59.488281 187.070312 59.488281 Z M 188.742188 65.277344 C 188.574219 65.277344 188.417969 65.164062 188.378906 64.988281 C 188.144531 64.003906 187.886719 63.03125 187.617188 62.089844 C 187.558594 61.890625 187.675781 61.679688 187.875 61.625 C 188.074219 61.566406 188.28125 61.679688 188.339844 61.882812 C 188.613281 62.832031 188.875 63.820312 189.109375 64.816406 C 189.15625 65.015625 189.035156 65.21875 188.832031 65.269531 C 188.800781 65.273438 188.773438 65.277344 188.742188 65.277344 Z M 189.882812 71.199219 C 189.699219 71.199219 189.539062 71.0625 189.507812 70.875 C 189.359375 69.882812 189.191406 68.886719 189.007812 67.917969 C 188.964844 67.714844 189.101562 67.519531 189.304688 67.480469 C 189.507812 67.4375 189.707031 67.574219 189.746094 67.777344 C 189.933594 68.753906 190.105469 69.757812 190.253906 70.761719 C 190.285156 70.96875 190.144531 71.160156 189.9375 71.191406 C 189.917969 71.195312 189.898438 71.199219 189.882812 71.199219 Z M 190.539062 77.1875 C 190.34375 77.1875 190.175781 77.035156 190.160156 76.839844 C 190.09375 75.839844 190 74.835938 189.894531 73.851562 C 189.871094 73.644531 190.023438 73.457031 190.226562 73.433594 C 190.433594 73.414062 190.621094 73.5625 190.644531 73.769531 C 190.75 74.765625 190.84375 75.777344 190.914062 76.785156 C 190.929688 76.992188 190.773438 77.171875 190.566406 77.1875 C 190.554688 77.1875 190.546875 77.1875 190.539062 77.1875 Z M 190.738281 83.210938 C 190.53125 83.210938 190.363281 83.042969 190.363281 82.835938 L 190.363281 82.578125 C 190.363281 81.664062 190.347656 80.742188 190.316406 79.835938 C 190.3125 79.625 190.472656 79.453125 190.679688 79.445312 C 190.882812 79.429688 191.0625 79.601562 191.070312 79.808594 C 191.101562 80.726562 191.117188 81.65625 191.117188 82.578125 L 191.117188 82.835938 C 191.117188 83.042969 190.949219 83.210938 190.738281 83.210938 Z M 190.507812 89.234375 C 190.5 89.234375 190.488281 89.234375 190.480469 89.234375 C 190.273438 89.21875 190.117188 89.039062 190.132812 88.832031 C 190.203125 87.835938 190.261719 86.828125 190.300781 85.832031 C 190.308594 85.625 190.480469 85.464844 190.691406 85.472656 C 190.898438 85.480469 191.058594 85.65625 191.050781 85.863281 C 191.015625 86.863281 190.957031 87.882812 190.882812 88.886719 C 190.867188 89.082031 190.703125 89.234375 190.507812 89.234375 Z M 189.863281 95.226562 C 189.84375 95.226562 189.824219 95.226562 189.808594 95.222656 C 189.601562 95.195312 189.460938 95.003906 189.488281 94.796875 C 189.628906 93.808594 189.753906 92.808594 189.859375 91.820312 C 189.882812 91.613281 190.070312 91.464844 190.277344 91.484375 C 190.484375 91.507812 190.632812 91.695312 190.609375 91.898438 C 190.503906 92.898438 190.375 93.90625 190.234375 94.902344 C 190.207031 95.09375 190.046875 95.226562 189.863281 95.226562 Z M 188.820312 101.164062 C 188.792969 101.164062 188.765625 101.160156 188.742188 101.15625 C 188.539062 101.113281 188.410156 100.914062 188.449219 100.710938 C 188.519531 100.382812 188.585938 100.054688 188.652344 99.722656 C 188.78125 99.070312 188.902344 98.410156 189.015625 97.761719 C 189.054688 97.558594 189.25 97.421875 189.453125 97.457031 C 189.660156 97.492188 189.796875 97.6875 189.761719 97.890625 C 189.644531 98.546875 189.523438 99.214844 189.390625 99.871094 C 189.324219 100.203125 189.257812 100.535156 189.1875 100.863281 C 189.152344 101.042969 188.992188 101.164062 188.820312 101.164062 Z M 187.335938 107.003906 C 187.300781 107.003906 187.265625 107 187.230469 106.988281 C 187.03125 106.929688 186.914062 106.71875 186.976562 106.519531 C 187.257812 105.574219 187.527344 104.601562 187.773438 103.628906 C 187.824219 103.429688 188.027344 103.308594 188.230469 103.359375 C 188.433594 103.40625 188.554688 103.613281 188.503906 103.816406 C 188.253906 104.796875 187.984375 105.777344 187.699219 106.734375 C 187.648438 106.898438 187.5 107.003906 187.335938 107.003906 Z M 185.355469 112.691406 C 185.308594 112.691406 185.261719 112.683594 185.214844 112.664062 C 185.023438 112.585938 184.929688 112.367188 185.007812 112.175781 C 185.371094 111.257812 185.726562 110.316406 186.054688 109.371094 C 186.125 109.171875 186.335938 109.070312 186.535156 109.136719 C 186.730469 109.207031 186.835938 109.421875 186.765625 109.617188 C 186.433594 110.574219 186.078125 111.527344 185.707031 112.457031 C 185.644531 112.601562 185.503906 112.691406 185.355469 112.691406 Z M 182.847656 118.167969 C 182.789062 118.167969 182.726562 118.15625 182.671875 118.125 C 182.488281 118.027344 182.417969 117.800781 182.511719 117.617188 C 182.96875 116.742188 183.410156 115.835938 183.824219 114.925781 C 183.914062 114.738281 184.136719 114.65625 184.324219 114.742188 C 184.511719 114.828125 184.597656 115.050781 184.511719 115.242188 C 184.089844 116.160156 183.644531 117.078125 183.179688 117.964844 C 183.113281 118.09375 182.984375 118.167969 182.847656 118.167969 Z M 179.796875 123.355469 C 179.726562 123.355469 179.65625 123.335938 179.59375 123.292969 C 179.417969 123.179688 179.371094 122.945312 179.484375 122.769531 C 180.03125 121.945312 180.558594 121.09375 181.0625 120.234375 C 181.171875 120.054688 181.402344 119.996094 181.582031 120.101562 C 181.761719 120.207031 181.820312 120.4375 181.714844 120.617188 C 181.203125 121.484375 180.664062 122.351562 180.113281 123.1875 C 180.042969 123.296875 179.921875 123.355469 179.796875 123.355469 Z M 176.214844 128.191406 C 176.132812 128.191406 176.046875 128.164062 175.976562 128.105469 C 175.816406 127.972656 175.792969 127.734375 175.925781 127.574219 C 176.558594 126.808594 177.179688 126.015625 177.769531 125.21875 C 177.894531 125.050781 178.128906 125.019531 178.300781 125.140625 C 178.464844 125.265625 178.5 125.5 178.378906 125.667969 C 177.777344 126.476562 177.148438 127.28125 176.507812 128.054688 C 176.433594 128.144531 176.324219 128.191406 176.214844 128.191406 Z M 172.125 132.617188 C 172.027344 132.617188 171.929688 132.582031 171.855469 132.503906 C 171.710938 132.355469 171.714844 132.117188 171.863281 131.972656 C 172.578125 131.277344 173.28125 130.554688 173.953125 129.828125 C 174.097656 129.675781 174.335938 129.664062 174.488281 129.804688 C 174.640625 129.949219 174.648438 130.1875 174.507812 130.339844 C 173.824219 131.078125 173.113281 131.808594 172.386719 132.511719 C 172.3125 132.582031 172.21875 132.617188 172.125 132.617188 Z M 167.585938 136.578125 C 167.472656 136.578125 167.363281 136.527344 167.289062 136.433594 C 167.160156 136.269531 167.191406 136.03125 167.351562 135.902344 C 168.136719 135.289062 168.910156 134.648438 169.660156 133.996094 C 169.816406 133.859375 170.054688 133.875 170.191406 134.035156 C 170.328125 134.191406 170.3125 134.429688 170.15625 134.566406 C 169.398438 135.226562 168.613281 135.875 167.816406 136.496094 C 167.75 136.550781 167.667969 136.578125 167.585938 136.578125 Z M 162.664062 140.046875 C 162.539062 140.046875 162.417969 139.984375 162.34375 139.871094 C 162.234375 139.695312 162.285156 139.460938 162.460938 139.351562 C 163.304688 138.816406 164.144531 138.257812 164.953125 137.6875 C 165.121094 137.570312 165.355469 137.609375 165.476562 137.777344 C 165.597656 137.949219 165.554688 138.183594 165.382812 138.304688 C 164.566406 138.878906 163.71875 139.449219 162.867188 139.988281 C 162.800781 140.027344 162.734375 140.046875 162.664062 140.046875 Z M 157.429688 143.023438 C 157.292969 143.023438 157.160156 142.949219 157.09375 142.816406 C 156.996094 142.632812 157.070312 142.40625 157.257812 142.3125 C 158.148438 141.859375 159.039062 141.378906 159.894531 140.890625 C 160.074219 140.789062 160.304688 140.851562 160.40625 141.03125 C 160.511719 141.214844 160.449219 141.445312 160.265625 141.546875 C 159.398438 142.039062 158.5 142.523438 157.597656 142.984375 C 157.542969 143.011719 157.488281 143.023438 157.429688 143.023438 Z M 151.949219 145.527344 C 151.800781 145.527344 151.660156 145.4375 151.601562 145.292969 C 151.523438 145.101562 151.613281 144.878906 151.804688 144.800781 C 152.734375 144.421875 153.660156 144.023438 154.558594 143.613281 C 154.75 143.527344 154.972656 143.609375 155.058594 143.800781 C 155.144531 143.988281 155.0625 144.210938 154.871094 144.300781 C 153.964844 144.714844 153.027344 145.117188 152.089844 145.5 C 152.042969 145.515625 151.996094 145.527344 151.949219 145.527344 Z M 146.285156 147.582031 C 146.128906 147.582031 145.980469 147.480469 145.929688 147.320312 C 145.863281 147.121094 145.972656 146.910156 146.171875 146.847656 C 147.121094 146.542969 148.078125 146.214844 149.011719 145.878906 C 149.203125 145.804688 149.421875 145.910156 149.492188 146.105469 C 149.5625 146.300781 149.460938 146.515625 149.265625 146.585938 C 148.324219 146.925781 147.363281 147.253906 146.402344 147.5625 C 146.363281 147.578125 146.324219 147.582031 146.285156 147.582031 Z M 140.488281 149.226562 C 140.320312 149.226562 140.164062 149.109375 140.125 148.9375 C 140.074219 148.738281 140.199219 148.53125 140.402344 148.484375 C 141.375 148.242188 142.351562 147.980469 143.300781 147.714844 C 143.5 147.65625 143.707031 147.773438 143.765625 147.972656 C 143.820312 148.175781 143.703125 148.382812 143.503906 148.4375 C 142.550781 148.710938 141.566406 148.96875 140.582031 149.214844 C 140.550781 149.222656 140.519531 149.226562 140.488281 149.226562 Z M 134.597656 150.492188 C 134.421875 150.492188 134.261719 150.363281 134.226562 150.183594 C 134.191406 149.980469 134.328125 149.785156 134.53125 149.746094 C 135.519531 149.5625 136.507812 149.367188 137.476562 149.15625 C 137.679688 149.113281 137.878906 149.242188 137.921875 149.445312 C 137.964844 149.652344 137.835938 149.851562 137.632812 149.894531 C 136.660156 150.101562 135.664062 150.300781 134.667969 150.488281 C 134.644531 150.488281 134.621094 150.492188 134.597656 150.492188 Z M 128.644531 151.417969 C 128.457031 151.417969 128.296875 151.28125 128.273438 151.089844 C 128.246094 150.886719 128.390625 150.695312 128.597656 150.667969 C 129.597656 150.539062 130.601562 150.398438 131.570312 150.246094 C 131.773438 150.214844 131.96875 150.355469 132 150.5625 C 132.03125 150.765625 131.890625 150.960938 131.6875 150.992188 C 130.710938 151.144531 129.703125 151.289062 128.695312 151.417969 C 128.675781 151.417969 128.660156 151.417969 128.644531 151.417969 " fill-opacity="1" fill-rule="nonzero"/><path fill="#f4f5f8" d="M 53.589844 201.3125 C 50.449219 202.175781 47.207031 200.324219 46.347656 197.183594 C 45.488281 194.042969 47.335938 190.796875 50.476562 189.9375 C 53.617188 189.078125 56.859375 190.925781 57.71875 194.070312 C 58.578125 197.210938 56.730469 200.453125 53.589844 201.3125 Z M 63.757812 193.601562 L 63.152344 191.390625 L 60.65625 191.503906 C 60.425781 191.015625 60.15625 190.558594 59.851562 190.125 L 61.175781 188.003906 L 59.546875 186.394531 L 57.441406 187.742188 C 57.003906 187.441406 56.539062 187.175781 56.058594 186.953125 L 56.144531 184.453125 L 53.929688 183.871094 L 52.777344 186.089844 C 52.253906 186.046875 51.71875 186.054688 51.183594 186.101562 L 50.007812 183.890625 L 47.800781 184.496094 L 47.914062 186.996094 C 47.429688 187.226562 46.96875 187.496094 46.535156 187.800781 L 44.417969 186.476562 L 42.808594 188.105469 L 44.15625 190.214844 C 43.855469 190.652344 43.589844 191.117188 43.367188 191.601562 L 40.867188 191.511719 L 40.285156 193.730469 L 42.503906 194.878906 C 42.460938 195.40625 42.464844 195.9375 42.515625 196.476562 L 40.308594 197.652344 L 40.914062 199.859375 L 43.410156 199.746094 C 43.640625 200.234375 43.910156 200.695312 44.210938 201.125 L 42.890625 203.246094 L 44.519531 204.855469 L 46.625 203.507812 C 47.0625 203.8125 47.527344 204.074219 48.007812 204.300781 L 47.921875 206.800781 L 50.136719 207.382812 L 51.285156 205.164062 C 51.8125 205.203125 52.34375 205.199219 52.882812 205.152344 L 54.054688 207.359375 L 56.265625 206.753906 L 56.152344 204.253906 C 56.636719 204.023438 57.097656 203.753906 57.53125 203.453125 L 59.648438 204.773438 L 61.257812 203.144531 L 59.910156 201.039062 C 60.210938 200.597656 60.476562 200.136719 60.699219 199.652344 L 63.199219 199.738281 L 63.777344 197.523438 L 61.5625 196.371094 C 61.605469 195.847656 61.597656 195.3125 61.550781 194.777344 L 63.757812 193.601562 " fill-opacity="1" fill-rule="nonzero"/><path fill="#141619" d="M 81.933594 21.578125 C 81.328125 21.578125 80.746094 21.375 80.265625 20.992188 C 79.710938 20.542969 79.363281 19.910156 79.285156 19.203125 C 79.125 17.738281 80.1875 16.417969 81.648438 16.257812 C 81.855469 16.234375 82.042969 16.386719 82.0625 16.59375 C 82.085938 16.800781 81.9375 16.984375 81.730469 17.007812 C 80.679688 17.121094 79.921875 18.070312 80.035156 19.117188 C 80.089844 19.628906 80.339844 20.082031 80.738281 20.40625 C 81.140625 20.722656 81.636719 20.871094 82.148438 20.8125 C 83.195312 20.699219 83.957031 19.753906 83.839844 18.703125 C 83.816406 18.496094 83.96875 18.308594 84.175781 18.289062 C 84.378906 18.265625 84.566406 18.414062 84.589844 18.621094 C 84.75 20.082031 83.691406 21.402344 82.226562 21.5625 C 82.128906 21.574219 82.03125 21.578125 81.933594 21.578125 " fill-opacity="1" fill-rule="nonzero"/><path fill="#141619" d="M 32.78125 185.902344 C 32.527344 185.902344 32.273438 185.953125 32.027344 186.054688 C 31.539062 186.253906 31.15625 186.636719 30.953125 187.125 C 30.75 187.613281 30.75 188.152344 30.949219 188.640625 C 31.152344 189.128906 31.53125 189.511719 32.019531 189.714844 C 32.507812 189.917969 33.046875 189.917969 33.535156 189.71875 C 34.027344 189.515625 34.40625 189.136719 34.609375 188.648438 C 35.03125 187.640625 34.550781 186.476562 33.542969 186.058594 C 33.300781 185.957031 33.039062 185.902344 32.78125 185.902344 Z M 32.78125 190.621094 C 32.425781 190.621094 32.070312 190.550781 31.730469 190.410156 C 31.054688 190.128906 30.53125 189.601562 30.253906 188.925781 C 29.976562 188.25 29.976562 187.507812 30.257812 186.832031 C 30.539062 186.160156 31.066406 185.636719 31.742188 185.355469 C 32.417969 185.078125 33.160156 185.082031 33.835938 185.363281 C 35.226562 185.941406 35.886719 187.546875 35.304688 188.9375 C 35.023438 189.613281 34.5 190.136719 33.824219 190.414062 C 33.488281 190.550781 33.132812 190.621094 32.78125 190.621094 " fill-opacity="1" fill-rule="nonzero"/><path fill="#f4f5f8" d="M 78.058594 202.582031 L 76.230469 209.292969 L 81.316406 210.140625 L 83.011719 204.207031 L 78.058594 202.582031 " fill-opacity="1" fill-rule="nonzero"/><path fill="#141619" d="M 76.703125 208.988281 L 81.046875 209.714844 L 82.550781 204.453125 L 78.316406 203.0625 Z M 81.316406 210.515625 C 81.296875 210.515625 81.277344 210.515625 81.253906 210.511719 L 76.171875 209.664062 C 76.066406 209.648438 75.972656 209.585938 75.914062 209.496094 C 75.855469 209.40625 75.839844 209.296875 75.867188 209.195312 L 77.695312 202.484375 C 77.722656 202.382812 77.789062 202.300781 77.878906 202.25 C 77.96875 202.203125 78.078125 202.191406 78.175781 202.222656 L 83.128906 203.851562 C 83.320312 203.914062 83.429688 204.117188 83.375 204.308594 L 81.679688 210.246094 C 81.632812 210.40625 81.484375 210.515625 81.316406 210.515625 " fill-opacity="1" fill-rule="nonzero"/><path fill="#f4f5f8" d="M 107.890625 201.488281 L 107.578125 208.605469 L 113.105469 208.304688 L 114.671875 200.789062 L 107.890625 201.488281 " fill-opacity="1" fill-rule="nonzero"/><path fill="#141619" d="M 108.253906 201.828125 L 107.96875 208.207031 L 112.796875 207.945312 L 114.195312 201.214844 Z M 107.578125 208.984375 C 107.476562 208.984375 107.382812 208.945312 107.3125 208.875 C 107.234375 208.796875 107.195312 208.695312 107.199219 208.589844 L 107.515625 201.472656 C 107.523438 201.285156 107.667969 201.132812 107.851562 201.113281 L 114.632812 200.414062 C 114.75 200.402344 114.871094 200.445312 114.949219 200.535156 C 115.03125 200.625 115.066406 200.746094 115.039062 200.867188 L 113.476562 208.378906 C 113.441406 208.546875 113.296875 208.671875 113.128906 208.679688 L 107.597656 208.984375 C 107.589844 208.984375 107.582031 208.984375 107.578125 208.984375 " fill-opacity="1" fill-rule="nonzero"/><path fill="#0a21c0" d="M 87.863281 128.507812 C 87.863281 128.507812 84.984375 135.710938 84.425781 143.09375 C 83.867188 150.476562 77.007812 199.074219 76.339844 203.617188 C 76.339844 203.617188 80.789062 205.824219 83.71875 205.351562 C 83.71875 205.351562 98.550781 175.679688 101.238281 151.113281 C 103.925781 126.546875 103.140625 128.507812 103.140625 128.507812 L 87.863281 128.507812 " fill-opacity="1" fill-rule="nonzero"/><path fill="#0a21c0" d="M 92.945312 131.273438 C 92.945312 131.273438 92.023438 144.582031 96.640625 153.988281 C 101.261719 163.394531 107.5 194.273438 106.445312 203.75 C 106.445312 203.75 112.292969 205.292969 115.066406 204.207031 C 115.066406 204.207031 123.433594 157.003906 112.726562 131.085938 L 92.945312 131.273438 " fill-opacity="1" fill-rule="nonzero"/><path fill="#f4f5f8" d="M 75.667969 208.164062 L 74.921875 212.140625 C 74.660156 213.515625 75.414062 214.894531 76.726562 215.394531 C 78.535156 216.089844 81.296875 216.875 84.425781 216.808594 C 87.261719 216.746094 89.636719 216.625 91.28125 216.523438 C 92.148438 216.46875 92.484375 215.367188 91.796875 214.832031 L 82.445312 207.597656 L 80.328125 209.292969 L 75.667969 208.164062 " fill-opacity="1" fill-rule="nonzero"/><path fill="#141619" d="M 75.964844 208.621094 L 75.289062 212.207031 C 75.0625 213.414062 75.722656 214.609375 76.859375 215.046875 C 78.601562 215.714844 81.328125 216.5 84.417969 216.429688 C 87.324219 216.367188 89.742188 216.242188 91.257812 216.148438 C 91.617188 216.125 91.734375 215.835938 91.761719 215.75 C 91.789062 215.660156 91.855469 215.355469 91.566406 215.132812 L 82.453125 208.078125 L 80.5625 209.585938 C 80.472656 209.660156 80.351562 209.6875 80.238281 209.660156 Z M 84.050781 217.1875 C 80.996094 217.1875 78.324219 216.414062 76.589844 215.75 C 75.113281 215.183594 74.253906 213.636719 74.550781 212.070312 L 75.296875 208.09375 C 75.316406 207.992188 75.375 207.902344 75.460938 207.847656 C 75.550781 207.789062 75.65625 207.773438 75.753906 207.796875 L 80.238281 208.882812 L 82.210938 207.304688 C 82.347656 207.195312 82.542969 207.195312 82.679688 207.300781 L 92.027344 214.535156 C 92.46875 214.875 92.644531 215.4375 92.484375 215.96875 C 92.320312 216.5 91.855469 216.863281 91.304688 216.898438 C 89.78125 216.996094 87.351562 217.121094 84.433594 217.183594 C 84.304688 217.1875 84.175781 217.1875 84.050781 217.1875 " fill-opacity="1" fill-rule="nonzero"/><path fill="#141619" d="M 83.515625 212.582031 C 83.457031 212.582031 83.398438 212.566406 83.34375 212.539062 C 83.160156 212.441406 83.085938 212.214844 83.183594 212.03125 L 84.402344 209.683594 C 84.5 209.5 84.726562 209.425781 84.910156 209.523438 C 85.097656 209.621094 85.167969 209.847656 85.070312 210.03125 L 83.851562 212.378906 C 83.785156 212.507812 83.652344 212.582031 83.515625 212.582031 " fill-opacity="1" fill-rule="nonzero"/><path fill="#141619" d="M 85.820312 213.609375 C 85.765625 213.609375 85.710938 213.601562 85.65625 213.574219 C 85.46875 213.484375 85.390625 213.257812 85.480469 213.070312 L 86.542969 210.867188 C 86.636719 210.679688 86.859375 210.601562 87.046875 210.691406 C 87.234375 210.78125 87.3125 211.007812 87.222656 211.195312 L 86.160156 213.398438 C 86.09375 213.53125 85.960938 213.609375 85.820312 213.609375 " fill-opacity="1" fill-rule="nonzero"/><path fill="#f4f5f8" d="M 107.238281 207.09375 C 107.238281 207.09375 106.945312 209.578125 107.019531 212.054688 C 107.050781 213.125 107.886719 213.996094 108.953125 214.089844 C 111.960938 214.347656 118.042969 214.667969 123.78125 213.746094 C 124.394531 213.648438 124.679688 212.917969 124.285156 212.4375 C 123.109375 211.007812 120.21875 208.40625 113.625 206.148438 L 111.683594 207.597656 C 111.683594 207.597656 110.023438 206.464844 107.238281 207.09375 " fill-opacity="1" fill-rule="nonzero"/><path fill="#141619" d="M 107.582031 207.40625 C 107.511719 208.109375 107.335938 210.09375 107.394531 212.042969 C 107.421875 212.917969 108.105469 213.636719 108.984375 213.710938 C 112.058594 213.976562 118.058594 214.285156 123.722656 213.375 C 123.878906 213.351562 124.003906 213.25 124.058594 213.101562 C 124.085938 213.03125 124.132812 212.847656 123.992188 212.675781 C 122.90625 211.351562 120.125 208.804688 113.691406 206.570312 L 111.910156 207.898438 C 111.78125 207.996094 111.605469 208 111.472656 207.910156 C 111.457031 207.898438 110 206.949219 107.582031 207.40625 Z M 115.277344 214.734375 C 112.703125 214.734375 110.453125 214.59375 108.921875 214.460938 C 107.660156 214.355469 106.679688 213.324219 106.640625 212.066406 C 106.566406 209.589844 106.859375 207.074219 106.863281 207.046875 C 106.882812 206.890625 106.996094 206.757812 107.152344 206.726562 C 109.488281 206.199219 111.082031 206.84375 111.660156 207.148438 L 113.402344 205.847656 C 113.5 205.773438 113.632812 205.753906 113.75 205.792969 C 120.492188 208.101562 123.425781 210.796875 124.574219 212.199219 C 124.847656 212.53125 124.917969 212.964844 124.765625 213.367188 C 124.609375 213.769531 124.265625 214.050781 123.839844 214.121094 C 120.929688 214.585938 117.929688 214.734375 115.277344 214.734375 " fill-opacity="1" fill-rule="nonzero"/><path fill="#141619" d="M 114.671875 210.964844 C 114.582031 210.964844 114.496094 210.933594 114.421875 210.875 C 114.265625 210.734375 114.25 210.496094 114.386719 210.339844 L 117.011719 207.347656 C 117.148438 207.191406 117.386719 207.175781 117.542969 207.3125 C 117.699219 207.449219 117.714844 207.691406 117.578125 207.84375 L 114.953125 210.835938 C 114.878906 210.921875 114.777344 210.964844 114.671875 210.964844 " fill-opacity="1" fill-rule="nonzero"/><path fill="#141619" d="M 117.210938 211.410156 C 117.128906 211.410156 117.042969 211.382812 116.972656 211.328125 C 116.8125 211.195312 116.789062 210.957031 116.921875 210.796875 L 118.851562 208.425781 C 118.980469 208.265625 119.21875 208.242188 119.378906 208.371094 C 119.542969 208.503906 119.566406 208.742188 119.433594 208.902344 L 117.503906 211.273438 C 117.429688 211.363281 117.320312 211.410156 117.210938 211.410156 " fill-opacity="1" fill-rule="nonzero"/><path fill="#141619" d="M 99.003906 160.535156 C 98.847656 160.535156 98.703125 160.4375 98.648438 160.28125 C 98.640625 160.253906 97.683594 157.484375 95.382812 152.667969 C 93.042969 147.761719 92.515625 141.648438 92.496094 141.394531 C 92.476562 141.183594 92.632812 141.003906 92.839844 140.984375 C 93.050781 140.972656 93.230469 141.125 93.246094 141.332031 C 93.25 141.394531 93.78125 147.566406 96.0625 152.34375 C 98.386719 157.203125 99.351562 160.011719 99.363281 160.039062 C 99.429688 160.234375 99.324219 160.449219 99.128906 160.515625 C 99.089844 160.53125 99.046875 160.535156 99.003906 160.535156 " fill-opacity="1" fill-rule="nonzero"/><path fill="#f4f5f8" d="M 95.441406 91.460938 L 96.792969 84.035156 L 102.847656 85.589844 L 102.011719 90.761719 L 95.441406 91.460938 " fill-opacity="1" fill-rule="nonzero"/><path fill="#141619" d="M 97.09375 84.5 L 95.902344 91.03125 L 101.683594 90.417969 L 102.417969 85.871094 Z M 95.441406 91.839844 C 95.335938 91.839844 95.238281 91.792969 95.164062 91.71875 C 95.082031 91.632812 95.050781 91.511719 95.070312 91.394531 L 96.425781 83.964844 C 96.441406 83.863281 96.503906 83.773438 96.589844 83.714844 C 96.679688 83.660156 96.785156 83.640625 96.886719 83.667969 L 102.941406 85.226562 C 103.128906 85.273438 103.25 85.457031 103.21875 85.652344 L 102.382812 90.820312 C 102.355469 90.988281 102.21875 91.117188 102.050781 91.136719 L 95.480469 91.835938 C 95.46875 91.835938 95.453125 91.839844 95.441406 91.839844 " fill-opacity="1" fill-rule="nonzero"/><path fill="#141619" d="M 101.78125 74.03125 C 99.617188 74.324219 99.324219 76.765625 96.738281 77.050781 C 95.554688 77.183594 94.960938 76.742188 93.910156 77.25 C 93.214844 77.582031 92.203125 78.386719 92.101562 79.449219 C 91.96875 80.804688 93.453125 81.097656 94.972656 83.707031 C 96.039062 85.535156 96.101562 86.761719 96.949219 86.894531 C 97.808594 87.027344 98.191406 85.847656 99.136719 85.921875 C 100.363281 86.019531 100.523438 88.066406 101.816406 88.675781 C 102.632812 89.0625 104.339844 88.980469 106.75 87.175781 C 107.140625 86.882812 107.265625 86.351562 107.050781 85.917969 C 106.769531 85.355469 106.414062 84.648438 106.019531 84.003906 C 104.128906 80.929688 102.792969 80.410156 103.058594 79.464844 C 103.460938 78.019531 106.113281 78.289062 106.316406 77.125 C 106.53125 75.917969 104.003906 73.730469 101.78125 74.03125 " fill-opacity="1" fill-rule="nonzero"/><path fill="#f4f5f8" d="M 98.269531 80.3125 L 98.84375 80.011719 C 98.84375 80.011719 100.710938 83.90625 101.441406 84.90625 C 102.171875 85.902344 105.433594 83.878906 105.433594 83.878906 L 105.511719 83.15625 L 105.902344 82.902344 C 106.023438 82.824219 106.101562 82.695312 106.117188 82.550781 C 106.128906 82.410156 106.078125 82.265625 105.976562 82.164062 C 105.191406 81.382812 103.519531 79.613281 102.707031 77.890625 C 102.707031 77.890625 99.964844 77.726562 98.269531 80.3125 " fill-opacity="1" fill-rule="nonzero"/><path fill="#141619" d="M 97.988281 80.566406 C 97.972656 80.472656 97.945312 80.316406 97.984375 80.148438 C 98.003906 80.066406 98.039062 79.992188 98.074219 79.933594 C 98.089844 79.902344 98.113281 79.871094 98.125 79.851562 L 98.152344 79.816406 C 98.222656 79.722656 98.289062 79.628906 98.367188 79.539062 C 98.515625 79.355469 98.679688 79.183594 98.847656 79.019531 C 99.191406 78.695312 99.578125 78.414062 99.992188 78.191406 C 100.40625 77.960938 100.851562 77.796875 101.308594 77.679688 C 101.535156 77.625 101.765625 77.578125 102.003906 77.550781 C 102.242188 77.523438 102.460938 77.503906 102.730469 77.515625 C 102.875 77.523438 102.992188 77.609375 103.046875 77.730469 C 103.265625 78.214844 103.542969 78.683594 103.84375 79.140625 C 104.144531 79.597656 104.46875 80.042969 104.816406 80.472656 C 105.160156 80.902344 105.527344 81.320312 105.914062 81.71875 L 106.058594 81.867188 L 106.128906 81.941406 L 106.167969 81.980469 C 106.1875 82 106.207031 82.019531 106.222656 82.042969 C 106.359375 82.210938 106.410156 82.445312 106.367188 82.65625 C 106.34375 82.761719 106.304688 82.867188 106.242188 82.960938 C 106.210938 83.003906 106.179688 83.050781 106.136719 83.089844 C 106.117188 83.109375 106.097656 83.128906 106.074219 83.148438 L 106.03125 83.1875 C 105.929688 83.285156 105.824219 83.382812 105.714844 83.464844 L 105.878906 83.199219 C 105.867188 83.441406 105.832031 83.679688 105.808594 83.917969 C 105.800781 84.039062 105.730469 84.140625 105.636719 84.195312 L 105.632812 84.199219 C 104.898438 84.644531 104.164062 85.035156 103.339844 85.332031 C 102.921875 85.46875 102.5 85.605469 101.96875 85.578125 C 101.832031 85.566406 101.691406 85.542969 101.542969 85.480469 C 101.398438 85.417969 101.246094 85.316406 101.140625 85.175781 C 100.984375 84.96875 100.886719 84.800781 100.769531 84.613281 C 100.34375 83.886719 99.960938 83.152344 99.585938 82.414062 C 99.207031 81.675781 98.851562 80.929688 98.496094 80.179688 L 99.023438 80.355469 C 98.875 80.433594 98.683594 80.507812 98.488281 80.539062 C 98.292969 80.570312 98.121094 80.558594 97.988281 80.566406 Z M 98.550781 80.058594 C 98.609375 79.964844 98.628906 79.855469 98.625 79.785156 C 98.621094 79.71875 98.625 79.691406 98.664062 79.671875 C 98.851562 79.570312 99.085938 79.640625 99.183594 79.828125 L 99.191406 79.835938 L 99.191406 79.847656 C 99.554688 80.582031 99.929688 81.316406 100.300781 82.046875 C 100.675781 82.777344 101.054688 83.507812 101.464844 84.199219 C 101.566406 84.367188 101.683594 84.546875 101.773438 84.671875 C 101.804688 84.71875 101.886719 84.761719 102.035156 84.773438 C 102.332031 84.800781 102.71875 84.703125 103.082031 84.582031 C 103.816406 84.332031 104.550781 83.957031 105.230469 83.554688 L 105.054688 83.835938 C 105.085938 83.59375 105.101562 83.355469 105.144531 83.117188 L 105.152344 83.070312 C 105.167969 82.972656 105.230469 82.890625 105.308594 82.847656 C 105.433594 82.78125 105.566406 82.726562 105.695312 82.667969 C 105.710938 82.664062 105.730469 82.652344 105.742188 82.652344 C 105.746094 82.648438 105.753906 82.648438 105.761719 82.644531 C 105.773438 82.640625 105.789062 82.632812 105.800781 82.625 C 105.824219 82.605469 105.84375 82.578125 105.847656 82.546875 C 105.867188 82.488281 105.847656 82.417969 105.808594 82.371094 L 105.527344 82.09375 C 105.132812 81.691406 104.742188 81.28125 104.363281 80.859375 C 103.609375 80.007812 102.894531 79.105469 102.367188 78.050781 L 102.6875 78.265625 C 102.515625 78.265625 102.296875 78.277344 102.101562 78.304688 C 101.898438 78.332031 101.699219 78.375 101.5 78.425781 C 101.105469 78.527344 100.722656 78.683594 100.367188 78.878906 C 100.007812 79.070312 99.679688 79.3125 99.378906 79.589844 C 99.230469 79.726562 99.085938 79.871094 98.957031 80.03125 C 98.886719 80.105469 98.828125 80.1875 98.765625 80.269531 L 98.742188 80.300781 C 98.738281 80.304688 98.742188 80.292969 98.746094 80.285156 C 98.75 80.269531 98.75 80.242188 98.742188 80.203125 C 98.71875 80.128906 98.625 80.0625 98.550781 80.058594 " fill-opacity="1" fill-rule="nonzero"/><path fill="#f4f5f8" d="M 99.496094 83.160156 C 99.496094 83.160156 97.996094 81.324219 97.304688 82.183594 C 96.613281 83.042969 98.316406 85.023438 99.496094 83.160156 " fill-opacity="1" fill-rule="nonzero"/><path fill="#f4f5f8" d="M 74.164062 139.246094 C 74.164062 139.246094 74.632812 143.867188 73.828125 145.539062 C 73.023438 147.207031 67.785156 150.402344 67.785156 150.402344 C 67.785156 150.402344 66.199219 149.386719 67.785156 148.089844 C 69.371094 146.792969 70.015625 145.714844 70.015625 145.714844 C 70.015625 145.714844 69.6875 140.800781 70.402344 139.78125 C 71.113281 138.761719 74.164062 139.246094 74.164062 139.246094 " fill-opacity="1" fill-rule="nonzero"/><path fill="#141619" d="M 72.648438 139.507812 C 71.78125 139.507812 70.960938 139.636719 70.710938 139.996094 C 70.246094 140.660156 70.265625 143.839844 70.390625 145.691406 C 70.394531 145.765625 70.375 145.84375 70.335938 145.910156 C 70.308594 145.957031 69.644531 147.058594 68.023438 148.382812 C 67.632812 148.703125 67.441406 149.011719 67.457031 149.300781 C 67.472656 149.570312 67.664062 149.800781 67.8125 149.941406 C 69.386719 148.964844 72.898438 146.597656 73.488281 145.375 C 74.066406 144.171875 73.941406 141.023438 73.816406 139.578125 C 73.453125 139.535156 73.046875 139.507812 72.648438 139.507812 Z M 67.785156 150.777344 C 67.714844 150.777344 67.644531 150.757812 67.582031 150.71875 C 67.546875 150.699219 66.753906 150.179688 66.707031 149.347656 C 66.671875 148.804688 66.957031 148.28125 67.546875 147.800781 C 68.792969 146.78125 69.441406 145.898438 69.628906 145.617188 C 69.5625 144.542969 69.375 140.59375 70.09375 139.566406 C 70.914062 138.386719 73.886719 138.820312 74.222656 138.875 C 74.394531 138.902344 74.523438 139.039062 74.539062 139.210938 C 74.558594 139.402344 75.007812 143.957031 74.167969 145.703125 C 73.335938 147.421875 68.527344 150.390625 67.980469 150.722656 C 67.921875 150.757812 67.851562 150.777344 67.785156 150.777344 " fill-opacity="1" fill-rule="nonzero"/><path fill="#f4f5f8" d="M 132.429688 75.738281 L 132.0625 73.292969 C 131.960938 72.601562 132.089844 71.894531 132.433594 71.285156 L 136.191406 64.628906 C 136.191406 64.628906 137.324219 65.121094 136.5 66.855469 L 135.335938 69.070312 C 135.335938 69.070312 137.269531 70.015625 137.488281 71.65625 C 137.847656 74.328125 134.910156 76.257812 134.910156 76.257812 L 132.429688 75.738281 " fill-opacity="1" fill-rule="nonzero"/><path fill="#141619" d="M 132.761719 75.421875 L 134.824219 75.855469 C 135.355469 75.464844 137.398438 73.8125 137.113281 71.707031 C 136.925781 70.292969 135.1875 69.417969 135.167969 69.410156 C 135.078125 69.363281 135.007812 69.285156 134.976562 69.1875 C 134.945312 69.089844 134.953125 68.984375 135.003906 68.894531 L 136.164062 66.679688 C 136.414062 66.15625 136.488281 65.695312 136.363281 65.363281 C 136.34375 65.308594 136.316406 65.261719 136.289062 65.21875 L 132.761719 71.472656 C 132.457031 72.003906 132.34375 72.632812 132.4375 73.234375 Z M 134.910156 76.636719 C 134.882812 76.636719 134.855469 76.632812 134.832031 76.628906 L 132.351562 76.105469 C 132.199219 76.074219 132.082031 75.949219 132.058594 75.792969 L 131.691406 73.347656 C 131.574219 72.578125 131.722656 71.78125 132.101562 71.101562 L 135.859375 64.445312 C 135.957031 64.277344 136.160156 64.207031 136.339844 64.285156 C 136.390625 64.308594 136.851562 64.523438 137.070312 65.101562 C 137.269531 65.632812 137.191406 66.277344 136.839844 67.019531 L 135.839844 68.921875 C 136.445312 69.300781 137.675781 70.21875 137.863281 71.605469 C 138.25 74.484375 135.242188 76.492188 135.117188 76.574219 C 135.054688 76.613281 134.980469 76.636719 134.910156 76.636719 " fill-opacity="1" fill-rule="nonzero"/><path fill="#141619" d="M 69.347656 140.042969 L 75.410156 140.042969 C 75.410156 140.042969 76.71875 118.515625 88.273438 111.550781 L 87.390625 94.238281 C 87.390625 94.238281 63.171875 107.714844 69.347656 140.042969 " fill-opacity="1" fill-rule="nonzero"/><path fill="#f4f5f8" d="M 88.421875 116.25 L 83.894531 137.769531 C 83.894531 137.769531 102.335938 140.933594 108.765625 139.78125 C 115.191406 138.625 115.945312 136.933594 115.945312 136.933594 L 113.226562 113.261719 L 88.421875 116.25 " fill-opacity="1" fill-rule="nonzero"/><path fill="#141619" d="M 84.34375 137.464844 C 87.027344 137.910156 102.917969 140.449219 108.699219 139.410156 C 113.96875 138.460938 115.300781 137.15625 115.554688 136.835938 L 112.894531 113.679688 L 88.734375 116.59375 Z M 105.011719 140.414062 C 97.167969 140.414062 84.464844 138.25 83.828125 138.144531 C 83.726562 138.125 83.636719 138.066406 83.582031 137.984375 C 83.523438 137.898438 83.503906 137.792969 83.523438 137.695312 L 88.054688 116.171875 C 88.085938 116.015625 88.214844 115.894531 88.375 115.875 L 113.179688 112.886719 C 113.28125 112.875 113.382812 112.902344 113.460938 112.964844 C 113.539062 113.027344 113.589844 113.117188 113.601562 113.21875 L 116.316406 136.886719 C 116.324219 136.953125 116.316406 137.023438 116.289062 137.082031 C 116.203125 137.277344 115.269531 138.996094 108.832031 140.152344 C 107.808594 140.335938 106.496094 140.414062 105.011719 140.414062 " fill-opacity="1" fill-rule="nonzero"/><path fill="#141619" d="M 96.695312 91.316406 L 87.390625 94.238281 L 83.367188 125.050781 C 83.175781 126.523438 84.019531 127.933594 85.414062 128.445312 C 89.871094 130.085938 100.398438 132.988281 114.9375 130.742188 C 116.457031 130.507812 117.589844 129.214844 117.625 127.679688 C 117.753906 122.511719 117.851562 110.921875 116.390625 104.261719 C 116.390625 104.261719 136.902344 104.242188 135.714844 76.519531 L 131.425781 75.347656 C 131.425781 75.347656 124.214844 91.640625 111.769531 91.011719 C 111.769531 91.011719 103.433594 89.199219 96.695312 91.316406 " fill-opacity="1" fill-rule="nonzero"/><path fill="#f4f5f8" d="M 104.640625 89.511719 C 104.640625 89.511719 96.578125 88.746094 90.167969 90.011719 C 86.367188 90.761719 79.160156 93.566406 84.664062 99.222656 C 90.164062 104.878906 93.953125 104.339844 95.765625 101.175781 C 97.578125 98.011719 100.816406 90.691406 104.640625 89.511719 " fill-opacity="1" fill-rule="nonzero"/><path fill="#141619" d="M 98.980469 89.660156 C 96.320312 89.660156 93.101562 89.816406 90.242188 90.382812 C 87.40625 90.941406 83.851562 92.378906 83.164062 94.585938 C 82.765625 95.871094 83.359375 97.339844 84.933594 98.957031 C 87.832031 101.941406 90.460938 103.382812 92.527344 103.121094 C 93.734375 102.96875 94.714844 102.25 95.4375 100.988281 C 95.742188 100.457031 96.097656 99.789062 96.472656 99.082031 C 98.101562 96.011719 100.453125 91.585938 103.214844 89.785156 C 102.199219 89.726562 100.707031 89.660156 98.980469 89.660156 Z M 92.050781 103.902344 C 89.847656 103.902344 87.21875 102.386719 84.390625 99.484375 C 82.613281 97.652344 81.957031 95.929688 82.445312 94.363281 C 83.457031 91.109375 88.996094 89.859375 90.097656 89.640625 C 96.488281 88.378906 104.59375 89.128906 104.675781 89.136719 C 104.855469 89.152344 104.996094 89.292969 105.015625 89.472656 C 105.03125 89.652344 104.921875 89.820312 104.75 89.871094 C 101.722656 90.804688 98.964844 96 97.140625 99.4375 C 96.761719 100.148438 96.402344 100.820312 96.09375 101.363281 C 95.253906 102.820312 94.054688 103.6875 92.621094 103.867188 C 92.4375 103.890625 92.246094 103.902344 92.050781 103.902344 " fill-opacity="1" fill-rule="nonzero"/><path fill="#141619" d="M 98.101562 91.796875 Z M 98.101562 91.796875 C 98.101562 91.796875 98.101562 91.796875 98.101562 91.800781 C 98.101562 91.796875 98.101562 91.796875 98.101562 91.796875 Z M 98.101562 91.800781 Z M 87.863281 96.636719 C 86.488281 96.636719 85.25 96.199219 84.144531 95.320312 C 83.980469 95.1875 83.957031 94.953125 84.085938 94.789062 C 84.214844 94.625 84.449219 94.597656 84.613281 94.726562 C 87.136719 96.734375 90.359375 96.171875 94.753906 92.957031 C 96.734375 91.507812 97.972656 90.890625 98.4375 91.125 C 98.625 91.21875 98.699219 91.445312 98.605469 91.632812 C 98.527344 91.789062 98.351562 91.867188 98.1875 91.828125 C 98.089844 91.835938 97.40625 91.949219 95.195312 93.566406 C 92.394531 95.617188 89.964844 96.636719 87.863281 96.636719 " fill-opacity="1" fill-rule="nonzero"/></svg>