<svg xmlns="http://www.w3.org/2000/svg" xmlns:xlink="http://www.w3.org/1999/xlink" width="300" zoomAndPan="magnify" viewBox="0 0 224.87999 225" height="300" preserveAspectRatio="xMidYMid meet" version="1.0"><path fill="#e4e6ef" d="M 152.105469 177.902344 L 15.152344 177.902344 C 13.640625 177.902344 12.359375 176.777344 12.164062 175.269531 L 0.441406 85.296875 C 0.199219 83.496094 1.609375 81.894531 3.425781 81.894531 L 140.378906 81.894531 C 141.894531 81.894531 143.175781 83.015625 143.367188 84.523438 L 155.09375 174.503906 C 155.332031 176.304688 153.921875 177.90625 152.105469 177.90625 Z M 152.105469 177.902344 " fill-opacity="1" fill-rule="nonzero"/><path fill="#050a44" d="M 152.105469 178.234375 L 15.152344 178.234375 C 13.476562 178.234375 12.042969 176.984375 11.828125 175.316406 L 0.105469 85.339844 C -0.0234375 84.386719 0.277344 83.417969 0.910156 82.695312 C 1.542969 81.976562 2.464844 81.558594 3.425781 81.558594 L 140.378906 81.558594 C 142.054688 81.558594 143.488281 82.816406 143.703125 84.476562 L 155.425781 174.460938 C 155.554688 175.414062 155.253906 176.382812 154.621094 177.105469 C 153.988281 177.828125 153.074219 178.242188 152.105469 178.242188 Z M 3.425781 82.226562 C 2.660156 82.226562 1.921875 82.5625 1.414062 83.136719 C 0.910156 83.71875 0.671875 84.484375 0.765625 85.253906 L 12.492188 175.234375 C 12.664062 176.566406 13.808594 177.566406 15.152344 177.566406 L 152.105469 177.566406 C 152.871094 177.566406 153.609375 177.238281 154.117188 176.65625 C 154.621094 176.074219 154.859375 175.308594 154.765625 174.542969 L 143.039062 84.566406 C 142.867188 83.234375 141.722656 82.234375 140.378906 82.234375 L 3.425781 82.234375 Z M 3.425781 82.226562 " fill-opacity="1" fill-rule="nonzero"/><path fill="#050a44" d="M 150.578125 173.847656 L 16.3125 173.847656 C 16.140625 173.847656 16 173.722656 15.976562 173.558594 L 4.609375 86.324219 C 4.597656 86.226562 4.625 86.132812 4.691406 86.058594 C 4.761719 85.980469 4.847656 85.945312 4.945312 85.945312 L 139.210938 85.945312 C 139.382812 85.945312 139.523438 86.070312 139.546875 86.234375 L 150.914062 173.46875 C 150.929688 173.566406 150.898438 173.664062 150.832031 173.730469 C 150.765625 173.804688 150.675781 173.839844 150.578125 173.839844 Z M 16.609375 173.179688 L 150.199219 173.179688 L 138.914062 86.621094 L 5.324219 86.621094 Z M 16.609375 173.179688 " fill-opacity="1" fill-rule="nonzero"/><path fill="#050a44" d="M 40.269531 98.488281 L 10.695312 98.488281 C 10.523438 98.488281 10.382812 98.363281 10.359375 98.199219 L 9.265625 89.789062 C 9.25 89.691406 9.28125 89.59375 9.347656 89.519531 C 9.414062 89.445312 9.503906 89.410156 9.601562 89.410156 L 39.164062 89.410156 C 39.335938 89.410156 39.480469 89.535156 39.5 89.699219 L 40.597656 98.109375 C 40.609375 98.207031 40.582031 98.300781 40.515625 98.378906 C 40.445312 98.453125 40.359375 98.488281 40.261719 98.488281 Z M 10.996094 97.8125 L 39.882812 97.8125 L 38.875 90.070312 L 9.980469 90.070312 L 10.988281 97.8125 Z M 10.996094 97.8125 " fill-opacity="1" fill-rule="nonzero"/><path fill="#0a21c0" d="M 125.058594 166.546875 C 113.355469 166.546875 109.289062 154.226562 106.019531 144.304688 C 104.476562 139.628906 102.882812 134.792969 100.976562 132.78125 C 99.382812 131.101562 99.449219 128.449219 101.132812 126.847656 C 102.816406 125.253906 105.46875 125.320312 107.070312 127.003906 C 110.273438 130.378906 112.082031 135.867188 113.996094 141.675781 C 117.207031 151.414062 119.972656 158.308594 125.289062 158.144531 C 135.011719 157.886719 136.164062 138.824219 136.179688 138.628906 C 136.285156 136.3125 138.289062 134.578125 140.558594 134.628906 C 142.875 134.734375 144.664062 136.6875 144.566406 139.003906 C 144.128906 149.050781 139.628906 166.152344 125.519531 166.535156 C 125.371094 166.535156 125.214844 166.535156 125.066406 166.535156 Z M 125.058594 166.546875 " fill-opacity="1" fill-rule="nonzero"/><path fill="#050a44" d="M 153.15625 139.144531 C 153.15625 144.664062 148.679688 149.140625 143.160156 149.140625 C 137.640625 149.140625 133.164062 144.664062 133.164062 139.144531 C 133.164062 133.625 137.640625 129.148438 143.160156 129.148438 C 148.679688 129.148438 153.15625 133.625 153.15625 139.144531 Z M 153.15625 139.144531 " fill-opacity="1" fill-rule="nonzero"/><path fill="#0a21c0" d="M 178.75 184.144531 L 157.796875 184.144531 C 146.214844 184.144531 137.214844 174.757812 137.699219 163.175781 L 138.667969 139.964844 C 138.921875 133.902344 144.046875 128.976562 150.109375 128.976562 L 189.035156 128.976562 C 198.070312 128.976562 205.097656 136.300781 204.714844 145.34375 L 204.113281 159.792969 C 203.554688 173.238281 192.203125 184.144531 178.75 184.144531 Z M 178.75 184.144531 " fill-opacity="1" fill-rule="nonzero"/><path fill="#050a44" d="M 137.691406 163.507812 L 137.675781 163.507812 C 137.492188 163.503906 137.347656 163.34375 137.355469 163.160156 L 137.980469 148.121094 C 137.988281 147.933594 138.144531 147.792969 138.332031 147.800781 C 138.519531 147.808594 138.660156 147.964844 138.652344 148.148438 L 138.027344 163.1875 C 138.019531 163.367188 137.871094 163.507812 137.691406 163.507812 Z M 137.691406 163.507812 " fill-opacity="1" fill-rule="nonzero"/><path fill="#050a44" d="M 178.058594 144.542969 L 152.523438 144.542969 C 151.6875 144.542969 151.039062 143.867188 151.070312 143.03125 C 151.105469 142.199219 151.808594 141.519531 152.648438 141.519531 L 178.183594 141.519531 C 179.015625 141.519531 179.664062 142.199219 179.636719 143.03125 C 179.597656 143.867188 178.898438 144.542969 178.058594 144.542969 Z M 178.058594 144.542969 " fill-opacity="1" fill-rule="nonzero"/><path fill="#050a44" d="M 177.757812 151.6875 L 152.222656 151.6875 C 151.390625 151.6875 150.742188 151.011719 150.773438 150.175781 C 150.808594 149.34375 151.507812 148.664062 152.351562 148.664062 L 177.886719 148.664062 C 178.71875 148.664062 179.367188 149.34375 179.335938 150.175781 C 179.300781 151.011719 178.601562 151.6875 177.757812 151.6875 Z M 177.757812 151.6875 " fill-opacity="1" fill-rule="nonzero"/><path fill="#050a44" d="M 177.460938 158.832031 L 151.925781 158.832031 C 151.09375 158.832031 150.445312 158.152344 150.472656 157.320312 C 150.511719 156.484375 151.210938 155.808594 152.054688 155.808594 L 177.585938 155.808594 C 178.421875 155.808594 179.070312 156.484375 179.039062 157.320312 C 179.003906 158.152344 178.300781 158.832031 177.460938 158.832031 Z M 177.460938 158.832031 " fill-opacity="1" fill-rule="nonzero"/><path fill="#050a44" d="M 213.347656 196.925781 L 1.460938 196.925781 C 1.273438 196.925781 1.125 196.777344 1.125 196.589844 C 1.125 196.402344 1.273438 196.253906 1.460938 196.253906 L 213.347656 196.253906 C 213.535156 196.253906 213.683594 196.402344 213.683594 196.589844 C 213.683594 196.777344 213.535156 196.925781 213.347656 196.925781 Z M 213.347656 196.925781 " fill-opacity="1" fill-rule="nonzero"/><path fill="#e4e6ef" d="M 102.570312 119.34375 C 102.570312 119.34375 102.636719 104.859375 86.996094 102.078125 C 83.605469 101.601562 82.191406 106.347656 83.949219 111.019531 C 83.949219 111.019531 80.460938 112.640625 81.886719 116.03125 C 81.886719 116.03125 81.007812 118.601562 82.898438 120.804688 C 84.796875 123.003906 87.179688 124.054688 88.6875 123.144531 C 88.6875 123.144531 91.160156 126.429688 94.539062 126.496094 L 102.5625 119.351562 Z M 102.570312 119.34375 " fill-opacity="1" fill-rule="nonzero"/><path fill="#050a44" d="M 161.320312 195.816406 L 146.757812 195.816406 C 146.183594 195.816406 145.699219 195.398438 145.609375 194.824219 L 141.230469 165.230469 C 141.125 164.53125 141.667969 163.90625 142.375 163.90625 L 156.9375 163.90625 C 157.511719 163.90625 157.996094 164.320312 158.085938 164.894531 L 162.464844 194.488281 C 162.570312 195.1875 162.027344 195.816406 161.320312 195.816406 Z M 161.320312 195.816406 " fill-opacity="1" fill-rule="nonzero"/><path fill="#050a44" d="M 94.546875 126.824219 C 91.53125 126.765625 89.25 124.328125 88.609375 123.5625 C 86.988281 124.304688 84.632812 123.316406 82.660156 121.019531 C 80.878906 118.957031 81.386719 116.613281 81.542969 116.046875 C 80.367188 113.066406 82.71875 111.351562 83.546875 110.859375 C 82.480469 107.820312 82.675781 104.671875 84.050781 102.941406 C 84.8125 101.988281 85.847656 101.585938 87.054688 101.742188 C 102.800781 104.539062 102.914062 119.195312 102.914062 119.34375 C 102.914062 119.441406 102.867188 119.53125 102.800781 119.589844 L 94.777344 126.734375 C 94.71875 126.785156 94.636719 126.816406 94.554688 126.816406 Z M 88.6875 122.800781 C 88.789062 122.800781 88.886719 122.847656 88.953125 122.9375 C 88.976562 122.964844 91.308594 126.003906 94.421875 126.144531 L 102.226562 119.195312 C 102.191406 117.59375 101.445312 104.984375 86.933594 102.40625 C 86.003906 102.273438 85.167969 102.609375 84.566406 103.359375 C 83.308594 104.933594 83.179688 108.03125 84.261719 110.898438 C 84.320312 111.0625 84.246094 111.25 84.089844 111.324219 C 83.964844 111.382812 80.917969 112.859375 82.191406 115.898438 C 82.21875 115.972656 82.226562 116.058594 82.199219 116.136719 C 82.160156 116.230469 81.40625 118.5625 83.152344 120.582031 C 84.992188 122.710938 87.195312 123.652344 88.515625 122.855469 C 88.566406 122.824219 88.625 122.800781 88.6875 122.800781 Z M 102.570312 119.34375 L 102.578125 119.34375 Z M 102.570312 119.34375 " fill-opacity="1" fill-rule="nonzero"/><path fill="#050a44" d="M 88.925781 119.984375 C 84.507812 119.984375 81.726562 116.378906 81.617188 116.230469 C 81.503906 116.082031 81.535156 115.875 81.683594 115.761719 C 81.832031 115.652344 82.042969 115.671875 82.152344 115.828125 C 82.183594 115.867188 84.847656 119.316406 88.929688 119.316406 C 89.410156 119.316406 89.886719 119.039062 90.226562 118.570312 C 90.785156 117.804688 90.898438 116.679688 90.539062 115.5625 C 90.480469 115.382812 90.578125 115.195312 90.757812 115.136719 C 90.929688 115.078125 91.121094 115.175781 91.179688 115.351562 C 91.613281 116.695312 91.464844 118.011719 90.769531 118.964844 C 90.292969 119.613281 89.625 119.992188 88.929688 119.992188 Z M 88.925781 119.984375 " fill-opacity="1" fill-rule="nonzero"/><path fill="#050a44" d="M 88.6875 123.480469 C 88.574219 123.480469 88.46875 123.425781 88.402344 123.324219 C 88.304688 123.167969 88.351562 122.957031 88.5 122.859375 C 88.550781 122.824219 89.667969 122.035156 88.84375 119.875 C 88.773438 119.703125 88.863281 119.507812 89.035156 119.441406 C 89.214844 119.375 89.402344 119.464844 89.46875 119.636719 C 90.503906 122.332031 88.929688 123.382812 88.863281 123.421875 C 88.804688 123.457031 88.746094 123.472656 88.6875 123.472656 Z M 88.6875 123.480469 " fill-opacity="1" fill-rule="nonzero"/><path fill="#050a44" d="M 104.449219 96.507812 L 74.710938 119.195312 C 74.480469 119.367188 74.234375 119.515625 73.972656 119.621094 L 68.835938 121.765625 C 68.5 121.90625 68.195312 121.503906 68.417969 121.222656 L 71.84375 116.835938 C 72.023438 116.613281 72.222656 116.410156 72.453125 116.230469 L 102.21875 93.519531 C 102.972656 92.945312 104.089844 92.925781 104.738281 93.617188 C 104.773438 93.65625 104.804688 93.691406 104.84375 93.738281 C 105.542969 94.578125 105.328125 95.851562 104.460938 96.515625 Z M 104.449219 96.507812 " fill-opacity="1" fill-rule="nonzero"/><path fill="#e4e6ef" d="M 98.382812 108.828125 C 98.382812 108.828125 89.132812 106.980469 84.574219 110.140625 C 83.398438 111.175781 86.5625 115.195312 93.960938 115.734375 C 93.601562 117.3125 93.011719 120.425781 94.457031 122.914062 C 94.457031 122.914062 101.476562 118.125 98.382812 108.828125 Z M 98.382812 108.828125 " fill-opacity="1" fill-rule="nonzero"/><path fill="#050a44" d="M 94.457031 123.25 C 94.339844 123.25 94.226562 123.1875 94.167969 123.085938 C 92.714844 120.589844 93.246094 117.460938 93.550781 116.046875 C 87.664062 115.507812 84.632812 112.859375 84.097656 111.269531 C 83.902344 110.699219 83.992188 110.214844 84.351562 109.894531 C 89.007812 106.667969 98.070312 108.425781 98.449219 108.507812 C 98.628906 108.542969 98.75 108.722656 98.710938 108.902344 C 98.675781 109.082031 98.503906 109.191406 98.316406 109.164062 C 98.226562 109.140625 89.148438 107.375 84.761719 110.421875 C 84.609375 110.554688 84.65625 110.847656 84.730469 111.054688 C 85.257812 112.621094 88.476562 115.003906 93.980469 115.40625 C 94.078125 115.40625 94.167969 115.464844 94.226562 115.539062 C 94.289062 115.621094 94.308594 115.71875 94.289062 115.816406 C 94.042969 116.902344 93.28125 120.222656 94.75 122.75 C 94.847656 122.914062 94.785156 123.113281 94.628906 123.210938 C 94.578125 123.242188 94.519531 123.257812 94.457031 123.257812 Z M 94.457031 123.25 " fill-opacity="1" fill-rule="nonzero"/><path fill="#050a44" d="M 174.070312 133.738281 C 171.472656 134.363281 168.714844 134.332031 165.8125 133.648438 C 163.859375 133.183594 162.496094 131.382812 162.496094 129.371094 L 162.496094 119.917969 L 177.246094 119.917969 L 177.246094 129.503906 C 177.246094 131.464844 175.972656 133.273438 174.0625 133.738281 Z M 174.070312 133.738281 " fill-opacity="1" fill-rule="nonzero"/><path fill="#050a44" d="M 157.253906 80.375 L 173.953125 80.375 C 174.386719 80.375 174.804688 80.457031 175.203125 80.621094 C 175.605469 80.789062 175.957031 81.023438 176.265625 81.332031 C 176.570312 81.636719 176.808594 81.992188 176.972656 82.390625 C 177.140625 82.792969 177.222656 83.210938 177.222656 83.644531 L 177.222656 86.660156 C 177.222656 87.09375 177.140625 87.511719 176.972656 87.910156 C 176.808594 88.3125 176.570312 88.664062 176.265625 88.972656 C 175.957031 89.277344 175.605469 89.515625 175.203125 89.679688 C 174.804688 89.847656 174.386719 89.929688 173.953125 89.929688 L 157.253906 89.929688 C 156.820312 89.929688 156.402344 89.847656 156 89.679688 C 155.601562 89.515625 155.246094 89.277344 154.941406 88.972656 C 154.632812 88.664062 154.398438 88.3125 154.230469 87.910156 C 154.066406 87.511719 153.980469 87.09375 153.980469 86.660156 L 153.980469 83.644531 C 153.980469 83.210938 154.066406 82.792969 154.230469 82.390625 C 154.398438 81.992188 154.632812 81.636719 154.941406 81.332031 C 155.246094 81.023438 155.601562 80.789062 156 80.621094 C 156.402344 80.457031 156.820312 80.375 157.253906 80.375 Z M 157.253906 80.375 " fill-opacity="1" fill-rule="nonzero"/><path fill="#0a21c0" d="M 199.859375 98.117188 L 199.859375 112.820312 C 199.859375 120.433594 193.675781 126.617188 186.042969 126.617188 L 151.335938 126.617188 C 144.148438 126.617188 138.257812 121.140625 137.59375 114.144531 C 137.542969 113.730469 137.519531 113.261719 137.519531 112.820312 L 137.519531 98.117188 C 137.519531 97.675781 137.542969 97.207031 137.59375 96.789062 C 138.257812 89.796875 144.148438 84.320312 151.335938 84.320312 L 186.042969 84.320312 C 193.675781 84.320312 199.859375 90.503906 199.859375 98.117188 Z M 199.859375 98.117188 " fill-opacity="1" fill-rule="nonzero"/><path fill="#050a44" d="M 183.710938 102.09375 L 183.710938 108.84375 C 183.710938 114.585938 179.046875 119.25 173.304688 119.25 L 146.527344 119.25 C 142.71875 119.25 139.382812 117.214844 137.59375 114.144531 C 137.542969 113.730469 137.519531 113.261719 137.519531 112.820312 L 137.519531 98.117188 C 137.519531 97.675781 137.542969 97.207031 137.59375 96.789062 C 139.390625 93.722656 142.726562 91.6875 146.527344 91.6875 L 173.304688 91.6875 C 179.046875 91.6875 183.710938 96.351562 183.710938 102.09375 Z M 183.710938 102.09375 " fill-opacity="1" fill-rule="nonzero"/><path fill="#e4e6ef" d="M 163.933594 103.746094 C 163.933594 104.171875 163.851562 104.582031 163.6875 104.976562 C 163.527344 105.371094 163.292969 105.714844 162.992188 106.019531 C 162.691406 106.320312 162.34375 106.550781 161.953125 106.714844 C 161.558594 106.875 161.148438 106.957031 160.722656 106.957031 C 160.296875 106.957031 159.886719 106.875 159.496094 106.714844 C 159.101562 106.550781 158.753906 106.320312 158.453125 106.019531 C 158.152344 105.714844 157.921875 105.371094 157.757812 104.976562 C 157.59375 104.582031 157.511719 104.171875 157.511719 103.746094 C 157.511719 103.320312 157.59375 102.914062 157.757812 102.519531 C 157.921875 102.125 158.152344 101.777344 158.453125 101.476562 C 158.753906 101.175781 159.101562 100.945312 159.496094 100.78125 C 159.886719 100.617188 160.296875 100.539062 160.722656 100.539062 C 161.148438 100.539062 161.558594 100.617188 161.953125 100.78125 C 162.34375 100.945312 162.691406 101.175781 162.992188 101.476562 C 163.292969 101.777344 163.527344 102.125 163.6875 102.519531 C 163.851562 102.914062 163.933594 103.320312 163.933594 103.746094 Z M 163.933594 103.746094 " fill-opacity="1" fill-rule="nonzero"/><path fill="#e4e6ef" d="M 154.011719 111.449219 C 154.011719 113.222656 152.574219 114.660156 150.800781 114.660156 C 149.027344 114.660156 147.589844 113.222656 147.589844 111.449219 Z M 154.011719 111.449219 " fill-opacity="1" fill-rule="nonzero"/><path fill="#e4e6ef" d="M 145.289062 103.746094 C 145.289062 104.171875 145.207031 104.582031 145.042969 104.976562 C 144.882812 105.371094 144.648438 105.714844 144.347656 106.019531 C 144.046875 106.320312 143.699219 106.550781 143.308594 106.714844 C 142.914062 106.875 142.503906 106.957031 142.078125 106.957031 C 141.652344 106.957031 141.242188 106.875 140.851562 106.714844 C 140.457031 106.550781 140.109375 106.320312 139.808594 106.019531 C 139.507812 105.714844 139.277344 105.371094 139.113281 104.976562 C 138.949219 104.582031 138.867188 104.171875 138.867188 103.746094 C 138.867188 103.320312 138.949219 102.914062 139.113281 102.519531 C 139.277344 102.125 139.507812 101.777344 139.808594 101.476562 C 140.109375 101.175781 140.457031 100.945312 140.851562 100.78125 C 141.242188 100.617188 141.652344 100.539062 142.078125 100.539062 C 142.503906 100.539062 142.914062 100.617188 143.308594 100.78125 C 143.699219 100.945312 144.046875 101.175781 144.347656 101.476562 C 144.648438 101.777344 144.882812 102.125 145.042969 102.519531 C 145.207031 102.914062 145.289062 103.320312 145.289062 103.746094 Z M 145.289062 103.746094 " fill-opacity="1" fill-rule="nonzero"/><path fill="#050a44" d="M 194.773438 96.925781 L 198.378906 96.925781 C 198.824219 96.925781 199.25 97.007812 199.664062 97.179688 C 200.074219 97.351562 200.4375 97.59375 200.753906 97.910156 C 201.066406 98.222656 201.308594 98.585938 201.480469 99 C 201.652344 99.410156 201.738281 99.839844 201.738281 100.285156 L 201.738281 110.652344 C 201.738281 111.097656 201.652344 111.527344 201.480469 111.9375 C 201.308594 112.351562 201.066406 112.714844 200.753906 113.027344 C 200.4375 113.34375 200.074219 113.585938 199.664062 113.757812 C 199.25 113.925781 198.824219 114.011719 198.378906 114.011719 L 194.773438 114.011719 C 194.328125 114.011719 193.898438 113.925781 193.484375 113.757812 C 193.074219 113.585938 192.710938 113.34375 192.394531 113.027344 C 192.082031 112.714844 191.839844 112.351562 191.667969 111.9375 C 191.496094 111.527344 191.414062 111.097656 191.414062 110.652344 L 191.414062 100.285156 C 191.414062 99.839844 191.496094 99.410156 191.667969 99 C 191.839844 98.585938 192.082031 98.222656 192.394531 97.910156 C 192.710938 97.59375 193.074219 97.351562 193.484375 97.179688 C 193.898438 97.007812 194.328125 96.925781 194.773438 96.925781 Z M 194.773438 96.925781 " fill-opacity="1" fill-rule="nonzero"/><path fill="#e4e6ef" d="M 196.171875 100.375 L 197.980469 100.375 C 198.203125 100.375 198.417969 100.414062 198.625 100.5 C 198.828125 100.585938 199.011719 100.707031 199.167969 100.863281 C 199.324219 101.019531 199.445312 101.203125 199.53125 101.40625 C 199.617188 101.613281 199.660156 101.828125 199.660156 102.050781 L 199.660156 108.894531 C 199.660156 109.117188 199.617188 109.332031 199.53125 109.535156 C 199.445312 109.742188 199.324219 109.921875 199.167969 110.078125 C 199.011719 110.238281 198.828125 110.359375 198.625 110.441406 C 198.417969 110.527344 198.203125 110.570312 197.980469 110.570312 L 196.171875 110.570312 C 195.949219 110.570312 195.734375 110.527344 195.53125 110.441406 C 195.324219 110.359375 195.144531 110.238281 194.988281 110.078125 C 194.828125 109.921875 194.707031 109.742188 194.625 109.535156 C 194.539062 109.332031 194.496094 109.117188 194.496094 108.894531 L 194.496094 102.050781 C 194.496094 101.828125 194.539062 101.613281 194.625 101.40625 C 194.707031 101.203125 194.828125 101.019531 194.988281 100.863281 C 195.144531 100.707031 195.324219 100.585938 195.53125 100.5 C 195.734375 100.414062 195.949219 100.375 196.171875 100.375 Z M 196.171875 100.375 " fill-opacity="1" fill-rule="nonzero"/><path fill="#050a44" d="M 165.863281 82.59375 C 165.558594 82.59375 165.273438 82.429688 165.132812 82.160156 L 159.179688 71.496094 C 158.957031 71.09375 159.097656 70.578125 159.5 70.355469 C 159.902344 70.132812 160.417969 70.273438 160.640625 70.675781 L 165.855469 80.015625 L 170.972656 70.683594 C 171.195312 70.273438 171.710938 70.132812 172.113281 70.347656 C 172.523438 70.570312 172.671875 71.078125 172.449219 71.488281 L 166.601562 82.152344 C 166.453125 82.421875 166.175781 82.585938 165.871094 82.59375 Z M 165.863281 82.59375 " fill-opacity="1" fill-rule="nonzero"/><path fill="#050a44" d="M 94.367188 125.398438 L 101.425781 119.15625 C 101.769531 118.851562 102.160156 118.625 102.59375 118.476562 C 103.027344 118.324219 103.472656 118.265625 103.933594 118.292969 C 104.390625 118.320312 104.828125 118.4375 105.238281 118.636719 C 105.652344 118.839844 106.011719 119.113281 106.316406 119.457031 L 108.339844 121.742188 C 108.644531 122.085938 108.871094 122.476562 109.019531 122.910156 C 109.167969 123.34375 109.230469 123.792969 109.203125 124.25 C 109.171875 124.707031 109.058594 125.144531 108.855469 125.558594 C 108.65625 125.96875 108.382812 126.328125 108.039062 126.632812 L 100.980469 132.875 C 100.636719 133.179688 100.246094 133.40625 99.8125 133.554688 C 99.378906 133.707031 98.933594 133.765625 98.472656 133.738281 C 98.015625 133.710938 97.578125 133.59375 97.167969 133.394531 C 96.753906 133.191406 96.394531 132.917969 96.089844 132.574219 L 94.066406 130.289062 C 93.761719 129.945312 93.535156 129.554688 93.386719 129.121094 C 93.238281 128.6875 93.175781 128.238281 93.207031 127.78125 C 93.234375 127.324219 93.347656 126.886719 93.550781 126.472656 C 93.75 126.0625 94.023438 125.703125 94.367188 125.398438 Z M 94.367188 125.398438 " fill-opacity="1" fill-rule="nonzero"/><path fill="#050a44" d="M 210.882812 139.144531 C 210.882812 139.800781 210.820312 140.449219 210.691406 141.09375 C 210.5625 141.738281 210.375 142.363281 210.121094 142.96875 C 209.871094 143.578125 209.5625 144.152344 209.199219 144.699219 C 208.835938 145.242188 208.417969 145.75 207.957031 146.214844 C 207.492188 146.675781 206.988281 147.089844 206.441406 147.457031 C 205.894531 147.820312 205.320312 148.128906 204.710938 148.378906 C 204.105469 148.632812 203.480469 148.820312 202.835938 148.949219 C 202.195312 149.078125 201.542969 149.140625 200.886719 149.140625 C 200.230469 149.140625 199.582031 149.078125 198.9375 148.949219 C 198.292969 148.820312 197.667969 148.632812 197.0625 148.378906 C 196.457031 148.128906 195.878906 147.820312 195.332031 147.457031 C 194.789062 147.089844 194.28125 146.675781 193.820312 146.214844 C 193.355469 145.75 192.941406 145.242188 192.574219 144.699219 C 192.210938 144.152344 191.902344 143.578125 191.652344 142.96875 C 191.402344 142.363281 191.210938 141.738281 191.082031 141.09375 C 190.953125 140.449219 190.890625 139.800781 190.890625 139.144531 C 190.890625 138.488281 190.953125 137.839844 191.082031 137.195312 C 191.210938 136.550781 191.402344 135.925781 191.652344 135.320312 C 191.902344 134.710938 192.210938 134.136719 192.574219 133.589844 C 192.941406 133.046875 193.355469 132.539062 193.820312 132.074219 C 194.28125 131.613281 194.789062 131.199219 195.332031 130.832031 C 195.878906 130.46875 196.457031 130.160156 197.0625 129.910156 C 197.667969 129.65625 198.292969 129.46875 198.9375 129.339844 C 199.582031 129.210938 200.230469 129.148438 200.886719 129.148438 C 201.542969 129.148438 202.195312 129.210938 202.835938 129.339844 C 203.480469 129.46875 204.105469 129.65625 204.710938 129.910156 C 205.320312 130.160156 205.894531 130.46875 206.441406 130.832031 C 206.988281 131.199219 207.492188 131.613281 207.957031 132.074219 C 208.417969 132.539062 208.835938 133.046875 209.199219 133.589844 C 209.5625 134.136719 209.871094 134.710938 210.121094 135.320312 C 210.375 135.925781 210.5625 136.550781 210.691406 137.195312 C 210.820312 137.839844 210.882812 138.488281 210.882812 139.144531 Z M 210.882812 139.144531 " fill-opacity="1" fill-rule="nonzero"/><path fill="#0a21c0" d="M 184.007812 191.339844 C 181.492188 191.339844 179.34375 189.417969 179.105469 186.863281 C 178.855469 184.148438 180.851562 181.75 183.5625 181.507812 C 187.046875 181.1875 190.527344 180.476562 193.824219 179.421875 C 205.191406 175.777344 214.347656 168.046875 213.640625 158.078125 C 212.960938 148.515625 203.964844 145.164062 203.582031 145.023438 C 201.035156 144.105469 199.695312 141.296875 200.597656 138.742188 C 201.5 136.195312 204.269531 134.839844 206.832031 135.71875 C 207.464844 135.933594 222.332031 141.246094 223.472656 157.386719 C 224.851562 176.96875 204.402344 189.484375 184.460938 191.316406 C 184.3125 191.332031 184.15625 191.339844 184.007812 191.339844 Z M 184.007812 191.339844 " fill-opacity="1" fill-rule="nonzero"/><path fill="#050a44" d="M 183.5625 181.839844 C 183.390625 181.839844 183.242188 181.707031 183.226562 181.535156 C 183.210938 181.347656 183.34375 181.1875 183.53125 181.171875 C 187.003906 180.851562 190.429688 180.15625 193.730469 179.101562 C 193.894531 179.039062 194.09375 179.136719 194.152344 179.316406 C 194.214844 179.496094 194.109375 179.679688 193.9375 179.742188 C 190.59375 180.8125 187.121094 181.519531 183.597656 181.839844 C 183.582031 181.839844 183.578125 181.839844 183.570312 181.839844 Z M 183.5625 181.839844 " fill-opacity="1" fill-rule="nonzero"/><path fill="#e4e6ef" d="M 151.449219 189.609375 C 151.984375 191.347656 154.785156 190.59375 154.914062 190.5625 C 154.839844 190.617188 153.730469 191.347656 153.878906 192.277344 C 154.027344 193.238281 154.972656 193.46875 155.800781 193.363281 C 156.625 193.261719 161.347656 192.628906 162.0625 192.566406 L 162.242188 194.660156 C 162.242188 194.660156 167.488281 195.03125 175.902344 193.558594 L 174.824219 181.476562 C 174.824219 181.476562 170.785156 181.507812 169.175781 179.726562 C 167.613281 177.988281 166.28125 177.164062 163.21875 176.871094 C 160.164062 176.574219 155.039062 176.679688 153.355469 176.648438 C 149.722656 176.566406 150.132812 179.0625 152.523438 179.703125 C 154.914062 180.351562 158.539062 181.082031 158.539062 181.082031 C 158.539062 181.082031 154.308594 182.710938 152.582031 183.332031 C 149.460938 184.464844 150.703125 187.628906 153.742188 187.085938 C 153.742188 187.085938 150.890625 187.828125 151.449219 189.609375 Z M 151.449219 189.609375 " fill-opacity="1" fill-rule="nonzero"/><path fill="#050a44" d="M 163.910156 195.039062 C 162.832031 195.039062 162.242188 195.003906 162.226562 195.003906 C 162.0625 194.988281 161.929688 194.863281 161.914062 194.699219 L 161.765625 192.941406 C 160.933594 193.035156 159.046875 193.28125 157.601562 193.476562 C 156.789062 193.582031 156.113281 193.667969 155.84375 193.707031 C 154.621094 193.863281 153.707031 193.320312 153.550781 192.335938 C 153.476562 191.851562 153.65625 191.429688 153.898438 191.078125 C 152.78125 191.160156 151.5 190.914062 151.128906 189.714844 C 150.980469 189.230469 151.015625 188.769531 151.253906 188.34375 C 151.480469 187.949219 151.84375 187.628906 152.222656 187.390625 C 151.292969 187.152344 150.675781 186.527344 150.488281 185.828125 C 150.25 184.945312 150.628906 183.6875 152.460938 183.027344 C 153.632812 182.601562 155.972656 181.707031 157.347656 181.1875 C 156.082031 180.917969 153.988281 180.464844 152.433594 180.039062 C 151.09375 179.671875 150.214844 178.734375 150.347656 177.804688 C 150.398438 177.4375 150.742188 176.285156 153.355469 176.320312 C 153.78125 176.328125 154.421875 176.335938 155.195312 176.328125 C 157.46875 176.3125 160.945312 176.328125 163.25 176.546875 C 166.480469 176.851562 167.867188 177.78125 169.421875 179.507812 C 170.882812 181.125 174.628906 181.148438 174.816406 181.148438 L 174.824219 181.148438 C 174.996094 181.148438 175.144531 181.28125 175.160156 181.453125 L 176.238281 193.535156 C 176.253906 193.707031 176.136719 193.863281 175.964844 193.894531 C 170.347656 194.875 166.101562 195.039062 163.902344 195.039062 Z M 162.554688 194.339844 C 163.734375 194.386719 168.523438 194.480469 175.546875 193.28125 L 174.519531 181.8125 C 173.511719 181.78125 170.371094 181.550781 168.933594 179.957031 C 167.457031 178.324219 166.226562 177.5 163.1875 177.214844 C 160.917969 176.992188 157.453125 176.992188 155.203125 177 C 154.421875 177 153.78125 177 153.355469 177 C 153.304688 177 153.246094 177 153.191406 177 C 151.695312 177 151.085938 177.484375 151.023438 177.90625 C 150.949219 178.40625 151.53125 179.105469 152.617188 179.398438 C 154.972656 180.039062 158.578125 180.761719 158.617188 180.769531 C 158.765625 180.796875 158.867188 180.917969 158.882812 181.074219 C 158.898438 181.222656 158.808594 181.363281 158.667969 181.417969 C 158.621094 181.429688 154.414062 183.054688 152.699219 183.671875 C 151.546875 184.089844 150.933594 184.871094 151.152344 185.667969 C 151.351562 186.414062 152.277344 187.03125 153.691406 186.78125 C 153.871094 186.75 154.042969 186.863281 154.078125 187.039062 C 154.117188 187.21875 154.011719 187.390625 153.832031 187.433594 C 153.816406 187.433594 152.320312 187.835938 151.851562 188.6875 C 151.703125 188.949219 151.679688 189.222656 151.777344 189.527344 C 152.214844 190.949219 154.726562 190.28125 154.832031 190.257812 C 154.988281 190.222656 155.152344 190.289062 155.21875 190.4375 C 155.285156 190.585938 155.25 190.757812 155.113281 190.855469 C 154.859375 191.03125 154.109375 191.613281 154.207031 192.246094 C 154.347656 193.15625 155.425781 193.089844 155.753906 193.050781 C 156.023438 193.023438 156.695312 192.933594 157.503906 192.820312 C 159.203125 192.597656 161.535156 192.292969 162.027344 192.246094 C 162.132812 192.230469 162.207031 192.269531 162.273438 192.320312 C 162.339844 192.375 162.382812 192.464844 162.390625 192.550781 L 162.546875 194.363281 Z M 162.554688 194.339844 " fill-opacity="1" fill-rule="nonzero"/><path fill="#050a44" d="M 158.539062 181.425781 C 158.40625 181.425781 158.273438 181.34375 158.226562 181.199219 C 158.167969 181.023438 158.257812 180.835938 158.429688 180.769531 L 162.347656 179.367188 C 162.519531 179.308594 162.710938 179.398438 162.777344 179.570312 C 162.839844 179.746094 162.75 179.933594 162.578125 180 L 158.660156 181.402344 C 158.621094 181.417969 158.585938 181.425781 158.546875 181.425781 Z M 158.539062 181.425781 " fill-opacity="1" fill-rule="nonzero"/><path fill="#050a44" d="M 153.75 187.425781 C 153.601562 187.425781 153.46875 187.332031 153.421875 187.183594 C 153.378906 187.003906 153.484375 186.816406 153.660156 186.773438 L 163.261719 184.1875 C 163.449219 184.136719 163.628906 184.246094 163.671875 184.425781 C 163.71875 184.605469 163.613281 184.789062 163.433594 184.835938 L 153.832031 187.421875 C 153.832031 187.421875 153.773438 187.433594 153.742188 187.433594 Z M 153.75 187.425781 " fill-opacity="1" fill-rule="nonzero"/><path fill="#050a44" d="M 154.921875 190.898438 C 154.765625 190.898438 154.628906 190.792969 154.59375 190.636719 C 154.554688 190.460938 154.667969 190.28125 154.847656 190.234375 L 163.546875 188.292969 C 163.726562 188.253906 163.902344 188.367188 163.949219 188.546875 C 163.984375 188.722656 163.875 188.902344 163.695312 188.945312 L 154.996094 190.890625 C 154.996094 190.890625 154.941406 190.898438 154.921875 190.898438 Z M 154.921875 190.898438 " fill-opacity="1" fill-rule="nonzero"/><path fill="#e4e6ef" d="M 78.363281 177.902344 L 108.609375 177.902344 L 108.609375 196.589844 L 78.363281 196.589844 Z M 78.363281 177.902344 " fill-opacity="1" fill-rule="nonzero"/><path fill="#050a44" d="M 108.609375 196.925781 L 78.363281 196.925781 C 78.175781 196.925781 78.027344 196.777344 78.027344 196.589844 L 78.027344 177.902344 C 78.027344 177.714844 78.175781 177.566406 78.363281 177.566406 L 108.609375 177.566406 C 108.796875 177.566406 108.945312 177.714844 108.945312 177.902344 L 108.945312 196.589844 C 108.945312 196.777344 108.796875 196.925781 108.609375 196.925781 Z M 78.695312 196.253906 L 108.277344 196.253906 L 108.277344 178.234375 L 78.695312 178.234375 Z M 78.695312 196.253906 " fill-opacity="1" fill-rule="nonzero"/><path fill="#050a44" d="M 176.804688 178.777344 L 179.847656 178.507812 C 180.304688 178.464844 180.75 178.511719 181.191406 178.652344 C 181.628906 178.789062 182.023438 179.003906 182.375 179.296875 C 182.726562 179.59375 183.011719 179.945312 183.222656 180.351562 C 183.4375 180.757812 183.5625 181.191406 183.605469 181.648438 L 184.445312 191.03125 C 184.484375 191.492188 184.4375 191.9375 184.300781 192.375 C 184.160156 192.816406 183.945312 193.210938 183.652344 193.5625 C 183.355469 193.914062 183.007812 194.199219 182.597656 194.410156 C 182.191406 194.625 181.757812 194.75 181.300781 194.792969 L 178.261719 195.0625 C 177.804688 195.105469 177.355469 195.054688 176.917969 194.917969 C 176.476562 194.78125 176.082031 194.566406 175.730469 194.269531 C 175.378906 193.976562 175.09375 193.625 174.882812 193.21875 C 174.667969 192.8125 174.542969 192.378906 174.5 191.921875 L 173.664062 182.535156 C 173.621094 182.078125 173.667969 181.632812 173.808594 181.191406 C 173.945312 180.753906 174.160156 180.359375 174.453125 180.007812 C 174.75 179.652344 175.101562 179.371094 175.507812 179.160156 C 175.914062 178.945312 176.347656 178.820312 176.804688 178.777344 Z M 176.804688 178.777344 " fill-opacity="1" fill-rule="nonzero"/><path fill="#050a44" d="M 210.636719 150.167969 C 210.59375 150.167969 210.554688 150.160156 210.511719 150.144531 C 210.339844 150.078125 210.257812 149.878906 210.324219 149.707031 C 210.414062 149.484375 212.625 144.164062 217.183594 143.128906 C 217.363281 143.09375 217.542969 143.203125 217.585938 143.382812 C 217.625 143.5625 217.511719 143.742188 217.335938 143.785156 C 213.117188 144.738281 210.972656 149.902344 210.949219 149.960938 C 210.898438 150.09375 210.773438 150.167969 210.636719 150.167969 Z M 210.636719 150.167969 " fill-opacity="1" fill-rule="nonzero"/><path fill="#050a44" d="M 214.152344 159.644531 C 214.035156 159.644531 213.914062 159.578125 213.855469 159.464844 C 213.765625 159.300781 213.832031 159.101562 213.996094 159.011719 C 214.214844 158.898438 219.316406 156.269531 223.285156 158.421875 C 223.449219 158.511719 223.507812 158.710938 223.421875 158.875 C 223.332031 159.039062 223.121094 159.101562 222.964844 159.011719 C 219.316406 157.023438 214.363281 159.578125 214.308594 159.597656 C 214.257812 159.628906 214.207031 159.636719 214.152344 159.636719 Z M 214.152344 159.644531 " fill-opacity="1" fill-rule="nonzero"/><path fill="#050a44" d="M 216.835938 176.074219 C 216.6875 176.074219 216.550781 175.980469 216.515625 175.828125 C 215.09375 170.765625 209.914062 170.386719 209.691406 170.371094 C 209.503906 170.355469 209.363281 170.199219 209.378906 170.011719 C 209.386719 169.824219 209.550781 169.65625 209.738281 169.699219 C 209.796875 169.699219 215.613281 170.109375 217.164062 175.644531 C 217.214844 175.824219 217.109375 176.007812 216.933594 176.054688 C 216.902344 176.0625 216.871094 176.066406 216.84375 176.066406 Z M 216.835938 176.074219 " fill-opacity="1" fill-rule="nonzero"/><path fill="#050a44" d="M 205.015625 185.304688 C 205.015625 185.304688 205 185.304688 204.992188 185.304688 C 204.804688 185.289062 204.664062 185.132812 204.679688 184.945312 C 205 180.164062 200.828125 176.96875 200.78125 176.941406 C 200.632812 176.828125 200.605469 176.621094 200.714844 176.46875 C 200.828125 176.320312 201.035156 176.292969 201.183594 176.402344 C 201.371094 176.539062 205.683594 179.84375 205.339844 185 C 205.328125 185.179688 205.183594 185.3125 205.007812 185.3125 Z M 205.015625 185.304688 " fill-opacity="1" fill-rule="nonzero"/><path fill="#050a44" d="M 190.683594 190.25 C 190.683594 190.25 190.628906 190.25 190.601562 190.234375 C 190.421875 190.191406 190.308594 190.003906 190.363281 189.828125 C 191.5625 185.1875 188.851562 181.425781 188.820312 181.386719 C 188.707031 181.238281 188.746094 181.027344 188.886719 180.917969 C 189.035156 180.804688 189.246094 180.84375 189.355469 180.984375 C 189.476562 181.148438 192.292969 185.027344 191.003906 189.988281 C 190.964844 190.140625 190.824219 190.242188 190.675781 190.242188 Z M 190.683594 190.25 " fill-opacity="1" fill-rule="nonzero"/><path fill="#050a44" d="M 137.601562 160.730469 C 137.4375 160.730469 137.289062 160.605469 137.265625 160.433594 C 136.714844 155.992188 131.738281 154.011719 131.695312 153.996094 C 131.523438 153.929688 131.433594 153.738281 131.5 153.566406 C 131.570312 153.394531 131.761719 153.3125 131.933594 153.371094 C 132.15625 153.453125 137.328125 155.507812 137.929688 160.351562 C 137.953125 160.539062 137.824219 160.703125 137.640625 160.722656 C 137.625 160.722656 137.609375 160.722656 137.59375 160.722656 Z M 137.601562 160.730469 " fill-opacity="1" fill-rule="nonzero"/><path fill="#050a44" d="M 123.179688 167.1875 C 123.113281 167.1875 123.039062 167.167969 122.980469 167.121094 C 122.832031 167.011719 122.800781 166.800781 122.914062 166.652344 C 125.78125 162.832031 123.976562 157.886719 123.957031 157.832031 C 123.890625 157.664062 123.976562 157.46875 124.148438 157.402344 C 124.320312 157.335938 124.515625 157.425781 124.582031 157.59375 C 124.664062 157.8125 126.539062 162.929688 123.441406 167.054688 C 123.375 167.144531 123.277344 167.1875 123.171875 167.1875 Z M 123.179688 167.1875 " fill-opacity="1" fill-rule="nonzero"/><path fill="#050a44" d="M 112.449219 160.3125 C 112.304688 160.3125 112.179688 160.226562 112.128906 160.082031 C 112.066406 159.910156 112.15625 159.71875 112.335938 159.660156 C 117.683594 157.824219 118.480469 152.851562 118.480469 152.796875 C 118.511719 152.621094 118.675781 152.476562 118.859375 152.515625 C 119.039062 152.542969 119.171875 152.707031 119.144531 152.894531 C 119.136719 152.945312 118.292969 158.316406 112.542969 160.292969 C 112.507812 160.304688 112.46875 160.304688 112.433594 160.304688 Z M 112.449219 160.3125 " fill-opacity="1" fill-rule="nonzero"/><path fill="#050a44" d="M 107.5 150.25 C 107.34375 150.25 107.210938 150.144531 107.171875 149.988281 C 107.136719 149.8125 107.25 149.632812 107.425781 149.585938 C 113.824219 148.148438 114.882812 144.5 114.890625 144.464844 C 114.941406 144.285156 115.121094 144.1875 115.300781 144.222656 C 115.480469 144.269531 115.589844 144.457031 115.539062 144.632812 C 115.492188 144.796875 114.398438 148.707031 107.574219 150.242188 C 107.554688 150.242188 107.523438 150.25 107.5 150.25 Z M 107.5 150.25 " fill-opacity="1" fill-rule="nonzero"/><path fill="#050a44" d="M 103.726562 138.9375 C 103.554688 138.9375 103.40625 138.800781 103.390625 138.628906 C 103.375 138.445312 103.507812 138.28125 103.695312 138.265625 C 109.535156 137.789062 111.53125 133.796875 111.554688 133.757812 C 111.636719 133.59375 111.835938 133.519531 112 133.601562 C 112.164062 133.683594 112.238281 133.886719 112.15625 134.050781 C 112.074219 134.226562 109.988281 138.421875 103.746094 138.9375 C 103.738281 138.9375 103.726562 138.9375 103.71875 138.9375 Z M 103.726562 138.9375 " fill-opacity="1" fill-rule="nonzero"/><path fill="#050a44" d="M 117.238281 145.707031 C 117.238281 145.707031 117.164062 145.707031 117.125 145.691406 C 116.945312 145.632812 116.855469 145.4375 116.917969 145.265625 C 120.066406 136.113281 120.78125 123.992188 118.824219 112.835938 C 117.328125 104.292969 119.574219 97.402344 124.992188 93.9375 C 129.527344 91.03125 135.6875 91.085938 139.972656 94.058594 C 140.121094 94.160156 140.164062 94.371094 140.054688 94.527344 C 139.949219 94.675781 139.738281 94.71875 139.582031 94.609375 C 135.515625 91.785156 129.660156 91.738281 125.347656 94.503906 C 120.171875 97.816406 118.027344 104.457031 119.480469 112.722656 C 121.453125 123.984375 120.730469 136.230469 117.542969 145.492188 C 117.492188 145.632812 117.363281 145.714844 117.222656 145.714844 Z M 117.238281 145.707031 " fill-opacity="1" fill-rule="nonzero"/><path fill="#050a44" d="M 96.609375 162.957031 C 93.625 162.957031 91.03125 162.117188 89.011719 160.441406 C 86.078125 158.003906 84.617188 154.019531 85.289062 150.273438 C 86.660156 142.621094 87.359375 129.035156 76.589844 123.972656 C 71.949219 121.789062 67.480469 121.65625 63.671875 123.582031 C 59.679688 125.601562 56.722656 129.738281 55.769531 134.628906 C 54.183594 142.71875 48.820312 151.816406 32.246094 149.15625 C 17.402344 146.773438 14.859375 158.175781 14.757812 158.660156 C 14.71875 158.839844 14.546875 158.964844 14.363281 158.921875 C 14.183594 158.882812 14.0625 158.703125 14.101562 158.527344 C 14.121094 158.398438 16.855469 146.011719 32.351562 148.492188 C 48.394531 151.054688 53.578125 142.308594 55.105469 134.503906 C 56.105469 129.402344 59.195312 125.097656 63.367188 122.988281 C 67.367188 120.960938 72.039062 121.097656 76.871094 123.367188 C 88.046875 128.625 87.351562 142.554688 85.945312 150.390625 C 85.429688 153.265625 86.308594 157.335938 89.4375 159.925781 C 91.859375 161.929688 96.367188 163.695312 104.113281 160.753906 C 105.855469 160.089844 107.492188 159.105469 109 157.839844 C 109.140625 157.722656 109.355469 157.738281 109.46875 157.878906 C 109.585938 158.019531 109.570312 158.234375 109.429688 158.355469 C 107.875 159.671875 106.160156 160.6875 104.351562 161.378906 C 101.578125 162.4375 98.972656 162.957031 96.609375 162.957031 Z M 96.609375 162.957031 " fill-opacity="1" fill-rule="nonzero"/><path fill="#050a44" d="M 12.363281 143.367188 C 12.328125 143.367188 12.28125 143.359375 12.246094 143.34375 C 12.074219 143.277344 11.984375 143.085938 12.050781 142.914062 C 12.691406 141.253906 13.601562 139.785156 14.769531 138.570312 C 18.027344 135.160156 19.664062 130.527344 19.398438 125.511719 C 19.144531 120.828125 19.867188 116.378906 21.527344 112.300781 C 23.910156 106.464844 29.488281 102.980469 35.082031 103.792969 C 39.195312 104.394531 43.84375 107.734375 44.558594 115.285156 C 45.996094 130.347656 56.171875 130.101562 56.597656 130.070312 C 56.789062 130.070312 56.9375 130.207031 56.945312 130.390625 C 56.953125 130.578125 56.8125 130.734375 56.625 130.742188 C 56.515625 130.742188 45.386719 131.054688 43.886719 115.34375 C 43.308594 109.261719 39.976562 105.191406 34.980469 104.457031 C 29.691406 103.671875 24.410156 107.003906 22.144531 112.542969 C 20.515625 116.539062 19.8125 120.878906 20.058594 125.46875 C 20.34375 130.667969 18.628906 135.480469 15.246094 139.023438 C 14.144531 140.179688 13.28125 141.566406 12.671875 143.144531 C 12.617188 143.277344 12.492188 143.359375 12.359375 143.359375 Z M 12.363281 143.367188 " fill-opacity="1" fill-rule="nonzero"/><path fill="#050a44" d="M 15.046875 96.367188 C 13.734375 96.367188 12.492188 95.300781 12.28125 93.988281 C 12.179688 93.328125 12.34375 92.699219 12.746094 92.222656 C 13.140625 91.753906 13.722656 91.5 14.375 91.5 C 15.6875 91.5 16.929688 92.566406 17.140625 93.878906 C 17.242188 94.539062 17.082031 95.167969 16.679688 95.644531 C 16.28125 96.113281 15.703125 96.367188 15.046875 96.367188 Z M 14.375 92.179688 C 13.921875 92.179688 13.527344 92.351562 13.257812 92.664062 C 12.984375 92.984375 12.878906 93.417969 12.953125 93.886719 C 13.117188 94.882812 14.054688 95.695312 15.054688 95.695312 C 15.507812 95.695312 15.902344 95.523438 16.171875 95.210938 C 16.445312 94.890625 16.550781 94.457031 16.476562 93.988281 C 16.3125 92.992188 15.375 92.179688 14.375 92.179688 Z M 14.375 92.179688 " fill-opacity="1" fill-rule="nonzero"/><path fill="#e4e6ef" d="M 23.722656 93.9375 C 23.910156 95.09375 23.121094 96.03125 21.964844 96.03125 C 20.8125 96.03125 19.71875 95.09375 19.53125 93.9375 C 19.34375 92.78125 20.132812 91.84375 21.289062 91.84375 C 22.441406 91.84375 23.539062 92.78125 23.722656 93.9375 Z M 23.722656 93.9375 " fill-opacity="1" fill-rule="nonzero"/><path fill="#050a44" d="M 21.964844 96.367188 C 20.65625 96.367188 19.410156 95.300781 19.203125 93.988281 C 19.097656 93.328125 19.261719 92.699219 19.664062 92.222656 C 20.058594 91.753906 20.640625 91.5 21.296875 91.5 C 22.605469 91.5 23.851562 92.566406 24.058594 93.878906 C 24.164062 94.539062 24 95.167969 23.597656 95.644531 C 23.203125 96.113281 22.621094 96.367188 21.964844 96.367188 Z M 21.289062 92.179688 C 20.835938 92.179688 20.441406 92.351562 20.171875 92.664062 C 19.894531 92.984375 19.792969 93.417969 19.867188 93.886719 C 20.03125 94.882812 20.96875 95.695312 21.964844 95.695312 C 22.421875 95.695312 22.816406 95.523438 23.082031 95.210938 C 23.359375 94.890625 23.464844 94.457031 23.390625 93.988281 C 23.226562 92.992188 22.285156 92.179688 21.289062 92.179688 Z M 21.289062 92.179688 " fill-opacity="1" fill-rule="nonzero"/><path fill="#0a21c0" d="M 30.644531 93.9375 C 30.832031 95.09375 30.042969 96.03125 28.886719 96.03125 C 27.730469 96.03125 26.636719 95.09375 26.449219 93.9375 C 26.265625 92.78125 27.054688 91.84375 28.207031 91.84375 C 29.363281 91.84375 30.457031 92.78125 30.644531 93.9375 Z M 30.644531 93.9375 " fill-opacity="1" fill-rule="nonzero"/><path fill="#0a21c0" d="M 76.597656 96.066406 C 75.480469 102.160156 69.921875 105.429688 64.171875 103.398438 C 58.421875 101.355469 54.660156 94.785156 55.777344 88.714844 C 55.894531 88.015625 56.089844 87.332031 56.359375 86.703125 L 74.652344 86.703125 C 76.402344 89.46875 77.175781 92.84375 76.597656 96.066406 Z M 76.597656 96.066406 " fill-opacity="1" fill-rule="nonzero"/><path fill="#050a44" d="M 37.558594 93.9375 C 37.742188 95.09375 36.953125 96.03125 35.800781 96.03125 C 34.644531 96.03125 33.550781 95.09375 33.363281 93.9375 C 33.175781 92.78125 33.964844 91.84375 35.121094 91.84375 C 36.277344 91.84375 37.371094 92.78125 37.558594 93.9375 Z M 37.558594 93.9375 " fill-opacity="1" fill-rule="nonzero"/><path fill="#050a44" d="M 83.121094 173.132812 L 49.566406 173.132812 C 45.09375 166.316406 45.3125 154.90625 52.976562 150.496094 C 62.769531 144.84375 73.09375 150.242188 75.105469 161.058594 C 76.507812 168.589844 80.699219 171.835938 83.128906 173.140625 Z M 83.121094 173.132812 " fill-opacity="1" fill-rule="nonzero"/><path fill="#e4e6ef" d="M 108.789062 36.238281 L 59.1875 36.238281 L 54.75 28.367188 L 55.03125 36.238281 L 48.78125 36.238281 L 52.34375 63.570312 L 112.351562 63.570312 Z M 108.789062 36.238281 " fill-opacity="1" fill-rule="nonzero"/><path fill="#050a44" d="M 112.351562 63.902344 L 52.34375 63.902344 C 52.171875 63.902344 52.03125 63.777344 52.007812 63.613281 L 48.445312 36.285156 C 48.433594 36.1875 48.460938 36.089844 48.527344 36.015625 C 48.597656 35.941406 48.683594 35.902344 48.78125 35.902344 L 54.683594 35.902344 L 54.414062 28.378906 C 54.414062 28.222656 54.511719 28.089844 54.660156 28.046875 C 54.808594 28 54.964844 28.066406 55.046875 28.203125 L 59.390625 35.902344 L 108.796875 35.902344 C 108.96875 35.902344 109.109375 36.03125 109.132812 36.195312 L 112.691406 63.523438 C 112.707031 63.621094 112.679688 63.71875 112.609375 63.792969 C 112.542969 63.867188 112.453125 63.902344 112.359375 63.902344 Z M 52.640625 63.234375 L 111.972656 63.234375 L 108.492188 36.574219 L 59.179688 36.574219 C 59.0625 36.574219 58.949219 36.507812 58.890625 36.402344 L 55.128906 29.730469 L 55.359375 36.222656 C 55.359375 36.3125 55.328125 36.402344 55.261719 36.46875 C 55.203125 36.535156 55.113281 36.574219 55.023438 36.574219 L 49.164062 36.574219 Z M 52.640625 63.234375 " fill-opacity="1" fill-rule="nonzero"/><path fill="#050a44" d="M 98.472656 45.011719 L 92.6875 45.011719 C 92.5 45.011719 92.351562 44.863281 92.351562 44.679688 C 92.351562 44.492188 92.5 44.34375 92.6875 44.34375 L 98.472656 44.34375 C 98.660156 44.34375 98.808594 44.492188 98.808594 44.679688 C 98.808594 44.863281 98.660156 45.011719 98.472656 45.011719 Z M 98.472656 45.011719 " fill-opacity="1" fill-rule="nonzero"/><path fill="#050a44" d="M 88.835938 45.011719 L 55.628906 45.011719 C 55.441406 45.011719 55.292969 44.863281 55.292969 44.679688 C 55.292969 44.492188 55.441406 44.34375 55.628906 44.34375 L 88.835938 44.34375 C 89.019531 44.34375 89.167969 44.492188 89.167969 44.679688 C 89.167969 44.863281 89.019531 45.011719 88.835938 45.011719 Z M 88.835938 45.011719 " fill-opacity="1" fill-rule="nonzero"/><path fill="#050a44" d="M 103.089844 50.292969 L 67.710938 50.292969 C 67.523438 50.292969 67.375 50.144531 67.375 49.960938 C 67.375 49.773438 67.523438 49.625 67.710938 49.625 L 103.089844 49.625 C 103.277344 49.625 103.425781 49.773438 103.425781 49.960938 C 103.425781 50.144531 103.277344 50.292969 103.089844 50.292969 Z M 103.089844 50.292969 " fill-opacity="1" fill-rule="nonzero"/><path fill="#050a44" d="M 64.097656 50.292969 L 56.296875 50.292969 C 56.113281 50.292969 55.964844 50.144531 55.964844 49.960938 C 55.964844 49.773438 56.113281 49.625 56.296875 49.625 L 64.097656 49.625 C 64.285156 49.625 64.433594 49.773438 64.433594 49.960938 C 64.433594 50.144531 64.285156 50.292969 64.097656 50.292969 Z M 64.097656 50.292969 " fill-opacity="1" fill-rule="nonzero"/><path fill="#050a44" d="M 103.84375 55.65625 L 85.058594 55.65625 C 84.871094 55.65625 84.722656 55.507812 84.722656 55.324219 C 84.722656 55.136719 84.871094 54.988281 85.058594 54.988281 L 103.84375 54.988281 C 104.03125 54.988281 104.179688 55.136719 104.179688 55.324219 C 104.179688 55.507812 104.03125 55.65625 103.84375 55.65625 Z M 103.84375 55.65625 " fill-opacity="1" fill-rule="nonzero"/><path fill="#050a44" d="M 81.625 55.65625 L 57.058594 55.65625 C 56.871094 55.65625 56.722656 55.507812 56.722656 55.324219 C 56.722656 55.136719 56.871094 54.988281 57.058594 54.988281 L 81.625 54.988281 C 81.808594 54.988281 81.960938 55.136719 81.960938 55.324219 C 81.960938 55.507812 81.808594 55.65625 81.625 55.65625 Z M 81.625 55.65625 " fill-opacity="1" fill-rule="nonzero"/><path fill="#e4e6ef" d="M 148.855469 69.265625 L 151.925781 69.265625 L 148.367188 41.945312 L 102.109375 41.945312 L 105.675781 69.265625 L 144.84375 69.265625 L 149.601562 73.578125 Z M 148.855469 69.265625 " fill-opacity="1" fill-rule="nonzero"/><path fill="#050a44" d="M 149.601562 73.914062 C 149.519531 73.914062 149.4375 73.886719 149.378906 73.824219 L 144.707031 69.601562 L 105.667969 69.601562 C 105.496094 69.601562 105.355469 69.476562 105.332031 69.3125 L 101.773438 41.980469 C 101.757812 41.886719 101.789062 41.789062 101.855469 41.714844 C 101.921875 41.640625 102.011719 41.601562 102.109375 41.601562 L 148.367188 41.601562 C 148.535156 41.601562 148.679688 41.730469 148.699219 41.894531 L 152.261719 69.222656 C 152.277344 69.320312 152.246094 69.414062 152.179688 69.492188 C 152.113281 69.566406 152.023438 69.601562 151.925781 69.601562 L 149.253906 69.601562 L 149.929688 73.519531 C 149.953125 73.660156 149.886719 73.804688 149.757812 73.871094 C 149.707031 73.898438 149.65625 73.914062 149.59375 73.914062 Z M 105.96875 68.933594 L 144.84375 68.933594 C 144.925781 68.933594 145.007812 68.960938 145.066406 69.019531 L 149.109375 72.679688 L 148.53125 69.328125 C 148.515625 69.230469 148.535156 69.125 148.605469 69.050781 C 148.671875 68.976562 148.761719 68.933594 148.863281 68.933594 L 151.554688 68.933594 L 148.082031 42.273438 L 102.503906 42.273438 L 105.980469 68.933594 Z M 105.96875 68.933594 " fill-opacity="1" fill-rule="nonzero"/><path fill="#0a21c0" d="M 145.199219 63.351562 L 110.851562 63.351562 L 108.84375 47.84375 L 143.175781 47.84375 L 145.117188 62.742188 Z M 145.199219 63.351562 " fill-opacity="1" fill-rule="nonzero"/><path fill="#e4e6ef" d="M 145.199219 63.351562 L 111.738281 63.351562 L 114.21875 57.207031 C 115.023438 55.179688 117.648438 54.621094 119.203125 56.164062 L 123.84375 60.707031 C 124.804688 61.65625 126.421875 61.3125 126.929688 60.066406 L 129.59375 53.46875 C 130.398438 51.441406 133.007812 50.90625 134.5625 52.425781 L 145.125 62.75 L 145.207031 63.359375 Z M 145.199219 63.351562 " fill-opacity="1" fill-rule="nonzero"/><path fill="#e4e6ef" d="M 125.101562 51.917969 C 125.257812 53.117188 124.417969 54.085938 123.21875 54.085938 C 122.019531 54.085938 120.925781 53.117188 120.761719 51.917969 C 120.605469 50.71875 121.445312 49.75 122.644531 49.75 C 123.84375 49.75 124.9375 50.71875 125.101562 51.917969 Z M 125.101562 51.917969 " fill-opacity="1" fill-rule="nonzero"/><path fill="#050a44" d="M 24.8125 63.078125 C 25 64.230469 24.207031 65.171875 23.054688 65.171875 C 21.898438 65.171875 20.804688 64.230469 20.617188 63.078125 C 20.433594 61.921875 21.222656 60.984375 22.375 60.984375 C 23.53125 60.984375 24.625 61.921875 24.8125 63.078125 Z M 24.8125 63.078125 " fill-opacity="1" fill-rule="nonzero"/><path fill="#050a44" d="M 37.394531 56.1875 L 11.859375 56.1875 C 11.671875 56.1875 11.523438 56.039062 11.523438 55.851562 C 11.523438 55.664062 11.671875 55.515625 11.859375 55.515625 L 37.394531 55.515625 C 37.578125 55.515625 37.726562 55.664062 37.726562 55.851562 C 37.726562 56.039062 37.578125 56.1875 37.394531 56.1875 Z M 37.394531 56.1875 " fill-opacity="1" fill-rule="nonzero"/><path fill="#050a44" d="M 39.738281 63.398438 L 14.210938 63.398438 C 14.027344 63.398438 13.878906 63.25 13.878906 63.0625 C 13.878906 62.875 14.027344 62.726562 14.210938 62.726562 L 39.746094 62.726562 C 39.933594 62.726562 40.082031 62.875 40.082031 63.0625 C 40.082031 63.25 39.933594 63.398438 39.746094 63.398438 Z M 39.738281 63.398438 " fill-opacity="1" fill-rule="nonzero"/><path fill="#050a44" d="M 42.085938 70.609375 L 16.558594 70.609375 C 16.371094 70.609375 16.222656 70.457031 16.222656 70.273438 C 16.222656 70.085938 16.371094 69.9375 16.558594 69.9375 L 42.09375 69.9375 C 42.28125 69.9375 42.429688 70.085938 42.429688 70.273438 C 42.429688 70.457031 42.28125 70.609375 42.09375 70.609375 Z M 42.085938 70.609375 " fill-opacity="1" fill-rule="nonzero"/><path fill="#0a21c0" d="M 36.261719 70.296875 C 36.445312 71.449219 35.65625 72.386719 34.503906 72.386719 C 33.347656 72.386719 32.253906 71.449219 32.066406 70.296875 C 31.882812 69.140625 32.671875 68.203125 33.824219 68.203125 C 34.980469 68.203125 36.074219 69.140625 36.261719 70.296875 Z M 36.261719 70.296875 " fill-opacity="1" fill-rule="nonzero"/><path fill="#e4e6ef" d="M 32.527344 55.679688 C 32.714844 56.835938 31.925781 57.773438 30.769531 57.773438 C 29.617188 57.773438 28.523438 56.835938 28.335938 55.679688 C 28.148438 54.527344 28.9375 53.585938 30.09375 53.585938 C 31.246094 53.585938 32.34375 54.527344 32.527344 55.679688 Z M 32.527344 55.679688 " fill-opacity="1" fill-rule="nonzero"/><path fill="#050a44" d="M 30.769531 58.117188 C 29.460938 58.117188 28.214844 57.050781 28.007812 55.738281 C 27.902344 55.078125 28.066406 54.453125 28.46875 53.972656 C 28.863281 53.503906 29.445312 53.253906 30.101562 53.253906 C 31.410156 53.253906 32.65625 54.316406 32.863281 55.628906 C 32.96875 56.292969 32.804688 56.917969 32.402344 57.394531 C 32.007812 57.863281 31.425781 58.117188 30.769531 58.117188 Z M 30.09375 53.921875 C 29.640625 53.921875 29.242188 54.09375 28.976562 54.40625 C 28.699219 54.726562 28.597656 55.160156 28.671875 55.628906 C 28.835938 56.625 29.773438 57.4375 30.769531 57.4375 C 31.226562 57.4375 31.621094 57.265625 31.886719 56.953125 C 32.164062 56.632812 32.269531 56.203125 32.195312 55.734375 C 32.03125 54.734375 31.089844 53.921875 30.09375 53.921875 Z M 30.09375 53.921875 " fill-opacity="1" fill-rule="nonzero"/></svg>