<svg xmlns="http://www.w3.org/2000/svg" xmlns:xlink="http://www.w3.org/1999/xlink" width="100" zoomAndPan="magnify" viewBox="0 0 75 74.999997" height="100" preserveAspectRatio="xMidYMid meet" version="1.0"><defs><clipPath id="adbdc0006a"><path d="M 54 7.625 L 60 7.625 L 60 12 L 54 12 Z M 54 7.625 " clip-rule="nonzero"/></clipPath><clipPath id="d24481a189"><path d="M 10 32 L 64 32 L 64 67.625 L 10 67.625 Z M 10 32 " clip-rule="nonzero"/></clipPath><clipPath id="ea85211126"><path d="M 0 67 L 74 67 L 74 67.625 L 0 67.625 Z M 0 67 " clip-rule="nonzero"/></clipPath></defs><path fill="#0a21c0" d="M 39.253906 39.796875 L 39.144531 39.789062 C 39.085938 39.785156 39.023438 39.785156 38.964844 39.78125 C 38.789062 39.777344 38.578125 39.769531 38.339844 39.734375 C 37.921875 39.6875 37.546875 39.582031 37.214844 39.492188 C 37.09375 39.457031 36.96875 39.421875 36.84375 39.394531 L 36.722656 39.359375 C 35.890625 39.074219 34.808594 38.660156 33.851562 37.972656 C 32.152344 36.824219 30.75 35.078125 29.933594 33.074219 C 29.644531 32.371094 29.984375 31.5625 30.6875 31.277344 C 31.390625 30.988281 32.199219 31.324219 32.488281 32.03125 C 33.101562 33.535156 34.144531 34.839844 35.429688 35.707031 C 36.105469 36.191406 36.878906 36.492188 37.558594 36.726562 C 37.6875 36.757812 37.816406 36.792969 37.949219 36.828125 C 38.210938 36.902344 38.460938 36.972656 38.675781 36.992188 L 38.773438 37.007812 C 38.859375 37.019531 38.953125 37.019531 39.042969 37.019531 C 39.097656 37.019531 39.152344 37.023438 39.207031 37.027344 C 39.269531 37.019531 39.332031 37.019531 39.398438 37.015625 C 39.476562 37.011719 39.585938 37.007812 39.625 37 L 39.722656 36.980469 C 40.363281 36.886719 41.015625 36.597656 41.675781 36.132812 C 42.257812 35.726562 42.816406 35.191406 43.441406 34.449219 C 44.441406 33.230469 45.324219 31.773438 46.117188 30.007812 C 46.429688 29.3125 47.246094 29 47.941406 29.316406 C 48.636719 29.628906 48.949219 30.445312 48.632812 31.140625 C 47.734375 33.132812 46.730469 34.792969 45.5625 36.214844 C 44.765625 37.160156 44.039062 37.847656 43.265625 38.386719 C 42.273438 39.09375 41.230469 39.539062 40.175781 39.703125 C 39.929688 39.753906 39.710938 39.761719 39.535156 39.773438 C 39.476562 39.777344 39.417969 39.777344 39.359375 39.785156 L 39.253906 39.792969 Z M 39.253906 39.796875 " fill-opacity="1" fill-rule="nonzero"/><path fill="#050a44" d="M 47.851562 32.8125 C 47.832031 32.8125 47.816406 32.804688 47.796875 32.796875 L 45.351562 31.5 C 45.296875 31.472656 45.273438 31.40625 45.304688 31.351562 C 45.335938 31.296875 45.402344 31.277344 45.453125 31.304688 L 47.902344 32.605469 C 47.957031 32.632812 47.976562 32.699219 47.949219 32.753906 C 47.925781 32.792969 47.890625 32.8125 47.851562 32.8125 Z M 47.851562 32.8125 " fill-opacity="1" fill-rule="nonzero"/><path fill="#050a44" d="M 46.027344 35.707031 C 46.003906 35.707031 45.980469 35.699219 45.960938 35.683594 L 43.746094 34.011719 C 43.699219 33.976562 43.691406 33.910156 43.726562 33.859375 C 43.761719 33.8125 43.828125 33.796875 43.878906 33.835938 L 46.09375 35.507812 C 46.140625 35.542969 46.152344 35.609375 46.113281 35.660156 C 46.09375 35.6875 46.058594 35.707031 46.027344 35.707031 Z M 46.027344 35.707031 " fill-opacity="1" fill-rule="nonzero"/><path fill="#050a44" d="M 43.542969 38.273438 C 43.511719 38.273438 43.476562 38.257812 43.453125 38.230469 L 41.773438 36.027344 C 41.734375 35.980469 41.746094 35.910156 41.792969 35.875 C 41.839844 35.835938 41.90625 35.847656 41.949219 35.894531 L 43.628906 38.097656 C 43.667969 38.144531 43.65625 38.214844 43.609375 38.25 C 43.589844 38.265625 43.566406 38.273438 43.542969 38.273438 Z M 43.542969 38.273438 " fill-opacity="1" fill-rule="nonzero"/><path fill="#050a44" d="M 39.984375 39.828125 C 39.929688 39.828125 39.882812 39.789062 39.875 39.734375 L 39.511719 36.984375 C 39.503906 36.925781 39.546875 36.871094 39.605469 36.859375 C 39.664062 36.855469 39.71875 36.894531 39.730469 36.957031 L 40.09375 39.703125 C 40.101562 39.761719 40.058594 39.820312 40 39.828125 C 39.996094 39.828125 39.988281 39.828125 39.984375 39.828125 Z M 39.984375 39.828125 " fill-opacity="1" fill-rule="nonzero"/><path fill="#050a44" d="M 36.191406 39.261719 C 36.175781 39.261719 36.164062 39.261719 36.152344 39.257812 C 36.09375 39.234375 36.066406 39.171875 36.085938 39.113281 L 37.046875 36.511719 C 37.066406 36.457031 37.128906 36.425781 37.191406 36.449219 C 37.246094 36.46875 37.277344 36.535156 37.253906 36.589844 L 36.296875 39.191406 C 36.277344 39.234375 36.238281 39.261719 36.191406 39.261719 Z M 36.191406 39.261719 " fill-opacity="1" fill-rule="nonzero"/><path fill="#050a44" d="M 33.011719 37.429688 C 32.988281 37.429688 32.960938 37.421875 32.941406 37.402344 C 32.890625 37.363281 32.886719 37.292969 32.925781 37.25 L 34.71875 35.132812 C 34.757812 35.089844 34.828125 35.082031 34.871094 35.121094 C 34.921875 35.160156 34.925781 35.230469 34.886719 35.277344 L 33.09375 37.390625 C 33.074219 37.417969 33.042969 37.429688 33.011719 37.429688 Z M 33.011719 37.429688 " fill-opacity="1" fill-rule="nonzero"/><path fill="#050a44" d="M 30.664062 34.625 C 30.628906 34.625 30.589844 34.605469 30.570312 34.570312 C 30.539062 34.519531 30.558594 34.449219 30.609375 34.421875 L 33 33.019531 C 33.050781 32.988281 33.121094 33.007812 33.148438 33.058594 C 33.179688 33.109375 33.164062 33.179688 33.109375 33.207031 L 30.71875 34.609375 C 30.703125 34.621094 30.683594 34.625 30.664062 34.625 Z M 30.664062 34.625 " fill-opacity="1" fill-rule="nonzero"/><path fill="#050a44" d="M 28.371094 30.4375 L 32.65625 30.4375 C 33.289062 30.4375 33.796875 30.945312 33.796875 31.574219 L 33.796875 33.304688 C 33.796875 33.933594 33.289062 34.445312 32.65625 34.445312 L 28.371094 34.445312 C 27.738281 34.445312 27.230469 33.933594 27.230469 33.304688 L 27.230469 31.574219 C 27.230469 30.945312 27.738281 30.4375 28.371094 30.4375 Z M 28.371094 30.4375 " fill-opacity="1" fill-rule="nonzero"/><path fill="#050a44" d="M 52.492188 29.378906 C 52.261719 31.195312 50.601562 32.484375 48.78125 32.25 C 46.964844 32.019531 45.675781 30.359375 45.910156 28.542969 C 46.140625 26.722656 47.800781 25.4375 49.621094 25.667969 C 51.4375 25.898438 52.726562 27.5625 52.492188 29.378906 Z M 52.492188 29.378906 " fill-opacity="1" fill-rule="nonzero"/><path fill="#0a21c0" d="M 59.035156 45.257812 L 52.136719 44.382812 C 48.324219 43.898438 45.753906 40.433594 46.398438 36.640625 L 47.683594 29.042969 C 48.023438 27.054688 49.914062 25.652344 51.910156 25.902344 L 64.722656 27.53125 C 67.699219 27.910156 69.703125 30.613281 69.199219 33.570312 L 68.398438 38.304688 C 67.652344 42.707031 63.457031 45.820312 59.03125 45.257812 Z M 59.035156 45.257812 " fill-opacity="1" fill-rule="nonzero"/><path fill="#050a44" d="M 60.460938 32.199219 L 52.058594 31.132812 C 51.785156 31.097656 51.601562 30.847656 51.644531 30.574219 C 51.691406 30.300781 51.953125 30.105469 52.226562 30.140625 L 60.628906 31.207031 C 60.90625 31.242188 61.089844 31.492188 61.046875 31.765625 C 60.996094 32.039062 60.738281 32.234375 60.460938 32.199219 Z M 60.460938 32.199219 " fill-opacity="1" fill-rule="nonzero"/><path fill="#050a44" d="M 60.066406 34.535156 L 51.664062 33.46875 C 51.386719 33.433594 51.203125 33.183594 51.246094 32.910156 C 51.296875 32.636719 51.554688 32.445312 51.828125 32.480469 L 60.234375 33.546875 C 60.507812 33.582031 60.691406 33.832031 60.648438 34.105469 C 60.601562 34.375 60.339844 34.570312 60.066406 34.535156 Z M 60.066406 34.535156 " fill-opacity="1" fill-rule="nonzero"/><path fill="#050a44" d="M 59.671875 36.875 L 51.265625 35.808594 C 50.992188 35.773438 50.808594 35.523438 50.851562 35.25 C 50.898438 34.980469 51.160156 34.785156 51.433594 34.820312 L 59.835938 35.886719 C 60.113281 35.921875 60.296875 36.171875 60.253906 36.445312 C 60.203125 36.714844 59.945312 36.910156 59.671875 36.875 Z M 59.671875 36.875 " fill-opacity="1" fill-rule="nonzero"/><path fill="#050a44" d="M 59.601562 28.472656 C 58.71875 28.570312 57.816406 28.445312 56.886719 28.097656 C 56.261719 27.867188 55.890625 27.214844 55.976562 26.554688 L 56.371094 23.441406 L 61.226562 24.058594 L 60.824219 27.214844 C 60.742188 27.859375 60.246094 28.402344 59.601562 28.472656 Z M 59.601562 28.472656 " fill-opacity="1" fill-rule="nonzero"/><path fill="#050a44" d="M 54.042969 11.144531 L 59.601562 11.066406 C 59.746094 11.0625 59.882812 11.089844 60.015625 11.140625 C 60.148438 11.195312 60.265625 11.269531 60.367188 11.371094 C 60.46875 11.46875 60.546875 11.582031 60.605469 11.714844 C 60.660156 11.847656 60.691406 11.984375 60.691406 12.125 L 60.707031 13.144531 C 60.707031 13.289062 60.683594 13.425781 60.628906 13.558594 C 60.578125 13.691406 60.5 13.808594 60.402344 13.910156 C 60.304688 14.011719 60.1875 14.089844 60.058594 14.148438 C 59.925781 14.203125 59.789062 14.234375 59.648438 14.234375 L 54.085938 14.3125 C 53.945312 14.316406 53.808594 14.289062 53.675781 14.238281 C 53.542969 14.183594 53.425781 14.109375 53.324219 14.007812 C 53.21875 13.910156 53.140625 13.796875 53.085938 13.664062 C 53.027344 13.535156 53 13.394531 52.996094 13.253906 L 52.984375 12.234375 C 52.980469 12.089844 53.007812 11.953125 53.058594 11.820312 C 53.113281 11.6875 53.1875 11.570312 53.285156 11.46875 C 53.386719 11.367188 53.5 11.289062 53.632812 11.230469 C 53.761719 11.175781 53.898438 11.144531 54.042969 11.144531 Z M 54.042969 11.144531 " fill-opacity="1" fill-rule="nonzero"/><path fill="#0a21c0" d="M 68.269531 16.832031 L 68.339844 21.710938 C 68.375 24.234375 66.351562 26.316406 63.820312 26.351562 L 52.304688 26.511719 C 49.921875 26.546875 47.941406 24.757812 47.6875 22.441406 C 47.671875 22.304688 47.660156 22.148438 47.65625 22 L 47.585938 17.125 C 47.585938 16.976562 47.59375 16.820312 47.605469 16.683594 C 47.792969 14.359375 49.71875 12.515625 52.109375 12.484375 L 63.621094 12.320312 C 66.15625 12.285156 68.234375 14.308594 68.273438 16.832031 Z M 68.269531 16.832031 " fill-opacity="1" fill-rule="nonzero"/><path fill="#050a44" d="M 62.929688 18.230469 L 62.960938 20.46875 C 62.988281 22.375 61.464844 23.945312 59.558594 23.972656 L 50.671875 24.097656 C 49.410156 24.113281 48.292969 23.453125 47.683594 22.445312 C 47.667969 22.304688 47.65625 22.152344 47.65625 22.003906 L 47.585938 17.125 C 47.585938 16.980469 47.589844 16.824219 47.601562 16.6875 C 48.183594 15.660156 49.28125 14.96875 50.542969 14.949219 L 59.425781 14.824219 C 61.332031 14.796875 62.902344 16.324219 62.929688 18.230469 Z M 62.929688 18.230469 " fill-opacity="1" fill-rule="nonzero"/><path fill="#ffffff" d="M 56.410156 21.121094 C 56.417969 21.707031 55.949219 22.195312 55.359375 22.199219 C 54.773438 22.207031 54.289062 21.738281 54.28125 21.152344 C 54.273438 20.5625 54.742188 20.078125 55.328125 20.070312 C 55.917969 20.0625 56.402344 20.535156 56.410156 21.121094 Z M 56.410156 21.121094 " fill-opacity="1" fill-rule="nonzero"/><path fill="#ffffff" d="M 53.195312 22.449219 C 53.203125 23.035156 52.734375 23.519531 52.144531 23.527344 C 51.558594 23.535156 51.074219 23.066406 51.066406 22.480469 Z M 53.195312 22.449219 " fill-opacity="1" fill-rule="nonzero"/><path fill="#ffffff" d="M 50.226562 21.207031 C 50.234375 21.796875 49.761719 22.28125 49.175781 22.289062 C 48.585938 22.296875 48.101562 21.824219 48.09375 21.238281 C 48.085938 20.652344 48.558594 20.167969 49.144531 20.160156 C 49.734375 20.152344 50.21875 20.621094 50.226562 21.207031 Z M 50.226562 21.207031 " fill-opacity="1" fill-rule="nonzero"/><path fill="#050a44" d="M 66.566406 16.457031 L 67.78125 16.441406 C 67.929688 16.4375 68.070312 16.464844 68.207031 16.519531 C 68.339844 16.574219 68.460938 16.652344 68.566406 16.753906 C 68.671875 16.855469 68.753906 16.972656 68.8125 17.109375 C 68.871094 17.242188 68.898438 17.382812 68.902344 17.53125 L 68.949219 20.992188 C 68.953125 21.136719 68.925781 21.277344 68.871094 21.414062 C 68.820312 21.550781 68.742188 21.671875 68.636719 21.777344 C 68.535156 21.882812 68.417969 21.960938 68.285156 22.019531 C 68.148438 22.078125 68.007812 22.109375 67.863281 22.109375 L 66.648438 22.128906 C 66.5 22.128906 66.359375 22.105469 66.222656 22.050781 C 66.085938 21.996094 65.964844 21.917969 65.859375 21.816406 C 65.757812 21.714844 65.675781 21.59375 65.617188 21.460938 C 65.558594 21.324219 65.527344 21.183594 65.527344 21.039062 L 65.476562 17.578125 C 65.476562 17.433594 65.5 17.292969 65.554688 17.15625 C 65.609375 17.019531 65.6875 16.898438 65.789062 16.792969 C 65.890625 16.6875 66.011719 16.605469 66.144531 16.546875 C 66.28125 16.492188 66.421875 16.460938 66.566406 16.457031 Z M 66.566406 16.457031 " fill-opacity="1" fill-rule="nonzero"/><path fill="#ffffff" d="M 67.058594 17.59375 L 67.664062 17.585938 C 67.816406 17.582031 67.949219 17.636719 68.058594 17.742188 C 68.167969 17.847656 68.222656 17.976562 68.226562 18.128906 L 68.257812 20.40625 C 68.261719 20.558594 68.207031 20.691406 68.101562 20.800781 C 67.996094 20.910156 67.867188 20.964844 67.714844 20.96875 L 67.105469 20.976562 C 66.953125 20.980469 66.820312 20.925781 66.710938 20.820312 C 66.601562 20.714844 66.546875 20.585938 66.546875 20.433594 L 66.511719 18.15625 C 66.511719 18.003906 66.5625 17.871094 66.667969 17.761719 C 66.777344 17.652344 66.90625 17.597656 67.058594 17.59375 Z M 67.058594 17.59375 " fill-opacity="1" fill-rule="nonzero"/><g clip-path="url(#adbdc0006a)"><path fill="#050a44" d="M 56.914062 11.839844 C 56.816406 11.839844 56.726562 11.785156 56.675781 11.699219 L 54.648438 8.191406 C 54.574219 8.058594 54.621094 7.890625 54.753906 7.8125 C 54.886719 7.734375 55.050781 7.785156 55.128906 7.914062 L 56.90625 10.992188 L 58.5625 7.867188 C 58.636719 7.730469 58.800781 7.679688 58.933594 7.75 C 59.070312 7.824219 59.121094 7.988281 59.050781 8.125 L 57.160156 11.6875 C 57.113281 11.777344 57.023438 11.832031 56.921875 11.835938 L 56.914062 11.835938 Z M 56.914062 11.839844 " fill-opacity="1" fill-rule="nonzero"/></g><path fill="#050a44" d="M 70.789062 29.300781 C 71.066406 29.640625 71.265625 30.023438 71.386719 30.445312 C 71.511719 30.871094 71.546875 31.300781 71.5 31.738281 C 71.453125 32.171875 71.324219 32.585938 71.113281 32.972656 C 70.898438 33.355469 70.621094 33.6875 70.28125 33.960938 C 69.9375 34.238281 69.554688 34.4375 69.132812 34.5625 C 68.710938 34.683594 68.28125 34.722656 67.84375 34.671875 C 67.40625 34.625 66.992188 34.496094 66.609375 34.285156 C 66.222656 34.074219 65.890625 33.796875 65.617188 33.453125 C 65.339844 33.109375 65.140625 32.726562 65.019531 32.304688 C 64.894531 31.882812 64.855469 31.453125 64.90625 31.015625 C 64.953125 30.578125 65.082031 30.167969 65.292969 29.78125 C 65.503906 29.394531 65.78125 29.0625 66.125 28.789062 C 66.46875 28.511719 66.851562 28.3125 67.273438 28.191406 C 67.695312 28.066406 68.125 28.03125 68.5625 28.078125 C 69 28.125 69.414062 28.253906 69.796875 28.46875 C 70.183594 28.679688 70.515625 28.957031 70.789062 29.300781 Z M 70.789062 29.300781 " fill-opacity="1" fill-rule="nonzero"/><path fill="#050a44" d="M 52.238281 26.625 C 51.488281 26.625 50.742188 26.445312 50.078125 26.097656 C 50.023438 26.070312 50.003906 26.003906 50.03125 25.949219 C 50.058594 25.894531 50.128906 25.875 50.183594 25.902344 C 50.835938 26.238281 51.566406 26.417969 52.304688 26.402344 L 56.011719 26.347656 C 56.066406 26.347656 56.121094 26.394531 56.121094 26.457031 C 56.121094 26.519531 56.074219 26.570312 56.011719 26.570312 L 52.308594 26.625 C 52.285156 26.625 52.261719 26.625 52.238281 26.625 Z M 52.238281 26.625 " fill-opacity="1" fill-rule="nonzero"/><g clip-path="url(#d24481a189)"><path fill="#ffffff" d="M 63.019531 67.214844 L 10.191406 67.214844 C 10.191406 67.214844 10.171875 34.84375 10.171875 34.84375 C 10.171875 33.839844 10.984375 33.023438 11.988281 33.023438 L 19.203125 33.023438 C 19.203125 33.023438 61.1875 32.980469 61.1875 32.980469 C 61.691406 32.980469 62.136719 33.183594 62.46875 33.519531 C 62.796875 33.847656 63 34.296875 63 34.800781 L 63 38.035156 C 63 38.035156 63.019531 67.214844 63.019531 67.214844 Z M 63.019531 67.214844 " fill-opacity="1" fill-rule="nonzero"/><path fill="#050a44" d="M 10.191406 67.324219 C 10.128906 67.324219 10.078125 67.273438 10.078125 67.214844 L 10.058594 34.84375 C 10.058594 33.777344 10.925781 32.914062 11.988281 32.914062 L 19.203125 32.914062 L 61.1875 32.871094 C 61.699219 32.871094 62.179688 33.074219 62.546875 33.441406 C 62.910156 33.804688 63.109375 34.285156 63.109375 34.800781 L 63.109375 38.035156 L 63.132812 67.214844 C 63.132812 67.242188 63.121094 67.269531 63.101562 67.292969 C 63.078125 67.3125 63.050781 67.324219 63.023438 67.324219 Z M 11.988281 33.132812 C 11.046875 33.132812 10.28125 33.902344 10.28125 34.839844 L 10.300781 67.101562 L 62.910156 67.101562 C 62.910156 67.101562 62.886719 34.796875 62.886719 34.796875 C 62.886719 34.34375 62.710938 33.917969 62.390625 33.59375 C 62.066406 33.269531 61.636719 33.089844 61.183594 33.089844 L 19.203125 33.132812 Z M 11.988281 33.132812 " fill-opacity="1" fill-rule="nonzero"/></g><path fill="#050a44" d="M 10.171875 38.191406 C 10.140625 38.191406 10.113281 38.179688 10.09375 38.160156 C 10.074219 38.136719 10.0625 38.109375 10.0625 38.082031 L 10.0625 34.84375 C 10.0625 34.328125 10.261719 33.84375 10.625 33.480469 C 10.988281 33.113281 11.472656 32.914062 11.988281 32.914062 L 61.183594 32.871094 C 62.246094 32.871094 63.109375 33.734375 63.109375 34.796875 L 63.109375 38.035156 C 63.109375 38.097656 63.0625 38.144531 63 38.144531 L 10.167969 38.191406 Z M 61.183594 33.09375 L 11.988281 33.136719 C 11.535156 33.136719 11.105469 33.3125 10.78125 33.636719 C 10.460938 33.957031 10.28125 34.386719 10.28125 34.84375 L 10.28125 37.972656 C 10.28125 37.972656 62.894531 37.929688 62.894531 37.929688 L 62.894531 34.800781 C 62.894531 33.859375 62.128906 33.09375 61.183594 33.09375 Z M 61.183594 33.09375 " fill-opacity="1" fill-rule="nonzero"/><path fill="#0a21c0" d="M 53.910156 35.542969 C 53.910156 36.082031 53.476562 36.515625 52.9375 36.519531 C 52.398438 36.519531 51.960938 36.082031 51.960938 35.546875 C 51.960938 35.007812 52.398438 34.570312 52.9375 34.570312 C 53.476562 34.570312 53.910156 35.007812 53.910156 35.542969 Z M 53.910156 35.542969 " fill-opacity="1" fill-rule="nonzero"/><path fill="#0a21c0" d="M 57.371094 35.542969 C 57.371094 36.078125 56.933594 36.511719 56.398438 36.515625 C 55.859375 36.515625 55.425781 36.082031 55.425781 35.542969 C 55.425781 35.007812 55.859375 34.570312 56.398438 34.570312 C 56.933594 34.570312 57.371094 35.003906 57.371094 35.542969 Z M 57.371094 35.542969 " fill-opacity="1" fill-rule="nonzero"/><path fill="#050a44" d="M 56.394531 36.625 C 55.796875 36.625 55.3125 36.140625 55.3125 35.542969 C 55.3125 34.945312 55.796875 34.457031 56.394531 34.457031 C 56.683594 34.457031 56.953125 34.570312 57.160156 34.777344 C 57.363281 34.980469 57.476562 35.253906 57.476562 35.542969 C 57.476562 35.832031 57.363281 36.105469 57.160156 36.3125 C 56.953125 36.515625 56.683594 36.628906 56.390625 36.628906 Z M 56.394531 34.679688 C 55.921875 34.679688 55.535156 35.066406 55.535156 35.542969 C 55.535156 36.015625 55.921875 36.402344 56.398438 36.402344 C 56.628906 36.402344 56.84375 36.3125 57.007812 36.152344 C 57.171875 35.988281 57.261719 35.769531 57.261719 35.542969 C 57.261719 35.3125 57.171875 35.09375 57.007812 34.929688 C 56.84375 34.769531 56.628906 34.679688 56.398438 34.679688 Z M 57.480469 35.542969 L 57.484375 35.542969 Z M 57.480469 35.542969 " fill-opacity="1" fill-rule="nonzero"/><path fill="#050a44" d="M 59.730469 36.625 C 59.132812 36.625 58.644531 36.136719 58.640625 35.542969 C 58.640625 34.945312 59.128906 34.457031 59.726562 34.457031 C 60.015625 34.457031 60.289062 34.570312 60.492188 34.773438 C 60.699219 34.980469 60.808594 35.25 60.808594 35.542969 C 60.808594 35.832031 60.695312 36.105469 60.492188 36.308594 C 60.289062 36.511719 60.015625 36.625 59.726562 36.625 Z M 59.730469 34.675781 C 59.253906 34.675781 58.863281 35.0625 58.863281 35.542969 C 58.863281 36.015625 59.253906 36.402344 59.730469 36.402344 C 59.960938 36.402344 60.175781 36.3125 60.335938 36.152344 C 60.5 35.988281 60.585938 35.769531 60.585938 35.542969 C 60.585938 35.3125 60.496094 35.09375 60.335938 34.929688 C 60.175781 34.769531 59.960938 34.679688 59.730469 34.679688 Z M 60.8125 35.542969 L 60.816406 35.542969 Z M 60.8125 35.542969 " fill-opacity="1" fill-rule="nonzero"/><path fill="#ffffff" d="M 25.929688 30.507812 C 25.542969 30.699219 25.265625 30.96875 25.085938 31.269531 C 24.890625 31.589844 24.804688 31.949219 24.796875 32.304688 C 24.789062 32.78125 24.925781 33.25 25.15625 33.605469 C 25.710938 34.476562 26.515625 33.921875 26.515625 33.921875 C 27.183594 34.949219 28.308594 34.101562 28.308594 34.101562 C 29.164062 34.945312 30.238281 34.175781 30.238281 34.175781 C 30.671875 34.699219 32.125 34.445312 32.253906 32.921875 C 32.285156 32.574219 32.277344 32.234375 32.238281 31.917969 C 32.179688 31.429688 32.050781 30.992188 31.859375 30.636719 C 31.820312 30.566406 31.777344 30.5 31.734375 30.4375 C 31.511719 30.097656 31.21875 29.871094 30.878906 29.804688 C 30.878906 29.804688 28.816406 29.066406 25.933594 30.511719 Z M 25.929688 30.507812 " fill-opacity="1" fill-rule="nonzero"/><path fill="#050a44" d="M 29.234375 34.605469 C 28.929688 34.605469 28.601562 34.511719 28.296875 34.242188 C 28.117188 34.355469 27.65625 34.605469 27.183594 34.523438 C 26.90625 34.476562 26.671875 34.320312 26.480469 34.070312 C 26.339844 34.140625 26.066406 34.25 25.753906 34.1875 C 25.476562 34.132812 25.246094 33.957031 25.058594 33.667969 C 24.808594 33.28125 24.675781 32.785156 24.683594 32.300781 C 24.691406 31.90625 24.796875 31.527344 24.988281 31.214844 C 25.195312 30.875 25.496094 30.605469 25.878906 30.414062 C 28.773438 28.964844 30.828125 29.671875 30.914062 29.703125 C 31.253906 29.765625 31.574219 30 31.824219 30.375 C 31.867188 30.441406 31.910156 30.511719 31.949219 30.589844 C 32.148438 30.949219 32.28125 31.40625 32.339844 31.902344 C 32.382812 32.234375 32.386719 32.578125 32.359375 32.929688 C 32.292969 33.699219 31.878906 34.277344 31.253906 34.472656 C 30.855469 34.597656 30.453125 34.535156 30.210938 34.320312 C 30.050781 34.414062 29.671875 34.605469 29.230469 34.605469 Z M 28.304688 33.988281 C 28.332031 33.988281 28.363281 34 28.382812 34.019531 C 29.160156 34.792969 30.128906 34.113281 30.167969 34.085938 C 30.214844 34.054688 30.28125 34.0625 30.316406 34.105469 C 30.484375 34.304688 30.84375 34.371094 31.1875 34.261719 C 31.726562 34.09375 32.082031 33.589844 32.140625 32.910156 C 32.167969 32.574219 32.164062 32.242188 32.121094 31.929688 C 32.066406 31.457031 31.941406 31.03125 31.753906 30.691406 C 31.71875 30.625 31.679688 30.558594 31.636719 30.5 C 31.421875 30.171875 31.148438 29.972656 30.851562 29.917969 C 30.816406 29.902344 28.78125 29.207031 25.976562 30.609375 C 25.628906 30.785156 25.359375 31.027344 25.175781 31.328125 C 25.003906 31.613281 24.910156 31.949219 24.902344 32.308594 C 24.890625 32.75 25.015625 33.199219 25.242188 33.546875 C 25.394531 33.785156 25.578125 33.929688 25.792969 33.972656 C 26.136719 34.042969 26.445312 33.835938 26.449219 33.832031 C 26.472656 33.816406 26.503906 33.8125 26.53125 33.816406 C 26.5625 33.820312 26.585938 33.839844 26.601562 33.863281 C 26.765625 34.113281 26.972656 34.261719 27.21875 34.304688 C 27.71875 34.394531 28.234375 34.015625 28.238281 34.011719 C 28.257812 33.996094 28.28125 33.988281 28.304688 33.988281 Z M 25.925781 30.507812 L 25.929688 30.507812 Z M 25.925781 30.507812 " fill-opacity="1" fill-rule="nonzero"/><path fill="#050a44" d="M 30.253906 34.207031 C 30.253906 34.207031 30.238281 34.207031 30.234375 34.207031 C 30.171875 34.195312 30.136719 34.136719 30.144531 34.074219 C 30.148438 34.0625 30.40625 32.707031 30.003906 31.378906 C 29.988281 31.320312 30.019531 31.257812 30.078125 31.242188 C 30.136719 31.222656 30.199219 31.257812 30.214844 31.3125 C 30.636719 32.695312 30.371094 34.0625 30.359375 34.117188 C 30.351562 34.171875 30.300781 34.207031 30.253906 34.207031 Z M 30.253906 34.207031 " fill-opacity="1" fill-rule="nonzero"/><path fill="#050a44" d="M 28.324219 34.199219 C 28.324219 34.199219 28.316406 34.199219 28.3125 34.199219 C 28.253906 34.195312 28.207031 34.140625 28.214844 34.082031 C 28.214844 34.070312 28.339844 32.824219 27.933594 31.570312 C 27.914062 31.511719 27.945312 31.449219 28.003906 31.429688 C 28.058594 31.414062 28.121094 31.445312 28.140625 31.5 C 28.566406 32.796875 28.441406 34.046875 28.433594 34.101562 C 28.429688 34.160156 28.382812 34.199219 28.324219 34.199219 Z M 28.324219 34.199219 " fill-opacity="1" fill-rule="nonzero"/><path fill="#050a44" d="M 26.457031 34.089844 C 26.457031 34.089844 26.449219 34.089844 26.445312 34.089844 C 26.386719 34.082031 26.34375 34.027344 26.351562 33.96875 C 26.351562 33.957031 26.472656 32.925781 26.140625 31.890625 C 26.125 31.832031 26.15625 31.769531 26.214844 31.75 C 26.273438 31.730469 26.335938 31.761719 26.355469 31.824219 C 26.703125 32.902344 26.578125 33.949219 26.574219 33.992188 C 26.566406 34.046875 26.515625 34.089844 26.460938 34.089844 Z M 26.457031 34.089844 " fill-opacity="1" fill-rule="nonzero"/><path fill="#ffffff" d="M 15.324219 41.175781 L 32.613281 41.175781 L 32.613281 51.839844 L 15.324219 51.839844 Z M 15.324219 41.175781 " fill-opacity="1" fill-rule="nonzero"/><path fill="#050a44" d="M 15.324219 51.949219 C 15.265625 51.949219 15.214844 51.902344 15.214844 51.839844 L 15.214844 41.175781 C 15.214844 41.144531 15.226562 41.117188 15.246094 41.097656 C 15.265625 41.078125 15.296875 41.066406 15.324219 41.066406 L 32.609375 41.0625 C 32.640625 41.0625 32.667969 41.074219 32.6875 41.09375 C 32.707031 41.113281 32.71875 41.144531 32.71875 41.171875 L 32.71875 51.835938 C 32.71875 51.894531 32.671875 51.945312 32.613281 51.945312 Z M 15.433594 41.289062 L 15.433594 51.730469 C 15.433594 51.730469 32.503906 51.726562 32.503906 51.726562 L 32.503906 41.285156 C 32.503906 41.285156 15.433594 41.289062 15.433594 41.289062 Z M 15.433594 41.289062 " fill-opacity="1" fill-rule="nonzero"/><path fill="#0a21c0" d="M 16.511719 42.171875 L 31.421875 42.171875 L 31.421875 50.847656 L 16.511719 50.847656 Z M 16.511719 42.171875 " fill-opacity="1" fill-rule="nonzero"/><path fill="#ffffff" d="M 25.800781 45.269531 L 23.574219 48.222656 C 23.234375 48.671875 22.515625 48.671875 22.175781 48.222656 L 21.042969 46.722656 C 20.699219 46.269531 19.988281 46.269531 19.648438 46.722656 L 16.53125 50.847656 L 21.589844 50.847656 C 21.589844 50.847656 24.160156 50.847656 24.160156 50.847656 L 31.410156 50.847656 C 31.410156 50.847656 27.199219 45.269531 27.199219 45.269531 C 26.855469 44.816406 26.140625 44.816406 25.800781 45.269531 Z M 25.800781 45.269531 " fill-opacity="1" fill-rule="nonzero"/><path fill="#ffffff" d="M 23.535156 44.6875 C 23.535156 45.191406 23.121094 45.597656 22.609375 45.597656 C 22.097656 45.597656 21.683594 45.191406 21.683594 44.6875 C 21.683594 44.179688 22.097656 43.773438 22.609375 43.773438 C 23.117188 43.773438 23.535156 44.179688 23.535156 44.6875 Z M 23.535156 44.6875 " fill-opacity="1" fill-rule="nonzero"/><path fill="#0a21c0" d="M 25.058594 56.960938 L 29.207031 56.960938 L 29.207031 57.726562 L 25.058594 57.726562 Z M 25.058594 56.960938 " fill-opacity="1" fill-rule="nonzero"/><path fill="#0a21c0" d="M 25.058594 58.507812 L 32.996094 58.507812 L 32.996094 59.273438 L 25.058594 59.273438 Z M 25.058594 58.507812 " fill-opacity="1" fill-rule="nonzero"/><path fill="#050a44" d="M 25.058594 60.058594 L 32.519531 60.058594 L 32.519531 60.824219 L 25.058594 60.824219 Z M 25.058594 60.058594 " fill-opacity="1" fill-rule="nonzero"/><path fill="#050a44" d="M 25.058594 61.605469 L 30.289062 61.605469 L 30.289062 62.371094 L 25.058594 62.371094 Z M 25.058594 61.605469 " fill-opacity="1" fill-rule="nonzero"/><path fill="#ffffff" d="M 25.203125 63.152344 L 27.777344 63.152344 L 27.777344 63.917969 L 25.203125 63.917969 Z M 25.203125 63.152344 " fill-opacity="1" fill-rule="nonzero"/><path fill="#050a44" d="M 27.777344 64.027344 L 25.203125 64.027344 C 25.144531 64.027344 25.09375 63.980469 25.09375 63.917969 L 25.09375 63.152344 C 25.09375 63.09375 25.144531 63.042969 25.203125 63.042969 L 27.777344 63.042969 C 27.835938 63.042969 27.886719 63.09375 27.886719 63.152344 L 27.886719 63.917969 C 27.886719 63.980469 27.835938 64.027344 27.777344 64.027344 Z M 25.316406 63.808594 L 27.667969 63.808594 L 27.667969 63.261719 L 25.316406 63.261719 Z M 25.316406 63.808594 " fill-opacity="1" fill-rule="nonzero"/><path fill="#0a21c0" d="M 15.753906 60.4375 C 15.753906 62.628906 17.476562 64.410156 19.636719 64.523438 L 19.636719 63.703125 C 17.921875 63.59375 16.558594 62.179688 16.558594 60.4375 C 16.558594 58.695312 17.921875 57.285156 19.636719 57.171875 L 19.636719 56.355469 C 17.476562 56.46875 15.753906 58.25 15.753906 60.4375 Z M 15.753906 60.4375 " fill-opacity="1" fill-rule="nonzero"/><path fill="#ffffff" d="M 22.523438 57.347656 C 21.839844 56.757812 20.960938 56.386719 19.996094 56.355469 L 19.996094 57.167969 C 20.738281 57.199219 21.40625 57.480469 21.941406 57.925781 L 22.519531 57.347656 Z M 22.523438 57.347656 " fill-opacity="1" fill-rule="nonzero"/><path fill="#050a44" d="M 21.941406 58.035156 C 21.917969 58.035156 21.890625 58.027344 21.871094 58.011719 C 21.335938 57.5625 20.6875 57.3125 19.992188 57.277344 C 19.933594 57.277344 19.886719 57.226562 19.886719 57.167969 L 19.886719 56.355469 C 19.886719 56.324219 19.898438 56.296875 19.921875 56.277344 C 19.945312 56.257812 19.96875 56.242188 20.003906 56.246094 C 20.96875 56.28125 21.863281 56.632812 22.597656 57.265625 C 22.621094 57.285156 22.636719 57.316406 22.636719 57.347656 C 22.636719 57.375 22.625 57.40625 22.601562 57.429688 L 22.023438 58.007812 C 22 58.03125 21.972656 58.042969 21.945312 58.042969 Z M 20.109375 57.0625 C 20.777344 57.117188 21.40625 57.359375 21.933594 57.777344 L 22.359375 57.355469 C 21.710938 56.824219 20.941406 56.523438 20.109375 56.472656 Z M 20.109375 57.0625 " fill-opacity="1" fill-rule="nonzero"/><path fill="#050a44" d="M 22.785156 57.589844 L 22.210938 58.164062 C 22.78125 58.753906 23.136719 59.550781 23.136719 60.4375 C 23.136719 62.203125 21.738281 63.632812 19.996094 63.710938 L 19.996094 64.523438 C 22.1875 64.445312 23.941406 62.648438 23.941406 60.4375 C 23.941406 59.328125 23.5 58.324219 22.785156 57.589844 Z M 22.785156 57.589844 " fill-opacity="1" fill-rule="nonzero"/><path fill="#ffffff" d="M 37.984375 53.234375 L 57.984375 53.234375 L 57.984375 65.636719 L 37.984375 65.636719 Z M 37.984375 53.234375 " fill-opacity="1" fill-rule="nonzero"/><path fill="#0a21c0" d="M 47.984375 61.214844 C 46.621094 61.214844 45.507812 60.105469 45.507812 58.738281 C 45.507812 57.371094 46.617188 56.261719 47.984375 56.261719 C 49.351562 56.261719 50.460938 57.375 50.460938 58.738281 C 50.460938 60.105469 49.351562 61.214844 47.984375 61.214844 Z M 47.984375 61.214844 " fill-opacity="1" fill-rule="nonzero"/><path fill="#050a44" d="M 47.585938 59.714844 C 47.539062 59.714844 47.492188 59.703125 47.453125 59.679688 C 47.371094 59.632812 47.320312 59.542969 47.320312 59.449219 L 47.320312 58.027344 C 47.320312 57.929688 47.371094 57.847656 47.453125 57.796875 C 47.539062 57.75 47.636719 57.75 47.71875 57.796875 L 48.949219 58.507812 C 49.03125 58.554688 49.078125 58.640625 49.078125 58.734375 C 49.078125 58.832031 49.03125 58.917969 48.949219 58.96875 L 47.71875 59.679688 C 47.675781 59.703125 47.632812 59.714844 47.585938 59.714844 Z M 47.585938 57.984375 C 47.585938 57.984375 47.566406 57.988281 47.5625 57.992188 C 47.554688 57.996094 47.539062 58.007812 47.539062 58.03125 L 47.539062 59.449219 C 47.539062 59.472656 47.554688 59.484375 47.5625 59.492188 C 47.570312 59.496094 47.585938 59.503906 47.609375 59.492188 L 48.835938 58.78125 C 48.859375 58.769531 48.859375 58.75 48.859375 58.742188 C 48.859375 58.730469 48.859375 58.714844 48.835938 58.699219 L 47.609375 57.992188 C 47.609375 57.992188 47.59375 57.984375 47.585938 57.984375 Z M 47.585938 57.984375 " fill-opacity="1" fill-rule="nonzero"/><path fill="#0a21c0" d="M 37.984375 63.902344 L 57.988281 63.902344 L 57.988281 65.632812 L 37.984375 65.632812 Z M 37.984375 63.902344 " fill-opacity="1" fill-rule="nonzero"/><path fill="#ffffff" d="M 38.921875 64.484375 L 39.328125 64.722656 C 39.367188 64.742188 39.367188 64.804688 39.328125 64.824219 L 38.921875 65.0625 C 38.878906 65.082031 38.828125 65.054688 38.828125 65.007812 L 38.828125 64.539062 C 38.828125 64.492188 38.878906 64.460938 38.921875 64.484375 Z M 38.921875 64.484375 " fill-opacity="1" fill-rule="nonzero"/><path fill="#ffffff" d="M 56.96875 64.859375 L 39.8125 64.859375 C 39.765625 64.859375 39.726562 64.820312 39.726562 64.773438 C 39.726562 64.726562 39.765625 64.6875 39.8125 64.6875 L 56.96875 64.6875 C 57.015625 64.6875 57.058594 64.726562 57.058594 64.773438 C 57.058594 64.820312 57.015625 64.859375 56.96875 64.859375 Z M 56.96875 64.859375 " fill-opacity="1" fill-rule="nonzero"/><path fill="#050a44" d="M 37.984375 65.746094 C 37.953125 65.746094 37.925781 65.734375 37.90625 65.714844 C 37.886719 65.695312 37.875 65.664062 37.875 65.636719 L 37.875 53.234375 C 37.875 53.175781 37.925781 53.125 37.984375 53.125 L 57.984375 53.125 C 58.046875 53.125 58.09375 53.175781 58.09375 53.234375 L 58.09375 65.636719 C 58.09375 65.667969 58.082031 65.695312 58.0625 65.714844 C 58.042969 65.734375 58.011719 65.746094 57.984375 65.746094 Z M 38.09375 65.523438 L 57.875 65.523438 L 57.875 53.34375 L 38.09375 53.34375 Z M 38.09375 65.523438 " fill-opacity="1" fill-rule="nonzero"/><path fill="#050a44" d="M 39.640625 45.535156 L 36.253906 45.535156 C 36.195312 45.535156 36.144531 45.484375 36.144531 45.425781 C 36.144531 45.367188 36.195312 45.316406 36.253906 45.316406 L 39.640625 45.316406 C 39.699219 45.316406 39.75 45.367188 39.75 45.425781 C 39.75 45.484375 39.699219 45.535156 39.640625 45.535156 Z M 39.640625 45.535156 " fill-opacity="1" fill-rule="nonzero"/><path fill="#050a44" d="M 57.886719 45.535156 L 41.714844 45.535156 C 41.65625 45.535156 41.605469 45.484375 41.605469 45.425781 C 41.605469 45.367188 41.65625 45.316406 41.714844 45.316406 L 57.886719 45.316406 C 57.945312 45.316406 57.996094 45.367188 57.996094 45.425781 C 57.996094 45.484375 57.945312 45.535156 57.886719 45.535156 Z M 57.886719 45.535156 " fill-opacity="1" fill-rule="nonzero"/><path fill="#050a44" d="M 53.71875 43.5 L 36.253906 43.5 C 36.195312 43.5 36.144531 43.449219 36.144531 43.386719 C 36.144531 43.328125 36.195312 43.277344 36.253906 43.277344 L 53.71875 43.277344 C 53.777344 43.277344 53.828125 43.328125 53.828125 43.386719 C 53.828125 43.449219 53.777344 43.5 53.71875 43.5 Z M 53.71875 43.5 " fill-opacity="1" fill-rule="nonzero"/><path fill="#050a44" d="M 57.886719 43.5 L 55.613281 43.5 C 55.554688 43.5 55.503906 43.449219 55.503906 43.386719 C 55.503906 43.328125 55.554688 43.277344 55.613281 43.277344 L 57.886719 43.277344 C 57.945312 43.277344 57.996094 43.328125 57.996094 43.386719 C 57.996094 43.449219 57.945312 43.5 57.886719 43.5 Z M 57.886719 43.5 " fill-opacity="1" fill-rule="nonzero"/><path fill="#050a44" d="M 47.535156 41.460938 L 36.253906 41.460938 C 36.195312 41.460938 36.144531 41.410156 36.144531 41.351562 C 36.144531 41.292969 36.195312 41.242188 36.253906 41.242188 L 47.535156 41.242188 C 47.59375 41.242188 47.644531 41.292969 47.644531 41.351562 C 47.644531 41.410156 47.59375 41.460938 47.535156 41.460938 Z M 47.535156 41.460938 " fill-opacity="1" fill-rule="nonzero"/><path fill="#050a44" d="M 57.886719 41.460938 L 49.433594 41.460938 C 49.371094 41.460938 49.324219 41.410156 49.324219 41.351562 C 49.324219 41.292969 49.371094 41.242188 49.433594 41.242188 L 57.886719 41.242188 C 57.945312 41.242188 57.996094 41.292969 57.996094 41.351562 C 57.996094 41.410156 57.945312 41.460938 57.886719 41.460938 Z M 57.886719 41.460938 " fill-opacity="1" fill-rule="nonzero"/><path fill="#050a44" d="M 47.535156 47.632812 L 36.253906 47.632812 C 36.195312 47.632812 36.144531 47.582031 36.144531 47.519531 C 36.144531 47.460938 36.195312 47.410156 36.253906 47.410156 L 47.535156 47.410156 C 47.59375 47.410156 47.644531 47.460938 47.644531 47.519531 C 47.644531 47.582031 47.59375 47.632812 47.535156 47.632812 Z M 47.535156 47.632812 " fill-opacity="1" fill-rule="nonzero"/><path fill="#050a44" d="M 57.886719 47.632812 L 49.433594 47.632812 C 49.371094 47.632812 49.324219 47.582031 49.324219 47.519531 C 49.324219 47.460938 49.371094 47.410156 49.433594 47.410156 L 57.886719 47.410156 C 57.945312 47.410156 57.996094 47.460938 57.996094 47.519531 C 57.996094 47.582031 57.945312 47.632812 57.886719 47.632812 Z M 57.886719 47.632812 " fill-opacity="1" fill-rule="nonzero"/><path fill="#ffffff" d="M 53.933594 57.933594 C 54.144531 58.59375 55.207031 58.296875 55.257812 58.285156 C 55.230469 58.304688 54.808594 58.585938 54.871094 58.941406 C 54.933594 59.304688 55.289062 59.386719 55.605469 59.347656 C 55.917969 59.304688 57.71875 59.046875 57.988281 59.019531 L 58.066406 59.820312 C 58.066406 59.820312 60.0625 59.941406 63.265625 59.347656 L 62.808594 54.75 C 62.808594 54.75 61.269531 54.777344 60.652344 54.105469 C 60.050781 53.449219 59.539062 53.140625 58.371094 53.042969 C 57.207031 52.941406 55.253906 53 54.613281 52.992188 C 53.226562 52.976562 53.390625 53.921875 54.308594 54.160156 C 55.222656 54.398438 56.605469 54.664062 56.605469 54.664062 C 56.605469 54.664062 54.996094 55.296875 54.34375 55.542969 C 53.15625 55.984375 53.640625 57.1875 54.800781 56.96875 C 54.800781 56.96875 53.71875 57.261719 53.933594 57.9375 Z M 53.933594 57.933594 " fill-opacity="1" fill-rule="nonzero"/><path fill="#050a44" d="M 58.539062 59.9375 C 58.226562 59.9375 58.0625 59.929688 58.058594 59.929688 C 58.003906 59.925781 57.960938 59.882812 57.953125 59.828125 L 57.886719 59.140625 C 57.585938 59.179688 56.867188 59.28125 56.324219 59.355469 C 55.996094 59.402344 55.722656 59.441406 55.617188 59.453125 C 55.152344 59.515625 54.820312 59.320312 54.757812 58.957031 C 54.726562 58.761719 54.804688 58.589844 54.90625 58.457031 C 54.53125 58.496094 53.984375 58.457031 53.824219 57.964844 C 53.765625 57.785156 53.78125 57.613281 53.867188 57.453125 C 53.953125 57.292969 54.109375 57.164062 54.261719 57.070312 C 53.890625 56.992188 53.640625 56.753906 53.566406 56.484375 C 53.476562 56.160156 53.613281 55.6875 54.296875 55.429688 C 54.757812 55.261719 55.695312 54.890625 56.207031 54.6875 C 55.734375 54.59375 54.890625 54.417969 54.273438 54.257812 C 53.769531 54.128906 53.4375 53.78125 53.484375 53.433594 C 53.503906 53.300781 53.636719 52.875 54.570312 52.875 C 54.617188 52.875 54.667969 52.875 54.722656 52.875 C 54.878906 52.875 55.078125 52.875 55.316406 52.867188 C 56.183594 52.859375 57.503906 52.847656 58.375 52.921875 C 59.601562 53.027344 60.128906 53.375 60.726562 54.019531 C 61.308594 54.648438 62.789062 54.632812 62.800781 54.632812 C 62.859375 54.632812 62.90625 54.671875 62.914062 54.730469 L 63.371094 59.328125 C 63.375 59.386719 63.335938 59.4375 63.28125 59.449219 C 61 59.871094 59.3125 59.929688 58.53125 59.929688 Z M 58.164062 59.710938 C 58.589844 59.726562 60.433594 59.75 63.148438 59.257812 L 62.710938 54.859375 C 62.347656 54.851562 61.128906 54.785156 60.570312 54.179688 C 60 53.558594 59.523438 53.25 58.363281 53.148438 C 57.496094 53.074219 56.191406 53.089844 55.324219 53.097656 C 55.023438 53.101562 54.773438 53.101562 54.609375 53.101562 C 54.597656 53.101562 54.585938 53.101562 54.574219 53.101562 C 53.972656 53.101562 53.734375 53.292969 53.707031 53.472656 C 53.679688 53.671875 53.90625 53.941406 54.332031 54.050781 C 55.234375 54.285156 56.609375 54.546875 56.621094 54.550781 C 56.671875 54.5625 56.707031 54.601562 56.710938 54.648438 C 56.71875 54.695312 56.691406 54.742188 56.640625 54.761719 C 56.628906 54.769531 55.027344 55.402344 54.378906 55.644531 C 53.933594 55.8125 53.699219 56.117188 53.785156 56.429688 C 53.863281 56.722656 54.234375 56.960938 54.777344 56.859375 C 54.835938 56.839844 54.890625 56.886719 54.90625 56.941406 C 54.917969 57 54.886719 57.054688 54.828125 57.074219 C 54.824219 57.074219 54.246094 57.234375 54.066406 57.566406 C 54.007812 57.671875 54 57.78125 54.039062 57.902344 C 54.214844 58.453125 55.183594 58.1875 55.226562 58.179688 C 55.277344 58.167969 55.332031 58.1875 55.359375 58.234375 C 55.378906 58.285156 55.367188 58.339844 55.324219 58.375 C 55.226562 58.441406 54.933594 58.667969 54.976562 58.921875 C 55.039062 59.285156 55.460938 59.257812 55.589844 59.238281 C 55.695312 59.222656 55.96875 59.1875 56.296875 59.140625 C 56.960938 59.046875 57.796875 58.929688 57.976562 58.910156 C 58.007812 58.910156 58.035156 58.917969 58.058594 58.9375 C 58.082031 58.953125 58.097656 58.980469 58.101562 59.011719 L 58.167969 59.714844 Z M 58.164062 59.710938 " fill-opacity="1" fill-rule="nonzero"/><path fill="#050a44" d="M 56.601562 54.769531 C 56.558594 54.769531 56.515625 54.742188 56.5 54.695312 C 56.480469 54.636719 56.507812 54.574219 56.566406 54.554688 L 58.050781 54.007812 C 58.109375 53.984375 58.175781 54.011719 58.195312 54.070312 C 58.214844 54.128906 58.1875 54.191406 58.128906 54.214844 L 56.640625 54.761719 C 56.628906 54.765625 56.617188 54.769531 56.605469 54.769531 Z M 56.601562 54.769531 " fill-opacity="1" fill-rule="nonzero"/><path fill="#050a44" d="M 54.796875 57.074219 C 54.746094 57.074219 54.703125 57.042969 54.691406 56.996094 C 54.671875 56.9375 54.707031 56.875 54.765625 56.859375 L 58.414062 55.839844 C 58.472656 55.824219 58.535156 55.859375 58.550781 55.917969 C 58.566406 55.976562 58.53125 56.039062 58.472656 56.054688 L 54.824219 57.074219 C 54.824219 57.074219 54.804688 57.078125 54.796875 57.078125 Z M 54.796875 57.074219 " fill-opacity="1" fill-rule="nonzero"/><path fill="#050a44" d="M 55.257812 58.394531 C 55.207031 58.394531 55.164062 58.359375 55.148438 58.308594 C 55.136719 58.25 55.171875 58.1875 55.234375 58.175781 L 58.539062 57.402344 C 58.601562 57.386719 58.660156 57.421875 58.671875 57.484375 C 58.6875 57.542969 58.648438 57.605469 58.589844 57.617188 L 55.28125 58.390625 C 55.28125 58.390625 55.265625 58.394531 55.257812 58.394531 Z M 55.257812 58.394531 " fill-opacity="1" fill-rule="nonzero"/><path fill="#0a21c0" d="M 66.121094 57.304688 C 65.550781 57.304688 65.019531 56.949219 64.820312 56.378906 C 64.566406 55.660156 64.949219 54.871094 65.667969 54.621094 C 65.925781 54.53125 66.203125 54.390625 66.5 54.242188 C 66.675781 54.15625 66.851562 54.070312 67.023438 53.984375 C 67.558594 53.6875 67.953125 53.441406 68.308594 53.199219 C 69.097656 52.640625 69.820312 51.953125 70.441406 51.164062 C 70.992188 50.40625 71.433594 49.535156 71.722656 48.605469 C 71.992188 47.777344 72.125 46.847656 72.148438 45.667969 C 72.175781 43.851562 71.816406 41.898438 71.015625 39.53125 C 70.328125 37.570312 69.40625 35.605469 68.273438 33.703125 C 67.886719 33.046875 68.101562 32.199219 68.757812 31.8125 C 69.414062 31.421875 70.261719 31.636719 70.648438 32.292969 C 71.875 34.355469 72.875 36.484375 73.628906 38.632812 C 74.535156 41.324219 74.941406 43.570312 74.90625 45.714844 C 74.878906 47.175781 74.703125 48.359375 74.351562 49.445312 C 73.976562 50.644531 73.398438 51.789062 72.640625 52.828125 C 71.820312 53.875 70.90625 54.746094 69.886719 55.464844 C 69.4375 55.769531 68.960938 56.0625 68.328125 56.417969 L 68.226562 56.472656 C 68.058594 56.546875 67.898438 56.625 67.738281 56.707031 C 67.394531 56.882812 67.007812 57.074219 66.578125 57.226562 C 66.429688 57.277344 66.273438 57.304688 66.125 57.304688 Z M 67.652344 55.214844 L 67.65625 55.214844 Z M 67.652344 55.214844 " fill-opacity="1" fill-rule="nonzero"/><path fill="#050a44" d="M 69.1875 35.503906 C 69.148438 35.503906 69.109375 35.480469 69.089844 35.445312 C 69.0625 35.386719 69.082031 35.324219 69.136719 35.292969 L 71.59375 34.011719 C 71.648438 33.984375 71.714844 34.007812 71.746094 34.0625 C 71.773438 34.117188 71.753906 34.179688 71.699219 34.210938 L 69.238281 35.492188 C 69.222656 35.5 69.203125 35.503906 69.191406 35.503906 Z M 69.1875 35.503906 " fill-opacity="1" fill-rule="nonzero"/><path fill="#050a44" d="M 70.710938 38.882812 C 70.667969 38.882812 70.628906 38.855469 70.609375 38.8125 C 70.585938 38.757812 70.617188 38.695312 70.671875 38.671875 L 73.265625 37.6875 C 73.324219 37.664062 73.386719 37.695312 73.40625 37.75 C 73.429688 37.808594 73.398438 37.871094 73.34375 37.894531 L 70.753906 38.878906 C 70.738281 38.882812 70.726562 38.886719 70.710938 38.886719 Z M 70.710938 38.882812 " fill-opacity="1" fill-rule="nonzero"/><path fill="#050a44" d="M 71.761719 42.386719 C 71.710938 42.386719 71.664062 42.351562 71.652344 42.296875 C 71.640625 42.238281 71.675781 42.179688 71.738281 42.167969 L 74.449219 41.59375 C 74.507812 41.582031 74.566406 41.617188 74.578125 41.679688 C 74.59375 41.738281 74.554688 41.796875 74.496094 41.808594 L 71.78125 42.382812 C 71.78125 42.382812 71.765625 42.386719 71.761719 42.386719 Z M 71.761719 42.386719 " fill-opacity="1" fill-rule="nonzero"/><path fill="#050a44" d="M 74.890625 45.972656 L 72.117188 45.914062 C 72.054688 45.914062 72.007812 45.859375 72.011719 45.800781 C 72.011719 45.742188 72.066406 45.703125 72.121094 45.695312 L 74.894531 45.753906 C 74.957031 45.753906 75.003906 45.804688 75.003906 45.867188 C 75.003906 45.925781 74.953125 45.972656 74.890625 45.972656 Z M 74.890625 45.972656 " fill-opacity="1" fill-rule="nonzero"/><path fill="#050a44" d="M 74.097656 50.222656 C 74.085938 50.222656 74.070312 50.222656 74.058594 50.214844 L 71.464844 49.230469 C 71.40625 49.207031 71.378906 49.144531 71.398438 49.089844 C 71.421875 49.03125 71.484375 49.003906 71.542969 49.023438 L 74.136719 50.007812 C 74.191406 50.027344 74.21875 50.089844 74.199219 50.148438 C 74.183594 50.191406 74.140625 50.21875 74.097656 50.21875 Z M 74.097656 50.222656 " fill-opacity="1" fill-rule="nonzero"/><path fill="#050a44" d="M 71.765625 53.945312 C 71.738281 53.945312 71.710938 53.9375 71.691406 53.917969 L 69.683594 52.007812 C 69.636719 51.964844 69.636719 51.894531 69.675781 51.851562 C 69.71875 51.804688 69.789062 51.804688 69.832031 51.847656 L 71.839844 53.757812 C 71.886719 53.796875 71.886719 53.867188 71.84375 53.910156 C 71.824219 53.933594 71.796875 53.945312 71.765625 53.945312 Z M 71.765625 53.945312 " fill-opacity="1" fill-rule="nonzero"/><path fill="#050a44" d="M 68.320312 56.511719 C 68.28125 56.511719 68.242188 56.492188 68.222656 56.457031 L 66.914062 54.011719 C 66.886719 53.957031 66.90625 53.894531 66.957031 53.863281 C 67.011719 53.835938 67.078125 53.855469 67.109375 53.910156 L 68.417969 56.351562 C 68.445312 56.40625 68.425781 56.472656 68.371094 56.5 C 68.355469 56.507812 68.335938 56.511719 68.320312 56.511719 Z M 68.320312 56.511719 " fill-opacity="1" fill-rule="nonzero"/><path fill="#050a44" d="M 62.460938 53.503906 L 64.597656 53.058594 C 64.84375 53.003906 65.074219 53.050781 65.285156 53.1875 C 65.496094 53.324219 65.625 53.515625 65.675781 53.765625 L 66.644531 58.40625 C 66.695312 58.652344 66.652344 58.882812 66.515625 59.09375 C 66.375 59.304688 66.183594 59.433594 65.9375 59.488281 L 63.800781 59.929688 C 63.554688 59.984375 63.324219 59.941406 63.113281 59.800781 C 62.902344 59.664062 62.773438 59.472656 62.722656 59.222656 L 61.753906 54.582031 C 61.703125 54.335938 61.746094 54.105469 61.882812 53.894531 C 62.023438 53.683594 62.214844 53.554688 62.460938 53.503906 Z M 62.460938 53.503906 " fill-opacity="1" fill-rule="nonzero"/><path fill="#ffffff" d="M 14.691406 24.164062 L 37.609375 24.164062 L 37.609375 27.125 L 14.691406 27.125 Z M 14.691406 24.164062 " fill-opacity="1" fill-rule="nonzero"/><path fill="#0a21c0" d="M 14.691406 24.164062 L 30.40625 24.164062 L 30.40625 27.125 L 14.691406 27.125 Z M 14.691406 24.164062 " fill-opacity="1" fill-rule="nonzero"/><path fill="#050a44" d="M 14.691406 24.164062 L 22.660156 24.164062 L 22.660156 27.125 L 14.691406 27.125 Z M 14.691406 24.164062 " fill-opacity="1" fill-rule="nonzero"/><path fill="#050a44" d="M 14.691406 27.230469 C 14.660156 27.230469 14.632812 27.21875 14.613281 27.199219 C 14.59375 27.179688 14.578125 27.148438 14.578125 27.121094 L 14.578125 24.160156 C 14.578125 24.101562 14.628906 24.050781 14.691406 24.050781 L 37.609375 24.050781 C 37.667969 24.050781 37.71875 24.101562 37.71875 24.160156 L 37.71875 27.117188 C 37.71875 27.179688 37.667969 27.230469 37.609375 27.230469 Z M 14.800781 24.273438 L 14.800781 27.011719 L 37.496094 27.011719 L 37.496094 24.273438 Z M 14.800781 24.273438 " fill-opacity="1" fill-rule="nonzero"/><path fill="#ffffff" d="M 12.816406 53.699219 L 12.816406 61.316406 C 12.816406 61.691406 12.511719 61.984375 12.148438 61.984375 L 2.867188 61.984375 C 2.5 61.984375 2.199219 61.691406 2.199219 61.316406 L 2.199219 53.699219 C 2.199219 53.332031 2.503906 53.042969 2.867188 53.042969 L 12.148438 53.042969 C 12.515625 53.042969 12.816406 53.332031 12.816406 53.699219 Z M 12.816406 53.699219 " fill-opacity="1" fill-rule="nonzero"/><path fill="#050a44" d="M 12.148438 62.097656 L 2.867188 62.097656 C 2.4375 62.097656 2.085938 61.746094 2.085938 61.316406 L 2.085938 53.699219 C 2.085938 53.277344 2.4375 52.929688 2.867188 52.929688 L 12.148438 52.929688 C 12.578125 52.929688 12.925781 53.277344 12.925781 53.699219 L 12.925781 61.316406 C 12.925781 61.746094 12.578125 62.097656 12.148438 62.097656 Z M 2.867188 53.152344 C 2.558594 53.152344 2.308594 53.398438 2.308594 53.699219 L 2.308594 61.316406 C 2.308594 61.625 2.558594 61.875 2.867188 61.875 L 12.148438 61.875 C 12.453125 61.875 12.703125 61.625 12.703125 61.316406 L 12.703125 53.699219 C 12.703125 53.398438 12.453125 53.152344 12.148438 53.152344 Z M 2.867188 53.152344 " fill-opacity="1" fill-rule="nonzero"/><path fill="#050a44" d="M 11.910156 52.804688 L 11.910156 53.042969 L 2.867188 53.042969 C 2.5 53.042969 2.199219 53.332031 2.199219 53.699219 L 2.199219 61.089844 C 2.199219 61.089844 1.960938 61.089844 1.960938 61.089844 C 1.59375 61.089844 1.296875 60.785156 1.296875 60.421875 L 1.296875 52.804688 C 1.296875 52.4375 1.597656 52.136719 1.960938 52.136719 L 11.242188 52.136719 C 11.617188 52.136719 11.910156 52.441406 11.910156 52.804688 Z M 11.910156 52.804688 " fill-opacity="1" fill-rule="nonzero"/><path fill="#050a44" d="M 3.816406 59.484375 L 5.507812 54.886719 L 6.058594 54.886719 L 7.75 59.484375 L 7.054688 59.484375 L 5.78125 55.777344 L 4.511719 59.484375 Z M 4.597656 58.476562 L 4.597656 57.863281 L 7.015625 57.863281 L 7.015625 58.476562 Z M 4.597656 58.476562 " fill-opacity="1" fill-rule="nonzero"/><path fill="#050a44" d="M 9.433594 59.53125 C 9.03125 59.53125 8.730469 59.449219 8.53125 59.28125 C 8.328125 59.113281 8.226562 58.859375 8.226562 58.515625 C 8.226562 58.1875 8.320312 57.945312 8.503906 57.785156 C 8.691406 57.625 8.964844 57.542969 9.335938 57.542969 L 10.265625 57.542969 C 10.265625 57.542969 10.3125 58.0625 10.3125 58.0625 L 9.339844 58.0625 C 9.171875 58.0625 9.046875 58.097656 8.964844 58.171875 C 8.878906 58.25 8.839844 58.363281 8.839844 58.515625 C 8.839844 58.683594 8.894531 58.804688 9.007812 58.886719 C 9.121094 58.964844 9.289062 59.007812 9.511719 59.007812 C 9.753906 59.007812 9.9375 58.980469 10.058594 58.925781 C 10.183594 58.875 10.242188 58.792969 10.242188 58.679688 L 10.308594 59.136719 C 10.253906 59.230469 10.183594 59.300781 10.097656 59.355469 C 10.011719 59.414062 9.917969 59.457031 9.808594 59.484375 C 9.699219 59.511719 9.574219 59.527344 9.441406 59.527344 Z M 10.238281 59.484375 L 10.238281 57.402344 C 10.238281 57.1875 10.179688 57.019531 10.066406 56.902344 C 9.949219 56.785156 9.789062 56.726562 9.578125 56.726562 C 9.449219 56.726562 9.324219 56.746094 9.199219 56.785156 C 9.074219 56.824219 8.960938 56.882812 8.859375 56.957031 L 8.390625 56.632812 C 8.515625 56.484375 8.675781 56.367188 8.882812 56.285156 C 9.085938 56.199219 9.3125 56.160156 9.558594 56.160156 C 9.96875 56.160156 10.289062 56.265625 10.515625 56.480469 C 10.738281 56.691406 10.851562 56.992188 10.851562 57.378906 L 10.851562 59.484375 Z M 10.238281 59.484375 " fill-opacity="1" fill-rule="nonzero"/><path fill="#050a44" d="M 6.671875 50.039062 C 6.609375 50.039062 6.558594 49.988281 6.558594 49.929688 L 6.558594 29.257812 C 6.558594 27.214844 8.21875 25.554688 10.261719 25.554688 L 12.296875 25.554688 C 12.355469 25.554688 12.40625 25.605469 12.40625 25.664062 C 12.40625 25.722656 12.355469 25.773438 12.296875 25.773438 L 10.261719 25.773438 C 8.34375 25.773438 6.78125 27.335938 6.78125 29.257812 L 6.78125 49.929688 C 6.78125 49.988281 6.730469 50.039062 6.671875 50.039062 Z M 6.671875 50.039062 " fill-opacity="1" fill-rule="nonzero"/><path fill="#050a44" d="M 12.921875 26.347656 C 12.546875 26.347656 12.238281 26.042969 12.238281 25.667969 C 12.238281 25.292969 12.546875 24.984375 12.921875 24.984375 C 13.296875 24.984375 13.601562 25.292969 13.601562 25.667969 C 13.601562 26.042969 13.296875 26.347656 12.921875 26.347656 Z M 12.921875 25.207031 C 12.667969 25.207031 12.460938 25.410156 12.460938 25.667969 C 12.460938 25.921875 12.664062 26.125 12.921875 26.125 C 13.175781 26.125 13.378906 25.921875 13.378906 25.667969 C 13.378906 25.410156 13.175781 25.207031 12.921875 25.207031 Z M 12.921875 25.207031 " fill-opacity="1" fill-rule="nonzero"/><path fill="#050a44" d="M 6.671875 51.179688 C 6.296875 51.179688 5.988281 50.875 5.988281 50.5 C 5.988281 50.125 6.296875 49.820312 6.671875 49.820312 C 7.046875 49.820312 7.351562 50.125 7.351562 50.5 C 7.351562 50.875 7.046875 51.179688 6.671875 51.179688 Z M 6.671875 50.039062 C 6.417969 50.039062 6.210938 50.246094 6.210938 50.5 C 6.210938 50.75 6.414062 50.957031 6.671875 50.957031 C 6.925781 50.957031 7.128906 50.753906 7.128906 50.5 C 7.128906 50.242188 6.925781 50.039062 6.671875 50.039062 Z M 6.671875 50.039062 " fill-opacity="1" fill-rule="nonzero"/><g clip-path="url(#ea85211126)"><path fill="#050a44" d="M 0.109375 67.324219 C 0.0507812 67.324219 0 67.273438 0 67.214844 C 0 67.152344 0.0507812 67.105469 0.109375 67.105469 L 73.0625 67.105469 C 73.121094 67.105469 73.171875 67.152344 73.171875 67.214844 C 73.171875 67.273438 73.121094 67.324219 73.0625 67.324219 Z M 0.109375 67.324219 " fill-opacity="1" fill-rule="nonzero"/></g><path fill="#0a21c0" d="M 37.539062 17.296875 L 36.679688 17.304688 C 36.621094 17.085938 36.535156 16.878906 36.421875 16.6875 L 37.023438 16.074219 C 37.046875 16.054688 37.058594 16.023438 37.058594 15.992188 C 37.058594 15.960938 37.042969 15.929688 37.019531 15.90625 L 36.300781 15.199219 C 36.253906 15.152344 36.179688 15.152344 36.132812 15.199219 L 35.53125 15.808594 C 35.335938 15.695312 35.128906 15.609375 34.914062 15.554688 L 34.90625 14.699219 C 34.90625 14.632812 34.851562 14.582031 34.789062 14.582031 L 33.777344 14.585938 C 33.710938 14.585938 33.65625 14.640625 33.65625 14.707031 L 33.664062 15.558594 C 33.449219 15.617188 33.242188 15.703125 33.046875 15.820312 L 32.433594 15.21875 C 32.390625 15.171875 32.3125 15.171875 32.265625 15.21875 L 31.554688 15.9375 C 31.507812 15.984375 31.507812 16.058594 31.554688 16.105469 L 32.164062 16.707031 C 32.050781 16.902344 31.96875 17.109375 31.910156 17.328125 L 31.054688 17.332031 C 30.988281 17.332031 30.933594 17.386719 30.9375 17.453125 L 30.941406 18.464844 C 30.941406 18.535156 30.996094 18.585938 31.0625 18.582031 L 31.917969 18.578125 C 31.976562 18.796875 32.066406 19.003906 32.175781 19.195312 L 31.578125 19.804688 C 31.53125 19.855469 31.53125 19.929688 31.578125 19.976562 L 32.296875 20.6875 C 32.34375 20.730469 32.421875 20.730469 32.46875 20.6875 L 33.070312 20.074219 C 33.273438 20.191406 33.480469 20.277344 33.691406 20.332031 L 33.695312 21.1875 C 33.695312 21.253906 33.75 21.304688 33.816406 21.304688 L 34.824219 21.296875 C 34.890625 21.296875 34.945312 21.242188 34.945312 21.179688 L 34.941406 20.324219 C 35.148438 20.265625 35.359375 20.179688 35.558594 20.0625 L 36.164062 20.664062 C 36.210938 20.707031 36.292969 20.707031 36.335938 20.664062 L 37.046875 19.945312 C 37.089844 19.894531 37.089844 19.820312 37.046875 19.773438 L 36.433594 19.167969 C 36.546875 18.976562 36.632812 18.769531 36.683594 18.550781 L 37.542969 18.546875 C 37.609375 18.546875 37.664062 18.492188 37.664062 18.425781 L 37.65625 17.414062 C 37.65625 17.347656 37.601562 17.292969 37.535156 17.296875 Z M 34.308594 19.3125 C 33.554688 19.316406 32.9375 18.703125 32.933594 17.949219 C 32.925781 17.195312 33.539062 16.578125 34.296875 16.574219 C 35.050781 16.570312 35.664062 17.179688 35.671875 17.929688 C 35.675781 18.6875 35.066406 19.304688 34.3125 19.308594 Z M 34.308594 19.3125 " fill-opacity="1" fill-rule="nonzero"/></svg>