<svg xmlns="http://www.w3.org/2000/svg" xmlns:xlink="http://www.w3.org/1999/xlink" width="300" zoomAndPan="magnify" viewBox="0 0 224.87999 225" height="300" preserveAspectRatio="xMidYMid meet" version="1.0"><defs><clipPath id="9c2f7e3ba4"><path d="M 0 108 L 144 108 L 144 181.324219 L 0 181.324219 Z M 0 108 " clip-rule="nonzero"/></clipPath><clipPath id="3c45e7df59"><path d="M 0 108 L 145 108 L 145 181.324219 L 0 181.324219 Z M 0 108 " clip-rule="nonzero"/></clipPath><clipPath id="67b7395883"><path d="M 5 108 L 145 108 L 145 181.324219 L 5 181.324219 Z M 5 108 " clip-rule="nonzero"/></clipPath><clipPath id="34d51c5a1f"><path d="M 3 180 L 224.761719 180 L 224.761719 181.324219 L 3 181.324219 Z M 3 180 " clip-rule="nonzero"/></clipPath><clipPath id="18a3265911"><path d="M 18 175 L 178 175 L 178 181.324219 L 18 181.324219 Z M 18 175 " clip-rule="nonzero"/></clipPath><clipPath id="dcf1033cb8"><path d="M 190 104 L 224.761719 104 L 224.761719 139 L 190 139 Z M 190 104 " clip-rule="nonzero"/></clipPath><clipPath id="8da4a0655e"><path d="M 189 104 L 224.761719 104 L 224.761719 140 L 189 140 Z M 189 104 " clip-rule="nonzero"/></clipPath><clipPath id="8a620f5fd0"><path d="M 26 43.394531 L 54 43.394531 L 54 71 L 26 71 Z M 26 43.394531 " clip-rule="nonzero"/></clipPath></defs><g clip-path="url(#9c2f7e3ba4)"><path fill="#e4e6ef" d="M 143.738281 181.230469 L 25.769531 181.230469 C 22.601562 181.230469 19.828125 179.144531 18.976562 176.085938 L 18.894531 175.742188 L 1.035156 113.195312 C 0.410156 111.050781 2.039062 108.914062 4.265625 108.914062 L 120.484375 108.914062 C 122.050781 108.914062 123.398438 109.945312 123.824219 111.421875 L 142.160156 175.742188 L 143.730469 181.230469 Z M 143.738281 181.230469 " fill-opacity="1" fill-rule="nonzero"/></g><g clip-path="url(#3c45e7df59)"><path fill="#050a44" d="M 143.738281 181.550781 L 25.769531 181.550781 C 22.472656 181.550781 19.550781 179.339844 18.664062 176.175781 L 18.574219 175.824219 L 0.730469 113.285156 C 0.410156 112.179688 0.617188 111.003906 1.3125 110.070312 C 2.015625 109.128906 3.09375 108.589844 4.265625 108.589844 L 120.484375 108.589844 C 122.195312 108.589844 123.660156 109.695312 124.128906 111.332031 L 144.035156 181.140625 C 144.066406 181.238281 144.042969 181.34375 143.984375 181.417969 C 143.921875 181.5 143.828125 181.542969 143.730469 181.542969 Z M 4.265625 109.234375 C 3.300781 109.234375 2.414062 109.683594 1.828125 110.453125 C 1.253906 111.222656 1.074219 112.1875 1.34375 113.105469 L 19.28125 176.011719 C 20.089844 178.890625 22.757812 180.910156 25.769531 180.910156 L 143.304688 180.910156 L 141.851562 175.832031 L 123.515625 111.511719 C 123.121094 110.144531 121.902344 109.234375 120.484375 109.234375 Z M 4.265625 109.234375 " fill-opacity="1" fill-rule="nonzero"/></g><g clip-path="url(#67b7395883)"><path fill="#050a44" d="M 143.738281 181.550781 L 30.875 181.550781 C 27.59375 181.550781 24.671875 179.347656 23.765625 176.191406 L 5.199219 111.15625 C 5.027344 110.542969 5.148438 109.898438 5.527344 109.390625 C 5.910156 108.882812 6.492188 108.589844 7.136719 108.589844 L 120.496094 108.589844 C 122.179688 108.589844 123.683594 109.71875 124.136719 111.339844 L 144.042969 181.140625 C 144.074219 181.238281 144.050781 181.34375 143.992188 181.417969 C 143.929688 181.5 143.832031 181.542969 143.738281 181.542969 Z M 7.128906 109.234375 C 6.695312 109.234375 6.300781 109.429688 6.039062 109.777344 C 5.777344 110.125 5.695312 110.5625 5.8125 110.984375 L 24.386719 176.019531 C 25.210938 178.90625 27.878906 180.917969 30.875 180.917969 L 143.3125 180.917969 L 123.523438 111.519531 C 123.144531 110.175781 121.894531 109.234375 120.496094 109.234375 Z M 7.128906 109.234375 " fill-opacity="1" fill-rule="nonzero"/></g><path fill="#050a44" d="M 139.945312 178.695312 L 30.875 178.695312 C 28.863281 178.695312 27.070312 177.34375 26.519531 175.40625 L 8.371094 111.855469 C 8.339844 111.761719 8.363281 111.65625 8.421875 111.574219 C 8.480469 111.492188 8.578125 111.445312 8.675781 111.445312 L 120.492188 111.445312 C 120.902344 111.445312 121.273438 111.722656 121.386719 112.125 L 140.253906 178.292969 C 140.285156 178.390625 140.261719 178.496094 140.199219 178.570312 C 140.140625 178.652344 140.042969 178.695312 139.945312 178.695312 Z M 9.101562 112.089844 L 27.132812 175.226562 C 27.609375 176.886719 29.148438 178.054688 30.875 178.054688 L 139.527344 178.054688 L 120.773438 112.296875 C 120.738281 112.171875 120.625 112.089844 120.492188 112.089844 Z M 9.101562 112.089844 " fill-opacity="1" fill-rule="nonzero"/><g clip-path="url(#34d51c5a1f)"><path fill="#050a44" d="M 224.5 181.550781 L 4.265625 181.550781 C 4.085938 181.550781 3.945312 181.410156 3.945312 181.230469 C 3.945312 181.050781 4.085938 180.910156 4.265625 180.910156 L 224.5 180.910156 C 224.679688 180.910156 224.824219 181.050781 224.824219 181.230469 C 224.824219 181.410156 224.679688 181.550781 224.5 181.550781 Z M 224.5 181.550781 " fill-opacity="1" fill-rule="nonzero"/></g><path fill="#0a21c0" d="M 131.933594 173.914062 C 130.347656 173.914062 128.789062 173.574219 127.351562 172.910156 C 125.339844 172 123.464844 170.503906 121.820312 168.484375 C 120.578125 166.953125 119.453125 165.234375 118.449219 163.359375 C 116.894531 160.429688 115.511719 157.070312 114.105469 152.796875 C 112.058594 146.351562 110.4375 139.320312 109.128906 131.253906 C 108.777344 129.070312 110.257812 127.015625 112.441406 126.664062 C 114.613281 126.296875 116.671875 127.792969 117.03125 129.976562 C 118.269531 137.652344 119.808594 144.3125 121.722656 150.335938 C 122.988281 154.1875 124.160156 157.058594 125.511719 159.597656 C 126.269531 161.019531 127.113281 162.3125 128.03125 163.441406 C 128.882812 164.488281 129.78125 165.226562 130.691406 165.644531 C 131.382812 165.964844 132.21875 165.988281 133.039062 165.734375 C 134.125 165.414062 135.148438 164.800781 136.066406 163.941406 C 137.855469 162.257812 139.335938 159.851562 140.710938 156.367188 C 142.789062 150.957031 144.09375 144.632812 144.820312 136.507812 C 145.015625 134.3125 146.964844 132.675781 149.164062 132.875 C 151.359375 133.070312 152.992188 135.015625 152.796875 137.21875 C 152.003906 146.105469 150.53125 153.109375 148.167969 159.269531 C 146.332031 163.925781 144.230469 167.253906 141.539062 169.777344 C 139.707031 171.492188 137.578125 172.738281 135.371094 173.390625 C 134.242188 173.742188 133.085938 173.917969 131.933594 173.917969 Z M 131.933594 173.914062 " fill-opacity="1" fill-rule="nonzero"/><path fill="#050a44" d="M 110.199219 137.996094 C 110.046875 137.996094 109.914062 137.890625 109.882812 137.742188 C 109.847656 137.570312 109.957031 137.398438 110.136719 137.367188 L 118.015625 135.804688 C 118.195312 135.761719 118.359375 135.886719 118.390625 136.058594 C 118.425781 136.230469 118.316406 136.402344 118.136719 136.433594 L 110.257812 137.996094 C 110.257812 137.996094 110.210938 137.996094 110.199219 137.996094 Z M 110.199219 137.996094 " fill-opacity="1" fill-rule="nonzero"/><path fill="#050a44" d="M 113.179688 150.367188 C 113.046875 150.367188 112.910156 150.277344 112.875 150.136719 C 112.820312 149.964844 112.917969 149.785156 113.089844 149.738281 L 120.804688 147.480469 C 120.984375 147.4375 121.148438 147.527344 121.199219 147.699219 C 121.246094 147.871094 121.15625 148.050781 120.984375 148.09375 L 113.269531 150.351562 C 113.269531 150.351562 113.210938 150.367188 113.179688 150.367188 Z M 113.179688 150.367188 " fill-opacity="1" fill-rule="nonzero"/><path fill="#050a44" d="M 117.800781 162.59375 C 117.679688 162.59375 117.566406 162.527344 117.515625 162.417969 C 117.433594 162.257812 117.5 162.066406 117.65625 161.988281 L 124.839844 158.394531 C 124.996094 158.3125 125.191406 158.378906 125.265625 158.535156 C 125.347656 158.695312 125.28125 158.886719 125.125 158.960938 L 117.941406 162.558594 C 117.898438 162.582031 117.84375 162.59375 117.800781 162.59375 Z M 117.800781 162.59375 " fill-opacity="1" fill-rule="nonzero"/><path fill="#050a44" d="M 128.011719 173.613281 C 127.972656 173.613281 127.933594 173.613281 127.898438 173.589844 C 127.734375 173.53125 127.652344 173.34375 127.710938 173.179688 L 130.550781 165.667969 C 130.609375 165.503906 130.804688 165.414062 130.960938 165.480469 C 131.125 165.539062 131.210938 165.726562 131.148438 165.890625 L 128.308594 173.402344 C 128.265625 173.53125 128.136719 173.613281 128.011719 173.613281 Z M 128.011719 173.613281 " fill-opacity="1" fill-rule="nonzero"/><path fill="#050a44" d="M 143.355469 168.296875 C 143.28125 168.296875 143.214844 168.277344 143.152344 168.222656 L 136.972656 163.089844 C 136.835938 162.976562 136.816406 162.773438 136.925781 162.640625 C 137.039062 162.503906 137.242188 162.492188 137.375 162.59375 L 143.558594 167.730469 C 143.691406 167.84375 143.714844 168.042969 143.601562 168.179688 C 143.535156 168.253906 143.445312 168.292969 143.355469 168.292969 Z M 143.355469 168.296875 " fill-opacity="1" fill-rule="nonzero"/><path fill="#050a44" d="M 149.542969 155.882812 C 149.542969 155.882812 149.484375 155.882812 149.449219 155.867188 L 141.769531 153.507812 C 141.597656 153.453125 141.507812 153.273438 141.5625 153.101562 C 141.613281 152.929688 141.792969 152.839844 141.964844 152.894531 L 149.640625 155.253906 C 149.8125 155.308594 149.902344 155.488281 149.851562 155.660156 C 149.804688 155.792969 149.679688 155.882812 149.542969 155.882812 Z M 149.542969 155.882812 " fill-opacity="1" fill-rule="nonzero"/><path fill="#050a44" d="M 152.257812 143.160156 C 152.257812 143.160156 152.226562 143.160156 152.214844 143.160156 L 144.253906 142.070312 C 144.082031 142.046875 143.953125 141.882812 143.976562 141.710938 C 144 141.539062 144.140625 141.417969 144.335938 141.433594 L 152.296875 142.527344 C 152.46875 142.546875 152.59375 142.710938 152.570312 142.882812 C 152.550781 143.042969 152.414062 143.160156 152.257812 143.160156 Z M 152.257812 143.160156 " fill-opacity="1" fill-rule="nonzero"/><path fill="#050a44" d="M 98.371094 128.1875 C 98.371094 134.175781 103.222656 139.027344 109.210938 139.027344 C 115.199219 139.027344 120.050781 134.175781 120.050781 128.1875 C 120.050781 122.203125 115.199219 117.351562 109.210938 117.351562 C 103.222656 117.351562 98.371094 122.203125 98.371094 128.1875 Z M 98.371094 128.1875 " fill-opacity="1" fill-rule="nonzero"/><path fill="#0a21c0" d="M 70.640625 176.953125 L 93.347656 176.953125 C 105.898438 176.953125 115.652344 166.78125 115.132812 154.230469 L 114.085938 129.078125 C 113.808594 122.5 108.261719 117.171875 101.683594 117.171875 L 59.496094 117.171875 C 49.703125 117.171875 42.09375 125.109375 42.5 134.902344 L 43.148438 150.5625 C 43.753906 165.136719 56.058594 176.945312 70.632812 176.945312 Z M 70.640625 176.953125 " fill-opacity="1" fill-rule="nonzero"/><path fill="#050a44" d="M 114.683594 160.441406 C 114.511719 160.441406 114.359375 160.300781 114.359375 160.128906 L 114.105469 137.015625 C 114.105469 136.835938 114.25 136.695312 114.421875 136.695312 C 114.59375 136.695312 114.742188 136.835938 114.742188 137.007812 L 115.003906 160.121094 C 115.003906 160.300781 114.863281 160.441406 114.691406 160.441406 Z M 114.683594 160.441406 " fill-opacity="1" fill-rule="nonzero"/><path fill="#050a44" d="M 71.390625 134.042969 L 99.058594 134.042969 C 99.964844 134.042969 100.667969 133.308594 100.628906 132.40625 C 100.59375 131.5 99.832031 130.769531 98.917969 130.769531 L 71.246094 130.769531 C 70.34375 130.769531 69.640625 131.5 69.675781 132.40625 C 69.714844 133.308594 70.476562 134.042969 71.382812 134.042969 Z M 71.390625 134.042969 " fill-opacity="1" fill-rule="nonzero"/><path fill="#050a44" d="M 71.710938 141.785156 L 99.382812 141.785156 C 100.285156 141.785156 100.988281 141.054688 100.953125 140.148438 C 100.914062 139.246094 100.152344 138.511719 99.246094 138.511719 L 71.574219 138.511719 C 70.671875 138.511719 69.96875 139.246094 70.007812 140.148438 C 70.042969 141.054688 70.804688 141.785156 71.710938 141.785156 Z M 71.710938 141.785156 " fill-opacity="1" fill-rule="nonzero"/><path fill="#050a44" d="M 72.03125 149.53125 L 99.703125 149.53125 C 100.609375 149.53125 101.308594 148.796875 101.273438 147.894531 C 101.234375 146.988281 100.472656 146.253906 99.5625 146.253906 L 71.890625 146.253906 C 70.984375 146.253906 70.28125 146.988281 70.320312 147.894531 C 70.355469 148.796875 71.121094 149.53125 72.03125 149.53125 Z M 72.03125 149.53125 " fill-opacity="1" fill-rule="nonzero"/><path fill="#050a44" d="M 75.710938 122.328125 C 78.527344 123.007812 81.507812 122.980469 84.65625 122.230469 C 86.773438 121.730469 88.25 119.78125 88.25 117.605469 L 88.25 107.355469 L 72.261719 107.355469 L 72.261719 117.746094 C 72.261719 119.871094 73.644531 121.828125 75.710938 122.328125 Z M 75.710938 122.328125 " fill-opacity="1" fill-rule="nonzero"/><path fill="#050a44" d="M 75.410156 64.496094 L 94.359375 64.496094 C 94.773438 64.496094 95.167969 64.578125 95.550781 64.734375 C 95.933594 64.894531 96.269531 65.117188 96.5625 65.410156 C 96.855469 65.703125 97.082031 66.039062 97.238281 66.421875 C 97.398438 66.804688 97.476562 67.199219 97.476562 67.613281 L 97.476562 71.742188 C 97.476562 72.152344 97.398438 72.550781 97.238281 72.933594 C 97.082031 73.316406 96.855469 73.652344 96.5625 73.945312 C 96.269531 74.238281 95.933594 74.460938 95.550781 74.621094 C 95.167969 74.777344 94.773438 74.855469 94.359375 74.855469 L 75.410156 74.855469 C 74.996094 74.855469 74.597656 74.777344 74.21875 74.621094 C 73.835938 74.460938 73.5 74.238281 73.207031 73.945312 C 72.914062 73.652344 72.6875 73.316406 72.53125 72.933594 C 72.371094 72.550781 72.292969 72.152344 72.292969 71.742188 L 72.292969 67.613281 C 72.292969 67.199219 72.371094 66.804688 72.53125 66.421875 C 72.6875 66.039062 72.914062 65.703125 73.207031 65.410156 C 73.5 65.117188 73.835938 64.894531 74.21875 64.734375 C 74.597656 64.578125 74.996094 64.496094 75.410156 64.496094 Z M 75.410156 64.496094 " fill-opacity="1" fill-rule="nonzero"/><path fill="#0a21c0" d="M 47.761719 83.730469 L 47.761719 99.664062 C 47.761719 107.910156 54.464844 114.617188 62.734375 114.617188 L 100.347656 114.617188 C 108.140625 114.617188 114.527344 108.679688 115.242188 101.101562 C 115.296875 100.644531 115.324219 100.144531 115.324219 99.664062 L 115.324219 83.730469 C 115.324219 83.25 115.296875 82.742188 115.242188 82.292969 C 114.527344 74.714844 108.140625 68.78125 100.347656 68.78125 L 62.734375 68.78125 C 54.457031 68.78125 47.761719 75.484375 47.761719 83.730469 Z M 47.761719 83.730469 " fill-opacity="1" fill-rule="nonzero"/><path fill="#050a44" d="M 65.265625 88.042969 L 65.265625 95.359375 C 65.265625 101.585938 70.320312 106.640625 76.546875 106.640625 L 105.5625 106.640625 C 109.6875 106.640625 113.308594 104.433594 115.242188 101.109375 C 115.296875 100.652344 115.324219 100.152344 115.324219 99.671875 L 115.324219 83.738281 C 115.324219 83.257812 115.296875 82.75 115.242188 82.300781 C 113.300781 78.976562 109.683594 76.769531 105.5625 76.769531 L 76.546875 76.769531 C 70.320312 76.769531 65.265625 81.824219 65.265625 88.050781 Z M 65.265625 88.042969 " fill-opacity="1" fill-rule="nonzero"/><path fill="#e4e6ef" d="M 86.695312 95.449219 C 86.695312 97.371094 88.25 98.933594 90.179688 98.933594 C 92.109375 98.933594 93.664062 97.378906 93.664062 95.449219 C 93.664062 93.523438 92.109375 91.96875 90.179688 91.96875 C 88.25 91.96875 86.695312 93.523438 86.695312 95.449219 Z M 86.695312 95.449219 " fill-opacity="1" fill-rule="nonzero"/><path fill="#e4e6ef" d="M 97.453125 100.449219 C 97.453125 102.371094 99.007812 103.933594 100.9375 103.933594 C 102.863281 103.933594 104.417969 102.378906 104.417969 100.449219 Z M 97.453125 100.449219 " fill-opacity="1" fill-rule="nonzero"/><path fill="#e4e6ef" d="M 106.902344 95.449219 C 106.902344 97.371094 108.457031 98.933594 110.382812 98.933594 C 112.3125 98.933594 113.867188 97.378906 113.867188 95.449219 C 113.867188 93.523438 112.3125 91.96875 110.382812 91.96875 C 108.457031 91.96875 106.902344 93.523438 106.902344 95.449219 Z M 106.902344 95.449219 " fill-opacity="1" fill-rule="nonzero"/><path fill="#050a44" d="M 48.949219 80.238281 L 53.6875 80.238281 C 53.988281 80.238281 54.285156 80.269531 54.578125 80.328125 C 54.871094 80.386719 55.15625 80.472656 55.429688 80.585938 C 55.707031 80.699219 55.96875 80.839844 56.21875 81.007812 C 56.464844 81.171875 56.695312 81.359375 56.90625 81.574219 C 57.117188 81.785156 57.308594 82.015625 57.472656 82.261719 C 57.640625 82.511719 57.78125 82.773438 57.894531 83.050781 C 58.007812 83.324219 58.09375 83.609375 58.152344 83.902344 C 58.210938 84.195312 58.242188 84.492188 58.242188 84.792969 L 58.242188 98.605469 C 58.242188 98.902344 58.210938 99.199219 58.152344 99.492188 C 58.09375 99.785156 58.007812 100.070312 57.894531 100.347656 C 57.78125 100.621094 57.640625 100.886719 57.472656 101.132812 C 57.308594 101.382812 57.117188 101.613281 56.90625 101.824219 C 56.695312 102.035156 56.464844 102.222656 56.21875 102.390625 C 55.96875 102.554688 55.707031 102.695312 55.429688 102.808594 C 55.15625 102.925781 54.871094 103.011719 54.578125 103.070312 C 54.285156 103.128906 53.988281 103.15625 53.6875 103.15625 L 48.949219 103.15625 C 48.652344 103.15625 48.355469 103.128906 48.0625 103.070312 C 47.769531 103.011719 47.484375 102.925781 47.207031 102.808594 C 46.929688 102.695312 46.667969 102.554688 46.421875 102.390625 C 46.171875 102.222656 45.941406 102.035156 45.730469 101.824219 C 45.519531 101.613281 45.332031 101.382812 45.164062 101.132812 C 45 100.886719 44.859375 100.621094 44.746094 100.347656 C 44.628906 100.070312 44.542969 99.785156 44.484375 99.492188 C 44.425781 99.199219 44.398438 98.902344 44.398438 98.605469 L 44.398438 84.792969 C 44.398438 84.492188 44.425781 84.195312 44.484375 83.902344 C 44.542969 83.609375 44.628906 83.324219 44.746094 83.050781 C 44.859375 82.773438 45 82.511719 45.164062 82.261719 C 45.332031 82.015625 45.519531 81.785156 45.730469 81.574219 C 45.941406 81.359375 46.171875 81.171875 46.421875 81.007812 C 46.667969 80.839844 46.929688 80.699219 47.207031 80.585938 C 47.484375 80.472656 47.769531 80.386719 48.0625 80.328125 C 48.355469 80.269531 48.652344 80.238281 48.949219 80.238281 Z M 48.949219 80.238281 " fill-opacity="1" fill-rule="nonzero"/><path fill="#050a44" d="M 84.605469 66.800781 C 84.296875 66.875 84.042969 66.644531 83.902344 66.382812 L 77.5625 54.816406 C 77.355469 54.429688 77.496094 53.941406 77.875 53.734375 C 78.265625 53.515625 78.75 53.667969 78.960938 54.046875 L 84.605469 64.339844 L 90.351562 54.039062 C 90.570312 53.652344 91.054688 53.515625 91.445312 53.734375 C 91.832031 53.949219 91.964844 54.4375 91.75 54.824219 L 85.300781 66.386719 C 85.15625 66.644531 84.886719 66.800781 84.605469 66.800781 Z M 84.605469 66.800781 " fill-opacity="1" fill-rule="nonzero"/><path fill="#050a44" d="M 35.808594 128.1875 C 35.808594 134.175781 40.660156 139.027344 46.648438 139.027344 C 52.636719 139.027344 57.484375 134.175781 57.484375 128.1875 C 57.484375 122.203125 52.636719 117.351562 46.648438 117.351562 C 40.660156 117.351562 35.808594 122.203125 35.808594 128.1875 Z M 35.808594 128.1875 " fill-opacity="1" fill-rule="nonzero"/><path fill="#050a44" d="M 82.617188 111.386719 L 60.566406 111.386719 C 55.722656 111.386719 51.78125 107.445312 51.78125 102.601562 C 51.78125 102.273438 52.050781 102.003906 52.378906 102.003906 C 52.710938 102.003906 52.980469 102.273438 52.980469 102.601562 C 52.980469 106.78125 56.378906 110.183594 60.558594 110.183594 L 82.609375 110.183594 C 82.9375 110.183594 83.207031 110.453125 83.207031 110.78125 C 83.207031 111.109375 82.9375 111.378906 82.609375 111.378906 Z M 82.617188 111.386719 " fill-opacity="1" fill-rule="nonzero"/><path fill="#050a44" d="M 91.210938 110.75 C 91.210938 109.160156 89.925781 107.875 88.335938 107.875 L 84.558594 107.875 C 82.96875 107.875 81.679688 109.160156 81.679688 110.75 C 81.679688 112.34375 82.96875 113.628906 84.558594 113.628906 L 88.335938 113.628906 C 89.925781 113.628906 91.210938 112.34375 91.210938 110.75 Z M 91.210938 110.75 " fill-opacity="1" fill-rule="nonzero"/><path fill="#e4e6ef" d="M 143.960938 126.285156 C 144.328125 124.039062 144.609375 122.1875 144.753906 121.027344 C 143.789062 117.777344 144.835938 114.332031 144.835938 114.332031 C 144.835938 114.332031 142.636719 111.511719 141.621094 110.296875 C 140.058594 108.410156 141.410156 106.167969 144 107.679688 C 146.585938 109.179688 149.613281 111.109375 149.613281 111.109375 C 149.613281 111.109375 162.820312 108.890625 165.359375 108.472656 C 168.074219 108.023438 168.285156 110.003906 167.828125 110.726562 C 167.828125 110.726562 169.375 110.398438 169.988281 111.363281 C 170.972656 112.910156 168.820312 113.980469 168.820312 113.980469 C 168.820312 113.980469 170.601562 113.90625 170.546875 115.242188 C 170.488281 116.78125 168.007812 117.039062 168.007812 117.039062 C 168.628906 117.628906 168.53125 118.480469 167.355469 118.949219 C 166.0625 119.464844 156.878906 122.367188 156.878906 122.367188 L 156.847656 127.351562 C 155.121094 127.660156 149.394531 128.429688 143.96875 126.289062 Z M 143.960938 126.285156 " fill-opacity="1" fill-rule="nonzero"/><path fill="#050a44" d="M 152.234375 128.054688 C 149.792969 128.054688 146.769531 127.742188 143.847656 126.582031 C 143.707031 126.523438 143.625 126.378906 143.648438 126.230469 C 144.027344 123.882812 144.289062 122.140625 144.425781 121.050781 C 143.578125 118.128906 144.28125 115.125 144.476562 114.390625 C 144.035156 113.832031 142.25 111.542969 141.367188 110.488281 C 140.523438 109.472656 140.386719 108.21875 141.039062 107.445312 C 141.554688 106.839844 142.636719 106.503906 144.15625 107.386719 C 146.449219 108.726562 149.117188 110.40625 149.671875 110.757812 C 151.003906 110.535156 162.902344 108.539062 165.292969 108.140625 C 166.914062 107.875 167.671875 108.425781 168.015625 108.941406 C 168.304688 109.382812 168.375 109.90625 168.292969 110.347656 C 168.890625 110.324219 169.769531 110.429688 170.25 111.183594 C 170.546875 111.648438 170.628906 112.125 170.496094 112.605469 C 170.363281 113.089844 170.019531 113.488281 169.6875 113.769531 C 169.964844 113.84375 170.25 113.980469 170.472656 114.203125 C 170.75 114.480469 170.878906 114.832031 170.863281 115.257812 C 170.808594 116.574219 169.375 117.089844 168.566406 117.269531 C 168.6875 117.515625 168.730469 117.777344 168.679688 118.039062 C 168.582031 118.546875 168.15625 118.980469 167.46875 119.257812 C 166.273438 119.734375 158.632812 122.148438 157.191406 122.605469 L 157.160156 127.359375 C 157.160156 127.515625 157.050781 127.644531 156.898438 127.671875 C 156.113281 127.816406 154.402344 128.0625 152.234375 128.0625 Z M 144.320312 126.082031 C 149.363281 127.980469 154.640625 127.390625 156.527344 127.074219 L 156.554688 122.359375 C 156.554688 122.21875 156.644531 122.097656 156.78125 122.050781 C 156.871094 122.023438 165.964844 119.152344 167.238281 118.644531 C 167.714844 118.457031 168.007812 118.1875 168.058594 117.902344 C 168.097656 117.695312 168 117.464844 167.789062 117.261719 C 167.699219 117.179688 167.664062 117.042969 167.707031 116.925781 C 167.753906 116.804688 167.851562 116.722656 167.976562 116.707031 C 168 116.707031 170.183594 116.460938 170.226562 115.222656 C 170.234375 114.980469 170.167969 114.792969 170.023438 114.644531 C 169.703125 114.332031 169.082031 114.265625 168.828125 114.285156 L 168.8125 114.285156 C 168.671875 114.285156 168.546875 114.1875 168.507812 114.046875 C 168.46875 113.90625 168.539062 113.75 168.671875 113.679688 C 168.679688 113.679688 169.675781 113.164062 169.882812 112.417969 C 169.964844 112.117188 169.90625 111.828125 169.710938 111.511719 C 169.234375 110.757812 167.910156 111.019531 167.886719 111.019531 C 167.761719 111.050781 167.632812 110.996094 167.558594 110.894531 C 167.484375 110.789062 167.484375 110.644531 167.550781 110.542969 C 167.699219 110.300781 167.78125 109.734375 167.492188 109.285156 C 167.148438 108.777344 166.429688 108.597656 165.414062 108.761719 C 162.871094 109.1875 149.664062 111.402344 149.664062 111.402344 C 149.589844 111.417969 149.507812 111.402344 149.441406 111.355469 C 149.410156 111.332031 146.390625 109.421875 143.839844 107.933594 C 142.863281 107.363281 141.980469 107.335938 141.539062 107.851562 C 141.171875 108.285156 141.121094 109.167969 141.875 110.070312 C 142.878906 111.28125 145.066406 114.09375 145.089844 114.113281 C 145.15625 114.195312 145.171875 114.308594 145.140625 114.40625 C 145.132812 114.445312 144.140625 117.808594 145.058594 120.925781 C 145.074219 120.96875 145.074219 121.007812 145.066406 121.050781 C 144.941406 122.105469 144.6875 123.792969 144.320312 126.058594 Z M 144.320312 126.082031 " fill-opacity="1" fill-rule="nonzero"/><path fill="#050a44" d="M 159.808594 117.859375 C 159.710938 117.859375 159.613281 117.816406 159.554688 117.730469 C 159.410156 117.554688 156.070312 113.253906 149.851562 115.378906 C 149.6875 115.429688 149.5 115.347656 149.449219 115.175781 C 149.386719 115.011719 149.476562 114.824219 149.648438 114.773438 C 155.644531 112.730469 159.246094 116.402344 159.941406 117.203125 C 165.628906 116.445312 167.519531 116.289062 168.195312 116.777344 C 168.335938 116.878906 168.367188 117.082031 168.269531 117.222656 C 168.164062 117.367188 167.96875 117.394531 167.820312 117.296875 C 167.289062 116.910156 164.179688 117.292969 159.851562 117.867188 C 159.835938 117.867188 159.820312 117.867188 159.808594 117.867188 Z M 159.808594 117.859375 " fill-opacity="1" fill-rule="nonzero"/><path fill="#050a44" d="M 159.042969 116.867188 C 158.902344 116.867188 158.777344 116.769531 158.738281 116.625 C 158.695312 116.453125 158.796875 116.28125 158.96875 116.238281 L 168.746094 113.660156 C 168.917969 113.613281 169.089844 113.71875 169.136719 113.890625 C 169.179688 114.0625 169.074219 114.234375 168.902344 114.277344 L 159.128906 116.859375 C 159.128906 116.859375 159.074219 116.867188 159.042969 116.867188 Z M 159.042969 116.867188 " fill-opacity="1" fill-rule="nonzero"/><path fill="#050a44" d="M 156.878906 113.496094 C 156.726562 113.496094 156.601562 113.390625 156.5625 113.246094 C 156.527344 113.074219 156.628906 112.902344 156.800781 112.867188 L 167.753906 110.40625 C 167.925781 110.371094 168.097656 110.472656 168.132812 110.644531 C 168.171875 110.816406 168.066406 110.988281 167.894531 111.027344 L 156.945312 113.488281 C 156.945312 113.488281 156.898438 113.496094 156.878906 113.496094 Z M 156.878906 113.496094 " fill-opacity="1" fill-rule="nonzero"/><path fill="#050a44" d="M 140.28125 132.230469 L 140.894531 125.390625 C 140.921875 125.09375 141 124.816406 141.140625 124.554688 C 141.277344 124.292969 141.457031 124.066406 141.683594 123.878906 C 141.910156 123.6875 142.164062 123.550781 142.445312 123.460938 C 142.730469 123.375 143.015625 123.34375 143.3125 123.367188 L 157.351562 124.628906 C 157.648438 124.652344 157.925781 124.734375 158.1875 124.871094 C 158.449219 125.007812 158.671875 125.191406 158.863281 125.417969 C 159.050781 125.644531 159.191406 125.898438 159.277344 126.179688 C 159.367188 126.460938 159.398438 126.75 159.371094 127.042969 L 158.757812 133.886719 C 158.734375 134.179688 158.652344 134.457031 158.515625 134.71875 C 158.378906 134.980469 158.195312 135.207031 157.96875 135.398438 C 157.742188 135.585938 157.488281 135.726562 157.207031 135.8125 C 156.925781 135.902344 156.636719 135.933594 156.339844 135.90625 L 142.300781 134.648438 C 142.007812 134.621094 141.726562 134.539062 141.464844 134.402344 C 141.203125 134.265625 140.980469 134.085938 140.789062 133.859375 C 140.601562 133.632812 140.460938 133.375 140.375 133.09375 C 140.285156 132.8125 140.253906 132.523438 140.28125 132.230469 Z M 140.28125 132.230469 " fill-opacity="1" fill-rule="nonzero"/><path fill="#0a21c0" d="M 50.648438 174.585938 C 46.125 174.285156 42.074219 172.738281 38.933594 170.109375 L 38.371094 169.578125 C 37.164062 168.382812 35.511719 166.757812 34.53125 164.300781 C 33.535156 162.085938 33.273438 159.867188 33.148438 157.886719 C 32.96875 154.203125 33.425781 150.71875 33.902344 147.707031 C 34.875 142.183594 36.390625 136.300781 38.546875 129.730469 C 39.589844 126.539062 43.015625 124.78125 46.214844 125.835938 C 49.40625 126.882812 51.15625 130.3125 50.109375 133.503906 C 48.140625 139.527344 46.757812 144.867188 45.898438 149.714844 C 45.535156 152.019531 45.175781 154.71875 45.292969 157.199219 C 45.324219 157.648438 45.398438 158.835938 45.632812 159.328125 L 45.789062 159.710938 C 45.921875 159.941406 46.503906 160.515625 46.894531 160.898438 C 48.023438 161.773438 49.628906 162.320312 51.46875 162.445312 C 53.441406 162.589844 55.667969 162.347656 58.496094 161.707031 C 64.0625 160.433594 69.339844 158.082031 73.773438 155.949219 C 76.800781 154.492188 80.433594 155.761719 81.890625 158.789062 C 83.347656 161.816406 82.078125 165.449219 79.050781 166.910156 C 74.003906 169.335938 67.941406 172.027344 61.1875 173.570312 C 57.964844 174.292969 55.175781 174.652344 52.574219 174.652344 C 51.917969 174.652344 51.273438 174.628906 50.640625 174.585938 Z M 42.8125 165.4375 L 42.835938 165.4375 Z M 42.8125 165.4375 " fill-opacity="1" fill-rule="nonzero"/><path fill="#050a44" d="M 48.742188 138.855469 C 48.949219 138.855469 49.144531 138.722656 49.210938 138.503906 C 49.285156 138.25 49.136719 137.972656 48.882812 137.898438 L 37.15625 134.484375 C 36.902344 134.414062 36.625 134.558594 36.550781 134.820312 C 36.472656 135.074219 36.625 135.351562 36.886719 135.425781 L 48.613281 138.839844 C 48.660156 138.855469 48.703125 138.863281 48.746094 138.863281 Z M 48.742188 138.855469 " fill-opacity="1" fill-rule="nonzero"/><path fill="#050a44" d="M 46.410156 148.214844 C 46.640625 148.214844 46.84375 148.050781 46.886719 147.824219 C 46.9375 147.5625 46.765625 147.300781 46.503906 147.25 L 34.523438 144.871094 C 34.238281 144.8125 34 144.992188 33.949219 145.253906 C 33.894531 145.515625 34.066406 145.777344 34.328125 145.828125 L 46.3125 148.207031 C 46.3125 148.207031 46.378906 148.214844 46.410156 148.214844 Z M 46.410156 148.214844 " fill-opacity="1" fill-rule="nonzero"/><path fill="#050a44" d="M 33.171875 157.214844 L 45.382812 157.035156 C 45.652344 157.035156 45.871094 156.808594 45.863281 156.542969 C 45.863281 156.273438 45.667969 156.019531 45.371094 156.0625 L 33.15625 156.242188 C 32.886719 156.242188 32.667969 156.464844 32.675781 156.734375 C 32.675781 157.003906 32.902344 157.214844 33.164062 157.214844 Z M 33.171875 157.214844 " fill-opacity="1" fill-rule="nonzero"/><path fill="#050a44" d="M 39.382812 170.839844 C 39.523438 170.839844 39.667969 170.78125 39.761719 170.660156 L 47.410156 161.128906 C 47.582031 160.921875 47.542969 160.613281 47.335938 160.441406 C 47.125 160.269531 46.820312 160.308594 46.648438 160.519531 L 39 170.046875 C 38.828125 170.257812 38.867188 170.5625 39.074219 170.734375 C 39.164062 170.808594 39.269531 170.839844 39.382812 170.839844 Z M 39.382812 170.839844 " fill-opacity="1" fill-rule="nonzero"/><path fill="#050a44" d="M 52.785156 175.039062 C 53.054688 175.039062 53.269531 174.816406 53.269531 174.554688 L 53.203125 162.339844 C 53.203125 162.074219 52.984375 161.855469 52.71875 161.855469 C 52.449219 161.855469 52.230469 162.078125 52.230469 162.339844 L 52.296875 174.554688 C 52.296875 174.824219 52.515625 175.039062 52.785156 175.039062 Z M 52.785156 175.039062 " fill-opacity="1" fill-rule="nonzero"/><path fill="#050a44" d="M 64.46875 173.121094 C 64.511719 173.121094 64.558594 173.121094 64.601562 173.097656 C 64.863281 173.023438 65.003906 172.753906 64.9375 172.492188 L 61.523438 160.765625 C 61.449219 160.503906 61.179688 160.359375 60.917969 160.429688 C 60.65625 160.503906 60.511719 160.773438 60.582031 161.035156 L 63.996094 172.761719 C 64.054688 172.976562 64.25 173.113281 64.46875 173.113281 Z M 64.46875 173.121094 " fill-opacity="1" fill-rule="nonzero"/><path fill="#050a44" d="M 74.753906 169.308594 C 74.820312 169.308594 74.886719 169.292969 74.945312 169.269531 C 75.195312 169.160156 75.304688 168.875 75.195312 168.628906 L 70.28125 157.445312 C 70.171875 157.199219 69.878906 157.09375 69.640625 157.191406 C 69.394531 157.304688 69.28125 157.585938 69.394531 157.835938 L 74.304688 169.015625 C 74.386719 169.195312 74.566406 169.308594 74.753906 169.308594 Z M 74.753906 169.308594 " fill-opacity="1" fill-rule="nonzero"/><path fill="#050a44" d="M 52.597656 162.804688 C 52.203125 162.804688 51.820312 162.789062 51.445312 162.761719 C 49.5625 162.632812 47.882812 162.066406 46.699219 161.152344 C 46.109375 160.570312 45.652344 160.113281 45.511719 159.867188 L 45.332031 159.449219 C 45.109375 158.976562 45.019531 158.007812 44.964844 157.222656 C 44.847656 154.6875 45.203125 151.972656 45.578125 149.664062 C 46.4375 144.769531 47.820312 139.445312 49.792969 133.398438 C 49.847656 133.234375 50.035156 133.136719 50.199219 133.199219 C 50.363281 133.25 50.460938 133.4375 50.398438 133.601562 C 48.433594 139.617188 47.066406 144.910156 46.207031 149.769531 C 45.839844 152.046875 45.480469 154.710938 45.601562 157.175781 C 45.625 157.566406 45.707031 158.746094 45.90625 159.1875 L 46.070312 159.574219 C 46.160156 159.726562 46.757812 160.324219 47.082031 160.636719 C 48.15625 161.472656 49.71875 161.996094 51.476562 162.117188 C 53.390625 162.257812 55.59375 162.019531 58.414062 161.382812 C 63.945312 160.121094 69.207031 157.78125 73.625 155.652344 C 76.808594 154.121094 80.636719 155.464844 82.167969 158.640625 C 82.242188 158.796875 82.175781 158.992188 82.019531 159.066406 C 81.859375 159.140625 81.667969 159.074219 81.59375 158.917969 C 80.210938 156.054688 76.753906 154.84375 73.898438 156.226562 C 69.445312 158.371094 64.144531 160.734375 58.554688 162.011719 C 56.214844 162.542969 54.285156 162.796875 52.582031 162.796875 Z M 52.597656 162.804688 " fill-opacity="1" fill-rule="nonzero"/><path fill="#050a44" d="M 52.582031 174.972656 C 52.402344 174.972656 52.261719 174.832031 52.261719 174.652344 C 52.261719 174.472656 52.402344 174.332031 52.582031 174.332031 C 55.132812 174.332031 57.925781 173.980469 61.125 173.253906 C 67.847656 171.722656 73.894531 169.039062 78.921875 166.617188 C 80.3125 165.953125 81.351562 164.785156 81.859375 163.328125 C 82.371094 161.878906 82.28125 160.308594 81.613281 158.925781 C 81.539062 158.769531 81.605469 158.574219 81.765625 158.5 C 81.921875 158.425781 82.113281 158.492188 82.191406 158.648438 C 82.929688 160.1875 83.027344 161.929688 82.464844 163.542969 C 81.90625 165.160156 80.738281 166.460938 79.199219 167.199219 C 74.140625 169.636719 68.054688 172.335938 61.269531 173.882812 C 58.023438 174.613281 55.175781 174.972656 52.582031 174.972656 Z M 52.582031 174.972656 " fill-opacity="1" fill-rule="nonzero"/><path fill="#e4e6ef" d="M 80.5 151.203125 C 80.5 151.203125 87.984375 144.910156 91.085938 143.496094 C 96.078125 141.21875 99.875 141.761719 102.371094 143.386719 C 105.375 145.34375 108.53125 152.421875 109.113281 153.761719 C 109.695312 155.097656 107.949219 156.316406 106.035156 154.980469 C 106.035156 154.980469 106.265625 156.636719 105.449219 157.59375 C 104.792969 158.371094 102.953125 158.179688 102.953125 158.179688 C 102.953125 158.179688 102.601562 159.949219 101.558594 160.300781 C 100.511719 160.652344 99.582031 160.039062 99.582031 160.039062 C 99.582031 160.039062 99.121094 161.257812 98.246094 161.378906 C 97.371094 161.496094 96.707031 160.945312 95.949219 159.402344 C 95.195312 157.863281 94.554688 157.019531 94.554688 157.019531 C 94.554688 157.019531 90.128906 160.332031 86.90625 161.953125 Z M 80.5 151.203125 " fill-opacity="1" fill-rule="nonzero"/><path fill="#050a44" d="M 86.90625 162.273438 C 86.792969 162.273438 86.691406 162.214844 86.628906 162.117188 L 80.222656 151.367188 C 80.140625 151.234375 80.171875 151.0625 80.292969 150.957031 C 80.597656 150.695312 87.839844 144.625 90.949219 143.207031 C 95.398438 141.171875 99.515625 141.144531 102.550781 143.117188 C 105.519531 145.050781 108.554688 151.652344 109.414062 153.625 C 109.703125 154.292969 109.539062 154.984375 108.988281 155.441406 C 108.464844 155.867188 107.515625 156.109375 106.394531 155.554688 C 106.394531 156.175781 106.273438 157.125 105.707031 157.796875 C 105.105469 158.507812 103.800781 158.542969 103.207031 158.507812 C 103.050781 159.058594 102.609375 160.277344 101.667969 160.59375 C 100.867188 160.863281 100.144531 160.644531 99.742188 160.464844 C 99.515625 160.882812 99.039062 161.578125 98.296875 161.683594 C 96.980469 161.863281 96.242188 160.695312 95.675781 159.53125 C 95.179688 158.523438 94.730469 157.8125 94.492188 157.460938 C 93.484375 158.199219 89.820312 160.839844 87.0625 162.230469 C 87.019531 162.25 86.964844 162.265625 86.921875 162.265625 Z M 80.910156 151.277344 L 87.027344 161.535156 C 90.164062 159.898438 94.320312 156.796875 94.367188 156.765625 C 94.5 156.660156 94.703125 156.691406 94.816406 156.824219 C 94.84375 156.863281 95.480469 157.707031 96.242188 159.261719 C 97.078125 160.957031 97.675781 161.121094 98.207031 161.0625 C 98.769531 160.988281 99.179688 160.21875 99.292969 159.925781 C 99.328125 159.835938 99.398438 159.769531 99.492188 159.738281 C 99.582031 159.710938 99.6875 159.726562 99.761719 159.777344 C 99.769531 159.777344 100.585938 160.292969 101.46875 160 C 102.175781 159.761719 102.558594 158.566406 102.648438 158.117188 C 102.679688 157.953125 102.820312 157.863281 103 157.863281 C 103.460938 157.917969 104.769531 157.925781 105.21875 157.394531 C 105.929688 156.554688 105.726562 155.046875 105.726562 155.03125 C 105.710938 154.902344 105.773438 154.777344 105.878906 154.71875 C 105.980469 154.648438 106.125 154.65625 106.226562 154.726562 C 107.214844 155.414062 108.128906 155.335938 108.589844 154.957031 C 108.917969 154.6875 109.007812 154.292969 108.835938 153.894531 C 108.238281 152.519531 105.105469 145.546875 102.214844 143.660156 C 99.375 141.808594 95.472656 141.851562 91.234375 143.789062 C 88.492188 145.039062 82.160156 150.253906 80.933594 151.277344 Z M 80.910156 151.277344 " fill-opacity="1" fill-rule="nonzero"/><path fill="#050a44" d="M 94.554688 157.339844 C 94.433594 157.339844 94.320312 157.273438 94.261719 157.160156 C 93.761719 156.101562 91.816406 153.609375 91.800781 153.589844 C 91.691406 153.445312 91.71875 153.246094 91.855469 153.140625 C 91.996094 153.027344 92.191406 153.058594 92.304688 153.191406 C 92.386719 153.296875 94.304688 155.761719 94.835938 156.886719 C 94.910156 157.050781 94.84375 157.234375 94.6875 157.3125 C 94.644531 157.332031 94.597656 157.339844 94.554688 157.339844 Z M 94.554688 157.339844 " fill-opacity="1" fill-rule="nonzero"/><path fill="#050a44" d="M 99.582031 160.359375 C 99.402344 160.359375 99.261719 160.21875 99.261719 160.039062 C 99.261719 160.03125 99.246094 158.828125 98.46875 156.921875 C 97.675781 154.972656 95.90625 152.296875 95.882812 152.273438 C 95.785156 152.125 95.824219 151.929688 95.972656 151.832031 C 96.113281 151.726562 96.316406 151.773438 96.414062 151.921875 C 96.488281 152.035156 98.246094 154.679688 99.058594 156.691406 C 99.890625 158.730469 99.898438 160 99.898438 160.054688 C 99.898438 160.234375 99.753906 160.375 99.574219 160.375 Z M 99.582031 160.359375 " fill-opacity="1" fill-rule="nonzero"/><path fill="#050a44" d="M 102.953125 158.5 C 102.789062 158.5 102.65625 158.371094 102.632812 158.207031 C 102.632812 158.191406 102.453125 156.472656 101.558594 154.457031 C 100.652344 152.429688 99.082031 150.449219 99.066406 150.425781 C 98.957031 150.285156 98.976562 150.082031 99.121094 149.976562 C 99.253906 149.867188 99.457031 149.886719 99.570312 150.03125 C 99.636719 150.113281 101.207031 152.09375 102.140625 154.203125 C 103.082031 156.316406 103.261719 158.074219 103.269531 158.15625 C 103.285156 158.328125 103.15625 158.484375 102.984375 158.507812 C 102.976562 158.507812 102.960938 158.507812 102.953125 158.507812 Z M 102.953125 158.5 " fill-opacity="1" fill-rule="nonzero"/><path fill="#050a44" d="M 106.035156 155.300781 C 105.898438 155.300781 105.78125 155.21875 105.726562 155.082031 C 105.710938 155.046875 104.328125 150.988281 101.96875 148.625 C 101.839844 148.5 101.839844 148.296875 101.96875 148.167969 C 102.09375 148.042969 102.296875 148.042969 102.425781 148.167969 C 104.890625 150.636719 106.28125 154.703125 106.332031 154.875 C 106.394531 155.039062 106.304688 155.226562 106.132812 155.277344 C 106.09375 155.285156 106.0625 155.292969 106.027344 155.292969 Z M 106.035156 155.300781 " fill-opacity="1" fill-rule="nonzero"/><path fill="#050a44" d="M 86.90625 162.273438 C 86.792969 162.273438 86.691406 162.214844 86.628906 162.117188 L 80.222656 151.367188 C 80.140625 151.234375 80.171875 151.0625 80.292969 150.957031 C 80.597656 150.695312 87.839844 144.625 90.949219 143.207031 C 95.398438 141.171875 99.515625 141.144531 102.550781 143.117188 C 105.519531 145.050781 108.554688 151.652344 109.414062 153.625 C 109.703125 154.292969 109.539062 154.984375 108.988281 155.441406 C 108.464844 155.867188 107.515625 156.109375 106.394531 155.554688 C 106.394531 156.175781 106.273438 157.125 105.707031 157.796875 C 105.105469 158.507812 103.800781 158.542969 103.207031 158.507812 C 103.050781 159.058594 102.609375 160.277344 101.667969 160.59375 C 100.867188 160.863281 100.144531 160.644531 99.742188 160.464844 C 99.515625 160.882812 99.039062 161.578125 98.296875 161.683594 C 96.980469 161.863281 96.242188 160.695312 95.675781 159.53125 C 95.179688 158.523438 94.730469 157.8125 94.492188 157.460938 C 93.484375 158.199219 89.820312 160.839844 87.0625 162.230469 C 87.019531 162.25 86.964844 162.265625 86.921875 162.265625 Z M 80.910156 151.277344 L 87.027344 161.535156 C 90.164062 159.898438 94.320312 156.796875 94.367188 156.765625 C 94.5 156.660156 94.703125 156.691406 94.816406 156.824219 C 94.84375 156.863281 95.480469 157.707031 96.242188 159.261719 C 97.078125 160.957031 97.675781 161.121094 98.207031 161.0625 C 98.769531 160.988281 99.179688 160.21875 99.292969 159.925781 C 99.328125 159.835938 99.398438 159.769531 99.492188 159.738281 C 99.582031 159.710938 99.6875 159.726562 99.761719 159.777344 C 99.769531 159.777344 100.585938 160.292969 101.46875 160 C 102.175781 159.761719 102.558594 158.566406 102.648438 158.117188 C 102.679688 157.953125 102.820312 157.863281 103 157.863281 C 103.460938 157.917969 104.769531 157.925781 105.21875 157.394531 C 105.929688 156.554688 105.726562 155.046875 105.726562 155.03125 C 105.710938 154.902344 105.773438 154.777344 105.878906 154.71875 C 105.980469 154.648438 106.125 154.65625 106.226562 154.726562 C 107.214844 155.414062 108.128906 155.335938 108.589844 154.957031 C 108.917969 154.6875 109.007812 154.292969 108.835938 153.894531 C 108.238281 152.519531 105.105469 145.546875 102.214844 143.660156 C 99.375 141.808594 95.472656 141.851562 91.234375 143.789062 C 88.492188 145.039062 82.160156 150.253906 80.933594 151.277344 Z M 80.910156 151.277344 " fill-opacity="1" fill-rule="nonzero"/><path fill="#050a44" d="M 74.488281 151.769531 L 80.082031 147.78125 C 80.320312 147.609375 80.585938 147.492188 80.875 147.425781 C 81.160156 147.359375 81.449219 147.351562 81.742188 147.398438 C 82.035156 147.449219 82.304688 147.550781 82.554688 147.707031 C 82.804688 147.863281 83.015625 148.0625 83.1875 148.300781 L 91.371094 159.78125 C 91.542969 160.023438 91.660156 160.285156 91.726562 160.574219 C 91.792969 160.863281 91.800781 161.152344 91.753906 161.445312 C 91.703125 161.734375 91.601562 162.003906 91.445312 162.257812 C 91.289062 162.507812 91.089844 162.71875 90.847656 162.890625 L 85.253906 166.875 C 85.015625 167.046875 84.75 167.167969 84.460938 167.234375 C 84.175781 167.300781 83.886719 167.308594 83.59375 167.257812 C 83.300781 167.210938 83.03125 167.105469 82.78125 166.949219 C 82.53125 166.792969 82.320312 166.59375 82.148438 166.355469 L 73.964844 154.875 C 73.792969 154.636719 73.675781 154.371094 73.609375 154.082031 C 73.542969 153.796875 73.535156 153.503906 73.582031 153.214844 C 73.632812 152.921875 73.734375 152.652344 73.890625 152.402344 C 74.046875 152.152344 74.246094 151.941406 74.488281 151.769531 Z M 74.488281 151.769531 " fill-opacity="1" fill-rule="nonzero"/><g clip-path="url(#18a3265911)"><path fill="#e4e6ef" d="M 177.550781 178.488281 C 177.550781 180.003906 176.328125 181.230469 174.808594 181.230469 L 25.769531 181.230469 C 22.601562 181.230469 19.828125 179.144531 18.976562 176.085938 L 18.894531 175.742188 L 174.816406 175.742188 C 176.332031 175.742188 177.558594 176.96875 177.558594 178.488281 Z M 177.550781 178.488281 " fill-opacity="1" fill-rule="nonzero"/><path fill="#050a44" d="M 174.808594 181.550781 L 25.769531 181.550781 C 22.472656 181.550781 19.550781 179.339844 18.664062 176.175781 L 18.574219 175.824219 C 18.550781 175.730469 18.574219 175.632812 18.632812 175.550781 C 18.691406 175.472656 18.789062 175.421875 18.886719 175.421875 L 174.808594 175.421875 C 176.5 175.421875 177.875 176.796875 177.875 178.488281 C 177.875 180.175781 176.5 181.550781 174.808594 181.550781 Z M 19.296875 176.066406 C 20.121094 178.921875 22.78125 180.910156 25.769531 180.910156 L 174.808594 180.910156 C 176.148438 180.910156 177.230469 179.824219 177.230469 178.488281 C 177.230469 177.148438 176.148438 176.066406 174.808594 176.066406 Z M 19.296875 176.066406 " fill-opacity="1" fill-rule="nonzero"/></g><path fill="#e4e6ef" d="M 121.664062 86.167969 L 131.875 83.566406 L 131.875 76.933594 C 131.875 74.691406 133.691406 72.867188 135.941406 72.867188 L 169.464844 72.867188 C 171.707031 72.867188 173.53125 74.683594 173.53125 76.933594 L 173.53125 95.53125 C 173.53125 97.773438 171.714844 99.597656 169.464844 99.597656 L 135.941406 99.597656 C 133.699219 99.597656 131.875 97.78125 131.875 95.53125 L 131.875 89.71875 L 121.664062 87.117188 C 121.171875 86.988281 121.171875 86.285156 121.664062 86.160156 Z M 121.664062 86.167969 " fill-opacity="1" fill-rule="nonzero"/><path fill="#050a44" d="M 169.464844 99.921875 L 135.941406 99.921875 C 133.527344 99.921875 131.558594 97.953125 131.558594 95.539062 L 131.558594 89.972656 L 121.589844 87.429688 C 121.222656 87.339844 120.976562 87.019531 120.976562 86.644531 C 120.976562 86.269531 121.222656 85.949219 121.589844 85.859375 L 131.558594 83.320312 L 131.558594 76.933594 C 131.558594 74.519531 133.527344 72.554688 135.941406 72.554688 L 169.464844 72.554688 C 171.878906 72.554688 173.84375 74.519531 173.84375 76.933594 L 173.84375 95.53125 C 173.84375 97.945312 171.878906 99.914062 169.464844 99.914062 Z M 135.933594 73.199219 C 133.871094 73.199219 132.1875 74.878906 132.1875 76.941406 L 132.1875 83.574219 C 132.1875 83.722656 132.089844 83.847656 131.949219 83.878906 L 121.738281 86.480469 C 121.617188 86.511719 121.613281 86.609375 121.613281 86.644531 C 121.613281 86.683594 121.625 86.78125 121.738281 86.808594 L 131.949219 89.410156 C 132.089844 89.449219 132.1875 89.574219 132.1875 89.71875 L 132.1875 95.53125 C 132.1875 97.59375 133.871094 99.277344 135.933594 99.277344 L 169.457031 99.277344 C 171.519531 99.277344 173.203125 97.59375 173.203125 95.53125 L 173.203125 76.933594 C 173.203125 74.871094 171.519531 73.191406 169.457031 73.191406 L 135.933594 73.191406 Z M 121.664062 86.167969 L 121.671875 86.167969 Z M 121.664062 86.167969 " fill-opacity="1" fill-rule="nonzero"/><path fill="#050a44" d="M 142.570312 80.972656 L 138.011719 80.972656 C 137.832031 80.972656 137.691406 80.828125 137.691406 80.648438 C 137.691406 80.472656 137.832031 80.328125 138.011719 80.328125 L 142.570312 80.328125 C 142.75 80.328125 142.890625 80.472656 142.890625 80.648438 C 142.890625 80.828125 142.75 80.972656 142.570312 80.972656 Z M 142.570312 80.972656 " fill-opacity="1" fill-rule="nonzero"/><path fill="#050a44" d="M 167.140625 80.972656 L 145.367188 80.972656 C 145.1875 80.972656 145.042969 80.828125 145.042969 80.648438 C 145.042969 80.472656 145.1875 80.328125 145.367188 80.328125 L 167.140625 80.328125 C 167.320312 80.328125 167.460938 80.472656 167.460938 80.648438 C 167.460938 80.828125 167.320312 80.972656 167.140625 80.972656 Z M 167.140625 80.972656 " fill-opacity="1" fill-rule="nonzero"/><path fill="#050a44" d="M 161.535156 86.4375 L 138.011719 86.4375 C 137.832031 86.4375 137.691406 86.292969 137.691406 86.113281 C 137.691406 85.933594 137.832031 85.792969 138.011719 85.792969 L 161.535156 85.792969 C 161.714844 85.792969 161.855469 85.933594 161.855469 86.113281 C 161.855469 86.292969 161.714844 86.4375 161.535156 86.4375 Z M 161.535156 86.4375 " fill-opacity="1" fill-rule="nonzero"/><path fill="#050a44" d="M 167.140625 86.4375 L 164.082031 86.4375 C 163.902344 86.4375 163.761719 86.292969 163.761719 86.113281 C 163.761719 85.933594 163.902344 85.792969 164.082031 85.792969 L 167.140625 85.792969 C 167.320312 85.792969 167.460938 85.933594 167.460938 86.113281 C 167.460938 86.292969 167.320312 86.4375 167.140625 86.4375 Z M 167.140625 86.4375 " fill-opacity="1" fill-rule="nonzero"/><path fill="#050a44" d="M 153.207031 91.90625 L 138.011719 91.90625 C 137.832031 91.90625 137.691406 91.765625 137.691406 91.585938 C 137.691406 91.40625 137.832031 91.265625 138.011719 91.265625 L 153.207031 91.265625 C 153.386719 91.265625 153.527344 91.40625 153.527344 91.585938 C 153.527344 91.765625 153.386719 91.90625 153.207031 91.90625 Z M 153.207031 91.90625 " fill-opacity="1" fill-rule="nonzero"/><path fill="#050a44" d="M 167.140625 91.90625 L 155.757812 91.90625 C 155.578125 91.90625 155.433594 91.765625 155.433594 91.585938 C 155.433594 91.40625 155.578125 91.265625 155.757812 91.265625 L 167.140625 91.265625 C 167.320312 91.265625 167.460938 91.40625 167.460938 91.585938 C 167.460938 91.765625 167.320312 91.90625 167.140625 91.90625 Z M 167.140625 91.90625 " fill-opacity="1" fill-rule="nonzero"/><path fill="#0a21c0" d="M 195.035156 141.980469 L 188.234375 141.980469 L 191.894531 135.875 C 192.054688 135.613281 191.761719 135.304688 191.492188 135.453125 L 179.808594 141.980469 L 162.222656 141.980469 C 159.785156 141.980469 157.804688 143.953125 157.804688 146.398438 L 157.804688 164.292969 C 157.804688 166.730469 159.777344 168.710938 162.222656 168.710938 L 195.042969 168.710938 C 197.480469 168.710938 199.460938 166.738281 199.460938 164.292969 L 199.460938 146.398438 C 199.460938 143.960938 197.488281 141.980469 195.042969 141.980469 Z M 195.035156 141.980469 " fill-opacity="1" fill-rule="nonzero"/><path fill="#050a44" d="M 193.308594 161.257812 L 188.75 161.257812 C 188.570312 161.257812 188.429688 161.117188 188.429688 160.9375 C 188.429688 160.757812 188.570312 160.613281 188.75 160.613281 L 193.308594 160.613281 C 193.488281 160.613281 193.628906 160.757812 193.628906 160.9375 C 193.628906 161.117188 193.488281 161.257812 193.308594 161.257812 Z M 193.308594 161.257812 " fill-opacity="1" fill-rule="nonzero"/><path fill="#050a44" d="M 185.960938 161.257812 L 164.1875 161.257812 C 164.007812 161.257812 163.867188 161.117188 163.867188 160.9375 C 163.867188 160.757812 164.007812 160.613281 164.1875 160.613281 L 185.960938 160.613281 C 186.140625 160.613281 186.28125 160.757812 186.28125 160.9375 C 186.28125 161.117188 186.140625 161.257812 185.960938 161.257812 Z M 185.960938 161.257812 " fill-opacity="1" fill-rule="nonzero"/><path fill="#050a44" d="M 193.308594 155.785156 L 169.785156 155.785156 C 169.605469 155.785156 169.464844 155.644531 169.464844 155.464844 C 169.464844 155.285156 169.605469 155.144531 169.785156 155.144531 L 193.308594 155.144531 C 193.488281 155.144531 193.628906 155.285156 193.628906 155.464844 C 193.628906 155.644531 193.488281 155.785156 193.308594 155.785156 Z M 193.308594 155.785156 " fill-opacity="1" fill-rule="nonzero"/><path fill="#050a44" d="M 167.238281 155.785156 L 164.179688 155.785156 C 164 155.785156 163.859375 155.644531 163.859375 155.464844 C 163.859375 155.285156 164 155.144531 164.179688 155.144531 L 167.238281 155.144531 C 167.417969 155.144531 167.558594 155.285156 167.558594 155.464844 C 167.558594 155.644531 167.417969 155.785156 167.238281 155.785156 Z M 167.238281 155.785156 " fill-opacity="1" fill-rule="nonzero"/><path fill="#050a44" d="M 193.308594 150.316406 L 178.113281 150.316406 C 177.933594 150.316406 177.792969 150.171875 177.792969 149.992188 C 177.792969 149.8125 177.933594 149.671875 178.113281 149.671875 L 193.308594 149.671875 C 193.488281 149.671875 193.628906 149.8125 193.628906 149.992188 C 193.628906 150.171875 193.488281 150.316406 193.308594 150.316406 Z M 193.308594 150.316406 " fill-opacity="1" fill-rule="nonzero"/><path fill="#050a44" d="M 175.5625 150.316406 L 164.179688 150.316406 C 164 150.316406 163.859375 150.171875 163.859375 149.992188 C 163.859375 149.8125 164 149.671875 164.179688 149.671875 L 175.5625 149.671875 C 175.742188 149.671875 175.886719 149.8125 175.886719 149.992188 C 175.886719 150.171875 175.742188 150.316406 175.5625 150.316406 Z M 175.5625 150.316406 " fill-opacity="1" fill-rule="nonzero"/><g clip-path="url(#dcf1033cb8)"><path fill="#e4e6ef" d="M 224.382812 121.835938 C 224.382812 126.117188 222.820312 130.011719 220.226562 133.011719 C 217.085938 136.636719 212.453125 138.9375 207.277344 138.9375 C 202.105469 138.9375 197.472656 136.636719 194.339844 133.011719 C 191.746094 130.011719 190.183594 126.117188 190.183594 121.835938 C 190.183594 112.386719 197.832031 104.742188 207.277344 104.742188 C 216.726562 104.742188 224.390625 112.386719 224.390625 121.835938 Z M 224.382812 121.835938 " fill-opacity="1" fill-rule="nonzero"/></g><path fill="#0a21c0" d="M 212.464844 117.5 C 212.464844 120.371094 210.140625 122.6875 207.277344 122.6875 C 204.417969 122.6875 202.089844 120.363281 202.089844 117.5 C 202.089844 114.636719 204.417969 112.3125 207.277344 112.3125 C 210.140625 112.3125 212.464844 114.636719 212.464844 117.5 Z M 212.464844 117.5 " fill-opacity="1" fill-rule="nonzero"/><path fill="#0a21c0" d="M 218.214844 131.417969 C 215.5625 134.484375 211.644531 136.425781 207.273438 136.425781 C 202.898438 136.425781 198.980469 134.484375 196.34375 131.417969 C 198.199219 127.234375 202.40625 124.308594 207.273438 124.308594 C 212.136719 124.308594 216.347656 127.234375 218.214844 131.417969 Z M 218.214844 131.417969 " fill-opacity="1" fill-rule="nonzero"/><g clip-path="url(#8da4a0655e)"><path fill="#050a44" d="M 207.273438 139.265625 C 202.203125 139.265625 197.40625 137.0625 194.09375 133.226562 C 191.367188 130.066406 189.855469 126.023438 189.855469 121.84375 C 189.855469 112.238281 197.667969 104.425781 207.273438 104.425781 C 216.875 104.425781 224.695312 112.238281 224.695312 121.84375 C 224.695312 126.027344 223.191406 130.074219 220.457031 133.226562 C 217.128906 137.070312 212.324219 139.265625 207.265625 139.265625 Z M 207.273438 105.0625 C 198.027344 105.0625 190.5 112.589844 190.5 121.835938 C 190.5 125.863281 191.949219 129.757812 194.578125 132.800781 C 197.765625 136.5 202.398438 138.625 207.273438 138.625 C 212.144531 138.625 216.78125 136.5 219.980469 132.800781 C 222.609375 129.757812 224.058594 125.863281 224.058594 121.835938 C 224.058594 112.589844 216.53125 105.0625 207.273438 105.0625 Z M 207.273438 105.0625 " fill-opacity="1" fill-rule="nonzero"/></g><path fill="#0a21c0" d="M 20.648438 69.839844 C 21.566406 70.054688 22.453125 70.359375 23.3125 70.75 C 24.171875 71.140625 24.980469 71.613281 25.746094 72.164062 C 26.511719 72.714844 27.214844 73.335938 27.859375 74.027344 C 28.5 74.714844 29.070312 75.460938 29.566406 76.265625 C 30.0625 77.066406 30.472656 77.910156 30.804688 78.792969 C 31.132812 79.675781 31.375 80.582031 31.523438 81.511719 C 31.675781 82.445312 31.734375 83.378906 31.703125 84.324219 C 31.667969 85.265625 31.542969 86.195312 31.328125 87.113281 C 31.109375 88.03125 30.804688 88.917969 30.414062 89.773438 C 30.023438 90.632812 29.550781 91.445312 29 92.210938 C 28.449219 92.972656 27.828125 93.679688 27.136719 94.320312 C 26.449219 94.964844 25.703125 95.53125 24.902344 96.027344 C 24.097656 96.523438 23.257812 96.9375 22.371094 97.265625 C 21.488281 97.597656 20.582031 97.835938 19.652344 97.988281 C 18.722656 98.136719 17.785156 98.195312 16.84375 98.164062 C 15.902344 98.128906 14.96875 98.003906 14.054688 97.789062 C 13.136719 97.574219 12.246094 97.269531 11.390625 96.875 C 10.53125 96.484375 9.722656 96.015625 8.957031 95.460938 C 8.191406 94.910156 7.488281 94.292969 6.84375 93.601562 C 6.203125 92.910156 5.632812 92.164062 5.136719 91.363281 C 4.640625 90.5625 4.230469 89.71875 3.898438 88.835938 C 3.570312 87.953125 3.328125 87.046875 3.179688 86.113281 C 3.027344 85.183594 2.96875 84.246094 3 83.304688 C 3.035156 82.363281 3.160156 81.433594 3.375 80.515625 C 3.59375 79.597656 3.898438 78.710938 4.289062 77.851562 C 4.679688 76.996094 5.152344 76.183594 5.703125 75.417969 C 6.253906 74.652344 6.875 73.949219 7.5625 73.308594 C 8.253906 72.664062 9 72.09375 9.800781 71.601562 C 10.605469 71.105469 11.445312 70.691406 12.328125 70.363281 C 13.214844 70.03125 14.121094 69.792969 15.050781 69.640625 C 15.980469 69.488281 16.917969 69.429688 17.859375 69.464844 C 18.800781 69.496094 19.730469 69.621094 20.648438 69.839844 Z M 20.648438 69.839844 " fill-opacity="1" fill-rule="nonzero"/><path fill="#e4e6ef" d="M 18.878906 92.191406 C 16.21875 91.5625 14.011719 90.210938 12.375 87.996094 C 10.738281 85.792969 9.976562 83.320312 10.164062 80.558594 C 10.261719 79.175781 10.582031 77.847656 11.136719 76.578125 C 11.433594 75.890625 11.980469 75.492188 12.71875 75.402344 C 13.511719 75.304688 14.3125 75.238281 15.113281 75.171875 C 15.726562 75.117188 16.171875 75.5 16.234375 76.121094 C 16.324219 77.023438 16.398438 77.9375 16.488281 78.839844 C 16.53125 79.273438 16.382812 79.625 16.015625 79.871094 C 15.417969 80.277344 14.835938 80.710938 14.230469 81.089844 C 13.914062 81.292969 13.757812 81.5625 13.667969 81.898438 C 13.445312 82.734375 13.503906 83.566406 13.804688 84.363281 C 14.273438 85.644531 15.015625 86.710938 16.203125 87.4375 C 16.679688 87.730469 17.195312 87.894531 17.757812 87.9375 C 17.90625 87.953125 18.042969 87.921875 18.183594 87.847656 C 18.878906 87.453125 19.582031 87.0625 20.277344 86.667969 C 20.621094 86.472656 20.972656 86.464844 21.316406 86.667969 C 22.136719 87.160156 22.960938 87.652344 23.773438 88.167969 C 24.246094 88.460938 24.378906 89.035156 24.097656 89.515625 C 23.671875 90.234375 23.246094 90.941406 22.789062 91.628906 C 22.355469 92.28125 21.703125 92.558594 20.925781 92.503906 C 20.246094 92.460938 19.566406 92.363281 18.902344 92.199219 Z M 18.878906 92.191406 " fill-opacity="1" fill-rule="nonzero"/><g clip-path="url(#8a620f5fd0)"><path fill="#050a44" d="M 38.261719 70.179688 C 38.058594 70.179688 37.863281 70.097656 37.714844 69.953125 C 37.566406 69.804688 37.484375 69.609375 37.476562 69.402344 L 37.4375 66.320312 C 36.75 66.132812 36.070312 65.859375 35.40625 65.5 L 33.253906 67.710938 C 33.109375 67.855469 32.910156 67.941406 32.699219 67.941406 L 32.691406 67.941406 C 32.484375 67.941406 32.28125 67.859375 32.148438 67.726562 L 29.335938 64.992188 C 29.1875 64.847656 29.105469 64.65625 29.097656 64.445312 C 29.097656 64.234375 29.171875 64.035156 29.320312 63.882812 L 31.464844 61.664062 C 31.109375 61.027344 30.816406 60.355469 30.597656 59.652344 L 27.519531 59.691406 C 27.054688 59.691406 26.734375 59.347656 26.726562 58.914062 L 26.675781 54.980469 C 26.675781 54.773438 26.75 54.578125 26.898438 54.429688 C 27.042969 54.28125 27.242188 54.195312 27.453125 54.191406 L 30.53125 54.152344 C 30.726562 53.441406 31.003906 52.761719 31.347656 52.113281 L 29.140625 49.960938 C 28.992188 49.816406 28.910156 49.621094 28.902344 49.421875 C 28.902344 49.210938 28.976562 49.011719 29.125 48.851562 L 31.863281 46.050781 C 32.011719 45.898438 32.214844 45.8125 32.421875 45.8125 C 32.632812 45.8125 32.828125 45.894531 32.96875 46.035156 L 35.175781 48.1875 C 35.824219 47.8125 36.496094 47.523438 37.183594 47.3125 L 37.148438 44.242188 C 37.148438 43.808594 37.492188 43.449219 37.925781 43.441406 L 41.847656 43.394531 C 42.027344 43.382812 42.261719 43.472656 42.410156 43.621094 C 42.558594 43.769531 42.640625 43.964844 42.648438 44.171875 L 42.6875 47.246094 C 43.386719 47.441406 44.070312 47.714844 44.726562 48.066406 L 46.871094 45.855469 C 47.179688 45.542969 47.679688 45.542969 47.984375 45.839844 L 50.796875 48.570312 C 50.945312 48.71875 51.035156 48.921875 51.035156 49.121094 C 51.035156 49.332031 50.960938 49.53125 50.820312 49.683594 L 48.660156 51.894531 C 49.023438 52.53125 49.316406 53.210938 49.523438 53.914062 L 52.605469 53.875 C 52.828125 53.90625 53.015625 53.949219 53.164062 54.101562 C 53.316406 54.25 53.398438 54.445312 53.40625 54.652344 L 53.457031 58.585938 C 53.457031 58.792969 53.382812 58.996094 53.234375 59.144531 C 53.082031 59.296875 52.890625 59.378906 52.679688 59.382812 L 49.601562 59.421875 C 49.414062 60.132812 49.136719 60.8125 48.785156 61.457031 L 50.996094 63.617188 C 51.304688 63.914062 51.3125 64.414062 51.011719 64.722656 L 48.269531 67.53125 C 47.976562 67.839844 47.46875 67.847656 47.15625 67.546875 L 44.949219 65.386719 C 44.292969 65.761719 43.613281 66.050781 42.933594 66.261719 L 42.96875 69.339844 C 42.96875 69.773438 42.625 70.132812 42.191406 70.140625 L 38.269531 70.191406 L 38.253906 70.191406 Z M 35.347656 64.789062 C 35.398438 64.789062 35.449219 64.804688 35.503906 64.832031 C 36.265625 65.261719 37.050781 65.582031 37.835938 65.777344 C 37.976562 65.8125 38.074219 65.941406 38.082031 66.082031 L 38.125 69.402344 C 38.125 69.453125 38.15625 69.492188 38.171875 69.503906 C 38.1875 69.519531 38.230469 69.542969 38.269531 69.542969 L 42.191406 69.492188 C 42.273438 69.492188 42.335938 69.421875 42.335938 69.339844 L 42.289062 66.023438 C 42.289062 65.878906 42.386719 65.746094 42.523438 65.707031 C 43.300781 65.492188 44.078125 65.15625 44.832031 64.707031 C 44.957031 64.632812 45.113281 64.65625 45.21875 64.75 L 47.597656 67.074219 C 47.648438 67.121094 47.761719 67.121094 47.804688 67.074219 L 50.550781 64.265625 C 50.601562 64.214844 50.601562 64.117188 50.550781 64.0625 L 48.15625 61.730469 C 48.054688 61.628906 48.03125 61.46875 48.105469 61.34375 C 48.53125 60.617188 48.84375 59.832031 49.039062 59.019531 C 49.070312 58.875 49.195312 58.773438 49.347656 58.773438 L 52.671875 58.726562 C 52.738281 58.726562 52.8125 58.652344 52.8125 58.578125 L 52.761719 54.644531 C 52.761719 54.59375 52.730469 54.5625 52.71875 54.546875 C 52.703125 54.535156 52.671875 54.480469 52.613281 54.511719 L 49.285156 54.554688 C 49.144531 54.554688 49.015625 54.457031 48.980469 54.316406 C 48.761719 53.507812 48.433594 52.730469 47.984375 52.015625 C 47.910156 51.886719 47.925781 51.730469 48.03125 51.625 L 50.363281 49.242188 C 50.363281 49.242188 50.398438 49.167969 50.398438 49.136719 C 50.398438 49.105469 50.378906 49.0625 50.355469 49.03125 L 47.550781 46.304688 C 47.492188 46.242188 47.402344 46.242188 47.34375 46.304688 L 45.027344 48.6875 C 44.929688 48.792969 44.765625 48.816406 44.636719 48.742188 C 43.890625 48.316406 43.105469 48 42.296875 47.800781 C 42.15625 47.761719 42.058594 47.632812 42.058594 47.492188 L 42.011719 44.179688 C 42.011719 44.113281 41.9375 44.039062 41.871094 44.039062 L 37.945312 44.089844 C 37.863281 44.089844 37.804688 44.160156 37.804688 44.242188 L 37.851562 47.550781 C 37.851562 47.695312 37.753906 47.828125 37.617188 47.867188 C 36.824219 48.082031 36.046875 48.425781 35.308594 48.867188 C 35.179688 48.941406 35.023438 48.925781 34.917969 48.824219 L 32.535156 46.5 C 32.535156 46.5 32.460938 46.453125 32.4375 46.453125 C 32.402344 46.453125 32.363281 46.46875 32.332031 46.5 L 29.597656 49.300781 C 29.597656 49.300781 29.554688 49.367188 29.554688 49.414062 C 29.554688 49.4375 29.558594 49.472656 29.589844 49.511719 L 31.976562 51.835938 C 32.078125 51.941406 32.101562 52.097656 32.027344 52.222656 C 31.617188 52.957031 31.300781 53.742188 31.09375 54.5625 C 31.054688 54.707031 30.929688 54.800781 30.785156 54.800781 L 27.46875 54.847656 C 27.398438 54.847656 27.324219 54.921875 27.324219 54.988281 L 27.378906 58.921875 C 27.378906 59.003906 27.4375 59.0625 27.519531 59.0625 L 30.839844 59.019531 C 30.980469 59.019531 31.109375 59.117188 31.144531 59.25 C 31.371094 60.058594 31.707031 60.835938 32.140625 61.550781 C 32.214844 61.679688 32.199219 61.835938 32.09375 61.941406 L 29.777344 64.332031 C 29.730469 64.386719 29.730469 64.488281 29.777344 64.535156 L 32.585938 67.277344 C 32.585938 67.277344 32.648438 67.285156 32.683594 67.316406 C 32.730469 67.316406 32.765625 67.300781 32.789062 67.277344 L 35.113281 64.886719 C 35.175781 64.828125 35.257812 64.789062 35.347656 64.789062 Z M 52.613281 54.195312 L 52.621094 54.195312 Z M 40.070312 62.417969 C 36.988281 62.417969 34.472656 59.9375 34.433594 56.851562 C 34.410156 55.347656 34.980469 53.929688 36.035156 52.851562 C 37.085938 51.777344 38.492188 51.171875 39.996094 51.148438 C 43.058594 51.109375 45.652344 53.597656 45.691406 56.703125 C 45.726562 59.8125 43.238281 62.375 40.136719 62.410156 L 40.0625 62.410156 Z M 40.136719 62.097656 L 40.144531 62.097656 Z M 40.070312 51.789062 C 40.070312 51.789062 40.023438 51.789062 40.003906 51.789062 C 38.671875 51.804688 37.421875 52.34375 36.488281 53.300781 C 35.554688 54.257812 35.054688 55.511719 35.070312 56.84375 C 35.105469 59.578125 37.339844 61.777344 40.070312 61.777344 C 40.09375 61.777344 40.113281 61.777344 40.136719 61.777344 C 42.886719 61.738281 45.09375 59.46875 45.054688 56.714844 C 45.039062 55.386719 44.503906 54.136719 43.554688 53.210938 C 42.609375 52.296875 41.386719 51.789062 40.078125 51.789062 Z M 40.070312 51.789062 " fill-opacity="1" fill-rule="nonzero"/></g><path fill="#0a21c0" d="M 114.546875 64.308594 L 121.351562 64.308594 L 117.6875 70.417969 C 117.53125 70.679688 117.820312 70.984375 118.089844 70.835938 L 129.773438 64.308594 L 147.363281 64.308594 C 149.796875 64.308594 151.78125 62.335938 151.78125 59.894531 L 151.78125 52.394531 C 151.78125 49.960938 149.804688 47.976562 147.363281 47.976562 L 114.539062 47.976562 C 112.105469 47.976562 110.121094 49.953125 110.121094 52.394531 L 110.121094 59.894531 C 110.121094 62.328125 112.097656 64.308594 114.539062 64.308594 Z M 114.546875 64.308594 " fill-opacity="1" fill-rule="nonzero"/><path fill="#e4e6ef" d="M 118.613281 55.9375 C 118.613281 56.097656 118.582031 56.25 118.523438 56.398438 C 118.460938 56.542969 118.375 56.671875 118.265625 56.785156 C 118.152344 56.898438 118.023438 56.984375 117.875 57.042969 C 117.730469 57.105469 117.578125 57.136719 117.417969 57.136719 C 117.257812 57.136719 117.105469 57.105469 116.960938 57.042969 C 116.8125 56.984375 116.683594 56.898438 116.574219 56.785156 C 116.460938 56.671875 116.375 56.542969 116.3125 56.398438 C 116.253906 56.25 116.222656 56.097656 116.222656 55.9375 C 116.222656 55.78125 116.253906 55.628906 116.3125 55.480469 C 116.375 55.335938 116.460938 55.207031 116.574219 55.09375 C 116.683594 54.980469 116.8125 54.894531 116.960938 54.832031 C 117.105469 54.773438 117.257812 54.742188 117.417969 54.742188 C 117.578125 54.742188 117.730469 54.773438 117.875 54.832031 C 118.023438 54.894531 118.152344 54.980469 118.265625 55.09375 C 118.375 55.207031 118.460938 55.335938 118.523438 55.480469 C 118.582031 55.628906 118.613281 55.78125 118.613281 55.9375 Z M 118.613281 55.9375 " fill-opacity="1" fill-rule="nonzero"/><path fill="#e4e6ef" d="M 124.027344 55.9375 C 124.027344 56.597656 123.488281 57.136719 122.828125 57.136719 C 122.171875 57.136719 121.632812 56.597656 121.632812 55.9375 C 121.632812 55.28125 122.171875 54.742188 122.828125 54.742188 C 123.488281 54.742188 124.027344 55.28125 124.027344 55.9375 Z M 124.027344 55.9375 " fill-opacity="1" fill-rule="nonzero"/><path fill="#e4e6ef" d="M 129.445312 55.9375 C 129.445312 56.097656 129.414062 56.25 129.355469 56.398438 C 129.292969 56.542969 129.207031 56.671875 129.09375 56.785156 C 128.984375 56.898438 128.851562 56.984375 128.707031 57.042969 C 128.558594 57.105469 128.40625 57.136719 128.25 57.136719 C 128.089844 57.136719 127.9375 57.105469 127.792969 57.042969 C 127.644531 56.984375 127.515625 56.898438 127.402344 56.785156 C 127.292969 56.671875 127.203125 56.542969 127.144531 56.398438 C 127.082031 56.25 127.054688 56.097656 127.054688 55.9375 C 127.054688 55.78125 127.082031 55.628906 127.144531 55.480469 C 127.203125 55.335938 127.292969 55.207031 127.402344 55.09375 C 127.515625 54.980469 127.644531 54.894531 127.792969 54.832031 C 127.9375 54.773438 128.089844 54.742188 128.25 54.742188 C 128.40625 54.742188 128.558594 54.773438 128.707031 54.832031 C 128.851562 54.894531 128.984375 54.980469 129.09375 55.09375 C 129.207031 55.207031 129.292969 55.335938 129.355469 55.480469 C 129.414062 55.628906 129.445312 55.78125 129.445312 55.9375 Z M 129.445312 55.9375 " fill-opacity="1" fill-rule="nonzero"/><path fill="#e4e6ef" d="M 134.863281 55.9375 C 134.863281 56.097656 134.832031 56.25 134.773438 56.398438 C 134.710938 56.542969 134.625 56.671875 134.515625 56.785156 C 134.402344 56.898438 134.273438 56.984375 134.125 57.042969 C 133.980469 57.105469 133.828125 57.136719 133.667969 57.136719 C 133.507812 57.136719 133.355469 57.105469 133.210938 57.042969 C 133.0625 56.984375 132.933594 56.898438 132.824219 56.785156 C 132.710938 56.671875 132.625 56.542969 132.5625 56.398438 C 132.503906 56.25 132.472656 56.097656 132.472656 55.9375 C 132.472656 55.78125 132.503906 55.628906 132.5625 55.480469 C 132.625 55.335938 132.710938 55.207031 132.824219 55.09375 C 132.933594 54.980469 133.0625 54.894531 133.210938 54.832031 C 133.355469 54.773438 133.507812 54.742188 133.667969 54.742188 C 133.828125 54.742188 133.980469 54.773438 134.125 54.832031 C 134.273438 54.894531 134.402344 54.980469 134.515625 55.09375 C 134.625 55.207031 134.710938 55.335938 134.773438 55.480469 C 134.832031 55.628906 134.863281 55.78125 134.863281 55.9375 Z M 134.863281 55.9375 " fill-opacity="1" fill-rule="nonzero"/><path fill="#e4e6ef" d="M 140.285156 55.9375 C 140.285156 56.097656 140.253906 56.25 140.191406 56.398438 C 140.132812 56.542969 140.046875 56.671875 139.933594 56.785156 C 139.820312 56.898438 139.691406 56.984375 139.546875 57.042969 C 139.398438 57.105469 139.246094 57.136719 139.085938 57.136719 C 138.929688 57.136719 138.777344 57.105469 138.628906 57.042969 C 138.484375 56.984375 138.355469 56.898438 138.242188 56.785156 C 138.128906 56.671875 138.042969 56.542969 137.980469 56.398438 C 137.921875 56.25 137.890625 56.097656 137.890625 55.9375 C 137.890625 55.78125 137.921875 55.628906 137.984375 55.480469 C 138.042969 55.335938 138.128906 55.207031 138.242188 55.09375 C 138.355469 54.980469 138.484375 54.894531 138.628906 54.832031 C 138.777344 54.773438 138.929688 54.742188 139.085938 54.742188 C 139.246094 54.742188 139.398438 54.773438 139.546875 54.832031 C 139.691406 54.894531 139.820312 54.980469 139.933594 55.09375 C 140.046875 55.207031 140.132812 55.335938 140.191406 55.480469 C 140.253906 55.628906 140.285156 55.78125 140.285156 55.9375 Z M 140.285156 55.9375 " fill-opacity="1" fill-rule="nonzero"/><path fill="#e4e6ef" d="M 145.703125 55.9375 C 145.703125 56.097656 145.671875 56.25 145.613281 56.398438 C 145.550781 56.542969 145.464844 56.671875 145.351562 56.785156 C 145.238281 56.898438 145.109375 56.984375 144.964844 57.042969 C 144.816406 57.105469 144.664062 57.136719 144.507812 57.136719 C 144.347656 57.136719 144.195312 57.105469 144.046875 57.042969 C 143.902344 56.984375 143.773438 56.898438 143.660156 56.785156 C 143.546875 56.671875 143.460938 56.542969 143.402344 56.398438 C 143.339844 56.25 143.308594 56.097656 143.3125 55.9375 C 143.308594 55.78125 143.339844 55.628906 143.402344 55.480469 C 143.460938 55.335938 143.546875 55.207031 143.660156 55.09375 C 143.773438 54.980469 143.902344 54.894531 144.046875 54.832031 C 144.195312 54.773438 144.347656 54.742188 144.507812 54.742188 C 144.664062 54.742188 144.816406 54.773438 144.964844 54.832031 C 145.109375 54.894531 145.238281 54.980469 145.351562 55.09375 C 145.464844 55.207031 145.550781 55.335938 145.613281 55.480469 C 145.671875 55.628906 145.703125 55.78125 145.703125 55.9375 Z M 145.703125 55.9375 " fill-opacity="1" fill-rule="nonzero"/></svg>