<svg xmlns="http://www.w3.org/2000/svg" xmlns:xlink="http://www.w3.org/1999/xlink" width="300" zoomAndPan="magnify" viewBox="0 0 224.87999 225" height="300" preserveAspectRatio="xMidYMid meet" version="1.0"><defs><clipPath id="7c4f193e2a"><path d="M 113 20.675781 L 128 20.675781 L 128 34 L 113 34 Z M 113 20.675781 " clip-rule="nonzero"/></clipPath><clipPath id="edb2e09f17"><path d="M 0 203 L 224.761719 203 L 224.761719 204.324219 L 0 204.324219 Z M 0 203 " clip-rule="nonzero"/></clipPath><clipPath id="539519bfdf"><path d="M 37 106 L 202 106 L 202 204.324219 L 37 204.324219 Z M 37 106 " clip-rule="nonzero"/></clipPath></defs><path fill="#e4e6ef" d="M 185.195312 75.925781 L 185.945312 72.773438 L 188.082031 64.511719 L 197.082031 70.609375 C 197.082031 70.609375 195.308594 74.226562 193.707031 78.4375 L 185.1875 75.925781 Z M 185.195312 75.925781 " fill-opacity="1" fill-rule="nonzero"/><path fill="#050a44" d="M 193.710938 78.789062 C 193.710938 78.789062 193.644531 78.789062 193.617188 78.773438 L 185.097656 76.265625 C 184.917969 76.210938 184.816406 76.03125 184.859375 75.84375 L 185.609375 72.691406 L 187.742188 64.421875 C 187.773438 64.308594 187.847656 64.21875 187.960938 64.183594 C 188.066406 64.144531 188.183594 64.160156 188.28125 64.21875 L 197.285156 70.316406 C 197.425781 70.414062 197.480469 70.601562 197.40625 70.757812 C 197.382812 70.796875 195.613281 74.40625 194.042969 78.554688 C 193.988281 78.699219 193.855469 78.78125 193.710938 78.78125 Z M 185.617188 75.6875 L 193.503906 78.007812 C 194.804688 74.617188 196.214844 71.628906 196.640625 70.730469 L 188.296875 65.082031 L 186.28125 72.863281 Z M 185.617188 75.6875 " fill-opacity="1" fill-rule="nonzero"/><path fill="#0a21c0" d="M 172.671875 132.640625 C 172.230469 132.640625 171.78125 132.574219 171.339844 132.429688 C 169.042969 131.695312 167.769531 129.230469 168.5 126.933594 L 182.964844 81.621094 C 183.699219 79.320312 186.15625 78.046875 188.460938 78.78125 C 190.761719 79.515625 192.035156 81.980469 191.300781 84.277344 L 176.839844 129.59375 C 176.246094 131.449219 174.523438 132.640625 172.667969 132.640625 Z M 172.671875 132.640625 " fill-opacity="1" fill-rule="nonzero"/><path fill="#050a44" d="M 190.371094 88.03125 C 190.371094 88.03125 190.296875 88.03125 190.265625 88.015625 L 181.503906 85.214844 C 181.316406 85.15625 181.21875 84.960938 181.28125 84.773438 C 181.339844 84.585938 181.542969 84.488281 181.722656 84.546875 L 190.484375 87.347656 C 190.671875 87.410156 190.769531 87.605469 190.710938 87.789062 C 190.664062 87.941406 190.523438 88.039062 190.371094 88.039062 Z M 190.371094 88.03125 " fill-opacity="1" fill-rule="nonzero"/><path fill="#050a44" d="M 187.308594 97.945312 C 187.308594 97.945312 187.234375 97.945312 187.203125 97.933594 L 178.433594 95.132812 C 178.246094 95.070312 178.148438 94.875 178.207031 94.6875 C 178.269531 94.5 178.472656 94.40625 178.652344 94.464844 L 187.421875 97.265625 C 187.609375 97.324219 187.707031 97.519531 187.644531 97.707031 C 187.601562 97.855469 187.457031 97.953125 187.308594 97.953125 Z M 187.308594 97.945312 " fill-opacity="1" fill-rule="nonzero"/><path fill="#050a44" d="M 184.132812 107.570312 C 184.132812 107.570312 184.058594 107.570312 184.027344 107.558594 L 175.257812 104.753906 C 175.070312 104.695312 174.972656 104.5 175.03125 104.3125 C 175.09375 104.125 175.296875 104.027344 175.476562 104.089844 L 184.246094 106.890625 C 184.433594 106.949219 184.53125 107.144531 184.46875 107.332031 C 184.425781 107.480469 184.28125 107.578125 184.132812 107.578125 Z M 184.132812 107.570312 " fill-opacity="1" fill-rule="nonzero"/><path fill="#050a44" d="M 182.058594 114.082031 C 182.058594 114.082031 181.984375 114.082031 181.953125 114.066406 L 173.191406 111.265625 C 173.003906 111.203125 172.90625 111.007812 172.964844 110.824219 C 173.027344 110.636719 173.226562 110.539062 173.40625 110.597656 L 182.171875 113.398438 C 182.359375 113.457031 182.457031 113.652344 182.394531 113.839844 C 182.351562 113.992188 182.207031 114.085938 182.058594 114.085938 Z M 182.058594 114.082031 " fill-opacity="1" fill-rule="nonzero"/><path fill="#050a44" d="M 179.976562 120.597656 C 179.976562 120.597656 179.902344 120.597656 179.871094 120.582031 L 171.109375 117.78125 C 170.921875 117.71875 170.824219 117.527344 170.882812 117.339844 C 170.945312 117.152344 171.144531 117.046875 171.324219 117.113281 L 180.089844 119.914062 C 180.277344 119.976562 180.375 120.167969 180.3125 120.355469 C 180.269531 120.507812 180.125 120.605469 179.976562 120.605469 Z M 179.976562 120.597656 " fill-opacity="1" fill-rule="nonzero"/><path fill="#050a44" d="M 177.902344 127.105469 C 177.902344 127.105469 177.828125 127.105469 177.796875 127.089844 L 169.027344 124.296875 C 168.839844 124.238281 168.742188 124.042969 168.800781 123.855469 C 168.859375 123.667969 169.0625 123.5625 169.242188 123.628906 L 178.015625 126.421875 C 178.203125 126.484375 178.296875 126.679688 178.238281 126.867188 C 178.195312 127.015625 178.050781 127.113281 177.902344 127.113281 Z M 177.902344 127.105469 " fill-opacity="1" fill-rule="nonzero"/><path fill="#0a21c0" d="M 152.308594 95.632812 L 152.308594 116.746094 C 152.308594 124.492188 146.007812 130.789062 138.242188 130.789062 L 102.914062 130.789062 C 95.59375 130.789062 89.597656 125.21875 88.921875 118.09375 C 88.871094 117.667969 88.847656 117.195312 88.847656 116.746094 L 88.847656 95.632812 C 88.847656 95.183594 88.871094 94.710938 88.921875 94.285156 C 89.597656 87.160156 95.59375 81.589844 102.914062 81.589844 L 138.242188 81.589844 C 146.007812 81.589844 152.308594 87.886719 152.308594 95.632812 Z M 152.308594 95.632812 " fill-opacity="1" fill-rule="nonzero"/><path fill="#050a44" d="M 162.457031 87.542969 C 162.457031 92.703125 158.277344 96.882812 153.117188 96.882812 C 147.957031 96.882812 143.777344 92.703125 143.777344 87.542969 C 143.777344 82.382812 147.957031 78.203125 153.117188 78.203125 C 158.277344 78.203125 162.457031 82.382812 162.457031 87.542969 Z M 162.457031 87.542969 " fill-opacity="1" fill-rule="nonzero"/><path fill="#0a21c0" d="M 172.5625 135.082031 C 170.824219 135.082031 169.183594 134.039062 168.496094 132.332031 L 153.378906 94.652344 C 152.480469 92.414062 153.566406 89.859375 155.8125 88.960938 C 158.0625 88.058594 160.609375 89.148438 161.507812 91.394531 L 176.621094 129.074219 C 177.519531 131.320312 176.433594 133.867188 174.1875 134.765625 C 173.65625 134.984375 173.101562 135.082031 172.5625 135.082031 Z M 172.5625 135.082031 " fill-opacity="1" fill-rule="nonzero"/><path fill="#050a44" d="M 154.234375 97.941406 C 154.097656 97.941406 153.964844 97.855469 153.910156 97.722656 C 153.835938 97.542969 153.925781 97.339844 154.105469 97.265625 L 162.621094 93.773438 C 162.800781 93.707031 163.003906 93.789062 163.078125 93.96875 C 163.152344 94.148438 163.0625 94.351562 162.882812 94.425781 L 154.367188 97.917969 C 154.324219 97.933594 154.277344 97.945312 154.234375 97.945312 Z M 154.234375 97.941406 " fill-opacity="1" fill-rule="nonzero"/><path fill="#050a44" d="M 157.738281 106.621094 C 157.605469 106.621094 157.46875 106.539062 157.417969 106.394531 C 157.34375 106.214844 157.433594 106.015625 157.613281 105.9375 L 166.164062 102.539062 C 166.34375 102.472656 166.546875 102.554688 166.621094 102.734375 C 166.695312 102.914062 166.605469 103.113281 166.425781 103.191406 L 157.875 106.589844 C 157.828125 106.605469 157.785156 106.613281 157.746094 106.613281 Z M 157.738281 106.621094 " fill-opacity="1" fill-rule="nonzero"/><path fill="#050a44" d="M 160.71875 114.117188 C 160.578125 114.117188 160.449219 114.035156 160.390625 113.894531 C 160.324219 113.714844 160.414062 113.511719 160.585938 113.445312 L 169.152344 110.097656 C 169.332031 110.019531 169.535156 110.109375 169.609375 110.289062 C 169.675781 110.46875 169.585938 110.671875 169.414062 110.738281 L 160.847656 114.085938 C 160.800781 114.101562 160.765625 114.109375 160.71875 114.109375 Z M 160.71875 114.117188 " fill-opacity="1" fill-rule="nonzero"/><path fill="#050a44" d="M 162.890625 119.511719 C 162.75 119.511719 162.613281 119.429688 162.5625 119.285156 C 162.496094 119.105469 162.585938 118.902344 162.765625 118.835938 L 171.355469 115.535156 C 171.535156 115.464844 171.738281 115.554688 171.804688 115.734375 C 171.871094 115.914062 171.78125 116.117188 171.601562 116.183594 L 163.011719 119.488281 C 162.964844 119.503906 162.929688 119.511719 162.882812 119.511719 Z M 162.890625 119.511719 " fill-opacity="1" fill-rule="nonzero"/><path fill="#050a44" d="M 165.050781 124.902344 C 164.90625 124.902344 164.773438 124.8125 164.71875 124.679688 C 164.652344 124.5 164.742188 124.296875 164.921875 124.230469 L 173.527344 120.972656 C 173.707031 120.902344 173.910156 120.992188 173.976562 121.171875 C 174.042969 121.351562 173.953125 121.554688 173.773438 121.621094 L 165.167969 124.878906 C 165.132812 124.894531 165.085938 124.902344 165.042969 124.902344 Z M 165.050781 124.902344 " fill-opacity="1" fill-rule="nonzero"/><path fill="#050a44" d="M 167.214844 130.296875 C 167.070312 130.296875 166.9375 130.207031 166.882812 130.070312 C 166.816406 129.890625 166.90625 129.6875 167.085938 129.621094 L 175.707031 126.410156 C 175.886719 126.339844 176.089844 126.429688 176.15625 126.609375 C 176.222656 126.789062 176.132812 126.992188 175.953125 127.058594 L 167.332031 130.273438 C 167.296875 130.289062 167.25 130.296875 167.214844 130.296875 Z M 167.214844 130.296875 " fill-opacity="1" fill-rule="nonzero"/><path fill="#050a44" d="M 112.15625 31.144531 L 128.992188 31.144531 C 129.445312 31.144531 129.878906 31.230469 130.296875 31.402344 C 130.714844 31.578125 131.082031 31.824219 131.402344 32.144531 C 131.722656 32.460938 131.96875 32.832031 132.140625 33.25 C 132.3125 33.667969 132.402344 34.101562 132.402344 34.554688 L 132.402344 37.464844 C 132.402344 37.917969 132.3125 38.351562 132.140625 38.769531 C 131.96875 39.1875 131.722656 39.554688 131.402344 39.875 C 131.082031 40.195312 130.714844 40.441406 130.296875 40.613281 C 129.878906 40.789062 129.445312 40.875 128.992188 40.875 L 112.15625 40.875 C 111.703125 40.875 111.269531 40.789062 110.851562 40.613281 C 110.433594 40.441406 110.066406 40.195312 109.746094 39.875 C 109.425781 39.554688 109.179688 39.1875 109.007812 38.769531 C 108.832031 38.351562 108.746094 37.917969 108.746094 37.464844 L 108.746094 34.554688 C 108.746094 34.101562 108.832031 33.667969 109.007812 33.25 C 109.179688 32.832031 109.425781 32.460938 109.746094 32.144531 C 110.066406 31.824219 110.433594 31.578125 110.851562 31.402344 C 111.269531 31.230469 111.703125 31.144531 112.15625 31.144531 Z M 112.15625 31.144531 " fill-opacity="1" fill-rule="nonzero"/><g clip-path="url(#7c4f193e2a)"><path fill="#050a44" d="M 120.84375 33.429688 C 120.527344 33.429688 120.238281 33.257812 120.078125 32.980469 L 114.019531 22.121094 C 113.78125 21.699219 113.9375 21.160156 114.355469 20.929688 C 114.777344 20.695312 115.308594 20.847656 115.546875 21.265625 L 120.835938 30.742188 L 126.027344 21.273438 C 126.257812 20.847656 126.796875 20.695312 127.21875 20.929688 C 127.644531 21.160156 127.792969 21.691406 127.5625 22.121094 L 121.609375 32.980469 C 121.449219 33.265625 121.242188 33.421875 120.835938 33.4375 Z M 120.84375 33.429688 " fill-opacity="1" fill-rule="nonzero"/></g><path fill="#050a44" d="M 150.175781 47.660156 L 153.671875 47.660156 C 154.136719 47.660156 154.582031 47.75 155.011719 47.925781 C 155.441406 48.105469 155.820312 48.359375 156.152344 48.6875 C 156.480469 49.015625 156.730469 49.394531 156.910156 49.824219 C 157.089844 50.253906 157.175781 50.699219 157.175781 51.164062 L 157.175781 61.546875 C 157.175781 62.011719 157.089844 62.457031 156.910156 62.886719 C 156.730469 63.316406 156.480469 63.695312 156.152344 64.023438 C 155.820312 64.355469 155.441406 64.605469 155.011719 64.785156 C 154.582031 64.960938 154.136719 65.050781 153.671875 65.050781 L 150.175781 65.050781 C 149.710938 65.050781 149.261719 64.960938 148.832031 64.785156 C 148.402344 64.605469 148.023438 64.355469 147.695312 64.023438 C 147.367188 63.695312 147.113281 63.316406 146.9375 62.886719 C 146.757812 62.457031 146.667969 62.011719 146.667969 61.546875 L 146.667969 51.164062 C 146.667969 50.699219 146.757812 50.253906 146.9375 49.824219 C 147.113281 49.394531 147.367188 49.015625 147.695312 48.6875 C 148.023438 48.359375 148.402344 48.105469 148.832031 47.925781 C 149.261719 47.75 149.710938 47.660156 150.175781 47.660156 Z M 150.175781 47.660156 " fill-opacity="1" fill-rule="nonzero"/><path fill="#e4e6ef" d="M 156.53125 51.164062 L 157.050781 51.164062 C 157.28125 51.164062 157.503906 51.210938 157.71875 51.296875 C 157.933594 51.386719 158.125 51.515625 158.289062 51.679688 C 158.453125 51.84375 158.578125 52.03125 158.667969 52.246094 C 158.757812 52.460938 158.800781 52.6875 158.800781 52.917969 L 158.800781 59.792969 C 158.800781 60.027344 158.757812 60.25 158.667969 60.464844 C 158.578125 60.679688 158.453125 60.867188 158.289062 61.03125 C 158.125 61.199219 157.933594 61.324219 157.71875 61.414062 C 157.503906 61.5 157.28125 61.546875 157.050781 61.546875 L 156.53125 61.546875 C 156.300781 61.546875 156.078125 61.5 155.863281 61.414062 C 155.648438 61.324219 155.457031 61.199219 155.292969 61.03125 C 155.128906 60.867188 155.003906 60.679688 154.914062 60.464844 C 154.824219 60.25 154.78125 60.027344 154.78125 59.792969 L 154.78125 52.917969 C 154.78125 52.6875 154.824219 52.460938 154.914062 52.246094 C 155.003906 52.03125 155.128906 51.84375 155.292969 51.679688 C 155.457031 51.515625 155.648438 51.386719 155.863281 51.296875 C 156.078125 51.210938 156.300781 51.164062 156.53125 51.164062 Z M 156.53125 51.164062 " fill-opacity="1" fill-rule="nonzero"/><path fill="#050a44" d="M 157.050781 61.898438 L 156.527344 61.898438 C 155.363281 61.898438 154.421875 60.953125 154.421875 59.792969 L 154.421875 52.917969 C 154.421875 51.757812 155.363281 50.8125 156.527344 50.8125 L 157.050781 50.8125 C 158.210938 50.8125 159.15625 51.757812 159.15625 52.917969 L 159.15625 59.792969 C 159.15625 60.953125 158.210938 61.898438 157.050781 61.898438 Z M 156.527344 51.515625 C 155.753906 51.515625 155.125 52.148438 155.125 52.917969 L 155.125 59.792969 C 155.125 60.566406 155.753906 61.195312 156.527344 61.195312 L 157.050781 61.195312 C 157.820312 61.195312 158.449219 60.566406 158.449219 59.792969 L 158.449219 52.917969 C 158.449219 52.148438 157.820312 51.515625 157.050781 51.515625 Z M 156.527344 51.515625 " fill-opacity="1" fill-rule="nonzero"/><path fill="#050a44" d="M 87.476562 47.660156 L 90.972656 47.660156 C 91.4375 47.660156 91.886719 47.75 92.316406 47.925781 C 92.746094 48.105469 93.125 48.359375 93.453125 48.6875 C 93.78125 49.015625 94.035156 49.394531 94.210938 49.824219 C 94.390625 50.253906 94.480469 50.699219 94.480469 51.164062 L 94.480469 61.546875 C 94.480469 62.011719 94.390625 62.457031 94.210938 62.886719 C 94.035156 63.316406 93.78125 63.695312 93.453125 64.023438 C 93.125 64.355469 92.746094 64.605469 92.316406 64.785156 C 91.886719 64.960938 91.4375 65.050781 90.972656 65.050781 L 87.476562 65.050781 C 87.011719 65.050781 86.5625 64.960938 86.136719 64.785156 C 85.707031 64.605469 85.328125 64.355469 84.996094 64.023438 C 84.667969 63.695312 84.414062 63.316406 84.238281 62.886719 C 84.058594 62.457031 83.972656 62.011719 83.972656 61.546875 L 83.972656 51.164062 C 83.972656 50.699219 84.058594 50.253906 84.238281 49.824219 C 84.414062 49.394531 84.667969 49.015625 84.996094 48.6875 C 85.328125 48.359375 85.707031 48.105469 86.136719 47.925781 C 86.5625 47.75 87.011719 47.660156 87.476562 47.660156 Z M 87.476562 47.660156 " fill-opacity="1" fill-rule="nonzero"/><path fill="#e4e6ef" d="M 84.105469 51.164062 L 84.621094 51.164062 C 84.855469 51.164062 85.078125 51.210938 85.292969 51.296875 C 85.507812 51.386719 85.699219 51.515625 85.863281 51.679688 C 86.027344 51.84375 86.152344 52.03125 86.242188 52.246094 C 86.332031 52.460938 86.375 52.6875 86.375 52.917969 L 86.375 59.792969 C 86.375 60.027344 86.332031 60.25 86.242188 60.464844 C 86.152344 60.679688 86.027344 60.867188 85.863281 61.03125 C 85.699219 61.199219 85.507812 61.324219 85.292969 61.414062 C 85.078125 61.5 84.855469 61.546875 84.621094 61.546875 L 84.105469 61.546875 C 83.875 61.546875 83.648438 61.5 83.433594 61.414062 C 83.21875 61.324219 83.03125 61.199219 82.867188 61.03125 C 82.703125 60.867188 82.574219 60.679688 82.488281 60.464844 C 82.398438 60.25 82.351562 60.027344 82.351562 59.792969 L 82.351562 52.917969 C 82.351562 52.6875 82.398438 52.460938 82.488281 52.246094 C 82.574219 52.03125 82.703125 51.84375 82.867188 51.679688 C 83.03125 51.515625 83.21875 51.386719 83.433594 51.296875 C 83.648438 51.210938 83.875 51.164062 84.105469 51.164062 Z M 84.105469 51.164062 " fill-opacity="1" fill-rule="nonzero"/><path fill="#050a44" d="M 84.621094 61.898438 L 84.097656 61.898438 C 82.9375 61.898438 81.992188 60.953125 81.992188 59.792969 L 81.992188 52.917969 C 81.992188 51.757812 82.9375 50.8125 84.097656 50.8125 L 84.621094 50.8125 C 85.785156 50.8125 86.726562 51.757812 86.726562 52.917969 L 86.726562 59.792969 C 86.726562 60.953125 85.785156 61.898438 84.621094 61.898438 Z M 84.097656 51.515625 C 83.328125 51.515625 82.699219 52.148438 82.699219 52.917969 L 82.699219 59.792969 C 82.699219 60.566406 83.328125 61.195312 84.097656 61.195312 L 84.621094 61.195312 C 85.394531 61.195312 86.023438 60.566406 86.023438 59.792969 L 86.023438 52.917969 C 86.023438 52.148438 85.394531 51.515625 84.621094 51.515625 Z M 84.097656 51.515625 " fill-opacity="1" fill-rule="nonzero"/><path fill="#050a44" d="M 133.945312 96.472656 L 107.953125 96.472656 C 107.101562 96.472656 106.441406 95.78125 106.476562 94.929688 C 106.515625 94.074219 107.234375 93.386719 108.082031 93.386719 L 134.070312 93.386719 C 134.925781 93.386719 135.582031 94.074219 135.546875 94.929688 C 135.507812 95.78125 134.789062 96.472656 133.945312 96.472656 Z M 133.945312 96.472656 " fill-opacity="1" fill-rule="nonzero"/><path fill="#050a44" d="M 133.945312 103.746094 L 107.953125 103.746094 C 107.101562 103.746094 106.441406 103.054688 106.476562 102.203125 C 106.515625 101.347656 107.234375 100.660156 108.082031 100.660156 L 134.070312 100.660156 C 134.925781 100.660156 135.582031 101.347656 135.546875 102.203125 C 135.507812 103.054688 134.789062 103.746094 133.945312 103.746094 Z M 133.945312 103.746094 " fill-opacity="1" fill-rule="nonzero"/><path fill="#050a44" d="M 124.851562 85.46875 C 122.199219 86.105469 119.398438 86.074219 116.445312 85.378906 C 114.453125 84.90625 113.070312 83.070312 113.070312 81.027344 L 113.070312 71.402344 L 128.085938 71.402344 L 128.085938 81.164062 C 128.085938 83.15625 126.789062 84.996094 124.851562 85.46875 Z M 124.851562 85.46875 " fill-opacity="1" fill-rule="nonzero"/><path fill="#0a21c0" d="M 152.308594 49.210938 L 152.308594 64.175781 C 152.308594 71.917969 146.007812 78.21875 138.242188 78.21875 L 102.914062 78.21875 C 95.59375 78.21875 89.597656 72.644531 88.921875 65.523438 C 88.871094 65.097656 88.847656 64.625 88.847656 64.175781 L 88.847656 49.210938 C 88.847656 48.761719 88.871094 48.289062 88.921875 47.863281 C 89.597656 40.738281 95.59375 35.167969 102.914062 35.167969 L 138.242188 35.167969 C 146.007812 35.167969 152.308594 41.464844 152.308594 49.210938 Z M 152.308594 49.210938 " fill-opacity="1" fill-rule="nonzero"/><path fill="#050a44" d="M 102.914062 70.167969 C 99.796875 70.167969 97.226562 67.84375 96.9375 64.765625 C 96.898438 64.453125 96.898438 64.308594 96.898438 64.175781 L 96.898438 49.210938 C 96.898438 49.074219 96.898438 48.933594 96.921875 48.804688 C 97.226562 45.539062 99.804688 43.21875 102.921875 43.21875 L 138.25 43.21875 C 141.566406 43.21875 144.265625 45.90625 144.265625 49.210938 L 144.265625 64.175781 C 144.265625 67.476562 141.566406 70.167969 138.25 70.167969 Z M 102.914062 70.167969 " fill-opacity="1" fill-rule="nonzero"/><path fill="#050a44" d="M 99.460938 87.542969 C 99.460938 92.703125 95.28125 96.882812 90.121094 96.882812 C 84.960938 96.882812 80.78125 92.703125 80.78125 87.542969 C 80.78125 82.382812 84.960938 78.203125 90.121094 78.203125 C 95.28125 78.203125 99.460938 82.382812 99.460938 87.542969 Z M 99.460938 87.542969 " fill-opacity="1" fill-rule="nonzero"/><path fill="#e4e6ef" d="M 133.335938 62.84375 C 133.335938 64.648438 131.875 66.109375 130.070312 66.109375 C 128.265625 66.109375 126.796875 64.648438 126.796875 62.84375 C 126.796875 61.035156 128.257812 59.570312 130.070312 59.570312 C 131.882812 59.570312 133.335938 61.03125 133.335938 62.84375 Z M 133.335938 62.84375 " fill-opacity="1" fill-rule="nonzero"/><path fill="#e4e6ef" d="M 124.183594 66.25 C 124.183594 68.054688 122.722656 69.523438 120.910156 69.523438 C 119.097656 69.523438 117.644531 68.0625 117.644531 66.25 Z M 124.183594 66.25 " fill-opacity="1" fill-rule="nonzero"/><path fill="#e4e6ef" d="M 114.355469 62.84375 C 114.355469 64.648438 112.898438 66.109375 111.09375 66.109375 C 109.285156 66.109375 107.820312 64.648438 107.820312 62.84375 C 107.820312 61.035156 109.277344 59.570312 111.09375 59.570312 C 112.90625 59.570312 114.355469 61.03125 114.355469 62.84375 Z M 114.355469 62.84375 " fill-opacity="1" fill-rule="nonzero"/><path fill="#e4e6ef" d="M 201.039062 194.527344 L 38.058594 194.664062 L 38.003906 110.816406 C 38.003906 109.078125 40.515625 106.558594 43.609375 106.558594 L 65.875 106.546875 L 195.367188 106.425781 C 198.460938 106.425781 200.96875 108.933594 200.96875 112.027344 Z M 201.039062 194.527344 " fill-opacity="1" fill-rule="nonzero"/><path fill="#0a21c0" d="M 221.53125 50.933594 C 221.53125 62.234375 212.363281 71.386719 201.058594 71.386719 C 189.757812 71.386719 180.605469 62.21875 180.605469 50.917969 C 180.605469 39.617188 189.773438 30.464844 201.074219 30.464844 C 212.378906 30.464844 221.53125 39.632812 221.53125 50.933594 Z M 221.53125 50.933594 " fill-opacity="1" fill-rule="nonzero"/><path fill="#e4e6ef" d="M 186.09375 72.667969 C 186.09375 72.667969 186.410156 70.210938 185.832031 69.015625 C 185.25 67.808594 184.589844 66.257812 184.941406 64.632812 C 185.292969 63 187.816406 60.714844 189.136719 59.507812 C 190.453125 58.304688 191.855469 58.773438 192.355469 59.3125 C 192.859375 59.855469 192.722656 60.925781 191.617188 62.144531 C 190.917969 62.925781 189.324219 64.820312 189.324219 64.820312 C 189.324219 64.820312 191.652344 67.695312 191.804688 70.445312 C 191.914062 72.347656 190.484375 74.015625 189.082031 74.632812 C 187.683594 75.253906 186.09375 72.660156 186.09375 72.660156 Z M 186.09375 72.667969 " fill-opacity="1" fill-rule="nonzero"/><path fill="#050a44" d="M 189.085938 74.992188 C 188.949219 74.992188 188.820312 74.914062 188.761719 74.78125 C 188.6875 74.601562 188.761719 74.398438 188.941406 74.316406 C 190.238281 73.738281 191.554688 72.195312 191.449219 70.464844 C 191.300781 67.859375 189.070312 65.066406 189.046875 65.035156 C 188.941406 64.910156 188.941406 64.722656 189.046875 64.59375 C 189.0625 64.570312 190.648438 62.675781 191.347656 61.90625 C 192.34375 60.796875 192.441406 59.921875 192.085938 59.546875 C 191.726562 59.164062 190.550781 58.675781 189.359375 59.765625 C 188.117188 60.894531 185.601562 63.1875 185.273438 64.699219 C 184.964844 66.144531 185.503906 67.554688 186.132812 68.855469 C 186.753906 70.144531 186.296875 72.730469 186.273438 72.832031 C 186.238281 73.019531 186.074219 73.148438 185.871094 73.117188 C 185.683594 73.082031 185.554688 72.902344 185.59375 72.714844 C 185.714844 72.03125 185.945312 70.0625 185.511719 69.164062 C 184.820312 67.746094 184.238281 66.203125 184.589844 64.550781 C 184.964844 62.820312 187.496094 60.511719 188.859375 59.269531 C 190.320312 57.9375 191.953125 58.371094 192.597656 59.074219 C 193.121094 59.644531 193.25 60.84375 191.863281 62.378906 C 191.316406 62.984375 190.199219 64.308594 189.765625 64.828125 C 190.328125 65.574219 192.011719 68.015625 192.148438 70.421875 C 192.273438 72.464844 190.730469 74.277344 189.21875 74.953125 C 189.175781 74.976562 189.121094 74.984375 189.078125 74.984375 Z M 189.085938 74.992188 " fill-opacity="1" fill-rule="nonzero"/><path fill="#050a44" d="M 180.9375 79.265625 L 181.816406 76.472656 C 181.929688 76.121094 182.101562 75.800781 182.339844 75.519531 C 182.578125 75.234375 182.859375 75.007812 183.1875 74.835938 C 183.515625 74.667969 183.863281 74.566406 184.230469 74.53125 C 184.597656 74.5 184.960938 74.539062 185.3125 74.648438 L 193.285156 77.15625 C 193.636719 77.269531 193.957031 77.441406 194.238281 77.679688 C 194.523438 77.917969 194.75 78.199219 194.921875 78.527344 C 195.089844 78.855469 195.191406 79.203125 195.226562 79.570312 C 195.257812 79.9375 195.21875 80.300781 195.109375 80.652344 L 194.230469 83.445312 C 194.117188 83.796875 193.945312 84.117188 193.707031 84.398438 C 193.46875 84.683594 193.1875 84.910156 192.859375 85.082031 C 192.53125 85.25 192.183594 85.351562 191.816406 85.386719 C 191.449219 85.417969 191.085938 85.378906 190.734375 85.265625 L 182.761719 82.757812 C 182.410156 82.648438 182.089844 82.472656 181.808594 82.238281 C 181.523438 82 181.296875 81.71875 181.125 81.390625 C 180.957031 81.0625 180.855469 80.714844 180.820312 80.347656 C 180.789062 79.976562 180.828125 79.617188 180.9375 79.265625 Z M 180.9375 79.265625 " fill-opacity="1" fill-rule="nonzero"/><path fill="#0a21c0" d="M 38.199219 192.671875 L 200.828125 192.671875 L 200.828125 203.628906 L 38.199219 203.628906 Z M 38.199219 192.671875 " fill-opacity="1" fill-rule="nonzero"/><g clip-path="url(#edb2e09f17)"><path fill="#050a44" d="M 224.4375 204.371094 L 0.445312 204.371094 C 0.25 204.371094 0.0898438 204.214844 0.0898438 204.019531 C 0.0898438 203.824219 0.25 203.667969 0.445312 203.667969 L 224.4375 203.667969 C 224.632812 203.667969 224.789062 203.824219 224.789062 204.019531 C 224.789062 204.214844 224.632812 204.371094 224.4375 204.371094 Z M 224.4375 204.371094 " fill-opacity="1" fill-rule="nonzero"/></g><g clip-path="url(#539519bfdf)"><path fill="#050a44" d="M 38.050781 204.371094 C 37.960938 204.371094 37.871094 204.332031 37.804688 204.265625 C 37.734375 204.199219 37.699219 204.109375 37.699219 204.019531 L 37.644531 112.164062 C 37.644531 108.882812 40.320312 106.207031 43.601562 106.207031 L 195.359375 106.074219 C 198.640625 106.074219 201.316406 108.746094 201.316406 112.027344 L 201.382812 203.882812 C 201.382812 204.078125 201.226562 204.234375 201.03125 204.234375 Z M 195.359375 106.777344 L 43.601562 106.914062 C 40.703125 106.914062 38.351562 109.273438 38.351562 112.164062 L 38.402344 203.667969 L 200.6875 203.53125 L 200.617188 112.027344 C 200.617188 109.128906 198.257812 106.777344 195.367188 106.777344 Z M 195.359375 106.777344 " fill-opacity="1" fill-rule="nonzero"/></g><path fill="#050a44" d="M 38.003906 122.507812 C 37.914062 122.507812 37.824219 122.46875 37.757812 122.402344 C 37.691406 122.335938 37.652344 122.246094 37.652344 122.15625 L 37.652344 112.171875 C 37.652344 110.582031 38.269531 109.085938 39.390625 107.953125 C 40.515625 106.832031 42.011719 106.207031 43.601562 106.207031 L 195.351562 106.082031 C 198.640625 106.082031 201.308594 108.753906 201.316406 112.035156 L 201.316406 122.019531 C 201.316406 122.214844 201.164062 122.371094 200.96875 122.371094 L 37.996094 122.507812 Z M 195.367188 106.777344 L 43.617188 106.90625 C 42.207031 106.90625 40.890625 107.453125 39.902344 108.449219 C 38.90625 109.445312 38.363281 110.761719 38.363281 112.171875 L 38.363281 121.800781 C 38.363281 121.800781 200.640625 121.667969 200.640625 121.667969 L 200.640625 112.027344 C 200.640625 109.128906 198.273438 106.769531 195.375 106.769531 Z M 195.367188 106.777344 " fill-opacity="1" fill-rule="nonzero"/><path fill="#0a21c0" d="M 172.921875 114.328125 C 172.921875 115.984375 171.582031 117.332031 169.925781 117.332031 C 168.261719 117.332031 166.914062 115.992188 166.914062 114.328125 C 166.914062 112.664062 168.253906 111.324219 169.917969 111.324219 C 171.582031 111.324219 172.921875 112.664062 172.921875 114.328125 Z M 172.921875 114.328125 " fill-opacity="1" fill-rule="nonzero"/><path fill="#0a21c0" d="M 183.59375 114.320312 C 183.59375 115.984375 182.246094 117.324219 180.589844 117.324219 C 178.925781 117.324219 177.59375 115.984375 177.585938 114.320312 C 177.585938 112.65625 178.921875 111.316406 180.582031 111.316406 C 182.238281 111.316406 183.585938 112.65625 183.585938 114.320312 Z M 183.59375 114.320312 " fill-opacity="1" fill-rule="nonzero"/><path fill="#050a44" d="M 180.589844 117.675781 C 178.742188 117.675781 177.242188 116.171875 177.242188 114.320312 C 177.242188 112.46875 178.742188 110.964844 180.589844 110.964844 C 181.488281 110.964844 182.328125 111.316406 182.957031 111.945312 C 183.59375 112.582031 183.9375 113.421875 183.9375 114.320312 C 183.9375 116.171875 182.433594 117.675781 180.582031 117.675781 Z M 180.589844 111.667969 C 179.128906 111.667969 177.945312 112.859375 177.945312 114.328125 C 177.945312 115.789062 179.136719 116.980469 180.597656 116.980469 C 182.058594 116.980469 183.25 115.789062 183.25 114.328125 C 183.25 113.617188 182.972656 112.949219 182.46875 112.449219 C 181.96875 111.945312 181.300781 111.667969 180.597656 111.667969 Z M 180.589844 111.667969 " fill-opacity="1" fill-rule="nonzero"/><path fill="#050a44" d="M 190.882812 117.667969 C 189.03125 117.667969 187.519531 116.164062 187.519531 114.3125 C 187.519531 112.460938 189.023438 110.957031 190.882812 110.957031 C 192.722656 110.957031 194.222656 112.460938 194.222656 114.3125 C 194.222656 116.164062 192.722656 117.667969 190.882812 117.667969 Z M 190.882812 111.660156 C 189.414062 111.660156 188.222656 112.851562 188.222656 114.3125 C 188.222656 115.773438 189.421875 116.964844 190.882812 116.964844 C 192.34375 116.964844 193.519531 115.773438 193.519531 114.3125 C 193.519531 112.851562 192.335938 111.660156 190.875 111.660156 Z M 190.882812 111.660156 " fill-opacity="1" fill-rule="nonzero"/><path fill="#050a44" d="M 119.59375 176.195312 C 108.6875 176.195312 99.820312 167.320312 99.820312 156.414062 C 99.820312 145.507812 108.695312 136.640625 119.59375 136.640625 C 130.492188 136.640625 139.375 145.515625 139.375 156.414062 C 139.375 167.3125 130.5 176.195312 119.59375 176.195312 Z M 119.59375 137.335938 C 109.078125 137.335938 100.515625 145.890625 100.515625 156.414062 C 100.515625 166.9375 109.070312 175.488281 119.59375 175.488281 C 130.117188 175.488281 138.667969 166.929688 138.667969 156.414062 C 138.667969 145.898438 130.109375 137.335938 119.59375 137.335938 Z M 119.59375 137.335938 " fill-opacity="1" fill-rule="nonzero"/><path fill="#050a44" d="M 125.628906 155.523438 L 117.90625 151.066406 C 117.070312 150.578125 116.019531 151.183594 116.019531 152.152344 L 116.019531 161.0625 C 116.019531 162.03125 117.070312 162.636719 117.90625 162.152344 L 125.628906 157.695312 C 126.46875 157.207031 126.46875 156 125.628906 155.515625 Z M 125.628906 155.523438 " fill-opacity="1" fill-rule="nonzero"/><path fill="#e4e6ef" d="M 48.910156 197.710938 L 45.292969 195.621094 C 44.902344 195.398438 44.410156 195.683594 44.410156 196.132812 L 44.410156 200.304688 C 44.410156 200.761719 44.902344 201.039062 45.292969 200.8125 L 48.910156 198.722656 C 49.300781 198.5 49.300781 197.929688 48.910156 197.703125 Z M 48.910156 197.710938 " fill-opacity="1" fill-rule="nonzero"/><path fill="#e4e6ef" d="M 192.167969 199.203125 L 52.25 199.203125 C 51.765625 199.203125 51.375 198.8125 51.375 198.328125 C 51.375 197.839844 51.765625 197.449219 52.25 197.449219 L 192.167969 197.449219 C 192.65625 197.449219 193.046875 197.839844 193.046875 198.328125 C 193.046875 198.8125 192.65625 199.203125 192.167969 199.203125 Z M 192.167969 199.203125 " fill-opacity="1" fill-rule="nonzero"/><path fill="#050a44" d="M 168.066406 199.601562 L 52.25 199.601562 C 51.554688 199.601562 50.984375 199.03125 50.984375 198.335938 C 50.984375 197.636719 51.554688 197.066406 52.25 197.066406 L 168.066406 197.066406 C 168.765625 197.066406 169.332031 197.636719 169.332031 198.335938 C 169.332031 199.03125 168.765625 199.601562 168.066406 199.601562 Z M 52.25 197.765625 C 51.9375 197.765625 51.683594 198.019531 51.683594 198.335938 C 51.683594 198.648438 51.9375 198.902344 52.25 198.902344 L 168.066406 198.902344 C 168.382812 198.902344 168.636719 198.648438 168.636719 198.335938 C 168.636719 198.019531 168.382812 197.765625 168.066406 197.765625 Z M 52.25 197.765625 " fill-opacity="1" fill-rule="nonzero"/><path fill="#e4e6ef" d="M 171.011719 198.3125 C 171.011719 198.550781 170.964844 198.78125 170.871094 199.003906 C 170.78125 199.226562 170.648438 199.421875 170.480469 199.59375 C 170.308594 199.761719 170.113281 199.894531 169.890625 199.984375 C 169.667969 200.078125 169.4375 200.125 169.199219 200.125 C 168.957031 200.125 168.726562 200.078125 168.503906 199.984375 C 168.28125 199.894531 168.085938 199.761719 167.917969 199.59375 C 167.746094 199.421875 167.617188 199.226562 167.523438 199.003906 C 167.433594 198.78125 167.386719 198.550781 167.386719 198.3125 C 167.386719 198.070312 167.433594 197.839844 167.523438 197.617188 C 167.617188 197.394531 167.746094 197.199219 167.917969 197.03125 C 168.085938 196.859375 168.28125 196.730469 168.503906 196.636719 C 168.726562 196.546875 168.957031 196.5 169.199219 196.5 C 169.4375 196.5 169.667969 196.546875 169.890625 196.636719 C 170.113281 196.730469 170.308594 196.859375 170.480469 197.03125 C 170.648438 197.199219 170.78125 197.394531 170.871094 197.617188 C 170.964844 197.839844 171.011719 198.070312 171.011719 198.3125 Z M 171.011719 198.3125 " fill-opacity="1" fill-rule="nonzero"/><path fill="#050a44" d="M 169.199219 200.476562 C 168.007812 200.476562 167.035156 199.503906 167.035156 198.3125 C 167.035156 197.121094 168.007812 196.148438 169.199219 196.148438 C 170.390625 196.148438 171.363281 197.121094 171.363281 198.3125 C 171.363281 199.503906 170.390625 200.476562 169.199219 200.476562 Z M 169.199219 196.84375 C 168.390625 196.84375 167.738281 197.496094 167.738281 198.304688 C 167.738281 199.113281 168.390625 199.765625 169.199219 199.765625 C 170.007812 199.765625 170.660156 199.105469 170.660156 198.304688 C 170.660156 197.503906 170 196.84375 169.199219 196.84375 Z M 169.199219 196.84375 " fill-opacity="1" fill-rule="nonzero"/><path fill="#050a44" d="M 192.882812 44.3125 L 207.023438 44.3125 C 207.769531 44.3125 208.371094 44.917969 208.371094 45.660156 L 208.371094 48.492188 L 212.070312 46.355469 C 212.527344 46.09375 213.089844 46.425781 213.089844 46.949219 L 213.089844 54.414062 C 213.089844 54.941406 212.519531 55.269531 212.070312 55.007812 L 208.371094 52.871094 L 208.371094 55.757812 C 208.371094 56.503906 207.765625 57.105469 207.023438 57.105469 L 192.882812 57.105469 C 192.132812 57.105469 191.53125 56.5 191.53125 55.757812 L 191.53125 45.667969 C 191.53125 44.917969 192.140625 44.320312 192.882812 44.320312 Z M 192.882812 44.3125 " fill-opacity="1" fill-rule="nonzero"/><path fill="#e4e6ef" d="M 202.632812 50.257812 L 198.695312 47.980469 C 198.265625 47.734375 197.726562 48.042969 197.726562 48.535156 L 197.726562 53.082031 C 197.726562 53.578125 198.257812 53.882812 198.695312 53.636719 L 202.632812 51.359375 C 203.058594 51.113281 203.058594 50.5 202.632812 50.25 Z M 202.632812 50.257812 " fill-opacity="1" fill-rule="nonzero"/><path fill="#0a21c0" d="M 65.679688 148.03125 C 64.480469 148.03125 63.292969 147.546875 62.429688 146.585938 C 57.015625 140.578125 52.820312 134.789062 49.59375 128.878906 C 47.652344 125.335938 46.175781 121.789062 45.210938 118.351562 C 44.679688 116.402344 44.328125 114.433594 44.132812 112.453125 C 43.976562 110.207031 44.066406 108.117188 44.394531 106.125 C 45.171875 101.753906 47.375 97.699219 50.597656 94.667969 C 53.148438 92.164062 56.46875 90.066406 60.683594 88.300781 C 66.871094 85.761719 73.964844 84.234375 82.40625 83.617188 C 84.789062 83.417969 86.914062 85.25 87.085938 87.664062 C 87.265625 90.074219 85.453125 92.171875 83.042969 92.34375 C 75.539062 92.890625 69.320312 94.210938 64.039062 96.382812 C 60.894531 97.699219 58.46875 99.214844 56.664062 100.980469 C 54.738281 102.792969 53.464844 105.128906 53.023438 107.617188 C 52.8125 108.875 52.753906 110.277344 52.859375 111.730469 C 52.992188 113.097656 53.261719 114.582031 53.652344 116.011719 C 54.429688 118.785156 55.652344 121.703125 57.277344 124.671875 C 60.175781 129.972656 63.988281 135.222656 68.9375 140.722656 C 70.554688 142.519531 70.414062 145.285156 68.617188 146.902344 C 67.777344 147.65625 66.730469 148.023438 65.6875 148.023438 Z M 65.679688 148.03125 " fill-opacity="1" fill-rule="nonzero"/><path fill="#050a44" d="M 77.175781 93.265625 C 77.003906 93.265625 76.855469 93.136719 76.832031 92.964844 L 75.582031 84.261719 C 75.550781 84.074219 75.6875 83.894531 75.882812 83.867188 C 76.054688 83.835938 76.25 83.972656 76.277344 84.164062 L 77.53125 92.867188 C 77.558594 93.054688 77.425781 93.234375 77.230469 93.265625 C 77.214844 93.265625 77.199219 93.265625 77.175781 93.265625 Z M 77.175781 93.265625 " fill-opacity="1" fill-rule="nonzero"/><path fill="#050a44" d="M 66.300781 95.804688 C 66.160156 95.804688 66.023438 95.714844 65.972656 95.566406 L 63.089844 87.257812 C 63.027344 87.078125 63.117188 86.878906 63.304688 86.816406 C 63.484375 86.75 63.6875 86.847656 63.75 87.035156 L 66.632812 95.339844 C 66.691406 95.519531 66.601562 95.722656 66.414062 95.78125 C 66.378906 95.796875 66.339844 95.804688 66.300781 95.804688 Z M 66.300781 95.804688 " fill-opacity="1" fill-rule="nonzero"/><path fill="#050a44" d="M 57.246094 100.695312 C 57.148438 100.695312 57.050781 100.660156 56.984375 100.574219 L 51.210938 93.949219 C 51.082031 93.796875 51.097656 93.582031 51.246094 93.453125 C 51.390625 93.324219 51.613281 93.339844 51.742188 93.492188 L 57.515625 100.121094 C 57.644531 100.269531 57.628906 100.484375 57.480469 100.613281 C 57.410156 100.671875 57.328125 100.703125 57.246094 100.703125 Z M 57.246094 100.695312 " fill-opacity="1" fill-rule="nonzero"/><path fill="#050a44" d="M 52.917969 108.296875 C 52.917969 108.296875 52.878906 108.296875 52.867188 108.296875 L 44.175781 106.949219 C 43.988281 106.921875 43.855469 106.742188 43.886719 106.554688 C 43.914062 106.367188 44.085938 106.230469 44.28125 106.261719 L 52.96875 107.609375 C 53.15625 107.640625 53.292969 107.820312 53.261719 108.007812 C 53.234375 108.179688 53.082031 108.304688 52.917969 108.304688 Z M 52.917969 108.296875 " fill-opacity="1" fill-rule="nonzero"/><path fill="#050a44" d="M 45.765625 120.851562 C 45.613281 120.851562 45.480469 120.761719 45.433594 120.613281 C 45.375 120.433594 45.472656 120.230469 45.652344 120.167969 L 53.988281 117.375 C 54.167969 117.316406 54.371094 117.414062 54.429688 117.59375 C 54.492188 117.773438 54.394531 117.976562 54.214844 118.035156 L 45.878906 120.828125 C 45.878906 120.828125 45.800781 120.851562 45.765625 120.851562 Z M 45.765625 120.851562 " fill-opacity="1" fill-rule="nonzero"/><path fill="#050a44" d="M 51.40625 132.566406 C 51.285156 132.566406 51.171875 132.503906 51.105469 132.402344 C 51.007812 132.234375 51.054688 132.019531 51.21875 131.921875 L 58.707031 127.324219 C 58.871094 127.226562 59.089844 127.277344 59.1875 127.441406 C 59.285156 127.605469 59.238281 127.824219 59.074219 127.921875 L 51.585938 132.519531 C 51.523438 132.558594 51.464844 132.574219 51.40625 132.574219 Z M 51.40625 132.566406 " fill-opacity="1" fill-rule="nonzero"/><path fill="#050a44" d="M 58.753906 142.8125 C 58.65625 142.8125 58.550781 142.765625 58.484375 142.683594 C 58.363281 142.535156 58.386719 142.308594 58.535156 142.191406 L 65.34375 136.625 C 65.492188 136.503906 65.710938 136.527344 65.839844 136.675781 C 65.957031 136.828125 65.933594 137.050781 65.785156 137.171875 L 58.976562 142.738281 C 58.910156 142.789062 58.835938 142.8125 58.753906 142.8125 Z M 58.753906 142.8125 " fill-opacity="1" fill-rule="nonzero"/><path fill="#e4e6ef" d="M 62.628906 152.648438 L 103.246094 142.121094 L 110.15625 168.773438 L 69.539062 179.300781 Z M 62.628906 152.648438 " fill-opacity="1" fill-rule="nonzero"/><path fill="#050a44" d="M 69.539062 179.660156 C 69.378906 179.660156 69.238281 179.558594 69.199219 179.398438 L 62.296875 152.742188 C 62.273438 152.652344 62.289062 152.554688 62.332031 152.480469 C 62.378906 152.398438 62.460938 152.347656 62.550781 152.324219 L 103.167969 141.800781 C 103.363281 141.746094 103.550781 141.859375 103.59375 142.054688 L 110.5 168.710938 C 110.523438 168.800781 110.507812 168.898438 110.460938 168.972656 C 110.417969 169.054688 110.335938 169.109375 110.246094 169.132812 L 69.628906 179.65625 C 69.628906 179.65625 69.566406 179.667969 69.539062 179.667969 Z M 63.050781 152.902344 L 69.785156 178.875 L 109.730469 168.523438 L 102.996094 142.550781 Z M 63.050781 152.902344 " fill-opacity="1" fill-rule="nonzero"/><path fill="#0a21c0" d="M 66.066406 154.414062 L 101.101562 145.332031 L 106.71875 167.011719 L 71.683594 176.089844 Z M 66.066406 154.414062 " fill-opacity="1" fill-rule="nonzero"/><path fill="#e4e6ef" d="M 89.886719 156.503906 L 86.5625 165.234375 C 86.054688 166.570312 84.375 167.003906 83.28125 166.082031 L 79.648438 163.019531 C 78.554688 162.097656 76.878906 162.53125 76.367188 163.867188 L 71.71875 176.074219 L 83.605469 172.996094 L 89.640625 171.429688 L 106.671875 167.019531 L 93.167969 155.640625 C 92.074219 154.71875 90.398438 155.15625 89.886719 156.488281 Z M 89.886719 156.503906 " fill-opacity="1" fill-rule="nonzero"/><path fill="#e4e6ef" d="M 85.238281 154.734375 C 85.648438 156.316406 84.699219 157.933594 83.109375 158.34375 C 81.527344 158.757812 79.910156 157.804688 79.5 156.21875 C 79.085938 154.636719 80.039062 153.019531 81.625 152.609375 C 83.214844 152.195312 84.824219 153.148438 85.238281 154.734375 Z M 85.238281 154.734375 " fill-opacity="1" fill-rule="nonzero"/><path fill="#e4e6ef" d="M 78.429688 159.949219 C 76.945312 160.699219 75.65625 158.390625 75.597656 158.277344 C 75.613281 158.359375 75.835938 159.550781 75.132812 160.054688 C 74.40625 160.5625 73.65625 160.089844 73.191406 159.484375 C 72.734375 158.878906 70.136719 155.371094 69.726562 154.863281 C 69.726562 154.863281 64.648438 152.878906 60.242188 146.414062 L 68.855469 139.425781 C 68.855469 139.425781 71.410156 142.09375 73.605469 142.019531 C 75.738281 141.941406 77.132812 142.289062 79.273438 144.105469 C 81.417969 145.925781 84.613281 149.359375 85.707031 150.4375 C 88.074219 152.765625 86.1875 154.089844 84.234375 152.929688 C 82.277344 151.777344 79.492188 149.859375 79.492188 149.859375 C 79.492188 149.859375 81.125 153.679688 81.8125 155.207031 C 83.058594 157.980469 80.1875 159.175781 78.609375 156.839844 C 78.609375 156.839844 79.941406 159.183594 78.414062 159.957031 Z M 78.429688 159.949219 " fill-opacity="1" fill-rule="nonzero"/><path fill="#050a44" d="M 74.480469 160.621094 C 73.933594 160.621094 73.371094 160.308594 72.914062 159.703125 C 72.765625 159.507812 72.390625 158.996094 71.933594 158.390625 C 71.058594 157.207031 69.867188 155.621094 69.507812 155.164062 C 68.78125 154.855469 64.101562 152.707031 59.957031 146.617188 C 59.851562 146.464844 59.882812 146.265625 60.027344 146.144531 L 68.648438 139.15625 C 68.789062 139.035156 68.992188 139.058594 69.117188 139.1875 C 69.140625 139.207031 71.53125 141.671875 73.523438 141.671875 C 73.550781 141.671875 73.574219 141.671875 73.605469 141.671875 C 75.722656 141.597656 77.238281 141.914062 79.515625 143.84375 C 81.125 145.214844 83.335938 147.484375 84.792969 148.992188 C 85.289062 149.5 85.695312 149.917969 85.972656 150.1875 C 87.679688 151.875 87.132812 152.894531 86.921875 153.164062 C 86.382812 153.859375 85.183594 153.890625 84.074219 153.230469 C 82.855469 152.511719 81.304688 151.484375 80.308594 150.816406 C 80.847656 152.070312 81.710938 154.0625 82.160156 155.066406 C 82.898438 156.71875 82.300781 157.785156 81.558594 158.195312 C 80.988281 158.511719 80.203125 158.523438 79.460938 158.105469 C 79.535156 158.488281 79.550781 158.898438 79.433594 159.28125 C 79.296875 159.722656 79.019531 160.054688 78.59375 160.261719 C 77.621094 160.757812 76.652344 160.203125 75.941406 159.371094 C 75.867188 159.730469 75.6875 160.089844 75.34375 160.335938 C 75.074219 160.523438 74.789062 160.613281 74.488281 160.613281 Z M 60.714844 146.480469 C 64.953125 152.5625 69.800781 154.519531 69.851562 154.539062 C 69.90625 154.5625 69.957031 154.601562 69.996094 154.644531 C 70.28125 154.996094 71.558594 156.710938 72.496094 157.972656 C 72.945312 158.578125 73.320312 159.078125 73.46875 159.273438 C 73.648438 159.507812 74.273438 160.21875 74.921875 159.769531 C 75.289062 159.507812 75.335938 158.863281 75.246094 158.351562 C 75.214844 158.1875 75.3125 158.015625 75.46875 157.957031 C 75.632812 157.894531 75.808594 157.957031 75.890625 158.105469 C 76.007812 158.324219 77.109375 160.21875 78.257812 159.632812 C 78.503906 159.507812 78.667969 159.328125 78.742188 159.070312 C 78.953125 158.382812 78.496094 157.347656 78.300781 157.003906 C 78.210938 156.839844 78.261719 156.628906 78.421875 156.53125 C 78.578125 156.4375 78.789062 156.480469 78.894531 156.636719 C 79.613281 157.703125 80.585938 157.917969 81.183594 157.582031 C 81.820312 157.230469 81.941406 156.351562 81.484375 155.351562 C 80.800781 153.835938 79.175781 150.03125 79.164062 149.996094 C 79.101562 149.851562 79.140625 149.6875 79.261719 149.589844 C 79.378906 149.492188 79.550781 149.484375 79.679688 149.566406 C 79.710938 149.589844 82.480469 151.492188 84.398438 152.625 C 85.265625 153.140625 86.0625 153.082031 86.335938 152.726562 C 86.578125 152.421875 86.488281 151.703125 85.453125 150.683594 C 85.175781 150.40625 84.765625 149.980469 84.261719 149.46875 C 82.808594 147.972656 80.621094 145.71875 79.035156 144.371094 C 76.921875 142.570312 75.605469 142.289062 73.605469 142.363281 C 73.566406 142.363281 73.539062 142.363281 73.5 142.363281 C 71.574219 142.363281 69.5 140.542969 68.820312 139.890625 L 60.699219 146.480469 Z M 60.714844 146.480469 " fill-opacity="1" fill-rule="nonzero"/><path fill="#050a44" d="M 79.5 150.210938 C 79.363281 150.210938 79.238281 150.136719 79.175781 150.007812 L 77.597656 146.550781 C 77.515625 146.371094 77.597656 146.167969 77.769531 146.085938 C 77.941406 146.003906 78.152344 146.085938 78.234375 146.257812 L 79.8125 149.71875 C 79.894531 149.898438 79.8125 150.097656 79.640625 150.179688 C 79.597656 150.203125 79.542969 150.210938 79.5 150.210938 Z M 79.5 150.210938 " fill-opacity="1" fill-rule="nonzero"/><path fill="#050a44" d="M 78.617188 157.183594 C 78.496094 157.183594 78.375 157.117188 78.308594 157.003906 L 73.882812 149.058594 C 73.785156 148.886719 73.851562 148.675781 74.015625 148.578125 C 74.183594 148.488281 74.398438 148.542969 74.496094 148.714844 L 78.921875 156.660156 C 79.019531 156.832031 78.953125 157.042969 78.789062 157.140625 C 78.734375 157.167969 78.675781 157.183594 78.617188 157.183594 Z M 78.617188 157.183594 " fill-opacity="1" fill-rule="nonzero"/><path fill="#050a44" d="M 75.589844 158.628906 C 75.46875 158.628906 75.359375 158.570312 75.289062 158.464844 L 71.019531 151.515625 C 70.921875 151.351562 70.96875 151.132812 71.132812 151.035156 C 71.296875 150.9375 71.515625 150.984375 71.613281 151.15625 L 75.882812 158.105469 C 75.980469 158.269531 75.933594 158.488281 75.769531 158.585938 C 75.710938 158.621094 75.648438 158.636719 75.589844 158.636719 Z M 75.589844 158.628906 " fill-opacity="1" fill-rule="nonzero"/><path fill="#050a44" d="M 55.910156 139.664062 L 63.707031 133.335938 C 64.761719 132.480469 66.308594 132.640625 67.164062 133.695312 L 69.816406 136.964844 C 70.671875 138.015625 70.507812 139.566406 69.457031 140.417969 L 61.65625 146.75 C 60.605469 147.601562 59.054688 147.441406 58.203125 146.390625 L 55.550781 143.121094 C 54.695312 142.066406 54.855469 140.519531 55.910156 139.664062 Z M 55.910156 139.664062 " fill-opacity="1" fill-rule="nonzero"/><path fill="#e4e6ef" d="M 76.722656 56.78125 L 66.894531 54.28125 L 66.894531 45.660156 C 66.894531 44.738281 66.144531 43.988281 65.222656 43.988281 L 28.476562 43.988281 C 27.558594 43.988281 26.808594 44.738281 26.808594 45.660156 L 26.808594 68.039062 C 26.808594 68.960938 27.558594 69.710938 28.476562 69.710938 L 65.222656 69.710938 C 66.144531 69.710938 66.894531 68.960938 66.894531 68.039062 L 66.894531 60.207031 L 76.722656 57.703125 C 77.191406 57.585938 77.191406 56.910156 76.722656 56.78125 Z M 76.722656 56.78125 " fill-opacity="1" fill-rule="nonzero"/><path fill="#050a44" d="M 65.214844 70.0625 L 28.472656 70.0625 C 27.355469 70.0625 26.449219 69.15625 26.449219 68.039062 L 26.449219 45.660156 C 26.449219 44.542969 27.355469 43.636719 28.472656 43.636719 L 65.214844 43.636719 C 66.332031 43.636719 67.238281 44.542969 67.238281 45.660156 L 67.238281 54.003906 L 76.804688 56.4375 C 77.175781 56.535156 77.425781 56.859375 77.425781 57.238281 C 77.425781 57.621094 77.175781 57.945312 76.804688 58.035156 L 67.238281 60.46875 L 67.238281 68.03125 C 67.238281 69.148438 66.332031 70.054688 65.214844 70.054688 Z M 28.476562 44.34375 C 27.75 44.34375 27.152344 44.933594 27.152344 45.667969 L 27.152344 68.046875 C 27.152344 68.773438 27.746094 69.375 28.476562 69.375 L 65.222656 69.375 C 65.949219 69.375 66.550781 68.78125 66.550781 68.046875 L 66.550781 60.214844 C 66.550781 60.054688 66.65625 59.914062 66.8125 59.875 L 76.636719 57.375 C 76.714844 57.351562 76.726562 57.300781 76.726562 57.253906 C 76.726562 57.210938 76.714844 57.15625 76.636719 57.136719 L 66.8125 54.632812 C 66.65625 54.59375 66.550781 54.453125 66.550781 54.296875 L 66.550781 45.683594 C 66.550781 44.957031 65.957031 44.355469 65.222656 44.355469 L 28.476562 44.355469 Z M 28.476562 44.34375 " fill-opacity="1" fill-rule="nonzero"/><path fill="#050a44" d="M 60.984375 51.816406 L 56.59375 51.816406 C 56.402344 51.816406 56.242188 51.660156 56.242188 51.464844 C 56.242188 51.269531 56.402344 51.113281 56.59375 51.113281 L 60.984375 51.113281 C 61.179688 51.113281 61.335938 51.269531 61.335938 51.464844 C 61.335938 51.660156 61.179688 51.816406 60.984375 51.816406 Z M 60.984375 51.816406 " fill-opacity="1" fill-rule="nonzero"/><path fill="#050a44" d="M 53.90625 51.816406 L 32.941406 51.816406 C 32.746094 51.816406 32.589844 51.660156 32.589844 51.464844 C 32.589844 51.269531 32.746094 51.113281 32.941406 51.113281 L 53.90625 51.113281 C 54.101562 51.113281 54.257812 51.269531 54.257812 51.464844 C 54.257812 51.660156 54.101562 51.816406 53.90625 51.816406 Z M 53.90625 51.816406 " fill-opacity="1" fill-rule="nonzero"/><path fill="#050a44" d="M 60.984375 57.082031 L 38.351562 57.082031 C 38.15625 57.082031 37.996094 56.925781 37.996094 56.730469 C 37.996094 56.535156 38.15625 56.378906 38.351562 56.378906 L 60.984375 56.378906 C 61.179688 56.378906 61.335938 56.535156 61.335938 56.730469 C 61.335938 56.925781 61.179688 57.082031 60.984375 57.082031 Z M 60.984375 57.082031 " fill-opacity="1" fill-rule="nonzero"/><path fill="#050a44" d="M 35.894531 57.082031 L 32.949219 57.082031 C 32.753906 57.082031 32.597656 56.925781 32.597656 56.730469 C 32.597656 56.535156 32.753906 56.378906 32.949219 56.378906 L 35.894531 56.378906 C 36.089844 56.378906 36.246094 56.535156 36.246094 56.730469 C 36.246094 56.925781 36.089844 57.082031 35.894531 57.082031 Z M 35.894531 57.082031 " fill-opacity="1" fill-rule="nonzero"/><path fill="#050a44" d="M 60.984375 62.347656 L 46.363281 62.347656 C 46.167969 62.347656 46.011719 62.191406 46.011719 61.996094 C 46.011719 61.800781 46.167969 61.644531 46.363281 61.644531 L 60.984375 61.644531 C 61.179688 61.644531 61.335938 61.800781 61.335938 61.996094 C 61.335938 62.191406 61.179688 62.347656 60.984375 62.347656 Z M 60.984375 62.347656 " fill-opacity="1" fill-rule="nonzero"/><path fill="#050a44" d="M 43.90625 62.347656 L 32.949219 62.347656 C 32.753906 62.347656 32.597656 62.191406 32.597656 61.996094 C 32.597656 61.800781 32.753906 61.644531 32.949219 61.644531 L 43.90625 61.644531 C 44.101562 61.644531 44.257812 61.800781 44.257812 61.996094 C 44.257812 62.191406 44.101562 62.347656 43.90625 62.347656 Z M 43.90625 62.347656 " fill-opacity="1" fill-rule="nonzero"/><path fill="#0a21c0" d="M 2.300781 78.039062 L 12.128906 80.539062 L 12.128906 89.160156 C 12.128906 90.082031 12.875 90.832031 13.796875 90.832031 L 50.542969 90.832031 C 51.464844 90.832031 52.214844 90.082031 52.214844 89.160156 L 52.214844 66.78125 C 52.214844 65.859375 51.464844 65.113281 50.542969 65.113281 L 13.796875 65.113281 C 12.875 65.113281 12.128906 65.859375 12.128906 66.78125 L 12.128906 74.617188 L 2.300781 77.117188 C 1.828125 77.238281 1.828125 77.910156 2.300781 78.039062 Z M 2.300781 78.039062 " fill-opacity="1" fill-rule="nonzero"/><path fill="#050a44" d="M 22.417969 83.703125 L 18.03125 83.703125 C 17.835938 83.703125 17.679688 83.542969 17.679688 83.347656 C 17.679688 83.15625 17.835938 82.996094 18.03125 82.996094 L 22.417969 82.996094 C 22.613281 82.996094 22.769531 83.15625 22.769531 83.347656 C 22.769531 83.542969 22.613281 83.703125 22.417969 83.703125 Z M 22.417969 83.703125 " fill-opacity="1" fill-rule="nonzero"/><path fill="#050a44" d="M 46.070312 83.703125 L 25.109375 83.703125 C 24.914062 83.703125 24.757812 83.542969 24.757812 83.347656 C 24.757812 83.15625 24.914062 82.996094 25.109375 82.996094 L 46.070312 82.996094 C 46.265625 82.996094 46.425781 83.15625 46.425781 83.347656 C 46.425781 83.542969 46.265625 83.703125 46.070312 83.703125 Z M 46.070312 83.703125 " fill-opacity="1" fill-rule="nonzero"/><path fill="#050a44" d="M 40.671875 78.4375 L 18.039062 78.4375 C 17.84375 78.4375 17.683594 78.277344 17.683594 78.082031 C 17.683594 77.890625 17.84375 77.730469 18.039062 77.730469 L 40.671875 77.730469 C 40.867188 77.730469 41.023438 77.890625 41.023438 78.082031 C 41.023438 78.277344 40.867188 78.4375 40.671875 78.4375 Z M 40.671875 78.4375 " fill-opacity="1" fill-rule="nonzero"/><path fill="#050a44" d="M 46.070312 78.4375 L 43.128906 78.4375 C 42.933594 78.4375 42.777344 78.277344 42.777344 78.082031 C 42.777344 77.890625 42.933594 77.730469 43.128906 77.730469 L 46.070312 77.730469 C 46.265625 77.730469 46.425781 77.890625 46.425781 78.082031 C 46.425781 78.277344 46.265625 78.4375 46.070312 78.4375 Z M 46.070312 78.4375 " fill-opacity="1" fill-rule="nonzero"/><path fill="#050a44" d="M 32.65625 73.171875 L 18.039062 73.171875 C 17.84375 73.171875 17.683594 73.011719 17.683594 72.820312 C 17.683594 72.625 17.84375 72.464844 18.039062 72.464844 L 32.65625 72.464844 C 32.851562 72.464844 33.007812 72.625 33.007812 72.820312 C 33.007812 73.011719 32.851562 73.171875 32.65625 73.171875 Z M 32.65625 73.171875 " fill-opacity="1" fill-rule="nonzero"/><path fill="#050a44" d="M 46.070312 73.171875 L 35.113281 73.171875 C 34.917969 73.171875 34.761719 73.011719 34.761719 72.820312 C 34.761719 72.625 34.917969 72.464844 35.113281 72.464844 L 46.070312 72.464844 C 46.265625 72.464844 46.425781 72.625 46.425781 72.820312 C 46.425781 73.011719 46.265625 73.171875 46.070312 73.171875 Z M 46.070312 73.171875 " fill-opacity="1" fill-rule="nonzero"/><path fill="#0a21c0" d="M 217.148438 140.28125 L 217.148438 169.84375 C 217.148438 170.523438 216.578125 171.085938 215.90625 171.085938 L 208.265625 171.085938 L 208.265625 169.347656 C 208.265625 168.246094 207.367188 167.347656 206.265625 167.347656 L 196.222656 167.347656 C 195.121094 167.347656 194.222656 168.246094 194.222656 169.347656 L 194.222656 171.085938 L 186.582031 171.085938 C 185.886719 171.085938 185.339844 170.515625 185.339844 169.84375 L 185.339844 140.28125 C 185.339844 139.597656 185.886719 139.035156 186.582031 139.035156 L 194.222656 139.035156 L 194.222656 140.773438 C 194.222656 141.875 195.121094 142.773438 196.222656 142.773438 L 206.265625 142.773438 C 207.367188 142.773438 208.265625 141.875 208.265625 140.773438 L 208.265625 139.035156 L 215.90625 139.035156 C 216.585938 139.035156 217.148438 139.605469 217.148438 140.28125 Z M 217.148438 140.28125 " fill-opacity="1" fill-rule="nonzero"/><path fill="#050a44" d="M 196.125 148.046875 L 206.339844 148.046875 C 206.59375 148.046875 206.835938 148.09375 207.070312 148.191406 C 207.304688 148.289062 207.511719 148.425781 207.691406 148.605469 C 207.871094 148.785156 208.007812 148.992188 208.105469 149.226562 C 208.203125 149.460938 208.25 149.703125 208.25 149.957031 L 208.25 160.171875 C 208.25 160.425781 208.203125 160.671875 208.105469 160.902344 C 208.007812 161.136719 207.871094 161.34375 207.691406 161.523438 C 207.511719 161.703125 207.304688 161.839844 207.070312 161.9375 C 206.835938 162.035156 206.59375 162.082031 206.339844 162.082031 L 196.125 162.082031 C 195.871094 162.082031 195.628906 162.035156 195.394531 161.9375 C 195.160156 161.839844 194.953125 161.703125 194.773438 161.523438 C 194.59375 161.34375 194.457031 161.136719 194.359375 160.902344 C 194.261719 160.671875 194.214844 160.425781 194.214844 160.171875 L 194.214844 149.957031 C 194.214844 149.703125 194.261719 149.460938 194.359375 149.226562 C 194.457031 148.992188 194.59375 148.785156 194.773438 148.605469 C 194.953125 148.425781 195.160156 148.289062 195.394531 148.191406 C 195.628906 148.09375 195.871094 148.046875 196.125 148.046875 Z M 196.125 148.046875 " fill-opacity="1" fill-rule="nonzero"/><path fill="#050a44" d="M 211.277344 141.296875 L 213.898438 141.296875 C 214.027344 141.296875 214.136719 141.34375 214.226562 141.433594 C 214.316406 141.523438 214.363281 141.632812 214.363281 141.761719 L 214.363281 144.382812 C 214.363281 144.511719 214.316406 144.621094 214.226562 144.710938 C 214.136719 144.804688 214.027344 144.847656 213.898438 144.847656 L 211.277344 144.847656 C 211.148438 144.847656 211.039062 144.804688 210.949219 144.710938 C 210.859375 144.621094 210.8125 144.511719 210.8125 144.382812 L 210.8125 141.761719 C 210.8125 141.632812 210.859375 141.523438 210.949219 141.433594 C 211.039062 141.34375 211.148438 141.296875 211.277344 141.296875 Z M 211.277344 141.296875 " fill-opacity="1" fill-rule="nonzero"/><path fill="#050a44" d="M 211.277344 149.289062 L 213.898438 149.289062 C 214.027344 149.289062 214.136719 149.335938 214.226562 149.425781 C 214.316406 149.515625 214.363281 149.625 214.363281 149.753906 L 214.363281 152.375 C 214.363281 152.503906 214.316406 152.613281 214.226562 152.703125 C 214.136719 152.796875 214.027344 152.839844 213.898438 152.839844 L 211.277344 152.839844 C 211.148438 152.839844 211.039062 152.796875 210.949219 152.703125 C 210.859375 152.613281 210.8125 152.503906 210.8125 152.375 L 210.8125 149.753906 C 210.8125 149.625 210.859375 149.515625 210.949219 149.425781 C 211.039062 149.335938 211.148438 149.289062 211.277344 149.289062 Z M 211.277344 149.289062 " fill-opacity="1" fill-rule="nonzero"/><path fill="#050a44" d="M 211.277344 157.28125 L 213.898438 157.28125 C 214.027344 157.28125 214.136719 157.328125 214.226562 157.417969 C 214.316406 157.507812 214.363281 157.617188 214.363281 157.746094 L 214.363281 160.367188 C 214.363281 160.496094 214.316406 160.605469 214.226562 160.695312 C 214.136719 160.785156 214.027344 160.832031 213.898438 160.832031 L 211.277344 160.832031 C 211.148438 160.832031 211.039062 160.785156 210.949219 160.695312 C 210.859375 160.605469 210.8125 160.496094 210.8125 160.367188 L 210.8125 157.746094 C 210.8125 157.617188 210.859375 157.507812 210.949219 157.417969 C 211.039062 157.328125 211.148438 157.28125 211.277344 157.28125 Z M 211.277344 157.28125 " fill-opacity="1" fill-rule="nonzero"/><path fill="#050a44" d="M 211.277344 165.28125 L 213.898438 165.28125 C 214.027344 165.28125 214.136719 165.328125 214.226562 165.417969 C 214.316406 165.507812 214.363281 165.617188 214.363281 165.746094 L 214.363281 168.367188 C 214.363281 168.496094 214.316406 168.605469 214.226562 168.695312 C 214.136719 168.785156 214.027344 168.832031 213.898438 168.832031 L 211.277344 168.832031 C 211.148438 168.832031 211.039062 168.785156 210.949219 168.695312 C 210.859375 168.605469 210.8125 168.496094 210.8125 168.367188 L 210.8125 165.746094 C 210.8125 165.617188 210.859375 165.507812 210.949219 165.417969 C 211.039062 165.328125 211.148438 165.28125 211.277344 165.28125 Z M 211.277344 165.28125 " fill-opacity="1" fill-rule="nonzero"/><path fill="#050a44" d="M 188.621094 141.296875 L 191.242188 141.296875 C 191.371094 141.296875 191.480469 141.34375 191.570312 141.433594 C 191.660156 141.523438 191.707031 141.632812 191.707031 141.761719 L 191.707031 144.382812 C 191.707031 144.511719 191.660156 144.621094 191.570312 144.710938 C 191.480469 144.804688 191.371094 144.847656 191.242188 144.847656 L 188.621094 144.847656 C 188.492188 144.847656 188.382812 144.804688 188.292969 144.710938 C 188.199219 144.621094 188.15625 144.511719 188.15625 144.382812 L 188.15625 141.761719 C 188.15625 141.632812 188.199219 141.523438 188.292969 141.433594 C 188.382812 141.34375 188.492188 141.296875 188.621094 141.296875 Z M 188.621094 141.296875 " fill-opacity="1" fill-rule="nonzero"/><path fill="#050a44" d="M 188.621094 149.289062 L 191.242188 149.289062 C 191.371094 149.289062 191.480469 149.335938 191.570312 149.425781 C 191.660156 149.515625 191.707031 149.625 191.707031 149.753906 L 191.707031 152.375 C 191.707031 152.503906 191.660156 152.613281 191.570312 152.703125 C 191.480469 152.796875 191.371094 152.839844 191.242188 152.839844 L 188.621094 152.839844 C 188.492188 152.839844 188.382812 152.796875 188.292969 152.703125 C 188.199219 152.613281 188.15625 152.503906 188.15625 152.375 L 188.15625 149.753906 C 188.15625 149.625 188.199219 149.515625 188.292969 149.425781 C 188.382812 149.335938 188.492188 149.289062 188.621094 149.289062 Z M 188.621094 149.289062 " fill-opacity="1" fill-rule="nonzero"/><path fill="#050a44" d="M 188.621094 157.28125 L 191.242188 157.28125 C 191.371094 157.28125 191.480469 157.328125 191.570312 157.417969 C 191.660156 157.507812 191.707031 157.617188 191.707031 157.746094 L 191.707031 160.367188 C 191.707031 160.496094 191.660156 160.605469 191.570312 160.695312 C 191.480469 160.785156 191.371094 160.832031 191.242188 160.832031 L 188.621094 160.832031 C 188.492188 160.832031 188.382812 160.785156 188.292969 160.695312 C 188.199219 160.605469 188.15625 160.496094 188.15625 160.367188 L 188.15625 157.746094 C 188.15625 157.617188 188.199219 157.507812 188.292969 157.417969 C 188.382812 157.328125 188.492188 157.28125 188.621094 157.28125 Z M 188.621094 157.28125 " fill-opacity="1" fill-rule="nonzero"/><path fill="#050a44" d="M 188.621094 165.28125 L 191.242188 165.28125 C 191.371094 165.28125 191.480469 165.328125 191.570312 165.417969 C 191.660156 165.507812 191.707031 165.617188 191.707031 165.746094 L 191.707031 168.367188 C 191.707031 168.496094 191.660156 168.605469 191.570312 168.695312 C 191.480469 168.785156 191.371094 168.832031 191.242188 168.832031 L 188.621094 168.832031 C 188.492188 168.832031 188.382812 168.785156 188.292969 168.695312 C 188.199219 168.605469 188.15625 168.496094 188.15625 168.367188 L 188.15625 165.746094 C 188.15625 165.617188 188.199219 165.507812 188.292969 165.417969 C 188.382812 165.328125 188.492188 165.28125 188.621094 165.28125 Z M 188.621094 165.28125 " fill-opacity="1" fill-rule="nonzero"/><path fill="#050a44" d="M 21.691406 171.355469 L 17.871094 171.355469 C 17.429688 171.355469 17.070312 170.996094 17.070312 170.554688 L 17.070312 167.589844 C 16.417969 167.394531 15.777344 167.125 15.144531 166.777344 L 13.042969 168.882812 C 12.898438 169.027344 12.691406 169.117188 12.472656 169.117188 C 12.253906 169.117188 12.054688 169.035156 11.902344 168.882812 L 9.207031 166.1875 C 9.058594 166.039062 8.976562 165.828125 8.976562 165.617188 C 8.976562 165.402344 9.058594 165.207031 9.214844 165.050781 L 11.3125 162.945312 C 10.972656 162.335938 10.710938 161.695312 10.511719 161.027344 L 7.550781 161.027344 C 7.109375 161.027344 6.75 160.667969 6.75 160.226562 L 6.75 156.40625 C 6.75 155.964844 7.109375 155.605469 7.550781 155.605469 L 10.519531 155.605469 C 10.710938 154.9375 10.980469 154.285156 11.320312 153.679688 L 9.222656 151.574219 C 9.070312 151.425781 8.988281 151.230469 8.988281 151.011719 C 8.988281 150.796875 9.070312 150.59375 9.230469 150.4375 L 11.925781 147.738281 C 12.246094 147.425781 12.757812 147.433594 13.058594 147.738281 L 15.152344 149.835938 C 15.777344 149.5 16.417969 149.222656 17.078125 149.027344 L 17.078125 146.070312 C 17.078125 145.628906 17.4375 145.269531 17.878906 145.269531 L 21.699219 145.269531 C 22.140625 145.269531 22.5 145.628906 22.5 146.070312 L 22.5 149.027344 C 23.160156 149.222656 23.8125 149.5 24.425781 149.835938 L 26.523438 147.730469 C 26.839844 147.417969 27.347656 147.425781 27.660156 147.730469 L 30.359375 150.429688 C 30.507812 150.585938 30.597656 150.796875 30.597656 150.996094 C 30.597656 151.214844 30.515625 151.410156 30.367188 151.566406 L 28.253906 153.671875 C 28.597656 154.285156 28.859375 154.929688 29.054688 155.605469 L 32.019531 155.605469 C 32.464844 155.605469 32.824219 155.964844 32.824219 156.40625 L 32.824219 160.226562 C 32.824219 160.667969 32.464844 161.027344 32.019531 161.027344 L 29.054688 161.027344 C 28.867188 161.695312 28.597656 162.335938 28.253906 162.953125 L 30.359375 165.054688 C 30.664062 165.371094 30.671875 165.871094 30.359375 166.1875 L 27.65625 168.890625 C 27.347656 169.191406 26.832031 169.199219 26.515625 168.890625 L 24.417969 166.785156 C 23.789062 167.132812 23.136719 167.402344 22.492188 167.59375 L 22.492188 170.5625 C 22.492188 171.003906 22.132812 171.363281 21.691406 171.363281 Z M 15.085938 166 C 15.144531 166 15.207031 166.015625 15.265625 166.046875 C 16 166.472656 16.757812 166.785156 17.511719 166.980469 C 17.671875 167.019531 17.773438 167.160156 17.773438 167.320312 L 17.773438 170.546875 C 17.773438 170.605469 17.820312 170.644531 17.871094 170.644531 L 21.691406 170.644531 C 21.753906 170.644531 21.789062 170.597656 21.789062 170.546875 L 21.789062 167.320312 C 21.789062 167.160156 21.894531 167.019531 22.050781 166.980469 C 22.808594 166.785156 23.566406 166.464844 24.300781 166.046875 C 24.433594 165.960938 24.605469 165.984375 24.71875 166.097656 L 27.003906 168.390625 C 27.003906 168.390625 27.121094 168.425781 27.152344 168.390625 L 29.855469 165.691406 C 29.855469 165.691406 29.894531 165.589844 29.855469 165.550781 L 27.558594 163.25 C 27.445312 163.140625 27.421875 162.960938 27.503906 162.824219 C 27.925781 162.128906 28.238281 161.378906 28.433594 160.59375 C 28.472656 160.433594 28.613281 160.332031 28.769531 160.332031 L 32.007812 160.332031 C 32.066406 160.332031 32.109375 160.285156 32.109375 160.234375 L 32.109375 156.414062 C 32.109375 156.351562 32.066406 156.316406 32.007812 156.316406 L 28.769531 156.316406 C 28.613281 156.316406 28.472656 156.203125 28.433594 156.054688 C 28.230469 155.265625 27.925781 154.511719 27.503906 153.8125 C 27.421875 153.679688 27.445312 153.5 27.558594 153.386719 L 29.855469 151.09375 L 30.097656 150.699219 L 29.847656 150.945312 L 27.152344 148.257812 C 27.113281 148.21875 27.046875 148.210938 27.003906 148.257812 L 24.71875 150.546875 C 24.605469 150.660156 24.433594 150.683594 24.292969 150.601562 C 23.574219 150.179688 22.816406 149.867188 22.042969 149.65625 C 21.886719 149.621094 21.78125 149.476562 21.78125 149.320312 L 21.78125 146.097656 C 21.78125 146.039062 21.738281 145.996094 21.683594 145.996094 L 17.863281 145.996094 C 17.804688 145.996094 17.769531 146.039062 17.769531 146.097656 L 17.769531 149.320312 C 17.769531 149.476562 17.664062 149.621094 17.503906 149.65625 C 16.726562 149.867188 15.96875 150.179688 15.257812 150.601562 C 15.125 150.683594 14.945312 150.660156 14.832031 150.546875 L 12.539062 148.257812 C 12.503906 148.21875 12.433594 148.21875 12.398438 148.257812 L 9.703125 150.945312 C 9.703125 150.945312 9.703125 151.085938 9.703125 151.085938 L 11.984375 153.378906 C 12.097656 153.492188 12.121094 153.664062 12.039062 153.808594 C 11.625 154.511719 11.320312 155.265625 11.101562 156.0625 C 11.0625 156.210938 10.921875 156.324219 10.765625 156.324219 L 7.535156 156.324219 C 7.484375 156.324219 7.4375 156.367188 7.4375 156.421875 L 7.4375 160.242188 C 7.4375 160.300781 7.484375 160.335938 7.535156 160.335938 L 10.765625 160.335938 C 10.921875 160.335938 11.0625 160.441406 11.101562 160.601562 C 11.3125 161.386719 11.625 162.144531 12.039062 162.839844 C 12.121094 162.972656 12.097656 163.148438 11.984375 163.257812 L 9.703125 165.558594 L 9.453125 165.949219 L 9.703125 165.699219 L 12.40625 168.398438 C 12.40625 168.398438 12.496094 168.398438 12.53125 168.398438 L 12.546875 168.398438 L 14.839844 166.105469 C 14.90625 166.039062 14.996094 166 15.085938 166 Z M 19.789062 163.835938 C 16.742188 163.835938 14.269531 161.355469 14.269531 158.308594 C 14.269531 155.257812 16.75 152.796875 19.789062 152.796875 C 22.832031 152.796875 25.300781 155.265625 25.300781 158.308594 C 25.300781 161.347656 22.832031 163.835938 19.789062 163.835938 Z M 19.789062 153.5 C 17.132812 153.5 14.964844 155.65625 14.964844 158.308594 C 14.964844 160.960938 17.132812 163.132812 19.789062 163.132812 C 22.449219 163.132812 24.597656 160.96875 24.597656 158.308594 C 24.597656 155.648438 22.441406 153.5 19.789062 153.5 Z M 19.789062 153.5 " fill-opacity="1" fill-rule="nonzero"/></svg>