<svg xmlns="http://www.w3.org/2000/svg" xmlns:xlink="http://www.w3.org/1999/xlink" width="300" zoomAndPan="magnify" viewBox="0 0 224.87999 225" height="300" preserveAspectRatio="xMidYMid meet" version="1.0"><defs><clipPath id="5b9da7847f"><path d="M 30 95 L 189 95 L 189 198.988281 L 30 198.988281 Z M 30 95 " clip-rule="nonzero"/></clipPath><clipPath id="7b643863d8"><path d="M 30 95 L 190 95 L 190 198.988281 L 30 198.988281 Z M 30 95 " clip-rule="nonzero"/></clipPath><clipPath id="b06642764d"><path d="M 194 91 L 224.761719 91 L 224.761719 169 L 194 169 Z M 194 91 " clip-rule="nonzero"/></clipPath><clipPath id="51437c2ac0"><path d="M 215 133 L 224.761719 133 L 224.761719 135 L 215 135 Z M 215 133 " clip-rule="nonzero"/></clipPath><clipPath id="3a35a661f2"><path d="M 0 198 L 220 198 L 220 198.988281 L 0 198.988281 Z M 0 198 " clip-rule="nonzero"/></clipPath></defs><path fill="#0a21c0" d="M 117.695312 116.308594 L 117.371094 116.285156 C 117.191406 116.277344 117.011719 116.269531 116.832031 116.261719 C 116.308594 116.25 115.671875 116.234375 114.957031 116.121094 C 113.707031 115.976562 112.582031 115.671875 111.585938 115.394531 C 111.21875 115.296875 110.851562 115.191406 110.476562 115.101562 L 110.109375 114.996094 C 107.613281 114.148438 104.375 112.90625 101.496094 110.84375 C 96.40625 107.402344 92.199219 102.164062 89.75 96.160156 C 88.886719 94.046875 89.898438 91.625 92.011719 90.761719 C 94.128906 89.898438 96.539062 90.910156 97.410156 93.027344 C 99.253906 97.53125 102.378906 101.449219 106.234375 104.050781 C 108.257812 105.5 110.574219 106.40625 112.613281 107.101562 C 113.003906 107.199219 113.390625 107.304688 113.78125 107.410156 C 114.578125 107.628906 115.324219 107.835938 115.964844 107.898438 L 116.253906 107.941406 C 116.519531 107.988281 116.796875 107.980469 117.066406 107.988281 C 117.230469 107.988281 117.394531 107.996094 117.558594 108.003906 C 117.746094 107.988281 117.933594 107.980469 118.128906 107.972656 C 118.371094 107.957031 118.699219 107.941406 118.8125 107.921875 L 119.105469 107.867188 C 121.023438 107.582031 122.988281 106.722656 124.964844 105.320312 C 126.703125 104.105469 128.375 102.5 130.257812 100.273438 C 133.257812 96.625 135.894531 92.253906 138.277344 86.953125 C 139.214844 84.871094 141.667969 83.941406 143.75 84.886719 C 145.835938 85.820312 146.765625 88.273438 145.820312 90.355469 C 143.128906 96.324219 140.113281 101.300781 136.613281 105.566406 C 134.222656 108.398438 132.050781 110.460938 129.734375 112.082031 C 126.757812 114.203125 123.625 115.535156 120.460938 116.03125 C 119.726562 116.179688 119.074219 116.210938 118.542969 116.242188 C 118.371094 116.25 118.1875 116.253906 118.015625 116.269531 L 117.695312 116.300781 Z M 117.695312 116.308594 " fill-opacity="1" fill-rule="nonzero"/><path fill="#050a44" d="M 143.472656 95.363281 C 143.421875 95.363281 143.367188 95.347656 143.316406 95.328125 L 135.976562 91.4375 C 135.8125 91.355469 135.753906 91.152344 135.84375 90.988281 C 135.933594 90.820312 136.136719 90.769531 136.292969 90.851562 L 143.628906 94.742188 C 143.796875 94.824219 143.855469 95.027344 143.765625 95.191406 C 143.707031 95.304688 143.59375 95.371094 143.472656 95.371094 Z M 143.472656 95.363281 " fill-opacity="1" fill-rule="nonzero"/><path fill="#050a44" d="M 138.007812 104.042969 C 137.941406 104.042969 137.867188 104.023438 137.804688 103.976562 L 131.171875 98.96875 C 131.023438 98.859375 131 98.65625 131.105469 98.503906 C 131.21875 98.363281 131.417969 98.324219 131.570312 98.4375 L 138.203125 103.445312 C 138.355469 103.558594 138.382812 103.761719 138.269531 103.910156 C 138.203125 103.992188 138.105469 104.042969 138.007812 104.042969 Z M 138.007812 104.042969 " fill-opacity="1" fill-rule="nonzero"/><path fill="#050a44" d="M 130.558594 111.742188 C 130.460938 111.742188 130.363281 111.699219 130.296875 111.617188 L 125.25 105.011719 C 125.136719 104.871094 125.167969 104.660156 125.3125 104.546875 C 125.453125 104.433594 125.65625 104.464844 125.773438 104.605469 L 130.820312 111.210938 C 130.933594 111.351562 130.902344 111.5625 130.761719 111.675781 C 130.699219 111.71875 130.632812 111.742188 130.558594 111.742188 Z M 130.558594 111.742188 " fill-opacity="1" fill-rule="nonzero"/><path fill="#050a44" d="M 119.890625 116.40625 C 119.726562 116.40625 119.582031 116.285156 119.5625 116.121094 L 118.464844 107.882812 C 118.445312 107.703125 118.570312 107.539062 118.75 107.507812 C 118.929688 107.484375 119.097656 107.613281 119.125 107.792969 L 120.222656 116.03125 C 120.242188 116.210938 120.117188 116.375 119.9375 116.40625 C 119.921875 116.40625 119.90625 116.40625 119.890625 116.40625 Z M 119.890625 116.40625 " fill-opacity="1" fill-rule="nonzero"/><path fill="#050a44" d="M 108.511719 114.710938 C 108.472656 114.710938 108.4375 114.710938 108.398438 114.6875 C 108.226562 114.628906 108.136719 114.433594 108.203125 114.261719 L 111.082031 106.464844 C 111.144531 106.292969 111.332031 106.203125 111.511719 106.269531 C 111.683594 106.332031 111.773438 106.527344 111.707031 106.699219 L 108.828125 114.492188 C 108.773438 114.628906 108.65625 114.710938 108.519531 114.710938 Z M 108.511719 114.710938 " fill-opacity="1" fill-rule="nonzero"/><path fill="#050a44" d="M 98.984375 109.210938 C 98.910156 109.210938 98.835938 109.1875 98.765625 109.132812 C 98.625 109.015625 98.609375 108.804688 98.730469 108.667969 L 104.097656 102.328125 C 104.21875 102.191406 104.425781 102.171875 104.5625 102.289062 C 104.703125 102.410156 104.71875 102.621094 104.597656 102.753906 L 99.230469 109.097656 C 99.164062 109.171875 99.074219 109.21875 98.976562 109.21875 Z M 98.984375 109.210938 " fill-opacity="1" fill-rule="nonzero"/><path fill="#050a44" d="M 91.945312 100.804688 C 91.832031 100.804688 91.722656 100.746094 91.660156 100.640625 C 91.570312 100.484375 91.625 100.28125 91.78125 100.191406 L 98.945312 95.988281 C 99.105469 95.898438 99.308594 95.949219 99.398438 96.105469 C 99.488281 96.265625 99.433594 96.464844 99.277344 96.554688 L 92.109375 100.761719 C 92.058594 100.792969 92 100.804688 91.945312 100.804688 Z M 91.945312 100.804688 " fill-opacity="1" fill-rule="nonzero"/><path fill="#050a44" d="M 85.066406 88.242188 L 97.921875 88.242188 C 99.808594 88.242188 101.339844 89.773438 101.339844 91.660156 L 101.339844 96.839844 C 101.339844 98.730469 99.808594 100.257812 97.921875 100.257812 L 85.066406 100.257812 C 83.175781 100.257812 81.644531 98.730469 81.644531 96.839844 L 81.644531 91.660156 C 81.644531 89.773438 83.175781 88.242188 85.066406 88.242188 Z M 85.066406 88.242188 " fill-opacity="1" fill-rule="nonzero"/><path fill="#050a44" d="M 157.394531 85.074219 C 156.703125 90.523438 151.71875 94.382812 146.269531 93.683594 C 140.820312 92.996094 136.960938 88.011719 137.65625 82.5625 C 138.347656 77.113281 143.332031 73.25 148.78125 73.949219 C 154.230469 74.636719 158.089844 79.621094 157.394531 85.074219 Z M 157.394531 85.074219 " fill-opacity="1" fill-rule="nonzero"/><path fill="#0a21c0" d="M 177.011719 132.6875 L 156.328125 130.0625 C 144.898438 128.609375 137.191406 118.21875 139.117188 106.847656 L 142.980469 84.058594 C 143.992188 78.109375 149.65625 73.894531 155.648438 74.652344 L 194.0625 79.53125 C 202.984375 80.664062 208.996094 88.773438 207.488281 97.644531 L 205.082031 111.832031 C 202.847656 125.035156 190.269531 134.375 177.003906 132.6875 Z M 177.011719 132.6875 " fill-opacity="1" fill-rule="nonzero"/><path fill="#050a44" d="M 181.289062 93.527344 L 156.097656 90.328125 C 155.273438 90.222656 154.71875 89.472656 154.851562 88.65625 C 154.996094 87.839844 155.773438 87.253906 156.597656 87.359375 L 181.792969 90.558594 C 182.617188 90.664062 183.171875 91.414062 183.039062 92.230469 C 182.894531 93.046875 182.117188 93.632812 181.289062 93.527344 Z M 181.289062 93.527344 " fill-opacity="1" fill-rule="nonzero"/><path fill="#050a44" d="M 180.097656 100.535156 L 154.90625 97.335938 C 154.082031 97.230469 153.527344 96.480469 153.660156 95.664062 C 153.804688 94.847656 154.582031 94.261719 155.40625 94.367188 L 180.601562 97.566406 C 181.425781 97.671875 181.980469 98.421875 181.84375 99.238281 C 181.703125 100.058594 180.921875 100.640625 180.097656 100.535156 Z M 180.097656 100.535156 " fill-opacity="1" fill-rule="nonzero"/><path fill="#050a44" d="M 178.914062 107.554688 L 153.71875 104.351562 C 152.894531 104.246094 152.339844 103.496094 152.476562 102.679688 C 152.617188 101.863281 153.398438 101.277344 154.222656 101.382812 L 179.417969 104.585938 C 180.242188 104.6875 180.796875 105.4375 180.660156 106.257812 C 180.519531 107.074219 179.738281 107.65625 178.914062 107.554688 Z M 178.914062 107.554688 " fill-opacity="1" fill-rule="nonzero"/><path fill="#050a44" d="M 178.710938 82.359375 C 176.066406 82.652344 173.351562 82.277344 170.570312 81.234375 C 168.699219 80.539062 167.582031 78.582031 167.835938 76.601562 L 169.019531 67.269531 L 183.578125 69.121094 L 182.378906 78.582031 C 182.128906 80.515625 180.644531 82.140625 178.710938 82.351562 Z M 178.710938 82.359375 " fill-opacity="1" fill-rule="nonzero"/><path fill="#050a44" d="M 162.039062 30.398438 L 178.710938 30.160156 C 179.136719 30.15625 179.550781 30.230469 179.945312 30.390625 C 180.34375 30.546875 180.695312 30.777344 181.003906 31.074219 C 181.308594 31.371094 181.546875 31.71875 181.714844 32.109375 C 181.886719 32.5 181.972656 32.910156 181.980469 33.339844 L 182.023438 36.398438 C 182.027344 36.824219 181.953125 37.238281 181.792969 37.632812 C 181.636719 38.03125 181.410156 38.382812 181.109375 38.691406 C 180.8125 38.996094 180.46875 39.234375 180.074219 39.402344 C 179.683594 39.570312 179.273438 39.660156 178.84375 39.664062 L 162.175781 39.902344 C 161.746094 39.90625 161.335938 39.832031 160.9375 39.671875 C 160.542969 39.515625 160.1875 39.289062 159.882812 38.988281 C 159.578125 38.691406 159.339844 38.347656 159.167969 37.953125 C 159 37.5625 158.914062 37.152344 158.90625 36.722656 L 158.863281 33.667969 C 158.859375 33.238281 158.933594 32.828125 159.089844 32.429688 C 159.25 32.03125 159.476562 31.679688 159.773438 31.375 C 160.074219 31.066406 160.417969 30.828125 160.8125 30.660156 C 161.203125 30.492188 161.613281 30.402344 162.039062 30.398438 Z M 162.039062 30.398438 " fill-opacity="1" fill-rule="nonzero"/><path fill="#0a21c0" d="M 204.699219 47.457031 L 204.910156 62.082031 C 205.015625 69.652344 198.953125 75.890625 191.359375 75.996094 L 156.832031 76.480469 C 149.679688 76.578125 143.742188 71.21875 142.984375 64.269531 C 142.933594 63.859375 142.902344 63.394531 142.894531 62.953125 L 142.6875 48.328125 C 142.6875 47.882812 142.703125 47.417969 142.738281 47.007812 C 143.300781 40.035156 149.082031 34.511719 156.238281 34.414062 L 190.765625 33.925781 C 198.359375 33.820312 204.597656 39.886719 204.707031 47.457031 Z M 204.699219 47.457031 " fill-opacity="1" fill-rule="nonzero"/><path fill="#050a44" d="M 188.6875 51.640625 L 188.785156 58.355469 C 188.871094 64.070312 184.296875 68.777344 178.578125 68.859375 L 151.9375 69.234375 C 148.152344 69.285156 144.800781 67.308594 142.980469 64.277344 C 142.925781 63.867188 142.894531 63.402344 142.890625 62.960938 L 142.679688 48.335938 C 142.679688 47.890625 142.695312 47.425781 142.730469 47.015625 C 144.46875 43.941406 147.761719 41.867188 151.546875 41.8125 L 178.1875 41.4375 C 183.898438 41.355469 188.605469 45.929688 188.6875 51.648438 Z M 188.6875 51.640625 " fill-opacity="1" fill-rule="nonzero"/><path fill="#e4e6ef" d="M 169.140625 60.3125 C 169.164062 62.074219 167.753906 63.527344 165.992188 63.550781 C 164.230469 63.574219 162.777344 62.164062 162.753906 60.402344 C 162.730469 58.640625 164.140625 57.1875 165.902344 57.164062 C 167.664062 57.140625 169.117188 58.550781 169.140625 60.3125 Z M 169.140625 60.3125 " fill-opacity="1" fill-rule="nonzero"/><path fill="#e4e6ef" d="M 159.5 64.292969 C 159.523438 66.054688 158.113281 67.507812 156.351562 67.53125 C 154.589844 67.554688 153.136719 66.144531 153.113281 64.382812 Z M 159.5 64.292969 " fill-opacity="1" fill-rule="nonzero"/><path fill="#e4e6ef" d="M 150.59375 60.574219 C 150.617188 62.335938 149.207031 63.792969 147.445312 63.8125 C 145.683594 63.835938 144.230469 62.425781 144.207031 60.664062 C 144.183594 58.902344 145.59375 57.449219 147.355469 57.425781 C 149.117188 57.40625 150.570312 58.8125 150.59375 60.574219 Z M 150.59375 60.574219 " fill-opacity="1" fill-rule="nonzero"/><path fill="#050a44" d="M 199.59375 46.332031 L 203.238281 46.28125 C 203.675781 46.273438 204.097656 46.351562 204.507812 46.515625 C 204.917969 46.679688 205.277344 46.914062 205.59375 47.21875 C 205.90625 47.523438 206.152344 47.878906 206.324219 48.285156 C 206.5 48.6875 206.589844 49.109375 206.597656 49.546875 L 206.742188 59.921875 C 206.75 60.359375 206.671875 60.785156 206.507812 61.191406 C 206.347656 61.601562 206.113281 61.960938 205.804688 62.277344 C 205.5 62.59375 205.144531 62.835938 204.742188 63.011719 C 204.335938 63.183594 203.917969 63.273438 203.476562 63.28125 L 199.835938 63.332031 C 199.394531 63.339844 198.972656 63.261719 198.5625 63.097656 C 198.15625 62.9375 197.792969 62.703125 197.476562 62.394531 C 197.164062 62.089844 196.917969 61.734375 196.746094 61.332031 C 196.570312 60.925781 196.480469 60.503906 196.472656 60.066406 L 196.328125 49.691406 C 196.320312 49.253906 196.398438 48.828125 196.5625 48.421875 C 196.722656 48.011719 196.957031 47.652344 197.265625 47.335938 C 197.570312 47.019531 197.925781 46.777344 198.328125 46.601562 C 198.734375 46.429688 199.15625 46.339844 199.59375 46.332031 Z M 199.59375 46.332031 " fill-opacity="1" fill-rule="nonzero"/><path fill="#e4e6ef" d="M 201.066406 49.738281 L 202.886719 49.710938 C 203.105469 49.710938 203.320312 49.75 203.523438 49.828125 C 203.726562 49.910156 203.90625 50.027344 204.066406 50.179688 C 204.222656 50.335938 204.34375 50.511719 204.433594 50.714844 C 204.519531 50.914062 204.5625 51.125 204.566406 51.34375 L 204.664062 58.171875 C 204.667969 58.394531 204.628906 58.605469 204.546875 58.808594 C 204.464844 59.011719 204.347656 59.195312 204.195312 59.351562 C 204.042969 59.507812 203.863281 59.632812 203.664062 59.71875 C 203.460938 59.804688 203.25 59.851562 203.03125 59.855469 L 201.210938 59.878906 C 200.988281 59.882812 200.777344 59.84375 200.574219 59.761719 C 200.371094 59.679688 200.1875 59.5625 200.03125 59.410156 C 199.875 59.257812 199.75 59.082031 199.664062 58.878906 C 199.578125 58.675781 199.53125 58.464844 199.53125 58.246094 L 199.433594 51.417969 C 199.429688 51.199219 199.46875 50.988281 199.550781 50.78125 C 199.632812 50.578125 199.75 50.398438 199.902344 50.238281 C 200.054688 50.082031 200.230469 49.960938 200.433594 49.875 C 200.636719 49.785156 200.847656 49.742188 201.066406 49.738281 Z M 201.066406 49.738281 " fill-opacity="1" fill-rule="nonzero"/><path fill="#050a44" d="M 170.652344 32.480469 C 170.363281 32.480469 170.085938 32.324219 169.933594 32.066406 L 163.863281 21.542969 C 163.636719 21.144531 163.773438 20.644531 164.167969 20.410156 C 164.566406 20.179688 165.070312 20.320312 165.300781 20.710938 L 170.625 29.9375 L 175.59375 20.570312 C 175.8125 20.164062 176.304688 20.015625 176.710938 20.222656 C 177.117188 20.441406 177.265625 20.9375 177.054688 21.339844 L 171.386719 32.03125 C 171.246094 32.292969 170.976562 32.464844 170.667969 32.472656 L 170.652344 32.472656 Z M 170.652344 32.480469 " fill-opacity="1" fill-rule="nonzero"/><path fill="#050a44" d="M 212.257812 84.832031 C 212.664062 85.34375 213.019531 85.886719 213.324219 86.464844 C 213.625 87.046875 213.867188 87.648438 214.050781 88.277344 C 214.230469 88.902344 214.351562 89.542969 214.410156 90.191406 C 214.464844 90.84375 214.460938 91.492188 214.386719 92.140625 C 214.316406 92.792969 214.183594 93.425781 213.988281 94.050781 C 213.789062 94.671875 213.535156 95.269531 213.222656 95.84375 C 212.90625 96.417969 212.539062 96.953125 212.121094 97.453125 C 211.703125 97.953125 211.238281 98.410156 210.726562 98.816406 C 210.21875 99.226562 209.671875 99.582031 209.09375 99.882812 C 208.515625 100.183594 207.910156 100.425781 207.285156 100.609375 C 206.65625 100.792969 206.019531 100.914062 205.367188 100.96875 C 204.71875 101.027344 204.066406 101.019531 203.417969 100.949219 C 202.769531 100.878906 202.132812 100.746094 201.511719 100.546875 C 200.886719 100.351562 200.289062 100.097656 199.71875 99.78125 C 199.144531 99.46875 198.609375 99.101562 198.105469 98.683594 C 197.605469 98.261719 197.152344 97.796875 196.742188 97.289062 C 196.335938 96.777344 195.980469 96.234375 195.675781 95.65625 C 195.375 95.078125 195.132812 94.472656 194.949219 93.847656 C 194.769531 93.21875 194.648438 92.582031 194.589844 91.929688 C 194.535156 91.277344 194.539062 90.628906 194.613281 89.980469 C 194.683594 89.332031 194.816406 88.695312 195.011719 88.070312 C 195.207031 87.449219 195.464844 86.851562 195.777344 86.277344 C 196.09375 85.707031 196.457031 85.167969 196.878906 84.667969 C 197.296875 84.167969 197.761719 83.714844 198.273438 83.304688 C 198.78125 82.894531 199.324219 82.539062 199.90625 82.238281 C 200.484375 81.9375 201.085938 81.695312 201.714844 81.511719 C 202.339844 81.328125 202.980469 81.207031 203.632812 81.152344 C 204.28125 81.09375 204.933594 81.101562 205.582031 81.171875 C 206.230469 81.242188 206.867188 81.378906 207.488281 81.574219 C 208.113281 81.769531 208.710938 82.023438 209.28125 82.339844 C 209.855469 82.652344 210.390625 83.019531 210.890625 83.441406 C 211.394531 83.859375 211.847656 84.324219 212.257812 84.832031 Z M 212.257812 84.832031 " fill-opacity="1" fill-rule="nonzero"/><path fill="#050a44" d="M 156.636719 76.8125 C 154.378906 76.8125 152.144531 76.273438 150.160156 75.238281 C 149.996094 75.15625 149.933594 74.953125 150.015625 74.789062 C 150.101562 74.621094 150.300781 74.5625 150.46875 74.644531 C 152.421875 75.65625 154.621094 76.191406 156.832031 76.144531 L 167.941406 75.988281 C 168.105469 75.988281 168.269531 76.128906 168.277344 76.316406 C 168.277344 76.496094 168.136719 76.648438 167.949219 76.652344 L 156.839844 76.8125 C 156.769531 76.8125 156.703125 76.8125 156.636719 76.8125 Z M 156.636719 76.8125 " fill-opacity="1" fill-rule="nonzero"/><g clip-path="url(#5b9da7847f)"><path fill="#e4e6ef" d="M 188.960938 198.515625 L 30.554688 198.515625 C 30.554688 198.515625 30.492188 101.457031 30.492188 101.457031 C 30.492188 98.445312 32.9375 96 35.949219 96 L 57.585938 96 C 57.585938 96 183.464844 95.875 183.464844 95.875 C 184.972656 95.875 186.304688 96.480469 187.308594 97.484375 C 188.292969 98.46875 188.898438 99.824219 188.898438 101.332031 L 188.898438 111.03125 C 188.898438 111.03125 188.960938 198.515625 188.960938 198.515625 Z M 188.960938 198.515625 " fill-opacity="1" fill-rule="nonzero"/></g><g clip-path="url(#7b643863d8)"><path fill="#050a44" d="M 30.554688 198.847656 C 30.375 198.847656 30.222656 198.695312 30.222656 198.515625 L 30.164062 101.457031 C 30.164062 98.265625 32.757812 95.671875 35.949219 95.671875 L 57.585938 95.671875 L 183.464844 95.542969 C 184.992188 95.542969 186.441406 96.152344 187.542969 97.253906 C 188.628906 98.339844 189.230469 99.785156 189.230469 101.332031 L 189.230469 111.03125 L 189.296875 198.515625 C 189.296875 198.605469 189.257812 198.6875 189.199219 198.75 C 189.140625 198.808594 189.050781 198.847656 188.964844 198.847656 Z M 35.941406 96.332031 C 33.117188 96.332031 30.824219 98.632812 30.824219 101.449219 L 30.882812 198.179688 L 188.628906 198.179688 C 188.628906 198.179688 188.5625 101.324219 188.5625 101.324219 C 188.5625 99.960938 188.03125 98.675781 187.070312 97.710938 C 186.09375 96.734375 184.8125 96.195312 183.457031 96.195312 L 57.578125 96.324219 L 35.941406 96.324219 Z M 35.941406 96.332031 " fill-opacity="1" fill-rule="nonzero"/></g><path fill="#050a44" d="M 30.5 111.496094 C 30.410156 111.496094 30.328125 111.457031 30.269531 111.398438 C 30.207031 111.339844 30.171875 111.25 30.171875 111.164062 L 30.171875 101.457031 C 30.171875 99.914062 30.761719 98.460938 31.859375 97.367188 C 32.953125 96.269531 34.398438 95.671875 35.941406 95.671875 L 183.449219 95.542969 C 186.636719 95.542969 189.230469 98.136719 189.230469 101.324219 L 189.230469 111.03125 C 189.230469 111.210938 189.085938 111.359375 188.898438 111.359375 L 30.484375 111.496094 Z M 183.457031 96.210938 L 35.949219 96.339844 C 34.585938 96.339844 33.296875 96.871094 32.332031 97.839844 C 31.363281 98.804688 30.832031 100.09375 30.832031 101.457031 L 30.832031 110.835938 C 30.832031 110.835938 188.585938 110.707031 188.585938 110.707031 L 188.585938 101.332031 C 188.585938 98.503906 186.28125 96.210938 183.457031 96.210938 Z M 183.457031 96.210938 " fill-opacity="1" fill-rule="nonzero"/><path fill="#0a21c0" d="M 161.644531 103.558594 C 161.644531 105.167969 160.339844 106.472656 158.726562 106.480469 C 157.109375 106.480469 155.804688 105.175781 155.804688 103.566406 C 155.804688 101.953125 157.109375 100.640625 158.726562 100.640625 C 160.339844 100.640625 161.644531 101.945312 161.644531 103.558594 Z M 161.644531 103.558594 " fill-opacity="1" fill-rule="nonzero"/><path fill="#0a21c0" d="M 172.019531 103.550781 C 172.019531 105.160156 170.714844 106.464844 169.101562 106.472656 C 167.492188 106.472656 166.1875 105.167969 166.1875 103.558594 C 166.1875 101.945312 167.484375 100.632812 169.101562 100.632812 C 170.714844 100.632812 172.027344 101.9375 172.027344 103.550781 Z M 172.019531 103.550781 " fill-opacity="1" fill-rule="nonzero"/><path fill="#050a44" d="M 169.09375 106.804688 C 167.304688 106.804688 165.847656 105.347656 165.847656 103.558594 C 165.847656 101.765625 167.304688 100.304688 169.09375 100.304688 C 169.964844 100.304688 170.773438 100.640625 171.386719 101.257812 C 172.003906 101.871094 172.339844 102.6875 172.339844 103.558594 C 172.339844 104.425781 172.003906 105.242188 171.386719 105.859375 C 170.773438 106.472656 169.957031 106.8125 169.085938 106.8125 Z M 169.09375 100.964844 C 167.671875 100.964844 166.515625 102.125 166.515625 103.550781 C 166.515625 104.972656 167.679688 106.136719 169.101562 106.136719 C 169.792969 106.136719 170.445312 105.867188 170.929688 105.378906 C 171.417969 104.890625 171.6875 104.238281 171.6875 103.550781 C 171.6875 102.859375 171.417969 102.207031 170.929688 101.722656 C 170.445312 101.234375 169.792969 100.964844 169.101562 100.964844 Z M 172.347656 103.550781 L 172.355469 103.550781 Z M 172.347656 103.550781 " fill-opacity="1" fill-rule="nonzero"/><path fill="#050a44" d="M 179.09375 106.796875 C 177.304688 106.796875 175.839844 105.339844 175.832031 103.550781 C 175.832031 101.757812 177.296875 100.296875 179.085938 100.296875 C 179.957031 100.296875 180.765625 100.632812 181.378906 101.25 C 181.996094 101.863281 182.324219 102.679688 182.324219 103.550781 C 182.324219 104.417969 181.988281 105.238281 181.378906 105.851562 C 180.773438 106.464844 179.957031 106.804688 179.085938 106.804688 Z M 179.09375 100.957031 C 177.664062 100.957031 176.5 102.117188 176.5 103.550781 C 176.5 104.972656 177.664062 106.136719 179.09375 106.136719 C 179.785156 106.136719 180.4375 105.867188 180.914062 105.378906 C 181.402344 104.890625 181.664062 104.238281 181.664062 103.550781 C 181.664062 102.859375 181.394531 102.207031 180.914062 101.722656 C 180.429688 101.234375 179.785156 100.964844 179.09375 100.964844 Z M 182.339844 103.550781 L 182.347656 103.550781 Z M 182.339844 103.550781 " fill-opacity="1" fill-rule="nonzero"/><path fill="#e4e6ef" d="M 77.75 88.460938 C 76.585938 89.039062 75.761719 89.839844 75.222656 90.738281 C 74.636719 91.699219 74.375 92.777344 74.351562 93.84375 C 74.324219 95.273438 74.734375 96.683594 75.425781 97.746094 C 77.097656 100.355469 79.511719 98.699219 79.511719 98.699219 C 81.511719 101.78125 84.882812 99.230469 84.882812 99.230469 C 87.449219 101.765625 90.664062 99.457031 90.664062 99.457031 C 91.96875 101.03125 96.324219 100.265625 96.714844 95.695312 C 96.804688 94.660156 96.78125 93.640625 96.660156 92.679688 C 96.488281 91.226562 96.097656 89.90625 95.523438 88.851562 C 95.410156 88.632812 95.28125 88.429688 95.152344 88.242188 C 94.480469 87.230469 93.601562 86.550781 92.589844 86.355469 C 92.589844 86.355469 86.40625 84.136719 77.757812 88.46875 Z M 77.75 88.460938 " fill-opacity="1" fill-rule="nonzero"/><path fill="#050a44" d="M 87.652344 100.738281 C 86.742188 100.738281 85.753906 100.46875 84.839844 99.652344 C 84.308594 99.996094 82.929688 100.746094 81.503906 100.5 C 80.671875 100.355469 79.96875 99.890625 79.398438 99.136719 C 78.976562 99.351562 78.152344 99.675781 77.214844 99.496094 C 76.390625 99.328125 75.695312 98.804688 75.132812 97.929688 C 74.390625 96.773438 73.984375 95.28125 74.007812 93.835938 C 74.03125 92.652344 74.351562 91.519531 74.929688 90.574219 C 75.542969 89.554688 76.445312 88.746094 77.589844 88.175781 C 86.269531 83.828125 92.433594 85.949219 92.6875 86.046875 C 93.707031 86.234375 94.667969 86.9375 95.417969 88.0625 C 95.550781 88.257812 95.679688 88.476562 95.800781 88.699219 C 96.390625 89.789062 96.796875 91.152344 96.96875 92.644531 C 97.09375 93.632812 97.109375 94.667969 97.019531 95.722656 C 96.824219 98.03125 95.589844 99.765625 93.707031 100.347656 C 92.515625 100.714844 91.308594 100.527344 90.589844 99.882812 C 90.109375 100.167969 88.960938 100.746094 87.644531 100.746094 Z M 84.871094 98.894531 C 84.953125 98.894531 85.042969 98.925781 85.101562 98.992188 C 87.433594 101.300781 90.335938 99.269531 90.453125 99.1875 C 90.597656 99.089844 90.792969 99.113281 90.902344 99.246094 C 91.398438 99.847656 92.476562 100.042969 93.511719 99.710938 C 95.125 99.210938 96.195312 97.695312 96.367188 95.664062 C 96.449219 94.660156 96.4375 93.664062 96.316406 92.71875 C 96.152344 91.308594 95.769531 90.027344 95.214844 89.007812 C 95.101562 88.804688 94.988281 88.609375 94.863281 88.429688 C 94.210938 87.457031 93.398438 86.847656 92.507812 86.683594 C 92.394531 86.644531 86.292969 84.554688 77.882812 88.769531 C 76.847656 89.285156 76.039062 90.011719 75.492188 90.917969 C 74.976562 91.773438 74.691406 92.785156 74.667969 93.859375 C 74.636719 95.175781 75.011719 96.535156 75.6875 97.574219 C 76.144531 98.289062 76.699219 98.714844 77.335938 98.851562 C 78.363281 99.058594 79.292969 98.4375 79.300781 98.429688 C 79.375 98.378906 79.464844 98.363281 79.554688 98.378906 C 79.644531 98.394531 79.71875 98.445312 79.765625 98.519531 C 80.253906 99.269531 80.875 99.71875 81.609375 99.847656 C 83.117188 100.109375 84.652344 98.976562 84.667969 98.960938 C 84.726562 98.917969 84.792969 98.894531 84.871094 98.894531 Z M 77.742188 88.460938 L 77.75 88.460938 Z M 77.742188 88.460938 " fill-opacity="1" fill-rule="nonzero"/><path fill="#050a44" d="M 90.714844 99.546875 C 90.714844 99.546875 90.671875 99.546875 90.648438 99.546875 C 90.46875 99.507812 90.355469 99.335938 90.386719 99.15625 C 90.394531 99.121094 91.175781 95.058594 89.96875 91.070312 C 89.914062 90.898438 90.011719 90.710938 90.183594 90.65625 C 90.363281 90.605469 90.542969 90.703125 90.597656 90.875 C 91.855469 95.019531 91.070312 99.113281 91.03125 99.285156 C 91 99.441406 90.859375 99.554688 90.710938 99.554688 Z M 90.714844 99.546875 " fill-opacity="1" fill-rule="nonzero"/><path fill="#050a44" d="M 84.929688 99.53125 C 84.929688 99.53125 84.90625 99.53125 84.890625 99.53125 C 84.710938 99.515625 84.578125 99.351562 84.601562 99.171875 C 84.601562 99.136719 84.976562 95.402344 83.753906 91.644531 C 83.699219 91.472656 83.789062 91.285156 83.960938 91.226562 C 84.136719 91.175781 84.324219 91.265625 84.382812 91.4375 C 85.648438 95.328125 85.273438 99.074219 85.257812 99.230469 C 85.246094 99.40625 85.101562 99.53125 84.929688 99.53125 Z M 84.929688 99.53125 " fill-opacity="1" fill-rule="nonzero"/><path fill="#050a44" d="M 79.332031 99.203125 C 79.332031 99.203125 79.300781 99.203125 79.292969 99.203125 C 79.113281 99.179688 78.984375 99.015625 79.007812 98.835938 C 79.007812 98.804688 79.375 95.710938 78.386719 92.605469 C 78.332031 92.433594 78.421875 92.246094 78.601562 92.1875 C 78.78125 92.125 78.960938 92.222656 79.023438 92.402344 C 80.066406 95.640625 79.691406 98.78125 79.675781 98.910156 C 79.652344 99.074219 79.511719 99.203125 79.34375 99.203125 Z M 79.332031 99.203125 " fill-opacity="1" fill-rule="nonzero"/><path fill="#e4e6ef" d="M 45.949219 120.445312 L 97.785156 120.445312 L 97.785156 152.425781 L 45.949219 152.425781 Z M 45.949219 120.445312 " fill-opacity="1" fill-rule="nonzero"/><path fill="#050a44" d="M 45.949219 152.753906 C 45.769531 152.753906 45.621094 152.605469 45.621094 152.425781 L 45.621094 120.445312 C 45.621094 120.355469 45.652344 120.273438 45.710938 120.214844 C 45.769531 120.152344 45.859375 120.117188 45.941406 120.117188 L 97.777344 120.101562 C 97.867188 120.101562 97.949219 120.136719 98.011719 120.199219 C 98.070312 120.257812 98.109375 120.347656 98.109375 120.429688 L 98.109375 152.410156 C 98.109375 152.589844 97.964844 152.738281 97.785156 152.738281 Z M 46.273438 120.785156 L 46.273438 152.09375 C 46.273438 152.09375 97.457031 152.078125 97.457031 152.078125 L 97.457031 120.769531 C 97.457031 120.769531 46.273438 120.785156 46.273438 120.785156 Z M 46.273438 120.785156 " fill-opacity="1" fill-rule="nonzero"/><path fill="#0a21c0" d="M 49.511719 123.429688 L 94.21875 123.429688 L 94.21875 149.441406 L 49.511719 149.441406 Z M 49.511719 123.429688 " fill-opacity="1" fill-rule="nonzero"/><path fill="#e4e6ef" d="M 77.359375 132.71875 L 70.679688 141.570312 C 69.660156 142.925781 67.515625 142.925781 66.496094 141.570312 L 63.09375 137.070312 C 62.066406 135.714844 59.929688 135.714844 58.910156 137.070312 L 49.570312 149.441406 L 64.734375 149.441406 C 64.734375 149.441406 72.441406 149.441406 72.441406 149.441406 L 94.179688 149.441406 C 94.179688 149.441406 81.550781 132.71875 81.550781 132.71875 C 80.523438 131.359375 78.386719 131.359375 77.367188 132.71875 Z M 77.359375 132.71875 " fill-opacity="1" fill-rule="nonzero"/><path fill="#e4e6ef" d="M 70.566406 130.96875 C 70.566406 132.484375 69.324219 133.707031 67.792969 133.707031 C 66.257812 133.707031 65.011719 132.484375 65.011719 130.96875 C 65.011719 129.457031 66.257812 128.234375 67.785156 128.234375 C 69.316406 128.234375 70.566406 129.457031 70.566406 130.96875 Z M 70.566406 130.96875 " fill-opacity="1" fill-rule="nonzero"/><path fill="#0a21c0" d="M 75.140625 167.777344 L 87.574219 167.777344 L 87.574219 170.070312 L 75.140625 170.070312 Z M 75.140625 167.777344 " fill-opacity="1" fill-rule="nonzero"/><path fill="#0a21c0" d="M 75.140625 172.414062 L 98.941406 172.414062 L 98.941406 174.710938 L 75.140625 174.710938 Z M 75.140625 172.414062 " fill-opacity="1" fill-rule="nonzero"/><path fill="#050a44" d="M 75.140625 177.0625 L 97.507812 177.0625 L 97.507812 179.355469 L 75.140625 179.355469 Z M 75.140625 177.0625 " fill-opacity="1" fill-rule="nonzero"/><path fill="#050a44" d="M 75.140625 181.703125 L 90.820312 181.703125 L 90.820312 183.996094 L 75.140625 183.996094 Z M 75.140625 181.703125 " fill-opacity="1" fill-rule="nonzero"/><path fill="#e4e6ef" d="M 75.574219 186.34375 L 83.289062 186.34375 L 83.289062 188.636719 L 75.574219 188.636719 Z M 75.574219 186.34375 " fill-opacity="1" fill-rule="nonzero"/><path fill="#050a44" d="M 83.289062 188.96875 L 75.574219 188.96875 C 75.394531 188.96875 75.246094 188.816406 75.246094 188.636719 L 75.246094 186.34375 C 75.246094 186.164062 75.394531 186.011719 75.574219 186.011719 L 83.289062 186.011719 C 83.46875 186.011719 83.617188 186.164062 83.617188 186.34375 L 83.617188 188.636719 C 83.617188 188.816406 83.46875 188.96875 83.289062 188.96875 Z M 75.90625 188.308594 L 82.957031 188.308594 L 82.957031 186.671875 L 75.90625 186.671875 Z M 75.90625 188.308594 " fill-opacity="1" fill-rule="nonzero"/><path fill="#0a21c0" d="M 47.230469 178.203125 C 47.230469 184.769531 52.398438 190.113281 58.882812 190.449219 L 58.882812 187.992188 C 53.730469 187.664062 49.652344 183.425781 49.652344 178.203125 C 49.652344 172.976562 53.730469 168.742188 58.882812 168.414062 L 58.882812 165.960938 C 52.398438 166.300781 47.230469 171.644531 47.230469 178.203125 Z M 47.230469 178.203125 " fill-opacity="1" fill-rule="nonzero"/><path fill="#e4e6ef" d="M 67.53125 168.929688 C 65.484375 167.160156 62.855469 166.058594 59.953125 165.953125 L 59.953125 168.390625 C 62.179688 168.496094 64.1875 169.335938 65.785156 170.667969 L 67.523438 168.929688 Z M 67.53125 168.929688 " fill-opacity="1" fill-rule="nonzero"/><path fill="#050a44" d="M 65.792969 171 C 65.71875 171 65.640625 170.976562 65.582031 170.925781 C 63.976562 169.582031 62.03125 168.824219 59.945312 168.726562 C 59.765625 168.71875 59.628906 168.570312 59.628906 168.398438 L 59.628906 165.960938 C 59.628906 165.871094 59.667969 165.78125 59.734375 165.722656 C 59.804688 165.660156 59.878906 165.617188 59.976562 165.632812 C 62.867188 165.738281 65.558594 166.792969 67.757812 168.691406 C 67.824219 168.75 67.867188 168.839844 67.867188 168.929688 C 67.867188 169.019531 67.839844 169.109375 67.769531 169.175781 L 66.03125 170.917969 C 65.964844 170.984375 65.882812 171.015625 65.800781 171.015625 Z M 60.289062 168.082031 C 62.300781 168.242188 64.179688 168.976562 65.769531 170.226562 L 67.042969 168.953125 C 65.101562 167.371094 62.785156 166.464844 60.289062 166.304688 Z M 60.289062 168.082031 " fill-opacity="1" fill-rule="nonzero"/><path fill="#050a44" d="M 68.320312 169.664062 L 66.601562 171.382812 C 68.3125 173.148438 69.367188 175.542969 69.367188 178.203125 C 69.367188 183.496094 65.183594 187.773438 59.960938 188.015625 L 59.960938 190.449219 C 66.527344 190.21875 71.789062 184.828125 71.789062 178.195312 C 71.789062 174.875 70.460938 171.859375 68.320312 169.65625 Z M 68.320312 169.664062 " fill-opacity="1" fill-rule="nonzero"/><path fill="#e4e6ef" d="M 113.894531 156.597656 L 173.863281 156.597656 L 173.863281 193.785156 L 113.894531 193.785156 Z M 113.894531 156.597656 " fill-opacity="1" fill-rule="nonzero"/><path fill="#0a21c0" d="M 143.878906 180.535156 C 139.785156 180.535156 136.449219 177.207031 136.449219 173.105469 C 136.449219 169.003906 139.777344 165.683594 143.878906 165.683594 C 147.980469 165.683594 151.300781 169.011719 151.300781 173.105469 C 151.300781 177.199219 147.972656 180.535156 143.878906 180.535156 Z M 143.878906 180.535156 " fill-opacity="1" fill-rule="nonzero"/><path fill="#050a44" d="M 142.679688 176.035156 C 142.542969 176.035156 142.402344 176 142.28125 175.921875 C 142.035156 175.78125 141.882812 175.519531 141.882812 175.234375 L 141.882812 170.976562 C 141.882812 170.683594 142.035156 170.429688 142.28125 170.28125 C 142.535156 170.136719 142.828125 170.136719 143.082031 170.28125 L 146.765625 172.40625 C 147.011719 172.550781 147.160156 172.8125 147.160156 173.097656 C 147.160156 173.382812 147.011719 173.644531 146.765625 173.796875 L 143.082031 175.921875 C 142.957031 176 142.820312 176.035156 142.6875 176.035156 Z M 142.679688 170.839844 C 142.679688 170.839844 142.625 170.855469 142.613281 170.863281 C 142.589844 170.878906 142.542969 170.917969 142.542969 170.984375 L 142.542969 175.242188 C 142.542969 175.308594 142.589844 175.347656 142.613281 175.363281 C 142.632812 175.375 142.6875 175.398438 142.753906 175.363281 L 146.433594 173.234375 C 146.496094 173.195312 146.5 173.144531 146.5 173.113281 C 146.5 173.082031 146.496094 173.03125 146.433594 172.992188 L 142.753906 170.863281 C 142.753906 170.863281 142.707031 170.839844 142.6875 170.839844 Z M 142.679688 170.839844 " fill-opacity="1" fill-rule="nonzero"/><path fill="#0a21c0" d="M 113.894531 188.585938 L 173.871094 188.585938 L 173.871094 193.777344 L 113.894531 193.777344 Z M 113.894531 188.585938 " fill-opacity="1" fill-rule="nonzero"/><path fill="#e4e6ef" d="M 116.699219 190.339844 L 117.917969 191.042969 C 118.039062 191.109375 118.039062 191.289062 117.917969 191.359375 L 116.699219 192.0625 C 116.578125 192.128906 116.421875 192.046875 116.421875 191.90625 L 116.421875 190.496094 C 116.421875 190.355469 116.570312 190.261719 116.699219 190.339844 Z M 116.699219 190.339844 " fill-opacity="1" fill-rule="nonzero"/><path fill="#e4e6ef" d="M 170.820312 191.464844 L 119.375 191.464844 C 119.230469 191.464844 119.113281 191.34375 119.113281 191.199219 C 119.113281 191.058594 119.230469 190.9375 119.375 190.9375 L 170.820312 190.9375 C 170.960938 190.9375 171.082031 191.058594 171.082031 191.199219 C 171.082031 191.34375 170.960938 191.464844 170.820312 191.464844 Z M 170.820312 191.464844 " fill-opacity="1" fill-rule="nonzero"/><path fill="#050a44" d="M 113.894531 194.117188 C 113.804688 194.117188 113.722656 194.078125 113.660156 194.019531 C 113.601562 193.960938 113.5625 193.871094 113.5625 193.785156 L 113.5625 156.605469 C 113.5625 156.425781 113.714844 156.277344 113.894531 156.277344 L 173.863281 156.277344 C 174.042969 156.277344 174.191406 156.425781 174.191406 156.605469 L 174.191406 193.785156 C 174.191406 193.875 174.15625 193.960938 174.09375 194.019531 C 174.035156 194.078125 173.945312 194.117188 173.863281 194.117188 Z M 114.222656 193.449219 L 173.53125 193.449219 L 173.53125 156.929688 L 114.222656 156.929688 Z M 114.222656 193.449219 " fill-opacity="1" fill-rule="nonzero"/><path fill="#050a44" d="M 118.855469 133.519531 L 108.707031 133.519531 C 108.527344 133.519531 108.378906 133.367188 108.378906 133.1875 C 108.378906 133.007812 108.527344 132.859375 108.707031 132.859375 L 118.855469 132.859375 C 119.035156 132.859375 119.1875 133.007812 119.1875 133.1875 C 119.1875 133.367188 119.035156 133.519531 118.855469 133.519531 Z M 118.855469 133.519531 " fill-opacity="1" fill-rule="nonzero"/><path fill="#050a44" d="M 173.5625 133.519531 L 125.078125 133.519531 C 124.898438 133.519531 124.75 133.367188 124.75 133.1875 C 124.75 133.007812 124.898438 132.859375 125.078125 132.859375 L 173.5625 132.859375 C 173.742188 132.859375 173.890625 133.007812 173.890625 133.1875 C 173.890625 133.367188 173.742188 133.519531 173.5625 133.519531 Z M 173.5625 133.519531 " fill-opacity="1" fill-rule="nonzero"/><path fill="#050a44" d="M 161.066406 127.410156 L 108.707031 127.410156 C 108.527344 127.410156 108.378906 127.261719 108.378906 127.078125 C 108.378906 126.898438 108.527344 126.75 108.707031 126.75 L 161.066406 126.75 C 161.246094 126.75 161.394531 126.898438 161.394531 127.078125 C 161.394531 127.261719 161.246094 127.410156 161.066406 127.410156 Z M 161.066406 127.410156 " fill-opacity="1" fill-rule="nonzero"/><path fill="#050a44" d="M 173.5625 127.410156 L 166.757812 127.410156 C 166.574219 127.410156 166.425781 127.261719 166.425781 127.078125 C 166.425781 126.898438 166.574219 126.75 166.757812 126.75 L 173.5625 126.75 C 173.742188 126.75 173.890625 126.898438 173.890625 127.078125 C 173.890625 127.261719 173.742188 127.410156 173.5625 127.410156 Z M 173.5625 127.410156 " fill-opacity="1" fill-rule="nonzero"/><path fill="#050a44" d="M 142.527344 121.300781 L 108.707031 121.300781 C 108.527344 121.300781 108.378906 121.152344 108.378906 120.96875 C 108.378906 120.789062 108.527344 120.640625 108.707031 120.640625 L 142.527344 120.640625 C 142.707031 120.640625 142.859375 120.789062 142.859375 120.96875 C 142.859375 121.152344 142.707031 121.300781 142.527344 121.300781 Z M 142.527344 121.300781 " fill-opacity="1" fill-rule="nonzero"/><path fill="#050a44" d="M 173.5625 121.300781 L 148.21875 121.300781 C 148.039062 121.300781 147.886719 121.152344 147.886719 120.96875 C 147.886719 120.789062 148.039062 120.640625 148.21875 120.640625 L 173.5625 120.640625 C 173.742188 120.640625 173.890625 120.789062 173.890625 120.96875 C 173.890625 121.152344 173.742188 121.300781 173.5625 121.300781 Z M 173.5625 121.300781 " fill-opacity="1" fill-rule="nonzero"/><path fill="#050a44" d="M 142.527344 139.800781 L 108.707031 139.800781 C 108.527344 139.800781 108.378906 139.652344 108.378906 139.472656 C 108.378906 139.289062 108.527344 139.140625 108.707031 139.140625 L 142.527344 139.140625 C 142.707031 139.140625 142.859375 139.289062 142.859375 139.472656 C 142.859375 139.652344 142.707031 139.800781 142.527344 139.800781 Z M 142.527344 139.800781 " fill-opacity="1" fill-rule="nonzero"/><path fill="#050a44" d="M 173.5625 139.800781 L 148.21875 139.800781 C 148.039062 139.800781 147.886719 139.652344 147.886719 139.472656 C 147.886719 139.289062 148.039062 139.140625 148.21875 139.140625 L 173.5625 139.140625 C 173.742188 139.140625 173.890625 139.289062 173.890625 139.472656 C 173.890625 139.652344 173.742188 139.800781 173.5625 139.800781 Z M 173.5625 139.800781 " fill-opacity="1" fill-rule="nonzero"/><path fill="#e4e6ef" d="M 161.710938 170.691406 C 162.347656 172.671875 165.535156 171.777344 165.683594 171.742188 C 165.601562 171.800781 164.34375 172.648438 164.523438 173.710938 C 164.710938 174.808594 165.78125 175.054688 166.726562 174.933594 C 167.664062 174.808594 173.058594 174.035156 173.871094 173.953125 L 174.101562 176.34375 C 174.101562 176.34375 180.089844 176.710938 189.703125 174.933594 L 188.328125 161.148438 C 188.328125 161.148438 183.710938 161.222656 181.859375 159.214844 C 180.054688 157.25 178.515625 156.320312 175.023438 156.023438 C 171.53125 155.722656 165.675781 155.894531 163.75 155.878906 C 159.597656 155.828125 160.09375 158.667969 162.835938 159.378906 C 165.578125 160.09375 169.722656 160.886719 169.722656 160.886719 C 169.722656 160.886719 164.90625 162.789062 162.941406 163.527344 C 159.386719 164.851562 160.839844 168.457031 164.3125 167.796875 C 164.3125 167.796875 161.066406 168.675781 161.71875 170.707031 Z M 161.710938 170.691406 " fill-opacity="1" fill-rule="nonzero"/><path fill="#050a44" d="M 175.519531 176.703125 C 174.589844 176.703125 174.09375 176.671875 174.078125 176.671875 C 173.914062 176.664062 173.789062 176.539062 173.773438 176.375 L 173.570312 174.3125 C 172.664062 174.425781 170.511719 174.730469 168.878906 174.957031 C 167.894531 175.097656 167.078125 175.210938 166.761719 175.25 C 165.371094 175.4375 164.371094 174.84375 164.183594 173.757812 C 164.085938 173.171875 164.328125 172.664062 164.632812 172.257812 C 163.503906 172.378906 161.867188 172.257812 161.390625 170.78125 C 161.214844 170.25 161.261719 169.730469 161.515625 169.253906 C 161.777344 168.765625 162.234375 168.382812 162.699219 168.105469 C 161.582031 167.875 160.839844 167.152344 160.617188 166.34375 C 160.347656 165.371094 160.75 163.953125 162.804688 163.1875 C 164.183594 162.679688 166.996094 161.570312 168.53125 160.960938 C 167.109375 160.675781 164.589844 160.152344 162.730469 159.671875 C 161.222656 159.28125 160.226562 158.242188 160.371094 157.199219 C 160.421875 156.800781 160.820312 155.519531 163.621094 155.519531 C 163.765625 155.519531 163.914062 155.519531 164.078125 155.519531 C 164.542969 155.519531 165.152344 155.519531 165.855469 155.503906 C 168.464844 155.476562 172.414062 155.4375 175.03125 155.660156 C 178.710938 155.976562 180.292969 157.019531 182.085938 158.960938 C 183.824219 160.84375 188.269531 160.789062 188.308594 160.789062 C 188.480469 160.789062 188.621094 160.917969 188.636719 161.089844 L 190.007812 174.875 C 190.023438 175.046875 189.910156 175.203125 189.738281 175.234375 C 182.902344 176.5 177.84375 176.679688 175.503906 176.679688 Z M 174.402344 176.019531 C 175.675781 176.066406 181.199219 176.132812 189.339844 174.65625 L 188.03125 161.472656 C 186.941406 161.449219 183.285156 161.246094 181.613281 159.433594 C 179.902344 157.574219 178.480469 156.644531 174.992188 156.34375 C 172.402344 156.121094 168.480469 156.164062 165.878906 156.1875 C 164.980469 156.203125 164.238281 156.203125 163.742188 156.203125 C 163.707031 156.203125 163.675781 156.203125 163.636719 156.203125 C 161.832031 156.203125 161.113281 156.773438 161.035156 157.3125 C 160.953125 157.910156 161.636719 158.71875 162.910156 159.050781 C 165.609375 159.753906 169.738281 160.542969 169.777344 160.550781 C 169.917969 160.578125 170.03125 160.699219 170.046875 160.84375 C 170.0625 160.984375 169.980469 161.125 169.835938 161.179688 C 169.792969 161.203125 164.996094 163.097656 163.054688 163.824219 C 161.710938 164.328125 161.007812 165.25 161.269531 166.1875 C 161.507812 167.054688 162.609375 167.777344 164.246094 167.46875 C 164.425781 167.414062 164.589844 167.550781 164.628906 167.714844 C 164.664062 167.886719 164.566406 168.058594 164.394531 168.113281 C 164.378906 168.113281 162.648438 168.601562 162.109375 169.589844 C 161.9375 169.90625 161.914062 170.234375 162.027344 170.59375 C 162.558594 172.25 165.464844 171.457031 165.59375 171.425781 C 165.742188 171.390625 165.910156 171.457031 165.984375 171.597656 C 166.050781 171.742188 166.015625 171.914062 165.878906 172.011719 C 165.59375 172.214844 164.71875 172.894531 164.84375 173.660156 C 165.023438 174.738281 166.296875 174.664062 166.679688 174.605469 C 166.996094 174.558594 167.8125 174.445312 168.792969 174.3125 C 170.796875 174.027344 173.292969 173.675781 173.839844 173.621094 C 173.929688 173.621094 174.011719 173.636719 174.085938 173.699219 C 174.15625 173.75 174.199219 173.832031 174.207031 173.921875 L 174.410156 176.027344 Z M 174.402344 176.019531 " fill-opacity="1" fill-rule="nonzero"/><path fill="#050a44" d="M 169.71875 161.203125 C 169.582031 161.203125 169.453125 161.121094 169.410156 160.984375 C 169.351562 160.8125 169.433594 160.625 169.605469 160.558594 L 174.066406 158.914062 C 174.238281 158.847656 174.433594 158.9375 174.492188 159.109375 C 174.550781 159.28125 174.46875 159.46875 174.296875 159.539062 L 169.835938 161.179688 C 169.800781 161.195312 169.761719 161.203125 169.722656 161.203125 Z M 169.71875 161.203125 " fill-opacity="1" fill-rule="nonzero"/><path fill="#050a44" d="M 164.296875 168.121094 C 164.15625 168.121094 164.019531 168.023438 163.984375 167.878906 C 163.929688 167.707031 164.035156 167.519531 164.214844 167.476562 L 175.152344 164.417969 C 175.324219 164.371094 175.511719 164.46875 175.554688 164.648438 C 175.609375 164.820312 175.503906 165.007812 175.324219 165.054688 L 164.386719 168.113281 C 164.386719 168.113281 164.328125 168.128906 164.296875 168.128906 Z M 164.296875 168.121094 " fill-opacity="1" fill-rule="nonzero"/><path fill="#050a44" d="M 165.683594 172.070312 C 165.535156 172.070312 165.398438 171.964844 165.363281 171.816406 C 165.316406 171.636719 165.429688 171.457031 165.609375 171.417969 L 175.527344 169.09375 C 175.714844 169.050781 175.886719 169.164062 175.921875 169.34375 C 175.96875 169.523438 175.855469 169.703125 175.675781 169.738281 L 165.757812 172.0625 C 165.757812 172.0625 165.707031 172.070312 165.683594 172.070312 Z M 165.683594 172.070312 " fill-opacity="1" fill-rule="nonzero"/><g clip-path="url(#b06642764d)"><path fill="#0a21c0" d="M 198.261719 168.800781 C 196.550781 168.800781 194.957031 167.738281 194.355469 166.027344 C 193.597656 163.871094 194.738281 161.507812 196.898438 160.757812 C 197.675781 160.488281 198.507812 160.070312 199.394531 159.628906 C 199.917969 159.363281 200.441406 159.101562 200.96875 158.855469 C 202.5625 157.957031 203.75 157.222656 204.8125 156.496094 C 207.183594 154.824219 209.347656 152.761719 211.214844 150.390625 C 212.863281 148.121094 214.183594 145.503906 215.050781 142.722656 C 215.863281 140.234375 216.257812 137.445312 216.328125 133.910156 C 216.410156 128.464844 215.335938 122.613281 212.9375 115.511719 C 210.878906 109.636719 208.113281 103.746094 204.714844 98.039062 C 203.546875 96.078125 204.199219 93.535156 206.164062 92.367188 C 208.125 91.203125 210.667969 91.839844 211.835938 93.8125 C 215.511719 99.988281 218.507812 106.382812 220.765625 112.824219 C 223.484375 120.894531 224.699219 127.628906 224.601562 134.050781 C 224.519531 138.4375 223.988281 141.988281 222.9375 145.234375 C 221.8125 148.832031 220.082031 152.265625 217.8125 155.386719 C 215.34375 158.519531 212.601562 161.132812 209.542969 163.285156 C 208.203125 164.207031 206.777344 165.085938 204.878906 166.148438 L 204.566406 166.304688 C 204.070312 166.53125 203.589844 166.769531 203.105469 167.019531 C 202.078125 167.535156 200.914062 168.121094 199.632812 168.570312 C 199.183594 168.726562 198.71875 168.800781 198.269531 168.800781 Z M 202.847656 162.542969 L 202.863281 162.542969 Z M 202.847656 162.542969 " fill-opacity="1" fill-rule="nonzero"/></g><path fill="#050a44" d="M 207.453125 103.4375 C 207.332031 103.4375 207.21875 103.371094 207.160156 103.257812 C 207.078125 103.09375 207.136719 102.898438 207.300781 102.808594 L 214.671875 98.96875 C 214.835938 98.878906 215.03125 98.949219 215.121094 99.113281 C 215.203125 99.277344 215.144531 99.472656 214.976562 99.5625 L 207.609375 103.398438 C 207.558594 103.421875 207.503906 103.4375 207.460938 103.4375 Z M 207.453125 103.4375 " fill-opacity="1" fill-rule="nonzero"/><path fill="#050a44" d="M 212.023438 113.570312 C 211.890625 113.570312 211.769531 113.488281 211.71875 113.363281 C 211.648438 113.191406 211.738281 113.003906 211.90625 112.933594 L 219.679688 109.980469 C 219.851562 109.914062 220.039062 110.003906 220.105469 110.175781 C 220.171875 110.347656 220.082031 110.535156 219.917969 110.605469 L 212.144531 113.558594 C 212.105469 113.570312 212.0625 113.578125 212.023438 113.578125 Z M 212.023438 113.570312 " fill-opacity="1" fill-rule="nonzero"/><path fill="#050a44" d="M 215.164062 124.074219 C 215.015625 124.074219 214.871094 123.96875 214.84375 123.8125 C 214.804688 123.632812 214.917969 123.460938 215.097656 123.421875 L 223.230469 121.699219 C 223.402344 121.660156 223.582031 121.773438 223.621094 121.953125 C 223.65625 122.132812 223.546875 122.304688 223.367188 122.34375 L 215.234375 124.066406 C 215.234375 124.066406 215.1875 124.074219 215.164062 124.074219 Z M 215.164062 124.074219 " fill-opacity="1" fill-rule="nonzero"/><g clip-path="url(#51437c2ac0)"><path fill="#050a44" d="M 224.550781 134.832031 L 216.238281 134.652344 C 216.050781 134.652344 215.90625 134.492188 215.914062 134.3125 C 215.914062 134.132812 216.078125 134.019531 216.253906 133.992188 L 224.566406 134.171875 C 224.753906 134.171875 224.894531 134.328125 224.886719 134.507812 C 224.886719 134.6875 224.738281 134.832031 224.558594 134.832031 Z M 224.550781 134.832031 " fill-opacity="1" fill-rule="nonzero"/></g><path fill="#050a44" d="M 222.175781 147.566406 C 222.136719 147.566406 222.089844 147.566406 222.054688 147.542969 L 214.28125 144.597656 C 214.109375 144.53125 214.027344 144.34375 214.085938 144.171875 C 214.152344 144 214.339844 143.914062 214.511719 143.976562 L 222.285156 146.921875 C 222.457031 146.988281 222.542969 147.175781 222.480469 147.347656 C 222.429688 147.476562 222.308594 147.558594 222.175781 147.558594 Z M 222.175781 147.566406 " fill-opacity="1" fill-rule="nonzero"/><path fill="#050a44" d="M 215.179688 158.734375 C 215.097656 158.734375 215.015625 158.707031 214.957031 158.644531 L 208.9375 152.917969 C 208.800781 152.792969 208.800781 152.582031 208.921875 152.453125 C 209.046875 152.320312 209.257812 152.3125 209.386719 152.4375 L 215.40625 158.164062 C 215.539062 158.292969 215.539062 158.503906 215.421875 158.628906 C 215.351562 158.699219 215.269531 158.734375 215.179688 158.734375 Z M 215.179688 158.734375 " fill-opacity="1" fill-rule="nonzero"/><path fill="#050a44" d="M 204.851562 166.433594 C 204.730469 166.433594 204.617188 166.375 204.558594 166.261719 L 200.628906 158.9375 C 200.546875 158.773438 200.609375 158.578125 200.765625 158.488281 C 200.921875 158.40625 201.125 158.464844 201.214844 158.621094 L 205.144531 165.945312 C 205.226562 166.113281 205.164062 166.304688 205.007812 166.394531 C 204.957031 166.417969 204.902344 166.433594 204.851562 166.433594 Z M 204.851562 166.433594 " fill-opacity="1" fill-rule="nonzero"/><path fill="#050a44" d="M 187.28125 157.40625 L 193.6875 156.070312 C 194.042969 155.996094 194.398438 155.992188 194.757812 156.058594 C 195.113281 156.128906 195.441406 156.261719 195.746094 156.460938 C 196.050781 156.65625 196.304688 156.90625 196.507812 157.207031 C 196.710938 157.507812 196.851562 157.835938 196.925781 158.191406 L 199.828125 172.109375 C 199.902344 172.464844 199.902344 172.820312 199.835938 173.179688 C 199.769531 173.535156 199.636719 173.863281 199.4375 174.167969 C 199.238281 174.472656 198.988281 174.726562 198.6875 174.929688 C 198.390625 175.132812 198.0625 175.273438 197.707031 175.347656 L 191.300781 176.683594 C 190.945312 176.757812 190.589844 176.757812 190.230469 176.691406 C 189.875 176.625 189.546875 176.492188 189.242188 176.292969 C 188.9375 176.09375 188.683594 175.84375 188.480469 175.542969 C 188.277344 175.246094 188.136719 174.917969 188.0625 174.5625 L 185.164062 160.640625 C 185.089844 160.285156 185.085938 159.929688 185.152344 159.574219 C 185.21875 159.21875 185.351562 158.886719 185.550781 158.582031 C 185.75 158.28125 186 158.027344 186.300781 157.820312 C 186.601562 157.617188 186.925781 157.476562 187.28125 157.40625 Z M 187.28125 157.40625 " fill-opacity="1" fill-rule="nonzero"/><path fill="#e4e6ef" d="M 44.046875 69.4375 L 112.761719 69.4375 L 112.761719 78.3125 L 44.046875 78.3125 Z M 44.046875 69.4375 " fill-opacity="1" fill-rule="nonzero"/><path fill="#0a21c0" d="M 44.046875 69.4375 L 91.175781 69.4375 L 91.175781 78.3125 L 44.046875 78.3125 Z M 44.046875 69.4375 " fill-opacity="1" fill-rule="nonzero"/><path fill="#050a44" d="M 44.046875 69.4375 L 67.945312 69.4375 L 67.945312 78.3125 L 44.046875 78.3125 Z M 44.046875 69.4375 " fill-opacity="1" fill-rule="nonzero"/><path fill="#050a44" d="M 44.046875 78.632812 C 43.957031 78.632812 43.875 78.597656 43.8125 78.535156 C 43.753906 78.476562 43.714844 78.386719 43.714844 78.304688 L 43.714844 69.429688 C 43.714844 69.25 43.867188 69.097656 44.046875 69.097656 L 112.761719 69.097656 C 112.941406 69.097656 113.09375 69.25 113.09375 69.429688 L 113.09375 78.296875 C 113.09375 78.476562 112.941406 78.625 112.761719 78.625 L 44.046875 78.625 Z M 44.375 69.765625 L 44.375 77.972656 L 112.433594 77.972656 L 112.433594 69.765625 Z M 44.375 69.765625 " fill-opacity="1" fill-rule="nonzero"/><path fill="#e4e6ef" d="M 38.425781 158 L 38.425781 180.832031 C 38.425781 181.957031 37.515625 182.835938 36.421875 182.835938 L 8.597656 182.835938 C 7.496094 182.835938 6.597656 181.957031 6.597656 180.832031 L 6.597656 158 C 6.597656 156.898438 7.503906 156.023438 8.597656 156.023438 L 36.421875 156.023438 C 37.523438 156.023438 38.425781 156.898438 38.425781 158 Z M 38.425781 158 " fill-opacity="1" fill-rule="nonzero"/><path fill="#050a44" d="M 36.421875 183.171875 L 8.597656 183.171875 C 7.308594 183.171875 6.257812 182.121094 6.257812 180.832031 L 6.257812 158 C 6.257812 156.726562 7.308594 155.691406 8.597656 155.691406 L 36.421875 155.691406 C 37.710938 155.691406 38.761719 156.726562 38.761719 158 L 38.761719 180.832031 C 38.761719 182.121094 37.710938 183.171875 36.421875 183.171875 Z M 8.597656 156.351562 C 7.675781 156.351562 6.925781 157.09375 6.925781 158 L 6.925781 180.832031 C 6.925781 181.753906 7.675781 182.503906 8.597656 182.503906 L 36.421875 182.503906 C 37.34375 182.503906 38.09375 181.753906 38.09375 180.832031 L 38.09375 158 C 38.09375 157.09375 37.34375 156.351562 36.421875 156.351562 Z M 8.597656 156.351562 " fill-opacity="1" fill-rule="nonzero"/><path fill="#050a44" d="M 35.710938 155.308594 L 35.710938 156.023438 L 8.597656 156.023438 C 7.496094 156.023438 6.597656 156.898438 6.597656 158 L 6.597656 180.152344 C 6.597656 180.152344 5.882812 180.152344 5.882812 180.152344 C 4.78125 180.152344 3.882812 179.246094 3.882812 178.148438 L 3.882812 155.316406 C 3.882812 154.214844 4.789062 153.316406 5.882812 153.316406 L 33.710938 153.316406 C 34.832031 153.316406 35.710938 154.222656 35.710938 155.316406 Z M 35.710938 155.308594 " fill-opacity="1" fill-rule="nonzero"/><path fill="#050a44" d="M 11.4375 175.339844 L 16.515625 161.5625 L 18.164062 161.5625 L 23.238281 175.339844 L 21.152344 175.339844 L 17.339844 164.230469 L 13.523438 175.339844 Z M 13.785156 172.316406 L 13.785156 170.480469 L 21.035156 170.480469 L 21.035156 172.316406 Z M 13.785156 172.316406 " fill-opacity="1" fill-rule="nonzero"/><path fill="#050a44" d="M 28.289062 175.480469 C 27.082031 175.480469 26.175781 175.234375 25.578125 174.730469 C 24.96875 174.230469 24.667969 173.472656 24.667969 172.4375 C 24.667969 171.457031 24.945312 170.730469 25.5 170.242188 C 26.054688 169.761719 26.878906 169.523438 27.988281 169.523438 L 30.785156 169.523438 C 30.785156 169.523438 30.921875 171.074219 30.921875 171.074219 L 28.003906 171.074219 C 27.503906 171.074219 27.128906 171.1875 26.878906 171.410156 C 26.625 171.636719 26.503906 171.980469 26.503906 172.4375 C 26.503906 172.941406 26.671875 173.308594 27.007812 173.546875 C 27.34375 173.789062 27.847656 173.90625 28.515625 173.90625 C 29.25 173.90625 29.796875 173.824219 30.164062 173.667969 C 30.53125 173.511719 30.710938 173.261719 30.710938 172.925781 L 30.914062 174.304688 C 30.742188 174.574219 30.53125 174.792969 30.277344 174.957031 C 30.019531 175.128906 29.738281 175.257812 29.40625 175.339844 C 29.085938 175.421875 28.710938 175.464844 28.304688 175.464844 Z M 30.695312 175.339844 L 30.695312 169.101562 C 30.695312 168.457031 30.523438 167.957031 30.179688 167.601562 C 29.835938 167.25 29.347656 167.070312 28.71875 167.070312 C 28.335938 167.070312 27.953125 167.132812 27.578125 167.25 C 27.203125 167.371094 26.867188 167.535156 26.566406 167.761719 L 25.15625 166.792969 C 25.53125 166.34375 26.019531 166 26.632812 165.746094 C 27.242188 165.496094 27.921875 165.371094 28.664062 165.371094 C 29.894531 165.371094 30.847656 165.691406 31.527344 166.328125 C 32.203125 166.964844 32.539062 167.867188 32.539062 169.027344 L 32.539062 175.347656 L 30.703125 175.347656 Z M 30.695312 175.339844 " fill-opacity="1" fill-rule="nonzero"/><path fill="#050a44" d="M 20 147.019531 C 19.820312 147.019531 19.667969 146.871094 19.667969 146.6875 L 19.667969 84.703125 C 19.667969 78.582031 24.648438 73.601562 30.769531 73.601562 L 36.867188 73.601562 C 37.046875 73.601562 37.195312 73.753906 37.195312 73.933594 C 37.195312 74.113281 37.046875 74.261719 36.867188 74.261719 L 30.769531 74.261719 C 25.015625 74.261719 20.328125 78.949219 20.328125 84.703125 L 20.328125 146.6875 C 20.328125 146.871094 20.179688 147.019531 20 147.019531 Z M 20 147.019531 " fill-opacity="1" fill-rule="nonzero"/><path fill="#050a44" d="M 38.738281 75.980469 C 37.613281 75.980469 36.699219 75.066406 36.699219 73.941406 C 36.699219 72.816406 37.613281 71.902344 38.738281 71.902344 C 39.863281 71.902344 40.777344 72.816406 40.777344 73.941406 C 40.777344 75.066406 39.863281 75.980469 38.738281 75.980469 Z M 38.738281 72.5625 C 37.980469 72.5625 37.359375 73.175781 37.359375 73.941406 C 37.359375 74.707031 37.976562 75.320312 38.738281 75.320312 C 39.503906 75.320312 40.117188 74.707031 40.117188 73.941406 C 40.117188 73.175781 39.503906 72.5625 38.738281 72.5625 Z M 38.738281 72.5625 " fill-opacity="1" fill-rule="nonzero"/><path fill="#050a44" d="M 20 150.4375 C 18.875 150.4375 17.960938 149.523438 17.960938 148.398438 C 17.960938 147.273438 18.875 146.359375 20 146.359375 C 21.125 146.359375 22.039062 147.273438 22.039062 148.398438 C 22.039062 149.523438 21.125 150.4375 20 150.4375 Z M 20 147.019531 C 19.242188 147.019531 18.621094 147.640625 18.621094 148.398438 C 18.621094 149.15625 19.234375 149.777344 20 149.777344 C 20.765625 149.777344 21.378906 149.164062 21.378906 148.398438 C 21.378906 147.632812 20.765625 147.019531 20 147.019531 Z M 20 147.019531 " fill-opacity="1" fill-rule="nonzero"/><g clip-path="url(#3a35a661f2)"><path fill="#050a44" d="M 0.328125 198.847656 C 0.148438 198.847656 0 198.695312 0 198.515625 C 0 198.335938 0.148438 198.1875 0.328125 198.1875 L 219.070312 198.1875 C 219.25 198.1875 219.402344 198.335938 219.402344 198.515625 C 219.402344 198.695312 219.25 198.847656 219.070312 198.847656 Z M 0.328125 198.847656 " fill-opacity="1" fill-rule="nonzero"/></g><path fill="#0a21c0" d="M 112.550781 48.851562 L 109.980469 48.867188 C 109.808594 48.214844 109.546875 47.59375 109.203125 47.015625 L 111.015625 45.1875 C 111.082031 45.117188 111.121094 45.027344 111.113281 44.929688 C 111.113281 44.839844 111.066406 44.742188 111 44.675781 L 108.847656 42.554688 C 108.707031 42.414062 108.480469 42.421875 108.339844 42.554688 L 106.539062 44.382812 C 105.949219 44.039062 105.328125 43.785156 104.683594 43.621094 L 104.667969 41.0625 C 104.667969 40.859375 104.5 40.703125 104.308594 40.703125 L 101.277344 40.71875 C 101.082031 40.71875 100.917969 40.882812 100.917969 41.078125 L 100.933594 43.632812 C 100.296875 43.808594 99.675781 44.070312 99.082031 44.421875 L 97.253906 42.613281 C 97.117188 42.472656 96.886719 42.480469 96.742188 42.613281 L 94.613281 44.765625 C 94.472656 44.910156 94.472656 45.132812 94.613281 45.277344 L 96.4375 47.082031 C 96.105469 47.660156 95.851562 48.289062 95.679688 48.941406 L 93.117188 48.957031 C 92.914062 48.957031 92.753906 49.121094 92.761719 49.316406 L 92.777344 52.351562 C 92.777344 52.554688 92.933594 52.710938 93.136719 52.703125 L 95.703125 52.691406 C 95.882812 53.347656 96.144531 53.964844 96.480469 54.535156 L 94.683594 56.371094 C 94.539062 56.511719 94.546875 56.738281 94.683594 56.878906 L 96.839844 59.007812 C 96.976562 59.144531 97.214844 59.144531 97.351562 59.007812 L 99.15625 57.179688 C 99.765625 57.523438 100.386719 57.78125 101.015625 57.945312 L 101.03125 60.507812 C 101.03125 60.710938 101.195312 60.867188 101.390625 60.867188 L 104.417969 60.84375 C 104.621094 60.84375 104.777344 60.679688 104.777344 60.484375 L 104.765625 57.921875 C 105.394531 57.75 106.015625 57.488281 106.617188 57.132812 L 108.4375 58.941406 C 108.578125 59.074219 108.820312 59.074219 108.945312 58.941406 L 111.074219 56.78125 C 111.210938 56.640625 111.210938 56.414062 111.074219 56.273438 L 109.238281 54.457031 C 109.585938 53.882812 109.839844 53.257812 109.996094 52.605469 L 112.566406 52.59375 C 112.769531 52.59375 112.925781 52.433594 112.925781 52.230469 L 112.90625 49.195312 C 112.90625 49 112.738281 48.835938 112.546875 48.84375 Z M 102.875 54.886719 C 100.609375 54.902344 98.761719 53.0625 98.746094 50.800781 C 98.730469 48.535156 100.558594 46.691406 102.832031 46.679688 C 105.09375 46.664062 106.9375 48.492188 106.953125 50.75 C 106.96875 53.011719 105.140625 54.871094 102.882812 54.878906 Z M 102.875 54.886719 " fill-opacity="1" fill-rule="nonzero"/></svg>