<svg xmlns="http://www.w3.org/2000/svg" xmlns:xlink="http://www.w3.org/1999/xlink" width="300" zoomAndPan="magnify" viewBox="0 0 224.87999 225" height="300" preserveAspectRatio="xMidYMid meet" version="1.0"><defs><clipPath id="94f928da5b"><path d="M 0 116 L 124 116 L 124 179.589844 L 0 179.589844 Z M 0 116 " clip-rule="nonzero"/></clipPath><clipPath id="d5bbe8a7a5"><path d="M 4 116 L 124 116 L 124 179.589844 L 4 179.589844 Z M 4 116 " clip-rule="nonzero"/></clipPath><clipPath id="d39b2d285a"><path d="M 15 173 L 153 173 L 153 179.589844 L 15 179.589844 Z M 15 173 " clip-rule="nonzero"/></clipPath><clipPath id="c96be0143b"><path d="M 92 45.410156 L 109 45.410156 L 109 62 L 92 62 Z M 92 45.410156 " clip-rule="nonzero"/></clipPath><clipPath id="222642360d"><path d="M 148 111 L 209 111 L 209 179.589844 L 148 179.589844 Z M 148 111 " clip-rule="nonzero"/></clipPath><clipPath id="85658545d0"><path d="M 172 129 L 198 129 L 198 179.589844 L 172 179.589844 Z M 172 129 " clip-rule="nonzero"/></clipPath><clipPath id="e612afa277"><path d="M 6 178 L 213 178 L 213 179.589844 L 6 179.589844 Z M 6 178 " clip-rule="nonzero"/></clipPath><clipPath id="bd0ccf1e2b"><path d="M 192 93 L 224.761719 93 L 224.761719 112 L 192 112 Z M 192 93 " clip-rule="nonzero"/></clipPath><clipPath id="41629acd11"><path d="M 192 93 L 224.761719 93 L 224.761719 113 L 192 113 Z M 192 93 " clip-rule="nonzero"/></clipPath></defs><path fill="#e4e6ef" d="M 161.101562 113.824219 C 161.101562 113.824219 159.527344 112.679688 158.171875 110.394531 C 157.8125 107.894531 156.980469 105.714844 156.980469 105.714844 C 156.980469 105.714844 158.773438 103.457031 159.601562 102.476562 C 160.875 100.964844 159.804688 99.152344 157.699219 100.347656 C 155.601562 101.546875 153.144531 103.078125 153.144531 103.078125 C 153.144531 103.078125 142.5 101.195312 140.457031 100.835938 C 138.269531 100.453125 138.089844 102.058594 138.449219 102.640625 C 138.449219 102.640625 137.207031 102.363281 136.703125 103.136719 C 135.902344 104.378906 137.625 105.257812 137.625 105.257812 C 137.625 105.257812 136.195312 105.179688 136.222656 106.265625 C 136.261719 107.511719 138.261719 107.734375 138.261719 107.734375 C 137.753906 108.207031 137.828125 108.898438 138.769531 109.285156 C 139.445312 109.5625 142.800781 110.671875 145.070312 111.421875 C 146.480469 111.886719 147.773438 112.648438 148.859375 113.660156 L 153.035156 117.554688 L 161.109375 113.839844 Z M 161.101562 113.824219 " fill-opacity="1" fill-rule="nonzero"/><path fill="#050a44" d="M 153.027344 117.796875 C 152.964844 117.796875 152.898438 117.773438 152.855469 117.730469 L 148.679688 113.832031 C 147.632812 112.851562 146.351562 112.09375 144.988281 111.644531 C 142.480469 110.820312 139.339844 109.78125 138.671875 109.511719 C 138.125 109.285156 137.78125 108.933594 137.707031 108.523438 C 137.667969 108.3125 137.707031 108.09375 137.804688 107.902344 C 137.160156 107.75 135.992188 107.332031 135.96875 106.261719 C 135.960938 105.914062 136.066406 105.636719 136.292969 105.421875 C 136.472656 105.242188 136.710938 105.136719 136.9375 105.078125 C 136.664062 104.84375 136.390625 104.523438 136.285156 104.125 C 136.179688 103.742188 136.253906 103.359375 136.492188 102.988281 C 136.882812 102.386719 137.609375 102.3125 138.082031 102.328125 C 138.023438 101.976562 138.066406 101.546875 138.3125 101.195312 C 138.589844 100.785156 139.199219 100.347656 140.507812 100.574219 C 142.441406 100.910156 152.046875 102.613281 153.109375 102.800781 C 153.558594 102.523438 155.722656 101.179688 157.589844 100.117188 C 158.808594 99.421875 159.6875 99.699219 160.097656 100.183594 C 160.613281 100.804688 160.503906 101.816406 159.8125 102.632812 C 159.101562 103.472656 157.65625 105.285156 157.289062 105.757812 C 157.476562 106.273438 158.128906 108.183594 158.433594 110.304688 C 159.746094 112.492188 161.257812 113.609375 161.273438 113.617188 C 161.347656 113.667969 161.386719 113.757812 161.378906 113.847656 C 161.371094 113.9375 161.3125 114.019531 161.230469 114.050781 L 153.152344 117.765625 C 153.152344 117.765625 153.085938 117.789062 153.046875 117.789062 Z M 137.550781 105.503906 C 137.332031 105.503906 136.875 105.554688 136.636719 105.789062 C 136.515625 105.902344 136.464844 106.058594 136.472656 106.253906 C 136.5 107.25 138.261719 107.472656 138.285156 107.472656 C 138.382812 107.480469 138.464844 107.546875 138.492188 107.644531 C 138.523438 107.742188 138.492188 107.839844 138.425781 107.90625 C 138.253906 108.074219 138.171875 108.261719 138.203125 108.433594 C 138.246094 108.664062 138.480469 108.882812 138.859375 109.039062 C 139.550781 109.324219 143.09375 110.492188 145.136719 111.167969 C 146.578125 111.636719 147.917969 112.433594 149.019531 113.464844 L 153.0625 117.242188 L 160.613281 113.765625 C 160.074219 113.300781 158.953125 112.230469 157.941406 110.523438 C 157.925781 110.492188 157.910156 110.460938 157.910156 110.433594 C 157.558594 107.992188 156.742188 105.824219 156.734375 105.804688 C 156.703125 105.71875 156.71875 105.625 156.773438 105.554688 C 156.785156 105.535156 158.578125 103.285156 159.402344 102.3125 C 160.015625 101.585938 159.976562 100.875 159.6875 100.515625 C 159.332031 100.09375 158.621094 100.109375 157.820312 100.558594 C 155.746094 101.742188 153.304688 103.261719 153.273438 103.277344 C 153.222656 103.308594 153.160156 103.324219 153.09375 103.316406 C 153.09375 103.316406 142.449219 101.4375 140.402344 101.078125 C 139.578125 100.933594 138.996094 101.078125 138.71875 101.480469 C 138.472656 101.839844 138.539062 102.296875 138.660156 102.5 C 138.710938 102.589844 138.703125 102.695312 138.652344 102.777344 C 138.589844 102.859375 138.480469 102.898438 138.390625 102.875 C 138.375 102.875 137.308594 102.640625 136.914062 103.257812 C 136.75 103.503906 136.703125 103.742188 136.761719 103.984375 C 136.929688 104.589844 137.722656 105.007812 137.738281 105.007812 C 137.84375 105.0625 137.894531 105.179688 137.863281 105.300781 C 137.835938 105.414062 137.699219 105.496094 137.609375 105.488281 C 137.59375 105.488281 137.578125 105.488281 137.558594 105.488281 Z M 137.550781 105.503906 " fill-opacity="1" fill-rule="nonzero"/><path fill="#050a44" d="M 144.867188 108.449219 C 144.867188 108.449219 144.847656 108.449219 144.832031 108.449219 C 141.339844 107.953125 138.839844 107.625 138.394531 107.929688 C 138.285156 108.011719 138.125 107.984375 138.042969 107.871094 C 137.960938 107.757812 137.992188 107.601562 138.105469 107.519531 C 138.644531 107.136719 140.171875 107.269531 144.761719 107.921875 C 145.324219 107.285156 148.261719 104.335938 153.085938 106.035156 C 153.222656 106.082031 153.289062 106.222656 153.242188 106.355469 C 153.199219 106.492188 153.054688 106.558594 152.921875 106.515625 C 147.917969 104.753906 145.191406 108.207031 145.070312 108.351562 C 145.027344 108.410156 144.949219 108.449219 144.867188 108.449219 Z M 144.867188 108.449219 " fill-opacity="1" fill-rule="nonzero"/><path fill="#050a44" d="M 145.492188 107.652344 C 145.492188 107.652344 145.445312 107.652344 145.421875 107.644531 L 137.550781 105.496094 C 137.414062 105.457031 137.332031 105.316406 137.371094 105.179688 C 137.40625 105.046875 137.550781 104.964844 137.683594 105 L 145.558594 107.152344 C 145.691406 107.1875 145.773438 107.332031 145.738281 107.464844 C 145.707031 107.578125 145.601562 107.652344 145.492188 107.652344 Z M 145.492188 107.652344 " fill-opacity="1" fill-rule="nonzero"/><path fill="#050a44" d="M 147.265625 104.949219 C 147.265625 104.949219 147.226562 104.949219 147.207031 104.949219 L 138.390625 102.890625 C 138.253906 102.859375 138.171875 102.722656 138.203125 102.582031 C 138.230469 102.445312 138.367188 102.363281 138.507812 102.394531 L 147.332031 104.453125 C 147.46875 104.484375 147.550781 104.628906 147.519531 104.761719 C 147.492188 104.882812 147.386719 104.957031 147.273438 104.957031 Z M 147.265625 104.949219 " fill-opacity="1" fill-rule="nonzero"/><path fill="#e4e6ef" d="M 154.710938 122.949219 L 150.105469 115.847656 C 150.105469 115.847656 153.371094 111.625 158.742188 109.609375 L 167.183594 116.996094 L 154.710938 122.941406 Z M 154.710938 122.949219 " fill-opacity="1" fill-rule="nonzero"/><path fill="#050a44" d="M 154.710938 123.203125 C 154.628906 123.203125 154.546875 123.160156 154.503906 123.085938 L 149.894531 115.984375 C 149.835938 115.894531 149.84375 115.773438 149.910156 115.691406 C 149.941406 115.644531 153.28125 111.390625 158.660156 109.367188 C 158.742188 109.339844 158.847656 109.355469 158.914062 109.414062 L 167.355469 116.800781 C 167.425781 116.851562 167.453125 116.941406 167.4375 117.023438 C 167.425781 117.105469 167.371094 117.183594 167.296875 117.21875 L 154.824219 123.167969 C 154.824219 123.167969 154.75 123.191406 154.710938 123.191406 Z M 150.417969 115.863281 L 154.800781 122.621094 L 166.726562 116.933594 L 158.691406 109.902344 C 154.074219 111.675781 151.027344 115.128906 150.417969 115.863281 Z M 150.417969 115.863281 " fill-opacity="1" fill-rule="nonzero"/><path fill="#e4e6ef" d="M 122.785156 178.914062 L 21.714844 178.914062 C 18.996094 178.914062 16.621094 177.132812 15.886719 174.511719 L 15.8125 174.21875 L 0.523438 120.628906 C -0.015625 118.792969 1.378906 116.957031 3.289062 116.957031 L 102.867188 116.957031 C 104.214844 116.957031 105.359375 117.839844 105.726562 119.105469 L 121.4375 174.21875 Z M 122.785156 178.914062 " fill-opacity="1" fill-rule="nonzero"/><g clip-path="url(#94f928da5b)"><path fill="#050a44" d="M 122.785156 179.171875 L 21.714844 179.171875 C 18.898438 179.171875 16.40625 177.28125 15.648438 174.578125 L 15.574219 174.277344 L 0.277344 120.695312 C 0 119.75 0.179688 118.753906 0.773438 117.960938 C 1.371094 117.160156 2.285156 116.703125 3.28125 116.703125 L 102.859375 116.703125 C 104.3125 116.703125 105.5625 117.640625 105.96875 119.039062 L 123.023438 178.847656 C 123.046875 178.921875 123.023438 179.003906 122.988281 179.074219 C 122.941406 179.140625 122.859375 179.175781 122.785156 179.175781 Z M 3.289062 117.210938 C 2.457031 117.210938 1.683594 117.59375 1.183594 118.269531 C 0.6875 118.933594 0.53125 119.765625 0.765625 120.558594 L 16.136719 174.457031 C 16.832031 176.9375 19.125 178.667969 21.714844 178.667969 L 122.449219 178.667969 L 121.195312 174.292969 L 105.488281 119.183594 C 105.152344 118.007812 104.09375 117.210938 102.867188 117.210938 Z M 3.289062 117.210938 " fill-opacity="1" fill-rule="nonzero"/></g><g clip-path="url(#d5bbe8a7a5)"><path fill="#050a44" d="M 122.785156 179.171875 L 26.082031 179.171875 C 23.28125 179.171875 20.789062 177.289062 20.015625 174.59375 L 4.105469 118.867188 C 3.957031 118.351562 4.058594 117.804688 4.382812 117.375 C 4.703125 116.949219 5.199219 116.703125 5.738281 116.703125 L 102.867188 116.703125 C 104.296875 116.703125 105.578125 117.667969 105.96875 119.046875 L 123.023438 178.855469 C 123.046875 178.929688 123.023438 179.011719 122.980469 179.078125 C 122.933594 179.148438 122.859375 179.183594 122.777344 179.183594 Z M 5.746094 117.210938 C 5.371094 117.210938 5.019531 117.382812 4.792969 117.683594 C 4.570312 117.984375 4.496094 118.367188 4.597656 118.734375 L 20.511719 174.457031 C 21.214844 176.9375 23.515625 178.667969 26.089844 178.667969 L 122.449219 178.667969 L 105.488281 119.183594 C 105.160156 118.019531 104.078125 117.210938 102.875 117.210938 Z M 5.746094 117.210938 " fill-opacity="1" fill-rule="nonzero"/></g><path fill="#050a44" d="M 119.542969 176.726562 L 26.082031 176.726562 C 24.367188 176.726562 22.839844 175.574219 22.367188 173.925781 L 6.824219 119.472656 C 6.800781 119.398438 6.824219 119.316406 6.871094 119.25 C 6.914062 119.183594 6.988281 119.144531 7.070312 119.144531 L 102.875 119.144531 C 103.21875 119.144531 103.527344 119.375 103.625 119.707031 L 119.789062 176.398438 C 119.8125 176.472656 119.789062 176.554688 119.742188 176.621094 C 119.699219 176.691406 119.625 176.726562 119.542969 176.726562 Z M 7.410156 119.652344 L 22.863281 173.777344 C 23.273438 175.207031 24.601562 176.210938 26.089844 176.210938 L 119.203125 176.210938 L 103.136719 119.847656 C 103.105469 119.734375 102.992188 119.652344 102.875 119.652344 Z M 7.410156 119.652344 " fill-opacity="1" fill-rule="nonzero"/><path fill="#0a21c0" d="M 99.960938 146.277344 C 97.929688 146.277344 95.847656 145.894531 93.816406 145.136719 C 91.152344 144.132812 88.664062 142.628906 86.421875 140.652344 C 85.113281 139.488281 84.984375 137.488281 86.140625 136.171875 C 87.300781 134.851562 89.300781 134.726562 90.617188 135.886719 C 92.28125 137.355469 94.109375 138.464844 96.050781 139.191406 C 97.976562 139.910156 99.945312 140.113281 101.726562 139.761719 C 103.578125 139.398438 105.382812 138.507812 106.964844 137.167969 C 108.3125 136.023438 109.367188 134.351562 110.019531 132.351562 C 111.226562 128.382812 111.300781 124.066406 111.375 119.496094 L 111.398438 117.5625 C 111.4375 112.808594 111.472656 107.886719 111.832031 103.007812 C 111.960938 101.261719 113.503906 99.945312 115.226562 100.078125 C 116.972656 100.207031 118.289062 101.726562 118.15625 103.472656 C 117.8125 108.148438 117.773438 112.964844 117.742188 117.617188 L 117.714844 119.601562 C 117.632812 124.410156 117.550781 129.378906 116.066406 134.261719 C 115.03125 137.4375 113.308594 140.089844 111.070312 142 C 108.65625 144.050781 105.847656 145.429688 102.933594 145.992188 C 101.960938 146.179688 100.964844 146.277344 99.953125 146.277344 Z M 99.960938 146.277344 " fill-opacity="1" fill-rule="nonzero"/><path fill="#050a44" d="M 90.542969 143.941406 C 90.5 143.941406 90.460938 143.925781 90.417969 143.910156 C 90.296875 143.84375 90.25 143.683594 90.320312 143.566406 L 93.480469 138.035156 C 93.546875 137.917969 93.703125 137.871094 93.824219 137.941406 C 93.945312 138.007812 93.988281 138.164062 93.921875 138.285156 L 90.761719 143.8125 C 90.714844 143.894531 90.625 143.941406 90.542969 143.941406 Z M 90.542969 143.941406 " fill-opacity="1" fill-rule="nonzero"/><path fill="#050a44" d="M 100.527344 146.585938 C 100.394531 146.585938 100.28125 146.480469 100.273438 146.335938 L 100.035156 139.96875 C 100.035156 139.828125 100.140625 139.714844 100.28125 139.707031 C 100.445312 139.691406 100.535156 139.8125 100.542969 139.953125 L 100.785156 146.320312 C 100.785156 146.464844 100.679688 146.578125 100.542969 146.585938 Z M 100.527344 146.585938 " fill-opacity="1" fill-rule="nonzero"/><path fill="#050a44" d="M 110.378906 142.949219 C 110.304688 142.949219 110.230469 142.914062 110.175781 142.855469 L 106.296875 137.796875 C 106.214844 137.683594 106.230469 137.527344 106.34375 137.445312 C 106.453125 137.355469 106.613281 137.378906 106.695312 137.488281 L 110.574219 142.546875 C 110.65625 142.660156 110.640625 142.816406 110.53125 142.898438 C 110.484375 142.9375 110.433594 142.949219 110.371094 142.949219 Z M 110.378906 142.949219 " fill-opacity="1" fill-rule="nonzero"/><path fill="#050a44" d="M 116.214844 134.246094 C 116.214844 134.246094 116.164062 134.246094 116.140625 134.238281 L 110.058594 132.351562 C 109.921875 132.304688 109.847656 132.164062 109.894531 132.027344 C 109.929688 131.894531 110.074219 131.820312 110.207031 131.863281 L 116.296875 133.753906 C 116.433594 133.796875 116.507812 133.9375 116.460938 134.074219 C 116.425781 134.179688 116.328125 134.253906 116.222656 134.253906 Z M 116.214844 134.246094 " fill-opacity="1" fill-rule="nonzero"/><path fill="#050a44" d="M 117.640625 124.898438 L 117.625 124.898438 L 111.265625 124.558594 C 111.121094 124.554688 111.015625 124.433594 111.023438 124.289062 C 111.023438 124.148438 111.128906 124.050781 111.292969 124.050781 L 117.652344 124.386719 C 117.796875 124.394531 117.902344 124.515625 117.894531 124.65625 C 117.894531 124.792969 117.773438 124.898438 117.640625 124.898438 Z M 117.640625 124.898438 " fill-opacity="1" fill-rule="nonzero"/><path fill="#050a44" d="M 117.824219 116.066406 L 111.457031 116.011719 C 111.316406 116.011719 111.203125 115.894531 111.203125 115.757812 C 111.203125 115.617188 111.316406 115.503906 111.457031 115.503906 L 117.824219 115.554688 C 117.96875 115.554688 118.082031 115.675781 118.082031 115.8125 C 118.082031 115.953125 117.96875 116.066406 117.824219 116.066406 Z M 117.824219 116.066406 " fill-opacity="1" fill-rule="nonzero"/><path fill="#050a44" d="M 118.011719 107.480469 C 118.011719 107.480469 118.011719 107.480469 118.003906 107.480469 L 111.636719 107.210938 C 111.496094 107.210938 111.390625 107.085938 111.398438 106.949219 C 111.398438 106.808594 111.535156 106.710938 111.660156 106.710938 L 118.027344 106.980469 C 118.171875 106.980469 118.277344 107.105469 118.269531 107.242188 C 118.269531 107.375 118.148438 107.480469 118.011719 107.480469 Z M 118.011719 107.480469 " fill-opacity="1" fill-rule="nonzero"/><path fill="#050a44" d="M 75.589844 137.488281 C 75.589844 142.15625 79.375 145.933594 84.035156 145.933594 C 88.695312 145.933594 92.476562 142.148438 92.476562 137.488281 C 92.476562 132.832031 88.695312 129.046875 84.035156 129.046875 C 79.375 129.046875 75.589844 132.832031 75.589844 137.488281 Z M 75.589844 137.488281 " fill-opacity="1" fill-rule="nonzero"/><path fill="#0a21c0" d="M 53.980469 175.492188 L 71.675781 175.492188 C 81.457031 175.492188 89.054688 167.566406 88.648438 157.78125 L 87.832031 138.1875 C 87.621094 133.0625 83.292969 128.914062 78.167969 128.914062 L 45.296875 128.914062 C 37.664062 128.914062 31.738281 135.101562 32.054688 142.726562 L 32.5625 154.929688 C 33.035156 166.285156 42.625 175.492188 53.980469 175.492188 Z M 53.980469 175.492188 " fill-opacity="1" fill-rule="nonzero"/><path fill="#050a44" d="M 88.304688 162.621094 C 88.160156 162.621094 88.050781 162.511719 88.050781 162.367188 L 87.847656 144.359375 C 87.847656 144.21875 87.960938 144.105469 88.101562 144.105469 C 88.242188 144.105469 88.355469 144.21875 88.355469 144.359375 L 88.558594 162.367188 C 88.558594 162.511719 88.445312 162.621094 88.304688 162.621094 Z M 88.304688 162.621094 " fill-opacity="1" fill-rule="nonzero"/><path fill="#050a44" d="M 54.566406 142.050781 L 76.125 142.050781 C 76.828125 142.050781 77.375 141.484375 77.351562 140.769531 C 77.320312 140.066406 76.730469 139.488281 76.019531 139.488281 L 54.460938 139.488281 C 53.753906 139.488281 53.207031 140.058594 53.230469 140.769531 C 53.261719 141.476562 53.851562 142.050781 54.566406 142.050781 Z M 54.566406 142.050781 " fill-opacity="1" fill-rule="nonzero"/><path fill="#050a44" d="M 54.820312 148.082031 L 76.378906 148.082031 C 77.082031 148.082031 77.628906 147.511719 77.597656 146.800781 C 77.570312 146.097656 76.976562 145.519531 76.265625 145.519531 L 54.707031 145.519531 C 54.003906 145.519531 53.457031 146.089844 53.476562 146.800781 C 53.507812 147.503906 54.101562 148.082031 54.8125 148.082031 Z M 54.820312 148.082031 " fill-opacity="1" fill-rule="nonzero"/><path fill="#050a44" d="M 55.066406 154.113281 L 76.625 154.113281 C 77.328125 154.113281 77.875 153.542969 77.847656 152.832031 C 77.816406 152.128906 77.226562 151.550781 76.511719 151.550781 L 54.953125 151.550781 C 54.25 151.550781 53.703125 152.121094 53.726562 152.832031 C 53.753906 153.535156 54.347656 154.113281 55.058594 154.113281 Z M 55.066406 154.113281 " fill-opacity="1" fill-rule="nonzero"/><path fill="#050a44" d="M 57.929688 132.921875 C 60.121094 133.453125 62.453125 133.421875 64.902344 132.84375 C 66.550781 132.457031 67.703125 130.933594 67.703125 129.234375 L 67.703125 121.25 L 55.246094 121.25 L 55.246094 129.347656 C 55.246094 131.003906 56.324219 132.53125 57.929688 132.921875 Z M 57.929688 132.921875 " fill-opacity="1" fill-rule="nonzero"/><path fill="#050a44" d="M 57.742188 87.855469 L 72.421875 87.855469 C 72.75 87.855469 73.066406 87.917969 73.367188 88.042969 C 73.671875 88.167969 73.9375 88.347656 74.171875 88.578125 C 74.402344 88.808594 74.582031 89.078125 74.707031 89.378906 C 74.832031 89.683594 74.894531 90 74.894531 90.328125 L 74.894531 93.449219 C 74.894531 93.777344 74.832031 94.09375 74.707031 94.394531 C 74.582031 94.699219 74.402344 94.964844 74.171875 95.199219 C 73.9375 95.429688 73.671875 95.609375 73.367188 95.734375 C 73.066406 95.859375 72.75 95.921875 72.421875 95.921875 L 57.742188 95.921875 C 57.414062 95.921875 57.097656 95.859375 56.792969 95.734375 C 56.492188 95.609375 56.222656 95.429688 55.992188 95.199219 C 55.761719 94.964844 55.582031 94.699219 55.457031 94.394531 C 55.332031 94.09375 55.269531 93.777344 55.269531 93.449219 L 55.269531 90.328125 C 55.269531 90 55.332031 89.683594 55.457031 89.378906 C 55.582031 89.078125 55.761719 88.808594 55.992188 88.578125 C 56.222656 88.347656 56.492188 88.167969 56.792969 88.042969 C 57.097656 87.917969 57.414062 87.855469 57.742188 87.855469 Z M 57.742188 87.855469 " fill-opacity="1" fill-rule="nonzero"/><path fill="#0a21c0" d="M 36.152344 102.84375 L 36.152344 115.257812 C 36.152344 121.683594 41.371094 126.90625 47.824219 126.90625 L 77.136719 126.90625 C 83.210938 126.90625 88.183594 122.285156 88.746094 116.371094 C 88.789062 116.019531 88.804688 115.625 88.804688 115.257812 L 88.804688 102.84375 C 88.804688 102.46875 88.785156 102.078125 88.746094 101.726562 C 88.183594 95.816406 83.210938 91.195312 77.136719 91.195312 L 47.824219 91.195312 C 41.371094 91.195312 36.152344 96.417969 36.152344 102.84375 Z M 36.152344 102.84375 " fill-opacity="1" fill-rule="nonzero"/><path fill="#050a44" d="M 49.792969 106.199219 L 49.792969 111.902344 C 49.792969 116.746094 53.734375 120.6875 58.578125 120.6875 L 81.195312 120.6875 C 84.410156 120.6875 87.226562 118.964844 88.738281 116.371094 C 88.785156 116.019531 88.796875 115.625 88.796875 115.257812 L 88.796875 102.84375 C 88.796875 102.46875 88.777344 102.078125 88.738281 101.726562 C 87.226562 99.136719 84.410156 97.414062 81.195312 97.414062 L 58.578125 97.414062 C 53.734375 97.414062 49.792969 101.351562 49.792969 106.199219 Z M 49.792969 106.199219 " fill-opacity="1" fill-rule="nonzero"/><path fill="#e4e6ef" d="M 71.914062 111.976562 C 71.914062 112.335938 71.84375 112.679688 71.707031 113.011719 C 71.570312 113.34375 71.375 113.640625 71.121094 113.894531 C 70.863281 114.148438 70.570312 114.34375 70.238281 114.480469 C 69.90625 114.617188 69.5625 114.6875 69.203125 114.6875 C 68.84375 114.6875 68.496094 114.617188 68.164062 114.480469 C 67.832031 114.34375 67.539062 114.148438 67.285156 113.894531 C 67.03125 113.640625 66.835938 113.34375 66.695312 113.011719 C 66.558594 112.679688 66.488281 112.335938 66.488281 111.976562 C 66.488281 111.617188 66.558594 111.269531 66.695312 110.9375 C 66.835938 110.605469 67.03125 110.3125 67.285156 110.058594 C 67.539062 109.804688 67.832031 109.609375 68.164062 109.46875 C 68.496094 109.332031 68.84375 109.265625 69.203125 109.265625 C 69.5625 109.265625 69.90625 109.332031 70.238281 109.46875 C 70.570312 109.609375 70.863281 109.804688 71.121094 110.058594 C 71.375 110.3125 71.570312 110.605469 71.707031 110.9375 C 71.84375 111.269531 71.914062 111.617188 71.914062 111.976562 Z M 71.914062 111.976562 " fill-opacity="1" fill-rule="nonzero"/><path fill="#e4e6ef" d="M 74.871094 115.871094 C 74.871094 117.371094 76.085938 118.582031 77.585938 118.582031 C 79.082031 118.582031 80.296875 117.371094 80.296875 115.871094 Z M 74.871094 115.871094 " fill-opacity="1" fill-rule="nonzero"/><path fill="#e4e6ef" d="M 87.660156 111.976562 C 87.660156 112.335938 87.589844 112.679688 87.453125 113.011719 C 87.316406 113.34375 87.121094 113.640625 86.867188 113.894531 C 86.609375 114.148438 86.316406 114.34375 85.984375 114.480469 C 85.652344 114.617188 85.308594 114.6875 84.949219 114.6875 C 84.589844 114.6875 84.242188 114.617188 83.910156 114.480469 C 83.578125 114.34375 83.285156 114.148438 83.03125 113.894531 C 82.777344 113.640625 82.582031 113.34375 82.441406 113.011719 C 82.304688 112.679688 82.234375 112.335938 82.234375 111.976562 C 82.234375 111.617188 82.304688 111.269531 82.441406 110.9375 C 82.582031 110.605469 82.777344 110.3125 83.03125 110.058594 C 83.285156 109.804688 83.578125 109.609375 83.910156 109.46875 C 84.242188 109.332031 84.589844 109.265625 84.949219 109.265625 C 85.308594 109.265625 85.652344 109.332031 85.984375 109.46875 C 86.316406 109.609375 86.609375 109.804688 86.867188 110.058594 C 87.121094 110.3125 87.316406 110.605469 87.453125 110.9375 C 87.589844 111.269531 87.660156 111.617188 87.660156 111.976562 Z M 87.660156 111.976562 " fill-opacity="1" fill-rule="nonzero"/><path fill="#050a44" d="M 37.140625 100.125 L 40.707031 100.125 C 41.183594 100.125 41.644531 100.214844 42.085938 100.398438 C 42.53125 100.582031 42.921875 100.84375 43.257812 101.183594 C 43.597656 101.519531 43.859375 101.910156 44.042969 102.355469 C 44.226562 102.796875 44.316406 103.257812 44.316406 103.734375 L 44.316406 114.371094 C 44.316406 114.851562 44.226562 115.3125 44.042969 115.753906 C 43.859375 116.195312 43.597656 116.585938 43.257812 116.925781 C 42.921875 117.265625 42.53125 117.523438 42.085938 117.707031 C 41.644531 117.890625 41.183594 117.984375 40.707031 117.984375 L 37.140625 117.984375 C 36.660156 117.984375 36.199219 117.890625 35.757812 117.707031 C 35.316406 117.523438 34.925781 117.265625 34.585938 116.925781 C 34.25 116.585938 33.988281 116.195312 33.804688 115.753906 C 33.621094 115.3125 33.53125 114.851562 33.53125 114.371094 L 33.53125 103.734375 C 33.53125 103.257812 33.621094 102.796875 33.804688 102.355469 C 33.988281 101.910156 34.25 101.519531 34.585938 101.183594 C 34.925781 100.84375 35.316406 100.582031 35.757812 100.398438 C 36.199219 100.214844 36.660156 100.125 37.140625 100.125 Z M 37.140625 100.125 " fill-opacity="1" fill-rule="nonzero"/><path fill="#050a44" d="M 64.855469 89.660156 C 64.625 89.660156 64.414062 89.53125 64.304688 89.332031 L 59.367188 80.324219 C 59.203125 80.019531 59.3125 79.636719 59.621094 79.464844 C 59.929688 79.292969 60.316406 79.414062 60.480469 79.71875 L 64.871094 87.71875 L 69.34375 79.710938 C 69.515625 79.40625 69.898438 79.292969 70.207031 79.464844 C 70.511719 79.636719 70.625 80.019531 70.453125 80.324219 L 65.425781 89.332031 C 65.3125 89.53125 65.105469 89.652344 64.871094 89.652344 Z M 64.855469 89.660156 " fill-opacity="1" fill-rule="nonzero"/><path fill="#050a44" d="M 26.839844 137.488281 C 26.839844 142.15625 30.625 145.933594 35.28125 145.933594 C 39.941406 145.933594 43.726562 142.148438 43.726562 137.488281 C 43.726562 132.832031 39.941406 129.046875 35.28125 129.046875 C 30.625 129.046875 26.839844 132.832031 26.839844 137.488281 Z M 26.839844 137.488281 " fill-opacity="1" fill-rule="nonzero"/><path fill="#050a44" d="M 63.304688 124.402344 L 46.121094 124.402344 C 42.347656 124.402344 39.273438 121.332031 39.273438 117.554688 C 39.273438 117.292969 39.484375 117.078125 39.753906 117.078125 C 40.023438 117.078125 40.234375 117.285156 40.234375 117.554688 C 40.234375 120.808594 42.878906 123.453125 46.128906 123.453125 L 63.3125 123.453125 C 63.574219 123.453125 63.792969 123.660156 63.792969 123.929688 C 63.792969 124.199219 63.582031 124.410156 63.3125 124.410156 Z M 63.304688 124.402344 " fill-opacity="1" fill-rule="nonzero"/><path fill="#050a44" d="M 70.011719 123.902344 C 70.011719 122.664062 69.007812 121.660156 67.769531 121.660156 L 64.835938 121.660156 C 63.597656 121.660156 62.59375 122.664062 62.59375 123.902344 C 62.59375 125.136719 63.597656 126.140625 64.835938 126.140625 L 67.769531 126.140625 C 69.007812 126.140625 70.011719 125.136719 70.011719 123.902344 Z M 70.011719 123.902344 " fill-opacity="1" fill-rule="nonzero"/><path fill="#e4e6ef" d="M 26.375 94.796875 L 23.695312 94.835938 C 23.515625 94.15625 23.230469 93.503906 22.863281 92.910156 L 24.742188 90.984375 C 24.808594 90.910156 24.847656 90.820312 24.847656 90.714844 C 24.847656 90.617188 24.800781 90.519531 24.734375 90.453125 L 22.472656 88.25 C 22.324219 88.109375 22.082031 88.109375 21.941406 88.25 L 20.070312 90.175781 C 19.445312 89.824219 18.796875 89.554688 18.121094 89.390625 L 18.082031 86.714844 C 18.082031 86.507812 17.910156 86.339844 17.703125 86.339844 L 14.53125 86.378906 C 14.324219 86.378906 14.15625 86.550781 14.164062 86.761719 L 14.203125 89.433594 C 13.535156 89.621094 12.890625 89.898438 12.277344 90.273438 L 10.351562 88.402344 C 10.210938 88.257812 9.96875 88.257812 9.820312 88.402344 L 7.609375 90.664062 C 7.46875 90.8125 7.46875 91.054688 7.609375 91.195312 L 9.527344 93.066406 C 9.183594 93.675781 8.921875 94.328125 8.75 95.015625 L 6.066406 95.054688 C 5.859375 95.054688 5.691406 95.226562 5.699219 95.433594 L 5.738281 98.605469 C 5.738281 98.8125 5.910156 98.980469 6.113281 98.972656 L 8.792969 98.933594 C 8.980469 99.617188 9.265625 100.257812 9.625 100.859375 L 7.753906 102.792969 C 7.601562 102.941406 7.609375 103.179688 7.753906 103.324219 L 10.023438 105.535156 C 10.164062 105.675781 10.414062 105.667969 10.554688 105.535156 L 12.425781 103.609375 C 13.0625 103.96875 13.714844 104.230469 14.375 104.394531 L 14.414062 107.078125 C 14.414062 107.285156 14.585938 107.449219 14.792969 107.449219 L 17.964844 107.414062 C 18.171875 107.414062 18.339844 107.242188 18.332031 107.03125 L 18.292969 104.351562 C 18.953125 104.171875 19.597656 103.894531 20.226562 103.519531 L 22.144531 105.398438 C 22.292969 105.539062 22.539062 105.535156 22.683594 105.398438 L 24.894531 103.128906 C 25.035156 102.980469 25.035156 102.746094 24.894531 102.597656 L 22.960938 100.714844 C 23.3125 100.109375 23.574219 99.464844 23.738281 98.777344 L 26.421875 98.738281 C 26.628906 98.738281 26.796875 98.566406 26.796875 98.355469 L 26.757812 95.1875 C 26.757812 94.980469 26.585938 94.8125 26.375 94.820312 Z M 16.308594 101.179688 C 13.941406 101.210938 11.992188 99.308594 11.964844 96.941406 C 11.933594 94.582031 13.828125 92.632812 16.195312 92.605469 C 18.554688 92.574219 20.503906 94.46875 20.53125 96.828125 C 20.5625 99.195312 18.667969 101.144531 16.308594 101.171875 Z M 16.308594 101.179688 " fill-opacity="1" fill-rule="nonzero"/><path fill="#050a44" d="M 14.792969 107.699219 C 14.628906 107.699219 14.472656 107.628906 14.351562 107.519531 C 14.234375 107.398438 14.164062 107.242188 14.164062 107.078125 L 14.136719 104.589844 C 13.582031 104.433594 13.027344 104.214844 12.488281 103.921875 L 10.75 105.714844 C 10.636719 105.824219 10.472656 105.902344 10.308594 105.902344 C 10.148438 105.886719 9.976562 105.839844 9.859375 105.726562 L 7.589844 103.519531 C 7.46875 103.40625 7.402344 103.25 7.402344 103.078125 C 7.402344 102.910156 7.460938 102.746094 7.582031 102.625 L 9.320312 100.835938 C 9.027344 100.320312 8.792969 99.773438 8.613281 99.210938 L 6.128906 99.242188 C 5.976562 99.25 5.796875 99.179688 5.679688 99.0625 C 5.558594 98.941406 5.492188 98.785156 5.492188 98.621094 L 5.445312 95.449219 C 5.445312 95.105469 5.722656 94.820312 6.066406 94.8125 L 8.554688 94.785156 C 8.710938 94.214844 8.9375 93.660156 9.214844 93.136719 L 7.429688 91.398438 C 7.3125 91.285156 7.242188 91.128906 7.242188 90.964844 C 7.242188 90.792969 7.304688 90.632812 7.421875 90.507812 L 9.632812 88.242188 C 9.753906 88.125 9.917969 88.058594 10.082031 88.058594 C 10.246094 88.058594 10.40625 88.125 10.523438 88.238281 L 12.308594 89.972656 C 12.832031 89.675781 13.378906 89.433594 13.941406 89.261719 L 13.910156 86.785156 C 13.910156 86.4375 14.179688 86.152344 14.53125 86.148438 L 17.703125 86.109375 C 18.046875 86.109375 18.324219 86.386719 18.332031 86.730469 L 18.359375 89.210938 C 18.929688 89.367188 19.484375 89.59375 20.007812 89.878906 L 21.746094 88.09375 C 21.992188 87.847656 22.390625 87.839844 22.636719 88.078125 L 24.898438 90.28125 C 25.019531 90.402344 25.085938 90.566406 25.09375 90.722656 C 25.09375 90.894531 25.035156 91.054688 24.914062 91.171875 L 23.167969 92.957031 C 23.46875 93.472656 23.703125 94.019531 23.875 94.589844 L 26.359375 94.558594 C 26.707031 94.558594 26.988281 94.835938 26.988281 95.179688 L 27.027344 98.347656 C 27.027344 98.695312 26.757812 98.980469 26.40625 98.984375 L 23.917969 99.015625 C 23.769531 99.59375 23.542969 100.140625 23.257812 100.664062 L 25.050781 102.410156 C 25.296875 102.648438 25.304688 103.046875 25.066406 103.292969 L 22.855469 105.5625 C 22.617188 105.804688 22.210938 105.8125 21.964844 105.578125 L 20.179688 103.832031 C 19.648438 104.132812 19.101562 104.371094 18.546875 104.535156 L 18.578125 107.023438 C 18.578125 107.367188 18.300781 107.660156 17.957031 107.660156 L 14.789062 107.699219 Z M 12.441406 103.351562 C 12.488281 103.351562 12.523438 103.367188 12.570312 103.382812 C 13.183594 103.726562 13.8125 103.984375 14.449219 104.140625 C 14.5625 104.171875 14.636719 104.265625 14.644531 104.378906 L 14.683594 107.0625 C 14.683594 107.121094 14.75 107.179688 14.800781 107.179688 L 17.972656 107.144531 C 18.039062 107.144531 18.089844 107.089844 18.089844 107.015625 L 18.054688 104.335938 C 18.054688 104.222656 18.128906 104.117188 18.242188 104.085938 C 18.871094 103.914062 19.5 103.644531 20.105469 103.277344 C 20.203125 103.21875 20.332031 103.234375 20.414062 103.316406 L 22.332031 105.195312 C 22.375 105.234375 22.464844 105.234375 22.511719 105.195312 L 24.71875 102.925781 C 24.765625 102.882812 24.765625 102.800781 24.71875 102.753906 L 22.796875 100.875 C 22.710938 100.792969 22.699219 100.664062 22.75 100.566406 C 23.09375 99.984375 23.34375 99.351562 23.5 98.695312 C 23.527344 98.582031 23.625 98.5 23.738281 98.5 L 26.421875 98.460938 C 26.488281 98.460938 26.539062 98.410156 26.539062 98.34375 L 26.503906 95.171875 C 26.503906 95.105469 26.449219 95.054688 26.382812 95.054688 L 23.703125 95.089844 C 23.589844 95.089844 23.484375 95.015625 23.453125 94.902344 C 23.28125 94.246094 23.011719 93.621094 22.652344 93.046875 C 22.59375 92.949219 22.609375 92.820312 22.691406 92.738281 L 24.570312 90.8125 C 24.570312 90.8125 24.601562 90.753906 24.601562 90.722656 C 24.601562 90.695312 24.585938 90.664062 24.5625 90.640625 L 22.300781 88.4375 C 22.253906 88.394531 22.171875 88.394531 22.128906 88.4375 L 20.253906 90.363281 C 20.171875 90.445312 20.046875 90.46875 19.949219 90.410156 C 19.347656 90.0625 18.710938 89.808594 18.0625 89.644531 C 17.949219 89.613281 17.875 89.519531 17.867188 89.40625 L 17.828125 86.730469 C 17.828125 86.664062 17.777344 86.609375 17.707031 86.609375 L 14.539062 86.648438 C 14.472656 86.648438 14.421875 86.707031 14.421875 86.769531 L 14.457031 89.441406 C 14.457031 89.554688 14.382812 89.660156 14.269531 89.691406 C 13.625 89.871094 13.003906 90.140625 12.40625 90.5 C 12.308594 90.558594 12.179688 90.542969 12.097656 90.460938 L 10.171875 88.589844 C 10.171875 88.589844 10.113281 88.550781 10.089844 88.550781 C 10.089844 88.550781 10.023438 88.566406 10 88.589844 L 7.789062 90.851562 C 7.789062 90.851562 7.753906 90.910156 7.753906 90.941406 C 7.753906 90.964844 7.753906 90.992188 7.789062 91.023438 L 9.707031 92.902344 C 9.789062 92.984375 9.804688 93.105469 9.753906 93.210938 C 9.417969 93.800781 9.167969 94.4375 8.996094 95.097656 C 8.964844 95.210938 8.871094 95.285156 8.757812 95.292969 L 6.082031 95.332031 C 6.015625 95.332031 5.960938 95.382812 5.960938 95.449219 L 6.007812 98.621094 C 6.007812 98.6875 6.058594 98.738281 6.128906 98.738281 L 8.800781 98.703125 C 8.914062 98.703125 9.019531 98.777344 9.050781 98.890625 C 9.230469 99.539062 9.5 100.167969 9.851562 100.746094 C 9.910156 100.84375 9.894531 100.972656 9.8125 101.054688 L 7.941406 102.988281 C 7.902344 103.03125 7.902344 103.121094 7.941406 103.160156 L 10.210938 105.367188 C 10.210938 105.367188 10.253906 105.398438 10.292969 105.398438 C 10.332031 105.398438 10.359375 105.382812 10.375 105.367188 L 12.253906 103.445312 C 12.308594 103.390625 12.367188 103.367188 12.433594 103.367188 Z M 16.253906 101.4375 C 13.777344 101.4375 11.746094 99.4375 11.707031 96.949219 C 11.695312 95.734375 12.152344 94.597656 12.996094 93.726562 C 13.84375 92.859375 14.980469 92.371094 16.195312 92.355469 L 16.253906 92.355469 C 18.726562 92.355469 20.757812 94.347656 20.789062 96.835938 C 20.816406 99.347656 18.808594 101.40625 16.316406 101.441406 L 16.253906 101.441406 Z M 16.308594 101.179688 Z M 16.253906 92.859375 C 16.253906 92.859375 16.21875 92.859375 16.203125 92.859375 C 15.125 92.875 14.121094 93.308594 13.363281 94.078125 C 12.605469 94.851562 12.203125 95.871094 12.21875 96.941406 C 12.246094 99.152344 14.054688 100.925781 16.253906 100.925781 C 16.269531 100.925781 16.292969 100.925781 16.308594 100.925781 C 18.523438 100.894531 20.308594 99.0625 20.277344 96.835938 C 20.25 94.632812 18.449219 92.859375 16.253906 92.859375 Z M 16.253906 92.859375 " fill-opacity="1" fill-rule="nonzero"/><path fill="#0a21c0" d="M 55.484375 75.488281 L 49.097656 75.488281 L 52.542969 81.226562 C 52.691406 81.472656 52.414062 81.757812 52.160156 81.613281 L 41.179688 75.480469 L 24.652344 75.480469 C 22.359375 75.480469 20.503906 73.621094 20.503906 71.328125 L 20.503906 64.289062 C 20.503906 61.996094 22.359375 60.136719 24.652344 60.136719 L 55.484375 60.136719 C 57.777344 60.136719 59.636719 61.996094 59.636719 64.289062 L 59.636719 71.328125 C 59.636719 73.621094 57.777344 75.480469 55.484375 75.480469 Z M 55.484375 75.488281 " fill-opacity="1" fill-rule="nonzero"/><path fill="#e4e6ef" d="M 53.921875 67.628906 C 53.921875 67.777344 53.890625 67.921875 53.835938 68.058594 C 53.777344 68.195312 53.695312 68.316406 53.589844 68.421875 C 53.484375 68.527344 53.363281 68.609375 53.226562 68.667969 C 53.089844 68.722656 52.945312 68.753906 52.796875 68.753906 C 52.648438 68.753906 52.503906 68.722656 52.367188 68.667969 C 52.230469 68.609375 52.105469 68.527344 52.003906 68.421875 C 51.898438 68.316406 51.816406 68.195312 51.757812 68.058594 C 51.703125 67.921875 51.671875 67.777344 51.671875 67.628906 C 51.671875 67.480469 51.703125 67.335938 51.757812 67.199219 C 51.816406 67.0625 51.898438 66.941406 52.003906 66.835938 C 52.105469 66.730469 52.230469 66.648438 52.367188 66.589844 C 52.503906 66.535156 52.648438 66.503906 52.796875 66.503906 C 52.945312 66.503906 53.089844 66.535156 53.226562 66.589844 C 53.363281 66.648438 53.484375 66.730469 53.589844 66.835938 C 53.695312 66.941406 53.777344 67.0625 53.835938 67.199219 C 53.890625 67.335938 53.921875 67.480469 53.921875 67.628906 Z M 53.921875 67.628906 " fill-opacity="1" fill-rule="nonzero"/><path fill="#e4e6ef" d="M 48.828125 67.628906 C 48.828125 67.777344 48.796875 67.921875 48.742188 68.058594 C 48.683594 68.195312 48.601562 68.316406 48.496094 68.421875 C 48.390625 68.527344 48.269531 68.609375 48.132812 68.667969 C 47.996094 68.722656 47.851562 68.753906 47.703125 68.753906 C 47.554688 68.753906 47.410156 68.722656 47.273438 68.667969 C 47.136719 68.609375 47.011719 68.527344 46.90625 68.421875 C 46.804688 68.316406 46.722656 68.195312 46.664062 68.058594 C 46.609375 67.921875 46.578125 67.777344 46.578125 67.628906 C 46.578125 67.480469 46.609375 67.335938 46.664062 67.199219 C 46.722656 67.0625 46.804688 66.941406 46.90625 66.835938 C 47.011719 66.730469 47.136719 66.648438 47.273438 66.589844 C 47.410156 66.535156 47.554688 66.503906 47.703125 66.503906 C 47.851562 66.503906 47.996094 66.535156 48.132812 66.589844 C 48.269531 66.648438 48.390625 66.730469 48.496094 66.835938 C 48.601562 66.941406 48.683594 67.0625 48.742188 67.199219 C 48.796875 67.335938 48.828125 67.480469 48.828125 67.628906 Z M 48.828125 67.628906 " fill-opacity="1" fill-rule="nonzero"/><path fill="#e4e6ef" d="M 41.492188 67.628906 C 41.492188 68.25 41.996094 68.753906 42.617188 68.753906 C 43.238281 68.753906 43.738281 68.25 43.738281 67.628906 C 43.738281 67.007812 43.238281 66.503906 42.617188 66.503906 C 41.996094 66.503906 41.492188 67.007812 41.492188 67.628906 Z M 41.492188 67.628906 " fill-opacity="1" fill-rule="nonzero"/><path fill="#e4e6ef" d="M 36.398438 67.628906 C 36.398438 68.25 36.902344 68.753906 37.523438 68.753906 C 38.144531 68.753906 38.644531 68.25 38.644531 67.628906 C 38.644531 67.007812 38.144531 66.503906 37.523438 66.503906 C 36.902344 66.503906 36.398438 67.007812 36.398438 67.628906 Z M 36.398438 67.628906 " fill-opacity="1" fill-rule="nonzero"/><path fill="#e4e6ef" d="M 31.3125 67.628906 C 31.3125 68.25 31.8125 68.753906 32.4375 68.753906 C 33.058594 68.753906 33.558594 68.25 33.558594 67.628906 C 33.558594 67.007812 33.058594 66.503906 32.4375 66.503906 C 31.8125 66.503906 31.3125 67.007812 31.3125 67.628906 Z M 31.3125 67.628906 " fill-opacity="1" fill-rule="nonzero"/><path fill="#e4e6ef" d="M 28.464844 67.628906 C 28.464844 67.777344 28.4375 67.921875 28.378906 68.058594 C 28.324219 68.195312 28.242188 68.316406 28.136719 68.421875 C 28.03125 68.527344 27.910156 68.609375 27.773438 68.667969 C 27.632812 68.722656 27.492188 68.753906 27.34375 68.753906 C 27.191406 68.753906 27.050781 68.722656 26.914062 68.667969 C 26.773438 68.609375 26.652344 68.527344 26.546875 68.421875 C 26.441406 68.316406 26.359375 68.195312 26.304688 68.058594 C 26.246094 67.921875 26.21875 67.777344 26.21875 67.628906 C 26.21875 67.480469 26.246094 67.335938 26.304688 67.199219 C 26.359375 67.0625 26.441406 66.941406 26.546875 66.835938 C 26.652344 66.730469 26.773438 66.648438 26.914062 66.589844 C 27.050781 66.535156 27.191406 66.503906 27.34375 66.503906 C 27.492188 66.503906 27.632812 66.535156 27.773438 66.589844 C 27.910156 66.648438 28.03125 66.730469 28.136719 66.835938 C 28.242188 66.941406 28.324219 67.0625 28.378906 67.199219 C 28.4375 67.335938 28.464844 67.480469 28.464844 67.628906 Z M 28.464844 67.628906 " fill-opacity="1" fill-rule="nonzero"/><path fill="#e4e6ef" d="M 172.210938 63.148438 L 165.820312 63.148438 L 167.535156 66.925781 L 160.238281 63.148438 L 141.378906 63.148438 C 139.085938 63.148438 137.226562 61.292969 137.226562 59 L 137.226562 51.957031 C 137.226562 49.664062 139.085938 47.808594 141.378906 47.808594 L 172.210938 47.808594 C 174.503906 47.808594 176.359375 49.664062 176.359375 51.957031 L 176.359375 59 C 176.359375 61.292969 174.503906 63.148438 172.210938 63.148438 Z M 172.210938 63.148438 " fill-opacity="1" fill-rule="nonzero"/><path fill="#050a44" d="M 167.535156 67.179688 C 167.5 67.179688 167.453125 67.171875 167.417969 67.148438 L 160.179688 63.394531 L 141.378906 63.394531 C 138.949219 63.394531 136.972656 61.417969 136.972656 58.992188 L 136.972656 51.949219 C 136.972656 49.523438 138.949219 47.546875 141.378906 47.546875 L 172.210938 47.546875 C 174.636719 47.546875 176.617188 49.523438 176.617188 51.949219 L 176.617188 58.992188 C 176.617188 61.417969 174.636719 63.394531 172.210938 63.394531 L 166.210938 63.394531 L 167.761719 66.820312 C 167.804688 66.917969 167.785156 67.035156 167.699219 67.113281 C 167.65625 67.15625 167.589844 67.179688 167.527344 67.179688 Z M 141.378906 48.0625 C 139.226562 48.0625 137.480469 49.808594 137.480469 51.957031 L 137.480469 59 C 137.480469 61.148438 139.226562 62.894531 141.378906 62.894531 L 160.238281 62.894531 C 160.277344 62.894531 160.324219 62.902344 160.359375 62.925781 L 167.003906 66.363281 L 165.597656 63.253906 C 165.558594 63.179688 165.566406 63.082031 165.609375 63.015625 C 165.65625 62.941406 165.738281 62.894531 165.820312 62.894531 L 172.21875 62.894531 C 174.367188 62.894531 176.113281 61.148438 176.113281 59 L 176.113281 51.957031 C 176.113281 49.808594 174.367188 48.0625 172.21875 48.0625 Z M 141.378906 48.0625 " fill-opacity="1" fill-rule="nonzero"/><path fill="#050a44" d="M 168.398438 55.285156 C 168.398438 55.90625 168.898438 56.40625 169.519531 56.40625 C 170.144531 56.40625 170.644531 55.90625 170.644531 55.285156 C 170.644531 54.660156 170.144531 54.160156 169.519531 54.160156 C 168.898438 54.160156 168.398438 54.660156 168.398438 55.285156 Z M 168.398438 55.285156 " fill-opacity="1" fill-rule="nonzero"/><path fill="#050a44" d="M 163.3125 55.285156 C 163.3125 55.90625 163.8125 56.40625 164.433594 56.40625 C 165.058594 56.40625 165.558594 55.90625 165.558594 55.285156 C 165.558594 54.660156 165.058594 54.160156 164.433594 54.160156 C 163.8125 54.160156 163.3125 54.660156 163.3125 55.285156 Z M 163.3125 55.285156 " fill-opacity="1" fill-rule="nonzero"/><path fill="#050a44" d="M 158.21875 55.285156 C 158.21875 55.90625 158.71875 56.40625 159.339844 56.40625 C 159.964844 56.40625 160.464844 55.90625 160.464844 55.285156 C 160.464844 54.660156 159.964844 54.160156 159.339844 54.160156 C 158.71875 54.160156 158.21875 54.660156 158.21875 55.285156 Z M 158.21875 55.285156 " fill-opacity="1" fill-rule="nonzero"/><path fill="#050a44" d="M 155.378906 55.285156 C 155.378906 55.433594 155.351562 55.574219 155.292969 55.714844 C 155.234375 55.851562 155.15625 55.972656 155.050781 56.078125 C 154.945312 56.183594 154.824219 56.265625 154.683594 56.320312 C 154.546875 56.378906 154.402344 56.40625 154.253906 56.40625 C 154.105469 56.40625 153.960938 56.378906 153.824219 56.320312 C 153.6875 56.265625 153.566406 56.183594 153.460938 56.078125 C 153.355469 55.972656 153.273438 55.851562 153.214844 55.714844 C 153.160156 55.574219 153.132812 55.433594 153.132812 55.285156 C 153.132812 55.132812 153.160156 54.992188 153.214844 54.855469 C 153.273438 54.714844 153.355469 54.59375 153.460938 54.488281 C 153.566406 54.382812 153.6875 54.300781 153.824219 54.246094 C 153.960938 54.1875 154.105469 54.160156 154.253906 54.160156 C 154.402344 54.160156 154.546875 54.1875 154.683594 54.246094 C 154.824219 54.300781 154.945312 54.382812 155.050781 54.488281 C 155.15625 54.59375 155.234375 54.714844 155.292969 54.855469 C 155.351562 54.992188 155.378906 55.132812 155.378906 55.285156 Z M 155.378906 55.285156 " fill-opacity="1" fill-rule="nonzero"/><path fill="#050a44" d="M 150.285156 55.285156 C 150.285156 55.433594 150.257812 55.574219 150.199219 55.714844 C 150.140625 55.851562 150.0625 55.972656 149.957031 56.078125 C 149.851562 56.183594 149.730469 56.265625 149.589844 56.320312 C 149.453125 56.378906 149.308594 56.40625 149.160156 56.40625 C 149.011719 56.40625 148.867188 56.378906 148.730469 56.320312 C 148.59375 56.265625 148.472656 56.183594 148.367188 56.078125 C 148.261719 55.972656 148.179688 55.851562 148.121094 55.714844 C 148.066406 55.574219 148.039062 55.433594 148.039062 55.285156 C 148.039062 55.132812 148.066406 54.992188 148.121094 54.855469 C 148.179688 54.714844 148.261719 54.59375 148.367188 54.488281 C 148.472656 54.382812 148.59375 54.300781 148.730469 54.246094 C 148.867188 54.1875 149.011719 54.160156 149.160156 54.160156 C 149.308594 54.160156 149.453125 54.1875 149.589844 54.246094 C 149.730469 54.300781 149.851562 54.382812 149.957031 54.488281 C 150.0625 54.59375 150.140625 54.714844 150.199219 54.855469 C 150.257812 54.992188 150.285156 55.132812 150.285156 55.285156 Z M 150.285156 55.285156 " fill-opacity="1" fill-rule="nonzero"/><path fill="#050a44" d="M 142.949219 55.285156 C 142.949219 55.90625 143.453125 56.40625 144.074219 56.40625 C 144.695312 56.40625 145.199219 55.90625 145.199219 55.285156 C 145.199219 54.660156 144.695312 54.160156 144.074219 54.160156 C 143.453125 54.160156 142.949219 54.660156 142.949219 55.285156 Z M 142.949219 55.285156 " fill-opacity="1" fill-rule="nonzero"/><path fill="#0a21c0" d="M 39.582031 176.675781 C 37.378906 176.675781 34.707031 176.472656 32.175781 175.386719 C 29.246094 174.1875 26.914062 171.671875 25.828125 168.511719 C 24.023438 163.101562 24.734375 157.371094 25.550781 152.980469 C 26.488281 148.382812 28.0625 143.664062 30.234375 138.90625 C 30.960938 137.308594 32.847656 136.605469 34.4375 137.339844 C 36.03125 138.066406 36.726562 139.953125 36 141.542969 C 34.023438 145.859375 32.609375 150.113281 31.777344 154.1875 C 31.066406 158 30.503906 162.488281 31.828125 166.457031 C 32.308594 167.84375 33.359375 169.003906 34.625 169.523438 C 36.390625 170.277344 38.457031 170.34375 40.25 170.308594 C 44.503906 170.203125 48.757812 169.28125 53.476562 168.179688 C 55.179688 167.777344 56.886719 168.839844 57.292969 170.546875 C 57.6875 172.253906 56.632812 173.964844 54.925781 174.359375 C 49.851562 175.542969 45.261719 176.539062 40.390625 176.652344 C 40.128906 176.652344 39.851562 176.660156 39.574219 176.660156 Z M 39.582031 176.675781 " fill-opacity="1" fill-rule="nonzero"/><path fill="#050a44" d="M 34.40625 145.460938 C 34.40625 145.460938 34.347656 145.460938 34.316406 145.445312 L 28.375 143.136719 C 28.25 143.085938 28.179688 142.945312 28.234375 142.808594 C 28.285156 142.679688 28.429688 142.613281 28.5625 142.667969 L 34.503906 144.972656 C 34.632812 145.027344 34.699219 145.167969 34.644531 145.304688 C 34.609375 145.402344 34.511719 145.46875 34.40625 145.46875 Z M 34.40625 145.460938 " fill-opacity="1" fill-rule="nonzero"/><path fill="#050a44" d="M 32.097656 152.777344 C 32.097656 152.777344 32.0625 152.777344 32.039062 152.777344 L 25.84375 151.296875 C 25.710938 151.265625 25.625 151.125 25.65625 150.988281 C 25.6875 150.855469 25.820312 150.765625 25.964844 150.800781 L 32.160156 152.285156 C 32.292969 152.316406 32.375 152.457031 32.347656 152.59375 C 32.316406 152.710938 32.210938 152.785156 32.097656 152.785156 Z M 32.097656 152.777344 " fill-opacity="1" fill-rule="nonzero"/><path fill="#050a44" d="M 31.035156 160.171875 L 31.027344 160.171875 L 24.660156 159.925781 C 24.519531 159.925781 24.414062 159.796875 24.414062 159.664062 C 24.414062 159.519531 24.527344 159.429688 24.675781 159.417969 L 31.042969 159.664062 C 31.183594 159.664062 31.289062 159.789062 31.28125 159.925781 C 31.28125 160.058594 31.164062 160.171875 31.027344 160.171875 Z M 31.035156 160.171875 " fill-opacity="1" fill-rule="nonzero"/><path fill="#050a44" d="M 25.917969 169.214844 C 25.820312 169.214844 25.722656 169.15625 25.6875 169.058594 C 25.632812 168.929688 25.703125 168.78125 25.828125 168.726562 L 31.746094 166.359375 C 31.875 166.308594 32.023438 166.367188 32.078125 166.503906 C 32.128906 166.628906 32.070312 166.78125 31.933594 166.832031 L 26.015625 169.199219 C 26.015625 169.199219 25.957031 169.214844 25.917969 169.214844 Z M 25.917969 169.214844 " fill-opacity="1" fill-rule="nonzero"/><path fill="#050a44" d="M 33.792969 176.269531 C 33.792969 176.269531 33.746094 176.269531 33.71875 176.261719 C 33.582031 176.226562 33.507812 176.082031 33.542969 175.949219 L 35.328125 169.828125 C 35.363281 169.695312 35.5 169.617188 35.640625 169.65625 C 35.777344 169.695312 35.851562 169.835938 35.816406 169.972656 L 34.03125 176.089844 C 34 176.203125 33.898438 176.269531 33.792969 176.269531 Z M 33.792969 176.269531 " fill-opacity="1" fill-rule="nonzero"/><path fill="#050a44" d="M 43.003906 176.832031 C 42.878906 176.832031 42.765625 176.734375 42.75 176.601562 L 42.1875 170.253906 C 42.175781 170.113281 42.277344 169.992188 42.421875 169.976562 C 42.554688 169.964844 42.683594 170.070312 42.699219 170.210938 L 43.261719 176.554688 C 43.277344 176.699219 43.171875 176.816406 43.027344 176.832031 C 43.027344 176.832031 43.011719 176.832031 43.003906 176.832031 Z M 43.003906 176.832031 " fill-opacity="1" fill-rule="nonzero"/><path fill="#050a44" d="M 51.386719 175.5 C 51.269531 175.5 51.164062 175.417969 51.140625 175.296875 L 49.824219 169.066406 C 49.792969 168.929688 49.882812 168.792969 50.015625 168.765625 C 50.160156 168.734375 50.289062 168.824219 50.316406 168.960938 L 51.636719 175.191406 C 51.664062 175.328125 51.574219 175.460938 51.441406 175.492188 C 51.425781 175.492188 51.402344 175.492188 51.386719 175.492188 Z M 51.386719 175.5 " fill-opacity="1" fill-rule="nonzero"/><path fill="#e4e6ef" d="M 58.683594 165.117188 C 58.683594 165.117188 65.867188 162.578125 68.519531 162.398438 C 72.789062 162.105469 75.410156 163.542969 76.78125 165.417969 C 78.4375 167.671875 78.796875 173.695312 78.851562 174.832031 C 78.910156 175.964844 77.300781 176.375 76.265625 174.878906 C 76.265625 174.878906 75.980469 176.152344 75.128906 176.621094 C 74.4375 177.003906 73.140625 176.359375 73.140625 176.359375 C 73.140625 176.359375 72.402344 177.558594 71.539062 177.523438 C 70.675781 177.492188 70.167969 176.789062 70.167969 176.789062 C 70.167969 176.789062 69.492188 177.550781 68.828125 177.394531 C 68.160156 177.238281 67.824219 176.652344 67.695312 175.328125 C 67.570312 173.992188 67.328125 173.207031 67.328125 173.207031 C 67.328125 173.207031 63.195312 174.40625 60.390625 174.707031 L 58.667969 165.109375 Z M 58.683594 165.117188 " fill-opacity="1" fill-rule="nonzero"/><path fill="#050a44" d="M 71.585938 177.785156 L 71.539062 177.785156 C 70.886719 177.761719 70.414062 177.402344 70.167969 177.164062 C 69.882812 177.410156 69.34375 177.777344 68.78125 177.65625 C 67.785156 177.425781 67.554688 176.367188 67.457031 175.363281 C 67.375 174.496094 67.238281 173.859375 67.164062 173.535156 C 66.21875 173.800781 62.835938 174.71875 60.4375 174.976562 C 60.296875 174.976562 60.183594 174.898438 60.160156 174.765625 L 58.4375 165.167969 C 58.414062 165.050781 58.480469 164.929688 58.601562 164.882812 C 58.894531 164.78125 65.847656 162.335938 68.503906 162.148438 C 72.3125 161.878906 75.320312 162.996094 76.992188 165.273438 C 78.625 167.5 79.03125 173.148438 79.113281 174.824219 C 79.140625 175.394531 78.828125 175.859375 78.304688 176.039062 C 77.808594 176.203125 77.046875 176.121094 76.378906 175.410156 C 76.207031 175.859375 75.863281 176.519531 75.261719 176.855469 C 74.625 177.207031 73.667969 176.871094 73.246094 176.691406 C 72.984375 177.050781 72.347656 177.792969 71.589844 177.792969 Z M 70.183594 176.539062 L 70.199219 176.539062 C 70.273438 176.539062 70.347656 176.578125 70.394531 176.644531 C 70.394531 176.644531 70.851562 177.246094 71.570312 177.273438 C 71.578125 177.273438 71.585938 177.273438 71.589844 177.273438 C 72.167969 177.273438 72.761719 176.527344 72.941406 176.234375 C 73.007812 176.121094 73.148438 176.082031 73.269531 176.144531 C 73.597656 176.308594 74.542969 176.667969 75.015625 176.414062 C 75.757812 176 76.027344 174.839844 76.035156 174.832031 C 76.054688 174.734375 76.132812 174.660156 76.234375 174.636719 C 76.332031 174.621094 76.4375 174.660156 76.492188 174.742188 C 77.023438 175.515625 77.703125 175.710938 78.136719 175.558594 C 78.445312 175.453125 78.625 175.191406 78.601562 174.855469 C 78.542969 173.6875 78.167969 167.746094 76.582031 165.582031 C 75.015625 163.453125 72.167969 162.425781 68.535156 162.667969 C 66.199219 162.824219 60.160156 164.890625 58.96875 165.304688 L 60.609375 174.449219 C 63.351562 174.113281 67.222656 172.996094 67.261719 172.980469 C 67.398438 172.945312 67.539062 173.019531 67.578125 173.15625 C 67.582031 173.183594 67.816406 173.984375 67.949219 175.320312 C 68.09375 176.789062 68.484375 177.074219 68.886719 177.167969 C 69.308594 177.28125 69.824219 176.824219 69.980469 176.636719 C 70.027344 176.585938 70.101562 176.554688 70.167969 176.554688 Z M 70.183594 176.539062 " fill-opacity="1" fill-rule="nonzero"/><path fill="#050a44" d="M 67.34375 173.460938 C 67.214844 173.460938 67.105469 173.363281 67.089844 173.230469 C 67.015625 172.316406 66.28125 169.972656 66.273438 169.949219 C 66.226562 169.8125 66.304688 169.671875 66.4375 169.632812 C 66.574219 169.589844 66.714844 169.664062 66.753906 169.796875 C 66.78125 169.894531 67.507812 172.21875 67.589844 173.183594 C 67.605469 173.328125 67.5 173.445312 67.359375 173.460938 C 67.359375 173.460938 67.34375 173.460938 67.335938 173.460938 Z M 67.34375 173.460938 " fill-opacity="1" fill-rule="nonzero"/><path fill="#050a44" d="M 70.183594 177.050781 C 70.183594 177.050781 70.125 177.050781 70.09375 177.035156 C 69.957031 176.984375 69.898438 176.839844 69.945312 176.707031 C 69.945312 176.699219 70.265625 175.820312 70.21875 174.210938 C 70.175781 172.570312 69.613281 170.136719 69.613281 170.113281 C 69.582031 169.976562 69.667969 169.84375 69.800781 169.804688 C 69.945312 169.769531 70.070312 169.859375 70.109375 169.992188 C 70.128906 170.097656 70.683594 172.503906 70.730469 174.195312 C 70.773438 175.910156 70.429688 176.839844 70.414062 176.878906 C 70.378906 176.984375 70.28125 177.042969 70.175781 177.042969 Z M 70.183594 177.050781 " fill-opacity="1" fill-rule="nonzero"/><path fill="#050a44" d="M 73.148438 176.617188 C 73.148438 176.617188 73.105469 176.617188 73.082031 176.609375 C 72.949219 176.570312 72.863281 176.4375 72.902344 176.292969 C 72.902344 176.277344 73.246094 174.976562 73.140625 173.257812 C 73.042969 171.527344 72.4375 169.65625 72.429688 169.640625 C 72.386719 169.507812 72.460938 169.363281 72.59375 169.320312 C 72.730469 169.273438 72.871094 169.347656 72.917969 169.484375 C 72.941406 169.566406 73.546875 171.4375 73.652344 173.230469 C 73.757812 175.027344 73.40625 176.367188 73.390625 176.421875 C 73.359375 176.53125 73.253906 176.609375 73.140625 176.609375 Z M 73.148438 176.617188 " fill-opacity="1" fill-rule="nonzero"/><path fill="#050a44" d="M 76.273438 175.132812 L 76.265625 175.132812 C 76.125 175.132812 76.019531 175.011719 76.019531 174.871094 C 76.019531 174.839844 76.125 171.5 75.050781 169.132812 C 74.992188 169.003906 75.050781 168.855469 75.179688 168.792969 C 75.308594 168.742188 75.457031 168.792969 75.515625 168.921875 C 76.640625 171.402344 76.535156 174.75 76.527344 174.894531 C 76.527344 175.027344 76.410156 175.140625 76.273438 175.140625 Z M 76.273438 175.132812 " fill-opacity="1" fill-rule="nonzero"/><path fill="#050a44" d="M 71.585938 177.785156 L 71.539062 177.785156 C 70.886719 177.761719 70.414062 177.402344 70.167969 177.164062 C 69.882812 177.410156 69.34375 177.777344 68.78125 177.65625 C 67.785156 177.425781 67.554688 176.367188 67.457031 175.363281 C 67.375 174.496094 67.238281 173.859375 67.164062 173.535156 C 66.21875 173.800781 62.835938 174.71875 60.4375 174.976562 C 60.296875 174.976562 60.183594 174.898438 60.160156 174.765625 L 58.4375 165.167969 C 58.414062 165.050781 58.480469 164.929688 58.601562 164.882812 C 58.894531 164.78125 65.847656 162.335938 68.503906 162.148438 C 72.3125 161.878906 75.320312 162.996094 76.992188 165.273438 C 78.625 167.5 79.03125 173.148438 79.113281 174.824219 C 79.140625 175.394531 78.828125 175.859375 78.304688 176.039062 C 77.808594 176.203125 77.046875 176.121094 76.378906 175.410156 C 76.207031 175.859375 75.863281 176.519531 75.261719 176.855469 C 74.625 177.207031 73.667969 176.871094 73.246094 176.691406 C 72.984375 177.050781 72.347656 177.792969 71.589844 177.792969 Z M 70.183594 176.539062 L 70.199219 176.539062 C 70.273438 176.539062 70.347656 176.578125 70.394531 176.644531 C 70.394531 176.644531 70.851562 177.246094 71.570312 177.273438 C 71.578125 177.273438 71.585938 177.273438 71.589844 177.273438 C 72.167969 177.273438 72.761719 176.527344 72.941406 176.234375 C 73.007812 176.121094 73.148438 176.082031 73.269531 176.144531 C 73.597656 176.308594 74.542969 176.667969 75.015625 176.414062 C 75.757812 176 76.027344 174.839844 76.035156 174.832031 C 76.054688 174.734375 76.132812 174.660156 76.234375 174.636719 C 76.332031 174.621094 76.4375 174.660156 76.492188 174.742188 C 77.023438 175.515625 77.703125 175.710938 78.136719 175.558594 C 78.445312 175.453125 78.625 175.191406 78.601562 174.855469 C 78.542969 173.6875 78.167969 167.746094 76.582031 165.582031 C 75.015625 163.453125 72.167969 162.425781 68.535156 162.667969 C 66.199219 162.824219 60.160156 164.890625 58.96875 165.304688 L 60.609375 174.449219 C 63.351562 174.113281 67.222656 172.996094 67.261719 172.980469 C 67.398438 172.945312 67.539062 173.019531 67.578125 173.15625 C 67.582031 173.183594 67.816406 173.984375 67.949219 175.320312 C 68.09375 176.789062 68.484375 177.074219 68.886719 177.167969 C 69.308594 177.28125 69.824219 176.824219 69.980469 176.636719 C 70.027344 176.585938 70.101562 176.554688 70.167969 176.554688 Z M 70.183594 176.539062 " fill-opacity="1" fill-rule="nonzero"/><path fill="#050a44" d="M 54.191406 163.867188 L 59.308594 162.507812 C 60.25 162.257812 61.222656 162.820312 61.472656 163.761719 L 64.277344 174.324219 C 64.527344 175.265625 63.960938 176.238281 63.019531 176.488281 L 57.902344 177.847656 C 56.960938 178.097656 55.988281 177.53125 55.738281 176.589844 L 52.933594 166.027344 C 52.683594 165.085938 53.25 164.117188 54.191406 163.867188 Z M 54.191406 163.867188 " fill-opacity="1" fill-rule="nonzero"/><path fill="#e4e6ef" d="M 151.753906 176.570312 C 151.753906 177.867188 150.703125 178.921875 149.402344 178.921875 L 21.714844 178.921875 C 18.996094 178.921875 16.621094 177.140625 15.886719 174.519531 L 15.8125 174.226562 L 149.40625 174.226562 C 150.703125 174.226562 151.761719 175.273438 151.761719 176.578125 Z M 151.753906 176.570312 " fill-opacity="1" fill-rule="nonzero"/><g clip-path="url(#d39b2d285a)"><path fill="#050a44" d="M 149.40625 179.171875 L 21.714844 179.171875 C 18.898438 179.171875 16.40625 177.28125 15.648438 174.578125 L 15.574219 174.277344 C 15.550781 174.203125 15.574219 174.121094 15.617188 174.0625 C 15.664062 174 15.738281 173.964844 15.820312 173.964844 L 149.414062 173.964844 C 150.855469 173.964844 152.023438 175.132812 152.023438 176.570312 C 152.023438 178.007812 150.855469 179.175781 149.414062 179.175781 Z M 16.144531 174.472656 C 16.847656 176.9375 19.132812 178.660156 21.714844 178.660156 L 149.40625 178.660156 C 150.5625 178.660156 151.503906 177.722656 151.503906 176.5625 C 151.503906 175.402344 150.570312 174.464844 149.40625 174.464844 L 16.144531 174.464844 Z M 16.144531 174.472656 " fill-opacity="1" fill-rule="nonzero"/></g><path fill="#e4e6ef" d="M 119.535156 98.820312 C 119.535156 98.820312 122.15625 96.15625 122.925781 92.703125 C 123.699219 89.246094 123.324219 87.621094 122.816406 86.902344 C 122.816406 86.902344 122.695312 84.761719 121.03125 84.609375 C 121.03125 84.609375 120.792969 82.886719 119.007812 82.796875 C 119.007812 82.796875 119.894531 79.988281 120.050781 77.882812 C 120.207031 75.777344 118.941406 73.71875 116.199219 72.25 C 113.457031 70.78125 112.15625 73.957031 115.804688 75.105469 C 116.636719 75.539062 116.792969 76.96875 116.636719 78.042969 C 116.507812 78.894531 114.605469 80.894531 113.210938 82.933594 C 112.738281 83.621094 111.75 83.636719 111.203125 83 C 110.269531 81.921875 108.738281 80.648438 106.671875 80.582031 C 105.082031 80.894531 104.890625 82.601562 107.546875 84.152344 C 109.511719 85.292969 109.535156 86.140625 110.050781 88.558594 C 110.566406 90.976562 110.566406 96.617188 110.566406 96.617188 Z M 119.535156 98.820312 " fill-opacity="1" fill-rule="nonzero"/><path fill="#050a44" d="M 119.535156 99.074219 C 119.535156 99.074219 119.496094 99.074219 119.472656 99.074219 L 110.507812 96.875 C 110.394531 96.84375 110.3125 96.746094 110.3125 96.625 C 110.3125 96.566406 110.3125 90.984375 109.804688 88.617188 L 109.683594 88.058594 C 109.265625 86.050781 109.128906 85.367188 107.421875 84.378906 C 105.898438 83.496094 105.121094 82.460938 105.269531 81.53125 C 105.367188 80.933594 105.878906 80.492188 106.621094 80.339844 C 108.84375 80.410156 110.433594 81.742188 111.390625 82.84375 C 111.609375 83.097656 111.921875 83.226562 112.253906 83.21875 C 112.558594 83.203125 112.820312 83.054688 112.996094 82.796875 C 113.527344 82.011719 114.148438 81.234375 114.6875 80.535156 C 115.519531 79.480469 116.304688 78.476562 116.371094 78.019531 C 116.53125 76.957031 116.34375 75.695312 115.675781 75.34375 C 114.359375 74.933594 113.457031 74.144531 113.316406 73.246094 C 113.234375 72.714844 113.4375 72.222656 113.863281 71.921875 C 114.460938 71.496094 115.375 71.539062 116.3125 72.042969 C 119.015625 73.496094 120.46875 75.636719 120.296875 77.921875 C 120.164062 79.652344 119.5625 81.816406 119.332031 82.597656 C 120.546875 82.796875 121.085938 83.765625 121.234375 84.402344 C 122.539062 84.640625 122.988281 86.035156 123.054688 86.835938 C 123.554688 87.59375 123.953125 89.242188 123.167969 92.769531 C 122.386719 96.253906 119.820312 98.902344 119.707031 99.015625 C 119.660156 99.070312 119.59375 99.089844 119.527344 99.089844 Z M 110.8125 96.417969 L 119.453125 98.535156 C 119.929688 98.019531 122.011719 95.609375 122.679688 92.640625 C 123.496094 89.007812 122.988281 87.578125 122.613281 87.046875 C 122.582031 87.007812 122.566406 86.964844 122.566406 86.910156 C 122.566406 86.835938 122.441406 84.984375 121.007812 84.859375 C 120.890625 84.851562 120.800781 84.761719 120.777344 84.640625 C 120.769531 84.582031 120.539062 83.121094 118.996094 83.046875 C 118.914062 83.046875 118.84375 83 118.800781 82.941406 C 118.753906 82.875 118.738281 82.789062 118.769531 82.714844 C 118.777344 82.6875 119.644531 79.914062 119.804688 77.863281 C 119.960938 75.757812 118.640625 73.839844 116.089844 72.46875 C 115.332031 72.0625 114.613281 72.003906 114.171875 72.316406 C 113.902344 72.503906 113.78125 72.8125 113.832031 73.148438 C 113.945312 73.847656 114.710938 74.492188 115.886719 74.859375 C 116.851562 75.359375 117.078125 76.828125 116.898438 78.070312 C 116.808594 78.664062 116.058594 79.621094 115.105469 80.828125 C 114.566406 81.515625 113.953125 82.296875 113.429688 83.066406 C 113.167969 83.449219 112.753906 83.683594 112.296875 83.703125 C 111.804688 83.734375 111.347656 83.53125 111.015625 83.15625 C 110.125 82.132812 108.648438 80.886719 106.671875 80.828125 C 106.191406 80.933594 105.839844 81.21875 105.78125 81.597656 C 105.691406 82.140625 106.148438 83.03125 107.683594 83.921875 C 109.585938 85.03125 109.773438 85.9375 110.183594 87.9375 L 110.304688 88.492188 C 110.769531 90.679688 110.820312 95.359375 110.828125 96.402344 Z M 110.8125 96.417969 " fill-opacity="1" fill-rule="nonzero"/><path fill="#050a44" d="M 114.664062 89.425781 C 113.96875 89.425781 113.601562 89.054688 113.429688 88.789062 C 112.972656 88.09375 113.0625 86.96875 113.636719 86.167969 C 115.632812 83.539062 118.800781 82.589844 118.933594 82.550781 C 119.070312 82.511719 119.210938 82.589844 119.25 82.722656 C 119.285156 82.859375 119.210938 83 119.078125 83.039062 C 119.046875 83.046875 115.9375 83.980469 114.050781 86.46875 C 113.601562 87.089844 113.511719 87.988281 113.855469 88.507812 C 114.09375 88.867188 114.515625 88.992188 115.070312 88.867188 C 115.210938 88.835938 115.339844 88.917969 115.375 89.054688 C 115.40625 89.1875 115.324219 89.324219 115.1875 89.359375 C 115 89.40625 114.820312 89.421875 114.671875 89.421875 Z M 114.664062 89.425781 " fill-opacity="1" fill-rule="nonzero"/><path fill="#050a44" d="M 116.5 91.15625 C 116.132812 91.15625 115.773438 91.039062 115.464844 90.796875 C 114.949219 90.394531 114.753906 89.757812 114.980469 89.171875 C 116.566406 86.332031 120.746094 84.460938 120.925781 84.378906 C 121.054688 84.320312 121.203125 84.378906 121.265625 84.507812 C 121.324219 84.632812 121.265625 84.785156 121.136719 84.84375 C 121.09375 84.859375 116.925781 86.722656 115.445312 89.390625 C 115.285156 89.808594 115.511719 90.191406 115.78125 90.402344 C 116.109375 90.65625 116.703125 90.804688 117.292969 90.386719 C 117.40625 90.304688 117.5625 90.335938 117.644531 90.445312 C 117.730469 90.558594 117.699219 90.714844 117.585938 90.796875 C 117.25 91.039062 116.867188 91.15625 116.5 91.15625 Z M 116.5 91.15625 " fill-opacity="1" fill-rule="nonzero"/><path fill="#050a44" d="M 118.574219 92.246094 C 118.148438 92.246094 117.75 92.078125 117.496094 91.78125 C 117.175781 91.390625 116.835938 90.535156 118.222656 89.144531 C 120.648438 86.777344 122.71875 86.648438 122.808594 86.648438 C 122.949219 86.648438 123.070312 86.746094 123.070312 86.886719 C 123.070312 87.03125 122.972656 87.152344 122.828125 87.15625 C 122.808594 87.15625 120.851562 87.292969 118.574219 89.511719 C 118.101562 89.980469 117.382812 90.867188 117.878906 91.457031 C 118.125 91.75 118.613281 91.824219 119.054688 91.644531 C 119.21875 91.578125 119.757812 91.300781 119.699219 90.640625 C 119.683594 90.5 119.789062 90.378906 119.929688 90.363281 C 120.082031 90.363281 120.191406 90.453125 120.207031 90.597656 C 120.269531 91.261719 119.894531 91.839844 119.25 92.109375 C 119.023438 92.199219 118.800781 92.246094 118.574219 92.246094 Z M 118.574219 92.246094 " fill-opacity="1" fill-rule="nonzero"/><path fill="#050a44" d="M 119.472656 93.800781 C 119.472656 93.800781 119.414062 93.800781 119.375 93.789062 C 119.25 93.734375 119.183594 93.585938 119.234375 93.457031 C 119.992188 91.578125 119.675781 90.371094 119.667969 90.363281 C 119.632812 90.230469 119.714844 90.085938 119.839844 90.050781 C 119.984375 90.011719 120.117188 90.085938 120.15625 90.222656 C 120.171875 90.273438 120.53125 91.59375 119.699219 93.644531 C 119.660156 93.742188 119.5625 93.800781 119.464844 93.800781 Z M 119.472656 93.800781 " fill-opacity="1" fill-rule="nonzero"/><path fill="#050a44" d="M 108.96875 101.511719 L 109.316406 97.609375 C 109.40625 96.640625 110.265625 95.917969 111.238281 96.007812 L 119.875 96.78125 C 120.847656 96.867188 121.566406 97.730469 121.480469 98.699219 L 121.128906 102.601562 C 121.042969 103.570312 120.179688 104.289062 119.210938 104.203125 L 110.570312 103.429688 C 109.601562 103.34375 108.882812 102.480469 108.96875 101.511719 Z M 108.96875 101.511719 " fill-opacity="1" fill-rule="nonzero"/><path fill="#0a21c0" d="M 118.628906 62.632812 C 118.628906 56.78125 113.175781 52.199219 107.054688 53.636719 C 103.816406 54.390625 101.171875 56.960938 100.335938 60.160156 C 99.421875 63.671875 100.527344 66.960938 102.738281 69.15625 C 103.683594 70.101562 104.289062 71.328125 104.289062 72.65625 L 104.289062 74.046875 L 114.351562 74.046875 L 114.351562 72.65625 C 114.351562 71.316406 114.972656 70.078125 115.921875 69.128906 C 117.585938 67.457031 118.621094 65.164062 118.621094 62.625 Z M 118.628906 62.632812 " fill-opacity="1" fill-rule="nonzero"/><path fill="#050a44" d="M 114.972656 75.179688 L 114.34375 74.046875 L 104.296875 74.046875 L 103.667969 75.179688 C 103.511719 75.457031 103.429688 75.773438 103.429688 76.09375 C 103.429688 76.679688 103.699219 77.226562 104.15625 77.585938 L 106.238281 79.203125 C 106.71875 79.570312 106.992188 80.140625 106.992188 80.738281 C 106.992188 81.285156 107.445312 81.726562 107.992188 81.726562 L 110.640625 81.726562 C 111.195312 81.726562 111.636719 81.285156 111.636719 80.738281 C 111.636719 80.140625 111.914062 79.570312 112.394531 79.203125 L 114.476562 77.585938 C 114.933594 77.226562 115.203125 76.679688 115.203125 76.09375 C 115.203125 75.773438 115.121094 75.457031 114.964844 75.179688 Z M 114.972656 75.179688 " fill-opacity="1" fill-rule="nonzero"/><path fill="#e4e6ef" d="M 114.703125 61.382812 L 113.265625 61.394531 C 113.167969 61.03125 113.015625 60.683594 112.820312 60.363281 L 113.824219 59.335938 C 113.863281 59.300781 113.886719 59.246094 113.878906 59.195312 C 113.878906 59.140625 113.855469 59.089844 113.816406 59.050781 L 112.605469 57.875 C 112.523438 57.800781 112.394531 57.800781 112.320312 57.875 L 111.316406 58.902344 C 110.980469 58.714844 110.632812 58.570312 110.273438 58.480469 L 110.261719 57.050781 C 110.261719 56.9375 110.171875 56.847656 110.058594 56.855469 L 108.363281 56.878906 C 108.253906 56.878906 108.164062 56.96875 108.171875 57.082031 L 108.183594 58.511719 C 107.824219 58.609375 107.480469 58.757812 107.160156 58.960938 L 106.132812 57.957031 C 106.058594 57.882812 105.929688 57.882812 105.847656 57.957031 L 104.664062 59.164062 C 104.589844 59.246094 104.589844 59.375 104.664062 59.449219 L 105.691406 60.453125 C 105.511719 60.773438 105.367188 61.125 105.269531 61.492188 L 103.839844 61.507812 C 103.726562 61.507812 103.644531 61.597656 103.644531 61.710938 L 103.667969 63.402344 C 103.667969 63.515625 103.757812 63.605469 103.871094 63.597656 L 105.300781 63.582031 C 105.40625 63.949219 105.554688 64.296875 105.742188 64.609375 L 104.738281 65.644531 C 104.664062 65.726562 104.664062 65.855469 104.738281 65.929688 L 105.953125 67.113281 C 106.027344 67.1875 106.164062 67.1875 106.238281 67.113281 L 107.242188 66.078125 C 107.578125 66.273438 107.929688 66.40625 108.28125 66.496094 L 108.296875 67.929688 C 108.296875 68.039062 108.386719 68.128906 108.5 68.125 L 110.191406 68.101562 C 110.304688 68.101562 110.394531 68.011719 110.386719 67.898438 L 110.371094 66.46875 C 110.722656 66.371094 111.070312 66.21875 111.40625 66.019531 L 112.433594 67.023438 C 112.507812 67.097656 112.640625 67.097656 112.71875 67.023438 L 113.902344 65.808594 C 113.976562 65.734375 113.976562 65.597656 113.902344 65.523438 L 112.867188 64.519531 C 113.054688 64.199219 113.195312 63.851562 113.285156 63.480469 L 114.726562 63.464844 C 114.835938 63.464844 114.925781 63.375 114.917969 63.261719 L 114.898438 61.570312 C 114.898438 61.457031 114.808594 61.367188 114.695312 61.375 Z M 109.316406 64.789062 C 108.050781 64.804688 107.007812 63.785156 106.992188 62.527344 C 106.980469 61.261719 107.992188 60.226562 109.257812 60.207031 C 110.523438 60.191406 111.554688 61.203125 111.578125 62.46875 C 111.59375 63.734375 110.582031 64.773438 109.316406 64.789062 Z M 109.316406 64.789062 " fill-opacity="1" fill-rule="nonzero"/><g clip-path="url(#c96be0143b)"><path fill="#050a44" d="M 97.25 61.492188 C 97.203125 61.492188 97.160156 61.484375 97.121094 61.457031 L 92.46875 58.78125 C 92.386719 58.738281 92.335938 58.648438 92.339844 58.550781 C 92.339844 58.453125 92.402344 58.371094 92.492188 58.332031 L 98.027344 55.816406 L 95.585938 49.5 C 95.546875 49.410156 95.570312 49.3125 95.628906 49.238281 C 95.699219 49.164062 95.796875 49.140625 95.886719 49.164062 L 102.296875 50.863281 L 104.820312 45.558594 C 104.859375 45.476562 104.941406 45.417969 105.039062 45.417969 C 105.128906 45.417969 105.21875 45.457031 105.269531 45.539062 L 108.246094 50.199219 C 108.320312 50.316406 108.28125 50.472656 108.171875 50.550781 C 108.050781 50.625 107.894531 50.585938 107.816406 50.472656 L 105.082031 46.195312 L 102.664062 51.285156 C 102.613281 51.394531 102.484375 51.449219 102.371094 51.417969 L 96.238281 49.792969 L 98.589844 55.867188 C 98.632812 55.996094 98.582031 56.136719 98.453125 56.191406 L 93.152344 58.601562 L 97.367188 61.03125 C 97.488281 61.097656 97.53125 61.253906 97.457031 61.375 C 97.414062 61.457031 97.324219 61.5 97.242188 61.5 Z M 97.25 61.492188 " fill-opacity="1" fill-rule="nonzero"/></g><path fill="#e4e6ef" d="M 186.757812 112.546875 C 186.757812 112.546875 196.371094 112.230469 203.105469 121.046875 C 209.839844 129.863281 209.515625 148.140625 204.550781 178.914062 L 148.441406 178.914062 L 163.027344 141.722656 L 168.960938 114.46875 L 171.695312 112.539062 C 171.695312 112.539062 184.683594 111.40625 186.765625 112.539062 Z M 186.757812 112.546875 " fill-opacity="1" fill-rule="nonzero"/><g clip-path="url(#222642360d)"><path fill="#050a44" d="M 204.542969 179.171875 L 148.433594 179.171875 C 148.351562 179.171875 148.269531 179.125 148.222656 179.058594 C 148.179688 178.988281 148.164062 178.898438 148.195312 178.824219 L 162.78125 141.632812 L 168.699219 114.417969 C 168.710938 114.359375 168.75 114.296875 168.800781 114.269531 L 171.535156 112.335938 C 171.535156 112.335938 171.617188 112.289062 171.664062 112.289062 C 172.195312 112.246094 184.527344 111.1875 186.8125 112.289062 L 186.832031 112.289062 C 187.835938 112.289062 196.917969 112.53125 203.296875 120.898438 C 209.664062 129.242188 210.101562 146.058594 204.789062 178.960938 C 204.765625 179.078125 204.660156 179.171875 204.542969 179.171875 Z M 148.808594 178.660156 L 204.324219 178.660156 C 209.574219 146.050781 209.15625 129.398438 202.894531 121.195312 C 196.324219 112.597656 186.832031 112.785156 186.757812 112.792969 C 186.699219 112.808594 186.667969 112.785156 186.632812 112.761719 C 185.050781 111.902344 176.261719 112.402344 171.777344 112.785156 L 169.183594 114.621094 L 163.273438 141.773438 Z M 148.808594 178.660156 " fill-opacity="1" fill-rule="nonzero"/></g><path fill="#050a44" d="M 186.0625 104.363281 C 176.808594 106.171875 172.726562 99.921875 172.726562 99.921875 L 170.613281 96.625 C 170.613281 96.625 172.421875 95.480469 173.214844 92.707031 C 173.984375 89.9375 172.367188 86.152344 170.203125 86.402344 C 168.039062 86.648438 167.738281 91.882812 167.738281 91.882812 C 167.738281 91.882812 167.265625 89.832031 166.285156 85.195312 C 165.328125 80.582031 162.144531 80.691406 162.144531 80.691406 C 162.144531 80.691406 156.382812 77.808594 158.546875 74.199219 C 160.710938 70.601562 164.554688 72.40625 164.554688 72.40625 C 164.554688 72.40625 169.605469 68.191406 179.589844 68.675781 C 189.574219 69.148438 190.757812 76.722656 190.757812 76.722656 C 190.757812 76.722656 195.335938 79.136719 196.183594 83.105469 C 197.859375 91.996094 186.070312 104.371094 186.070312 104.371094 Z M 186.0625 104.363281 " fill-opacity="1" fill-rule="nonzero"/><path fill="#e4e6ef" d="M 186.757812 112.546875 C 179.222656 114.386719 171.6875 112.546875 171.6875 112.546875 L 171.199219 105.464844 C 171.199219 105.464844 168.152344 106.261719 165.589844 105.390625 C 163.027344 104.507812 162.066406 99.929688 161.746094 94.484375 C 161.421875 89.039062 162.144531 80.691406 162.144531 80.691406 C 162.144531 80.691406 165.328125 80.582031 166.285156 85.195312 C 167.265625 89.832031 167.738281 91.882812 167.738281 91.882812 C 167.738281 91.882812 168.039062 86.648438 170.203125 86.402344 C 172.367188 86.152344 173.984375 89.945312 173.214844 92.707031 C 172.421875 95.480469 170.613281 96.625 170.613281 96.625 L 172.726562 99.921875 C 172.726562 99.921875 176.816406 106.175781 186.0625 104.363281 L 186.757812 112.539062 Z M 186.757812 112.546875 " fill-opacity="1" fill-rule="nonzero"/><path fill="#050a44" d="M 179.523438 113.609375 C 175.058594 113.609375 171.679688 112.800781 171.625 112.785156 C 171.523438 112.753906 171.4375 112.664062 171.433594 112.550781 L 170.960938 105.765625 C 170.121094 105.945312 167.664062 106.351562 165.5 105.617188 C 163.160156 104.808594 161.878906 101.269531 161.484375 94.484375 C 161.160156 89.082031 161.875 80.746094 161.878906 80.664062 C 161.894531 80.535156 161.992188 80.4375 162.128906 80.429688 C 162.164062 80.417969 165.535156 80.378906 166.53125 85.136719 C 167.042969 87.554688 167.417969 89.277344 167.65625 90.363281 C 167.925781 88.730469 168.59375 86.320312 170.171875 86.140625 C 170.945312 86.058594 171.679688 86.394531 172.308594 87.136719 C 173.476562 88.507812 173.980469 90.933594 173.460938 92.769531 C 172.800781 95.074219 171.476562 96.28125 170.960938 96.6875 L 172.9375 99.78125 C 172.976562 99.839844 177.042969 105.863281 186.007812 104.109375 C 186.085938 104.101562 186.152344 104.109375 186.210938 104.15625 C 186.269531 104.199219 186.308594 104.265625 186.308594 104.335938 L 187.003906 112.507812 C 187.011719 112.636719 186.9375 112.746094 186.8125 112.777344 C 184.292969 113.390625 181.769531 113.601562 179.515625 113.601562 Z M 171.925781 112.335938 C 173.09375 112.589844 179.804688 113.914062 186.480469 112.34375 L 185.828125 104.664062 C 176.710938 106.3125 172.546875 100.117188 172.511719 100.058594 L 170.398438 96.761719 C 170.324219 96.640625 170.359375 96.484375 170.472656 96.410156 C 170.488281 96.402344 172.210938 95.269531 172.96875 92.632812 C 173.4375 90.949219 172.980469 88.722656 171.917969 87.464844 C 171.558594 87.046875 170.976562 86.550781 170.226562 86.648438 C 168.621094 86.828125 168.066406 90.5 167.984375 91.890625 C 167.984375 92.019531 167.882812 92.117188 167.753906 92.132812 C 167.617188 92.132812 167.515625 92.058594 167.484375 91.9375 C 167.484375 91.914062 167.003906 89.832031 166.03125 85.246094 C 165.265625 81.5625 163.078125 81.03125 162.367188 80.957031 C 162.253906 82.371094 161.707031 89.613281 161.992188 94.460938 C 162.375 100.925781 163.574219 104.417969 165.664062 105.144531 C 168.121094 105.976562 171.101562 105.21875 171.132812 105.210938 C 171.207031 105.1875 171.28125 105.210938 171.339844 105.25 C 171.402344 105.292969 171.4375 105.359375 171.445312 105.4375 L 171.925781 112.328125 Z M 171.925781 112.335938 " fill-opacity="1" fill-rule="nonzero"/><path fill="#0a21c0" d="M 212.183594 129.675781 L 192.722656 129.675781 C 185.207031 129.675781 178.675781 134.851562 176.96875 142.171875 L 168.375 178.914062 L 210.398438 178.914062 L 219.695312 139.152344 C 220.828125 134.3125 217.148438 129.675781 212.183594 129.675781 Z M 212.183594 129.675781 " fill-opacity="1" fill-rule="nonzero"/><g clip-path="url(#85658545d0)"><path fill="#050a44" d="M 172.59375 179.171875 C 172.59375 179.171875 172.554688 179.171875 172.53125 179.171875 C 172.398438 179.140625 172.316406 179.003906 172.34375 178.863281 L 180.9375 142.121094 C 182.683594 134.652344 189.261719 129.429688 196.9375 129.429688 C 197.082031 129.429688 197.191406 129.542969 197.191406 129.683594 C 197.191406 129.828125 197.082031 129.9375 196.9375 129.9375 C 189.5 129.9375 183.125 134.996094 181.433594 142.238281 L 172.839844 178.984375 C 172.808594 179.101562 172.707031 179.175781 172.59375 179.175781 Z M 172.59375 179.171875 " fill-opacity="1" fill-rule="nonzero"/></g><g clip-path="url(#e612afa277)"><path fill="#050a44" d="M 211.75 179.171875 L 7.070312 179.171875 C 6.929688 179.171875 6.816406 179.058594 6.816406 178.914062 C 6.816406 178.773438 6.929688 178.660156 7.070312 178.660156 L 211.75 178.660156 C 211.890625 178.660156 212.003906 178.773438 212.003906 178.914062 C 212.003906 179.058594 211.890625 179.171875 211.75 179.171875 Z M 211.75 179.171875 " fill-opacity="1" fill-rule="nonzero"/></g><path fill="#e4e6ef" d="M 104.925781 166.023438 C 104.925781 166.023438 102.417969 166.53125 100.859375 165.152344 C 99.300781 163.777344 97.398438 162.59375 95.5625 163.535156 C 93.726562 164.480469 91.691406 167.730469 89.441406 166.691406 C 87.195312 165.648438 90.894531 162.523438 92.230469 161.207031 C 93.5625 159.886719 96.761719 155.320312 99.5625 154.855469 C 102.363281 154.382812 105.96875 157.289062 108.09375 158.335938 C 110.222656 159.386719 104.910156 166.03125 104.910156 166.03125 Z M 104.925781 166.023438 " fill-opacity="1" fill-rule="nonzero"/><path fill="#050a44" d="M 90.347656 167.148438 C 90.019531 167.148438 89.683594 167.078125 89.34375 166.921875 C 88.859375 166.699219 88.582031 166.367188 88.507812 165.941406 C 88.289062 164.628906 90.242188 162.773438 91.53125 161.535156 C 91.726562 161.347656 91.90625 161.175781 92.058594 161.027344 C 92.347656 160.734375 92.746094 160.269531 93.210938 159.730469 C 94.828125 157.835938 97.269531 154.972656 99.53125 154.597656 C 101.726562 154.226562 104.320312 155.804688 106.402344 157.0625 C 107.070312 157.46875 107.699219 157.851562 108.222656 158.105469 C 108.542969 158.261719 108.746094 158.53125 108.828125 158.890625 C 109.285156 160.953125 105.292969 165.972656 105.128906 166.179688 C 105.089844 166.226562 105.039062 166.253906 104.980469 166.269531 C 104.875 166.292969 102.328125 166.789062 100.695312 165.339844 C 98.664062 163.550781 97.070312 163.042969 95.683594 163.761719 C 95.121094 164.046875 94.527344 164.578125 93.898438 165.132812 C 92.820312 166.089844 91.628906 167.148438 90.339844 167.148438 Z M 100.207031 155.050781 C 100.003906 155.050781 99.808594 155.0625 99.617188 155.09375 C 97.53125 155.4375 95.164062 158.21875 93.59375 160.054688 C 93.128906 160.601562 92.722656 161.070312 92.417969 161.378906 C 92.265625 161.527344 92.085938 161.699219 91.882812 161.886719 C 90.746094 162.972656 88.835938 164.792969 89.007812 165.84375 C 89.054688 166.097656 89.234375 166.300781 89.5625 166.449219 C 90.933594 167.085938 92.273438 165.894531 93.570312 164.75 C 94.222656 164.171875 94.835938 163.625 95.457031 163.304688 C 97.554688 162.226562 99.644531 163.730469 101.03125 164.960938 C 102.320312 166.097656 104.351562 165.859375 104.792969 165.785156 C 105.945312 164.324219 108.664062 160.480469 108.335938 158.996094 C 108.289062 158.785156 108.175781 158.644531 107.996094 158.554688 C 107.457031 158.285156 106.8125 157.902344 106.140625 157.492188 C 104.320312 156.390625 102.101562 155.042969 100.207031 155.042969 Z M 104.925781 166.023438 Z M 104.925781 166.023438 " fill-opacity="1" fill-rule="nonzero"/><path fill="#e4e6ef" d="M 171.6875 112.546875 C 171.6875 112.546875 161.101562 116.238281 156.449219 119.765625 C 151.796875 123.292969 149.394531 129.0625 147.152344 134.035156 C 144.90625 139.003906 134.171875 161.289062 134.171875 161.289062 L 107.242188 157.125 C 107.242188 157.125 103.078125 162.253906 103.714844 168.1875 C 103.714844 168.1875 126.3125 175.402344 135.617188 177.484375 C 144.914062 179.566406 155.46875 169.566406 163.191406 151.191406 C 173.769531 126.019531 171.695312 112.550781 171.695312 112.550781 Z M 171.6875 112.546875 " fill-opacity="1" fill-rule="nonzero"/><path fill="#050a44" d="M 138.066406 178 C 137.21875 178 136.390625 177.910156 135.558594 177.722656 C 126.359375 175.664062 103.863281 168.496094 103.628906 168.421875 C 103.53125 168.390625 103.464844 168.308594 103.457031 168.203125 C 102.8125 162.234375 107 157.011719 107.039062 156.960938 C 107.097656 156.890625 107.179688 156.847656 107.277344 156.871094 L 134.023438 161.003906 C 135.023438 158.929688 144.808594 138.605469 146.921875 133.925781 L 147.3125 133.054688 C 149.445312 128.304688 151.863281 122.921875 156.292969 119.5625 C 160.921875 116.050781 171.492188 112.34375 171.597656 112.304688 C 171.730469 112.261719 171.875 112.328125 171.917969 112.460938 C 171.964844 112.597656 171.894531 112.738281 171.761719 112.785156 C 171.65625 112.820312 161.160156 116.507812 156.597656 119.96875 C 152.269531 123.25 149.878906 128.566406 147.773438 133.265625 L 147.386719 134.132812 C 145.167969 139.046875 134.5 161.167969 134.394531 161.394531 C 134.351562 161.492188 134.238281 161.558594 134.125 161.535156 L 107.347656 157.394531 C 106.761719 158.164062 103.464844 162.78125 103.945312 167.984375 C 105.984375 168.636719 126.898438 175.257812 135.667969 177.230469 C 144.859375 179.296875 155.3125 169.273438 162.953125 151.085938 C 165.320312 145.453125 167.246094 139.945312 168.660156 134.734375 C 168.699219 134.597656 168.839844 134.515625 168.972656 134.554688 C 169.109375 134.589844 169.191406 134.734375 169.15625 134.867188 C 167.730469 140.105469 165.796875 145.632812 163.421875 151.28125 C 156.359375 168.089844 146.855469 177.992188 138.066406 177.992188 Z M 138.066406 178 " fill-opacity="1" fill-rule="nonzero"/><path fill="#050a44" d="M 96.035156 68.519531 L 65.539062 68.519531 C 65.394531 68.519531 65.285156 68.40625 65.285156 68.265625 C 65.285156 68.125 65.394531 68.011719 65.539062 68.011719 L 96.035156 68.011719 C 96.175781 68.011719 96.289062 68.125 96.289062 68.265625 C 96.289062 68.40625 96.175781 68.519531 96.035156 68.519531 Z M 96.035156 68.519531 " fill-opacity="1" fill-rule="nonzero"/><path fill="#e4e6ef" d="M 65.425781 68.414062 C 65.320312 69.164062 64.632812 69.6875 63.882812 69.585938 C 63.132812 69.480469 62.609375 68.789062 62.714844 68.039062 C 62.820312 67.292969 63.507812 66.765625 64.257812 66.871094 C 65.007812 66.976562 65.53125 67.667969 65.425781 68.414062 Z M 65.425781 68.414062 " fill-opacity="1" fill-rule="nonzero"/><path fill="#050a44" d="M 64.078125 69.855469 C 64.003906 69.855469 63.929688 69.855469 63.851562 69.839844 C 63.425781 69.777344 63.042969 69.5625 62.78125 69.210938 C 62.519531 68.863281 62.40625 68.4375 62.46875 68.011719 C 62.527344 67.582031 62.746094 67.203125 63.097656 66.941406 C 63.441406 66.675781 63.867188 66.566406 64.296875 66.625 C 65.179688 66.746094 65.800781 67.570312 65.679688 68.453125 C 65.621094 68.878906 65.394531 69.261719 65.050781 69.523438 C 64.765625 69.742188 64.429688 69.855469 64.078125 69.855469 Z M 64.070312 67.113281 C 63.832031 67.113281 63.597656 67.1875 63.402344 67.335938 C 63.164062 67.515625 63.015625 67.777344 62.976562 68.070312 C 62.9375 68.363281 63.015625 68.65625 63.195312 68.894531 C 63.375 69.132812 63.636719 69.285156 63.929688 69.320312 C 64.535156 69.410156 65.097656 68.976562 65.179688 68.371094 C 65.261719 67.765625 64.835938 67.203125 64.226562 67.113281 C 64.175781 67.113281 64.121094 67.105469 64.070312 67.105469 Z M 65.433594 68.414062 Z M 65.433594 68.414062 " fill-opacity="1" fill-rule="nonzero"/><path fill="#e4e6ef" d="M 98.722656 68.414062 C 98.617188 69.164062 97.929688 69.6875 97.179688 69.585938 C 96.433594 69.480469 95.90625 68.789062 96.011719 68.039062 C 96.117188 67.292969 96.804688 66.765625 97.554688 66.871094 C 98.304688 66.976562 98.828125 67.667969 98.722656 68.414062 Z M 98.722656 68.414062 " fill-opacity="1" fill-rule="nonzero"/><path fill="#050a44" d="M 97.375 69.855469 C 97.300781 69.855469 97.226562 69.855469 97.152344 69.839844 C 96.722656 69.777344 96.34375 69.5625 96.078125 69.210938 C 95.816406 68.863281 95.707031 68.4375 95.765625 68.011719 C 95.824219 67.582031 96.050781 67.203125 96.394531 66.941406 C 96.738281 66.675781 97.164062 66.566406 97.59375 66.625 C 98.019531 66.683594 98.402344 66.902344 98.664062 67.253906 C 98.925781 67.597656 99.039062 68.027344 98.980469 68.453125 C 98.917969 68.878906 98.695312 69.261719 98.347656 69.523438 C 98.066406 69.742188 97.726562 69.855469 97.375 69.855469 Z M 97.367188 67.113281 C 97.128906 67.113281 96.894531 67.1875 96.703125 67.335938 C 96.460938 67.515625 96.3125 67.777344 96.273438 68.070312 C 96.238281 68.363281 96.3125 68.65625 96.492188 68.894531 C 96.671875 69.132812 96.933594 69.285156 97.226562 69.320312 C 97.523438 69.367188 97.816406 69.285156 98.050781 69.105469 C 98.289062 68.925781 98.4375 68.664062 98.476562 68.371094 C 98.515625 68.078125 98.4375 67.785156 98.257812 67.546875 C 98.078125 67.308594 97.816406 67.15625 97.527344 67.121094 C 97.472656 67.121094 97.421875 67.113281 97.367188 67.113281 Z M 97.367188 67.113281 " fill-opacity="1" fill-rule="nonzero"/><g clip-path="url(#bd0ccf1e2b)"><path fill="#e4e6ef" d="M 192.78125 102.898438 L 198.210938 104.28125 C 199.125 104.515625 199.769531 105.339844 199.769531 106.289062 L 199.769531 109.449219 C 199.769531 110.859375 200.910156 112 202.316406 112 L 222.078125 112 C 223.488281 112 224.625 110.859375 224.625 109.449219 L 224.625 96.246094 C 224.625 94.835938 223.488281 93.699219 222.078125 93.699219 L 202.316406 93.699219 C 200.910156 93.699219 199.769531 94.835938 199.769531 96.246094 L 199.769531 98.851562 C 199.769531 99.796875 199.125 100.625 198.210938 100.859375 L 192.78125 102.246094 C 192.445312 102.335938 192.445312 102.8125 192.78125 102.898438 Z M 192.78125 102.898438 " fill-opacity="1" fill-rule="nonzero"/></g><g clip-path="url(#41629acd11)"><path fill="#050a44" d="M 222.078125 112.253906 L 202.316406 112.253906 C 200.773438 112.253906 199.515625 110.996094 199.515625 109.449219 L 199.515625 106.289062 C 199.515625 105.457031 198.953125 104.738281 198.152344 104.53125 L 192.722656 103.144531 C 192.457031 103.078125 192.277344 102.84375 192.277344 102.574219 C 192.277344 102.304688 192.457031 102.074219 192.722656 102.003906 L 198.152344 100.621094 C 198.960938 100.417969 199.515625 99.691406 199.515625 98.859375 L 199.515625 96.253906 C 199.515625 94.707031 200.773438 93.449219 202.316406 93.449219 L 222.078125 93.449219 C 223.621094 93.449219 224.878906 94.707031 224.878906 96.253906 L 224.878906 109.457031 C 224.878906 111 223.621094 112.261719 222.078125 112.261719 Z M 202.316406 93.953125 C 201.050781 93.953125 200.023438 94.980469 200.023438 96.246094 L 200.023438 98.851562 C 200.023438 99.914062 199.304688 100.84375 198.28125 101.105469 L 192.847656 102.492188 C 192.796875 102.507812 192.789062 102.542969 192.789062 102.574219 C 192.789062 102.605469 192.804688 102.640625 192.847656 102.65625 L 198.28125 104.042969 C 199.304688 104.304688 200.023438 105.234375 200.023438 106.289062 L 200.023438 109.449219 C 200.023438 110.71875 201.050781 111.742188 202.316406 111.742188 L 222.078125 111.742188 C 223.34375 111.742188 224.371094 110.71875 224.371094 109.449219 L 224.371094 96.246094 C 224.371094 94.980469 223.34375 93.953125 222.078125 93.953125 Z M 202.316406 93.953125 " fill-opacity="1" fill-rule="nonzero"/></g><path fill="#050a44" d="M 207.84375 105.9375 C 207.335938 105.9375 206.917969 105.496094 206.984375 104.988281 C 207.019531 104.695312 207.089844 104.417969 207.171875 104.175781 C 207.335938 103.691406 207.539062 103.261719 207.777344 102.898438 C 208.019531 102.53125 208.257812 102.191406 208.496094 101.886719 C 208.738281 101.578125 208.9375 101.257812 209.105469 100.933594 C 209.269531 100.613281 209.351562 100.246094 209.351562 99.832031 C 209.351562 99.339844 209.222656 98.957031 208.976562 98.6875 C 208.730469 98.417969 208.378906 98.28125 207.929688 98.28125 C 207.476562 98.28125 207.117188 98.445312 206.871094 98.785156 C 206.625 99.121094 206.488281 99.59375 206.488281 100.207031 C 206.488281 100.207031 204.746094 100.214844 204.746094 100.214844 C 204.78125 99.082031 205.082031 98.222656 205.636719 97.609375 C 206.191406 96.992188 206.953125 96.6875 207.921875 96.6875 C 208.886719 96.6875 209.71875 96.964844 210.273438 97.511719 C 210.828125 98.058594 211.113281 98.835938 211.113281 99.832031 C 211.113281 100.28125 211.050781 100.679688 210.933594 101.007812 C 210.8125 101.339844 210.660156 101.644531 210.476562 101.914062 C 210.289062 102.183594 210.09375 102.445312 209.882812 102.710938 C 209.671875 102.972656 209.476562 103.25 209.292969 103.546875 C 209.105469 103.847656 208.953125 104.183594 208.835938 104.566406 C 208.773438 104.753906 208.738281 104.957031 208.707031 105.171875 C 208.648438 105.601562 208.289062 105.929688 207.851562 105.929688 Z M 207.84375 105.9375 " fill-opacity="1" fill-rule="nonzero"/><path fill="#050a44" d="M 206.722656 108.183594 C 206.722656 107.59375 207.203125 107.113281 207.792969 107.113281 C 208.386719 107.113281 208.863281 107.59375 208.863281 108.183594 C 208.863281 108.777344 208.382812 109.257812 207.792969 109.257812 C 207.203125 109.257812 206.722656 108.777344 206.722656 108.183594 Z M 206.722656 108.183594 " fill-opacity="1" fill-rule="nonzero"/><path fill="#050a44" d="M 216.414062 105.9375 C 215.90625 105.9375 215.484375 105.496094 215.554688 104.988281 C 215.589844 104.695312 215.660156 104.417969 215.742188 104.175781 C 215.90625 103.691406 216.109375 103.261719 216.347656 102.898438 C 216.585938 102.53125 216.828125 102.191406 217.066406 101.886719 C 217.304688 101.578125 217.507812 101.257812 217.671875 100.933594 C 217.839844 100.613281 217.921875 100.246094 217.921875 99.832031 C 217.921875 99.339844 217.792969 98.957031 217.546875 98.6875 C 217.300781 98.417969 216.945312 98.28125 216.496094 98.28125 C 216.046875 98.28125 215.6875 98.445312 215.441406 98.785156 C 215.195312 99.121094 215.058594 99.59375 215.058594 100.207031 C 215.058594 100.207031 213.3125 100.214844 213.3125 100.214844 C 213.351562 99.082031 213.652344 98.222656 214.207031 97.609375 C 214.757812 96.992188 215.523438 96.6875 216.488281 96.6875 C 217.457031 96.6875 218.289062 96.964844 218.84375 97.511719 C 219.398438 98.058594 219.679688 98.835938 219.679688 99.832031 C 219.679688 100.28125 219.621094 100.679688 219.5 101.007812 C 219.382812 101.339844 219.230469 101.644531 219.042969 101.914062 C 218.855469 102.183594 218.664062 102.445312 218.453125 102.710938 C 218.242188 102.972656 218.046875 103.25 217.859375 103.546875 C 217.671875 103.847656 217.523438 104.183594 217.402344 104.566406 C 217.34375 104.753906 217.304688 104.957031 217.277344 105.171875 C 217.214844 105.601562 216.855469 105.929688 216.421875 105.929688 Z M 216.414062 105.9375 " fill-opacity="1" fill-rule="nonzero"/><path fill="#050a44" d="M 215.292969 108.183594 C 215.292969 107.59375 215.769531 107.113281 216.363281 107.113281 C 216.953125 107.113281 217.433594 107.59375 217.433594 108.183594 C 217.433594 108.777344 216.953125 109.257812 216.363281 109.257812 C 215.769531 109.257812 215.292969 108.777344 215.292969 108.183594 Z M 215.292969 108.183594 " fill-opacity="1" fill-rule="nonzero"/><path fill="#0a21c0" d="M 212.984375 63.050781 C 212.984375 63.691406 212.921875 64.324219 212.796875 64.949219 C 212.671875 65.574219 212.488281 66.183594 212.242188 66.773438 C 212 67.363281 211.699219 67.921875 211.34375 68.453125 C 210.992188 68.984375 210.585938 69.476562 210.136719 69.925781 C 209.683594 70.378906 209.195312 70.78125 208.664062 71.136719 C 208.132812 71.492188 207.570312 71.789062 206.980469 72.035156 C 206.390625 72.28125 205.785156 72.464844 205.15625 72.589844 C 204.53125 72.714844 203.898438 72.773438 203.261719 72.773438 C 202.621094 72.773438 201.988281 72.714844 201.363281 72.589844 C 200.738281 72.464844 200.128906 72.28125 199.539062 72.035156 C 198.949219 71.789062 198.390625 71.492188 197.859375 71.136719 C 197.328125 70.78125 196.835938 70.378906 196.386719 69.925781 C 195.933594 69.476562 195.53125 68.984375 195.175781 68.453125 C 194.820312 67.921875 194.523438 67.363281 194.277344 66.773438 C 194.035156 66.183594 193.847656 65.574219 193.722656 64.949219 C 193.601562 64.324219 193.539062 63.691406 193.539062 63.050781 C 193.539062 62.414062 193.601562 61.78125 193.722656 61.15625 C 193.847656 60.527344 194.035156 59.921875 194.277344 59.332031 C 194.523438 58.742188 194.820312 58.179688 195.175781 57.648438 C 195.53125 57.117188 195.933594 56.628906 196.386719 56.175781 C 196.835938 55.726562 197.328125 55.320312 197.859375 54.96875 C 198.390625 54.613281 198.949219 54.3125 199.539062 54.070312 C 200.128906 53.824219 200.738281 53.640625 201.363281 53.515625 C 201.988281 53.390625 202.621094 53.328125 203.261719 53.328125 C 203.898438 53.328125 204.53125 53.390625 205.15625 53.515625 C 205.785156 53.640625 206.390625 53.824219 206.980469 54.070312 C 207.570312 54.3125 208.132812 54.613281 208.664062 54.96875 C 209.195312 55.320312 209.683594 55.726562 210.136719 56.175781 C 210.585938 56.628906 210.992188 57.117188 211.34375 57.648438 C 211.699219 58.179688 212 58.742188 212.242188 59.332031 C 212.488281 59.921875 212.671875 60.527344 212.796875 61.15625 C 212.921875 61.78125 212.984375 62.414062 212.984375 63.050781 Z M 212.984375 63.050781 " fill-opacity="1" fill-rule="nonzero"/><path fill="#050a44" d="M 202.039062 67.128906 L 202.03125 67.128906 C 201.84375 67.128906 201.671875 67.042969 201.554688 66.894531 L 198.683594 63.433594 C 198.460938 63.164062 198.496094 62.765625 198.765625 62.542969 C 199.035156 62.316406 199.433594 62.355469 199.65625 62.625 L 202.054688 65.515625 L 207.515625 59.292969 C 207.746094 59.027344 208.144531 59.007812 208.414062 59.230469 C 208.675781 59.464844 208.707031 59.859375 208.476562 60.128906 L 202.527344 66.910156 C 202.40625 67.042969 202.234375 67.128906 202.046875 67.128906 Z M 202.039062 67.128906 " fill-opacity="1" fill-rule="nonzero"/><path fill="#0a21c0" d="M 199.402344 70.953125 L 193.972656 74.332031 L 196.511719 68.574219 Z M 199.402344 70.953125 " fill-opacity="1" fill-rule="nonzero"/></svg>