<svg xmlns="http://www.w3.org/2000/svg" xmlns:xlink="http://www.w3.org/1999/xlink" width="40" zoomAndPan="magnify" viewBox="0 0 30 30.000001" height="40" preserveAspectRatio="xMidYMid meet" version="1.0"><defs><clipPath id="68e57ee3d9"><path d="M 2.402344 24.546875 L 27.59375 24.546875 L 27.59375 26.902344 L 2.402344 26.902344 Z M 2.402344 24.546875 " clip-rule="nonzero"/></clipPath><clipPath id="d0c700d4fd"><path d="M 2.839844 24.550781 C 27.386719 24.671875 27.445312 24.769531 27.519531 24.9375 C 27.578125 25.058594 27.589844 25.277344 27.589844 25.445312 C 27.578125 25.617188 27.554688 25.835938 27.492188 25.957031 C 27.410156 26.101562 27.238281 26.269531 27.121094 26.246094 C 27 26.222656 26.839844 26.027344 26.792969 25.808594 C 26.746094 25.542969 26.78125 24.988281 26.878906 24.792969 C 26.949219 24.625 27.144531 24.503906 27.253906 24.578125 C 27.386719 24.648438 27.566406 25.109375 27.589844 25.351562 C 27.601562 25.542969 27.578125 25.738281 27.519531 25.882812 C 27.445312 26.050781 27.386719 26.148438 27.167969 26.246094 C 25.441406 27.117188 4.554688 27.09375 2.839844 26.246094 C 2.613281 26.148438 2.5625 26.050781 2.492188 25.882812 C 2.429688 25.738281 2.40625 25.496094 2.417969 25.300781 C 2.429688 25.109375 2.492188 24.890625 2.550781 24.769531 C 2.625 24.648438 2.839844 24.550781 2.839844 24.550781 " clip-rule="nonzero"/></clipPath><clipPath id="8d95a1d700"><path d="M 0.484375 21.773438 L 8.054688 21.773438 L 8.054688 29.03125 L 0.484375 29.03125 Z M 0.484375 21.773438 " clip-rule="nonzero"/></clipPath><clipPath id="209641a87b"><path d="M 0.484375 25.402344 C 0.484375 27.40625 2.175781 29.03125 4.257812 29.03125 C 6.339844 29.03125 8.03125 27.40625 8.03125 25.402344 C 8.03125 23.398438 6.339844 21.773438 4.257812 21.773438 C 2.175781 21.773438 0.484375 23.398438 0.484375 25.402344 Z M 0.484375 25.402344 " clip-rule="nonzero"/></clipPath><clipPath id="61977da30d"><path d="M 11.128906 21.773438 L 18.699219 21.773438 L 18.699219 29.03125 L 11.128906 29.03125 Z M 11.128906 21.773438 " clip-rule="nonzero"/></clipPath><clipPath id="1a54ad6291"><path d="M 11.128906 25.402344 C 11.128906 27.40625 12.820312 29.03125 14.902344 29.03125 C 16.984375 29.03125 18.675781 27.40625 18.675781 25.402344 C 18.675781 23.398438 16.984375 21.773438 14.902344 21.773438 C 12.820312 21.773438 11.128906 23.398438 11.128906 25.402344 Z M 11.128906 25.402344 " clip-rule="nonzero"/></clipPath><clipPath id="9a4917734a"><path d="M 21.972656 21.773438 L 29.515625 21.773438 L 29.515625 29.03125 L 21.972656 29.03125 Z M 21.972656 21.773438 " clip-rule="nonzero"/></clipPath><clipPath id="dd7e7133dd"><path d="M 21.972656 25.402344 C 21.972656 27.40625 23.660156 29.03125 25.746094 29.03125 C 27.828125 29.03125 29.519531 27.40625 29.519531 25.402344 C 29.519531 23.398438 27.828125 21.773438 25.746094 21.773438 C 23.660156 21.773438 21.972656 23.398438 21.972656 25.402344 Z M 21.972656 25.402344 " clip-rule="nonzero"/></clipPath><clipPath id="3d72355804"><path d="M 24.792969 1.78125 L 27.148438 1.78125 L 27.148438 16.058594 L 24.792969 16.058594 Z M 24.792969 1.78125 " clip-rule="nonzero"/></clipPath><clipPath id="c5361ae44b"><path d="M 24.796875 15.8125 C 24.917969 1.902344 25.015625 1.867188 25.183594 1.828125 C 25.304688 1.792969 25.523438 1.785156 25.691406 1.785156 C 25.863281 1.792969 26.078125 1.804688 26.199219 1.839844 C 26.347656 1.886719 26.515625 1.984375 26.492188 2.050781 C 26.46875 2.121094 26.273438 2.210938 26.054688 2.238281 C 25.789062 2.265625 25.234375 2.242188 25.039062 2.1875 C 24.871094 2.148438 24.75 2.039062 24.820312 1.976562 C 24.894531 1.902344 25.355469 1.800781 25.597656 1.785156 C 25.789062 1.777344 25.984375 1.792969 26.128906 1.828125 C 26.296875 1.867188 26.394531 1.902344 26.492188 2.023438 C 27.363281 3.003906 27.339844 14.84375 26.492188 15.8125 C 26.394531 15.945312 26.296875 15.972656 26.128906 16.011719 C 25.984375 16.046875 25.742188 16.058594 25.546875 16.054688 C 25.355469 16.046875 25.136719 16.011719 25.015625 15.976562 C 24.894531 15.9375 24.796875 15.8125 24.796875 15.8125 " clip-rule="nonzero"/></clipPath><clipPath id="ac7da5481c"><path d="M 13.425781 13.664062 L 27.703125 13.664062 L 27.703125 16.015625 L 13.425781 16.015625 Z M 13.425781 13.664062 " clip-rule="nonzero"/></clipPath><clipPath id="03b69e3c99"><path d="M 13.667969 13.667969 C 27.582031 13.789062 27.617188 13.886719 27.65625 14.054688 C 27.691406 14.175781 27.699219 14.394531 27.699219 14.5625 C 27.691406 14.730469 27.675781 14.949219 27.644531 15.070312 C 27.59375 15.214844 27.5 15.386719 27.429688 15.359375 C 27.363281 15.335938 27.273438 15.144531 27.246094 14.925781 C 27.21875 14.660156 27.238281 14.101562 27.292969 13.910156 C 27.335938 13.738281 27.445312 13.617188 27.507812 13.691406 C 27.582031 13.765625 27.683594 14.222656 27.699219 14.464844 C 27.703125 14.660156 27.691406 14.851562 27.65625 14.996094 C 27.617188 15.167969 27.582031 15.265625 27.457031 15.359375 C 26.480469 16.230469 14.640625 16.207031 13.667969 15.359375 C 13.539062 15.265625 13.511719 15.167969 13.472656 14.996094 C 13.4375 14.851562 13.421875 14.609375 13.429688 14.417969 C 13.4375 14.222656 13.472656 14.007812 13.503906 13.886719 C 13.546875 13.765625 13.667969 13.667969 13.667969 13.667969 " clip-rule="nonzero"/></clipPath><clipPath id="f50e51ca75"><path d="M 11.230469 10.886719 L 18.800781 10.886719 L 18.800781 18.144531 L 11.230469 18.144531 Z M 11.230469 10.886719 " clip-rule="nonzero"/></clipPath><clipPath id="8dcbb8ba3e"><path d="M 11.230469 14.515625 C 11.230469 16.519531 12.917969 18.144531 15 18.144531 C 17.085938 18.144531 18.773438 16.519531 18.773438 14.515625 C 18.773438 12.511719 17.085938 10.886719 15 10.886719 C 12.917969 10.886719 11.230469 12.511719 11.230469 14.515625 Z M 11.230469 14.515625 " clip-rule="nonzero"/></clipPath><clipPath id="ede770e562"><path d="M 21.972656 10.886719 L 29.515625 10.886719 L 29.515625 18.144531 L 21.972656 18.144531 Z M 21.972656 10.886719 " clip-rule="nonzero"/></clipPath><clipPath id="b0bab457d6"><path d="M 21.972656 14.515625 C 21.972656 16.519531 23.660156 18.144531 25.746094 18.144531 C 27.828125 18.144531 29.519531 16.519531 29.519531 14.515625 C 29.519531 12.511719 27.828125 10.886719 25.746094 10.886719 C 23.660156 10.886719 21.972656 12.511719 21.972656 14.515625 Z M 21.972656 14.515625 " clip-rule="nonzero"/></clipPath><clipPath id="70b143a147"><path d="M 21.875 0 L 29.445312 0 L 29.445312 7.257812 L 21.875 7.257812 Z M 21.875 0 " clip-rule="nonzero"/></clipPath><clipPath id="d90111d677"><path d="M 21.875 3.628906 C 21.875 5.632812 23.5625 7.257812 25.644531 7.257812 C 27.730469 7.257812 29.417969 5.632812 29.417969 3.628906 C 29.417969 1.621094 27.730469 0 25.644531 0 C 23.5625 0 21.875 1.621094 21.875 3.628906 Z M 21.875 3.628906 " clip-rule="nonzero"/></clipPath></defs><g clip-path="url(#68e57ee3d9)"><g clip-path="url(#d0c700d4fd)"><path fill="#0a21c0" d="M 1.933594 27.214844 L 1.933594 23.585938 L 28.078125 23.585938 L 28.078125 27.214844 Z M 1.933594 27.214844 " fill-opacity="1" fill-rule="nonzero"/></g></g><g clip-path="url(#8d95a1d700)"><g clip-path="url(#209641a87b)"><path fill="#050a44" d="M 0.484375 29.03125 L 0.484375 21.773438 L 8.027344 21.773438 L 8.027344 29.03125 Z M 0.484375 29.03125 " fill-opacity="1" fill-rule="nonzero"/></g></g><g clip-path="url(#61977da30d)"><g clip-path="url(#1a54ad6291)"><path fill="#050a44" d="M 11.128906 29.03125 L 11.128906 21.773438 L 18.671875 21.773438 L 18.671875 29.03125 Z M 11.128906 29.03125 " fill-opacity="1" fill-rule="nonzero"/></g></g><g clip-path="url(#9a4917734a)"><g clip-path="url(#dd7e7133dd)"><path fill="#050a44" d="M 21.972656 29.03125 L 21.972656 21.773438 L 29.515625 21.773438 L 29.515625 29.03125 Z M 21.972656 29.03125 " fill-opacity="1" fill-rule="nonzero"/></g></g><g clip-path="url(#3d72355804)"><g clip-path="url(#c5361ae44b)"><path fill="#0a21c0" d="M 27.460938 16.328125 L 23.828125 16.328125 L 23.828125 1.511719 L 27.460938 1.511719 Z M 27.460938 16.328125 " fill-opacity="1" fill-rule="nonzero"/></g></g><g clip-path="url(#ac7da5481c)"><g clip-path="url(#03b69e3c99)"><path fill="#0a21c0" d="M 13.15625 16.328125 L 13.15625 12.699219 L 27.96875 12.699219 L 27.96875 16.328125 Z M 13.15625 16.328125 " fill-opacity="1" fill-rule="nonzero"/></g></g><g clip-path="url(#f50e51ca75)"><g clip-path="url(#8dcbb8ba3e)"><path fill="#050a44" d="M 11.230469 18.144531 L 11.230469 10.886719 L 18.769531 10.886719 L 18.769531 18.144531 Z M 11.230469 18.144531 " fill-opacity="1" fill-rule="nonzero"/></g></g><g clip-path="url(#ede770e562)"><g clip-path="url(#b0bab457d6)"><path fill="#050a44" d="M 21.972656 18.144531 L 21.972656 10.886719 L 29.515625 10.886719 L 29.515625 18.144531 Z M 21.972656 18.144531 " fill-opacity="1" fill-rule="nonzero"/></g></g><g clip-path="url(#70b143a147)"><g clip-path="url(#d90111d677)"><path fill="#050a44" d="M 21.875 7.257812 L 21.875 0 L 29.414062 0 L 29.414062 7.257812 Z M 21.875 7.257812 " fill-opacity="1" fill-rule="nonzero"/></g></g></svg>