<svg xmlns="http://www.w3.org/2000/svg" xmlns:xlink="http://www.w3.org/1999/xlink" width="40" zoomAndPan="magnify" viewBox="0 0 30 30.000001" height="40" preserveAspectRatio="xMidYMid meet" version="1.0"><defs><clipPath id="ab70b0b624"><path d="M 2.03125 1.800781 L 6.082031 1.800781 L 6.082031 26.054688 L 2.03125 26.054688 Z M 2.03125 1.800781 " clip-rule="nonzero"/></clipPath><clipPath id="f0eeef203d"><path d="M 6.078125 2.234375 C 5.867188 25.847656 5.703125 25.90625 5.410156 25.972656 C 5.203125 26.03125 4.828125 26.042969 4.535156 26.042969 C 4.246094 26.03125 3.871094 26.007812 3.660156 25.953125 C 3.410156 25.871094 3.121094 25.707031 3.160156 25.589844 C 3.203125 25.476562 3.535156 25.324219 3.910156 25.277344 C 4.371094 25.230469 5.328125 25.265625 5.660156 25.359375 C 5.953125 25.429688 6.160156 25.613281 6.035156 25.71875 C 5.910156 25.847656 5.117188 26.019531 4.703125 26.042969 C 4.371094 26.054688 4.035156 26.03125 3.785156 25.972656 C 3.496094 25.90625 3.328125 25.847656 3.160156 25.636719 C 1.664062 23.976562 1.703125 3.882812 3.160156 2.234375 C 3.328125 2.015625 3.496094 1.96875 3.785156 1.898438 C 4.035156 1.839844 4.453125 1.816406 4.785156 1.828125 C 5.117188 1.839844 5.492188 1.898438 5.703125 1.957031 C 5.910156 2.027344 6.078125 2.234375 6.078125 2.234375 " clip-rule="nonzero"/></clipPath><clipPath id="afd0575553"><path d="M 13.363281 1.484375 L 26.828125 1.484375 L 26.828125 5.40625 L 13.363281 5.40625 Z M 13.363281 1.484375 " clip-rule="nonzero"/></clipPath><clipPath id="82ff095093"><path d="M 13.78125 1.632812 C 26.554688 1.714844 26.589844 1.753906 26.660156 1.960938 C 26.730469 2.203125 26.789062 2.570312 26.800781 2.855469 C 26.8125 3.183594 26.777344 3.589844 26.730469 3.878906 C 26.671875 4.121094 26.601562 4.328125 26.488281 4.449219 C 26.289062 4.652344 25.753906 4.695312 25.523438 4.488281 C 25.382812 4.367188 25.242188 4.203125 25.1875 3.835938 C 25.128906 3.46875 25.140625 2.488281 25.222656 2.121094 C 25.277344 1.796875 25.453125 1.589844 25.570312 1.632812 C 25.683594 1.671875 25.835938 2.039062 25.882812 2.367188 C 25.941406 2.734375 25.941406 3.386719 25.882812 3.714844 C 25.835938 4.082031 25.683594 4.449219 25.570312 4.449219 C 25.441406 4.488281 25.199219 4 25.152344 3.589844 C 25.105469 3.144531 25.152344 2.246094 25.277344 1.917969 C 25.488281 1.347656 26.347656 1.429688 26.578125 1.796875 C 26.695312 1.960938 26.742188 2.246094 26.777344 2.53125 C 26.800781 2.855469 26.824219 3.265625 26.777344 3.550781 C 26.71875 3.917969 26.625 4.203125 26.394531 4.488281 C 25.164062 5.835938 14.953125 5.511719 13.78125 4.488281 C 13.582031 4.285156 13.511719 4.164062 13.445312 3.878906 C 13.386719 3.589844 13.375 3.183594 13.375 2.855469 C 13.386719 2.570312 13.445312 2.203125 13.511719 1.960938 C 13.582031 1.753906 13.78125 1.632812 13.78125 1.632812 " clip-rule="nonzero"/></clipPath><clipPath id="5d14b6fee0"><path d="M 23.550781 3.34375 L 27.515625 3.34375 L 27.515625 16.289062 L 23.550781 16.289062 Z M 23.550781 3.34375 " clip-rule="nonzero"/></clipPath><clipPath id="2da8fb4507"><path d="M 27.363281 3.761719 C 27.238281 16.039062 27.195312 16.085938 26.988281 16.144531 C 26.777344 16.214844 26.402344 16.269531 26.066406 16.28125 C 25.734375 16.292969 25.316406 16.261719 25.066406 16.214844 C 24.816406 16.167969 24.605469 16.097656 24.480469 15.980469 C 24.1875 15.738281 24.1875 15.050781 24.4375 14.785156 C 24.5625 14.632812 24.730469 14.507812 25.066406 14.449219 C 25.484375 14.390625 26.445312 14.402344 26.863281 14.472656 C 27.152344 14.539062 27.40625 14.714844 27.363281 14.832031 C 27.320312 14.949219 26.945312 15.097656 26.570312 15.144531 C 26.234375 15.203125 25.566406 15.203125 25.191406 15.144531 C 24.855469 15.097656 24.4375 14.949219 24.4375 14.832031 C 24.4375 14.703125 24.898438 14.460938 25.359375 14.414062 C 25.777344 14.355469 26.695312 14.414062 27.070312 14.539062 C 27.695312 14.773438 27.570312 15.808594 27.195312 16.0625 C 27.027344 16.179688 26.734375 16.226562 26.402344 16.261719 C 26.109375 16.292969 25.691406 16.304688 25.359375 16.261719 C 24.980469 16.203125 24.6875 16.109375 24.4375 15.875 C 23.101562 14.679688 23.4375 4.914062 24.4375 3.761719 C 24.605469 3.566406 24.773438 3.496094 25.066406 3.4375 C 25.316406 3.378906 25.734375 3.355469 26.066406 3.367188 C 26.402344 3.378906 26.777344 3.425781 26.988281 3.496094 C 27.195312 3.566406 27.363281 3.761719 27.363281 3.761719 " clip-rule="nonzero"/></clipPath><clipPath id="a9c155184b"><path d="M 13.570312 23.402344 L 26.8125 23.402344 L 26.8125 26.804688 L 13.570312 26.804688 Z M 13.570312 23.402344 " clip-rule="nonzero"/></clipPath><clipPath id="bcc2b5acf4"><path d="M 26.382812 26.796875 C 13.792969 26.601562 13.734375 26.441406 13.664062 26.164062 C 13.605469 25.929688 13.582031 25.613281 13.59375 25.335938 C 13.605469 24.980469 13.710938 24.425781 13.792969 24.230469 C 13.863281 24.03125 13.953125 23.953125 14.046875 24.03125 C 14.164062 24.152344 14.371094 24.742188 14.40625 25.179688 C 14.429688 25.535156 14.359375 26.125 14.28125 26.402344 C 14.199219 26.679688 14.023438 26.875 13.910156 26.757812 C 13.792969 26.640625 13.617188 25.890625 13.59375 25.453125 C 13.570312 25.179688 13.605469 24.863281 13.664062 24.625 C 13.734375 24.347656 13.792969 24.191406 14 24.03125 C 15.164062 23.042969 25.324219 23.359375 26.382812 24.03125 C 26.542969 24.109375 26.589844 24.152344 26.660156 24.347656 C 26.71875 24.585938 26.777344 24.941406 26.789062 25.21875 C 26.800781 25.535156 26.777344 25.929688 26.71875 26.164062 C 26.660156 26.480469 26.382812 26.796875 26.382812 26.796875 " clip-rule="nonzero"/></clipPath><clipPath id="1350690f2e"><path d="M 13.507812 14.382812 L 17.140625 14.382812 L 17.140625 26.558594 L 13.507812 26.558594 Z M 13.507812 14.382812 " clip-rule="nonzero"/></clipPath><clipPath id="dafea541ea"><path d="M 13.511719 26.144531 C 13.683594 14.609375 13.851562 14.539062 14.148438 14.46875 C 14.40625 14.414062 14.789062 14.402344 15.085938 14.402344 C 15.382812 14.402344 15.722656 14.433594 15.976562 14.492188 C 16.230469 14.574219 16.570312 14.738281 16.488281 14.855469 C 16.402344 14.980469 15.722656 15.179688 15.253906 15.214844 C 14.828125 15.238281 14.191406 15.167969 13.9375 15.085938 C 13.640625 15.003906 13.429688 14.832031 13.554688 14.714844 C 13.683594 14.597656 14.488281 14.425781 14.914062 14.402344 C 15.253906 14.378906 15.59375 14.414062 15.851562 14.46875 C 16.148438 14.539062 16.316406 14.609375 16.488281 14.808594 C 17.507812 15.910156 17.167969 25.144531 16.488281 26.144531 C 16.402344 26.304688 16.316406 26.351562 16.105469 26.421875 C 15.890625 26.480469 15.511719 26.550781 15.171875 26.550781 C 14.789062 26.5625 14.148438 26.492188 13.894531 26.421875 C 13.640625 26.351562 13.511719 26.144531 13.511719 26.144531 " clip-rule="nonzero"/></clipPath><clipPath id="34e4607746"><path d="M 0.484375 0 L 7.753906 0 L 7.753906 7.273438 L 0.484375 7.273438 Z M 0.484375 0 " clip-rule="nonzero"/></clipPath><clipPath id="92b1e14cc1"><path d="M 4.121094 0 C 2.113281 0 0.484375 1.628906 0.484375 3.636719 C 0.484375 5.644531 2.113281 7.273438 4.121094 7.273438 C 6.128906 7.273438 7.753906 5.644531 7.753906 3.636719 C 7.753906 1.628906 6.128906 0 4.121094 0 Z M 4.121094 0 " clip-rule="nonzero"/></clipPath><clipPath id="51850cb200"><path d="M 11.382812 0 L 18.617188 0 L 18.617188 7.230469 L 11.382812 7.230469 Z M 11.382812 0 " clip-rule="nonzero"/></clipPath><clipPath id="80dc41fc15"><path d="M 15 0 C 13.003906 0 11.382812 1.617188 11.382812 3.617188 C 11.382812 5.613281 13.003906 7.230469 15 7.230469 C 16.996094 7.230469 18.617188 5.613281 18.617188 3.617188 C 18.617188 1.617188 16.996094 0 15 0 Z M 15 0 " clip-rule="nonzero"/></clipPath><clipPath id="0203e2c795"><path d="M 22.285156 0 L 29.515625 0 L 29.515625 7.230469 L 22.285156 7.230469 Z M 22.285156 0 " clip-rule="nonzero"/></clipPath><clipPath id="86a8256eae"><path d="M 25.902344 0 C 23.902344 0 22.285156 1.617188 22.285156 3.617188 C 22.285156 5.613281 23.902344 7.230469 25.902344 7.230469 C 27.898438 7.230469 29.515625 5.613281 29.515625 3.617188 C 29.515625 1.617188 27.898438 0 25.902344 0 Z M 25.902344 0 " clip-rule="nonzero"/></clipPath><clipPath id="1625bbeb77"><path d="M 0.484375 10.902344 L 7.714844 10.902344 L 7.714844 18.132812 L 0.484375 18.132812 Z M 0.484375 10.902344 " clip-rule="nonzero"/></clipPath><clipPath id="07b40de868"><path d="M 4.097656 10.902344 C 2.101562 10.902344 0.484375 12.519531 0.484375 14.515625 C 0.484375 16.511719 2.101562 18.132812 4.097656 18.132812 C 6.097656 18.132812 7.714844 16.511719 7.714844 14.515625 C 7.714844 12.519531 6.097656 10.902344 4.097656 10.902344 Z M 4.097656 10.902344 " clip-rule="nonzero"/></clipPath><clipPath id="29df5868ba"><path d="M 11.382812 10.902344 L 18.617188 10.902344 L 18.617188 18.132812 L 11.382812 18.132812 Z M 11.382812 10.902344 " clip-rule="nonzero"/></clipPath><clipPath id="8ca7c0f7f7"><path d="M 15 10.902344 C 13.003906 10.902344 11.382812 12.519531 11.382812 14.515625 C 11.382812 16.511719 13.003906 18.132812 15 18.132812 C 16.996094 18.132812 18.617188 16.511719 18.617188 14.515625 C 18.617188 12.519531 16.996094 10.902344 15 10.902344 Z M 15 10.902344 " clip-rule="nonzero"/></clipPath><clipPath id="92c5166d16"><path d="M 22.285156 10.902344 L 29.515625 10.902344 L 29.515625 18.132812 L 22.285156 18.132812 Z M 22.285156 10.902344 " clip-rule="nonzero"/></clipPath><clipPath id="42f4ad43b0"><path d="M 25.902344 10.902344 C 23.902344 10.902344 22.285156 12.519531 22.285156 14.515625 C 22.285156 16.511719 23.902344 18.132812 25.902344 18.132812 C 27.898438 18.132812 29.515625 16.511719 29.515625 14.515625 C 29.515625 12.519531 27.898438 10.902344 25.902344 10.902344 Z M 25.902344 10.902344 " clip-rule="nonzero"/></clipPath><clipPath id="b71e95fa8b"><path d="M 0.484375 21.796875 L 7.71875 21.796875 L 7.71875 29.03125 L 0.484375 29.03125 Z M 0.484375 21.796875 " clip-rule="nonzero"/></clipPath><clipPath id="9b8256f96d"><path d="M 4.101562 21.796875 C 2.101562 21.796875 0.484375 23.417969 0.484375 25.414062 C 0.484375 27.414062 2.101562 29.03125 4.101562 29.03125 C 6.097656 29.03125 7.71875 27.414062 7.71875 25.414062 C 7.71875 23.417969 6.097656 21.796875 4.101562 21.796875 Z M 4.101562 21.796875 " clip-rule="nonzero"/></clipPath><clipPath id="43f476e214"><path d="M 11.371094 21.773438 L 18.628906 21.773438 L 18.628906 29.03125 L 11.371094 29.03125 Z M 11.371094 21.773438 " clip-rule="nonzero"/></clipPath><clipPath id="2c9945997a"><path d="M 15 21.773438 C 12.996094 21.773438 11.371094 23.398438 11.371094 25.402344 C 11.371094 27.40625 12.996094 29.03125 15 29.03125 C 17.003906 29.03125 18.628906 27.40625 18.628906 25.402344 C 18.628906 23.398438 17.003906 21.773438 15 21.773438 Z M 15 21.773438 " clip-rule="nonzero"/></clipPath><clipPath id="2c6b012a85"><path d="M 22.257812 21.773438 L 29.515625 21.773438 L 29.515625 29.03125 L 22.257812 29.03125 Z M 22.257812 21.773438 " clip-rule="nonzero"/></clipPath><clipPath id="efef9a5790"><path d="M 25.886719 21.773438 C 23.882812 21.773438 22.257812 23.398438 22.257812 25.402344 C 22.257812 27.40625 23.882812 29.03125 25.886719 29.03125 C 27.890625 29.03125 29.515625 27.40625 29.515625 25.402344 C 29.515625 23.398438 27.890625 21.773438 25.886719 21.773438 Z M 25.886719 21.773438 " clip-rule="nonzero"/></clipPath></defs><g clip-path="url(#ab70b0b624)"><g clip-path="url(#f0eeef203d)"><path fill="#0a21c0" d="M 1.496094 1.363281 L 7.742188 1.363281 L 7.742188 26.519531 L 1.496094 26.519531 Z M 1.496094 1.363281 " fill-opacity="1" fill-rule="nonzero"/></g></g><g clip-path="url(#afd0575553)"><g clip-path="url(#82ff095093)"><path fill="#0a21c0" d="M 12.910156 0 L 27.257812 0 L 27.257812 6.121094 L 12.910156 6.121094 Z M 12.910156 0 " fill-opacity="1" fill-rule="nonzero"/></g></g><g clip-path="url(#5d14b6fee0)"><g clip-path="url(#2da8fb4507)"><path fill="#0a21c0" d="M 22.769531 2.902344 L 29.035156 2.902344 L 29.035156 16.753906 L 22.769531 16.753906 Z M 22.769531 2.902344 " fill-opacity="1" fill-rule="nonzero"/></g></g><g clip-path="url(#a9c155184b)"><g clip-path="url(#bcc2b5acf4)"><path fill="#050a44" d="M 13.128906 22.453125 L 27.273438 22.453125 L 27.273438 28.378906 L 13.128906 28.378906 Z M 13.128906 22.453125 " fill-opacity="1" fill-rule="nonzero"/></g></g><g clip-path="url(#1350690f2e)"><g clip-path="url(#dafea541ea)"><path fill="#050a44" d="M 11.8125 13.9375 L 18.1875 13.9375 L 18.1875 27.03125 L 11.8125 27.03125 Z M 11.8125 13.9375 " fill-opacity="1" fill-rule="nonzero"/></g></g><g clip-path="url(#34e4607746)"><g clip-path="url(#92b1e14cc1)"><path fill="#050a44" d="M 0.484375 0 L 7.753906 0 L 7.753906 7.273438 L 0.484375 7.273438 Z M 0.484375 0 " fill-opacity="1" fill-rule="nonzero"/></g></g><g clip-path="url(#51850cb200)"><g clip-path="url(#80dc41fc15)"><path fill="#050a44" d="M 11.382812 0 L 18.617188 0 L 18.617188 7.230469 L 11.382812 7.230469 Z M 11.382812 0 " fill-opacity="1" fill-rule="nonzero"/></g></g><g clip-path="url(#0203e2c795)"><g clip-path="url(#86a8256eae)"><path fill="#050a44" d="M 22.285156 0 L 29.515625 0 L 29.515625 7.230469 L 22.285156 7.230469 Z M 22.285156 0 " fill-opacity="1" fill-rule="nonzero"/></g></g><g clip-path="url(#1625bbeb77)"><g clip-path="url(#07b40de868)"><path fill="#050a44" d="M 0.484375 10.902344 L 7.714844 10.902344 L 7.714844 18.132812 L 0.484375 18.132812 Z M 0.484375 10.902344 " fill-opacity="1" fill-rule="nonzero"/></g></g><g clip-path="url(#29df5868ba)"><g clip-path="url(#8ca7c0f7f7)"><path fill="#0a21c0" d="M 11.382812 10.902344 L 18.617188 10.902344 L 18.617188 18.132812 L 11.382812 18.132812 Z M 11.382812 10.902344 " fill-opacity="1" fill-rule="nonzero"/></g></g><g clip-path="url(#92c5166d16)"><g clip-path="url(#42f4ad43b0)"><path fill="#050a44" d="M 22.285156 10.902344 L 29.515625 10.902344 L 29.515625 18.132812 L 22.285156 18.132812 Z M 22.285156 10.902344 " fill-opacity="1" fill-rule="nonzero"/></g></g><g clip-path="url(#b71e95fa8b)"><g clip-path="url(#9b8256f96d)"><path fill="#050a44" d="M 0.484375 21.796875 L 7.71875 21.796875 L 7.71875 29.03125 L 0.484375 29.03125 Z M 0.484375 21.796875 " fill-opacity="1" fill-rule="nonzero"/></g></g><g clip-path="url(#43f476e214)"><g clip-path="url(#2c9945997a)"><path fill="#0a21c0" d="M 11.371094 21.773438 L 18.628906 21.773438 L 18.628906 29.03125 L 11.371094 29.03125 Z M 11.371094 21.773438 " fill-opacity="1" fill-rule="nonzero"/></g></g><g clip-path="url(#2c6b012a85)"><g clip-path="url(#efef9a5790)"><path fill="#0a21c0" d="M 22.257812 21.773438 L 29.515625 21.773438 L 29.515625 29.03125 L 22.257812 29.03125 Z M 22.257812 21.773438 " fill-opacity="1" fill-rule="nonzero"/></g></g></svg>