<svg width="1000" height="2000" viewBox="0 0 1000 2000" fill="none" xmlns="http://www.w3.org/2000/svg">
<rect width="1000" height="2000" fill="#F5F5F5"/>
<g clip-path="url(#clip0_0_1)">
<rect width="1000" height="2000" fill="white"/>
<path d="M274.5 11C240.335 -32.5222 167.274 157.893 171 328.5C174.726 499.107 261.5 590.5 491 577.5C720.5 564.5 750.5 447.5 813 488.5C875.5 529.5 884.5 689.5 862.5 852C840.5 1014.5 273.207 839.905 233.5 1146C193.793 1452.09 787.6 1320.88 847.5 1200C907.4 1079.12 827 1015 685.5 1053C544 1091 413 1252 393.5 1297.5C374 1343 300.5 1505 445.5 1546C590.5 1587 644.5 1514 746 1697.5C847.5 1881 936 1756.5 994.5 1844.5" stroke="#0A21C0" stroke-width="30"/>
</g>
<defs>
<clipPath id="clip0_0_1">
<rect width="1000" height="2000" fill="white"/>
</clipPath>
</defs>
</svg>
